<?xml version="1.0" encoding="UTF-8" standalone="no"?>
<!-- Created with Inkscape (http://www.inkscape.org/) -->

<svg
   xmlns:dc="http://purl.org/dc/elements/1.1/"
   xmlns:cc="http://creativecommons.org/ns#"
   xmlns:rdf="http://www.w3.org/1999/02/22-rdf-syntax-ns#"
   xmlns:svg="http://www.w3.org/2000/svg"
   xmlns="http://www.w3.org/2000/svg"
   xmlns:sodipodi="http://sodipodi.sourceforge.net/DTD/sodipodi-0.dtd"
   xmlns:inkscape="http://www.inkscape.org/namespaces/inkscape"
   width="297mm"
   height="210mm"
   viewBox="0 0 297 210"
   version="1.1"
   id="svg294"
   inkscape:version="0.92.2 5c3e80d, 2017-08-06"
   sodipodi:docname="atreis-back-plate.svg">
  <defs
     id="defs288">
    <inkscape:path-effect
       effect="mirror_symmetry"
       start_point="400.86,0.28800125"
       end_point="400.86,379.26594"
       center_point="400.86,189.77697"
       id="path-effect5397"
       is_visible="true"
       mode="free"
       discard_orig_path="false"
       fuse_paths="true"
       oposite_fuse="false" />
    <clipPath
       clipPathUnits="userSpaceOnUse"
       id="clipPath5223">
      <path
         d="M 0,379.554 H 347.60734 L 656.67443,538.64015 830.3813,201.16843 443.11046,1.8284509 435.563,16.491404 435.563,0 H 0 Z"
         id="path5221"
         inkscape:connector-curvature="0"
         inkscape:original-d="M 0,379.554 H 435.563 V 0 H 0 Z" />
    </clipPath>
  </defs>
  <sodipodi:namedview
     id="base"
     pagecolor="#ffffff"
     bordercolor="#666666"
     borderopacity="1.0"
     inkscape:pageopacity="0.0"
     inkscape:pageshadow="2"
     inkscape:zoom="0.7"
     inkscape:cx="362.65468"
     inkscape:cy="620.32797"
     inkscape:document-units="mm"
     inkscape:current-layer="layer1"
     showgrid="false"
     inkscape:window-width="1916"
     inkscape:window-height="1041"
     inkscape:window-x="3840"
     inkscape:window-y="18"
     inkscape:window-maximized="0" />
  <metadata
     id="metadata291">
    <rdf:RDF>
      <cc:Work
         rdf:about="">
        <dc:format>image/svg+xml</dc:format>
        <dc:type
           rdf:resource="http://purl.org/dc/dcmitype/StillImage" />
        <dc:title></dc:title>
      </cc:Work>
    </rdf:RDF>
  </metadata>
  <g
     inkscape:label="Layer 1"
     inkscape:groupmode="layer"
     id="layer1"
     transform="translate(0,-87)">
    <g
       transform="matrix(0.35277777,0,0,-0.35277777,-11.327531,447.32145)"
       style="display:inline"
       id="g160">
      <g
         id="g4465"
         transform="translate(56.606692,212.0618)">
        <g
           inkscape:path-effect="#path-effect5397"
           clip-path="none"
           mask="none"
           id="g4463">
          <g
             transform="rotate(-13.618123,1191.1922,254.10633)"
             clip-path="url(#clipPath5223)"
             id="g4461">
            <g
               transform="translate(14.3381,107.5038)"
               id="g4299">
              <path
                 inkscape:original-d="m 0,0 c 0,-1.644 -1.333,-2.976 -2.976,-2.976 -1.644,0 -2.977,1.332 -2.977,2.976 0,1.644 1.333,2.976 2.977,2.976 C -1.333,2.976 0,1.644 0,0 Z"
                 inkscape:connector-curvature="0"
                 id="path4297"
                 style="fill:none;stroke:#c62027;stroke-width:0.56699997;stroke-linecap:round;stroke-linejoin:round;stroke-miterlimit:4;stroke-dasharray:none;stroke-opacity:1"
                 d="m 0,0 c 0,-1.644 -1.333,-2.976 -2.976,-2.976 -1.644,0 -2.977,1.332 -2.977,2.976 0,1.644 1.333,2.976 2.977,2.976 C -1.333,2.976 0,1.644 0,0 Z m 754.09457,182.68718 c 0.75239,-1.46172 2.5472,-2.03598 4.00804,-1.28404 1.46172,0.75239 2.03732,2.54677 1.28493,4.00849 -0.75239,1.46173 -2.5472,2.03598 -4.00893,1.28359 -1.46084,-0.75194 -2.03644,-2.54632 -1.28404,-4.00804 z" />
            </g>
            <g
               transform="translate(200.7756,54.024)"
               id="g4303">
              <path
                 inkscape:original-d="m 0,0 c 0,-1.644 -1.333,-2.976 -2.976,-2.976 -1.644,0 -2.977,1.332 -2.977,2.976 0,1.644 1.333,2.976 2.977,2.976 C -1.333,2.976 0,1.644 0,0 Z"
                 inkscape:connector-curvature="0"
                 id="path4301"
                 style="fill:none;stroke:#c62027;stroke-width:0.56699997;stroke-linecap:round;stroke-linejoin:round;stroke-miterlimit:4;stroke-dasharray:none;stroke-opacity:1"
                 d="m 0,0 c 0,-1.644 -1.333,-2.976 -2.976,-2.976 -1.644,0 -2.977,1.332 -2.977,2.976 0,1.644 1.333,2.976 2.977,2.976 C -1.333,2.976 0,1.644 0,0 Z m 426.36604,103.29157 c 0.75239,-1.46173 2.5472,-2.03598 4.00804,-1.28405 1.46172,0.7524 2.03732,2.54677 1.28493,4.0085 -0.75239,1.46172 -2.5472,2.03598 -4.00893,1.28359 -1.46083,-0.75194 -2.03644,-2.54632 -1.28404,-4.00804 z" />
            </g>
            <g
               transform="translate(359.5881,12.1913)"
               id="g4307">
              <path
                 inkscape:original-d="m 19.750983,33.831939 c 0,-1.644 -1.333,-2.976 -2.976,-2.976 -1.644,0 -2.977,1.332 -2.977,2.976 0,1.644 1.333,2.976 2.977,2.976 1.643,0 2.976,-1.332 2.976,-2.976 z"
                 inkscape:connector-curvature="0"
                 id="path4305"
                 style="fill:none;stroke:#c62027;stroke-width:0.56699997;stroke-linecap:round;stroke-linejoin:round;stroke-miterlimit:4;stroke-dasharray:none;stroke-opacity:1"
                 d="m 19.750983,33.831939 c 0,-1.644 -1.333,-2.976 -2.976,-2.976 -1.644,0 -2.977,1.332 -2.977,2.976 0,1.644 1.333,2.976 2.977,2.976 1.643,0 2.976,-1.332 2.976,-2.976 z m 92.698567,22.457183 c 0.75239,-1.461725 2.5472,-2.03598 4.00804,-1.284044 1.46172,0.752394 2.03733,2.546772 1.28493,4.008497 -0.75239,1.461725 -2.5472,2.035981 -4.00893,1.283587 -1.46083,-0.751936 -2.03643,-2.546315 -1.28404,-4.00804 z" />
            </g>
            <g
               transform="translate(426.3173,128.108)"
               id="g4311">
              <path
                 inkscape:original-d="m 0,0 c 0,-1.644 -1.333,-2.976 -2.976,-2.976 -1.644,0 -2.977,1.332 -2.977,2.976 0,1.644 1.333,2.976 2.977,2.976 C -1.333,2.976 0,1.644 0,0 Z"
                 inkscape:connector-curvature="0"
                 id="path4309"
                 style="fill:none;stroke:#c62027;stroke-width:0.56699997;stroke-linecap:round;stroke-linejoin:round;stroke-miterlimit:4;stroke-dasharray:none;stroke-opacity:1"
                 d="" />
            </g>
            <g
               transform="translate(292.34847,349.59524)"
               id="g4315">
              <path
                 inkscape:original-d="m 0,0 c 0,-1.644 -1.333,-2.976 -2.976,-2.976 -1.644,0 -2.977,1.332 -2.977,2.976 0,1.644 1.333,2.976 2.977,2.976 C -1.333,2.976 0,1.644 0,0 Z"
                 inkscape:connector-curvature="0"
                 id="path4313"
                 style="fill:none;stroke:#c62027;stroke-width:0.56699997;stroke-linecap:round;stroke-linejoin:round;stroke-miterlimit:4;stroke-dasharray:none;stroke-opacity:1"
                 d="m 0,0 c 0,-1.644 -1.333,-2.976 -2.976,-2.976 -1.644,0 -2.977,1.332 -2.977,2.976 0,1.644 1.333,2.976 2.977,2.976 C -1.333,2.976 0,1.644 0,0 Z m 118.10197,28.61142 c 0.7524,-1.461724 2.54721,-2.03598 4.00804,-1.284044 1.46173,0.752394 2.03733,2.546772 1.28494,4.008497 -0.7524,1.461725 -2.54721,2.035981 -4.00893,1.283587 -1.46084,-0.751936 -2.03644,-2.546315 -1.28405,-4.00804 z" />
            </g>
            <g
               transform="translate(151.8589,365.6497)"
               id="g4319">
              <path
                 inkscape:original-d="m 18.906655,-1.5932279 c 0,-1.644 -1.333,-2.976 -2.976,-2.976 -1.644,0 -2.977,1.332 -2.977,2.976 0,1.6439999 1.333,2.9759999 2.977,2.9759999 1.643,0 2.976,-1.332 2.976,-2.9759999 z"
                 inkscape:connector-curvature="0"
                 id="path4317"
                 style="fill:none;stroke:#c62027;stroke-width:0.56699997;stroke-linecap:round;stroke-linejoin:round;stroke-miterlimit:4;stroke-dasharray:none;stroke-opacity:1"
                 d="m 18.906655,-1.5932279 c 0,-1.644 -1.333,-2.976 -2.976,-2.976 -1.644,0 -2.977,1.332 -2.977,2.976 0,1.6439999 1.333,2.9759999 2.977,2.9759999 1.643,0 2.976,-1.332 2.976,-2.9759999 z M 360.07587,81.058529 c 0.75239,-1.461725 2.5472,-2.03598 4.00804,-1.284044 1.46172,0.752394 2.03732,2.546772 1.28493,4.008497 -0.75239,1.461725 -2.5472,2.035981 -4.00893,1.283587 -1.46084,-0.751936 -2.03644,-2.546315 -1.28404,-4.00804 z" />
            </g>
            <g
               transform="translate(13.7756,335.0663)"
               id="g4323">
              <path
                 inkscape:original-d="m 0,0 c 0,-1.644 -1.333,-2.976 -2.976,-2.976 -1.644,0 -2.977,1.332 -2.977,2.976 0,1.644 1.333,2.976 2.977,2.976 C -1.333,2.976 0,1.644 0,0 Z"
                 inkscape:connector-curvature="0"
                 id="path4321"
                 style="fill:none;stroke:#c62027;stroke-width:0.56699997;stroke-linecap:round;stroke-linejoin:round;stroke-miterlimit:4;stroke-dasharray:none;stroke-opacity:1"
                 d="m 0,0 c 0,-1.644 -1.333,-2.976 -2.976,-2.976 -1.644,0 -2.977,1.332 -2.977,2.976 0,1.644 1.333,2.976 2.977,2.976 C -1.333,2.976 0,1.644 0,0 Z m 651.01083,157.71408 c 0.7524,-1.46172 2.54721,-2.03598 4.00804,-1.28404 1.46173,0.75239 2.03733,2.54677 1.28494,4.0085 -0.7524,1.46172 -2.54721,2.03598 -4.00893,1.28358 -1.46084,-0.75193 -2.03644,-2.54631 -1.28405,-4.00804 z" />
            </g>
            <g
               transform="translate(74.2756,275.5463)"
               id="g4327">
              <path
                 inkscape:original-d="m 0,0 c 0,-1.644 -1.333,-2.976 -2.976,-2.976 -1.644,0 -2.977,1.332 -2.977,2.976 0,1.644 1.333,2.976 2.977,2.976 C -1.333,2.976 0,1.644 0,0 Z"
                 inkscape:connector-curvature="0"
                 id="path4325"
                 style="fill:none;stroke:#c62027;stroke-width:0.56699997;stroke-linecap:round;stroke-linejoin:round;stroke-miterlimit:4;stroke-dasharray:none;stroke-opacity:1"
                 d="m 0,0 c 0,-1.644 -1.333,-2.976 -2.976,-2.976 -1.644,0 -2.977,1.332 -2.977,2.976 0,1.644 1.333,2.976 2.977,2.976 C -1.333,2.976 0,1.644 0,0 Z m 563.9586,136.62478 c 0.7524,-1.46172 2.54721,-2.03598 4.00804,-1.28404 1.46173,0.75239 2.03733,2.54677 1.28493,4.0085 -0.75239,1.46172 -2.5472,2.03598 -4.00892,1.28358 -1.46084,-0.75193 -2.03644,-2.54631 -1.28405,-4.00804 z" />
            </g>
            <g
               transform="translate(74.2756,167.5463)"
               id="g4331">
              <path
                 inkscape:original-d="m 0,0 c 0,-1.644 -1.333,-2.976 -2.976,-2.976 -1.644,0 -2.977,1.332 -2.977,2.976 0,1.644 1.333,2.976 2.977,2.976 C -1.333,2.976 0,1.644 0,0 Z"
                 inkscape:connector-curvature="0"
                 id="path4329"
                 style="fill:none;stroke:#c62027;stroke-width:0.56699997;stroke-linecap:round;stroke-linejoin:round;stroke-miterlimit:4;stroke-dasharray:none;stroke-opacity:1"
                 d="m 0,0 c 0,-1.644 -1.333,-2.976 -2.976,-2.976 -1.644,0 -2.977,1.332 -2.977,2.976 0,1.644 1.333,2.976 2.977,2.976 C -1.333,2.976 0,1.644 0,0 Z m 613.38593,148.59906 c 0.7524,-1.46172 2.54721,-2.03598 4.00804,-1.28404 1.46173,0.75239 2.03733,2.54677 1.28494,4.0085 -0.7524,1.46172 -2.54721,2.03598 -4.00893,1.28358 -1.46084,-0.75193 -2.03644,-2.54631 -1.28405,-4.00804 z" />
            </g>
            <g
               transform="translate(290.2756,177.6709)"
               id="g4335">
              <path
                 inkscape:original-d="m 0,0 c 0,-1.644 -1.333,-2.976 -2.976,-2.976 -1.644,0 -2.977,1.332 -2.977,2.976 0,1.644 1.333,2.976 2.977,2.976 C -1.333,2.976 0,1.644 0,0 Z"
                 inkscape:connector-curvature="0"
                 id="path4333"
                 style="fill:none;stroke:#c62027;stroke-width:0.56699997;stroke-linecap:round;stroke-linejoin:round;stroke-miterlimit:4;stroke-dasharray:none;stroke-opacity:1"
                 d="m 0,0 c 0,-1.644 -1.333,-2.976 -2.976,-2.976 -1.644,0 -2.977,1.332 -2.977,2.976 0,1.644 1.333,2.976 2.977,2.976 C -1.333,2.976 0,1.644 0,0 Z m 200.70087,48.621853 c 0.75239,-1.461725 2.5472,-2.03598 4.00804,-1.284044 1.46172,0.752394 2.03732,2.546772 1.28493,4.008497 -0.75239,1.461725 -2.5472,2.035981 -4.00893,1.283587 -1.46083,-0.751936 -2.03644,-2.546315 -1.28404,-4.00804 z" />
            </g>
            <g
               transform="translate(290.2756,285.671)"
               id="g4339">
              <path
                 inkscape:original-d="m 0,0 c 0,-1.644 -1.333,-2.976 -2.976,-2.976 -1.644,0 -2.977,1.332 -2.977,2.976 0,1.644 1.333,2.976 2.977,2.976 C -1.333,2.976 0,1.644 0,0 Z"
                 inkscape:connector-curvature="0"
                 id="path4337"
                 style="fill:none;stroke:#c62027;stroke-width:0.56699997;stroke-linecap:round;stroke-linejoin:round;stroke-miterlimit:4;stroke-dasharray:none;stroke-opacity:1"
                 d="m 0,0 c 0,-1.644 -1.333,-2.976 -2.976,-2.976 -1.644,0 -2.977,1.332 -2.977,2.976 0,1.644 1.333,2.976 2.977,2.976 C -1.333,2.976 0,1.644 0,0 Z m 151.27349,36.647561 c 0.75239,-1.461724 2.5472,-2.03598 4.00804,-1.284044 1.46172,0.752394 2.03733,2.546772 1.28493,4.008497 -0.75239,1.461725 -2.5472,2.035981 -4.00893,1.283587 -1.46083,-0.751936 -2.03644,-2.546315 -1.28404,-4.00804 z" />
            </g>
            <g
               transform="translate(337.4384,101.8022)"
               id="g4347">
              <path
                 inkscape:original-d="m 0,0 c 0,-1.644 -1.333,-2.976 -2.976,-2.976 -1.644,0 -2.977,1.332 -2.977,2.976 0,1.644 1.333,2.976 2.977,2.976 C -1.333,2.976 0,1.644 0,0 Z"
                 inkscape:connector-curvature="0"
                 id="path4345"
                 style="fill:none;stroke:#c62027;stroke-width:0.56699997;stroke-linecap:round;stroke-linejoin:round;stroke-miterlimit:4;stroke-dasharray:none;stroke-opacity:1"
                 d="m 0,0 c 0,-1.644 -1.333,-2.976 -2.976,-2.976 -1.644,0 -2.977,1.332 -2.977,2.976 0,1.644 1.333,2.976 2.977,2.976 C -1.333,2.976 0,1.644 0,0 Z m 146.32645,35.449091 c 0.7524,-1.461725 2.54721,-2.03598 4.00804,-1.284044 1.46173,0.752394 2.03733,2.546772 1.28494,4.008497 -0.7524,1.461725 -2.54721,2.035981 -4.00893,1.283587 -1.46084,-0.751936 -2.03644,-2.546315 -1.28405,-4.00804 z" />
            </g>
            <g
               transform="translate(357.4027,0.288)"
               id="g4459">
              <path
                 sodipodi:nodetypes="csssssscccc"
                 inkscape:original-d="m -162.888,43.543 c -4.156,0.631 -7.227,4.204 -7.227,8.407 v 35.804 c 0,4.694 -3.805,8.5 -8.5,8.5 h -169.996 c -4.696,0 -8.504,3.807 -8.504,8.504 V 335.78 c 0,3.845 2.581,7.212 6.294,8.212 l 6.294,1.694 c 277.414724,77.05771 162.00303,-36.51909 457.79081,62.21196 C 294.7751,453.71308 361.40811,-76.091082 -162.888,43.543 Z"
                 inkscape:connector-curvature="0"
                 id="path4457"
                 style="fill:none;stroke:#d72227;stroke-width:0.56699997;stroke-linecap:round;stroke-linejoin:round;stroke-miterlimit:4;stroke-dasharray:none;stroke-opacity:1"
                 d="m -162.888,43.543 c -4.156,0.631 -7.227,4.204 -7.227,8.407 v 35.804 c 0,4.694 -3.805,8.5 -8.5,8.5 h -169.996 c -4.696,0 -8.504,3.807 -8.504,8.504 l 0,231.022 c 0,3.845 2.581,7.212 6.294,8.212 l 6.294,1.694 c 228.95594,63.59728 190.3369,-2.65676 336.1416557,27.75977 C 135.17405,413.13069 70.514961,454.36453 303.19184,502.60256 l 6.37144,1.37434 c 3.75899,0.81016 7.59477,-1.00231 9.35447,-4.421 L 424.64739,294.148 c 2.14964,-4.17623 0.50615,-9.30391 -3.66919,-11.45308 L 269.83016,204.89446 c -4.17445,-2.14871 -5.81572,-7.27413 -3.66746,-11.44769 l 16.38608,-31.83431 c 1.92354,-3.737 0.82825,-8.31932 -2.57817,-10.7824 C 202.68467,85.772423 133.45136,50.63578 73.181455,36.755038 13.241189,21.513628 -64.396677,21.069213 -162.888,43.543 Z" />
            </g>
          </g>
        </g>
      </g>
    </g>
  </g>
</svg>
