<?xml version="1.0" encoding="UTF-8" standalone="no"?>
<!-- Created with Inkscape (http://www.inkscape.org/) -->

<svg
   xmlns:dc="http://purl.org/dc/elements/1.1/"
   xmlns:cc="http://creativecommons.org/ns#"
   xmlns:rdf="http://www.w3.org/1999/02/22-rdf-syntax-ns#"
   xmlns:svg="http://www.w3.org/2000/svg"
   xmlns="http://www.w3.org/2000/svg"
   xmlns:sodipodi="http://sodipodi.sourceforge.net/DTD/sodipodi-0.dtd"
   xmlns:inkscape="http://www.inkscape.org/namespaces/inkscape"
   version="1.1"
   id="svg5207"
   xml:space="preserve"
   width="297mm"
   height="210mm"
   viewBox="0 0 1122.5197 793.7008"
   sodipodi:docname="atreis-switch-plate2.svg"
   inkscape:version="0.92.2 5c3e80d, 2017-08-06"><metadata
     id="metadata5213"><rdf:RDF><cc:Work
         rdf:about=""><dc:format>image/svg+xml</dc:format><dc:type
           rdf:resource="http://purl.org/dc/dcmitype/StillImage" /><dc:title></dc:title></cc:Work></rdf:RDF></metadata><defs
     id="defs5211"><inkscape:path-effect
       effect="mirror_symmetry"
       start_point="400.86,0.288005"
       end_point="400.86,379.26594"
       center_point="400.86,189.77697"
       id="path-effect5397"
       is_visible="true"
       mode="free"
       discard_orig_path="false"
       fuse_paths="true"
       oposite_fuse="false" /><clipPath
       clipPathUnits="userSpaceOnUse"
       id="clipPath5223"><path
         d="m 0,379.554 347.60734,0 L 656.67443,538.64015 830.3813,201.16843 443.11046,1.8284509 435.563,16.491404 435.563,0 H 0 Z"
         id="path5221"
         inkscape:connector-curvature="0"
         inkscape:original-d="M 0,379.554 H 435.563 V 0 H 0 Z" /></clipPath></defs><sodipodi:namedview
     pagecolor="#ffffff"
     bordercolor="#666666"
     borderopacity="1"
     objecttolerance="10"
     gridtolerance="10"
     guidetolerance="10"
     inkscape:pageopacity="0"
     inkscape:pageshadow="2"
     inkscape:window-width="1916"
     inkscape:window-height="1041"
     id="namedview5209"
     showgrid="false"
     units="mm"
     inkscape:zoom="0.59732243"
     inkscape:cx="422.9319"
     inkscape:cy="604.94511"
     inkscape:window-x="3840"
     inkscape:window-y="18"
     inkscape:window-maximized="0"
     inkscape:current-layer="g5215"
     showguides="true"
     inkscape:lockguides="false"
     inkscape:measure-start="25.9491,439.461"
     inkscape:measure-end="585.01,634.926"><inkscape:grid
       type="xygrid"
       id="grid3998" /></sodipodi:namedview><g
     id="g5215"
     inkscape:groupmode="layer"
     inkscape:label="iris-switch-plate"
     transform="matrix(1.3333333,0,0,-1.3333333,0,793.7008)"
     style="display:inline"><g
       id="g4125"
       transform="translate(23.961006,-211.07652)"><g
         inkscape:path-effect="#path-effect5397"
         clip-path="none"
         mask="none"
         id="g5217"><g
           transform="rotate(-13.618123,1191.1922,254.10633)"
           clip-path="url(#clipPath5223)"
           id="g5219"><g
             transform="translate(14.3381,107.5038)"
             id="g5225"><path
               inkscape:original-d="m 0,0 c 0,-1.644 -1.333,-2.976 -2.976,-2.976 -1.644,0 -2.977,1.332 -2.977,2.976 0,1.644 1.333,2.976 2.977,2.976 C -1.333,2.976 0,1.644 0,0 Z"
               inkscape:connector-curvature="0"
               id="path5227"
               style="fill:none;stroke:#c62027;stroke-width:0.56699997;stroke-linecap:round;stroke-linejoin:round;stroke-miterlimit:4;stroke-dasharray:none;stroke-opacity:1"
               d="m 0,0 c 0,-1.644 -1.333,-2.976 -2.976,-2.976 -1.644,0 -2.977,1.332 -2.977,2.976 0,1.644 1.333,2.976 2.977,2.976 C -1.333,2.976 0,1.644 0,0 Z m 754.09457,182.68718 c 0.75239,-1.46172 2.5472,-2.03598 4.00804,-1.28404 1.46172,0.75239 2.03732,2.54677 1.28493,4.00849 -0.75239,1.46173 -2.5472,2.03598 -4.00893,1.28359 -1.46084,-0.75194 -2.03644,-2.54632 -1.28404,-4.00804 z" /></g><g
             transform="translate(200.7756,54.024)"
             id="g5229"><path
               inkscape:original-d="m 0,0 c 0,-1.644 -1.333,-2.976 -2.976,-2.976 -1.644,0 -2.977,1.332 -2.977,2.976 0,1.644 1.333,2.976 2.977,2.976 C -1.333,2.976 0,1.644 0,0 Z"
               inkscape:connector-curvature="0"
               id="path5231"
               style="fill:none;stroke:#c62027;stroke-width:0.56699997;stroke-linecap:round;stroke-linejoin:round;stroke-miterlimit:4;stroke-dasharray:none;stroke-opacity:1"
               d="m 0,0 c 0,-1.644 -1.333,-2.976 -2.976,-2.976 -1.644,0 -2.977,1.332 -2.977,2.976 0,1.644 1.333,2.976 2.977,2.976 C -1.333,2.976 0,1.644 0,0 Z m 426.36604,103.29157 c 0.75239,-1.46173 2.5472,-2.03598 4.00804,-1.28405 1.46172,0.7524 2.03732,2.54677 1.28493,4.0085 -0.75239,1.46172 -2.5472,2.03598 -4.00893,1.28359 -1.46083,-0.75194 -2.03644,-2.54632 -1.28404,-4.00804 z" /></g><g
             transform="translate(359.5881,12.1913)"
             id="g5233"><path
               inkscape:original-d="m 19.750983,33.831939 c 0,-1.644 -1.333,-2.976 -2.976,-2.976 -1.644,0 -2.977,1.332 -2.977,2.976 0,1.644 1.333,2.976 2.977,2.976 1.643,0 2.976,-1.332 2.976,-2.976 z"
               inkscape:connector-curvature="0"
               id="path5235"
               style="fill:none;stroke:#c62027;stroke-width:0.56699997;stroke-linecap:round;stroke-linejoin:round;stroke-miterlimit:4;stroke-dasharray:none;stroke-opacity:1"
               d="m 19.750983,33.831939 c 0,-1.644 -1.333,-2.976 -2.976,-2.976 -1.644,0 -2.977,1.332 -2.977,2.976 0,1.644 1.333,2.976 2.977,2.976 1.643,0 2.976,-1.332 2.976,-2.976 z m 92.698567,22.457183 c 0.75239,-1.461725 2.5472,-2.03598 4.00804,-1.284044 1.46172,0.752394 2.03733,2.546772 1.28493,4.008497 -0.75239,1.461725 -2.5472,2.035981 -4.00893,1.283587 -1.46083,-0.751936 -2.03643,-2.546315 -1.28404,-4.00804 z" /></g><g
             transform="translate(426.3173,128.108)"
             id="g5237"><path
               inkscape:original-d="m 0,0 c 0,-1.644 -1.333,-2.976 -2.976,-2.976 -1.644,0 -2.977,1.332 -2.977,2.976 0,1.644 1.333,2.976 2.977,2.976 C -1.333,2.976 0,1.644 0,0 Z"
               inkscape:connector-curvature="0"
               id="path5239"
               style="fill:none;stroke:#c62027;stroke-width:0.56699997;stroke-linecap:round;stroke-linejoin:round;stroke-miterlimit:4;stroke-dasharray:none;stroke-opacity:1"
               d="" /></g><g
             transform="translate(292.34847,349.59524)"
             id="g5245"><path
               inkscape:original-d="m 0,0 c 0,-1.644 -1.333,-2.976 -2.976,-2.976 -1.644,0 -2.977,1.332 -2.977,2.976 0,1.644 1.333,2.976 2.977,2.976 C -1.333,2.976 0,1.644 0,0 Z"
               inkscape:connector-curvature="0"
               id="path5247"
               style="fill:none;stroke:#c62027;stroke-width:0.56699997;stroke-linecap:round;stroke-linejoin:round;stroke-miterlimit:4;stroke-dasharray:none;stroke-opacity:1"
               d="m 0,0 c 0,-1.644 -1.333,-2.976 -2.976,-2.976 -1.644,0 -2.977,1.332 -2.977,2.976 0,1.644 1.333,2.976 2.977,2.976 C -1.333,2.976 0,1.644 0,0 Z m 118.10197,28.61142 c 0.7524,-1.461724 2.54721,-2.03598 4.00804,-1.284044 1.46173,0.752394 2.03733,2.546772 1.28494,4.008497 -0.7524,1.461725 -2.54721,2.035981 -4.00893,1.283587 -1.46084,-0.751936 -2.03644,-2.546315 -1.28405,-4.00804 z" /></g><g
             transform="translate(151.8589,365.6497)"
             id="g5249"><path
               inkscape:original-d="m 18.906655,-1.5932279 c 0,-1.644 -1.333,-2.976 -2.976,-2.976 -1.644,0 -2.977,1.332 -2.977,2.976 0,1.6439999 1.333,2.9759999 2.977,2.9759999 1.643,0 2.976,-1.332 2.976,-2.9759999 z"
               inkscape:connector-curvature="0"
               id="path5251"
               style="fill:none;stroke:#c62027;stroke-width:0.56699997;stroke-linecap:round;stroke-linejoin:round;stroke-miterlimit:4;stroke-dasharray:none;stroke-opacity:1"
               d="m 18.906655,-1.5932279 c 0,-1.644 -1.333,-2.976 -2.976,-2.976 -1.644,0 -2.977,1.332 -2.977,2.976 0,1.6439999 1.333,2.9759999 2.977,2.9759999 1.643,0 2.976,-1.332 2.976,-2.9759999 z M 360.07587,81.058529 c 0.75239,-1.461725 2.5472,-2.03598 4.00804,-1.284044 1.46172,0.752394 2.03732,2.546772 1.28493,4.008497 -0.75239,1.461725 -2.5472,2.035981 -4.00893,1.283587 -1.46084,-0.751936 -2.03644,-2.546315 -1.28404,-4.00804 z" /></g><g
             transform="translate(13.7756,335.0663)"
             id="g5253"><path
               inkscape:original-d="m 0,0 c 0,-1.644 -1.333,-2.976 -2.976,-2.976 -1.644,0 -2.977,1.332 -2.977,2.976 0,1.644 1.333,2.976 2.977,2.976 C -1.333,2.976 0,1.644 0,0 Z"
               inkscape:connector-curvature="0"
               id="path5255"
               style="fill:none;stroke:#c62027;stroke-width:0.56699997;stroke-linecap:round;stroke-linejoin:round;stroke-miterlimit:4;stroke-dasharray:none;stroke-opacity:1"
               d="m 0,0 c 0,-1.644 -1.333,-2.976 -2.976,-2.976 -1.644,0 -2.977,1.332 -2.977,2.976 0,1.644 1.333,2.976 2.977,2.976 C -1.333,2.976 0,1.644 0,0 Z m 651.01083,157.71408 c 0.7524,-1.46172 2.54721,-2.03598 4.00804,-1.28404 1.46173,0.75239 2.03733,2.54677 1.28494,4.0085 -0.7524,1.46172 -2.54721,2.03598 -4.00893,1.28358 -1.46084,-0.75193 -2.03644,-2.54631 -1.28405,-4.00804 z" /></g><g
             transform="translate(74.2756,275.5463)"
             id="g5257"><path
               inkscape:original-d="m 0,0 c 0,-1.644 -1.333,-2.976 -2.976,-2.976 -1.644,0 -2.977,1.332 -2.977,2.976 0,1.644 1.333,2.976 2.977,2.976 C -1.333,2.976 0,1.644 0,0 Z"
               inkscape:connector-curvature="0"
               id="path5259"
               style="fill:none;stroke:#c62027;stroke-width:0.56699997;stroke-linecap:round;stroke-linejoin:round;stroke-miterlimit:4;stroke-dasharray:none;stroke-opacity:1"
               d="m 0,0 c 0,-1.644 -1.333,-2.976 -2.976,-2.976 -1.644,0 -2.977,1.332 -2.977,2.976 0,1.644 1.333,2.976 2.977,2.976 C -1.333,2.976 0,1.644 0,0 Z m 563.9586,136.62478 c 0.7524,-1.46172 2.54721,-2.03598 4.00804,-1.28404 1.46173,0.75239 2.03733,2.54677 1.28493,4.0085 -0.75239,1.46172 -2.5472,2.03598 -4.00892,1.28358 -1.46084,-0.75193 -2.03644,-2.54631 -1.28405,-4.00804 z" /></g><g
             transform="translate(74.2756,167.5463)"
             id="g5261"><path
               inkscape:original-d="m 0,0 c 0,-1.644 -1.333,-2.976 -2.976,-2.976 -1.644,0 -2.977,1.332 -2.977,2.976 0,1.644 1.333,2.976 2.977,2.976 C -1.333,2.976 0,1.644 0,0 Z"
               inkscape:connector-curvature="0"
               id="path5263"
               style="fill:none;stroke:#c62027;stroke-width:0.56699997;stroke-linecap:round;stroke-linejoin:round;stroke-miterlimit:4;stroke-dasharray:none;stroke-opacity:1"
               d="m 0,0 c 0,-1.644 -1.333,-2.976 -2.976,-2.976 -1.644,0 -2.977,1.332 -2.977,2.976 0,1.644 1.333,2.976 2.977,2.976 C -1.333,2.976 0,1.644 0,0 Z m 613.38593,148.59906 c 0.7524,-1.46172 2.54721,-2.03598 4.00804,-1.28404 1.46173,0.75239 2.03733,2.54677 1.28494,4.0085 -0.7524,1.46172 -2.54721,2.03598 -4.00893,1.28358 -1.46084,-0.75193 -2.03644,-2.54631 -1.28405,-4.00804 z" /></g><g
             transform="translate(290.2756,177.6709)"
             id="g5265"><path
               inkscape:original-d="m 0,0 c 0,-1.644 -1.333,-2.976 -2.976,-2.976 -1.644,0 -2.977,1.332 -2.977,2.976 0,1.644 1.333,2.976 2.977,2.976 C -1.333,2.976 0,1.644 0,0 Z"
               inkscape:connector-curvature="0"
               id="path5267"
               style="fill:none;stroke:#c62027;stroke-width:0.56699997;stroke-linecap:round;stroke-linejoin:round;stroke-miterlimit:4;stroke-dasharray:none;stroke-opacity:1"
               d="m 0,0 c 0,-1.644 -1.333,-2.976 -2.976,-2.976 -1.644,0 -2.977,1.332 -2.977,2.976 0,1.644 1.333,2.976 2.977,2.976 C -1.333,2.976 0,1.644 0,0 Z m 200.70087,48.621853 c 0.75239,-1.461725 2.5472,-2.03598 4.00804,-1.284044 1.46172,0.752394 2.03732,2.546772 1.28493,4.008497 -0.75239,1.461725 -2.5472,2.035981 -4.00893,1.283587 -1.46083,-0.751936 -2.03644,-2.546315 -1.28404,-4.00804 z" /></g><g
             transform="translate(290.2756,285.671)"
             id="g5269"><path
               inkscape:original-d="m 0,0 c 0,-1.644 -1.333,-2.976 -2.976,-2.976 -1.644,0 -2.977,1.332 -2.977,2.976 0,1.644 1.333,2.976 2.977,2.976 C -1.333,2.976 0,1.644 0,0 Z"
               inkscape:connector-curvature="0"
               id="path5271"
               style="fill:none;stroke:#c62027;stroke-width:0.56699997;stroke-linecap:round;stroke-linejoin:round;stroke-miterlimit:4;stroke-dasharray:none;stroke-opacity:1"
               d="m 0,0 c 0,-1.644 -1.333,-2.976 -2.976,-2.976 -1.644,0 -2.977,1.332 -2.977,2.976 0,1.644 1.333,2.976 2.977,2.976 C -1.333,2.976 0,1.644 0,0 Z m 151.27349,36.647561 c 0.75239,-1.461724 2.5472,-2.03598 4.00804,-1.284044 1.46172,0.752394 2.03733,2.546772 1.28493,4.008497 -0.75239,1.461725 -2.5472,2.035981 -4.00893,1.283587 -1.46083,-0.751936 -2.03644,-2.546315 -1.28404,-4.00804 z" /></g><g
             transform="translate(337.4384,101.8022)"
             id="g5281"><path
               inkscape:original-d="m 0,0 c 0,-1.644 -1.333,-2.976 -2.976,-2.976 -1.644,0 -2.977,1.332 -2.977,2.976 0,1.644 1.333,2.976 2.977,2.976 C -1.333,2.976 0,1.644 0,0 Z"
               inkscape:connector-curvature="0"
               id="path5283"
               style="fill:none;stroke:#c62027;stroke-width:0.56699997;stroke-linecap:round;stroke-linejoin:round;stroke-miterlimit:4;stroke-dasharray:none;stroke-opacity:1"
               d="m 0,0 c 0,-1.644 -1.333,-2.976 -2.976,-2.976 -1.644,0 -2.977,1.332 -2.977,2.976 0,1.644 1.333,2.976 2.977,2.976 C -1.333,2.976 0,1.644 0,0 Z m 146.32645,35.449091 c 0.7524,-1.461725 2.54721,-2.03598 4.00804,-1.284044 1.46173,0.752394 2.03733,2.546772 1.28494,4.008497 -0.7524,1.461725 -2.54721,2.035981 -4.00893,1.283587 -1.46084,-0.751936 -2.03644,-2.546315 -1.28405,-4.00804 z" /></g><g
             transform="translate(267.6964,106.1949)"
             id="g5285"><path
               inkscape:original-d="M 0,0 V -1.701 H -2.268 V -37.559 H 0 v -1.701 h 39.26 v 1.701 h 2.268 V -1.701 H 39.26 V 0 Z"
               inkscape:connector-curvature="0"
               id="path5287"
               style="fill:none;stroke:#3a53a4;stroke-width:0.56699997;stroke-linecap:butt;stroke-linejoin:miter;stroke-miterlimit:4;stroke-dasharray:none;stroke-opacity:1"
               d="M 0,0 V -1.701 H -2.268 V -37.559 H 0 v -1.701 h 39.26 v 1.701 h 2.268 V -1.701 H 39.26 V 0 Z m 276.06759,66.880217 0.77848,-1.512405 2.01654,1.037974 16.41079,-31.882317 -2.01654,-1.037974 0.77848,-1.512405 -34.90713,-17.967751 -0.77848,1.512405 -2.01654,-1.037973 -16.41079,31.882317 2.01654,1.037974 -0.77848,1.512405 z" /></g><g
             transform="translate(213.6964,112.9442)"
             id="g5289"><path
               inkscape:original-d="M 0,0 V -1.701 H -2.268 V -37.559 H 0 v -1.701 h 39.26 v 1.701 h 2.268 V -1.701 H 39.26 V 0 Z"
               inkscape:connector-curvature="0"
               id="path5291"
               style="fill:none;stroke:#3a53a4;stroke-width:0.56699997;stroke-linecap:butt;stroke-linejoin:miter;stroke-miterlimit:4;stroke-dasharray:none;stroke-opacity:1"
               d="M 0,0 V -1.701 H -2.268 V -37.559 H 0 v -1.701 h 39.26 v 1.701 h 2.268 V -1.701 H 39.26 V 0 Z m 374.99156,90.845569 0.77848,-1.512405 2.01654,1.037974 16.41079,-31.882317 -2.01654,-1.037974 0.77848,-1.512405 -34.90713,-17.967751 -0.77848,1.512405 -2.01654,-1.037974 -16.41079,31.882317 2.01654,1.037974 -0.77848,1.512405 z" /></g><g
             transform="translate(24.6965,160.1949)"
             id="g5293"><path
               inkscape:original-d="M 0,0 V -1.701 H -2.268 V -37.559 H 0 v -1.701 h 39.26 v 1.701 h 2.268 V -1.701 H 39.26 V 0 Z"
               inkscape:connector-curvature="0"
               id="path5295"
               style="fill:none;stroke:#3a53a4;stroke-width:0.56699997;stroke-linecap:butt;stroke-linejoin:miter;stroke-miterlimit:4;stroke-dasharray:none;stroke-opacity:1"
               d="M 0,0 V -1.701 H -2.268 V -37.559 H 0 v -1.701 h 39.26 v 1.701 h 2.268 V -1.701 H 39.26 V 0 Z m 710.4116,172.10453 0.77848,-1.5124 2.01654,1.03797 16.41079,-31.88232 -2.01654,-1.03797 0.77848,-1.51241 -34.90713,-17.96775 -0.77848,1.51241 -2.01654,-1.03798 -16.41079,31.88232 2.01654,1.03797 -0.77848,1.51241 z" /></g><g
             transform="translate(78.6965,160.1949)"
             id="g5297"><path
               inkscape:original-d="M 0,0 V -1.701 H -2.268 V -37.559 H 0 v -1.701 h 39.26 v 1.701 h 2.268 V -1.701 H 39.26 V 0 Z"
               inkscape:connector-curvature="0"
               id="path5299"
               style="fill:none;stroke:#3a53a4;stroke-width:0.56699997;stroke-linecap:butt;stroke-linejoin:miter;stroke-miterlimit:4;stroke-dasharray:none;stroke-opacity:1"
               d="M 0,0 V -1.701 H -2.268 V -37.559 H 0 v -1.701 h 39.26 v 1.701 h 2.268 V -1.701 H 39.26 V 0 Z m 608.39874,147.39086 0.77848,-1.5124 2.01654,1.03797 16.41079,-31.88231 -2.01654,-1.03798 0.77848,-1.5124 -34.90713,-17.967754 -0.77848,1.512405 -2.01654,-1.037974 -16.41079,31.882313 2.01654,1.03798 -0.77848,1.5124 z" /></g><g
             transform="translate(294.6964,166.9442)"
             id="g5301"><path
               inkscape:original-d="M 0,0 V -1.701 H -2.268 V -37.559 H 0 v -1.701 h 39.26 v 1.701 h 2.268 V -1.701 H 39.26 V 0 Z"
               inkscape:connector-curvature="0"
               id="path5303"
               style="fill:none;stroke:#3a53a4;stroke-width:0.56699997;stroke-linecap:butt;stroke-linejoin:miter;stroke-miterlimit:4;stroke-dasharray:none;stroke-opacity:1"
               d="M 0,0 V -1.701 H -2.268 V -37.559 H 0 v -1.701 h 39.26 v 1.701 h 2.268 V -1.701 H 39.26 V 0 Z m 197.2586,47.787929 0.77848,-1.512405 2.01654,1.037974 16.41079,-31.882317 -2.01654,-1.037974 0.77848,-1.512405 -34.90713,-17.9677512 -0.77848,1.5124051 -2.01654,-1.037974 -16.41079,31.8823171 2.01654,1.037974 -0.77848,1.512405 z" /></g><g
             transform="translate(132.6965,173.6935)"
             id="g5305"><path
               inkscape:original-d="M 0,0 V -1.701 H -2.268 V -37.559 H 0 v -1.701 h 39.26 v 1.701 h 2.268 V -1.701 H 39.26 V 0 Z"
               inkscape:connector-curvature="0"
               id="path5307"
               style="fill:none;stroke:#3a53a4;stroke-width:0.56699997;stroke-linecap:butt;stroke-linejoin:miter;stroke-miterlimit:4;stroke-dasharray:none;stroke-opacity:1"
               d="M 0,0 V -1.701 H -2.268 V -37.559 H 0 v -1.701 h 39.26 v 1.701 h 2.268 V -1.701 H 39.26 V 0 Z m 500.2081,121.18057 0.77848,-1.51241 2.01654,1.03798 16.41079,-31.88232 -2.01654,-1.037974 0.77848,-1.512405 -34.90712,-17.967751 -0.77848,1.512405 -2.01654,-1.037974 -16.41079,31.882319 2.01654,1.03797 -0.77848,1.51241 z" /></g><g
             transform="translate(240.6964,173.6935)"
             id="g5309"><path
               inkscape:original-d="M 0,0 V -1.701 H -2.268 V -37.559 H 0 v -1.701 h 39.26 v 1.701 h 2.268 V -1.701 H 39.26 V 0 Z"
               inkscape:connector-curvature="0"
               id="path5311"
               style="fill:none;stroke:#3a53a4;stroke-width:0.56699997;stroke-linecap:butt;stroke-linejoin:miter;stroke-miterlimit:4;stroke-dasharray:none;stroke-opacity:1"
               d="M 0,0 V -1.701 H -2.268 V -37.559 H 0 v -1.701 h 39.26 v 1.701 h 2.268 V -1.701 H 39.26 V 0 Z m 296.18257,71.75328 0.77848,-1.512405 2.01654,1.037974 16.41079,-31.882317 -2.01654,-1.037974 0.77848,-1.512405 -34.90712,-17.967751 -0.77848,1.512405 -2.01654,-1.037974 -16.41079,31.882318 2.01654,1.037974 -0.77848,1.512405 z" /></g><g
             transform="translate(186.6964,180.4428)"
             id="g5313"><path
               inkscape:original-d="M 0,0 V -1.701 H -2.268 V -37.559 H 0 v -1.701 h 39.26 v 1.701 h 2.268 V -1.701 H 39.26 V 0 Z"
               inkscape:connector-curvature="0"
               id="path5315"
               style="fill:none;stroke:#3a53a4;stroke-width:0.56699997;stroke-linecap:butt;stroke-linejoin:miter;stroke-miterlimit:4;stroke-dasharray:none;stroke-opacity:1"
               d="M 0,0 V -1.701 H -2.268 V -37.559 H 0 v -1.701 h 39.26 v 1.701 h 2.268 V -1.701 H 39.26 V 0 Z m 395.10654,95.718632 0.77848,-1.512405 2.01654,1.037974 16.41079,-31.882317 -2.01654,-1.037974 0.77849,-1.512405 -34.90713,-17.967751 -0.77848,1.512405 -2.01654,-1.037974 -16.41079,31.882317 2.01654,1.037974 -0.77848,1.512405 z" /></g><g
             transform="translate(24.6965,214.1949)"
             id="g5317"><path
               inkscape:original-d="M 0,0 V -1.701 H -2.268 V -37.559 H 0 v -1.701 h 39.26 v 1.701 h 2.268 V -1.701 H 39.26 V 0 Z"
               inkscape:connector-curvature="0"
               id="path5319"
               style="fill:none;stroke:#3a53a4;stroke-width:0.56699997;stroke-linecap:butt;stroke-linejoin:miter;stroke-miterlimit:4;stroke-dasharray:none;stroke-opacity:1"
               d="M 0,0 V -1.701 H -2.268 V -37.559 H 0 v -1.701 h 39.26 v 1.701 h 2.268 V -1.701 H 39.26 V 0 Z m 685.69793,166.11739 0.77848,-1.5124 2.01654,1.03797 16.41079,-31.88232 -2.01654,-1.03797 0.77848,-1.51241 -34.90712,-17.96775 -0.77849,1.51241 -2.01654,-1.03798 -16.41079,31.88232 2.01654,1.03797 -0.77848,1.51241 z" /></g><g
             transform="translate(78.6965,214.1949)"
             id="g5321"><path
               inkscape:original-d="M 0,0 V -1.701 H -2.268 V -37.559 H 0 v -1.701 h 39.26 v 1.701 h 2.268 V -1.701 H 39.26 V 0 Z"
               inkscape:connector-curvature="0"
               id="path5323"
               style="fill:none;stroke:#3a53a4;stroke-width:0.56699997;stroke-linecap:butt;stroke-linejoin:miter;stroke-miterlimit:4;stroke-dasharray:none;stroke-opacity:1"
               d="M 0,0 V -1.701 H -2.268 V -37.559 H 0 v -1.701 h 39.26 v 1.701 h 2.268 V -1.701 H 39.26 V 0 Z m 583.68507,141.40372 0.77848,-1.5124 2.01654,1.03797 16.41079,-31.88231 -2.01654,-1.03798 0.77848,-1.5124 -34.90712,-17.967754 -0.77848,1.512405 -2.01655,-1.037974 -16.41078,31.882313 2.01654,1.03798 -0.77849,1.5124 z" /></g><g
             transform="translate(294.6964,220.9442)"
             id="g5325"><path
               inkscape:original-d="M 0,0 V -1.701 H -2.268 V -37.559 H 0 v -1.701 h 39.26 v 1.701 h 2.268 V -1.701 H 39.26 V 0 Z"
               inkscape:connector-curvature="0"
               id="path5327"
               style="fill:none;stroke:#3a53a4;stroke-width:0.56699997;stroke-linecap:butt;stroke-linejoin:miter;stroke-miterlimit:4;stroke-dasharray:none;stroke-opacity:1"
               d="M 0,0 V -1.701 H -2.268 V -37.559 H 0 v -1.701 h 39.26 v 1.701 h 2.268 V -1.701 H 39.26 V 0 Z m 172.54493,41.800788 0.77848,-1.512405 2.01654,1.037974 16.41079,-31.8823166 -2.01654,-1.037974 0.77849,-1.5124051 -34.90713,-17.9677513 -0.77848,1.5124055 -2.01654,-1.0379735 -16.41079,31.882317 2.01654,1.037974 -0.77848,1.512405 z" /></g><g
             transform="translate(132.6965,227.6935)"
             id="g5329"><path
               inkscape:original-d="M 0,0 V -1.701 H -2.268 V -37.559 H 0 v -1.701 h 39.26 v 1.701 h 2.268 V -1.701 H 39.26 V 0 Z"
               inkscape:connector-curvature="0"
               id="path5331"
               style="fill:none;stroke:#3a53a4;stroke-width:0.56699997;stroke-linecap:butt;stroke-linejoin:miter;stroke-miterlimit:4;stroke-dasharray:none;stroke-opacity:1"
               d="M 0,0 V -1.701 H -2.268 V -37.559 H 0 v -1.701 h 39.26 v 1.701 h 2.268 V -1.701 H 39.26 V 0 Z m 475.49444,115.19343 0.77848,-1.51241 2.01654,1.03798 16.41079,-31.882321 -2.01654,-1.037974 0.77848,-1.512405 -34.90713,-17.967751 -0.77848,1.512405 -2.01654,-1.037974 -16.41079,31.882317 2.01654,1.037974 -0.77848,1.512405 z" /></g><g
             transform="translate(240.6964,227.6935)"
             id="g5333"><path
               inkscape:original-d="M 0,0 V -1.701 H -2.268 V -37.559 H 0 v -1.701 h 39.26 v 1.701 h 2.268 V -1.701 H 39.26 V 0 Z"
               inkscape:connector-curvature="0"
               id="path5335"
               style="fill:none;stroke:#3a53a4;stroke-width:0.56699997;stroke-linecap:butt;stroke-linejoin:miter;stroke-miterlimit:4;stroke-dasharray:none;stroke-opacity:1"
               d="M 0,0 V -1.701 H -2.268 V -37.559 H 0 v -1.701 h 39.26 v 1.701 h 2.268 V -1.701 H 39.26 V 0 Z m 271.46891,65.76614 0.77848,-1.512405 2.01654,1.037974 16.41079,-31.882317 -2.01654,-1.037974 0.77848,-1.512405 -34.90713,-17.967751 -0.77848,1.512405 -2.01654,-1.037974 -16.41079,31.882317 2.01654,1.037974 -0.77848,1.512405 z" /></g><g
             transform="translate(186.6964,234.4428)"
             id="g5337"><path
               inkscape:original-d="M 0,0 V -1.701 H -2.268 V -37.559 H 0 v -1.701 h 39.26 v 1.701 h 2.268 V -1.701 H 39.26 V 0 Z"
               inkscape:connector-curvature="0"
               id="path5339"
               style="fill:none;stroke:#3a53a4;stroke-width:0.56699997;stroke-linecap:butt;stroke-linejoin:miter;stroke-miterlimit:4;stroke-dasharray:none;stroke-opacity:1"
               d="M 0,0 V -1.701 H -2.268 V -37.559 H 0 v -1.701 h 39.26 v 1.701 h 2.268 V -1.701 H 39.26 V 0 Z m 370.39288,89.731492 0.77848,-1.512405 2.01654,1.037974 16.41079,-31.882317 -2.01654,-1.037974 0.77848,-1.512406 -34.90713,-17.96775 -0.77848,1.512405 -2.01654,-1.037974 -16.41079,31.882317 2.01654,1.037974 -0.77848,1.512405 z" /></g><g
             transform="translate(24.6965,268.1949)"
             id="g5341"><path
               inkscape:original-d="M 0,0 V -1.701 H -2.268 V -37.559 H 0 v -1.701 h 39.26 v 1.701 h 2.268 V -1.701 H 39.26 V 0 Z"
               inkscape:connector-curvature="0"
               id="path5343"
               style="fill:none;stroke:#3a53a4;stroke-width:0.56699997;stroke-linecap:butt;stroke-linejoin:miter;stroke-miterlimit:4;stroke-dasharray:none;stroke-opacity:1"
               d="M 0,0 V -1.701 H -2.268 V -37.559 H 0 v -1.701 h 39.26 v 1.701 h 2.268 V -1.701 H 39.26 V 0 Z m 660.98426,160.13025 0.77849,-1.51241 2.01654,1.03798 16.41079,-31.88232 -2.01654,-1.03797 0.77848,-1.51241 -34.90713,-17.96775 -0.77848,1.51241 -2.01654,-1.03798 -16.41079,31.88232 2.01654,1.03797 -0.77848,1.51241 z" /></g><g
             transform="translate(78.6965,268.1949)"
             id="g5345"><path
               inkscape:original-d="M 0,0 V -1.701 H -2.268 V -37.559 H 0 v -1.701 h 39.26 v 1.701 h 2.268 V -1.701 H 39.26 V 0 Z"
               inkscape:connector-curvature="0"
               id="path5347"
               style="fill:none;stroke:#3a53a4;stroke-width:0.56699997;stroke-linecap:butt;stroke-linejoin:miter;stroke-miterlimit:4;stroke-dasharray:none;stroke-opacity:1"
               d="M 0,0 V -1.701 H -2.268 V -37.559 H 0 v -1.701 h 39.26 v 1.701 h 2.268 V -1.701 H 39.26 V 0 Z m 558.97141,135.41658 0.77848,-1.5124 2.01654,1.03797 16.41079,-31.88231 -2.01654,-1.03798 0.77848,-1.5124 -34.90713,-17.967755 -0.77848,1.512405 -2.01654,-1.037974 -16.41079,31.882314 2.01654,1.03798 -0.77848,1.5124 z" /></g><g
             transform="translate(294.6964,274.9442)"
             id="g5349"><path
               inkscape:original-d="M 0,0 V -1.701 H -2.268 V -37.559 H 0 v -1.701 h 39.26 v 1.701 h 2.268 V -1.701 H 39.26 V 0 Z"
               inkscape:connector-curvature="0"
               id="path5351"
               style="fill:none;stroke:#3a53a4;stroke-width:0.56699997;stroke-linecap:butt;stroke-linejoin:miter;stroke-miterlimit:4;stroke-dasharray:none;stroke-opacity:1"
               d="M 0,0 V -1.701 H -2.268 V -37.559 H 0 v -1.701 h 39.26 v 1.701 h 2.268 V -1.701 H 39.26 V 0 Z m 147.83127,35.813648 0.77848,-1.512405 2.01654,1.037974 L 167.03708,3.4569 165.02054,2.418926 165.79902,0.90652091 130.89189,-17.06123 l -0.77848,1.512405 -2.01654,-1.037974 -16.41079,31.882317 2.01654,1.037974 -0.77848,1.512405 z" /></g><g
             transform="translate(132.6965,281.6935)"
             id="g5353"><path
               inkscape:original-d="M 0,0 V -1.701 H -2.268 V -37.559 H 0 v -1.701 h 39.26 v 1.701 h 2.268 V -1.701 H 39.26 V 0 Z"
               inkscape:connector-curvature="0"
               id="path5355"
               style="fill:none;stroke:#3a53a4;stroke-width:0.56699997;stroke-linecap:butt;stroke-linejoin:miter;stroke-miterlimit:4;stroke-dasharray:none;stroke-opacity:1"
               d="M 0,0 V -1.701 H -2.268 V -37.559 H 0 v -1.701 h 39.26 v 1.701 h 2.268 V -1.701 H 39.26 V 0 Z m 450.78077,109.20629 0.77848,-1.51241 2.01654,1.03798 16.41079,-31.882321 -2.01654,-1.037974 0.77848,-1.512405 -34.90713,-17.967751 -0.77848,1.512405 -2.01654,-1.037974 -16.41079,31.882317 2.01654,1.037974 -0.77848,1.512405 z" /></g><g
             transform="translate(240.6964,281.6935)"
             id="g5357"><path
               inkscape:original-d="M 0,0 V -1.701 H -2.268 V -37.559 H 0 v -1.701 h 39.26 v 1.701 h 2.268 V -1.701 H 39.26 V 0 Z"
               inkscape:connector-curvature="0"
               id="path5359"
               style="fill:none;stroke:#3a53a4;stroke-width:0.56699997;stroke-linecap:butt;stroke-linejoin:miter;stroke-miterlimit:4;stroke-dasharray:none;stroke-opacity:1"
               d="M 0,0 V -1.701 H -2.268 V -37.559 H 0 v -1.701 h 39.26 v 1.701 h 2.268 V -1.701 H 39.26 V 0 Z m 246.75524,59.779 0.77848,-1.512405 2.01654,1.037974 16.41079,-31.882317 -2.01654,-1.037974 0.77848,-1.512406 -34.90713,-17.9677504 -0.77848,1.5124051 -2.01654,-1.037974 -16.41079,31.8823173 2.01654,1.037974 -0.77848,1.512405 z" /></g><g
             transform="translate(186.6964,288.4428)"
             id="g5361"><path
               inkscape:original-d="M 0,0 V -1.701 H -2.268 V -37.559 H 0 v -1.701 h 39.26 v 1.701 h 2.268 V -1.701 H 39.26 V 0 Z"
               inkscape:connector-curvature="0"
               id="path5363"
               style="fill:none;stroke:#3a53a4;stroke-width:0.56699997;stroke-linecap:butt;stroke-linejoin:miter;stroke-miterlimit:4;stroke-dasharray:none;stroke-opacity:1"
               d="M 0,0 V -1.701 H -2.268 V -37.559 H 0 v -1.701 h 39.26 v 1.701 h 2.268 V -1.701 H 39.26 V 0 Z m 345.67921,83.744351 0.77848,-1.512405 2.01654,1.037974 16.41079,-31.882317 -2.01654,-1.037974 0.77848,-1.512405 -34.90713,-17.967751 -0.77848,1.512405 -2.01654,-1.037974 -16.41079,31.882317 2.01654,1.037974 -0.77848,1.512405 z" /></g><g
             transform="translate(24.6965,322.1949)"
             id="g5365"><path
               inkscape:original-d="M 0,0 V -1.701 H -2.268 V -37.559 H 0 v -1.701 h 39.26 v 1.701 h 2.268 V -1.701 H 39.26 V 0 Z"
               inkscape:connector-curvature="0"
               id="path5367"
               style="fill:none;stroke:#3a53a4;stroke-width:0.56699997;stroke-linecap:butt;stroke-linejoin:miter;stroke-miterlimit:4;stroke-dasharray:none;stroke-opacity:1"
               d="M 0,0 V -1.701 H -2.268 V -37.559 H 0 v -1.701 h 39.26 v 1.701 h 2.268 V -1.701 H 39.26 V 0 Z m 636.2706,154.14311 0.77848,-1.51241 2.01654,1.03798 16.41079,-31.88232 -2.01654,-1.03797 0.77848,-1.51241 -34.90713,-17.96775 -0.77848,1.51241 -2.01654,-1.03798 -16.41079,31.88232 2.01654,1.03797 -0.77848,1.51241 z" /></g><g
             transform="translate(78.6965,322.1949)"
             id="g5369"><path
               inkscape:original-d="M 0,0 V -1.701 H -2.268 V -37.559 H 0 v -1.701 h 39.26 v 1.701 h 2.268 V -1.701 H 39.26 V 0 Z"
               inkscape:connector-curvature="0"
               id="path5371"
               style="fill:none;stroke:#3a53a4;stroke-width:0.56699997;stroke-linecap:butt;stroke-linejoin:miter;stroke-miterlimit:4;stroke-dasharray:none;stroke-opacity:1"
               d="M 0,0 V -1.701 H -2.268 V -37.559 H 0 v -1.701 h 39.26 v 1.701 h 2.268 V -1.701 H 39.26 V 0 Z m 534.25774,129.42944 0.77848,-1.5124 2.01654,1.03797 16.41079,-31.882315 -2.01654,-1.037974 0.77848,-1.512405 -34.90713,-17.967751 -0.77848,1.512405 -2.01654,-1.037974 -16.41079,31.882314 2.01654,1.03798 -0.77848,1.5124 z" /></g><g
             transform="translate(294.6964,328.9442)"
             id="g5373"><path
               inkscape:original-d="M 0,0 V -1.701 H -2.268 V -37.559 H 0 v -1.701 h 39.26 v 1.701 h 2.268 V -1.701 H 39.26 V 0 Z"
               inkscape:connector-curvature="0"
               id="path5375"
               style="fill:none;stroke:#3a53a4;stroke-width:0.56699997;stroke-linecap:butt;stroke-linejoin:miter;stroke-miterlimit:4;stroke-dasharray:none;stroke-opacity:1"
               d="M 0,0 V -1.701 H -2.268 V -37.559 H 0 v -1.701 h 39.26 v 1.701 h 2.268 V -1.701 H 39.26 V 0 Z m 123.1176,29.826508 0.77848,-1.512405 2.01654,1.037974 16.41079,-31.8823174 -2.01654,-1.037974 0.77848,-1.5124051 -34.90712,-17.9677505 -0.77849,1.512405 -2.01654,-1.037974 -16.410785,31.8823167 2.01654,1.0379743 -0.778481,1.512405 z" /></g><g
             transform="translate(132.6965,335.6935)"
             id="g5377"><path
               inkscape:original-d="M 0,0 V -1.701 H -2.268 V -37.559 H 0 v -1.701 h 39.26 v 1.701 h 2.268 V -1.701 H 39.26 V 0 Z"
               inkscape:connector-curvature="0"
               id="path5379"
               style="fill:none;stroke:#3a53a4;stroke-width:0.56699997;stroke-linecap:butt;stroke-linejoin:miter;stroke-miterlimit:4;stroke-dasharray:none;stroke-opacity:1"
               d="M 0,0 V -1.701 H -2.268 V -37.559 H 0 v -1.701 h 39.26 v 1.701 h 2.268 V -1.701 H 39.26 V 0 Z m 426.0671,103.21915 0.77848,-1.51241 2.01654,1.03798 16.41079,-31.882322 -2.01654,-1.037974 0.77848,-1.512405 -34.90712,-17.967751 -0.77848,1.512406 -2.01654,-1.037974 -16.41079,31.882317 2.01654,1.037974 -0.77848,1.512405 z" /></g><g
             transform="translate(240.6964,335.6935)"
             id="g5381"><path
               inkscape:original-d="M 0,0 V -1.701 H -2.268 V -37.559 H 0 v -1.701 h 39.26 v 1.701 h 2.268 V -1.701 H 39.26 V 0 Z"
               inkscape:connector-curvature="0"
               id="path5383"
               style="fill:none;stroke:#3a53a4;stroke-width:0.56699997;stroke-linecap:butt;stroke-linejoin:miter;stroke-miterlimit:4;stroke-dasharray:none;stroke-opacity:1"
               d="M 0,0 V -1.701 H -2.268 V -37.559 H 0 v -1.701 h 39.26 v 1.701 h 2.268 V -1.701 H 39.26 V 0 Z m 222.04157,53.791859 0.77848,-1.512405 2.01654,1.037974 16.41079,-31.882317 -2.01654,-1.037974 0.77848,-1.512405 -34.90712,-17.96775079 -0.77848,1.51240509 -2.01654,-1.037974 -16.41079,31.8823167 2.01654,1.037974 -0.77848,1.512405 z" /></g><g
             transform="translate(186.6964,342.4428)"
             id="g5385"><path
               inkscape:original-d="M 0,0 V -1.701 H -2.268 V -37.559 H 0 v -1.701 h 39.26 v 1.701 h 2.268 V -1.701 H 39.26 V 0 Z"
               inkscape:connector-curvature="0"
               id="path5387"
               style="fill:none;stroke:#3a53a4;stroke-width:0.56699997;stroke-linecap:butt;stroke-linejoin:miter;stroke-miterlimit:4;stroke-dasharray:none;stroke-opacity:1"
               d="M 0,0 V -1.701 H -2.268 V -37.559 H 0 v -1.701 h 39.26 v 1.701 h 2.268 V -1.701 H 39.26 V 0 Z m 320.96554,77.757211 0.77849,-1.512405 2.01654,1.037974 16.41079,-31.882317 -2.01654,-1.037974 0.77848,-1.512405 -34.90713,-17.967751 -0.77848,1.512405 -2.01654,-1.037974 -16.41079,31.882317 2.01654,1.037974 -0.77848,1.512405 z" /></g><g
             transform="translate(401.847,117.0818)"
             id="g5389"><path
               inkscape:original-d="m 0,0 -1.472,0.85 1.15,1.992 -31.091,17.95 -1.15,-1.992 -1.472,0.85 -4.2,-7.275 -1.818,1.05 -4.45,-7.707 1.818,-1.05 -29.3,-50.749 -1.818,1.05 -4.45,-7.708 1.818,-1.05 -4.2,-7.275 1.472,-0.85 -1.15,-1.991 31.091,-17.95 1.15,1.991 1.472,-0.85 z"
               inkscape:connector-curvature="0"
               id="path5391"
               style="fill:none;stroke:#3a53a4;stroke-width:0.56699997;stroke-linecap:butt;stroke-linejoin:miter;stroke-miterlimit:4;stroke-dasharray:none;stroke-opacity:1"
               d="m 0,0 -1.472,0.85 1.15,1.992 -31.091,17.95 -1.15,-1.992 -1.472,0.85 -4.2,-7.275 -1.818,1.05 -4.45,-7.707 1.818,-1.05 -29.3,-50.749 -1.818,1.05 -4.45,-7.708 1.818,-1.05 -4.2,-7.275 1.472,-0.85 -1.15,-1.991 31.091,-17.95 1.15,1.991 1.472,-0.85 z m 17.657557,4.2777251 0.919783,1.4294342 -1.934156,1.2448315 19.428843,30.1889522 1.934156,-1.244831 0.919783,1.429434 7.063814,-4.546225 1.13589,1.76561 7.483804,-4.815913 -1.135889,-1.76561 49.277235,-31.7128551 1.13589,1.7656101 7.48426,-4.8168019 -1.13589,-1.7656102 7.06381,-4.5462249 -0.91978,-1.429434 1.9337,-1.243943 -19.428843,-30.188952 -1.933698,1.243942 -0.919784,-1.429434 z" /></g><g
             transform="translate(357.4027,0.288)"
             id="g5393"><path
               sodipodi:nodetypes="csssssscccc"
               inkscape:original-d="m -162.888,43.543 c -4.156,0.631 -7.227,4.204 -7.227,8.407 v 35.804 c 0,4.694 -3.805,8.5 -8.5,8.5 h -169.996 c -4.696,0 -8.504,3.807 -8.504,8.504 V 335.78 c 0,3.845 2.581,7.212 6.294,8.212 l 6.294,1.694 c 277.414724,77.05771 162.00303,-36.51909 457.79081,62.21196 C 294.7751,453.71308 361.40811,-76.091082 -162.888,43.543 Z"
               inkscape:connector-curvature="0"
               id="path5395"
               style="fill:none;stroke:#d72227;stroke-width:0.56699997;stroke-linecap:round;stroke-linejoin:round;stroke-miterlimit:4;stroke-dasharray:none;stroke-opacity:1"
               d="m -162.888,43.543 c -4.156,0.631 -7.227,4.204 -7.227,8.407 v 35.804 c 0,4.694 -3.805,8.5 -8.5,8.5 h -169.996 c -4.696,0 -8.504,3.807 -8.504,8.504 V 335.78 c 0,3.845 2.581,7.212 6.294,8.212 l 6.294,1.694 c 228.95594,63.59728 190.3369,-2.65676 336.1416557,27.75977 C 135.17405,413.13069 70.514961,454.36453 303.19184,502.60256 l 6.37144,1.37434 c 3.75899,0.81016 7.59477,-1.00231 9.35447,-4.421 L 424.64739,294.148 c 2.14964,-4.17623 0.50615,-9.30391 -3.66919,-11.45308 L 269.83016,204.89446 c -4.17445,-2.14871 -5.81572,-7.27413 -3.66746,-11.44769 l 16.38608,-31.83431 c 1.92354,-3.737 0.82825,-8.31932 -2.57817,-10.7824 C 202.68467,85.772423 133.45136,50.63578 73.181455,36.755038 13.241189,21.513628 -64.396677,21.069213 -162.888,43.543 Z" /></g></g></g></g></g></svg>