M48
; DRILL file {KiCad (6.0.0-0)} date Thursday, January 06, 2022 at 07:14:09 PM
; FORMAT={-:-/ absolute / metric / decimal}
; #@! TF.CreationDate,2022-01-06T19:14:09+00:00
; #@! TF.GenerationSoftware,Kicad,Pcbnew,(6.0.0-0)
; #@! TF.FileFunction,Plated,1,2,PTH
FMAT,2
METRIC
; #@! TA.AperFunction,Plated,PTH,ViaDrill
T1C0.400
; #@! TA.AperFunction,Plated,PTH,ComponentDrill
T2C0.800
; #@! TA.AperFunction,Plated,PTH,ComponentDrill
T3C1.092
; #@! TA.AperFunction,Plated,PTH,ComponentDrill
T4C1.300
%
G90
G05
T1
X183.388Y-61.779
X183.388Y-65.589
X183.388Y-64.319
X183.388Y-68.129
X183.388Y-63.049
X183.388Y-66.859
T2
X60.932Y-99.233
X61.533Y-96.765
X67.102Y-100.734
X67.703Y-98.266
X70.183Y-62.272
X70.784Y-59.804
X76.353Y-63.773
X76.954Y-61.305
X79.443Y-103.735
X80.043Y-101.267
X85.613Y-105.236
X86.213Y-102.768
X88.694Y-66.774
X89.294Y-64.306
X94.864Y-68.275
X95.464Y-65.807
X99.094Y-103.548
X99.694Y-101.08
X105.264Y-105.049
X105.864Y-102.58
X108.345Y-66.587
X108.945Y-64.119
X114.515Y-68.088
X115.115Y-65.62
X118.144Y-105.829
X118.744Y-103.361
X121.94Y-131.063
X124.314Y-107.329
X124.915Y-104.861
X127.272Y-68.838
X127.872Y-66.37
X128.11Y-132.563
X133.442Y-70.339
X134.042Y-67.871
X136.114Y-112.552
X136.715Y-110.084
X139.91Y-137.786
X142.284Y-114.053
X142.885Y-111.585
X145.365Y-75.591
X145.966Y-73.123
X146.08Y-139.287
X149.823Y-146.47
X151.535Y-77.092
X152.136Y-74.624
X154.208Y-119.305
X154.659Y-141.634
X154.808Y-116.837
X155.993Y-147.971
X160.378Y-120.806
X160.829Y-143.135
X160.978Y-118.338
X163.335Y-82.315
X163.936Y-79.847
X169.506Y-83.815
X170.106Y-81.347
X202.1Y-80.027
X202.7Y-82.495
X206.134Y-142.828
X208.27Y-78.526
X208.87Y-80.994
X210.596Y-148.278
X211.104Y-117.047
X211.704Y-119.515
X212.304Y-141.328
X216.767Y-146.777
X217.274Y-115.547
X217.874Y-118.015
X220.07Y-73.303
X220.67Y-75.771
X225.878Y-138.026
X226.24Y-71.803
X226.84Y-74.271
X229.074Y-110.324
X229.674Y-112.792
X232.049Y-136.525
X235.244Y-108.823
X235.845Y-111.291
X238.04Y-66.58
X238.64Y-69.048
X243.849Y-131.303
X244.21Y-65.079
X244.811Y-67.547
X246.798Y-103.661
X247.398Y-106.129
X250.019Y-129.802
X252.968Y-102.16
X253.568Y-104.628
X257.091Y-64.299
X257.691Y-66.767
X263.261Y-62.798
X263.861Y-65.266
X266.095Y-101.32
X266.635Y-103.541
X272.265Y-99.819
X272.805Y-102.04
X276.742Y-64.486
X277.342Y-66.954
X282.912Y-62.986
X283.512Y-65.454
X285.746Y-101.507
X286.346Y-103.975
X291.916Y-100.006
X292.516Y-102.474
X295.252Y-59.984
X295.852Y-62.452
X301.422Y-58.484
X302.022Y-60.952
X304.256Y-97.005
X304.856Y-99.473
X310.426Y-95.504
X311.027Y-97.972
T3
X175.768Y-91.959
X175.768Y-94.499
X175.768Y-97.039
X175.768Y-99.579
X175.768Y-102.119
X175.768Y-104.659
X175.768Y-107.199
X175.768Y-109.739
X175.768Y-112.279
X175.768Y-114.819
X175.768Y-117.359
X175.997Y-119.899
X178.308Y-119.899
X180.848Y-119.899
X183.388Y-119.899
X185.928Y-119.899
X188.468Y-119.899
X191.008Y-91.959
X191.008Y-94.499
X191.008Y-97.039
X191.008Y-99.579
X191.008Y-102.119
X191.008Y-104.659
X191.008Y-107.199
X191.008Y-109.739
X191.008Y-112.279
X191.008Y-114.819
X191.008Y-117.359
X191.008Y-119.899
T4
X195.148Y-53.793
X201.6Y-53.0
T0
M30
