M48
; DRILL file {KiCad (6.0.0-0)} date Thursday, January 06, 2022 at 07:14:09 PM
; FORMAT={-:-/ absolute / metric / decimal}
; #@! TF.CreationDate,2022-01-06T19:14:09+00:00
; #@! TF.GenerationSoftware,Kicad,Pcbnew,(6.0.0-0)
; #@! TF.FileFunction,NonPlated,1,2,NPTH
FMAT,2
METRIC
; #@! TA.AperFunction,NonPlated,NPTH,ComponentDrill
T1C1.900
; #@! TA.AperFunction,NonPlated,NPTH,ComponentDrill
T2C3.000
; #@! TA.AperFunction,NonPlated,NPTH,ComponentDrill
T3C4.100
%
G90
G05
T1
X54.557Y-106.227
X59.059Y-87.716
X63.561Y-69.206
X64.429Y-108.628
X68.064Y-50.696
X68.932Y-90.117
X73.068Y-110.729
X73.434Y-71.607
X77.57Y-92.218
X77.936Y-53.097
X82.072Y-73.708
X82.94Y-113.13
X86.574Y-55.198
X87.442Y-94.62
X91.944Y-76.109
X92.719Y-110.542
X96.446Y-57.599
X97.221Y-92.031
X101.723Y-73.521
X102.591Y-112.943
X106.225Y-55.01
X107.093Y-94.432
X111.595Y-75.922
X111.769Y-112.822
X115.514Y-138.087
X116.097Y-57.412
X116.271Y-94.312
X120.773Y-75.802
X121.641Y-115.224
X125.275Y-57.291
X125.386Y-140.488
X126.143Y-96.713
X129.739Y-119.546
X130.646Y-78.203
X133.484Y-144.811
X134.241Y-101.035
X135.148Y-59.692
X138.743Y-82.525
X139.611Y-121.947
X143.246Y-64.015
X143.356Y-147.212
X144.114Y-103.436
X147.709Y-126.269
X148.616Y-84.926
X152.211Y-107.759
X153.118Y-66.416
X153.793Y-162.893
X156.714Y-89.248
X157.582Y-128.67
X160.8Y-155.536
X161.216Y-70.738
X162.084Y-110.16
X166.586Y-91.649
X166.931Y-149.098
X171.088Y-73.139
X173.937Y-141.74
X192.747Y-141.74
X195.597Y-73.139
X199.754Y-149.098
X200.099Y-91.649
X204.601Y-110.16
X205.469Y-70.738
X205.885Y-155.536
X209.103Y-128.67
X209.971Y-89.248
X212.891Y-162.893
X213.567Y-66.416
X214.473Y-107.759
X218.069Y-84.926
X218.975Y-126.269
X222.571Y-103.436
X223.329Y-147.212
X223.439Y-64.015
X227.073Y-121.947
X227.941Y-82.525
X231.511Y-59.699
X232.443Y-101.035
X233.201Y-144.811
X236.013Y-78.209
X236.945Y-119.546
X240.515Y-96.72
X241.299Y-140.488
X241.383Y-57.298
X245.017Y-115.23
X245.885Y-75.808
X250.387Y-94.318
X250.588Y-57.412
X251.171Y-138.087
X254.889Y-112.829
X255.09Y-75.922
X259.592Y-94.432
X260.46Y-55.01
X264.094Y-112.943
X264.962Y-73.521
X269.464Y-92.031
X270.239Y-57.599
X273.966Y-110.542
X274.741Y-76.109
X279.243Y-94.62
X280.111Y-55.198
X283.745Y-113.13
X284.613Y-73.708
X288.749Y-53.097
X289.115Y-92.218
X293.251Y-71.607
X293.617Y-110.729
X297.753Y-90.117
X298.621Y-50.696
X302.255Y-108.628
X303.123Y-69.206
X307.625Y-87.716
X312.127Y-106.227
T2
X56.392Y-104.059
X60.894Y-85.548
X63.162Y-103.091
X65.396Y-67.038
X67.664Y-84.581
X69.898Y-48.528
X72.166Y-66.071
X74.902Y-108.561
X76.668Y-47.56
X79.404Y-90.051
X81.672Y-107.594
X83.906Y-71.54
X86.174Y-89.083
X88.408Y-53.03
X90.677Y-70.573
X94.553Y-108.374
X95.179Y-52.062
X99.055Y-89.863
X101.323Y-107.406
X103.557Y-71.353
X105.825Y-88.896
X108.059Y-52.843
X110.327Y-70.386
X113.603Y-110.655
X114.829Y-51.875
X117.348Y-135.919
X118.106Y-92.144
X120.374Y-109.687
X122.608Y-73.634
X124.118Y-134.952
X124.876Y-91.177
X127.11Y-55.123
X129.378Y-72.666
X131.574Y-117.378
X133.88Y-54.156
X135.318Y-142.643
X136.076Y-98.867
X138.344Y-116.41
X140.578Y-80.357
X142.089Y-141.675
X142.846Y-97.9
X145.08Y-61.847
X147.348Y-79.39
X149.544Y-124.101
X151.85Y-60.879
X152.83Y-160.222
X154.046Y-105.591
X155.37Y-153.872
X156.314Y-123.134
X158.548Y-87.08
X160.816Y-104.623
X163.05Y-68.57
X165.318Y-86.113
X165.967Y-146.426
X168.507Y-140.076
X169.82Y-67.603
X195.463Y-140.908
X196.231Y-70.371
X200.733Y-88.881
X201.681Y-143.755
X201.801Y-66.402
X205.235Y-107.392
X206.303Y-84.913
X208.6Y-154.704
X209.737Y-125.902
X210.805Y-103.423
X214.201Y-63.648
X214.818Y-157.551
X215.307Y-121.933
X218.703Y-82.158
X219.771Y-59.679
X223.205Y-100.668
X223.962Y-144.444
X224.273Y-78.189
X227.707Y-119.179
X228.775Y-96.7
X229.532Y-140.475
X232.145Y-56.931
X233.277Y-115.21
X236.647Y-75.441
X237.715Y-52.962
X241.149Y-93.951
X241.933Y-137.72
X242.217Y-71.472
X245.651Y-112.462
X246.719Y-89.983
X247.502Y-133.751
X251.221Y-108.493
X251.222Y-54.643
X255.724Y-73.154
X256.791Y-50.675
X260.226Y-91.664
X261.293Y-69.185
X264.728Y-110.175
X265.796Y-87.695
X270.298Y-106.206
X270.872Y-54.831
X275.375Y-73.341
X276.442Y-50.862
X279.877Y-91.851
X280.944Y-69.372
X284.379Y-110.362
X285.446Y-87.883
X289.383Y-50.329
X289.948Y-106.393
X293.885Y-68.839
X294.953Y-46.36
X298.387Y-87.349
X299.455Y-64.87
X302.889Y-105.86
X303.957Y-83.381
X308.459Y-101.891
T3
X59.493Y-107.427
X63.995Y-88.917
X68.498Y-70.407
X73.0Y-51.896
X78.004Y-111.929
X82.506Y-93.419
X87.008Y-74.909
X91.51Y-56.398
X97.655Y-111.742
X102.157Y-93.232
X106.659Y-74.721
X111.161Y-56.211
X116.705Y-114.023
X120.45Y-139.288
X121.207Y-95.513
X125.709Y-77.002
X130.212Y-58.492
X134.675Y-120.746
X138.42Y-146.011
X139.177Y-102.236
X143.68Y-83.726
X148.182Y-65.215
X152.646Y-127.47
X157.148Y-108.959
X157.297Y-159.214
X161.65Y-90.449
X166.152Y-71.939
X170.434Y-145.419
X196.251Y-145.419
X200.533Y-71.939
X205.035Y-90.449
X209.388Y-159.214
X209.537Y-108.959
X214.039Y-127.47
X218.503Y-65.215
X223.005Y-83.726
X227.507Y-102.236
X228.265Y-146.011
X232.009Y-120.746
X236.447Y-58.498
X240.949Y-77.009
X245.451Y-95.519
X246.235Y-139.288
X249.953Y-114.029
X255.524Y-56.211
X260.026Y-74.721
X264.528Y-93.232
X269.03Y-111.742
X275.175Y-56.398
X279.677Y-74.909
X284.179Y-93.419
X288.681Y-111.929
X293.685Y-51.896
X298.187Y-70.407
X302.689Y-88.917
X307.191Y-107.427
T0
M30
