%FSLAX45Y45*%
G04 Gerber Fmt 4.5, Leading zero omitted, Abs format (unit mm)*
G04 Created by KiCad (PCBNEW (6.0.0-0)) date 2022-01-08 14:54:39*
%MOMM*%
%LPD*%
G01*
G04 APERTURE LIST*
%TA.AperFunction,Profile*%
%ADD10C,0.100000*%
%TD*%
%ADD11C,0.200000*%
%ADD12C,0.190000*%
%ADD13C,0.300000*%
%ADD14C,0.400000*%
%ADD15C,0.410000*%
G04 APERTURE END LIST*
D10*
X26303801Y-13496852D02*
X26288801Y-13522852D01*
X17011802Y-5194852D02*
X17436801Y-5235852D01*
X17436801Y-5235852D02*
X17873802Y-5266852D01*
X14497802Y-4549852D02*
X14971802Y-4729852D01*
X13252802Y-16569852D02*
X13048802Y-16498852D01*
X11212801Y-15749852D02*
X11029802Y-15664852D01*
X26562802Y-15031852D02*
X26561801Y-15071852D01*
X10126802Y-15123852D02*
X10120802Y-15097852D01*
X11835801Y-16023852D02*
X11614801Y-15927852D01*
X11592802Y-3650852D02*
X11956802Y-3714852D01*
X25236801Y-15852852D02*
X25062802Y-15927852D01*
X22179802Y-4549852D02*
X22677802Y-4347852D01*
X10249802Y-13394852D02*
X10209802Y-13379852D01*
X18338802Y-17505252D02*
X18220802Y-17505852D01*
X4408802Y-11974851D02*
X4371802Y-11964852D01*
X6339802Y-3453851D02*
X7021802Y-3434852D01*
X7518802Y-3423852D02*
X7964802Y-3421851D01*
X23532801Y-4023852D02*
X24078802Y-3861852D01*
X12540801Y-16310852D02*
X12312802Y-16219852D01*
X4334802Y-11953852D02*
X4295802Y-11934852D01*
X22141802Y-16971852D02*
X21892802Y-17040852D01*
X6156802Y-3533852D02*
X6180802Y-3512852D01*
X26446801Y-15273851D02*
X26421802Y-15291852D01*
X32381801Y-11934852D02*
X32342802Y-11953852D01*
X16600802Y-17396852D02*
X16371802Y-17365852D01*
X17762802Y-17501852D02*
X17296802Y-17470852D01*
X21196802Y-14489851D02*
G75*
G03*
X21196802Y-14489851I-100001J0D01*
G01*
X10168802Y-15208852D02*
X10153802Y-15185852D01*
X10388802Y-13522852D02*
X10373802Y-13496852D01*
X11213802Y-3593851D02*
X11592802Y-3650852D01*
X12068802Y-16122852D02*
X11835801Y-16023852D01*
X10114802Y-15031852D02*
X10116802Y-15002852D01*
X32226801Y-11610852D02*
G75*
G03*
X32226801Y-11610852I-100000J0D01*
G01*
X6072802Y-3667852D02*
X6080802Y-3647852D01*
X6521801Y-3803852D02*
G75*
G03*
X6521801Y-3803852I-100000J0D01*
G01*
X12312802Y-16219852D02*
X12068802Y-16122852D01*
X26265802Y-13570852D02*
X26256802Y-13603852D01*
X26508802Y-15208852D02*
X26489802Y-15232852D01*
X15274802Y-17158852D02*
X15045801Y-17104852D01*
X13999801Y-4347852D02*
X14497802Y-4549852D01*
X10209802Y-13379852D02*
X4408802Y-11974851D01*
X10732802Y-15524852D02*
X10313801Y-15322852D01*
X20076802Y-17396852D02*
X19678802Y-17446852D01*
X10286802Y-15308852D02*
X10255802Y-15291852D01*
X21211802Y-4890852D02*
X21705801Y-4729852D01*
X6205801Y-3495852D02*
X6237802Y-3478852D01*
X10354802Y-13473851D02*
X10331802Y-13448851D01*
X28712801Y-3421851D02*
X29158802Y-3423852D01*
X26489802Y-15232852D02*
X26471802Y-15253852D01*
X10331802Y-13448851D02*
X10308801Y-13430851D01*
X30471801Y-3495852D02*
X30496802Y-3512852D01*
X16121802Y-17326852D02*
X15726802Y-17252852D01*
X10230802Y-15273852D02*
X10205802Y-15253852D01*
X13144802Y-4023851D02*
X13661801Y-4211852D01*
X14095802Y-16845852D02*
X13825801Y-16762852D01*
X4227802Y-11882852D02*
X4203801Y-11857852D01*
X30496802Y-3512852D02*
X30520801Y-3533852D01*
X18803802Y-5266852D02*
X19240802Y-5235852D01*
X10421802Y-13731852D02*
X10426802Y-13699852D01*
X24732802Y-4114852D02*
G75*
G03*
X24732802Y-4114852I-100000J0D01*
G01*
X32530801Y-11617852D02*
X32536802Y-11656852D01*
X26390802Y-15308852D02*
X26363802Y-15322852D01*
X10116802Y-15002852D02*
X10121802Y-14973852D01*
X16371802Y-17365852D02*
X16121802Y-17326852D01*
X19240802Y-5235852D02*
X19665802Y-5194852D01*
X26276802Y-13542852D02*
X26265802Y-13570852D01*
X13825801Y-16762852D02*
X13630802Y-16700852D01*
X20354802Y-5091852D02*
X20653802Y-5031852D01*
X26368801Y-13430852D02*
X26345802Y-13448852D01*
X15045801Y-17104852D02*
X14784801Y-17040852D01*
X6094801Y-3613852D02*
X6111802Y-3585852D01*
X32536802Y-11656852D02*
X32535801Y-11689852D01*
X16322802Y-5091852D02*
X16733801Y-5157852D01*
X20950802Y-17252852D02*
X20555802Y-17326852D01*
X24608801Y-16122851D02*
X24364802Y-16219852D01*
X19380802Y-17470852D02*
X18914802Y-17501852D01*
X30565801Y-3585852D02*
X30582802Y-3613852D01*
X25062802Y-15927852D02*
X24841802Y-16023852D01*
X6133801Y-3556852D02*
X6156802Y-3533852D01*
X30543802Y-3556852D02*
X30565801Y-3585852D01*
X10337802Y-3499852D02*
X10784802Y-3540851D01*
X4146801Y-11617852D02*
X4156801Y-11577852D01*
X14311802Y-16909852D02*
X14095802Y-16845852D01*
X30406801Y-3466852D02*
X30439802Y-3478852D01*
X17873802Y-5266852D02*
X18338802Y-5286852D01*
X4153802Y-11759852D02*
X4146802Y-11727852D01*
X26261801Y-13760852D02*
X26555802Y-14973852D01*
X30355801Y-3803852D02*
G75*
G03*
X30355801Y-3803852I-100000J0D01*
G01*
X7964802Y-3421851D02*
X8601802Y-3422851D01*
X22677802Y-4347852D02*
X23015801Y-4211852D01*
X7021802Y-3434852D02*
X7518802Y-3423852D01*
X32510802Y-11794852D02*
X32494801Y-11826852D01*
X23628802Y-16498852D02*
X23424801Y-16569852D01*
X26555802Y-14973852D02*
X26560802Y-15002852D01*
X30337801Y-3453852D02*
X30375801Y-3458851D01*
X23015801Y-4211852D02*
X23532801Y-4023852D01*
X22851802Y-16762852D02*
X22581801Y-16845852D01*
X6237802Y-3478852D02*
X6270801Y-3466852D01*
X26840801Y-3465852D02*
X27430801Y-3436852D01*
X26278802Y-14993852D02*
G75*
G03*
X26278802Y-14993852I-100000J0D01*
G01*
X4140801Y-11656851D02*
X4146801Y-11617852D01*
X20222802Y-16750852D02*
G75*
G03*
X20222802Y-16750852I-100000J0D01*
G01*
X10308801Y-13430851D02*
X10280802Y-13411852D01*
X32268802Y-11974852D02*
X26467802Y-13379852D01*
X22581801Y-16845852D02*
X22365802Y-16909852D01*
X6180802Y-3512852D02*
X6205801Y-3495852D01*
X24364802Y-16219852D02*
X24136801Y-16310852D01*
X16654802Y-16750852D02*
G75*
G03*
X16654802Y-16750852I-100000J0D01*
G01*
X15465802Y-4890852D02*
X16023801Y-5031852D01*
X10138802Y-15154852D02*
X10126802Y-15123852D01*
X20683801Y-5619852D02*
G75*
G03*
X20683801Y-5619852I-100000J0D01*
G01*
X30582802Y-3613852D02*
X30596802Y-3647851D01*
X13661801Y-4211852D02*
X13999801Y-4347852D01*
X4156801Y-11577852D02*
X6062802Y-3705852D01*
X32449802Y-11882852D02*
X32416802Y-11912852D01*
X10373802Y-13496852D02*
X10354802Y-13473851D01*
X10313801Y-15322852D02*
X10286802Y-15308852D01*
X21705801Y-4729852D02*
X22179802Y-4549852D01*
X10280802Y-13411852D02*
X10249802Y-13394852D01*
X15726802Y-17252852D02*
X15540802Y-17215852D01*
X10426802Y-13699852D02*
X10427802Y-13670852D01*
X25464802Y-15749852D02*
X25236801Y-15852852D01*
X25892801Y-3540852D02*
X26339801Y-3499852D01*
X10115802Y-15071852D02*
X10114802Y-15031852D01*
X12144801Y-4114852D02*
G75*
G03*
X12144801Y-4114852I-100000J0D01*
G01*
X10205802Y-15253852D02*
X10187802Y-15232851D01*
X32416802Y-11912852D02*
X32381801Y-11934852D01*
X26396801Y-13411852D02*
X26368801Y-13430852D01*
X26550801Y-15123852D02*
X26538801Y-15154851D01*
X6062802Y-3705852D02*
X6072802Y-3667852D01*
X19678802Y-17446852D02*
X19380802Y-17470852D01*
X11614801Y-15927852D02*
X11440802Y-15852852D01*
X26251802Y-13634852D02*
X26249801Y-13670852D01*
X12598802Y-3861852D02*
X13144802Y-4023851D01*
X26560802Y-15002852D02*
X26562802Y-15031852D01*
X26363802Y-15322852D02*
X25944801Y-15524852D01*
X11029802Y-15664852D02*
X10732802Y-15524852D01*
X32530801Y-11727851D02*
X32523801Y-11759852D01*
X30520801Y-3533852D02*
X30543802Y-3556852D01*
X10411802Y-13570852D02*
X10400802Y-13542852D01*
X13630802Y-16700852D02*
X13480802Y-16648852D01*
X26250802Y-13699852D02*
X26255801Y-13731852D01*
X10255802Y-15291852D02*
X10230802Y-15273852D01*
X14784801Y-17040852D02*
X14535801Y-16971852D01*
X32520801Y-11577852D02*
X32530801Y-11617852D01*
X18456802Y-17505852D02*
X18338802Y-17505252D01*
X10400802Y-13542852D02*
X10388802Y-13522852D01*
X20305802Y-17365852D02*
X20076802Y-17396852D01*
X26256802Y-13603852D02*
X26251802Y-13634852D01*
X24136801Y-16310852D02*
X23889802Y-16403852D01*
X4146802Y-11727852D02*
X4141801Y-11689852D01*
X8601802Y-3422851D02*
X9246802Y-3436852D01*
X26561801Y-15071852D02*
X26556802Y-15097851D01*
X10427802Y-13670852D02*
X10425802Y-13634852D01*
X23889802Y-16403852D02*
X23628802Y-16498852D01*
X9836802Y-3465852D02*
X10337802Y-3499852D01*
X17296802Y-17470852D02*
X16998802Y-17446852D01*
X32494801Y-11826852D02*
X32473802Y-11857852D01*
X23424801Y-16569852D02*
X23196802Y-16648852D01*
X11440802Y-15852852D02*
X11212801Y-15749852D01*
X21892802Y-17040852D02*
X21631802Y-17104852D01*
X26345802Y-13448852D02*
X26322802Y-13473852D01*
X10121802Y-14973852D02*
X10415802Y-13760852D01*
X26471802Y-15253852D02*
X26446801Y-15273851D01*
X4203801Y-11857852D02*
X4182802Y-11826852D01*
X10153802Y-15185852D02*
X10138802Y-15154852D01*
X20653802Y-5031852D02*
X21211802Y-4890852D01*
X6080802Y-3647852D02*
X6094801Y-3613852D01*
X21631802Y-17104852D02*
X21402802Y-17158852D01*
X10784802Y-3540851D02*
X11213802Y-3593851D01*
X16733801Y-5157852D02*
X17011802Y-5194852D01*
X12787801Y-16403852D02*
X12540801Y-16310852D01*
X25084802Y-3650851D02*
X25463802Y-3593852D01*
X6111802Y-3585852D02*
X6133801Y-3556852D01*
X26467802Y-13379852D02*
X26427802Y-13394852D01*
X11956802Y-3714852D02*
X12598802Y-3861852D01*
X20555802Y-17326852D02*
X20305802Y-17365852D01*
X26288801Y-13522852D02*
X26276802Y-13542852D01*
X30604802Y-3667852D02*
X30614802Y-3705852D01*
X29158802Y-3423852D02*
X29655801Y-3434852D01*
X4182802Y-11826852D02*
X4166802Y-11794852D01*
X26322802Y-13473852D02*
X26303801Y-13496852D01*
X4260802Y-11912852D02*
X4227802Y-11882852D01*
X13480802Y-16648852D02*
X13252802Y-16569852D01*
X9246802Y-3436852D02*
X9836802Y-3465852D01*
X25944801Y-15524852D02*
X25647802Y-15664852D01*
X27430801Y-3436852D02*
X28075801Y-3422852D01*
X4295802Y-11934852D02*
X4260802Y-11912852D01*
X28075801Y-3422852D02*
X28712801Y-3421851D01*
X26538801Y-15154851D02*
X26523802Y-15185852D01*
X30596802Y-3647851D02*
X30604802Y-3667852D01*
X26249801Y-13670852D02*
X26250802Y-13699852D01*
X4166802Y-11794852D02*
X4153802Y-11759852D01*
X29655801Y-3434852D02*
X30337801Y-3453852D01*
X24720802Y-3714852D02*
X25084802Y-3650851D01*
X4141801Y-11689852D02*
X4140801Y-11656851D01*
X32473802Y-11857852D02*
X32449802Y-11882852D01*
X14535801Y-16971852D02*
X14311802Y-16909852D01*
X18914802Y-17501852D02*
X18456802Y-17505852D01*
X4371802Y-11964852D02*
X4334802Y-11953852D01*
X24078802Y-3861852D02*
X24720802Y-3714852D01*
X32305801Y-11964852D02*
X32268802Y-11974852D01*
X21402802Y-17158852D02*
X21136802Y-17215852D01*
X32523801Y-11759852D02*
X32510802Y-11794852D01*
X10598802Y-14992852D02*
G75*
G03*
X10598802Y-14992852I-100000J0D01*
G01*
X26556802Y-15097851D02*
X26550801Y-15123852D01*
X16193802Y-5619852D02*
G75*
G03*
X16193802Y-5619852I-100000J0D01*
G01*
X15540802Y-17215852D02*
X15274802Y-17158852D01*
X18338802Y-5286852D02*
X18803802Y-5266852D01*
X10420802Y-13603852D02*
X10411802Y-13570852D01*
X25647802Y-15664852D02*
X25464802Y-15749852D01*
X26339801Y-3499852D02*
X26840801Y-3465852D01*
X10415802Y-13760852D02*
X10421802Y-13731852D01*
X30439802Y-3478852D02*
X30471801Y-3495852D01*
X19665802Y-5194852D02*
X19943802Y-5157852D01*
X4650802Y-11610852D02*
G75*
G03*
X4650802Y-11610852I-100000J0D01*
G01*
X30614802Y-3705852D02*
X32520801Y-11577852D01*
X19943802Y-5157852D02*
X20354802Y-5091852D01*
X24841802Y-16023852D02*
X24608801Y-16122851D01*
X23046801Y-16700852D02*
X22851802Y-16762852D01*
X18220802Y-17505852D02*
X17762802Y-17501852D01*
X25463802Y-3593852D02*
X25892801Y-3540852D01*
X32342802Y-11953852D02*
X32305801Y-11964852D01*
X16998802Y-17446852D02*
X16600802Y-17396852D01*
X10187802Y-15232851D02*
X10168802Y-15208852D01*
X10425802Y-13634852D02*
X10420802Y-13603852D01*
X21136802Y-17215852D02*
X20950802Y-17252852D01*
X16023801Y-5031852D02*
X16322802Y-5091852D01*
X15680802Y-14490852D02*
G75*
G03*
X15680802Y-14490852I-100000J0D01*
G01*
X30375801Y-3458851D02*
X30406801Y-3466852D01*
X10120802Y-15097852D02*
X10115802Y-15071852D01*
X23196802Y-16648852D02*
X23046801Y-16700852D01*
X13048802Y-16498852D02*
X12787801Y-16403852D01*
X26421802Y-15291852D02*
X26390802Y-15308852D01*
X26427802Y-13394852D02*
X26396801Y-13411852D01*
X6301802Y-3458852D02*
X6339802Y-3453851D01*
X26523802Y-15185852D02*
X26508802Y-15208852D01*
X26255801Y-13731852D02*
X26261801Y-13760852D01*
X22365802Y-16909852D02*
X22141802Y-16971852D01*
X6270801Y-3466852D02*
X6301802Y-3458852D01*
X14971802Y-4729852D02*
X15465802Y-4890852D01*
X32535801Y-11689852D02*
X32530801Y-11727851D01*
D11*
D12*
X5360729Y-10526675D02*
X5550729Y-10716675D01*
X5550729Y-10526675D02*
X5360729Y-10716675D01*
X5810936Y-8675638D02*
X6000936Y-8865638D01*
X6000936Y-8675638D02*
X5810936Y-8865638D01*
X6261144Y-6824601D02*
X6451144Y-7014601D01*
X6451144Y-6824601D02*
X6261144Y-7014601D01*
X6347949Y-10766785D02*
X6537949Y-10956785D01*
X6537949Y-10766785D02*
X6347949Y-10956785D01*
X6711351Y-4973564D02*
X6901351Y-5163564D01*
X6901351Y-4973564D02*
X6711351Y-5163564D01*
X6798156Y-8915748D02*
X6988156Y-9105748D01*
X6988156Y-8915748D02*
X6798156Y-9105748D01*
X7211766Y-10976882D02*
X7401766Y-11166882D01*
X7401766Y-10976882D02*
X7211766Y-11166882D01*
X7248364Y-7064711D02*
X7438364Y-7254711D01*
X7438364Y-7064711D02*
X7248364Y-7254711D01*
X7661974Y-9125845D02*
X7851974Y-9315845D01*
X7851974Y-9125845D02*
X7661974Y-9315845D01*
X7698571Y-5213674D02*
X7888571Y-5403674D01*
X7888571Y-5213674D02*
X7698571Y-5403674D01*
X8112181Y-7274808D02*
X8302181Y-7464808D01*
X8302181Y-7274808D02*
X8112181Y-7464808D01*
X8198986Y-11216993D02*
X8388986Y-11406993D01*
X8388986Y-11216993D02*
X8198986Y-11406993D01*
X8562389Y-5423771D02*
X8752389Y-5613771D01*
X8752389Y-5423771D02*
X8562389Y-5613771D01*
X8649194Y-9365956D02*
X8839194Y-9555956D01*
X8839194Y-9365956D02*
X8649194Y-9555956D01*
X9099401Y-7514919D02*
X9289401Y-7704919D01*
X9289401Y-7514919D02*
X9099401Y-7704919D01*
X9176856Y-10958160D02*
X9366856Y-11148160D01*
X9366856Y-10958160D02*
X9176856Y-11148160D01*
X9549608Y-5663882D02*
X9739608Y-5853882D01*
X9739608Y-5663882D02*
X9549608Y-5853882D01*
X9627063Y-9107124D02*
X9817063Y-9297124D01*
X9817063Y-9107124D02*
X9627063Y-9297124D01*
X10077271Y-7256086D02*
X10267271Y-7446086D01*
X10267271Y-7256086D02*
X10077271Y-7446086D01*
X10164076Y-11198271D02*
X10354076Y-11388271D01*
X10354076Y-11198271D02*
X10164076Y-11388271D01*
X10527479Y-5405049D02*
X10717479Y-5595049D01*
X10717479Y-5405049D02*
X10527479Y-5595049D01*
X10614283Y-9347234D02*
X10804283Y-9537234D01*
X10804283Y-9347234D02*
X10614283Y-9537234D01*
X11064491Y-7496197D02*
X11254490Y-7686197D01*
X11254490Y-7496197D02*
X11064491Y-7686197D01*
X11081918Y-11186244D02*
X11271918Y-11376244D01*
X11271918Y-11186244D02*
X11081918Y-11376244D01*
X11456371Y-13712730D02*
X11646371Y-13902730D01*
X11646371Y-13712730D02*
X11456371Y-13902730D01*
X11514698Y-5645160D02*
X11704698Y-5835160D01*
X11704698Y-5645160D02*
X11514698Y-5835160D01*
X11532126Y-9335206D02*
X11722126Y-9525206D01*
X11722126Y-9335206D02*
X11532126Y-9525206D01*
X11982332Y-7484169D02*
X12172332Y-7674169D01*
X12172332Y-7484169D02*
X11982332Y-7674169D01*
X12069137Y-11426354D02*
X12259137Y-11616354D01*
X12259137Y-11426354D02*
X12069137Y-11616354D01*
X12432541Y-5633132D02*
X12622541Y-5823132D01*
X12622541Y-5633132D02*
X12432541Y-5823132D01*
X12443591Y-13952840D02*
X12633591Y-14142840D01*
X12633591Y-13952840D02*
X12443591Y-14142840D01*
X12519345Y-9575317D02*
X12709345Y-9765317D01*
X12709345Y-9575317D02*
X12519345Y-9765317D01*
X12878930Y-11858576D02*
X13068930Y-12048576D01*
X13068930Y-11858576D02*
X12878930Y-12048576D01*
X12969552Y-7724280D02*
X13159552Y-7914280D01*
X13159552Y-7724280D02*
X12969552Y-7914280D01*
X13253383Y-14385062D02*
X13443383Y-14575062D01*
X13443383Y-14385062D02*
X13253383Y-14575062D01*
X13329137Y-10007538D02*
X13519137Y-10197538D01*
X13519137Y-10007538D02*
X13329137Y-10197538D01*
X13419760Y-5873243D02*
X13609760Y-6063243D01*
X13609760Y-5873243D02*
X13419760Y-6063243D01*
X13779345Y-8156501D02*
X13969345Y-8346501D01*
X13969345Y-8156501D02*
X13779345Y-8346501D01*
X13866150Y-12098686D02*
X14056150Y-12288686D01*
X14056150Y-12098686D02*
X13866150Y-12288686D01*
X14229552Y-6305464D02*
X14419552Y-6495464D01*
X14419552Y-6305464D02*
X14229552Y-6495464D01*
X14240603Y-14625172D02*
X14430603Y-14815172D01*
X14430603Y-14625172D02*
X14240603Y-14815172D01*
X14316357Y-10247649D02*
X14506357Y-10437649D01*
X14506357Y-10247649D02*
X14316357Y-10437649D01*
X14675942Y-12530907D02*
X14865942Y-12720907D01*
X14865942Y-12530907D02*
X14675942Y-12720907D01*
X14766565Y-8396612D02*
X14956565Y-8586612D01*
X14956565Y-8396612D02*
X14766565Y-8586612D01*
X15126150Y-10679870D02*
X15316150Y-10869870D01*
X15316150Y-10679870D02*
X15126150Y-10869870D01*
X15216772Y-6545575D02*
X15406772Y-6735575D01*
X15406772Y-6545575D02*
X15216772Y-6735575D01*
X15284350Y-16193326D02*
X15474350Y-16383326D01*
X15474350Y-16193326D02*
X15284350Y-16383326D01*
X15576357Y-8828833D02*
X15766357Y-9018833D01*
X15766357Y-8828833D02*
X15576357Y-9018833D01*
X15663162Y-12771018D02*
X15853162Y-12961018D01*
X15853162Y-12771018D02*
X15663162Y-12961018D01*
X15985003Y-15457567D02*
X16175003Y-15647567D01*
X16175003Y-15457567D02*
X15985003Y-15647567D01*
X16026564Y-6977797D02*
X16216564Y-7167797D01*
X16216564Y-6977797D02*
X16026564Y-7167797D01*
X16113370Y-10919981D02*
X16303370Y-11109981D01*
X16303370Y-10919981D02*
X16113370Y-11109981D01*
X16563577Y-9068944D02*
X16753577Y-9258944D01*
X16753577Y-9068944D02*
X16563577Y-9258944D01*
X16598075Y-14813778D02*
X16788075Y-15003778D01*
X16788075Y-14813778D02*
X16598075Y-15003778D01*
X17013784Y-7217907D02*
X17203784Y-7407907D01*
X17203784Y-7217907D02*
X17013784Y-7407907D01*
X17298728Y-14078020D02*
X17488728Y-14268020D01*
X17488728Y-14078020D02*
X17298728Y-14268020D01*
X19179748Y-14078020D02*
X19369748Y-14268020D01*
X19369748Y-14078020D02*
X19179748Y-14268020D01*
X19464692Y-7217907D02*
X19654692Y-7407907D01*
X19654692Y-7217907D02*
X19464692Y-7407907D01*
X19880401Y-14813778D02*
X20070401Y-15003778D01*
X20070401Y-14813778D02*
X19880401Y-15003778D01*
X19914899Y-9068944D02*
X20104899Y-9258944D01*
X20104899Y-9068944D02*
X19914899Y-9258944D01*
X20365107Y-10919981D02*
X20555107Y-11109981D01*
X20555107Y-10919981D02*
X20365107Y-11109981D01*
X20451912Y-6977796D02*
X20641912Y-7167796D01*
X20641912Y-6977796D02*
X20451912Y-7167796D01*
X20493473Y-15457567D02*
X20683473Y-15647567D01*
X20683473Y-15457567D02*
X20493473Y-15647567D01*
X20815314Y-12771018D02*
X21005314Y-12961018D01*
X21005314Y-12771018D02*
X20815314Y-12961018D01*
X20902119Y-8828833D02*
X21092119Y-9018833D01*
X21092119Y-8828833D02*
X20902119Y-9018833D01*
X21194126Y-16193326D02*
X21384126Y-16383326D01*
X21384126Y-16193326D02*
X21194126Y-16383326D01*
X21261704Y-6545575D02*
X21451704Y-6735575D01*
X21451704Y-6545575D02*
X21261704Y-6735575D01*
X21352327Y-10679870D02*
X21542327Y-10869870D01*
X21542327Y-10679870D02*
X21352327Y-10869870D01*
X21711912Y-8396612D02*
X21901912Y-8586612D01*
X21901912Y-8396612D02*
X21711912Y-8586612D01*
X21802534Y-12530907D02*
X21992534Y-12720907D01*
X21992534Y-12530907D02*
X21802534Y-12720907D01*
X22162119Y-10247649D02*
X22352119Y-10437649D01*
X22352119Y-10247649D02*
X22162119Y-10437649D01*
X22237873Y-14625173D02*
X22427873Y-14815173D01*
X22427873Y-14625173D02*
X22237873Y-14815173D01*
X22248924Y-6305464D02*
X22438924Y-6495464D01*
X22438924Y-6305464D02*
X22248924Y-6495464D01*
X22612326Y-12098686D02*
X22802326Y-12288686D01*
X22802326Y-12098686D02*
X22612326Y-12288686D01*
X22699131Y-8156502D02*
X22889131Y-8346502D01*
X22889131Y-8156502D02*
X22699131Y-8346502D01*
X23056092Y-5873881D02*
X23246092Y-6063881D01*
X23246092Y-5873881D02*
X23056092Y-6063881D01*
X23149339Y-10007539D02*
X23339339Y-10197539D01*
X23339339Y-10007539D02*
X23149339Y-10197539D01*
X23225093Y-14385062D02*
X23415093Y-14575062D01*
X23415093Y-14385062D02*
X23225093Y-14575062D01*
X23506300Y-7724918D02*
X23696300Y-7914918D01*
X23696300Y-7724918D02*
X23506300Y-7914918D01*
X23599546Y-11858576D02*
X23789546Y-12048576D01*
X23789546Y-11858576D02*
X23599546Y-12048576D01*
X23956507Y-9575955D02*
X24146507Y-9765955D01*
X24146507Y-9575955D02*
X23956507Y-9765955D01*
X24034885Y-13952841D02*
X24224885Y-14142841D01*
X24224885Y-13952841D02*
X24034885Y-14142841D01*
X24043312Y-5633770D02*
X24233312Y-5823770D01*
X24233312Y-5633770D02*
X24043312Y-5823770D01*
X24406715Y-11426992D02*
X24596715Y-11616992D01*
X24596715Y-11426992D02*
X24406715Y-11616992D01*
X24493520Y-7484808D02*
X24683520Y-7674808D01*
X24683520Y-7484808D02*
X24493520Y-7674808D01*
X24943727Y-9335845D02*
X25133727Y-9525845D01*
X25133727Y-9335845D02*
X24943727Y-9525845D01*
X24963778Y-5645160D02*
X25153778Y-5835160D01*
X25153778Y-5645160D02*
X24963778Y-5835160D01*
X25022105Y-13712730D02*
X25212105Y-13902730D01*
X25212105Y-13712730D02*
X25022105Y-13902730D01*
X25393935Y-11186882D02*
X25583935Y-11376882D01*
X25583935Y-11186882D02*
X25393935Y-11376882D01*
X25413985Y-7496197D02*
X25603985Y-7686197D01*
X25603985Y-7496197D02*
X25413985Y-7686197D01*
X25864193Y-9347234D02*
X26054193Y-9537234D01*
X26054193Y-9347234D02*
X25864193Y-9537234D01*
X25950997Y-5405049D02*
X26140997Y-5595049D01*
X26140997Y-5405049D02*
X25950997Y-5595049D01*
X26314400Y-11198271D02*
X26504400Y-11388271D01*
X26504400Y-11198271D02*
X26314400Y-11388271D01*
X26401205Y-7256086D02*
X26591205Y-7446086D01*
X26591205Y-7256086D02*
X26401205Y-7446086D01*
X26851413Y-9107123D02*
X27041413Y-9297123D01*
X27041413Y-9107123D02*
X26851413Y-9297123D01*
X26928868Y-5663881D02*
X27118868Y-5853881D01*
X27118868Y-5663881D02*
X26928868Y-5853881D01*
X27301620Y-10958160D02*
X27491620Y-11148160D01*
X27491620Y-10958160D02*
X27301620Y-11148160D01*
X27379075Y-7514919D02*
X27569075Y-7704919D01*
X27569075Y-7514919D02*
X27379075Y-7704919D01*
X27829283Y-9365956D02*
X28019283Y-9555956D01*
X28019283Y-9365956D02*
X27829283Y-9555956D01*
X27916088Y-5423771D02*
X28106088Y-5613771D01*
X28106088Y-5423771D02*
X27916088Y-5613771D01*
X28279490Y-11216993D02*
X28469490Y-11406993D01*
X28469490Y-11216993D02*
X28279490Y-11406993D01*
X28366295Y-7274808D02*
X28556295Y-7464808D01*
X28556295Y-7274808D02*
X28366295Y-7464808D01*
X28779904Y-5213674D02*
X28969904Y-5403674D01*
X28969904Y-5213674D02*
X28779904Y-5403674D01*
X28816502Y-9125845D02*
X29006502Y-9315845D01*
X29006502Y-9125845D02*
X28816502Y-9315845D01*
X29230112Y-7064711D02*
X29420112Y-7254711D01*
X29420112Y-7064711D02*
X29230112Y-7254711D01*
X29266710Y-10976882D02*
X29456710Y-11166882D01*
X29456710Y-10976882D02*
X29266710Y-11166882D01*
X29680319Y-8915748D02*
X29870319Y-9105748D01*
X29870319Y-8915748D02*
X29680319Y-9105748D01*
X29767124Y-4973564D02*
X29957124Y-5163564D01*
X29957124Y-4973564D02*
X29767124Y-5163564D01*
X30130527Y-10766785D02*
X30320527Y-10956785D01*
X30320527Y-10766785D02*
X30130527Y-10956785D01*
X30217332Y-6824601D02*
X30407332Y-7014601D01*
X30407332Y-6824601D02*
X30217332Y-7014601D01*
X30667539Y-8675637D02*
X30857539Y-8865637D01*
X30857539Y-8675637D02*
X30667539Y-8865637D01*
X31117747Y-10526675D02*
X31307747Y-10716675D01*
X31307747Y-10526675D02*
X31117747Y-10716675D01*
D13*
X5789159Y-10404884D02*
G75*
G03*
X5789159Y-10404884I-150000J0D01*
G01*
X6239367Y-8553847D02*
G75*
G03*
X6239367Y-8553847I-150000J0D01*
G01*
X6466199Y-10308148D02*
G75*
G03*
X6466199Y-10308148I-150000J0D01*
G01*
X6689574Y-6702810D02*
G75*
G03*
X6689574Y-6702810I-150000J0D01*
G01*
X6916407Y-8457111D02*
G75*
G03*
X6916407Y-8457111I-150000J0D01*
G01*
X7139782Y-4851773D02*
G75*
G03*
X7139782Y-4851773I-150000J0D01*
G01*
X7366614Y-6606074D02*
G75*
G03*
X7366614Y-6606074I-150000J0D01*
G01*
X7640196Y-10855091D02*
G75*
G03*
X7640196Y-10855091I-150000J0D01*
G01*
X7816822Y-4755037D02*
G75*
G03*
X7816822Y-4755037I-150000J0D01*
G01*
X8090404Y-9004054D02*
G75*
G03*
X8090404Y-9004054I-150000J0D01*
G01*
X8317236Y-10758355D02*
G75*
G03*
X8317236Y-10758355I-150000J0D01*
G01*
X8540611Y-7153017D02*
G75*
G03*
X8540611Y-7153017I-150000J0D01*
G01*
X8767444Y-8907318D02*
G75*
G03*
X8767444Y-8907318I-150000J0D01*
G01*
X8990819Y-5301980D02*
G75*
G03*
X8990819Y-5301980I-150000J0D01*
G01*
X9217651Y-7056281D02*
G75*
G03*
X9217651Y-7056281I-150000J0D01*
G01*
X9605286Y-10836369D02*
G75*
G03*
X9605286Y-10836369I-150000J0D01*
G01*
X9667859Y-5205245D02*
G75*
G03*
X9667859Y-5205245I-150000J0D01*
G01*
X10055493Y-8985332D02*
G75*
G03*
X10055493Y-8985332I-150000J0D01*
G01*
X10282326Y-10739633D02*
G75*
G03*
X10282326Y-10739633I-150000J0D01*
G01*
X10505701Y-7134295D02*
G75*
G03*
X10505701Y-7134295I-150000J0D01*
G01*
X10732533Y-8888597D02*
G75*
G03*
X10732533Y-8888597I-150000J0D01*
G01*
X10955909Y-5283258D02*
G75*
G03*
X10955909Y-5283258I-150000J0D01*
G01*
X11182741Y-7037559D02*
G75*
G03*
X11182741Y-7037559I-150000J0D01*
G01*
X11510348Y-11064453D02*
G75*
G03*
X11510348Y-11064453I-150000J0D01*
G01*
X11632949Y-5186522D02*
G75*
G03*
X11632949Y-5186522I-150000J0D01*
G01*
X11884801Y-13590938D02*
G75*
G03*
X11884801Y-13590938I-150000J0D01*
G01*
X11960556Y-9213415D02*
G75*
G03*
X11960556Y-9213415I-150000J0D01*
G01*
X12187388Y-10967717D02*
G75*
G03*
X12187388Y-10967717I-150000J0D01*
G01*
X12410763Y-7362378D02*
G75*
G03*
X12410763Y-7362378I-150000J0D01*
G01*
X12561841Y-13494203D02*
G75*
G03*
X12561841Y-13494203I-150000J0D01*
G01*
X12637596Y-9116679D02*
G75*
G03*
X12637596Y-9116679I-150000J0D01*
G01*
X12860971Y-5511341D02*
G75*
G03*
X12860971Y-5511341I-150000J0D01*
G01*
X13087803Y-7265643D02*
G75*
G03*
X13087803Y-7265643I-150000J0D01*
G01*
X13307360Y-11736785D02*
G75*
G03*
X13307360Y-11736785I-150000J0D01*
G01*
X13538011Y-5414605D02*
G75*
G03*
X13538011Y-5414605I-150000J0D01*
G01*
X13681813Y-14263271D02*
G75*
G03*
X13681813Y-14263271I-150000J0D01*
G01*
X13757568Y-9885747D02*
G75*
G03*
X13757568Y-9885747I-150000J0D01*
G01*
X13984400Y-11640049D02*
G75*
G03*
X13984400Y-11640049I-150000J0D01*
G01*
X14207775Y-8034710D02*
G75*
G03*
X14207775Y-8034710I-150000J0D01*
G01*
X14358853Y-14166535D02*
G75*
G03*
X14358853Y-14166535I-150000J0D01*
G01*
X14434608Y-9789011D02*
G75*
G03*
X14434608Y-9789011I-150000J0D01*
G01*
X14657982Y-6183673D02*
G75*
G03*
X14657982Y-6183673I-150000J0D01*
G01*
X14884815Y-7937975D02*
G75*
G03*
X14884815Y-7937975I-150000J0D01*
G01*
X15104372Y-12409116D02*
G75*
G03*
X15104372Y-12409116I-150000J0D01*
G01*
X15335022Y-6086937D02*
G75*
G03*
X15335022Y-6086937I-150000J0D01*
G01*
X15432992Y-16021192D02*
G75*
G03*
X15432992Y-16021192I-150000J0D01*
G01*
X15554580Y-10558079D02*
G75*
G03*
X15554580Y-10558079I-150000J0D01*
G01*
X15686960Y-15386180D02*
G75*
G03*
X15686960Y-15386180I-150000J0D01*
G01*
X15781412Y-12312380D02*
G75*
G03*
X15781412Y-12312380I-150000J0D01*
G01*
X16004787Y-8707042D02*
G75*
G03*
X16004787Y-8707042I-150000J0D01*
G01*
X16231620Y-10461344D02*
G75*
G03*
X16231620Y-10461344I-150000J0D01*
G01*
X16454995Y-6856005D02*
G75*
G03*
X16454995Y-6856005I-150000J0D01*
G01*
X16681827Y-8610307D02*
G75*
G03*
X16681827Y-8610307I-150000J0D01*
G01*
X16746717Y-14641645D02*
G75*
G03*
X16746717Y-14641645I-150000J0D01*
G01*
X17000686Y-14006632D02*
G75*
G03*
X17000686Y-14006632I-150000J0D01*
G01*
X17132035Y-6759270D02*
G75*
G03*
X17132035Y-6759270I-150000J0D01*
G01*
X19696269Y-14089826D02*
G75*
G03*
X19696269Y-14089826I-150000J0D01*
G01*
X19773067Y-7036088D02*
G75*
G03*
X19773067Y-7036088I-150000J0D01*
G01*
X20223274Y-8887125D02*
G75*
G03*
X20223274Y-8887125I-150000J0D01*
G01*
X20318117Y-14374512D02*
G75*
G03*
X20318117Y-14374512I-150000J0D01*
G01*
X20330051Y-6639214D02*
G75*
G03*
X20330051Y-6639214I-150000J0D01*
G01*
X20673482Y-10738162D02*
G75*
G03*
X20673482Y-10738162I-150000J0D01*
G01*
X20780259Y-8490251D02*
G75*
G03*
X20780259Y-8490251I-150000J0D01*
G01*
X21009994Y-15469374D02*
G75*
G03*
X21009994Y-15469374I-150000J0D01*
G01*
X21123689Y-12589199D02*
G75*
G03*
X21123689Y-12589199I-150000J0D01*
G01*
X21230466Y-10341288D02*
G75*
G03*
X21230466Y-10341288I-150000J0D01*
G01*
X21570079Y-6363756D02*
G75*
G03*
X21570079Y-6363756I-150000J0D01*
G01*
X21631842Y-15754059D02*
G75*
G03*
X21631842Y-15754059I-150000J0D01*
G01*
X21680674Y-12192325D02*
G75*
G03*
X21680674Y-12192325I-150000J0D01*
G01*
X22020286Y-8214793D02*
G75*
G03*
X22020286Y-8214793I-150000J0D01*
G01*
X22127063Y-5966882D02*
G75*
G03*
X22127063Y-5966882I-150000J0D01*
G01*
X22470494Y-10065830D02*
G75*
G03*
X22470494Y-10065830I-150000J0D01*
G01*
X22546248Y-14443354D02*
G75*
G03*
X22546248Y-14443354I-150000J0D01*
G01*
X22577271Y-7817919D02*
G75*
G03*
X22577271Y-7817919I-150000J0D01*
G01*
X22920701Y-11916868D02*
G75*
G03*
X22920701Y-11916868I-150000J0D01*
G01*
X23027478Y-9668956D02*
G75*
G03*
X23027478Y-9668956I-150000J0D01*
G01*
X23103232Y-14046480D02*
G75*
G03*
X23103232Y-14046480I-150000J0D01*
G01*
X23364467Y-5692062D02*
G75*
G03*
X23364467Y-5692062I-150000J0D01*
G01*
X23477686Y-11519993D02*
G75*
G03*
X23477686Y-11519993I-150000J0D01*
G01*
X23814675Y-7543100D02*
G75*
G03*
X23814675Y-7543100I-150000J0D01*
G01*
X23921452Y-5295188D02*
G75*
G03*
X23921452Y-5295188I-150000J0D01*
G01*
X24264882Y-9394137D02*
G75*
G03*
X24264882Y-9394137I-150000J0D01*
G01*
X24343260Y-13771022D02*
G75*
G03*
X24343260Y-13771022I-150000J0D01*
G01*
X24371659Y-7146226D02*
G75*
G03*
X24371659Y-7146226I-150000J0D01*
G01*
X24715090Y-11245174D02*
G75*
G03*
X24715090Y-11245174I-150000J0D01*
G01*
X24821867Y-8997262D02*
G75*
G03*
X24821867Y-8997262I-150000J0D01*
G01*
X24900244Y-13374148D02*
G75*
G03*
X24900244Y-13374148I-150000J0D01*
G01*
X25272074Y-10848299D02*
G75*
G03*
X25272074Y-10848299I-150000J0D01*
G01*
X25272152Y-5463341D02*
G75*
G03*
X25272152Y-5463341I-150000J0D01*
G01*
X25722360Y-7314378D02*
G75*
G03*
X25722360Y-7314378I-150000J0D01*
G01*
X25829137Y-5066467D02*
G75*
G03*
X25829137Y-5066467I-150000J0D01*
G01*
X26172568Y-9165415D02*
G75*
G03*
X26172568Y-9165415I-150000J0D01*
G01*
X26279345Y-6917504D02*
G75*
G03*
X26279345Y-6917504I-150000J0D01*
G01*
X26622775Y-11016452D02*
G75*
G03*
X26622775Y-11016452I-150000J0D01*
G01*
X26729553Y-8768541D02*
G75*
G03*
X26729553Y-8768541I-150000J0D01*
G01*
X27179760Y-10619578D02*
G75*
G03*
X27179760Y-10619578I-150000J0D01*
G01*
X27237243Y-5482063D02*
G75*
G03*
X27237243Y-5482063I-150000J0D01*
G01*
X27687450Y-7333100D02*
G75*
G03*
X27687450Y-7333100I-150000J0D01*
G01*
X27794227Y-5085189D02*
G75*
G03*
X27794227Y-5085189I-150000J0D01*
G01*
X28137657Y-9184137D02*
G75*
G03*
X28137657Y-9184137I-150000J0D01*
G01*
X28244435Y-6936226D02*
G75*
G03*
X28244435Y-6936226I-150000J0D01*
G01*
X28587865Y-11035174D02*
G75*
G03*
X28587865Y-11035174I-150000J0D01*
G01*
X28694642Y-8787263D02*
G75*
G03*
X28694642Y-8787263I-150000J0D01*
G01*
X29088279Y-5031856D02*
G75*
G03*
X29088279Y-5031856I-150000J0D01*
G01*
X29144850Y-10638300D02*
G75*
G03*
X29144850Y-10638300I-150000J0D01*
G01*
X29538487Y-6882893D02*
G75*
G03*
X29538487Y-6882893I-150000J0D01*
G01*
X29645264Y-4634981D02*
G75*
G03*
X29645264Y-4634981I-150000J0D01*
G01*
X29988694Y-8733929D02*
G75*
G03*
X29988694Y-8733929I-150000J0D01*
G01*
X30095472Y-6486018D02*
G75*
G03*
X30095472Y-6486018I-150000J0D01*
G01*
X30438902Y-10584967D02*
G75*
G03*
X30438902Y-10584967I-150000J0D01*
G01*
X30545679Y-8337055D02*
G75*
G03*
X30545679Y-8337055I-150000J0D01*
G01*
X30995886Y-10188092D02*
G75*
G03*
X30995886Y-10188092I-150000J0D01*
G01*
D14*
X4551682Y-11409912D02*
X4551682Y-11809912D01*
X4351682Y-11609912D02*
X4751682Y-11609912D01*
X6421122Y-3604492D02*
X6421122Y-4004492D01*
X6221122Y-3804492D02*
X6621122Y-3804492D01*
X7104382Y-9850352D02*
X7104382Y-10250352D01*
X6904382Y-10050352D02*
X7304382Y-10050352D01*
X8003542Y-6147032D02*
X8003542Y-6547032D01*
X7803542Y-6347032D02*
X8203542Y-6347032D01*
X10497822Y-14793192D02*
X10497822Y-15193192D01*
X10297822Y-14993192D02*
X10697822Y-14993192D01*
X12044682Y-3914372D02*
X12044682Y-4314372D01*
X11844682Y-4114372D02*
X12244682Y-4114372D01*
X14594842Y-11298152D02*
X14594842Y-11698152D01*
X14394842Y-11498152D02*
X14794842Y-11498152D01*
X15491462Y-7589752D02*
X15491462Y-7989752D01*
X15291462Y-7789752D02*
X15691462Y-7789752D01*
X15580362Y-14290272D02*
X15580362Y-14690272D01*
X15380362Y-14490272D02*
X15780362Y-14490272D01*
X16096190Y-5416917D02*
X16096190Y-5816917D01*
X15896190Y-5616917D02*
X16296190Y-5616917D01*
X16555722Y-16550872D02*
X16555722Y-16950872D01*
X16355722Y-16750872D02*
X16755722Y-16750872D01*
X20124422Y-16550872D02*
X20124422Y-16950872D01*
X19924422Y-16750872D02*
X20324422Y-16750872D01*
X20584162Y-5420592D02*
X20584162Y-5820592D01*
X20384162Y-5620592D02*
X20784162Y-5620592D01*
X21094702Y-14290272D02*
X21094702Y-14690272D01*
X20894702Y-14490272D02*
X21294702Y-14490272D01*
X21188682Y-7594832D02*
X21188682Y-7994832D01*
X20988682Y-7794832D02*
X21388682Y-7794832D01*
X22082762Y-11295612D02*
X22082762Y-11695612D01*
X21882762Y-11495612D02*
X22282762Y-11495612D01*
X24632922Y-3914372D02*
X24632922Y-4314372D01*
X24432922Y-4114372D02*
X24832922Y-4114372D01*
X26179782Y-14793192D02*
X26179782Y-15193192D01*
X25979782Y-14993192D02*
X26379782Y-14993192D01*
X28679142Y-6147032D02*
X28679142Y-6547032D01*
X28479142Y-6347032D02*
X28879142Y-6347032D01*
X29573222Y-9850352D02*
X29573222Y-10250352D01*
X29373222Y-10050352D02*
X29773222Y-10050352D01*
X30256482Y-3604492D02*
X30256482Y-4004492D01*
X30056482Y-3804492D02*
X30456482Y-3804492D01*
X32125922Y-11409912D02*
X32125922Y-11809912D01*
X31925922Y-11609912D02*
X32325922Y-11609912D01*
D15*
X6094297Y-10886688D02*
X6094297Y-10596772D01*
X5804381Y-10596772D01*
X5804381Y-10886688D01*
X6094297Y-10886688D01*
X6544505Y-9035651D02*
X6544505Y-8745735D01*
X6254588Y-8745735D01*
X6254588Y-9035651D01*
X6544505Y-9035651D01*
X6994712Y-7184614D02*
X6994712Y-6894698D01*
X6704796Y-6894698D01*
X6704796Y-7184614D01*
X6994712Y-7184614D01*
X7444920Y-5333577D02*
X7444920Y-5043661D01*
X7155003Y-5043661D01*
X7155003Y-5333577D01*
X7444920Y-5333577D01*
X7945334Y-11336896D02*
X7945334Y-11046979D01*
X7655418Y-11046979D01*
X7655418Y-11336896D01*
X7945334Y-11336896D01*
X8395542Y-9485859D02*
X8395542Y-9195942D01*
X8105625Y-9195942D01*
X8105625Y-9485859D01*
X8395542Y-9485859D01*
X8845749Y-7634822D02*
X8845749Y-7344905D01*
X8555833Y-7344905D01*
X8555833Y-7634822D01*
X8845749Y-7634822D01*
X9295957Y-5783785D02*
X9295957Y-5493868D01*
X9006040Y-5493868D01*
X9006040Y-5783785D01*
X9295957Y-5783785D01*
X9910424Y-11318174D02*
X9910424Y-11028257D01*
X9620508Y-11028257D01*
X9620508Y-11318174D01*
X9910424Y-11318174D01*
X10360631Y-9467137D02*
X10360631Y-9177221D01*
X10070715Y-9177221D01*
X10070715Y-9467137D01*
X10360631Y-9467137D01*
X10810839Y-7616100D02*
X10810839Y-7326183D01*
X10520922Y-7326183D01*
X10520922Y-7616100D01*
X10810839Y-7616100D01*
X11261047Y-5765063D02*
X11261047Y-5475146D01*
X10971130Y-5475146D01*
X10971130Y-5765063D01*
X11261047Y-5765063D01*
X11815486Y-11546257D02*
X11815486Y-11256341D01*
X11525569Y-11256341D01*
X11525569Y-11546257D01*
X11815486Y-11546257D01*
X12189939Y-14072743D02*
X12189939Y-13782827D01*
X11900023Y-13782827D01*
X11900023Y-14072743D01*
X12189939Y-14072743D01*
X12265694Y-9695220D02*
X12265694Y-9405303D01*
X11975777Y-9405303D01*
X11975777Y-9695220D01*
X12265694Y-9695220D01*
X12715901Y-7844183D02*
X12715901Y-7554266D01*
X12425984Y-7554266D01*
X12425984Y-7844183D01*
X12715901Y-7844183D01*
X13166109Y-5993146D02*
X13166109Y-5703229D01*
X12876192Y-5703229D01*
X12876192Y-5993146D01*
X13166109Y-5993146D01*
X13612498Y-12218589D02*
X13612498Y-11928673D01*
X13322581Y-11928673D01*
X13322581Y-12218589D01*
X13612498Y-12218589D01*
X13986951Y-14745075D02*
X13986951Y-14455159D01*
X13697035Y-14455159D01*
X13697035Y-14745075D01*
X13986951Y-14745075D01*
X14062706Y-10367552D02*
X14062706Y-10077635D01*
X13772789Y-10077635D01*
X13772789Y-10367552D01*
X14062706Y-10367552D01*
X14512913Y-8516515D02*
X14512913Y-8226598D01*
X14222996Y-8226598D01*
X14222996Y-8516515D01*
X14512913Y-8516515D01*
X14963120Y-6665478D02*
X14963120Y-6375561D01*
X14673204Y-6375561D01*
X14673204Y-6665478D01*
X14963120Y-6665478D01*
X15409510Y-12890921D02*
X15409510Y-12601004D01*
X15119594Y-12601004D01*
X15119594Y-12890921D01*
X15409510Y-12890921D01*
X15859718Y-11039884D02*
X15859718Y-10749967D01*
X15569802Y-10749967D01*
X15569802Y-11039884D01*
X15859718Y-11039884D01*
X15874635Y-16065405D02*
X15874635Y-15775488D01*
X15584718Y-15775488D01*
X15584718Y-16065405D01*
X15874635Y-16065405D01*
X16309925Y-9188847D02*
X16309925Y-8898930D01*
X16020009Y-8898930D01*
X16020009Y-9188847D01*
X16309925Y-9188847D01*
X16760133Y-7337810D02*
X16760133Y-7047894D01*
X16470216Y-7047894D01*
X16470216Y-7337810D01*
X16760133Y-7337810D01*
X17188360Y-14685857D02*
X17188360Y-14395941D01*
X16898443Y-14395941D01*
X16898443Y-14685857D01*
X17188360Y-14685857D01*
X19770033Y-14685857D02*
X19770033Y-14395941D01*
X19480116Y-14395941D01*
X19480116Y-14685857D01*
X19770033Y-14685857D01*
X20198260Y-7337810D02*
X20198260Y-7047893D01*
X19908344Y-7047893D01*
X19908344Y-7337810D01*
X20198260Y-7337810D01*
X20648467Y-9188847D02*
X20648467Y-8898930D01*
X20358551Y-8898930D01*
X20358551Y-9188847D01*
X20648467Y-9188847D01*
X21083758Y-16065405D02*
X21083758Y-15775488D01*
X20793841Y-15775488D01*
X20793841Y-16065405D01*
X21083758Y-16065405D01*
X21098675Y-11039884D02*
X21098675Y-10749967D01*
X20808758Y-10749967D01*
X20808758Y-11039884D01*
X21098675Y-11039884D01*
X21548883Y-12890921D02*
X21548883Y-12601004D01*
X21258966Y-12601004D01*
X21258966Y-12890921D01*
X21548883Y-12890921D01*
X21995272Y-6665478D02*
X21995272Y-6375561D01*
X21705356Y-6375561D01*
X21705356Y-6665478D01*
X21995272Y-6665478D01*
X22445480Y-8516515D02*
X22445480Y-8226599D01*
X22155563Y-8226599D01*
X22155563Y-8516515D01*
X22445480Y-8516515D01*
X22895687Y-10367552D02*
X22895687Y-10077636D01*
X22605771Y-10077636D01*
X22605771Y-10367552D01*
X22895687Y-10367552D01*
X22971441Y-14745076D02*
X22971441Y-14455159D01*
X22681524Y-14455159D01*
X22681524Y-14745076D01*
X22971441Y-14745076D01*
X23345895Y-12218589D02*
X23345895Y-11928673D01*
X23055978Y-11928673D01*
X23055978Y-12218589D01*
X23345895Y-12218589D01*
X23789661Y-5993784D02*
X23789661Y-5703867D01*
X23499744Y-5703867D01*
X23499744Y-5993784D01*
X23789661Y-5993784D01*
X24239868Y-7844821D02*
X24239868Y-7554905D01*
X23949952Y-7554905D01*
X23949952Y-7844821D01*
X24239868Y-7844821D01*
X24690075Y-9695858D02*
X24690075Y-9405942D01*
X24400159Y-9405942D01*
X24400159Y-9695858D01*
X24690075Y-9695858D01*
X24768453Y-14072744D02*
X24768453Y-13782827D01*
X24478536Y-13782827D01*
X24478536Y-14072744D01*
X24768453Y-14072744D01*
X25140283Y-11546895D02*
X25140283Y-11256979D01*
X24850367Y-11256979D01*
X24850367Y-11546895D01*
X25140283Y-11546895D01*
X25697346Y-5765063D02*
X25697346Y-5475146D01*
X25407429Y-5475146D01*
X25407429Y-5765063D01*
X25697346Y-5765063D01*
X26147554Y-7616100D02*
X26147554Y-7326183D01*
X25857637Y-7326183D01*
X25857637Y-7616100D01*
X26147554Y-7616100D01*
X26597761Y-9467137D02*
X26597761Y-9177220D01*
X26307845Y-9177220D01*
X26307845Y-9467137D01*
X26597761Y-9467137D01*
X27047968Y-11318174D02*
X27047968Y-11028257D01*
X26758052Y-11028257D01*
X26758052Y-11318174D01*
X27047968Y-11318174D01*
X27662436Y-5783784D02*
X27662436Y-5493868D01*
X27372519Y-5493868D01*
X27372519Y-5783784D01*
X27662436Y-5783784D01*
X28112643Y-7634822D02*
X28112643Y-7344905D01*
X27822727Y-7344905D01*
X27822727Y-7634822D01*
X28112643Y-7634822D01*
X28562851Y-9485859D02*
X28562851Y-9195942D01*
X28272934Y-9195942D01*
X28272934Y-9485859D01*
X28562851Y-9485859D01*
X29013058Y-11336896D02*
X29013058Y-11046979D01*
X28723142Y-11046979D01*
X28723142Y-11336896D01*
X29013058Y-11336896D01*
X29513472Y-5333577D02*
X29513472Y-5043661D01*
X29223556Y-5043661D01*
X29223556Y-5333577D01*
X29513472Y-5333577D01*
X29963680Y-7184614D02*
X29963680Y-6894698D01*
X29673764Y-6894698D01*
X29673764Y-7184614D01*
X29963680Y-7184614D01*
X30413888Y-9035651D02*
X30413888Y-8745734D01*
X30123971Y-8745734D01*
X30123971Y-9035651D01*
X30413888Y-9035651D01*
X30864095Y-10886688D02*
X30864095Y-10596772D01*
X30574178Y-10596772D01*
X30574178Y-10886688D01*
X30864095Y-10886688D01*
D11*
X4393421Y-17821328D02*
X4393421Y-17621328D01*
X4441040Y-17621328D01*
X4469611Y-17630852D01*
X4488659Y-17649899D01*
X4498182Y-17668947D01*
X4507706Y-17707042D01*
X4507706Y-17735614D01*
X4498182Y-17773709D01*
X4488659Y-17792756D01*
X4469611Y-17811804D01*
X4441040Y-17821328D01*
X4393421Y-17821328D01*
X4593421Y-17821328D02*
X4593421Y-17687994D01*
X4593421Y-17726090D02*
X4602944Y-17707042D01*
X4612468Y-17697518D01*
X4631516Y-17687994D01*
X4650563Y-17687994D01*
X4717230Y-17821328D02*
X4717230Y-17687994D01*
X4717230Y-17621328D02*
X4707706Y-17630852D01*
X4717230Y-17640375D01*
X4726754Y-17630852D01*
X4717230Y-17621328D01*
X4717230Y-17640375D01*
X4841040Y-17821328D02*
X4821992Y-17811804D01*
X4812468Y-17792756D01*
X4812468Y-17621328D01*
X4945802Y-17821328D02*
X4926754Y-17811804D01*
X4917230Y-17792756D01*
X4917230Y-17621328D01*
X5174373Y-17821328D02*
X5174373Y-17621328D01*
X5241040Y-17764185D01*
X5307706Y-17621328D01*
X5307706Y-17821328D01*
X5488659Y-17821328D02*
X5488659Y-17716566D01*
X5479135Y-17697518D01*
X5460087Y-17687994D01*
X5421992Y-17687994D01*
X5402944Y-17697518D01*
X5488659Y-17811804D02*
X5469611Y-17821328D01*
X5421992Y-17821328D01*
X5402944Y-17811804D01*
X5393421Y-17792756D01*
X5393421Y-17773709D01*
X5402944Y-17754661D01*
X5421992Y-17745137D01*
X5469611Y-17745137D01*
X5488659Y-17735614D01*
X5583897Y-17687994D02*
X5583897Y-17887994D01*
X5583897Y-17697518D02*
X5602944Y-17687994D01*
X5641039Y-17687994D01*
X5660087Y-17697518D01*
X5669611Y-17707042D01*
X5679135Y-17726090D01*
X5679135Y-17783233D01*
X5669611Y-17802280D01*
X5660087Y-17811804D01*
X5641039Y-17821328D01*
X5602944Y-17821328D01*
X5583897Y-17811804D01*
X5764849Y-17802280D02*
X5774373Y-17811804D01*
X5764849Y-17821328D01*
X5755325Y-17811804D01*
X5764849Y-17802280D01*
X5764849Y-17821328D01*
X5764849Y-17697518D02*
X5774373Y-17707042D01*
X5764849Y-17716566D01*
X5755325Y-17707042D01*
X5764849Y-17697518D01*
X5764849Y-17716566D01*
D12*
X3945801Y-18055852D02*
X4135801Y-18245852D01*
X4135801Y-18055852D02*
X3945801Y-18245852D01*
D11*
X4498182Y-18241328D02*
X4383897Y-18241328D01*
X4441040Y-18241328D02*
X4441040Y-18041328D01*
X4421992Y-18069899D01*
X4402944Y-18088947D01*
X4383897Y-18098471D01*
X4583897Y-18222280D02*
X4593421Y-18231804D01*
X4583897Y-18241328D01*
X4574373Y-18231804D01*
X4583897Y-18222280D01*
X4583897Y-18241328D01*
X4688659Y-18241328D02*
X4726754Y-18241328D01*
X4745802Y-18231804D01*
X4755325Y-18222280D01*
X4774373Y-18193709D01*
X4783897Y-18155614D01*
X4783897Y-18079423D01*
X4774373Y-18060375D01*
X4764849Y-18050852D01*
X4745802Y-18041328D01*
X4707706Y-18041328D01*
X4688659Y-18050852D01*
X4679135Y-18060375D01*
X4669611Y-18079423D01*
X4669611Y-18127042D01*
X4679135Y-18146090D01*
X4688659Y-18155614D01*
X4707706Y-18165137D01*
X4745802Y-18165137D01*
X4764849Y-18155614D01*
X4774373Y-18146090D01*
X4783897Y-18127042D01*
X4907706Y-18041328D02*
X4926754Y-18041328D01*
X4945802Y-18050852D01*
X4955325Y-18060375D01*
X4964849Y-18079423D01*
X4974373Y-18117518D01*
X4974373Y-18165137D01*
X4964849Y-18203233D01*
X4955325Y-18222280D01*
X4945802Y-18231804D01*
X4926754Y-18241328D01*
X4907706Y-18241328D01*
X4888659Y-18231804D01*
X4879135Y-18222280D01*
X4869611Y-18203233D01*
X4860087Y-18165137D01*
X4860087Y-18117518D01*
X4869611Y-18079423D01*
X4879135Y-18060375D01*
X4888659Y-18050852D01*
X4907706Y-18041328D01*
X5098182Y-18041328D02*
X5117230Y-18041328D01*
X5136278Y-18050852D01*
X5145802Y-18060375D01*
X5155325Y-18079423D01*
X5164849Y-18117518D01*
X5164849Y-18165137D01*
X5155325Y-18203233D01*
X5145802Y-18222280D01*
X5136278Y-18231804D01*
X5117230Y-18241328D01*
X5098182Y-18241328D01*
X5079135Y-18231804D01*
X5069611Y-18222280D01*
X5060087Y-18203233D01*
X5050563Y-18165137D01*
X5050563Y-18117518D01*
X5060087Y-18079423D01*
X5069611Y-18060375D01*
X5079135Y-18050852D01*
X5098182Y-18041328D01*
X5250563Y-18241328D02*
X5250563Y-18107994D01*
X5250563Y-18127042D02*
X5260087Y-18117518D01*
X5279135Y-18107994D01*
X5307706Y-18107994D01*
X5326754Y-18117518D01*
X5336278Y-18136566D01*
X5336278Y-18241328D01*
X5336278Y-18136566D02*
X5345802Y-18117518D01*
X5364849Y-18107994D01*
X5393421Y-18107994D01*
X5412468Y-18117518D01*
X5421992Y-18136566D01*
X5421992Y-18241328D01*
X5517230Y-18241328D02*
X5517230Y-18107994D01*
X5517230Y-18127042D02*
X5526754Y-18117518D01*
X5545802Y-18107994D01*
X5574373Y-18107994D01*
X5593420Y-18117518D01*
X5602944Y-18136566D01*
X5602944Y-18241328D01*
X5602944Y-18136566D02*
X5612468Y-18117518D01*
X5631516Y-18107994D01*
X5660087Y-18107994D01*
X5679135Y-18117518D01*
X5688659Y-18136566D01*
X5688659Y-18241328D01*
X6079135Y-18031804D02*
X5907706Y-18288947D01*
X6336278Y-18041328D02*
X6355325Y-18041328D01*
X6374373Y-18050852D01*
X6383897Y-18060375D01*
X6393420Y-18079423D01*
X6402944Y-18117518D01*
X6402944Y-18165137D01*
X6393420Y-18203233D01*
X6383897Y-18222280D01*
X6374373Y-18231804D01*
X6355325Y-18241328D01*
X6336278Y-18241328D01*
X6317230Y-18231804D01*
X6307706Y-18222280D01*
X6298182Y-18203233D01*
X6288659Y-18165137D01*
X6288659Y-18117518D01*
X6298182Y-18079423D01*
X6307706Y-18060375D01*
X6317230Y-18050852D01*
X6336278Y-18041328D01*
X6488659Y-18222280D02*
X6498182Y-18231804D01*
X6488659Y-18241328D01*
X6479135Y-18231804D01*
X6488659Y-18222280D01*
X6488659Y-18241328D01*
X6621992Y-18041328D02*
X6641039Y-18041328D01*
X6660087Y-18050852D01*
X6669611Y-18060375D01*
X6679135Y-18079423D01*
X6688659Y-18117518D01*
X6688659Y-18165137D01*
X6679135Y-18203233D01*
X6669611Y-18222280D01*
X6660087Y-18231804D01*
X6641039Y-18241328D01*
X6621992Y-18241328D01*
X6602944Y-18231804D01*
X6593420Y-18222280D01*
X6583897Y-18203233D01*
X6574373Y-18165137D01*
X6574373Y-18117518D01*
X6583897Y-18079423D01*
X6593420Y-18060375D01*
X6602944Y-18050852D01*
X6621992Y-18041328D01*
X6755325Y-18041328D02*
X6888659Y-18041328D01*
X6802944Y-18241328D01*
X7050563Y-18107994D02*
X7050563Y-18241328D01*
X7002944Y-18031804D02*
X6955325Y-18174661D01*
X7079135Y-18174661D01*
X7183897Y-18127042D02*
X7164849Y-18117518D01*
X7155325Y-18107994D01*
X7145801Y-18088947D01*
X7145801Y-18079423D01*
X7155325Y-18060375D01*
X7164849Y-18050852D01*
X7183897Y-18041328D01*
X7221992Y-18041328D01*
X7241039Y-18050852D01*
X7250563Y-18060375D01*
X7260087Y-18079423D01*
X7260087Y-18088947D01*
X7250563Y-18107994D01*
X7241039Y-18117518D01*
X7221992Y-18127042D01*
X7183897Y-18127042D01*
X7164849Y-18136566D01*
X7155325Y-18146090D01*
X7145801Y-18165137D01*
X7145801Y-18203233D01*
X7155325Y-18222280D01*
X7164849Y-18231804D01*
X7183897Y-18241328D01*
X7221992Y-18241328D01*
X7241039Y-18231804D01*
X7250563Y-18222280D01*
X7260087Y-18203233D01*
X7260087Y-18165137D01*
X7250563Y-18146090D01*
X7241039Y-18136566D01*
X7221992Y-18127042D01*
X7336278Y-18041328D02*
X7336278Y-18079423D01*
X7412468Y-18041328D02*
X7412468Y-18079423D01*
X7707706Y-18317518D02*
X7698182Y-18307994D01*
X7679135Y-18279423D01*
X7669611Y-18260375D01*
X7660087Y-18231804D01*
X7650563Y-18184185D01*
X7650563Y-18146090D01*
X7660087Y-18098471D01*
X7669611Y-18069899D01*
X7679135Y-18050852D01*
X7698182Y-18022280D01*
X7707706Y-18012756D01*
X7888659Y-18241328D02*
X7774373Y-18241328D01*
X7831516Y-18241328D02*
X7831516Y-18041328D01*
X7812468Y-18069899D01*
X7793420Y-18088947D01*
X7774373Y-18098471D01*
X8079135Y-18241328D02*
X7964849Y-18241328D01*
X8021992Y-18241328D02*
X8021992Y-18041328D01*
X8002944Y-18069899D01*
X7983897Y-18088947D01*
X7964849Y-18098471D01*
X8155325Y-18060375D02*
X8164849Y-18050852D01*
X8183897Y-18041328D01*
X8231516Y-18041328D01*
X8250563Y-18050852D01*
X8260087Y-18060375D01*
X8269611Y-18079423D01*
X8269611Y-18098471D01*
X8260087Y-18127042D01*
X8145801Y-18241328D01*
X8269611Y-18241328D01*
X8507706Y-18241328D02*
X8507706Y-18041328D01*
X8593421Y-18241328D02*
X8593421Y-18136566D01*
X8583897Y-18117518D01*
X8564849Y-18107994D01*
X8536278Y-18107994D01*
X8517230Y-18117518D01*
X8507706Y-18127042D01*
X8717230Y-18241328D02*
X8698182Y-18231804D01*
X8688659Y-18222280D01*
X8679135Y-18203233D01*
X8679135Y-18146090D01*
X8688659Y-18127042D01*
X8698182Y-18117518D01*
X8717230Y-18107994D01*
X8745801Y-18107994D01*
X8764849Y-18117518D01*
X8774373Y-18127042D01*
X8783897Y-18146090D01*
X8783897Y-18203233D01*
X8774373Y-18222280D01*
X8764849Y-18231804D01*
X8745801Y-18241328D01*
X8717230Y-18241328D01*
X8898182Y-18241328D02*
X8879135Y-18231804D01*
X8869611Y-18212756D01*
X8869611Y-18041328D01*
X9050563Y-18231804D02*
X9031516Y-18241328D01*
X8993421Y-18241328D01*
X8974373Y-18231804D01*
X8964849Y-18212756D01*
X8964849Y-18136566D01*
X8974373Y-18117518D01*
X8993421Y-18107994D01*
X9031516Y-18107994D01*
X9050563Y-18117518D01*
X9060087Y-18136566D01*
X9060087Y-18155614D01*
X8964849Y-18174661D01*
X9136278Y-18231804D02*
X9155325Y-18241328D01*
X9193421Y-18241328D01*
X9212468Y-18231804D01*
X9221992Y-18212756D01*
X9221992Y-18203233D01*
X9212468Y-18184185D01*
X9193421Y-18174661D01*
X9164849Y-18174661D01*
X9145801Y-18165137D01*
X9136278Y-18146090D01*
X9136278Y-18136566D01*
X9145801Y-18117518D01*
X9164849Y-18107994D01*
X9193421Y-18107994D01*
X9212468Y-18117518D01*
X9288659Y-18317518D02*
X9298182Y-18307994D01*
X9317230Y-18279423D01*
X9326754Y-18260375D01*
X9336278Y-18231804D01*
X9345801Y-18184185D01*
X9345801Y-18146090D01*
X9336278Y-18098471D01*
X9326754Y-18069899D01*
X9317230Y-18050852D01*
X9298182Y-18022280D01*
X9288659Y-18012756D01*
X9650563Y-18317518D02*
X9641040Y-18307994D01*
X9621992Y-18279423D01*
X9612468Y-18260375D01*
X9602944Y-18231804D01*
X9593421Y-18184185D01*
X9593421Y-18146090D01*
X9602944Y-18098471D01*
X9612468Y-18069899D01*
X9621992Y-18050852D01*
X9641040Y-18022280D01*
X9650563Y-18012756D01*
X9726754Y-18107994D02*
X9726754Y-18241328D01*
X9726754Y-18127042D02*
X9736278Y-18117518D01*
X9755325Y-18107994D01*
X9783897Y-18107994D01*
X9802944Y-18117518D01*
X9812468Y-18136566D01*
X9812468Y-18241328D01*
X9936278Y-18241328D02*
X9917230Y-18231804D01*
X9907706Y-18222280D01*
X9898182Y-18203233D01*
X9898182Y-18146090D01*
X9907706Y-18127042D01*
X9917230Y-18117518D01*
X9936278Y-18107994D01*
X9964849Y-18107994D01*
X9983897Y-18117518D01*
X9993421Y-18127042D01*
X10002944Y-18146090D01*
X10002944Y-18203233D01*
X9993421Y-18222280D01*
X9983897Y-18231804D01*
X9964849Y-18241328D01*
X9936278Y-18241328D01*
X10060087Y-18107994D02*
X10136278Y-18107994D01*
X10088659Y-18041328D02*
X10088659Y-18212756D01*
X10098182Y-18231804D01*
X10117230Y-18241328D01*
X10136278Y-18241328D01*
X10355325Y-18107994D02*
X10355325Y-18307994D01*
X10355325Y-18117518D02*
X10374373Y-18107994D01*
X10412468Y-18107994D01*
X10431516Y-18117518D01*
X10441040Y-18127042D01*
X10450563Y-18146090D01*
X10450563Y-18203233D01*
X10441040Y-18222280D01*
X10431516Y-18231804D01*
X10412468Y-18241328D01*
X10374373Y-18241328D01*
X10355325Y-18231804D01*
X10564849Y-18241328D02*
X10545801Y-18231804D01*
X10536278Y-18212756D01*
X10536278Y-18041328D01*
X10726754Y-18241328D02*
X10726754Y-18136566D01*
X10717230Y-18117518D01*
X10698182Y-18107994D01*
X10660087Y-18107994D01*
X10641040Y-18117518D01*
X10726754Y-18231804D02*
X10707706Y-18241328D01*
X10660087Y-18241328D01*
X10641040Y-18231804D01*
X10631516Y-18212756D01*
X10631516Y-18193709D01*
X10641040Y-18174661D01*
X10660087Y-18165137D01*
X10707706Y-18165137D01*
X10726754Y-18155614D01*
X10793421Y-18107994D02*
X10869611Y-18107994D01*
X10821992Y-18041328D02*
X10821992Y-18212756D01*
X10831516Y-18231804D01*
X10850563Y-18241328D01*
X10869611Y-18241328D01*
X11012468Y-18231804D02*
X10993421Y-18241328D01*
X10955325Y-18241328D01*
X10936278Y-18231804D01*
X10926754Y-18212756D01*
X10926754Y-18136566D01*
X10936278Y-18117518D01*
X10955325Y-18107994D01*
X10993421Y-18107994D01*
X11012468Y-18117518D01*
X11021992Y-18136566D01*
X11021992Y-18155614D01*
X10926754Y-18174661D01*
X11193420Y-18241328D02*
X11193420Y-18041328D01*
X11193420Y-18231804D02*
X11174373Y-18241328D01*
X11136278Y-18241328D01*
X11117230Y-18231804D01*
X11107706Y-18222280D01*
X11098182Y-18203233D01*
X11098182Y-18146090D01*
X11107706Y-18127042D01*
X11117230Y-18117518D01*
X11136278Y-18107994D01*
X11174373Y-18107994D01*
X11193420Y-18117518D01*
X11269611Y-18317518D02*
X11279135Y-18307994D01*
X11298182Y-18279423D01*
X11307706Y-18260375D01*
X11317230Y-18231804D01*
X11326754Y-18184185D01*
X11326754Y-18146090D01*
X11317230Y-18098471D01*
X11307706Y-18069899D01*
X11298182Y-18050852D01*
X11279135Y-18022280D01*
X11269611Y-18012756D01*
X4135801Y-18460852D02*
G75*
G03*
X4135801Y-18460852I-100000J0D01*
G01*
X4374373Y-18351328D02*
X4498182Y-18351328D01*
X4431516Y-18427518D01*
X4460087Y-18427518D01*
X4479135Y-18437042D01*
X4488659Y-18446566D01*
X4498182Y-18465614D01*
X4498182Y-18513233D01*
X4488659Y-18532280D01*
X4479135Y-18541804D01*
X4460087Y-18551328D01*
X4402944Y-18551328D01*
X4383897Y-18541804D01*
X4374373Y-18532280D01*
X4583897Y-18532280D02*
X4593421Y-18541804D01*
X4583897Y-18551328D01*
X4574373Y-18541804D01*
X4583897Y-18532280D01*
X4583897Y-18551328D01*
X4717230Y-18351328D02*
X4736278Y-18351328D01*
X4755325Y-18360852D01*
X4764849Y-18370375D01*
X4774373Y-18389423D01*
X4783897Y-18427518D01*
X4783897Y-18475137D01*
X4774373Y-18513233D01*
X4764849Y-18532280D01*
X4755325Y-18541804D01*
X4736278Y-18551328D01*
X4717230Y-18551328D01*
X4698182Y-18541804D01*
X4688659Y-18532280D01*
X4679135Y-18513233D01*
X4669611Y-18475137D01*
X4669611Y-18427518D01*
X4679135Y-18389423D01*
X4688659Y-18370375D01*
X4698182Y-18360852D01*
X4717230Y-18351328D01*
X4907706Y-18351328D02*
X4926754Y-18351328D01*
X4945802Y-18360852D01*
X4955325Y-18370375D01*
X4964849Y-18389423D01*
X4974373Y-18427518D01*
X4974373Y-18475137D01*
X4964849Y-18513233D01*
X4955325Y-18532280D01*
X4945802Y-18541804D01*
X4926754Y-18551328D01*
X4907706Y-18551328D01*
X4888659Y-18541804D01*
X4879135Y-18532280D01*
X4869611Y-18513233D01*
X4860087Y-18475137D01*
X4860087Y-18427518D01*
X4869611Y-18389423D01*
X4879135Y-18370375D01*
X4888659Y-18360852D01*
X4907706Y-18351328D01*
X5098182Y-18351328D02*
X5117230Y-18351328D01*
X5136278Y-18360852D01*
X5145802Y-18370375D01*
X5155325Y-18389423D01*
X5164849Y-18427518D01*
X5164849Y-18475137D01*
X5155325Y-18513233D01*
X5145802Y-18532280D01*
X5136278Y-18541804D01*
X5117230Y-18551328D01*
X5098182Y-18551328D01*
X5079135Y-18541804D01*
X5069611Y-18532280D01*
X5060087Y-18513233D01*
X5050563Y-18475137D01*
X5050563Y-18427518D01*
X5060087Y-18389423D01*
X5069611Y-18370375D01*
X5079135Y-18360852D01*
X5098182Y-18351328D01*
X5250563Y-18551328D02*
X5250563Y-18417994D01*
X5250563Y-18437042D02*
X5260087Y-18427518D01*
X5279135Y-18417994D01*
X5307706Y-18417994D01*
X5326754Y-18427518D01*
X5336278Y-18446566D01*
X5336278Y-18551328D01*
X5336278Y-18446566D02*
X5345802Y-18427518D01*
X5364849Y-18417994D01*
X5393421Y-18417994D01*
X5412468Y-18427518D01*
X5421992Y-18446566D01*
X5421992Y-18551328D01*
X5517230Y-18551328D02*
X5517230Y-18417994D01*
X5517230Y-18437042D02*
X5526754Y-18427518D01*
X5545802Y-18417994D01*
X5574373Y-18417994D01*
X5593420Y-18427518D01*
X5602944Y-18446566D01*
X5602944Y-18551328D01*
X5602944Y-18446566D02*
X5612468Y-18427518D01*
X5631516Y-18417994D01*
X5660087Y-18417994D01*
X5679135Y-18427518D01*
X5688659Y-18446566D01*
X5688659Y-18551328D01*
X6079135Y-18341804D02*
X5907706Y-18598947D01*
X6336278Y-18351328D02*
X6355325Y-18351328D01*
X6374373Y-18360852D01*
X6383897Y-18370375D01*
X6393420Y-18389423D01*
X6402944Y-18427518D01*
X6402944Y-18475137D01*
X6393420Y-18513233D01*
X6383897Y-18532280D01*
X6374373Y-18541804D01*
X6355325Y-18551328D01*
X6336278Y-18551328D01*
X6317230Y-18541804D01*
X6307706Y-18532280D01*
X6298182Y-18513233D01*
X6288659Y-18475137D01*
X6288659Y-18427518D01*
X6298182Y-18389423D01*
X6307706Y-18370375D01*
X6317230Y-18360852D01*
X6336278Y-18351328D01*
X6488659Y-18532280D02*
X6498182Y-18541804D01*
X6488659Y-18551328D01*
X6479135Y-18541804D01*
X6488659Y-18532280D01*
X6488659Y-18551328D01*
X6688659Y-18551328D02*
X6574373Y-18551328D01*
X6631516Y-18551328D02*
X6631516Y-18351328D01*
X6612468Y-18379899D01*
X6593420Y-18398947D01*
X6574373Y-18408471D01*
X6879135Y-18551328D02*
X6764849Y-18551328D01*
X6821992Y-18551328D02*
X6821992Y-18351328D01*
X6802944Y-18379899D01*
X6783897Y-18398947D01*
X6764849Y-18408471D01*
X6993420Y-18437042D02*
X6974373Y-18427518D01*
X6964849Y-18417994D01*
X6955325Y-18398947D01*
X6955325Y-18389423D01*
X6964849Y-18370375D01*
X6974373Y-18360852D01*
X6993420Y-18351328D01*
X7031516Y-18351328D01*
X7050563Y-18360852D01*
X7060087Y-18370375D01*
X7069611Y-18389423D01*
X7069611Y-18398947D01*
X7060087Y-18417994D01*
X7050563Y-18427518D01*
X7031516Y-18437042D01*
X6993420Y-18437042D01*
X6974373Y-18446566D01*
X6964849Y-18456090D01*
X6955325Y-18475137D01*
X6955325Y-18513233D01*
X6964849Y-18532280D01*
X6974373Y-18541804D01*
X6993420Y-18551328D01*
X7031516Y-18551328D01*
X7050563Y-18541804D01*
X7060087Y-18532280D01*
X7069611Y-18513233D01*
X7069611Y-18475137D01*
X7060087Y-18456090D01*
X7050563Y-18446566D01*
X7031516Y-18437042D01*
X7260087Y-18551328D02*
X7145801Y-18551328D01*
X7202944Y-18551328D02*
X7202944Y-18351328D01*
X7183897Y-18379899D01*
X7164849Y-18398947D01*
X7145801Y-18408471D01*
X7336278Y-18351328D02*
X7336278Y-18389423D01*
X7412468Y-18351328D02*
X7412468Y-18389423D01*
X7707706Y-18627518D02*
X7698182Y-18617994D01*
X7679135Y-18589423D01*
X7669611Y-18570375D01*
X7660087Y-18541804D01*
X7650563Y-18494185D01*
X7650563Y-18456090D01*
X7660087Y-18408471D01*
X7669611Y-18379899D01*
X7679135Y-18360852D01*
X7698182Y-18332280D01*
X7707706Y-18322756D01*
X7888659Y-18551328D02*
X7774373Y-18551328D01*
X7831516Y-18551328D02*
X7831516Y-18351328D01*
X7812468Y-18379899D01*
X7793420Y-18398947D01*
X7774373Y-18408471D01*
X8079135Y-18551328D02*
X7964849Y-18551328D01*
X8021992Y-18551328D02*
X8021992Y-18351328D01*
X8002944Y-18379899D01*
X7983897Y-18398947D01*
X7964849Y-18408471D01*
X8155325Y-18370375D02*
X8164849Y-18360852D01*
X8183897Y-18351328D01*
X8231516Y-18351328D01*
X8250563Y-18360852D01*
X8260087Y-18370375D01*
X8269611Y-18389423D01*
X8269611Y-18408471D01*
X8260087Y-18437042D01*
X8145801Y-18551328D01*
X8269611Y-18551328D01*
X8507706Y-18551328D02*
X8507706Y-18351328D01*
X8593421Y-18551328D02*
X8593421Y-18446566D01*
X8583897Y-18427518D01*
X8564849Y-18417994D01*
X8536278Y-18417994D01*
X8517230Y-18427518D01*
X8507706Y-18437042D01*
X8717230Y-18551328D02*
X8698182Y-18541804D01*
X8688659Y-18532280D01*
X8679135Y-18513233D01*
X8679135Y-18456090D01*
X8688659Y-18437042D01*
X8698182Y-18427518D01*
X8717230Y-18417994D01*
X8745801Y-18417994D01*
X8764849Y-18427518D01*
X8774373Y-18437042D01*
X8783897Y-18456090D01*
X8783897Y-18513233D01*
X8774373Y-18532280D01*
X8764849Y-18541804D01*
X8745801Y-18551328D01*
X8717230Y-18551328D01*
X8898182Y-18551328D02*
X8879135Y-18541804D01*
X8869611Y-18522756D01*
X8869611Y-18351328D01*
X9050563Y-18541804D02*
X9031516Y-18551328D01*
X8993421Y-18551328D01*
X8974373Y-18541804D01*
X8964849Y-18522756D01*
X8964849Y-18446566D01*
X8974373Y-18427518D01*
X8993421Y-18417994D01*
X9031516Y-18417994D01*
X9050563Y-18427518D01*
X9060087Y-18446566D01*
X9060087Y-18465614D01*
X8964849Y-18484661D01*
X9136278Y-18541804D02*
X9155325Y-18551328D01*
X9193421Y-18551328D01*
X9212468Y-18541804D01*
X9221992Y-18522756D01*
X9221992Y-18513233D01*
X9212468Y-18494185D01*
X9193421Y-18484661D01*
X9164849Y-18484661D01*
X9145801Y-18475137D01*
X9136278Y-18456090D01*
X9136278Y-18446566D01*
X9145801Y-18427518D01*
X9164849Y-18417994D01*
X9193421Y-18417994D01*
X9212468Y-18427518D01*
X9288659Y-18627518D02*
X9298182Y-18617994D01*
X9317230Y-18589423D01*
X9326754Y-18570375D01*
X9336278Y-18541804D01*
X9345801Y-18494185D01*
X9345801Y-18456090D01*
X9336278Y-18408471D01*
X9326754Y-18379899D01*
X9317230Y-18360852D01*
X9298182Y-18332280D01*
X9288659Y-18322756D01*
X9650563Y-18627518D02*
X9641040Y-18617994D01*
X9621992Y-18589423D01*
X9612468Y-18570375D01*
X9602944Y-18541804D01*
X9593421Y-18494185D01*
X9593421Y-18456090D01*
X9602944Y-18408471D01*
X9612468Y-18379899D01*
X9621992Y-18360852D01*
X9641040Y-18332280D01*
X9650563Y-18322756D01*
X9726754Y-18417994D02*
X9726754Y-18551328D01*
X9726754Y-18437042D02*
X9736278Y-18427518D01*
X9755325Y-18417994D01*
X9783897Y-18417994D01*
X9802944Y-18427518D01*
X9812468Y-18446566D01*
X9812468Y-18551328D01*
X9936278Y-18551328D02*
X9917230Y-18541804D01*
X9907706Y-18532280D01*
X9898182Y-18513233D01*
X9898182Y-18456090D01*
X9907706Y-18437042D01*
X9917230Y-18427518D01*
X9936278Y-18417994D01*
X9964849Y-18417994D01*
X9983897Y-18427518D01*
X9993421Y-18437042D01*
X10002944Y-18456090D01*
X10002944Y-18513233D01*
X9993421Y-18532280D01*
X9983897Y-18541804D01*
X9964849Y-18551328D01*
X9936278Y-18551328D01*
X10060087Y-18417994D02*
X10136278Y-18417994D01*
X10088659Y-18351328D02*
X10088659Y-18522756D01*
X10098182Y-18541804D01*
X10117230Y-18551328D01*
X10136278Y-18551328D01*
X10355325Y-18417994D02*
X10355325Y-18617994D01*
X10355325Y-18427518D02*
X10374373Y-18417994D01*
X10412468Y-18417994D01*
X10431516Y-18427518D01*
X10441040Y-18437042D01*
X10450563Y-18456090D01*
X10450563Y-18513233D01*
X10441040Y-18532280D01*
X10431516Y-18541804D01*
X10412468Y-18551328D01*
X10374373Y-18551328D01*
X10355325Y-18541804D01*
X10564849Y-18551328D02*
X10545801Y-18541804D01*
X10536278Y-18522756D01*
X10536278Y-18351328D01*
X10726754Y-18551328D02*
X10726754Y-18446566D01*
X10717230Y-18427518D01*
X10698182Y-18417994D01*
X10660087Y-18417994D01*
X10641040Y-18427518D01*
X10726754Y-18541804D02*
X10707706Y-18551328D01*
X10660087Y-18551328D01*
X10641040Y-18541804D01*
X10631516Y-18522756D01*
X10631516Y-18503709D01*
X10641040Y-18484661D01*
X10660087Y-18475137D01*
X10707706Y-18475137D01*
X10726754Y-18465614D01*
X10793421Y-18417994D02*
X10869611Y-18417994D01*
X10821992Y-18351328D02*
X10821992Y-18522756D01*
X10831516Y-18541804D01*
X10850563Y-18551328D01*
X10869611Y-18551328D01*
X11012468Y-18541804D02*
X10993421Y-18551328D01*
X10955325Y-18551328D01*
X10936278Y-18541804D01*
X10926754Y-18522756D01*
X10926754Y-18446566D01*
X10936278Y-18427518D01*
X10955325Y-18417994D01*
X10993421Y-18417994D01*
X11012468Y-18427518D01*
X11021992Y-18446566D01*
X11021992Y-18465614D01*
X10926754Y-18484661D01*
X11193420Y-18551328D02*
X11193420Y-18351328D01*
X11193420Y-18541804D02*
X11174373Y-18551328D01*
X11136278Y-18551328D01*
X11117230Y-18541804D01*
X11107706Y-18532280D01*
X11098182Y-18513233D01*
X11098182Y-18456090D01*
X11107706Y-18437042D01*
X11117230Y-18427518D01*
X11136278Y-18417994D01*
X11174373Y-18417994D01*
X11193420Y-18427518D01*
X11269611Y-18627518D02*
X11279135Y-18617994D01*
X11298182Y-18589423D01*
X11307706Y-18570375D01*
X11317230Y-18541804D01*
X11326754Y-18494185D01*
X11326754Y-18456090D01*
X11317230Y-18408471D01*
X11307706Y-18379899D01*
X11298182Y-18360852D01*
X11279135Y-18332280D01*
X11269611Y-18322756D01*
X4035801Y-18680852D02*
X4035801Y-18880852D01*
X3935801Y-18780852D02*
X4135801Y-18780852D01*
X4479135Y-18737994D02*
X4479135Y-18871328D01*
X4431516Y-18661804D02*
X4383897Y-18804661D01*
X4507706Y-18804661D01*
X4583897Y-18852280D02*
X4593421Y-18861804D01*
X4583897Y-18871328D01*
X4574373Y-18861804D01*
X4583897Y-18852280D01*
X4583897Y-18871328D01*
X4717230Y-18671328D02*
X4736278Y-18671328D01*
X4755325Y-18680852D01*
X4764849Y-18690375D01*
X4774373Y-18709423D01*
X4783897Y-18747518D01*
X4783897Y-18795137D01*
X4774373Y-18833233D01*
X4764849Y-18852280D01*
X4755325Y-18861804D01*
X4736278Y-18871328D01*
X4717230Y-18871328D01*
X4698182Y-18861804D01*
X4688659Y-18852280D01*
X4679135Y-18833233D01*
X4669611Y-18795137D01*
X4669611Y-18747518D01*
X4679135Y-18709423D01*
X4688659Y-18690375D01*
X4698182Y-18680852D01*
X4717230Y-18671328D01*
X4907706Y-18671328D02*
X4926754Y-18671328D01*
X4945802Y-18680852D01*
X4955325Y-18690375D01*
X4964849Y-18709423D01*
X4974373Y-18747518D01*
X4974373Y-18795137D01*
X4964849Y-18833233D01*
X4955325Y-18852280D01*
X4945802Y-18861804D01*
X4926754Y-18871328D01*
X4907706Y-18871328D01*
X4888659Y-18861804D01*
X4879135Y-18852280D01*
X4869611Y-18833233D01*
X4860087Y-18795137D01*
X4860087Y-18747518D01*
X4869611Y-18709423D01*
X4879135Y-18690375D01*
X4888659Y-18680852D01*
X4907706Y-18671328D01*
X5098182Y-18671328D02*
X5117230Y-18671328D01*
X5136278Y-18680852D01*
X5145802Y-18690375D01*
X5155325Y-18709423D01*
X5164849Y-18747518D01*
X5164849Y-18795137D01*
X5155325Y-18833233D01*
X5145802Y-18852280D01*
X5136278Y-18861804D01*
X5117230Y-18871328D01*
X5098182Y-18871328D01*
X5079135Y-18861804D01*
X5069611Y-18852280D01*
X5060087Y-18833233D01*
X5050563Y-18795137D01*
X5050563Y-18747518D01*
X5060087Y-18709423D01*
X5069611Y-18690375D01*
X5079135Y-18680852D01*
X5098182Y-18671328D01*
X5250563Y-18871328D02*
X5250563Y-18737994D01*
X5250563Y-18757042D02*
X5260087Y-18747518D01*
X5279135Y-18737994D01*
X5307706Y-18737994D01*
X5326754Y-18747518D01*
X5336278Y-18766566D01*
X5336278Y-18871328D01*
X5336278Y-18766566D02*
X5345802Y-18747518D01*
X5364849Y-18737994D01*
X5393421Y-18737994D01*
X5412468Y-18747518D01*
X5421992Y-18766566D01*
X5421992Y-18871328D01*
X5517230Y-18871328D02*
X5517230Y-18737994D01*
X5517230Y-18757042D02*
X5526754Y-18747518D01*
X5545802Y-18737994D01*
X5574373Y-18737994D01*
X5593420Y-18747518D01*
X5602944Y-18766566D01*
X5602944Y-18871328D01*
X5602944Y-18766566D02*
X5612468Y-18747518D01*
X5631516Y-18737994D01*
X5660087Y-18737994D01*
X5679135Y-18747518D01*
X5688659Y-18766566D01*
X5688659Y-18871328D01*
X6079135Y-18661804D02*
X5907706Y-18918947D01*
X6336278Y-18671328D02*
X6355325Y-18671328D01*
X6374373Y-18680852D01*
X6383897Y-18690375D01*
X6393420Y-18709423D01*
X6402944Y-18747518D01*
X6402944Y-18795137D01*
X6393420Y-18833233D01*
X6383897Y-18852280D01*
X6374373Y-18861804D01*
X6355325Y-18871328D01*
X6336278Y-18871328D01*
X6317230Y-18861804D01*
X6307706Y-18852280D01*
X6298182Y-18833233D01*
X6288659Y-18795137D01*
X6288659Y-18747518D01*
X6298182Y-18709423D01*
X6307706Y-18690375D01*
X6317230Y-18680852D01*
X6336278Y-18671328D01*
X6488659Y-18852280D02*
X6498182Y-18861804D01*
X6488659Y-18871328D01*
X6479135Y-18861804D01*
X6488659Y-18852280D01*
X6488659Y-18871328D01*
X6688659Y-18871328D02*
X6574373Y-18871328D01*
X6631516Y-18871328D02*
X6631516Y-18671328D01*
X6612468Y-18699899D01*
X6593420Y-18718947D01*
X6574373Y-18728471D01*
X6869611Y-18671328D02*
X6774373Y-18671328D01*
X6764849Y-18766566D01*
X6774373Y-18757042D01*
X6793420Y-18747518D01*
X6841039Y-18747518D01*
X6860087Y-18757042D01*
X6869611Y-18766566D01*
X6879135Y-18785614D01*
X6879135Y-18833233D01*
X6869611Y-18852280D01*
X6860087Y-18861804D01*
X6841039Y-18871328D01*
X6793420Y-18871328D01*
X6774373Y-18861804D01*
X6764849Y-18852280D01*
X6945801Y-18671328D02*
X7079135Y-18671328D01*
X6993420Y-18871328D01*
X7250563Y-18671328D02*
X7155325Y-18671328D01*
X7145801Y-18766566D01*
X7155325Y-18757042D01*
X7174373Y-18747518D01*
X7221992Y-18747518D01*
X7241039Y-18757042D01*
X7250563Y-18766566D01*
X7260087Y-18785614D01*
X7260087Y-18833233D01*
X7250563Y-18852280D01*
X7241039Y-18861804D01*
X7221992Y-18871328D01*
X7174373Y-18871328D01*
X7155325Y-18861804D01*
X7145801Y-18852280D01*
X7336278Y-18671328D02*
X7336278Y-18709423D01*
X7412468Y-18671328D02*
X7412468Y-18709423D01*
X7707706Y-18947518D02*
X7698182Y-18937994D01*
X7679135Y-18909423D01*
X7669611Y-18890375D01*
X7660087Y-18861804D01*
X7650563Y-18814185D01*
X7650563Y-18776090D01*
X7660087Y-18728471D01*
X7669611Y-18699899D01*
X7679135Y-18680852D01*
X7698182Y-18652280D01*
X7707706Y-18642756D01*
X7774373Y-18690375D02*
X7783897Y-18680852D01*
X7802944Y-18671328D01*
X7850563Y-18671328D01*
X7869611Y-18680852D01*
X7879135Y-18690375D01*
X7888659Y-18709423D01*
X7888659Y-18728471D01*
X7879135Y-18757042D01*
X7764849Y-18871328D01*
X7888659Y-18871328D01*
X7964849Y-18690375D02*
X7974373Y-18680852D01*
X7993420Y-18671328D01*
X8041039Y-18671328D01*
X8060087Y-18680852D01*
X8069611Y-18690375D01*
X8079135Y-18709423D01*
X8079135Y-18728471D01*
X8069611Y-18757042D01*
X7955325Y-18871328D01*
X8079135Y-18871328D01*
X8317230Y-18871328D02*
X8317230Y-18671328D01*
X8402944Y-18871328D02*
X8402944Y-18766566D01*
X8393421Y-18747518D01*
X8374373Y-18737994D01*
X8345801Y-18737994D01*
X8326754Y-18747518D01*
X8317230Y-18757042D01*
X8526754Y-18871328D02*
X8507706Y-18861804D01*
X8498182Y-18852280D01*
X8488659Y-18833233D01*
X8488659Y-18776090D01*
X8498182Y-18757042D01*
X8507706Y-18747518D01*
X8526754Y-18737994D01*
X8555325Y-18737994D01*
X8574373Y-18747518D01*
X8583897Y-18757042D01*
X8593421Y-18776090D01*
X8593421Y-18833233D01*
X8583897Y-18852280D01*
X8574373Y-18861804D01*
X8555325Y-18871328D01*
X8526754Y-18871328D01*
X8707706Y-18871328D02*
X8688659Y-18861804D01*
X8679135Y-18842756D01*
X8679135Y-18671328D01*
X8860087Y-18861804D02*
X8841040Y-18871328D01*
X8802944Y-18871328D01*
X8783897Y-18861804D01*
X8774373Y-18842756D01*
X8774373Y-18766566D01*
X8783897Y-18747518D01*
X8802944Y-18737994D01*
X8841040Y-18737994D01*
X8860087Y-18747518D01*
X8869611Y-18766566D01*
X8869611Y-18785614D01*
X8774373Y-18804661D01*
X8945801Y-18861804D02*
X8964849Y-18871328D01*
X9002944Y-18871328D01*
X9021992Y-18861804D01*
X9031516Y-18842756D01*
X9031516Y-18833233D01*
X9021992Y-18814185D01*
X9002944Y-18804661D01*
X8974373Y-18804661D01*
X8955325Y-18795137D01*
X8945801Y-18776090D01*
X8945801Y-18766566D01*
X8955325Y-18747518D01*
X8974373Y-18737994D01*
X9002944Y-18737994D01*
X9021992Y-18747518D01*
X9098182Y-18947518D02*
X9107706Y-18937994D01*
X9126754Y-18909423D01*
X9136278Y-18890375D01*
X9145801Y-18861804D01*
X9155325Y-18814185D01*
X9155325Y-18776090D01*
X9145801Y-18728471D01*
X9136278Y-18699899D01*
X9126754Y-18680852D01*
X9107706Y-18652280D01*
X9098182Y-18642756D01*
X9460087Y-18947518D02*
X9450563Y-18937994D01*
X9431516Y-18909423D01*
X9421992Y-18890375D01*
X9412468Y-18861804D01*
X9402944Y-18814185D01*
X9402944Y-18776090D01*
X9412468Y-18728471D01*
X9421992Y-18699899D01*
X9431516Y-18680852D01*
X9450563Y-18652280D01*
X9460087Y-18642756D01*
X9536278Y-18737994D02*
X9536278Y-18871328D01*
X9536278Y-18757042D02*
X9545801Y-18747518D01*
X9564849Y-18737994D01*
X9593421Y-18737994D01*
X9612468Y-18747518D01*
X9621992Y-18766566D01*
X9621992Y-18871328D01*
X9745801Y-18871328D02*
X9726754Y-18861804D01*
X9717230Y-18852280D01*
X9707706Y-18833233D01*
X9707706Y-18776090D01*
X9717230Y-18757042D01*
X9726754Y-18747518D01*
X9745801Y-18737994D01*
X9774373Y-18737994D01*
X9793421Y-18747518D01*
X9802944Y-18757042D01*
X9812468Y-18776090D01*
X9812468Y-18833233D01*
X9802944Y-18852280D01*
X9793421Y-18861804D01*
X9774373Y-18871328D01*
X9745801Y-18871328D01*
X9869611Y-18737994D02*
X9945801Y-18737994D01*
X9898182Y-18671328D02*
X9898182Y-18842756D01*
X9907706Y-18861804D01*
X9926754Y-18871328D01*
X9945801Y-18871328D01*
X10164849Y-18737994D02*
X10164849Y-18937994D01*
X10164849Y-18747518D02*
X10183897Y-18737994D01*
X10221992Y-18737994D01*
X10241040Y-18747518D01*
X10250563Y-18757042D01*
X10260087Y-18776090D01*
X10260087Y-18833233D01*
X10250563Y-18852280D01*
X10241040Y-18861804D01*
X10221992Y-18871328D01*
X10183897Y-18871328D01*
X10164849Y-18861804D01*
X10374373Y-18871328D02*
X10355325Y-18861804D01*
X10345801Y-18842756D01*
X10345801Y-18671328D01*
X10536278Y-18871328D02*
X10536278Y-18766566D01*
X10526754Y-18747518D01*
X10507706Y-18737994D01*
X10469611Y-18737994D01*
X10450563Y-18747518D01*
X10536278Y-18861804D02*
X10517230Y-18871328D01*
X10469611Y-18871328D01*
X10450563Y-18861804D01*
X10441040Y-18842756D01*
X10441040Y-18823709D01*
X10450563Y-18804661D01*
X10469611Y-18795137D01*
X10517230Y-18795137D01*
X10536278Y-18785614D01*
X10602944Y-18737994D02*
X10679135Y-18737994D01*
X10631516Y-18671328D02*
X10631516Y-18842756D01*
X10641040Y-18861804D01*
X10660087Y-18871328D01*
X10679135Y-18871328D01*
X10821992Y-18861804D02*
X10802944Y-18871328D01*
X10764849Y-18871328D01*
X10745801Y-18861804D01*
X10736278Y-18842756D01*
X10736278Y-18766566D01*
X10745801Y-18747518D01*
X10764849Y-18737994D01*
X10802944Y-18737994D01*
X10821992Y-18747518D01*
X10831516Y-18766566D01*
X10831516Y-18785614D01*
X10736278Y-18804661D01*
X11002944Y-18871328D02*
X11002944Y-18671328D01*
X11002944Y-18861804D02*
X10983897Y-18871328D01*
X10945801Y-18871328D01*
X10926754Y-18861804D01*
X10917230Y-18852280D01*
X10907706Y-18833233D01*
X10907706Y-18776090D01*
X10917230Y-18757042D01*
X10926754Y-18747518D01*
X10945801Y-18737994D01*
X10983897Y-18737994D01*
X11002944Y-18747518D01*
X11079135Y-18947518D02*
X11088659Y-18937994D01*
X11107706Y-18909423D01*
X11117230Y-18890375D01*
X11126754Y-18861804D01*
X11136278Y-18814185D01*
X11136278Y-18776090D01*
X11126754Y-18728471D01*
X11117230Y-18699899D01*
X11107706Y-18680852D01*
X11088659Y-18652280D01*
X11079135Y-18642756D01*
X4106513Y-19171563D02*
X4106513Y-19030140D01*
X3965090Y-19030140D01*
X3965090Y-19171563D01*
X4106513Y-19171563D01*
X4479135Y-19057994D02*
X4479135Y-19191328D01*
X4431516Y-18981804D02*
X4383897Y-19124661D01*
X4507706Y-19124661D01*
X4583897Y-19172280D02*
X4593421Y-19181804D01*
X4583897Y-19191328D01*
X4574373Y-19181804D01*
X4583897Y-19172280D01*
X4583897Y-19191328D01*
X4783897Y-19191328D02*
X4669611Y-19191328D01*
X4726754Y-19191328D02*
X4726754Y-18991328D01*
X4707706Y-19019899D01*
X4688659Y-19038947D01*
X4669611Y-19048471D01*
X4907706Y-18991328D02*
X4926754Y-18991328D01*
X4945802Y-19000852D01*
X4955325Y-19010375D01*
X4964849Y-19029423D01*
X4974373Y-19067518D01*
X4974373Y-19115137D01*
X4964849Y-19153233D01*
X4955325Y-19172280D01*
X4945802Y-19181804D01*
X4926754Y-19191328D01*
X4907706Y-19191328D01*
X4888659Y-19181804D01*
X4879135Y-19172280D01*
X4869611Y-19153233D01*
X4860087Y-19115137D01*
X4860087Y-19067518D01*
X4869611Y-19029423D01*
X4879135Y-19010375D01*
X4888659Y-19000852D01*
X4907706Y-18991328D01*
X5098182Y-18991328D02*
X5117230Y-18991328D01*
X5136278Y-19000852D01*
X5145802Y-19010375D01*
X5155325Y-19029423D01*
X5164849Y-19067518D01*
X5164849Y-19115137D01*
X5155325Y-19153233D01*
X5145802Y-19172280D01*
X5136278Y-19181804D01*
X5117230Y-19191328D01*
X5098182Y-19191328D01*
X5079135Y-19181804D01*
X5069611Y-19172280D01*
X5060087Y-19153233D01*
X5050563Y-19115137D01*
X5050563Y-19067518D01*
X5060087Y-19029423D01*
X5069611Y-19010375D01*
X5079135Y-19000852D01*
X5098182Y-18991328D01*
X5250563Y-19191328D02*
X5250563Y-19057994D01*
X5250563Y-19077042D02*
X5260087Y-19067518D01*
X5279135Y-19057994D01*
X5307706Y-19057994D01*
X5326754Y-19067518D01*
X5336278Y-19086566D01*
X5336278Y-19191328D01*
X5336278Y-19086566D02*
X5345802Y-19067518D01*
X5364849Y-19057994D01*
X5393421Y-19057994D01*
X5412468Y-19067518D01*
X5421992Y-19086566D01*
X5421992Y-19191328D01*
X5517230Y-19191328D02*
X5517230Y-19057994D01*
X5517230Y-19077042D02*
X5526754Y-19067518D01*
X5545802Y-19057994D01*
X5574373Y-19057994D01*
X5593420Y-19067518D01*
X5602944Y-19086566D01*
X5602944Y-19191328D01*
X5602944Y-19086566D02*
X5612468Y-19067518D01*
X5631516Y-19057994D01*
X5660087Y-19057994D01*
X5679135Y-19067518D01*
X5688659Y-19086566D01*
X5688659Y-19191328D01*
X6079135Y-18981804D02*
X5907706Y-19238947D01*
X6336278Y-18991328D02*
X6355325Y-18991328D01*
X6374373Y-19000852D01*
X6383897Y-19010375D01*
X6393420Y-19029423D01*
X6402944Y-19067518D01*
X6402944Y-19115137D01*
X6393420Y-19153233D01*
X6383897Y-19172280D01*
X6374373Y-19181804D01*
X6355325Y-19191328D01*
X6336278Y-19191328D01*
X6317230Y-19181804D01*
X6307706Y-19172280D01*
X6298182Y-19153233D01*
X6288659Y-19115137D01*
X6288659Y-19067518D01*
X6298182Y-19029423D01*
X6307706Y-19010375D01*
X6317230Y-19000852D01*
X6336278Y-18991328D01*
X6488659Y-19172280D02*
X6498182Y-19181804D01*
X6488659Y-19191328D01*
X6479135Y-19181804D01*
X6488659Y-19172280D01*
X6488659Y-19191328D01*
X6688659Y-19191328D02*
X6574373Y-19191328D01*
X6631516Y-19191328D02*
X6631516Y-18991328D01*
X6612468Y-19019899D01*
X6593420Y-19038947D01*
X6574373Y-19048471D01*
X6860087Y-18991328D02*
X6821992Y-18991328D01*
X6802944Y-19000852D01*
X6793420Y-19010375D01*
X6774373Y-19038947D01*
X6764849Y-19077042D01*
X6764849Y-19153233D01*
X6774373Y-19172280D01*
X6783897Y-19181804D01*
X6802944Y-19191328D01*
X6841039Y-19191328D01*
X6860087Y-19181804D01*
X6869611Y-19172280D01*
X6879135Y-19153233D01*
X6879135Y-19105614D01*
X6869611Y-19086566D01*
X6860087Y-19077042D01*
X6841039Y-19067518D01*
X6802944Y-19067518D01*
X6783897Y-19077042D01*
X6774373Y-19086566D01*
X6764849Y-19105614D01*
X7069611Y-19191328D02*
X6955325Y-19191328D01*
X7012468Y-19191328D02*
X7012468Y-18991328D01*
X6993420Y-19019899D01*
X6974373Y-19038947D01*
X6955325Y-19048471D01*
X7241039Y-19057994D02*
X7241039Y-19191328D01*
X7193420Y-18981804D02*
X7145801Y-19124661D01*
X7269611Y-19124661D01*
X7336278Y-18991328D02*
X7336278Y-19029423D01*
X7412468Y-18991328D02*
X7412468Y-19029423D01*
X7707706Y-19267518D02*
X7698182Y-19257994D01*
X7679135Y-19229423D01*
X7669611Y-19210375D01*
X7660087Y-19181804D01*
X7650563Y-19134185D01*
X7650563Y-19096090D01*
X7660087Y-19048471D01*
X7669611Y-19019899D01*
X7679135Y-19000852D01*
X7698182Y-18972280D01*
X7707706Y-18962756D01*
X7879135Y-18991328D02*
X7783897Y-18991328D01*
X7774373Y-19086566D01*
X7783897Y-19077042D01*
X7802944Y-19067518D01*
X7850563Y-19067518D01*
X7869611Y-19077042D01*
X7879135Y-19086566D01*
X7888659Y-19105614D01*
X7888659Y-19153233D01*
X7879135Y-19172280D01*
X7869611Y-19181804D01*
X7850563Y-19191328D01*
X7802944Y-19191328D01*
X7783897Y-19181804D01*
X7774373Y-19172280D01*
X8060087Y-18991328D02*
X8021992Y-18991328D01*
X8002944Y-19000852D01*
X7993420Y-19010375D01*
X7974373Y-19038947D01*
X7964849Y-19077042D01*
X7964849Y-19153233D01*
X7974373Y-19172280D01*
X7983897Y-19181804D01*
X8002944Y-19191328D01*
X8041039Y-19191328D01*
X8060087Y-19181804D01*
X8069611Y-19172280D01*
X8079135Y-19153233D01*
X8079135Y-19105614D01*
X8069611Y-19086566D01*
X8060087Y-19077042D01*
X8041039Y-19067518D01*
X8002944Y-19067518D01*
X7983897Y-19077042D01*
X7974373Y-19086566D01*
X7964849Y-19105614D01*
X8317230Y-19191328D02*
X8317230Y-18991328D01*
X8402944Y-19191328D02*
X8402944Y-19086566D01*
X8393421Y-19067518D01*
X8374373Y-19057994D01*
X8345801Y-19057994D01*
X8326754Y-19067518D01*
X8317230Y-19077042D01*
X8526754Y-19191328D02*
X8507706Y-19181804D01*
X8498182Y-19172280D01*
X8488659Y-19153233D01*
X8488659Y-19096090D01*
X8498182Y-19077042D01*
X8507706Y-19067518D01*
X8526754Y-19057994D01*
X8555325Y-19057994D01*
X8574373Y-19067518D01*
X8583897Y-19077042D01*
X8593421Y-19096090D01*
X8593421Y-19153233D01*
X8583897Y-19172280D01*
X8574373Y-19181804D01*
X8555325Y-19191328D01*
X8526754Y-19191328D01*
X8707706Y-19191328D02*
X8688659Y-19181804D01*
X8679135Y-19162756D01*
X8679135Y-18991328D01*
X8860087Y-19181804D02*
X8841040Y-19191328D01*
X8802944Y-19191328D01*
X8783897Y-19181804D01*
X8774373Y-19162756D01*
X8774373Y-19086566D01*
X8783897Y-19067518D01*
X8802944Y-19057994D01*
X8841040Y-19057994D01*
X8860087Y-19067518D01*
X8869611Y-19086566D01*
X8869611Y-19105614D01*
X8774373Y-19124661D01*
X8945801Y-19181804D02*
X8964849Y-19191328D01*
X9002944Y-19191328D01*
X9021992Y-19181804D01*
X9031516Y-19162756D01*
X9031516Y-19153233D01*
X9021992Y-19134185D01*
X9002944Y-19124661D01*
X8974373Y-19124661D01*
X8955325Y-19115137D01*
X8945801Y-19096090D01*
X8945801Y-19086566D01*
X8955325Y-19067518D01*
X8974373Y-19057994D01*
X9002944Y-19057994D01*
X9021992Y-19067518D01*
X9098182Y-19267518D02*
X9107706Y-19257994D01*
X9126754Y-19229423D01*
X9136278Y-19210375D01*
X9145801Y-19181804D01*
X9155325Y-19134185D01*
X9155325Y-19096090D01*
X9145801Y-19048471D01*
X9136278Y-19019899D01*
X9126754Y-19000852D01*
X9107706Y-18972280D01*
X9098182Y-18962756D01*
X9460087Y-19267518D02*
X9450563Y-19257994D01*
X9431516Y-19229423D01*
X9421992Y-19210375D01*
X9412468Y-19181804D01*
X9402944Y-19134185D01*
X9402944Y-19096090D01*
X9412468Y-19048471D01*
X9421992Y-19019899D01*
X9431516Y-19000852D01*
X9450563Y-18972280D01*
X9460087Y-18962756D01*
X9536278Y-19057994D02*
X9536278Y-19191328D01*
X9536278Y-19077042D02*
X9545801Y-19067518D01*
X9564849Y-19057994D01*
X9593421Y-19057994D01*
X9612468Y-19067518D01*
X9621992Y-19086566D01*
X9621992Y-19191328D01*
X9745801Y-19191328D02*
X9726754Y-19181804D01*
X9717230Y-19172280D01*
X9707706Y-19153233D01*
X9707706Y-19096090D01*
X9717230Y-19077042D01*
X9726754Y-19067518D01*
X9745801Y-19057994D01*
X9774373Y-19057994D01*
X9793421Y-19067518D01*
X9802944Y-19077042D01*
X9812468Y-19096090D01*
X9812468Y-19153233D01*
X9802944Y-19172280D01*
X9793421Y-19181804D01*
X9774373Y-19191328D01*
X9745801Y-19191328D01*
X9869611Y-19057994D02*
X9945801Y-19057994D01*
X9898182Y-18991328D02*
X9898182Y-19162756D01*
X9907706Y-19181804D01*
X9926754Y-19191328D01*
X9945801Y-19191328D01*
X10164849Y-19057994D02*
X10164849Y-19257994D01*
X10164849Y-19067518D02*
X10183897Y-19057994D01*
X10221992Y-19057994D01*
X10241040Y-19067518D01*
X10250563Y-19077042D01*
X10260087Y-19096090D01*
X10260087Y-19153233D01*
X10250563Y-19172280D01*
X10241040Y-19181804D01*
X10221992Y-19191328D01*
X10183897Y-19191328D01*
X10164849Y-19181804D01*
X10374373Y-19191328D02*
X10355325Y-19181804D01*
X10345801Y-19162756D01*
X10345801Y-18991328D01*
X10536278Y-19191328D02*
X10536278Y-19086566D01*
X10526754Y-19067518D01*
X10507706Y-19057994D01*
X10469611Y-19057994D01*
X10450563Y-19067518D01*
X10536278Y-19181804D02*
X10517230Y-19191328D01*
X10469611Y-19191328D01*
X10450563Y-19181804D01*
X10441040Y-19162756D01*
X10441040Y-19143709D01*
X10450563Y-19124661D01*
X10469611Y-19115137D01*
X10517230Y-19115137D01*
X10536278Y-19105614D01*
X10602944Y-19057994D02*
X10679135Y-19057994D01*
X10631516Y-18991328D02*
X10631516Y-19162756D01*
X10641040Y-19181804D01*
X10660087Y-19191328D01*
X10679135Y-19191328D01*
X10821992Y-19181804D02*
X10802944Y-19191328D01*
X10764849Y-19191328D01*
X10745801Y-19181804D01*
X10736278Y-19162756D01*
X10736278Y-19086566D01*
X10745801Y-19067518D01*
X10764849Y-19057994D01*
X10802944Y-19057994D01*
X10821992Y-19067518D01*
X10831516Y-19086566D01*
X10831516Y-19105614D01*
X10736278Y-19124661D01*
X11002944Y-19191328D02*
X11002944Y-18991328D01*
X11002944Y-19181804D02*
X10983897Y-19191328D01*
X10945801Y-19191328D01*
X10926754Y-19181804D01*
X10917230Y-19172280D01*
X10907706Y-19153233D01*
X10907706Y-19096090D01*
X10917230Y-19077042D01*
X10926754Y-19067518D01*
X10945801Y-19057994D01*
X10983897Y-19057994D01*
X11002944Y-19067518D01*
X11079135Y-19267518D02*
X11088659Y-19257994D01*
X11107706Y-19229423D01*
X11117230Y-19210375D01*
X11126754Y-19181804D01*
X11136278Y-19134185D01*
X11136278Y-19096090D01*
X11126754Y-19048471D01*
X11117230Y-19019899D01*
X11107706Y-19000852D01*
X11088659Y-18972280D01*
X11079135Y-18962756D01*
M02*
