%TF.GenerationSoftware,KiCad,Pcbnew,(6.0.0-0)*%
%TF.CreationDate,2022-01-08T14:54:34+00:00*%
%TF.ProjectId,atreis,61747265-6973-42e6-9b69-6361645f7063,rev?*%
%TF.SameCoordinates,Original*%
%TF.FileFunction,Profile,NP*%
%FSLAX46Y46*%
G04 Gerber Fmt 4.6, Leading zero omitted, Abs format (unit mm)*
G04 Created by KiCad (PCBNEW (6.0.0-0)) date 2022-01-08 14:54:34*
%MOMM*%
%LPD*%
G01*
G04 APERTURE LIST*
%TA.AperFunction,Profile*%
%ADD10C,0.100000*%
%TD*%
G04 APERTURE END LIST*
D10*
X157470285Y-144928117D02*
G75*
G03*
X157470285Y-144928117I-1666666J0D01*
G01*
X153303619Y-144928117D02*
X158303619Y-144928117D01*
X155803619Y-142428117D02*
X155803619Y-147428117D01*
X263038014Y-134968518D02*
X262888015Y-135228517D01*
X170118017Y-51948516D02*
X174368014Y-52358518D01*
X174368014Y-52358518D02*
X178738015Y-52668519D01*
X144978019Y-45498517D02*
X149718018Y-47298519D01*
X132528016Y-165698519D02*
X130488016Y-164988517D01*
X112128015Y-157498518D02*
X110298015Y-156648518D01*
X265628016Y-150318517D02*
X265618015Y-150718517D01*
X101268016Y-151238516D02*
X101208016Y-150978516D01*
X118358015Y-160238516D02*
X116148015Y-159278516D01*
X115928016Y-36508517D02*
X119568016Y-37148518D01*
X252368015Y-158528517D02*
X250628016Y-159278517D01*
X221798015Y-45498517D02*
X226778016Y-43478516D01*
X102498016Y-133948518D02*
X102098016Y-133798519D01*
X183388017Y-175052517D02*
X182208016Y-175058516D01*
X44088015Y-119748515D02*
X43718016Y-119648517D01*
X63398018Y-34538515D02*
X70218016Y-34348517D01*
X75188016Y-34238518D02*
X79648017Y-34218515D01*
X235328015Y-40238518D02*
X240788018Y-38618518D01*
X125408015Y-163108518D02*
X123128016Y-162198517D01*
X43348015Y-119538518D02*
X42958018Y-119348517D01*
X221418015Y-169718518D02*
X218928016Y-170408517D01*
X61568016Y-35338518D02*
X61808018Y-35128518D01*
X264468013Y-152738515D02*
X264218016Y-152918516D01*
X323818015Y-119348516D02*
X323428017Y-119538518D01*
X166008017Y-173968519D02*
X163718016Y-173658517D01*
X177628016Y-175018515D02*
X172968017Y-174708517D01*
X211968021Y-144898515D02*
G75*
G03*
X211968021Y-144898515I-1000005J0D01*
G01*
X101688016Y-152088518D02*
X101538015Y-151858518D01*
X103888017Y-135228516D02*
X103738016Y-134968518D01*
X112138016Y-35938515D02*
X115928016Y-36508517D01*
X120688018Y-161228519D02*
X118358015Y-160238516D01*
X101148017Y-150318517D02*
X101168016Y-150028516D01*
X322268014Y-116108518D02*
G75*
G03*
X322268014Y-116108518I-1000000J0D01*
G01*
X60728016Y-36678518D02*
X60808017Y-36478518D01*
X65218014Y-38038516D02*
G75*
G03*
X65218014Y-38038516I-999999J0D01*
G01*
X123128016Y-162198517D02*
X120688018Y-161228519D01*
X262658016Y-135708517D02*
X262568016Y-136038517D01*
X265088016Y-152088516D02*
X264898017Y-152328518D01*
X152748018Y-171588515D02*
X150458015Y-171048518D01*
X139998015Y-43478516D02*
X144978019Y-45498517D01*
X102098016Y-133798519D02*
X44088015Y-119748515D01*
X107328016Y-155248517D02*
X103138014Y-153228518D01*
X200768019Y-173968516D02*
X196788015Y-174468519D01*
X102868017Y-153088518D02*
X102558017Y-152918518D01*
X212118016Y-48908515D02*
X217058014Y-47298518D01*
X62058015Y-34958519D02*
X62378016Y-34788519D01*
X103548015Y-134738515D02*
X103318015Y-134488515D01*
X287128015Y-34218515D02*
X291588017Y-34238517D01*
X264898017Y-152328518D02*
X264718017Y-152538517D01*
X103318015Y-134488515D02*
X103088014Y-134308515D01*
X304718015Y-34958519D02*
X304968016Y-35128517D01*
X161218016Y-173268517D02*
X157268017Y-172528516D01*
X102308016Y-152738518D02*
X102058016Y-152538517D01*
X131448016Y-40238514D02*
X136618015Y-42118517D01*
X140958016Y-168458518D02*
X138258015Y-167628518D01*
X42278015Y-118828518D02*
X42038014Y-118578518D01*
X304968016Y-35128517D02*
X305208015Y-35338517D01*
X188038015Y-52668517D02*
X192408016Y-52358518D01*
X104218015Y-137318517D02*
X104268015Y-136998518D01*
X247328016Y-41148517D02*
G75*
G03*
X247328016Y-41148517I-1000000J0D01*
G01*
X325308015Y-116178518D02*
X325368016Y-116568516D01*
X263908019Y-153088516D02*
X263638018Y-153228517D01*
X101168016Y-150028516D02*
X101218017Y-149738518D01*
X163718016Y-173658517D02*
X161218016Y-173268517D01*
X192408016Y-52358518D02*
X196658015Y-51948517D01*
X262768017Y-135428517D02*
X262658016Y-135708517D01*
X138258015Y-167628518D02*
X136308016Y-167008518D01*
X203548017Y-50918518D02*
X206538015Y-50318518D01*
X263688015Y-134308517D02*
X263458017Y-134488517D01*
X150458015Y-171048518D02*
X147848015Y-170408519D01*
X60948014Y-36138517D02*
X61118016Y-35858518D01*
X325368016Y-116568516D02*
X325358015Y-116898518D01*
X163228017Y-50918518D02*
X167338015Y-51578516D01*
X209508015Y-172528515D02*
X205558016Y-173268516D01*
X246088015Y-161228515D02*
X243648018Y-162198516D01*
X193808019Y-174708516D02*
X189148017Y-175018516D01*
X305658015Y-35858517D02*
X305828016Y-36138517D01*
X250628016Y-159278517D02*
X248418016Y-160238517D01*
X61338015Y-35568517D02*
X61568016Y-35338518D01*
X305438018Y-35568517D02*
X305658015Y-35858517D01*
X103378018Y-34998518D02*
X107848018Y-35408515D01*
X41468015Y-116178517D02*
X41568015Y-115778517D01*
X143118016Y-169098515D02*
X140958016Y-168458518D01*
X304068015Y-34668517D02*
X304398016Y-34788517D01*
X178738015Y-52668519D02*
X183388015Y-52868517D01*
X41538018Y-117598517D02*
X41468017Y-117278520D01*
X262618015Y-137608516D02*
X265558018Y-149738516D01*
X303558013Y-38038519D02*
G75*
G03*
X303558013Y-38038519I-999996J0D01*
G01*
X79648017Y-34218515D02*
X86018019Y-34228515D01*
X226778016Y-43478516D02*
X230158014Y-42118515D01*
X70218016Y-34348517D02*
X75188016Y-34238518D01*
X325108017Y-117948517D02*
X324948015Y-118268517D01*
X236288017Y-164988517D02*
X234248015Y-165698516D01*
X265558018Y-149738516D02*
X265608020Y-150028516D01*
X303378015Y-34538519D02*
X303758014Y-34588515D01*
X230158014Y-42118515D02*
X235328015Y-40238518D01*
X228518017Y-167628518D02*
X225818015Y-168458515D01*
X62378016Y-34788519D02*
X62708015Y-34668518D01*
X268408014Y-34658518D02*
X274308014Y-34368516D01*
X262788016Y-149938516D02*
G75*
G03*
X262788016Y-149938516I-1000001J0D01*
G01*
X41408015Y-116568515D02*
X41468015Y-116178517D01*
X202228020Y-167508516D02*
G75*
G03*
X202228020Y-167508516I-1000004J0D01*
G01*
X103088014Y-134308515D02*
X102808015Y-134118517D01*
X322688017Y-119748517D02*
X264678017Y-133798520D01*
X225818015Y-168458515D02*
X223658017Y-169098515D01*
X61808018Y-35128518D02*
X62058015Y-34958519D01*
X243648018Y-162198516D02*
X241368015Y-163108516D01*
X166548016Y-167508518D02*
G75*
G03*
X166548016Y-167508518I-999997J0D01*
G01*
X154658017Y-48908515D02*
X160238015Y-50318515D01*
X101388017Y-151548517D02*
X101268016Y-151238516D01*
X206838014Y-56198517D02*
G75*
G03*
X206838014Y-56198517I-999999J0D01*
G01*
X305828016Y-36138517D02*
X305968017Y-36478515D01*
X136618015Y-42118517D02*
X139998015Y-43478516D01*
X41568015Y-115778517D02*
X60628017Y-37058518D01*
X324498017Y-118828519D02*
X324168018Y-119128518D01*
X103738016Y-134968518D02*
X103548015Y-134738515D01*
X103138014Y-153228518D02*
X102868017Y-153088518D01*
X217058014Y-47298518D02*
X221798015Y-45498517D01*
X102808015Y-134118517D02*
X102498016Y-133948518D01*
X157268017Y-172528516D02*
X155408017Y-172158517D01*
X104268015Y-136998518D02*
X104278017Y-136708519D01*
X254648020Y-157498517D02*
X252368015Y-158528517D01*
X258928015Y-35408517D02*
X263398015Y-34998518D01*
X101158015Y-150718519D02*
X101148017Y-150318517D01*
X121448014Y-41148520D02*
G75*
G03*
X121448014Y-41148520I-999996J0D01*
G01*
X102058016Y-152538517D02*
X101878019Y-152328515D01*
X324168018Y-119128518D02*
X323818015Y-119348516D01*
X263968015Y-134118517D02*
X263688015Y-134308517D01*
X265508015Y-151238516D02*
X265388015Y-151548515D01*
X60628017Y-37058518D02*
X60728016Y-36678518D01*
X196788015Y-174468519D02*
X193808019Y-174708516D01*
X116148015Y-159278516D02*
X114408017Y-158528518D01*
X262518019Y-136348517D02*
X262498014Y-136708518D01*
X125988016Y-38618516D02*
X131448016Y-40238514D01*
X265608020Y-150028516D02*
X265628016Y-150318517D01*
X263638018Y-153228517D02*
X259448015Y-155248518D01*
X110298015Y-156648518D02*
X107328016Y-155248517D01*
X325308015Y-117278515D02*
X325238015Y-117598517D01*
X305208015Y-35338517D02*
X305438018Y-35568517D01*
X104118017Y-135708517D02*
X104008016Y-135428517D01*
X136308016Y-167008518D02*
X134808017Y-166488518D01*
X262508016Y-136998517D02*
X262558015Y-137318517D01*
X102558017Y-152918518D02*
X102308016Y-152738518D01*
X147848015Y-170408519D02*
X145358015Y-169718517D01*
X325208015Y-115778516D02*
X325308015Y-116178518D01*
X184568015Y-175058515D02*
X183388017Y-175052517D01*
X104008016Y-135428517D02*
X103888017Y-135228516D01*
X203058017Y-173658517D02*
X200768019Y-173968516D01*
X262568016Y-136038517D02*
X262518019Y-136348517D01*
X241368015Y-163108516D02*
X238898016Y-164038518D01*
X41468017Y-117278520D02*
X41418015Y-116898517D01*
X86018019Y-34228515D02*
X92468015Y-34368517D01*
X265618015Y-150718517D02*
X265568018Y-150978515D01*
X104278017Y-136708519D02*
X104258016Y-136348517D01*
X238898016Y-164038518D02*
X236288017Y-164988517D01*
X98368015Y-34658518D02*
X103378018Y-34998518D01*
X172968017Y-174708517D02*
X169988016Y-174468519D01*
X324948015Y-118268517D02*
X324738016Y-118578518D01*
X234248015Y-165698516D02*
X231968016Y-166488517D01*
X114408017Y-158528518D02*
X112128015Y-157498518D01*
X218928016Y-170408517D02*
X216318016Y-171048517D01*
X263458017Y-134488517D02*
X263228017Y-134738517D01*
X101218017Y-149738518D02*
X104158017Y-137608518D01*
X264718017Y-152538517D02*
X264468013Y-152738515D01*
X42038014Y-118578518D02*
X41828017Y-118268519D01*
X101538015Y-151858518D02*
X101388017Y-151548517D01*
X206538015Y-50318518D02*
X212118016Y-48908515D01*
X60808017Y-36478518D02*
X60948014Y-36138517D01*
X216318016Y-171048517D02*
X214028015Y-171588517D01*
X107848018Y-35408515D02*
X112138016Y-35938515D01*
X167338015Y-51578516D02*
X170118017Y-51948516D01*
X127878015Y-164038518D02*
X125408015Y-163108518D01*
X250848016Y-36508515D02*
X254638016Y-35938518D01*
X61118016Y-35858518D02*
X61338015Y-35568517D01*
X264678017Y-133798520D02*
X264278016Y-133948519D01*
X119568016Y-37148518D02*
X125988016Y-38618516D01*
X205558016Y-173268516D02*
X203058017Y-173658517D01*
X262888015Y-135228517D02*
X262768017Y-135428517D01*
X306048016Y-36678518D02*
X306148016Y-37058517D01*
X291588017Y-34238517D02*
X296558015Y-34348518D01*
X41828017Y-118268519D02*
X41668020Y-117948516D01*
X263228017Y-134738517D02*
X263038014Y-134968518D01*
X42608016Y-119128519D02*
X42278015Y-118828518D01*
X134808017Y-166488518D02*
X132528016Y-165698519D01*
X92468015Y-34368517D02*
X98368015Y-34658518D01*
X259448015Y-155248518D02*
X256478016Y-156648517D01*
X274308014Y-34368516D02*
X280758015Y-34228517D01*
X42958018Y-119348517D02*
X42608016Y-119128519D01*
X280758015Y-34228517D02*
X287128015Y-34218515D01*
X265388015Y-151548515D02*
X265238018Y-151858517D01*
X305968017Y-36478515D02*
X306048016Y-36678518D01*
X262498014Y-136708518D02*
X262508016Y-136998517D01*
X41668020Y-117948516D02*
X41538018Y-117598517D01*
X296558015Y-34348518D02*
X303378015Y-34538519D01*
X247208016Y-37148518D02*
X250848016Y-36508515D01*
X41418015Y-116898517D02*
X41408015Y-116568515D01*
X324738016Y-118578518D02*
X324498017Y-118828519D01*
X145358015Y-169718517D02*
X143118016Y-169098515D01*
X189148017Y-175018516D02*
X184568015Y-175058515D01*
X43718016Y-119648517D02*
X43348015Y-119538518D01*
X240788018Y-38618518D02*
X247208016Y-37148518D01*
X323058015Y-119648517D02*
X322688017Y-119748517D01*
X214028015Y-171588517D02*
X211368016Y-172158516D01*
X325238015Y-117598517D02*
X325108017Y-117948517D01*
X105988017Y-149928517D02*
G75*
G03*
X105988017Y-149928517I-1000001J0D01*
G01*
X265568018Y-150978515D02*
X265508015Y-151238516D01*
X161938018Y-56198517D02*
G75*
G03*
X161938018Y-56198517I-1000003J0D01*
G01*
X155408017Y-172158517D02*
X152748018Y-171588515D01*
X183388015Y-52868517D02*
X188038015Y-52668517D01*
X104208018Y-136038518D02*
X104118017Y-135708517D01*
X256478016Y-156648517D02*
X254648020Y-157498517D01*
X263398015Y-34998518D02*
X268408014Y-34658518D01*
X104158017Y-137608518D02*
X104218015Y-137318517D01*
X304398016Y-34788517D02*
X304718015Y-34958519D01*
X196658015Y-51948517D02*
X199438016Y-51578515D01*
X46508016Y-116108516D02*
G75*
G03*
X46508016Y-116108516I-1000000J0D01*
G01*
X306148016Y-37058517D02*
X325208015Y-115778516D01*
X199438016Y-51578515D02*
X203548017Y-50918518D01*
X248418016Y-160238517D02*
X246088015Y-161228515D01*
X230468013Y-167008518D02*
X228518017Y-167628518D01*
X182208016Y-175058516D02*
X177628016Y-175018515D01*
X254638016Y-35938518D02*
X258928015Y-35408517D01*
X323428017Y-119538518D02*
X323058015Y-119648517D01*
X169988016Y-174468519D02*
X166008017Y-173968519D01*
X101878019Y-152328515D02*
X101688016Y-152088518D01*
X104258016Y-136348517D02*
X104208018Y-136038518D01*
X211368016Y-172158516D02*
X209508015Y-172528515D01*
X160238015Y-50318515D02*
X163228017Y-50918518D01*
X156808017Y-144908516D02*
G75*
G03*
X156808017Y-144908516I-1000001J0D01*
G01*
X303758014Y-34588515D02*
X304068015Y-34668517D01*
X101208016Y-150978516D02*
X101158015Y-150718519D01*
X231968016Y-166488517D02*
X230468013Y-167008518D01*
X130488016Y-164988517D02*
X127878015Y-164038518D01*
X264218016Y-152918516D02*
X263908019Y-153088516D01*
X264278016Y-133948519D02*
X263968015Y-134118517D01*
X63018017Y-34588518D02*
X63398018Y-34538515D01*
X265238018Y-151858517D02*
X265088016Y-152088516D01*
X262558015Y-137318517D02*
X262618015Y-137608516D01*
X223658017Y-169098515D02*
X221418015Y-169718518D01*
X62708015Y-34668518D02*
X63018017Y-34588518D01*
X149718018Y-47298519D02*
X154658017Y-48908515D01*
X325358015Y-116898518D02*
X325308015Y-117278515D01*
X185054681Y-52868517D02*
G75*
G03*
X185054681Y-52868517I-1666666J0D01*
G01*
X180888015Y-52868517D02*
X185888015Y-52868517D01*
X183388015Y-50368517D02*
X183388015Y-55368517D01*
M02*
