%TF.GenerationSoftware,KiCad,Pcbnew,(6.0.0-0)*%
%TF.CreationDate,2022-01-06T19:14:06+00:00*%
%TF.ProjectId,atreis,61747265-6973-42e6-9b69-6361645f7063,rev?*%
%TF.SameCoordinates,Original*%
%TF.FileFunction,Copper,L1,Top*%
%TF.FilePolarity,Positive*%
%FSLAX46Y46*%
G04 Gerber Fmt 4.6, Leading zero omitted, Abs format (unit mm)*
G04 Created by KiCad (PCBNEW (6.0.0-0)) date 2022-01-06 19:14:06*
%MOMM*%
%LPD*%
G01*
G04 APERTURE LIST*
G04 Aperture macros list*
%AMRotRect*
0 Rectangle, with rotation*
0 The origin of the aperture is its center*
0 $1 length*
0 $2 width*
0 $3 Rotation angle, in degrees counterclockwise*
0 Add horizontal line*
21,1,$1,$2,0,0,$3*%
G04 Aperture macros list end*
%TA.AperFunction,ComponentPad*%
%ADD10C,2.000000*%
%TD*%
%TA.AperFunction,ComponentPad*%
%ADD11R,1.752600X1.752600*%
%TD*%
%TA.AperFunction,ComponentPad*%
%ADD12C,1.752600*%
%TD*%
%TA.AperFunction,ComponentPad*%
%ADD13RotRect,1.400000X1.400000X166.330000*%
%TD*%
%TA.AperFunction,SMDPad,CuDef*%
%ADD14RotRect,1.600000X1.200000X166.330000*%
%TD*%
%TA.AperFunction,ComponentPad*%
%ADD15C,1.400000*%
%TD*%
%TA.AperFunction,ComponentPad*%
%ADD16RotRect,1.400000X1.400000X193.670000*%
%TD*%
%TA.AperFunction,SMDPad,CuDef*%
%ADD17RotRect,1.600000X1.200000X193.670000*%
%TD*%
%TA.AperFunction,ViaPad*%
%ADD18C,0.800000*%
%TD*%
%TA.AperFunction,Conductor*%
%ADD19C,0.250000*%
%TD*%
G04 APERTURE END LIST*
D10*
%TO.P,SW1,1,1*%
%TO.N,Net-(SW1-Pad1)*%
X201599792Y-53000442D03*
%TO.P,SW1,2,2*%
%TO.N,GND*%
X195148242Y-53792592D03*
%TD*%
D11*
%TO.P,U1,1,TX0/PD3*%
%TO.N,COL0*%
X175768016Y-91959267D03*
D12*
%TO.P,U1,2,RX1/PD2*%
%TO.N,COL1*%
X175768016Y-94499267D03*
%TO.P,U1,3,GND*%
%TO.N,GND*%
X175768016Y-97039267D03*
%TO.P,U1,4,GND*%
X175768016Y-99579267D03*
%TO.P,U1,5,2/PD1*%
%TO.N,unconnected-(U1-Pad5)*%
X175768016Y-102119267D03*
%TO.P,U1,6,3/PD0*%
%TO.N,unconnected-(U1-Pad6)*%
X175768016Y-104659267D03*
%TO.P,U1,7,4/PD4*%
%TO.N,COL2*%
X175768016Y-107199267D03*
%TO.P,U1,8,5/PC6*%
%TO.N,ROW0*%
X175768016Y-109739267D03*
%TO.P,U1,9,6/PD7*%
%TO.N,ROW1*%
X175768016Y-112279267D03*
%TO.P,U1,10,7/PE6*%
%TO.N,ROW2*%
X175768016Y-114819267D03*
%TO.P,U1,11,8/PB4*%
%TO.N,ROW3*%
X175768016Y-117359267D03*
%TO.P,U1,12,9/PB5*%
%TO.N,ROW4*%
X175996616Y-119899267D03*
%TO.P,U1,13,10/PB6*%
%TO.N,ROW9*%
X191008016Y-119899267D03*
%TO.P,U1,14,16/PB2*%
%TO.N,ROW8*%
X191008016Y-117359267D03*
%TO.P,U1,15,14/PB3*%
%TO.N,ROW7*%
X191008016Y-114819267D03*
%TO.P,U1,16,15/PB1*%
%TO.N,ROW6*%
X191008016Y-112279267D03*
%TO.P,U1,17,A0/PF7*%
%TO.N,ROW5*%
X191008016Y-109739267D03*
%TO.P,U1,18,A1/PF6*%
%TO.N,COL5*%
X191008016Y-107199267D03*
%TO.P,U1,19,A2/PF5*%
%TO.N,COL4*%
X191008016Y-104659267D03*
%TO.P,U1,20,A3/PF4*%
%TO.N,COL3*%
X191008016Y-102119267D03*
%TO.P,U1,21,VCC*%
%TO.N,unconnected-(U1-Pad21)*%
X191008016Y-99579267D03*
%TO.P,U1,22,RST*%
%TO.N,Net-(SW1-Pad1)*%
X191008016Y-97039267D03*
%TO.P,U1,23,GND*%
%TO.N,GND*%
X191008016Y-94499267D03*
%TO.P,U1,24,B0*%
%TO.N,unconnected-(U1-Pad24)*%
X191008016Y-91959267D03*
%TO.P,U1,25,B7*%
%TO.N,unconnected-(U1-Pad25)*%
X178308016Y-119899267D03*
%TO.P,U1,26,D5*%
%TO.N,unconnected-(U1-Pad26)*%
X180848016Y-119899267D03*
%TO.P,U1,27,C7*%
%TO.N,unconnected-(U1-Pad27)*%
X183388016Y-119899267D03*
%TO.P,U1,28,F1*%
%TO.N,unconnected-(U1-Pad28)*%
X185928016Y-119899267D03*
%TO.P,U1,29,F0*%
%TO.N,unconnected-(U1-Pad29)*%
X188468016Y-119899267D03*
%TD*%
D13*
%TO.P,D28,1,K*%
%TO.N,ROW4*%
X160828723Y-143135034D03*
D14*
%TO.P,D28,2,A*%
%TO.N,Net-(D28-Pad2)*%
X157233533Y-142260615D03*
D15*
X154658599Y-141634342D03*
%TD*%
D13*
%TO.P,D11,1,K*%
%TO.N,ROW1*%
X151535396Y-77091944D03*
D15*
%TO.P,D11,2,A*%
%TO.N,Net-(D11-Pad2)*%
X145365272Y-75591252D03*
D14*
X147940206Y-76217525D03*
%TD*%
D16*
%TO.P,D54,1,K*%
%TO.N,ROW9*%
X216766558Y-146777295D03*
D17*
%TO.P,D54,2,A*%
%TO.N,Net-(D54-Pad2)*%
X213171368Y-147651714D03*
D15*
X210596434Y-148277987D03*
%TD*%
D16*
%TO.P,D40,1,K*%
%TO.N,ROW6*%
X302022476Y-60951631D03*
D15*
%TO.P,D40,2,A*%
%TO.N,Net-(D40-Pad2)*%
X295852352Y-62452323D03*
D17*
X298427286Y-61826050D03*
%TD*%
D13*
%TO.P,D24,1,K*%
%TO.N,ROW3*%
X160377966Y-120805993D03*
D15*
%TO.P,D24,2,A*%
%TO.N,Net-(D24-Pad2)*%
X154207842Y-119305301D03*
D14*
X156782776Y-119931574D03*
%TD*%
D16*
%TO.P,D29,1,K*%
%TO.N,ROW5*%
X208270069Y-78525906D03*
D17*
%TO.P,D29,2,A*%
%TO.N,Net-(D29-Pad2)*%
X204674879Y-79400325D03*
D15*
X202099945Y-80026598D03*
%TD*%
D13*
%TO.P,D8,1,K*%
%TO.N,ROW1*%
X94863758Y-68275012D03*
D14*
%TO.P,D8,2,A*%
%TO.N,Net-(D8-Pad2)*%
X91268568Y-67400593D03*
D15*
X88693634Y-66774320D03*
%TD*%
D16*
%TO.P,D37,1,K*%
%TO.N,ROW6*%
X244810588Y-67547318D03*
D17*
%TO.P,D37,2,A*%
%TO.N,Net-(D37-Pad2)*%
X241215398Y-68421737D03*
D15*
X238640464Y-69048010D03*
%TD*%
D16*
%TO.P,D43,1,K*%
%TO.N,ROW7*%
X252967657Y-102160036D03*
D17*
%TO.P,D43,2,A*%
%TO.N,Net-(D43-Pad2)*%
X249372467Y-103034455D03*
D15*
X246797533Y-103660728D03*
%TD*%
D16*
%TO.P,D49,1,K*%
%TO.N,ROW8*%
X253567934Y-104628087D03*
D17*
%TO.P,D49,2,A*%
%TO.N,Net-(D49-Pad2)*%
X249972744Y-105502506D03*
D15*
X247397810Y-106128779D03*
%TD*%
D13*
%TO.P,D12,1,K*%
%TO.N,ROW1*%
X169505518Y-83815262D03*
D14*
%TO.P,D12,2,A*%
%TO.N,Net-(D12-Pad2)*%
X165910328Y-82940843D03*
D15*
X163335394Y-82314570D03*
%TD*%
D16*
%TO.P,D47,1,K*%
%TO.N,ROW8*%
X217874495Y-118014699D03*
D17*
%TO.P,D47,2,A*%
%TO.N,Net-(D47-Pad2)*%
X214279305Y-118889118D03*
D15*
X211704371Y-119515391D03*
%TD*%
D13*
%TO.P,D23,1,K*%
%TO.N,ROW2*%
X160978242Y-118337944D03*
D15*
%TO.P,D23,2,A*%
%TO.N,Net-(D18-Pad2)*%
X154808118Y-116837252D03*
D14*
X157383052Y-117463525D03*
%TD*%
D16*
%TO.P,D39,1,K*%
%TO.N,ROW6*%
X283512104Y-65453706D03*
D15*
%TO.P,D39,2,A*%
%TO.N,Net-(D39-Pad2)*%
X277341980Y-66954398D03*
D17*
X279916914Y-66328125D03*
%TD*%
D16*
%TO.P,D55,1,K*%
%TO.N,ROW9*%
X232048604Y-136525290D03*
D17*
%TO.P,D55,2,A*%
%TO.N,Net-(D55-Pad2)*%
X228453414Y-137399709D03*
D15*
X225878480Y-138025982D03*
%TD*%
D16*
%TO.P,D50,1,K*%
%TO.N,ROW8*%
X272805331Y-102040420D03*
D17*
%TO.P,D50,2,A*%
%TO.N,Net-(D50-Pad2)*%
X269210141Y-102914839D03*
D15*
X266635207Y-103541112D03*
%TD*%
D13*
%TO.P,D16,1,K*%
%TO.N,ROW3*%
X85612803Y-105235728D03*
D15*
%TO.P,D16,2,A*%
%TO.N,Net-(D20-Pad2)*%
X79442679Y-103735036D03*
D14*
X82017613Y-104361309D03*
%TD*%
D16*
%TO.P,D30,1,K*%
%TO.N,ROW5*%
X226240189Y-71802587D03*
D17*
%TO.P,D30,2,A*%
%TO.N,Net-(D30-Pad2)*%
X222644999Y-72677006D03*
D15*
X220070065Y-73303279D03*
%TD*%
D16*
%TO.P,D31,1,K*%
%TO.N,ROW5*%
X244210313Y-65079266D03*
D17*
%TO.P,D31,2,A*%
%TO.N,Net-(D31-Pad2)*%
X240615123Y-65953685D03*
D15*
X238040189Y-66579958D03*
%TD*%
D13*
%TO.P,D27,1,K*%
%TO.N,ROW4*%
X155992821Y-147971162D03*
D15*
%TO.P,D27,2,A*%
%TO.N,Net-(D27-Pad2)*%
X149822697Y-146470470D03*
D14*
X152397631Y-147096743D03*
%TD*%
D13*
%TO.P,D26,1,K*%
%TO.N,ROW4*%
X146080456Y-139286571D03*
D14*
%TO.P,D26,2,A*%
%TO.N,Net-(D26-Pad2)*%
X142485266Y-138412152D03*
D15*
X139910332Y-137785879D03*
%TD*%
D16*
%TO.P,D44,1,K*%
%TO.N,ROW7*%
X272265082Y-99819179D03*
D17*
%TO.P,D44,2,A*%
%TO.N,Net-(D44-Pad2)*%
X268669892Y-100693598D03*
D15*
X266094958Y-101319871D03*
%TD*%
D16*
%TO.P,D41,1,K*%
%TO.N,ROW7*%
X217274218Y-115546648D03*
D17*
%TO.P,D41,2,A*%
%TO.N,Net-(D41-Pad2)*%
X213679028Y-116421067D03*
D15*
X211104094Y-117047340D03*
%TD*%
D13*
%TO.P,D25,1,K*%
%TO.N,ROW4*%
X128110334Y-132563251D03*
D14*
%TO.P,D25,2,A*%
%TO.N,Net-(D25-Pad2)*%
X124515144Y-131688832D03*
D15*
X121940210Y-131062559D03*
%TD*%
D16*
%TO.P,D42,1,K*%
%TO.N,ROW7*%
X235244342Y-108823330D03*
D15*
%TO.P,D42,2,A*%
%TO.N,Net-(D42-Pad2)*%
X229074218Y-110324022D03*
D17*
X231649152Y-109697749D03*
%TD*%
D16*
%TO.P,D33,1,K*%
%TO.N,ROW5*%
X282911828Y-62985654D03*
D15*
%TO.P,D33,2,A*%
%TO.N,Net-(D33-Pad2)*%
X276741704Y-64486346D03*
D17*
X279316638Y-63860073D03*
%TD*%
D13*
%TO.P,D10,1,K*%
%TO.N,ROW1*%
X133441873Y-70338610D03*
D14*
%TO.P,D10,2,A*%
%TO.N,Net-(D10-Pad2)*%
X129846683Y-69464191D03*
D15*
X127271749Y-68837918D03*
%TD*%
D16*
%TO.P,D56,1,K*%
%TO.N,ROW9*%
X250018724Y-129801967D03*
D17*
%TO.P,D56,2,A*%
%TO.N,Net-(D56-Pad2)*%
X246423534Y-130676386D03*
D15*
X243848600Y-131302659D03*
%TD*%
D16*
%TO.P,D38,1,K*%
%TO.N,ROW6*%
X263861209Y-65266487D03*
D15*
%TO.P,D38,2,A*%
%TO.N,Net-(D38-Pad2)*%
X257691085Y-66767179D03*
D17*
X260266019Y-66140906D03*
%TD*%
D13*
%TO.P,D6,1,K*%
%TO.N,ROW0*%
X170105795Y-81347217D03*
D15*
%TO.P,D6,2,A*%
%TO.N,Net-(D6-Pad2)*%
X163935671Y-79846525D03*
D14*
X166510605Y-80472798D03*
%TD*%
D13*
%TO.P,D17,1,K*%
%TO.N,ROW2*%
X105863975Y-102580460D03*
D14*
%TO.P,D17,2,A*%
%TO.N,Net-(D15-Pad2)*%
X102268785Y-101706041D03*
D15*
X99693851Y-101079768D03*
%TD*%
D16*
%TO.P,D48,1,K*%
%TO.N,ROW8*%
X235844616Y-111291377D03*
D15*
%TO.P,D48,2,A*%
%TO.N,Net-(D48-Pad2)*%
X229674492Y-112792069D03*
D17*
X232249426Y-112165796D03*
%TD*%
D13*
%TO.P,D2,1,K*%
%TO.N,ROW0*%
X95464036Y-65806965D03*
D15*
%TO.P,D2,2,A*%
%TO.N,Net-(D2-Pad2)*%
X89293912Y-64306273D03*
D14*
X91868846Y-64932546D03*
%TD*%
D16*
%TO.P,D51,1,K*%
%TO.N,ROW8*%
X292516254Y-102474447D03*
D15*
%TO.P,D51,2,A*%
%TO.N,Net-(D51-Pad2)*%
X286346130Y-103975139D03*
D17*
X288921064Y-103348866D03*
%TD*%
D13*
%TO.P,D22,1,K*%
%TO.N,ROW3*%
X142284442Y-114052660D03*
D15*
%TO.P,D22,2,A*%
%TO.N,Net-(D23-Pad2)*%
X136114318Y-112551968D03*
D14*
X138689252Y-113178241D03*
%TD*%
D13*
%TO.P,D9,1,K*%
%TO.N,ROW1*%
X114514656Y-68087794D03*
D15*
%TO.P,D9,2,A*%
%TO.N,Net-(D9-Pad2)*%
X108344532Y-66587102D03*
D14*
X110919466Y-67213375D03*
%TD*%
D16*
%TO.P,D36,1,K*%
%TO.N,ROW6*%
X226840467Y-74270638D03*
D17*
%TO.P,D36,2,A*%
%TO.N,Net-(D36-Pad2)*%
X223245277Y-75145057D03*
D15*
X220670343Y-75771330D03*
%TD*%
D16*
%TO.P,D46,1,K*%
%TO.N,ROW7*%
X310426351Y-95504322D03*
D17*
%TO.P,D46,2,A*%
%TO.N,Net-(D46-Pad2)*%
X306831161Y-96378741D03*
D15*
X304256227Y-97005014D03*
%TD*%
D13*
%TO.P,D1,1,K*%
%TO.N,ROW0*%
X76953665Y-61304892D03*
D14*
%TO.P,D1,2,A*%
%TO.N,Net-(D1-Pad2)*%
X73358475Y-60430473D03*
D15*
X70783541Y-59804200D03*
%TD*%
D16*
%TO.P,D34,1,K*%
%TO.N,ROW5*%
X301422198Y-58483581D03*
D17*
%TO.P,D34,2,A*%
%TO.N,Net-(D34-Pad2)*%
X297827008Y-59358000D03*
D15*
X295252074Y-59984273D03*
%TD*%
D13*
%TO.P,D21,1,K*%
%TO.N,ROW2*%
X142884718Y-111584610D03*
D15*
%TO.P,D21,2,A*%
%TO.N,Net-(D17-Pad2)*%
X136714594Y-110083918D03*
D14*
X139289528Y-110710191D03*
%TD*%
D13*
%TO.P,D20,1,K*%
%TO.N,ROW3*%
X124314318Y-107329339D03*
D15*
%TO.P,D20,2,A*%
%TO.N,Net-(D22-Pad2)*%
X118144194Y-105828647D03*
D14*
X120719128Y-106454920D03*
%TD*%
D16*
%TO.P,D45,1,K*%
%TO.N,ROW7*%
X291915979Y-100006398D03*
D17*
%TO.P,D45,2,A*%
%TO.N,Net-(D45-Pad2)*%
X288320789Y-100880817D03*
D15*
X285745855Y-101507090D03*
%TD*%
D13*
%TO.P,D3,1,K*%
%TO.N,ROW0*%
X115114933Y-65619746D03*
D15*
%TO.P,D3,2,A*%
%TO.N,Net-(D3-Pad2)*%
X108944809Y-64119054D03*
D14*
X111519743Y-64745327D03*
%TD*%
D13*
%TO.P,D14,1,K*%
%TO.N,ROW3*%
X67102432Y-100733650D03*
D14*
%TO.P,D14,2,A*%
%TO.N,Net-(D19-Pad2)*%
X63507242Y-99859231D03*
D15*
X60932308Y-99232958D03*
%TD*%
D16*
%TO.P,D32,1,K*%
%TO.N,ROW5*%
X263260931Y-62798438D03*
D15*
%TO.P,D32,2,A*%
%TO.N,Net-(D32-Pad2)*%
X257090807Y-64299130D03*
D17*
X259665741Y-63672857D03*
%TD*%
D16*
%TO.P,D52,1,K*%
%TO.N,ROW8*%
X311026624Y-97972372D03*
D17*
%TO.P,D52,2,A*%
%TO.N,Net-(D52-Pad2)*%
X307431434Y-98846791D03*
D15*
X304856500Y-99473064D03*
%TD*%
D13*
%TO.P,D19,1,K*%
%TO.N,ROW2*%
X124914597Y-104861291D03*
D14*
%TO.P,D19,2,A*%
%TO.N,Net-(D16-Pad2)*%
X121319407Y-103986872D03*
D15*
X118744473Y-103360599D03*
%TD*%
D13*
%TO.P,D13,1,K*%
%TO.N,ROW2*%
X67702710Y-98265603D03*
D15*
%TO.P,D13,2,A*%
%TO.N,Net-(D13-Pad2)*%
X61532586Y-96764911D03*
D14*
X64107520Y-97391184D03*
%TD*%
D16*
%TO.P,D53,1,K*%
%TO.N,ROW9*%
X212304209Y-141327504D03*
D17*
%TO.P,D53,2,A*%
%TO.N,Net-(D53-Pad2)*%
X208709019Y-142201923D03*
D15*
X206134085Y-142828196D03*
%TD*%
D13*
%TO.P,D5,1,K*%
%TO.N,ROW0*%
X152135674Y-74623897D03*
D14*
%TO.P,D5,2,A*%
%TO.N,Net-(D5-Pad2)*%
X148540484Y-73749478D03*
D15*
X145965550Y-73123205D03*
%TD*%
D13*
%TO.P,D18,1,K*%
%TO.N,ROW3*%
X105263701Y-105048508D03*
D15*
%TO.P,D18,2,A*%
%TO.N,Net-(D21-Pad2)*%
X99093577Y-103547816D03*
D14*
X101668511Y-104174089D03*
%TD*%
D13*
%TO.P,D15,1,K*%
%TO.N,ROW2*%
X86213081Y-102767678D03*
D15*
%TO.P,D15,2,A*%
%TO.N,Net-(D14-Pad2)*%
X80042957Y-101266986D03*
D14*
X82617891Y-101893259D03*
%TD*%
D13*
%TO.P,D4,1,K*%
%TO.N,ROW0*%
X134042150Y-67870563D03*
D14*
%TO.P,D4,2,A*%
%TO.N,Net-(D4-Pad2)*%
X130446960Y-66996144D03*
D15*
X127872026Y-66369871D03*
%TD*%
D13*
%TO.P,D7,1,K*%
%TO.N,ROW1*%
X76353388Y-63772938D03*
D14*
%TO.P,D7,2,A*%
%TO.N,Net-(D7-Pad2)*%
X72758198Y-62898519D03*
D15*
X70183264Y-62272246D03*
%TD*%
D16*
%TO.P,D35,1,K*%
%TO.N,ROW6*%
X208870345Y-80993958D03*
D15*
%TO.P,D35,2,A*%
%TO.N,Net-(D35-Pad2)*%
X202700221Y-82494650D03*
D17*
X205275155Y-81868377D03*
%TD*%
D18*
%TO.N,COL0*%
X183388015Y-61778517D03*
%TO.N,COL1*%
X183388017Y-63048517D03*
%TO.N,COL2*%
X183388016Y-64318517D03*
%TO.N,COL3*%
X183388015Y-65588517D03*
%TO.N,COL4*%
X183388017Y-66858517D03*
%TO.N,COL5*%
X183388016Y-68128517D03*
%TD*%
D19*
%TO.N,ROW0*%
X115114933Y-65619746D02*
X119114036Y-63185383D01*
X175768017Y-109739267D02*
X170675639Y-104646890D01*
X95464036Y-65806965D02*
X102531468Y-61504829D01*
X153933377Y-76368157D02*
X153069558Y-76158058D01*
X153069558Y-76158058D02*
X152135674Y-74623897D01*
X139418523Y-70485224D02*
X139428806Y-70478962D01*
X153943659Y-76361898D02*
X153933377Y-76368157D01*
X76953665Y-61304892D02*
X78191278Y-60551522D01*
X134976035Y-69404725D02*
X139418523Y-70485224D01*
X134042150Y-67870563D02*
X134976035Y-69404725D01*
X133288780Y-66632952D02*
X134042150Y-67870563D01*
X151382305Y-73386285D02*
X152135674Y-74623897D01*
X94710669Y-64569353D02*
X95464036Y-65806965D01*
X114361563Y-64382133D02*
X115114933Y-65619746D01*
X139428806Y-70478962D02*
X151382305Y-73386285D01*
X170675639Y-81917061D02*
X170105795Y-81347217D01*
X119114036Y-63185383D02*
X133288780Y-66632952D01*
X170675639Y-104646890D02*
X170675639Y-81917061D01*
X170105795Y-81347217D02*
X169352428Y-80109605D01*
X102531468Y-61504829D02*
X114361563Y-64382133D01*
X169352428Y-80109605D02*
X153943659Y-76361898D01*
X78191278Y-60551522D02*
X94710669Y-64569353D01*
%TO.N,Net-(D1-Pad2)*%
X70783542Y-59804198D02*
X73358476Y-60430471D01*
%TO.N,Net-(D2-Pad2)*%
X89293913Y-64306273D02*
X91868846Y-64932542D01*
%TO.N,Net-(D3-Pad2)*%
X108944807Y-64119055D02*
X111519742Y-64745323D01*
%TO.N,Net-(D4-Pad2)*%
X127872026Y-66369872D02*
X130446962Y-66996144D01*
%TO.N,Net-(D5-Pad2)*%
X148540484Y-73749478D02*
X145965550Y-73123205D01*
%TO.N,Net-(D6-Pad2)*%
X166510605Y-80472798D02*
X163935672Y-79846521D01*
%TO.N,ROW1*%
X169505518Y-106016767D02*
X175768017Y-112279267D01*
X113761288Y-66850180D02*
X114514656Y-68087794D01*
X133441873Y-70338610D02*
X134008463Y-71269388D01*
X168391113Y-81984549D02*
X169505518Y-83815262D01*
X94863758Y-68275012D02*
X101931191Y-63972880D01*
X169505518Y-83815262D02*
X169505518Y-106016767D01*
X118513762Y-65653433D02*
X132688506Y-69101000D01*
X151535396Y-77091944D02*
X152101987Y-78022725D01*
X134008463Y-71269388D02*
X150420992Y-75261232D01*
X94110391Y-67037403D02*
X94863758Y-68275012D01*
X77591001Y-63019567D02*
X94110391Y-67037403D01*
X150420992Y-75261232D02*
X151535396Y-77091944D01*
X101931191Y-63972880D02*
X113761288Y-66850180D01*
X76353388Y-63772938D02*
X77591001Y-63019567D01*
X132688506Y-69101000D02*
X133441873Y-70338610D01*
X152101987Y-78022725D02*
X168391113Y-81984549D01*
X114514656Y-68087794D02*
X118513762Y-65653433D01*
%TO.N,Net-(D7-Pad2)*%
X70183266Y-62272247D02*
X72758200Y-62898519D01*
%TO.N,Net-(D8-Pad2)*%
X88693634Y-66774321D02*
X91268570Y-67400595D01*
%TO.N,Net-(D9-Pad2)*%
X108344532Y-66587104D02*
X110919467Y-67213377D01*
%TO.N,Net-(D10-Pad2)*%
X127271750Y-68837921D02*
X129846682Y-69464195D01*
%TO.N,Net-(D11-Pad2)*%
X147940205Y-76217527D02*
X145365273Y-75591256D01*
%TO.N,Net-(D12-Pad2)*%
X165910329Y-82940847D02*
X163335393Y-82314574D01*
%TO.N,ROW2*%
X160224875Y-117100332D02*
X143812345Y-113108490D01*
X160978242Y-118337944D02*
X160224875Y-117100332D01*
X85459713Y-101530067D02*
X86213081Y-102767678D01*
X142131353Y-110346999D02*
X126228971Y-106479239D01*
X109863082Y-100146097D02*
X105863975Y-102580460D01*
X68940323Y-97512235D02*
X85459713Y-101530067D01*
X143812345Y-113108490D02*
X142884718Y-111584610D01*
X125848481Y-106395453D02*
X124914597Y-104861291D01*
X86213081Y-102767678D02*
X93280512Y-98465543D01*
X105110610Y-101342848D02*
X105863975Y-102580460D01*
X160978242Y-118337944D02*
X164496920Y-114819267D01*
X126218691Y-106485494D02*
X125848481Y-106395453D01*
X124161227Y-103623679D02*
X109863082Y-100146097D01*
X124914597Y-104861291D02*
X124161227Y-103623679D01*
X67702710Y-98265603D02*
X68940323Y-97512235D01*
X164496920Y-114819267D02*
X175768016Y-114819266D01*
X93280512Y-98465543D02*
X105110610Y-101342848D01*
X126228971Y-106479239D02*
X126218691Y-106485494D01*
X142884718Y-111584610D02*
X142131353Y-110346999D01*
%TO.N,Net-(D13-Pad2)*%
X61532586Y-96764910D02*
X64107524Y-97391183D01*
%TO.N,Net-(D14-Pad2)*%
X80042957Y-101266987D02*
X82617891Y-101893260D01*
%TO.N,Net-(D15-Pad2)*%
X99693854Y-101079768D02*
X102268785Y-101706041D01*
%TO.N,Net-(D16-Pad2)*%
X118744473Y-103360599D02*
X121319407Y-103986872D01*
%TO.N,Net-(D17-Pad2)*%
X136714593Y-110083917D02*
X139289527Y-110710188D01*
%TO.N,Net-(D18-Pad2)*%
X154808119Y-116837252D02*
X157383051Y-117463523D01*
%TO.N,ROW3*%
X119137606Y-105118801D02*
X119064070Y-104997997D01*
X67102432Y-100733650D02*
X68340045Y-99980285D01*
X124314318Y-107329339D02*
X123634487Y-106212528D01*
X104510333Y-103810897D02*
X105263701Y-105048508D01*
X142851032Y-114983439D02*
X142284442Y-114052660D01*
X123634487Y-106212528D02*
X119137606Y-105118801D01*
X163824692Y-117359267D02*
X175768018Y-117359267D01*
X159263560Y-118975279D02*
X142851032Y-114983439D01*
X160377966Y-120805993D02*
X159263560Y-118975279D01*
X141170036Y-112221945D02*
X124880910Y-108260119D01*
X68340045Y-99980285D02*
X84859437Y-103998116D01*
X119064070Y-104997997D02*
X109262806Y-102614146D01*
X142284442Y-114052660D02*
X141170036Y-112221945D01*
X160377966Y-120805993D02*
X163824692Y-117359267D01*
X109262806Y-102614146D02*
X105263701Y-105048508D01*
X85612803Y-105235728D02*
X92680236Y-100933592D01*
X84859437Y-103998116D02*
X85612803Y-105235728D01*
X124880910Y-108260119D02*
X124314318Y-107329339D01*
X92680236Y-100933592D02*
X104510333Y-103810897D01*
%TO.N,Net-(D19-Pad2)*%
X60932308Y-99232960D02*
X63507245Y-99859232D01*
%TO.N,Net-(D20-Pad2)*%
X79442681Y-103735036D02*
X82017613Y-104361308D01*
%TO.N,Net-(D21-Pad2)*%
X99093576Y-103547815D02*
X101668510Y-104174090D01*
%TO.N,Net-(D22-Pad2)*%
X118144197Y-105828648D02*
X120719128Y-106454921D01*
%TO.N,Net-(D23-Pad2)*%
X136114316Y-112551967D02*
X138689252Y-113178241D01*
%TO.N,Net-(D24-Pad2)*%
X154207842Y-119305303D02*
X156782775Y-119931572D01*
%TO.N,ROW4*%
X160828723Y-143135034D02*
X175996617Y-127967140D01*
X144399460Y-136525073D02*
X146080456Y-139286571D01*
X147011235Y-138719977D02*
X160075355Y-141897424D01*
X128110334Y-132563251D02*
X144399460Y-136525073D01*
X160075355Y-141897424D02*
X160828723Y-143135034D01*
X175996617Y-127967140D02*
X175996616Y-119899267D01*
X146080456Y-139286571D02*
X147011235Y-138719977D01*
X160828723Y-143135034D02*
X155992821Y-147971162D01*
%TO.N,Net-(D25-Pad2)*%
X124515144Y-131688832D02*
X121940211Y-131062559D01*
%TO.N,Net-(D26-Pad2)*%
X139910332Y-137785879D02*
X142485266Y-138412152D01*
%TO.N,Net-(D27-Pad2)*%
X152397628Y-147096743D02*
X149822696Y-146470470D01*
%TO.N,Net-(D28-Pad2)*%
X157233535Y-142260614D02*
X154658600Y-141634344D01*
%TO.N,ROW9*%
X191008016Y-120031312D02*
X191008016Y-119899266D01*
X230810992Y-135771919D02*
X232048604Y-136525290D01*
X234482965Y-132526185D02*
X232048604Y-136525290D01*
X248904516Y-129018589D02*
X234482965Y-132526185D01*
X212304209Y-141327504D02*
X191008016Y-120031312D01*
X213057576Y-140089892D02*
X230810992Y-135771919D01*
X212304209Y-141327504D02*
X213057576Y-140089892D01*
X249988711Y-129678568D02*
X248904516Y-129018589D01*
X250018724Y-129801967D02*
X249988711Y-129678568D01*
X212304209Y-141327504D02*
X216766558Y-146777295D01*
%TO.N,Net-(D29-Pad2)*%
X202099945Y-80026600D02*
X204674878Y-79400325D01*
%TO.N,Net-(D30-Pad2)*%
X220070067Y-73303280D02*
X222645000Y-72677006D01*
%TO.N,Net-(D31-Pad2)*%
X238040189Y-66579959D02*
X240615122Y-65953688D01*
%TO.N,Net-(D32-Pad2)*%
X257090808Y-64299130D02*
X259665741Y-63672857D01*
%TO.N,Net-(D33-Pad2)*%
X276741704Y-64486348D02*
X279316637Y-63860072D01*
%TO.N,Net-(D34-Pad2)*%
X295252075Y-59984273D02*
X297827008Y-59358000D01*
%TO.N,ROW8*%
X293269622Y-101236833D02*
X309789015Y-97219004D01*
X213583304Y-117435230D02*
X212852016Y-118166517D01*
X272805331Y-102040420D02*
X277111269Y-104661563D01*
X238278980Y-107292274D02*
X252330322Y-103874717D01*
X191815266Y-118166517D02*
X191008016Y-117359267D01*
X220308860Y-114015593D02*
X234607007Y-110538010D01*
X252330322Y-103874717D02*
X253567934Y-104628087D01*
X277111269Y-104661563D02*
X290685539Y-101360042D01*
X292516254Y-102474447D02*
X293269622Y-101236833D01*
X271281449Y-101112795D02*
X254498713Y-105194678D01*
X217874495Y-118014699D02*
X217295027Y-117435230D01*
X272805331Y-102040420D02*
X271281449Y-101112795D01*
X235844616Y-111291377D02*
X238278980Y-107292274D01*
X217295027Y-117435230D02*
X213583304Y-117435230D01*
X290685539Y-101360042D02*
X292516254Y-102474447D01*
X217874495Y-118014699D02*
X220308860Y-114015593D01*
X254498713Y-105194678D02*
X253567934Y-104628087D01*
X212852016Y-118166517D02*
X191815266Y-118166517D01*
X309789015Y-97219004D02*
X311026624Y-97972372D01*
X234607007Y-110538010D02*
X235844616Y-111291377D01*
%TO.N,Net-(D35-Pad2)*%
X202700221Y-82494646D02*
X205275156Y-81868373D01*
%TO.N,Net-(D36-Pad2)*%
X220670343Y-75771330D02*
X223245278Y-75145057D01*
%TO.N,Net-(D37-Pad2)*%
X238640466Y-69048010D02*
X241215398Y-68421737D01*
%TO.N,Net-(D38-Pad2)*%
X257691083Y-66767177D02*
X260266019Y-66140906D01*
%TO.N,Net-(D39-Pad2)*%
X277341982Y-66954398D02*
X279916915Y-66328125D01*
%TO.N,Net-(D40-Pad2)*%
X295852350Y-62452321D02*
X298427284Y-61826046D01*
%TO.N,ROW7*%
X216546837Y-114819267D02*
X191008017Y-114819267D01*
X276867570Y-102620838D02*
X285085128Y-100622170D01*
X310426351Y-95504322D02*
X309188737Y-94750954D01*
X217274218Y-115546648D02*
X216546837Y-114819267D01*
X290678368Y-99253031D02*
X291915979Y-100006398D01*
X272265082Y-99819179D02*
X269503588Y-98138183D01*
X233710180Y-107889443D02*
X235244342Y-108823330D01*
X217274218Y-115546648D02*
X219889100Y-111250993D01*
X285085128Y-100622170D02*
X285091387Y-100611890D01*
X272265082Y-99819179D02*
X276867570Y-102620838D01*
X269503588Y-98138183D02*
X252967657Y-102160036D01*
X237678704Y-104824223D02*
X251730045Y-101406669D01*
X235244342Y-108823330D02*
X237678704Y-104824223D01*
X251730045Y-101406669D02*
X252967657Y-102160036D01*
X285091387Y-100611890D02*
X290678368Y-99253031D01*
X219889100Y-111250993D02*
X233710180Y-107889443D01*
X309188737Y-94750954D02*
X292669346Y-98768786D01*
X292669346Y-98768786D02*
X291915979Y-100006398D01*
%TO.N,Net-(D41-Pad2)*%
X211104098Y-117047341D02*
X213679030Y-116421068D01*
%TO.N,Net-(D42-Pad2)*%
X229074216Y-110324020D02*
X231649151Y-109697745D01*
%TO.N,Net-(D43-Pad2)*%
X246797535Y-103660729D02*
X249372468Y-103034453D01*
%TO.N,Net-(D44-Pad2)*%
X266094958Y-101319871D02*
X268669891Y-100693598D01*
%TO.N,Net-(D45-Pad2)*%
X285745854Y-101507088D02*
X288320789Y-100880813D01*
%TO.N,Net-(D46-Pad2)*%
X304256225Y-97005012D02*
X306831158Y-96378739D01*
%TO.N,ROW6*%
X263861209Y-65266487D02*
X262030493Y-64152081D01*
X296041176Y-61352018D02*
X284265472Y-64216094D01*
X243572977Y-66793948D02*
X244810588Y-67547318D01*
X300905664Y-60271795D02*
X296161977Y-61425550D01*
X262030493Y-64152081D02*
X245741367Y-68113906D01*
X229274831Y-70271533D02*
X243572977Y-66793948D01*
X268453416Y-68061890D02*
X263861209Y-65266487D01*
X208870345Y-80993958D02*
X211304708Y-76994850D01*
X211295711Y-91991572D02*
X191008017Y-112279267D01*
X283512104Y-65453706D02*
X282274492Y-64700335D01*
X282274492Y-64700335D02*
X268453416Y-68061890D01*
X302022476Y-60951631D02*
X300905664Y-60271795D01*
X226840467Y-74270638D02*
X229274831Y-70271533D01*
X208870345Y-80993958D02*
X211295711Y-83419324D01*
X225602856Y-73517269D02*
X226840467Y-74270638D01*
X245741367Y-68113906D02*
X244810588Y-67547318D01*
X211295711Y-83419324D02*
X211295711Y-91991572D01*
X211304708Y-76994850D02*
X225602856Y-73517269D01*
X296161977Y-61425550D02*
X296041176Y-61352018D01*
X284265472Y-64216094D02*
X283512104Y-65453706D01*
%TO.N,Net-(D47-Pad2)*%
X211704373Y-119515390D02*
X214279305Y-118889118D01*
%TO.N,Net-(D48-Pad2)*%
X229674494Y-112792071D02*
X232249426Y-112165798D01*
%TO.N,Net-(D49-Pad2)*%
X247397810Y-106128780D02*
X249972745Y-105502506D01*
%TO.N,Net-(D50-Pad2)*%
X266635208Y-103541115D02*
X269210142Y-102914842D01*
%TO.N,Net-(D51-Pad2)*%
X286346131Y-103975139D02*
X288921064Y-103348866D01*
%TO.N,Net-(D52-Pad2)*%
X304856502Y-99473060D02*
X307431436Y-98846790D01*
%TO.N,ROW5*%
X281674215Y-62232288D02*
X267853139Y-65593838D01*
X225002578Y-71049220D02*
X226240189Y-71802587D01*
X282911828Y-62985654D02*
X283665195Y-61748045D01*
X208270069Y-78525906D02*
X207690599Y-77946438D01*
X283665195Y-61748045D02*
X300184586Y-57730214D01*
X207690599Y-77946438D02*
X202731227Y-77946438D01*
X193548017Y-87129648D02*
X193548016Y-107199267D01*
X282911828Y-62985654D02*
X281674215Y-62232288D01*
X202731227Y-77946438D02*
X193548017Y-87129648D01*
X193548016Y-107199267D02*
X191008016Y-109739267D01*
X226240189Y-71802587D02*
X228674553Y-67803481D01*
X244210313Y-65079266D02*
X260499438Y-61117440D01*
X210704433Y-74526801D02*
X225002578Y-71049220D01*
X267853139Y-65593838D02*
X263260931Y-62798438D01*
X300184586Y-57730214D02*
X301422198Y-58483581D01*
X228674553Y-67803481D02*
X242972700Y-64325901D01*
X242972700Y-64325901D02*
X244210313Y-65079266D01*
X260499438Y-61117440D02*
X263260931Y-62798438D01*
X208270069Y-78525906D02*
X210704433Y-74526801D01*
%TO.N,Net-(D53-Pad2)*%
X206134084Y-142828192D02*
X208709019Y-142201920D01*
%TO.N,Net-(D54-Pad2)*%
X210596435Y-148277987D02*
X213171368Y-147651714D01*
%TO.N,Net-(D55-Pad2)*%
X225878478Y-138025982D02*
X228453412Y-137399709D01*
%TO.N,Net-(D56-Pad2)*%
X243848600Y-131302662D02*
X246423533Y-130676387D01*
%TO.N,COL0*%
X181102017Y-64064517D02*
X183388015Y-61778517D01*
X181102016Y-86625268D02*
X181102017Y-64064517D01*
X175768017Y-91959267D02*
X181102016Y-86625268D01*
%TO.N,COL1*%
X181864017Y-64572515D02*
X181864017Y-88403267D01*
X183388017Y-63048517D02*
X181864017Y-64572515D01*
X181864017Y-88403267D02*
X175768017Y-94499267D01*
%TO.N,COL2*%
X175768015Y-107199267D02*
X182626017Y-100341267D01*
X182626017Y-100341267D02*
X182626015Y-65080517D01*
X182626015Y-65080517D02*
X183388016Y-64318517D01*
%TO.N,COL3*%
X184912017Y-96023267D02*
X191008016Y-102119265D01*
X184912017Y-67112517D02*
X184912017Y-96023267D01*
X183388015Y-65588517D02*
X184912017Y-67112517D01*
%TO.N,COL4*%
X183388017Y-66858517D02*
X184112528Y-67583028D01*
X184112527Y-97763779D02*
X191008017Y-104659267D01*
X184112528Y-67583028D02*
X184112527Y-97763779D01*
%TO.N,COL5*%
X183388016Y-68128517D02*
X183388015Y-99579267D01*
X183388015Y-99579267D02*
X191008016Y-107199266D01*
%TO.N,Net-(SW1-Pad1)*%
X193040016Y-61560216D02*
X193040017Y-95007267D01*
X201599792Y-53000442D02*
X193040016Y-61560216D01*
X193040017Y-95007267D02*
X191008017Y-97039267D01*
%TO.N,GND*%
X192278016Y-93229267D02*
X191008016Y-94499266D01*
X195148241Y-53828291D02*
X192278017Y-56698517D01*
X195148241Y-53792592D02*
X195148241Y-53828291D01*
X192278017Y-56698517D02*
X192278016Y-93229267D01*
%TD*%
M02*
