%TF.GenerationSoftware,KiCad,Pcbnew,(6.0.0-0)*%
%TF.CreationDate,2022-01-08T14:54:33+00:00*%
%TF.ProjectId,atreis,61747265-6973-42e6-9b69-6361645f7063,rev?*%
%TF.SameCoordinates,Original*%
%TF.FileFunction,Copper,L1,Top*%
%TF.FilePolarity,Positive*%
%FSLAX46Y46*%
G04 Gerber Fmt 4.6, Leading zero omitted, Abs format (unit mm)*
G04 Created by KiCad (PCBNEW (6.0.0-0)) date 2022-01-08 14:54:33*
%MOMM*%
%LPD*%
G01*
G04 APERTURE LIST*
G04 Aperture macros list*
%AMRotRect*
0 Rectangle, with rotation*
0 The origin of the aperture is its center*
0 $1 length*
0 $2 width*
0 $3 Rotation angle, in degrees counterclockwise*
0 Add horizontal line*
21,1,$1,$2,0,0,$3*%
G04 Aperture macros list end*
%TA.AperFunction,ComponentPad*%
%ADD10C,1.752600*%
%TD*%
%TA.AperFunction,ComponentPad*%
%ADD11R,1.752600X1.752600*%
%TD*%
%TA.AperFunction,ComponentPad*%
%ADD12C,2.000000*%
%TD*%
%TA.AperFunction,ComponentPad*%
%ADD13C,1.400000*%
%TD*%
%TA.AperFunction,SMDPad,CuDef*%
%ADD14RotRect,1.600000X1.200000X166.330000*%
%TD*%
%TA.AperFunction,ComponentPad*%
%ADD15RotRect,1.400000X1.400000X166.330000*%
%TD*%
%TA.AperFunction,SMDPad,CuDef*%
%ADD16RotRect,1.600000X1.200000X193.670000*%
%TD*%
%TA.AperFunction,ComponentPad*%
%ADD17RotRect,1.400000X1.400000X193.670000*%
%TD*%
%TA.AperFunction,ViaPad*%
%ADD18C,0.800000*%
%TD*%
%TA.AperFunction,Conductor*%
%ADD19C,0.250000*%
%TD*%
G04 APERTURE END LIST*
D10*
%TO.P,U1,29,F0*%
%TO.N,unconnected-(U1-Pad29)*%
X188468015Y-119889268D03*
%TO.P,U1,28,F1*%
%TO.N,unconnected-(U1-Pad28)*%
X185928015Y-119889268D03*
%TO.P,U1,27,C7*%
%TO.N,unconnected-(U1-Pad27)*%
X183388015Y-119889268D03*
%TO.P,U1,26,D5*%
%TO.N,unconnected-(U1-Pad26)*%
X180848015Y-119889268D03*
%TO.P,U1,25,B7*%
%TO.N,unconnected-(U1-Pad25)*%
X178308015Y-119889268D03*
%TO.P,U1,24,B0*%
%TO.N,unconnected-(U1-Pad24)*%
X191008015Y-91949268D03*
%TO.P,U1,23,GND*%
%TO.N,GND*%
X191008015Y-94489268D03*
%TO.P,U1,22,RST*%
%TO.N,Net-(SW1-Pad1)*%
X191008015Y-97029268D03*
%TO.P,U1,21,VCC*%
%TO.N,unconnected-(U1-Pad21)*%
X191008015Y-99569268D03*
%TO.P,U1,20,A3/PF4*%
%TO.N,COL3*%
X191008015Y-102109268D03*
%TO.P,U1,19,A2/PF5*%
%TO.N,COL4*%
X191008015Y-104649268D03*
%TO.P,U1,18,A1/PF6*%
%TO.N,COL5*%
X191008015Y-107189268D03*
%TO.P,U1,17,A0/PF7*%
%TO.N,ROW5*%
X191008015Y-109729268D03*
%TO.P,U1,16,15/PB1*%
%TO.N,ROW6*%
X191008015Y-112269268D03*
%TO.P,U1,15,14/PB3*%
%TO.N,ROW7*%
X191008015Y-114809268D03*
%TO.P,U1,14,16/PB2*%
%TO.N,ROW8*%
X191008015Y-117349268D03*
%TO.P,U1,13,10/PB6*%
%TO.N,ROW9*%
X191008015Y-119889268D03*
%TO.P,U1,12,9/PB5*%
%TO.N,ROW4*%
X175768015Y-119889268D03*
%TO.P,U1,11,8/PB4*%
%TO.N,ROW3*%
X175768015Y-117349268D03*
%TO.P,U1,10,7/PE6*%
%TO.N,ROW2*%
X175768015Y-114809268D03*
%TO.P,U1,9,6/PD7*%
%TO.N,ROW1*%
X175768015Y-112269268D03*
%TO.P,U1,8,5/PC6*%
%TO.N,ROW0*%
X175768015Y-109729268D03*
%TO.P,U1,7,4/PD4*%
%TO.N,COL2*%
X175768015Y-107189268D03*
%TO.P,U1,6,3/PD0*%
%TO.N,unconnected-(U1-Pad6)*%
X175768015Y-104649268D03*
%TO.P,U1,5,2/PD1*%
%TO.N,unconnected-(U1-Pad5)*%
X175768015Y-102109268D03*
%TO.P,U1,4,GND*%
%TO.N,GND*%
X175768015Y-99569268D03*
%TO.P,U1,3,GND*%
X175768015Y-97029268D03*
%TO.P,U1,2,RX1/PD2*%
%TO.N,COL1*%
X175768015Y-94489268D03*
D11*
%TO.P,U1,1,TX0/PD3*%
%TO.N,COL0*%
X175768015Y-91949268D03*
%TD*%
D12*
%TO.P,SW1,1,1*%
%TO.N,Net-(SW1-Pad1)*%
X201599790Y-52990443D03*
%TO.P,SW1,2,2*%
%TO.N,GND*%
X195148240Y-53782593D03*
%TD*%
D13*
%TO.P,D28,2,A*%
%TO.N,Net-(D28-Pad2)*%
X155119750Y-141111290D03*
D14*
X157694684Y-141737563D03*
D15*
%TO.P,D28,1,K*%
%TO.N,ROW4*%
X161289874Y-142611982D03*
%TD*%
D14*
%TO.P,D11,2,A*%
%TO.N,Net-(D11-Pad2)*%
X147940206Y-76207526D03*
D13*
X145365272Y-75581253D03*
D15*
%TO.P,D11,1,K*%
%TO.N,ROW1*%
X151535396Y-77081945D03*
%TD*%
D13*
%TO.P,D54,2,A*%
%TO.N,Net-(D54-Pad2)*%
X210877290Y-148563212D03*
D16*
X213452224Y-147936939D03*
D17*
%TO.P,D54,1,K*%
%TO.N,ROW9*%
X217047414Y-147062520D03*
%TD*%
D16*
%TO.P,D40,2,A*%
%TO.N,Net-(D40-Pad2)*%
X298427287Y-61816048D03*
D13*
X295852353Y-62442321D03*
D17*
%TO.P,D40,1,K*%
%TO.N,ROW6*%
X302022477Y-60941629D03*
%TD*%
D14*
%TO.P,D24,2,A*%
%TO.N,Net-(D24-Pad2)*%
X156782776Y-119921575D03*
D13*
X154207842Y-119295302D03*
D15*
%TO.P,D24,1,K*%
%TO.N,ROW3*%
X160377966Y-120795994D03*
%TD*%
D13*
%TO.P,D29,2,A*%
%TO.N,Net-(D29-Pad2)*%
X202099943Y-80016599D03*
D16*
X204674877Y-79390326D03*
D17*
%TO.P,D29,1,K*%
%TO.N,ROW5*%
X208270067Y-78515907D03*
%TD*%
D13*
%TO.P,D8,2,A*%
%TO.N,Net-(D8-Pad2)*%
X88693634Y-66764322D03*
D14*
X91268568Y-67390595D03*
D15*
%TO.P,D8,1,K*%
%TO.N,ROW1*%
X94863758Y-68265014D03*
%TD*%
D13*
%TO.P,D37,2,A*%
%TO.N,Net-(D37-Pad2)*%
X238640464Y-69038011D03*
D16*
X241215398Y-68411738D03*
D17*
%TO.P,D37,1,K*%
%TO.N,ROW6*%
X244810588Y-67537319D03*
%TD*%
D13*
%TO.P,D43,2,A*%
%TO.N,Net-(D43-Pad2)*%
X246797532Y-103650728D03*
D16*
X249372466Y-103024455D03*
D17*
%TO.P,D43,1,K*%
%TO.N,ROW7*%
X252967656Y-102150036D03*
%TD*%
D13*
%TO.P,D49,2,A*%
%TO.N,Net-(D49-Pad2)*%
X247397809Y-106118780D03*
D16*
X249972743Y-105492507D03*
D17*
%TO.P,D49,1,K*%
%TO.N,ROW8*%
X253567933Y-104618088D03*
%TD*%
D13*
%TO.P,D12,2,A*%
%TO.N,Net-(D12-Pad2)*%
X163335393Y-82304571D03*
D14*
X165910327Y-82930844D03*
D15*
%TO.P,D12,1,K*%
%TO.N,ROW1*%
X169505517Y-83805263D03*
%TD*%
D13*
%TO.P,D47,2,A*%
%TO.N,Net-(D47-Pad2)*%
X211704371Y-119505390D03*
D16*
X214279305Y-118879117D03*
D17*
%TO.P,D47,1,K*%
%TO.N,ROW8*%
X217874495Y-118004698D03*
%TD*%
D14*
%TO.P,D23,2,A*%
%TO.N,Net-(D18-Pad2)*%
X157383051Y-117453527D03*
D13*
X154808117Y-116827254D03*
D15*
%TO.P,D23,1,K*%
%TO.N,ROW2*%
X160978241Y-118327946D03*
%TD*%
D16*
%TO.P,D39,2,A*%
%TO.N,Net-(D39-Pad2)*%
X279916912Y-66318124D03*
D13*
X277341978Y-66944397D03*
D17*
%TO.P,D39,1,K*%
%TO.N,ROW6*%
X283512102Y-65443705D03*
%TD*%
D13*
%TO.P,D55,2,A*%
%TO.N,Net-(D55-Pad2)*%
X225878478Y-138015984D03*
D16*
X228453412Y-137389711D03*
D17*
%TO.P,D55,1,K*%
%TO.N,ROW9*%
X232048602Y-136515292D03*
%TD*%
D13*
%TO.P,D50,2,A*%
%TO.N,Net-(D50-Pad2)*%
X266635207Y-103531112D03*
D16*
X269210141Y-102904839D03*
D17*
%TO.P,D50,1,K*%
%TO.N,ROW8*%
X272805331Y-102030420D03*
%TD*%
D14*
%TO.P,D16,2,A*%
%TO.N,Net-(D20-Pad2)*%
X82017613Y-104351308D03*
D13*
X79442679Y-103725035D03*
D15*
%TO.P,D16,1,K*%
%TO.N,ROW3*%
X85612803Y-105225727D03*
%TD*%
D13*
%TO.P,D30,2,A*%
%TO.N,Net-(D30-Pad2)*%
X220070065Y-73293279D03*
D16*
X222644999Y-72667006D03*
D17*
%TO.P,D30,1,K*%
%TO.N,ROW5*%
X226240189Y-71792587D03*
%TD*%
D13*
%TO.P,D31,2,A*%
%TO.N,Net-(D31-Pad2)*%
X238040189Y-66569957D03*
D16*
X240615123Y-65943684D03*
D17*
%TO.P,D31,1,K*%
%TO.N,ROW5*%
X244210313Y-65069265D03*
%TD*%
D14*
%TO.P,D27,2,A*%
%TO.N,Net-(D27-Pad2)*%
X152273810Y-147581595D03*
D13*
X149698876Y-146955322D03*
D15*
%TO.P,D27,1,K*%
%TO.N,ROW4*%
X155869000Y-148456014D03*
%TD*%
D13*
%TO.P,D26,2,A*%
%TO.N,Net-(D26-Pad2)*%
X139910331Y-137775879D03*
D14*
X142485265Y-138402152D03*
D15*
%TO.P,D26,1,K*%
%TO.N,ROW4*%
X146080455Y-139276571D03*
%TD*%
D13*
%TO.P,D44,2,A*%
%TO.N,Net-(D44-Pad2)*%
X266094959Y-101309871D03*
D16*
X268669893Y-100683598D03*
D17*
%TO.P,D44,1,K*%
%TO.N,ROW7*%
X272265083Y-99809179D03*
%TD*%
D13*
%TO.P,D41,2,A*%
%TO.N,Net-(D41-Pad2)*%
X211104094Y-117037342D03*
D16*
X213679028Y-116411069D03*
D17*
%TO.P,D41,1,K*%
%TO.N,ROW7*%
X217274218Y-115536650D03*
%TD*%
D13*
%TO.P,D25,2,A*%
%TO.N,Net-(D25-Pad2)*%
X121940210Y-131052561D03*
D14*
X124515144Y-131678834D03*
D15*
%TO.P,D25,1,K*%
%TO.N,ROW4*%
X128110334Y-132553253D03*
%TD*%
D16*
%TO.P,D42,2,A*%
%TO.N,Net-(D42-Pad2)*%
X231649151Y-109687749D03*
D13*
X229074217Y-110314022D03*
D17*
%TO.P,D42,1,K*%
%TO.N,ROW7*%
X235244341Y-108813330D03*
%TD*%
D16*
%TO.P,D33,2,A*%
%TO.N,Net-(D33-Pad2)*%
X279316637Y-63850075D03*
D13*
X276741703Y-64476348D03*
D17*
%TO.P,D33,1,K*%
%TO.N,ROW5*%
X282911827Y-62975656D03*
%TD*%
D13*
%TO.P,D10,2,A*%
%TO.N,Net-(D10-Pad2)*%
X127271749Y-68827919D03*
D14*
X129846683Y-69454192D03*
D15*
%TO.P,D10,1,K*%
%TO.N,ROW1*%
X133441873Y-70328611D03*
%TD*%
D13*
%TO.P,D56,2,A*%
%TO.N,Net-(D56-Pad2)*%
X243848599Y-131292659D03*
D16*
X246423533Y-130666386D03*
D17*
%TO.P,D56,1,K*%
%TO.N,ROW9*%
X250018723Y-129791967D03*
%TD*%
D16*
%TO.P,D38,2,A*%
%TO.N,Net-(D38-Pad2)*%
X260266018Y-66130906D03*
D13*
X257691084Y-66757179D03*
D17*
%TO.P,D38,1,K*%
%TO.N,ROW6*%
X263861208Y-65256487D03*
%TD*%
D14*
%TO.P,D6,2,A*%
%TO.N,Net-(D6-Pad2)*%
X166510604Y-80462797D03*
D13*
X163935670Y-79836524D03*
D15*
%TO.P,D6,1,K*%
%TO.N,ROW0*%
X170105794Y-81337216D03*
%TD*%
D13*
%TO.P,D17,2,A*%
%TO.N,Net-(D15-Pad2)*%
X99693852Y-101069768D03*
D14*
X102268786Y-101696041D03*
D15*
%TO.P,D17,1,K*%
%TO.N,ROW2*%
X105863976Y-102570460D03*
%TD*%
D16*
%TO.P,D48,2,A*%
%TO.N,Net-(D48-Pad2)*%
X232249425Y-112155797D03*
D13*
X229674491Y-112782070D03*
D17*
%TO.P,D48,1,K*%
%TO.N,ROW8*%
X235844615Y-111281378D03*
%TD*%
D14*
%TO.P,D2,2,A*%
%TO.N,Net-(D2-Pad2)*%
X91868844Y-64922547D03*
D13*
X89293910Y-64296274D03*
D15*
%TO.P,D2,1,K*%
%TO.N,ROW0*%
X95464034Y-65796966D03*
%TD*%
D16*
%TO.P,D51,2,A*%
%TO.N,Net-(D51-Pad2)*%
X288921064Y-103338866D03*
D13*
X286346130Y-103965139D03*
D17*
%TO.P,D51,1,K*%
%TO.N,ROW8*%
X292516254Y-102464447D03*
%TD*%
D14*
%TO.P,D22,2,A*%
%TO.N,Net-(D23-Pad2)*%
X138689251Y-113168241D03*
D13*
X136114317Y-112541968D03*
D15*
%TO.P,D22,1,K*%
%TO.N,ROW3*%
X142284441Y-114042660D03*
%TD*%
D14*
%TO.P,D9,2,A*%
%TO.N,Net-(D9-Pad2)*%
X110919465Y-67203375D03*
D13*
X108344531Y-66577102D03*
D15*
%TO.P,D9,1,K*%
%TO.N,ROW1*%
X114514655Y-68077794D03*
%TD*%
D13*
%TO.P,D36,2,A*%
%TO.N,Net-(D36-Pad2)*%
X220670342Y-75761331D03*
D16*
X223245276Y-75135058D03*
D17*
%TO.P,D36,1,K*%
%TO.N,ROW6*%
X226840466Y-74260639D03*
%TD*%
D13*
%TO.P,D46,2,A*%
%TO.N,Net-(D46-Pad2)*%
X304256227Y-96995015D03*
D16*
X306831161Y-96368742D03*
D17*
%TO.P,D46,1,K*%
%TO.N,ROW7*%
X310426351Y-95494323D03*
%TD*%
D13*
%TO.P,D1,2,A*%
%TO.N,Net-(D1-Pad2)*%
X70783540Y-59794199D03*
D14*
X73358474Y-60420472D03*
D15*
%TO.P,D1,1,K*%
%TO.N,ROW0*%
X76953664Y-61294891D03*
%TD*%
D13*
%TO.P,D34,2,A*%
%TO.N,Net-(D34-Pad2)*%
X295252073Y-59974273D03*
D16*
X297827007Y-59348000D03*
D17*
%TO.P,D34,1,K*%
%TO.N,ROW5*%
X301422197Y-58473581D03*
%TD*%
D14*
%TO.P,D21,2,A*%
%TO.N,Net-(D17-Pad2)*%
X139289527Y-110700191D03*
D13*
X136714593Y-110073918D03*
D15*
%TO.P,D21,1,K*%
%TO.N,ROW2*%
X142884717Y-111574610D03*
%TD*%
D14*
%TO.P,D20,2,A*%
%TO.N,Net-(D22-Pad2)*%
X120719127Y-106444919D03*
D13*
X118144193Y-105818646D03*
D15*
%TO.P,D20,1,K*%
%TO.N,ROW3*%
X124314317Y-107319338D03*
%TD*%
D13*
%TO.P,D45,2,A*%
%TO.N,Net-(D45-Pad2)*%
X285745855Y-101497091D03*
D16*
X288320789Y-100870818D03*
D17*
%TO.P,D45,1,K*%
%TO.N,ROW7*%
X291915979Y-99996399D03*
%TD*%
D14*
%TO.P,D3,2,A*%
%TO.N,Net-(D3-Pad2)*%
X111519741Y-64735327D03*
D13*
X108944807Y-64109054D03*
D15*
%TO.P,D3,1,K*%
%TO.N,ROW0*%
X115114931Y-65609746D03*
%TD*%
D13*
%TO.P,D14,2,A*%
%TO.N,Net-(D19-Pad2)*%
X60932308Y-99222959D03*
D14*
X63507242Y-99849232D03*
D15*
%TO.P,D14,1,K*%
%TO.N,ROW3*%
X67102432Y-100723651D03*
%TD*%
D16*
%TO.P,D32,2,A*%
%TO.N,Net-(D32-Pad2)*%
X259665740Y-63662856D03*
D13*
X257090806Y-64289129D03*
D17*
%TO.P,D32,1,K*%
%TO.N,ROW5*%
X263260930Y-62788437D03*
%TD*%
D13*
%TO.P,D52,2,A*%
%TO.N,Net-(D52-Pad2)*%
X304856499Y-99463065D03*
D16*
X307431433Y-98836792D03*
D17*
%TO.P,D52,1,K*%
%TO.N,ROW8*%
X311026623Y-97962373D03*
%TD*%
D13*
%TO.P,D19,2,A*%
%TO.N,Net-(D16-Pad2)*%
X118744472Y-103350599D03*
D14*
X121319406Y-103976872D03*
D15*
%TO.P,D19,1,K*%
%TO.N,ROW2*%
X124914596Y-104851291D03*
%TD*%
D14*
%TO.P,D13,2,A*%
%TO.N,Net-(D13-Pad2)*%
X64107520Y-97381185D03*
D13*
X61532586Y-96754912D03*
D15*
%TO.P,D13,1,K*%
%TO.N,ROW2*%
X67702710Y-98255604D03*
%TD*%
D13*
%TO.P,D53,2,A*%
%TO.N,Net-(D53-Pad2)*%
X205839968Y-142469051D03*
D16*
X208414902Y-141842778D03*
D17*
%TO.P,D53,1,K*%
%TO.N,ROW9*%
X212010092Y-140968359D03*
%TD*%
D13*
%TO.P,D5,2,A*%
%TO.N,Net-(D5-Pad2)*%
X145965548Y-73113205D03*
D14*
X148540482Y-73739478D03*
D15*
%TO.P,D5,1,K*%
%TO.N,ROW0*%
X152135672Y-74613897D03*
%TD*%
D14*
%TO.P,D18,2,A*%
%TO.N,Net-(D21-Pad2)*%
X101668510Y-104164089D03*
D13*
X99093576Y-103537816D03*
D15*
%TO.P,D18,1,K*%
%TO.N,ROW3*%
X105263700Y-105038508D03*
%TD*%
D14*
%TO.P,D15,2,A*%
%TO.N,Net-(D14-Pad2)*%
X82617891Y-101883258D03*
D13*
X80042957Y-101256985D03*
D15*
%TO.P,D15,1,K*%
%TO.N,ROW2*%
X86213081Y-102757677D03*
%TD*%
D13*
%TO.P,D4,2,A*%
%TO.N,Net-(D4-Pad2)*%
X127872025Y-66359870D03*
D14*
X130446959Y-66986143D03*
D15*
%TO.P,D4,1,K*%
%TO.N,ROW0*%
X134042149Y-67860562D03*
%TD*%
D13*
%TO.P,D7,2,A*%
%TO.N,Net-(D7-Pad2)*%
X70183264Y-62262248D03*
D14*
X72758198Y-62888521D03*
D15*
%TO.P,D7,1,K*%
%TO.N,ROW1*%
X76353388Y-63762940D03*
%TD*%
D16*
%TO.P,D35,2,A*%
%TO.N,Net-(D35-Pad2)*%
X205275155Y-81858377D03*
D13*
X202700221Y-82484650D03*
D17*
%TO.P,D35,1,K*%
%TO.N,ROW6*%
X208870345Y-80983958D03*
%TD*%
D18*
%TO.N,COL0*%
X183388014Y-61768517D03*
%TO.N,COL1*%
X183388016Y-63038519D03*
%TO.N,COL2*%
X183388014Y-64308518D03*
%TO.N,COL3*%
X183388016Y-65578517D03*
%TO.N,COL4*%
X183388016Y-66848518D03*
%TO.N,COL5*%
X183388014Y-68118518D03*
%TD*%
D19*
%TO.N,ROW4*%
X161289874Y-142611982D02*
X175768013Y-119889267D01*
X175768013Y-119889267D02*
X175768018Y-120117865D01*
X155869000Y-148456014D02*
X156337929Y-148570065D01*
X156337929Y-148570065D02*
X160449487Y-146067250D01*
X160449487Y-146067250D02*
X161289874Y-142611982D01*
%TO.N,Net-(D27-Pad2)*%
X152273811Y-147581593D02*
X149698876Y-146955322D01*
%TO.N,Net-(D28-Pad2)*%
X155119751Y-141111289D02*
X157694683Y-141737563D01*
%TO.N,ROW4*%
X146080455Y-139276571D02*
X147949603Y-138138770D01*
X160412021Y-141169868D02*
X161289874Y-142611982D01*
X147949603Y-138138770D02*
X160412021Y-141169868D01*
%TO.N,Net-(D54-Pad2)*%
X210877291Y-148563212D02*
X213452224Y-147936939D01*
%TO.N,ROW9*%
X212010092Y-140968359D02*
X217047414Y-147062520D01*
X191008016Y-119889266D02*
X191008014Y-120021313D01*
X191008014Y-120021313D02*
X212010092Y-140968359D01*
X212010092Y-140968359D02*
X212462882Y-140224529D01*
X212462882Y-140224529D02*
X230810993Y-135761919D01*
X230810993Y-135761919D02*
X232048602Y-136515292D01*
%TO.N,Net-(D53-Pad2)*%
X205839970Y-142469051D02*
X208414903Y-141842778D01*
%TO.N,ROW0*%
X170105794Y-81337216D02*
X168431571Y-78586845D01*
X115114931Y-65609746D02*
X119114035Y-63175384D01*
X175768016Y-109729268D02*
X170675638Y-104636889D01*
X95464034Y-65796966D02*
X102531467Y-61494829D01*
X139418523Y-70475225D02*
X139428806Y-70468963D01*
X76953664Y-61294891D02*
X78191276Y-60541523D01*
X134976034Y-69394726D02*
X139418523Y-70475225D01*
X134042149Y-67860562D02*
X134976034Y-69394726D01*
X133288779Y-66622953D02*
X134042149Y-67860562D01*
X151382305Y-73376286D02*
X152135672Y-74613897D01*
X94710670Y-64559354D02*
X95464034Y-65796966D01*
X114361563Y-64372133D02*
X115114931Y-65609746D01*
X139428806Y-70468963D02*
X151382305Y-73376286D01*
X170675637Y-81907060D02*
X170105794Y-81337216D01*
X119114035Y-63175384D02*
X133288779Y-66622953D01*
X168431571Y-78586845D02*
X152142445Y-74625019D01*
X170675638Y-104636889D02*
X170675637Y-81907060D01*
X102531467Y-61494829D02*
X114361563Y-64372133D01*
X78191276Y-60541523D02*
X94710670Y-64559354D01*
X152142445Y-74625019D02*
X152135672Y-74613897D01*
%TO.N,Net-(D1-Pad2)*%
X70783542Y-59794200D02*
X73358475Y-60420472D01*
%TO.N,Net-(D2-Pad2)*%
X89293911Y-64296274D02*
X91868844Y-64922542D01*
%TO.N,Net-(D3-Pad2)*%
X108944805Y-64109056D02*
X111519743Y-64735322D01*
%TO.N,Net-(D4-Pad2)*%
X127872026Y-66359872D02*
X130446962Y-66986144D01*
%TO.N,Net-(D5-Pad2)*%
X148540484Y-73739478D02*
X145965550Y-73113205D01*
%TO.N,Net-(D6-Pad2)*%
X166510604Y-80462800D02*
X163935673Y-79836521D01*
%TO.N,ROW1*%
X169505516Y-106006767D02*
X175768017Y-112269265D01*
X113761288Y-66840181D02*
X114514655Y-68077794D01*
X91873977Y-68924889D02*
X91879604Y-68934133D01*
X133441873Y-70328611D02*
X134008463Y-71259388D01*
X94863758Y-68265014D02*
X101931189Y-63962880D01*
X169505517Y-83805263D02*
X169505516Y-106006767D01*
X118513761Y-65643435D02*
X132688505Y-69091000D01*
X76353388Y-63762940D02*
X77350079Y-65400275D01*
X151535396Y-77081945D02*
X153970272Y-81081894D01*
X153970272Y-81081894D02*
X168267061Y-84559144D01*
X134008463Y-71259388D02*
X150420992Y-75251233D01*
X77350079Y-65400275D02*
X90355817Y-68563520D01*
X93226422Y-69261703D02*
X94863758Y-68265014D01*
X150420992Y-75251233D02*
X151535396Y-77081945D01*
X101931189Y-63962880D02*
X113761288Y-66840181D01*
X90365061Y-68557893D02*
X91873977Y-68924889D01*
X91879604Y-68934133D02*
X93226422Y-69261703D01*
X132688505Y-69091000D02*
X133441873Y-70328611D01*
X114514655Y-68077794D02*
X118513761Y-65643435D01*
X168267061Y-84559144D02*
X169505517Y-83805263D01*
X90355817Y-68563520D02*
X90365061Y-68557893D01*
%TO.N,Net-(D7-Pad2)*%
X70183264Y-62262247D02*
X72758200Y-62888519D01*
%TO.N,Net-(D8-Pad2)*%
X88693634Y-66764321D02*
X91268569Y-67390596D01*
%TO.N,Net-(D9-Pad2)*%
X108344532Y-66577105D02*
X110919468Y-67203377D01*
%TO.N,Net-(D10-Pad2)*%
X127271750Y-68827920D02*
X129846682Y-69454197D01*
%TO.N,Net-(D11-Pad2)*%
X147940205Y-76207527D02*
X145365273Y-75581256D01*
%TO.N,Net-(D12-Pad2)*%
X165910327Y-82930846D02*
X163335391Y-82304575D01*
%TO.N,ROW2*%
X85459712Y-101520068D02*
X86213081Y-102757677D01*
X142131352Y-110336999D02*
X126228971Y-106469240D01*
X109863081Y-100136097D02*
X105863976Y-102570460D01*
X68940323Y-97502235D02*
X85459712Y-101520068D01*
X125848479Y-106385455D02*
X124914596Y-104851291D01*
X86213081Y-102757677D02*
X93280511Y-98455542D01*
X105110609Y-101332850D02*
X105863976Y-102570460D01*
X160978241Y-118327946D02*
X159266661Y-115516208D01*
X160978241Y-118327946D02*
X164496919Y-114809267D01*
X126218689Y-106475494D02*
X125848479Y-106385455D01*
X124161227Y-103613680D02*
X109863081Y-100136097D01*
X124914596Y-104851291D02*
X124161227Y-103613680D01*
X67702710Y-98255604D02*
X68940323Y-97502235D01*
X164496919Y-114809267D02*
X175768016Y-114809267D01*
X93280511Y-98455542D02*
X105110609Y-101332850D01*
X126228971Y-106469240D02*
X126218689Y-106475494D01*
X142934961Y-111544027D02*
X142884717Y-111574610D01*
X142884717Y-111574610D02*
X142131352Y-110336999D01*
X159266661Y-115516208D02*
X142934961Y-111544027D01*
%TO.N,Net-(D13-Pad2)*%
X61532586Y-96754910D02*
X64107526Y-97381181D01*
%TO.N,Net-(D14-Pad2)*%
X80042957Y-101256989D02*
X82617891Y-101883260D01*
%TO.N,Net-(D15-Pad2)*%
X99693856Y-101069766D02*
X102268785Y-101696040D01*
%TO.N,Net-(D16-Pad2)*%
X118744473Y-103350600D02*
X121319406Y-103976873D01*
%TO.N,Net-(D17-Pad2)*%
X136714592Y-110073918D02*
X139289524Y-110700188D01*
%TO.N,Net-(D18-Pad2)*%
X154808118Y-116827252D02*
X157383051Y-117453525D01*
%TO.N,ROW3*%
X119137605Y-105108801D02*
X119064070Y-104987997D01*
X67102432Y-100723651D02*
X68080446Y-102330304D01*
X159108830Y-121568551D02*
X144737995Y-118073288D01*
X124314317Y-107319338D02*
X123634486Y-106202527D01*
X104510332Y-103800896D02*
X105263700Y-105038508D01*
X160377966Y-120795994D02*
X159108830Y-121568551D01*
X123634486Y-106202527D02*
X119137605Y-105108801D01*
X163824691Y-117349268D02*
X175768018Y-117349268D01*
X144737995Y-118073288D02*
X142284441Y-114042660D01*
X141170034Y-112211945D02*
X124880909Y-108250121D01*
X119064070Y-104987997D02*
X109262806Y-102604146D01*
X142284441Y-114042660D02*
X141170034Y-112211945D01*
X160377966Y-120795994D02*
X163824691Y-117349268D01*
X109262806Y-102604146D02*
X105263700Y-105038508D01*
X84006151Y-106203740D02*
X85612803Y-105225727D01*
X85612803Y-105225727D02*
X92680235Y-100923591D01*
X124880909Y-108250121D02*
X124314317Y-107319338D01*
X92680235Y-100923591D02*
X104510332Y-103800896D01*
X68080446Y-102330304D02*
X84006151Y-106203740D01*
%TO.N,Net-(D19-Pad2)*%
X60932308Y-99222960D02*
X63507243Y-99849232D01*
%TO.N,Net-(D20-Pad2)*%
X79442680Y-103725038D02*
X82017613Y-104351309D01*
%TO.N,Net-(D21-Pad2)*%
X99093575Y-103537817D02*
X101668509Y-104164090D01*
%TO.N,Net-(D22-Pad2)*%
X118144198Y-105818647D02*
X120719128Y-106444920D01*
%TO.N,Net-(D23-Pad2)*%
X136114317Y-112541968D02*
X138689252Y-113168241D01*
%TO.N,Net-(D24-Pad2)*%
X154207842Y-119295304D02*
X156782775Y-119921571D01*
%TO.N,ROW4*%
X144399459Y-136515075D02*
X146080455Y-139276571D01*
X128110334Y-132553253D02*
X144399459Y-136515075D01*
%TO.N,Net-(D25-Pad2)*%
X124515141Y-131678834D02*
X121940209Y-131052560D01*
%TO.N,Net-(D26-Pad2)*%
X139910331Y-137775880D02*
X142485265Y-138402153D01*
%TO.N,ROW9*%
X234482962Y-132516186D02*
X232048602Y-136515292D01*
X248904514Y-129008590D02*
X234482962Y-132516186D01*
X249988711Y-129668569D02*
X248904514Y-129008590D01*
X250018723Y-129791967D02*
X249988711Y-129668569D01*
%TO.N,Net-(D29-Pad2)*%
X202099943Y-80016601D02*
X204674877Y-79390327D01*
%TO.N,Net-(D30-Pad2)*%
X220070067Y-73293281D02*
X222645000Y-72667008D01*
%TO.N,Net-(D31-Pad2)*%
X238040189Y-66569961D02*
X240615121Y-65943689D01*
%TO.N,Net-(D32-Pad2)*%
X257090807Y-64289130D02*
X259665741Y-63662858D01*
%TO.N,Net-(D33-Pad2)*%
X276741703Y-64476348D02*
X279316636Y-63850072D01*
%TO.N,Net-(D34-Pad2)*%
X295252074Y-59974272D02*
X297827007Y-59348002D01*
%TO.N,ROW8*%
X294007652Y-103372302D02*
X310118770Y-99453770D01*
X292516254Y-102464447D02*
X294007652Y-103372302D01*
X213583305Y-117425230D02*
X212852015Y-118156517D01*
X272805331Y-102030420D02*
X277111268Y-104651565D01*
X223421895Y-117167983D02*
X224505204Y-115388354D01*
X238278978Y-107282273D02*
X252330321Y-103864716D01*
X191815265Y-118156517D02*
X191008016Y-117349270D01*
X252330321Y-103864716D02*
X253567933Y-104618088D01*
X277111268Y-104651565D02*
X290685539Y-101350043D01*
X310118770Y-99453770D02*
X311026623Y-97962373D01*
X271281448Y-101102796D02*
X254498712Y-105184678D01*
X217874495Y-118004698D02*
X217295027Y-117425231D01*
X272805331Y-102030420D02*
X271281448Y-101102796D01*
X218476078Y-118370900D02*
X223421895Y-117167983D01*
X235844615Y-111281378D02*
X238278978Y-107282273D01*
X224505204Y-115388354D02*
X234880726Y-112864830D01*
X217295027Y-117425231D02*
X213583305Y-117425230D01*
X290685539Y-101350043D02*
X292516254Y-102464447D01*
X254498712Y-105184678D02*
X253567933Y-104618088D01*
X212852015Y-118156517D02*
X191815265Y-118156517D01*
X217874495Y-118004698D02*
X218476078Y-118370900D01*
X234880726Y-112864830D02*
X235844615Y-111281378D01*
%TO.N,Net-(D35-Pad2)*%
X202700220Y-82484645D02*
X205275156Y-81858375D01*
%TO.N,Net-(D36-Pad2)*%
X220670342Y-75761330D02*
X223245279Y-75135058D01*
%TO.N,Net-(D37-Pad2)*%
X238640464Y-69038009D02*
X241215397Y-68411739D01*
%TO.N,Net-(D38-Pad2)*%
X257691082Y-66757176D02*
X260266019Y-66130906D01*
%TO.N,Net-(D39-Pad2)*%
X277341983Y-66944397D02*
X279916915Y-66318124D01*
%TO.N,Net-(D40-Pad2)*%
X295852349Y-62442322D02*
X298427284Y-61816045D01*
%TO.N,ROW7*%
X216546837Y-114809269D02*
X191008016Y-114809266D01*
X276867568Y-102610840D02*
X285085128Y-100612169D01*
X310426351Y-95494323D02*
X309188737Y-94740954D01*
X217274218Y-115536650D02*
X216546837Y-114809269D01*
X290678369Y-99243030D02*
X291915979Y-99996399D01*
X272265083Y-99809179D02*
X269503588Y-98128183D01*
X233710179Y-107879442D02*
X235244341Y-108813330D01*
X217274218Y-115536650D02*
X219889099Y-111240994D01*
X285085128Y-100612169D02*
X285091388Y-100601892D01*
X272265083Y-99809179D02*
X276867568Y-102610840D01*
X269503588Y-98128183D02*
X252967656Y-102150036D01*
X237678704Y-104814224D02*
X251730044Y-101396670D01*
X235244341Y-108813330D02*
X237678704Y-104814224D01*
X251730044Y-101396670D02*
X252967656Y-102150036D01*
X285091388Y-100601892D02*
X290678369Y-99243030D01*
X219889099Y-111240994D02*
X233710179Y-107879442D01*
X309188737Y-94740954D02*
X292669345Y-98758785D01*
X292669345Y-98758785D02*
X291915979Y-99996399D01*
%TO.N,Net-(D41-Pad2)*%
X211104098Y-117037341D02*
X213679029Y-116411069D01*
%TO.N,Net-(D42-Pad2)*%
X229074215Y-110314022D02*
X231649150Y-109687745D01*
%TO.N,Net-(D43-Pad2)*%
X246797534Y-103650728D02*
X249372469Y-103024453D01*
%TO.N,Net-(D44-Pad2)*%
X266094956Y-101309869D02*
X268669891Y-100683599D01*
%TO.N,Net-(D45-Pad2)*%
X285745852Y-101497087D02*
X288320788Y-100870815D01*
%TO.N,Net-(D46-Pad2)*%
X304256224Y-96995012D02*
X306831156Y-96368741D01*
%TO.N,ROW6*%
X263861208Y-65256487D02*
X262030493Y-64142083D01*
X209563977Y-81406192D02*
X213942141Y-80341339D01*
X243572976Y-66783949D02*
X244810588Y-67537319D01*
X208870345Y-80983958D02*
X209563977Y-81406192D01*
X262030493Y-64142083D02*
X245741367Y-68103907D01*
X229274833Y-70261531D02*
X243572976Y-66783949D01*
X268453414Y-68051890D02*
X263861208Y-65256487D01*
X211295711Y-91981573D02*
X191008017Y-112269268D01*
X283512102Y-65443705D02*
X282274492Y-64690335D01*
X282274492Y-64690335D02*
X268453414Y-68051890D01*
X226840466Y-74260639D02*
X229274833Y-70261531D01*
X285064866Y-66388917D02*
X283512102Y-65443705D01*
X215081484Y-78469660D02*
X225876580Y-75844085D01*
X301077266Y-62494396D02*
X285064866Y-66388917D01*
X208870345Y-80983958D02*
X211295710Y-83409324D01*
X213942141Y-80341339D02*
X215081484Y-78469660D01*
X225876580Y-75844085D02*
X226840466Y-74260639D01*
X245741367Y-68103907D02*
X244810588Y-67537319D01*
X211295710Y-83409324D02*
X211295711Y-91981573D01*
X302022477Y-60941629D02*
X301077266Y-62494396D01*
%TO.N,Net-(D47-Pad2)*%
X211704372Y-119505391D02*
X214279304Y-118879118D01*
%TO.N,Net-(D48-Pad2)*%
X229674493Y-112782073D02*
X232249427Y-112155798D01*
%TO.N,Net-(D49-Pad2)*%
X247397810Y-106118780D02*
X249972747Y-105492504D01*
%TO.N,Net-(D50-Pad2)*%
X266635206Y-103531115D02*
X269210142Y-102904843D01*
%TO.N,Net-(D51-Pad2)*%
X286346129Y-103965141D02*
X288921064Y-103338865D01*
%TO.N,Net-(D52-Pad2)*%
X304856502Y-99463061D02*
X307431435Y-98836790D01*
%TO.N,ROW5*%
X281674215Y-62222289D02*
X267853141Y-65583836D01*
X225002577Y-71039220D02*
X226240189Y-71792587D01*
X282911827Y-62975656D02*
X283665195Y-61738047D01*
X208270067Y-78515907D02*
X207690598Y-77936438D01*
X283665195Y-61738047D02*
X300184585Y-57720216D01*
X207690598Y-77936438D02*
X202731225Y-77936439D01*
X193548016Y-87119648D02*
X193548014Y-107189268D01*
X282911827Y-62975656D02*
X281674215Y-62222289D01*
X202731225Y-77936439D02*
X193548016Y-87119648D01*
X193548014Y-107189268D02*
X191008015Y-109729267D01*
X226240189Y-71792587D02*
X228674553Y-67793484D01*
X244210313Y-65069265D02*
X260499439Y-61107438D01*
X210704432Y-74516803D02*
X225002577Y-71039220D01*
X267853141Y-65583836D02*
X263260930Y-62788437D01*
X300184585Y-57720216D02*
X301422197Y-58473581D01*
X228674553Y-67793484D02*
X242972700Y-64315900D01*
X242972700Y-64315900D02*
X244210313Y-65069265D01*
X260499439Y-61107438D02*
X263260930Y-62788437D01*
X208270067Y-78515907D02*
X210704432Y-74516803D01*
%TO.N,Net-(D55-Pad2)*%
X225878477Y-138015983D02*
X228453411Y-137389710D01*
%TO.N,Net-(D56-Pad2)*%
X243848599Y-131292662D02*
X246423532Y-130666386D01*
%TO.N,COL0*%
X181102016Y-64054519D02*
X183388014Y-61768517D01*
X181102014Y-86615268D02*
X181102016Y-64054519D01*
X175768016Y-91949267D02*
X181102014Y-86615268D01*
%TO.N,COL1*%
X181864017Y-64562515D02*
X181864016Y-88393266D01*
X183388016Y-63038519D02*
X181864017Y-64562515D01*
X181864016Y-88393266D02*
X175768017Y-94489266D01*
%TO.N,COL2*%
X175768015Y-107189268D02*
X182626017Y-100331268D01*
X182626017Y-100331268D02*
X182626014Y-65070519D01*
X182626014Y-65070519D02*
X183388014Y-64308518D01*
%TO.N,COL3*%
X184912016Y-96013268D02*
X191008014Y-102109266D01*
X184912015Y-67102518D02*
X184912016Y-96013268D01*
X183388016Y-65578517D02*
X184912015Y-67102518D01*
%TO.N,COL4*%
X183388016Y-66848518D02*
X184112528Y-67573027D01*
X184112525Y-97753779D02*
X191008018Y-104649265D01*
X184112528Y-67573027D02*
X184112525Y-97753779D01*
%TO.N,COL5*%
X183388014Y-68118518D02*
X183388014Y-99569267D01*
X183388014Y-99569267D02*
X191008015Y-107189265D01*
%TO.N,Net-(SW1-Pad1)*%
X193040015Y-61550215D02*
X193040017Y-94997267D01*
X201599790Y-52990443D02*
X193040015Y-61550215D01*
X193040017Y-94997267D02*
X191008016Y-97029267D01*
%TO.N,GND*%
X192278016Y-93219268D02*
X191008015Y-94489265D01*
X195148239Y-53818290D02*
X192278015Y-56688518D01*
X195148241Y-53782592D02*
X195148239Y-53818290D01*
X192278015Y-56688518D02*
X192278016Y-93219268D01*
%TD*%
M02*
