%FSLAX45Y45*%
G04 Gerber Fmt 4.5, Leading zero omitted, Abs format (unit mm)*
G04 Created by KiCad (PCBNEW (6.0.0-0)) date 2022-01-06 19:14:08*
%MOMM*%
%LPD*%
G01*
G04 APERTURE LIST*
%TA.AperFunction,Profile*%
%ADD10C,0.100000*%
%TD*%
%ADD11C,0.200000*%
%ADD12C,0.040000*%
%ADD13C,0.080000*%
%ADD14C,0.109220*%
%ADD15C,0.130000*%
G04 APERTURE END LIST*
D10*
X26303802Y-13497852D02*
X26288802Y-13523852D01*
X17011802Y-5195852D02*
X17436802Y-5236852D01*
X17436802Y-5236852D02*
X17873802Y-5267852D01*
X14497802Y-4550852D02*
X14971802Y-4730852D01*
X13252802Y-16570852D02*
X13048802Y-16499852D01*
X11212802Y-15750852D02*
X11029802Y-15665852D01*
X26562802Y-15032852D02*
X26561802Y-15072852D01*
X10126802Y-15124852D02*
X10120802Y-15098852D01*
X11835802Y-16024852D02*
X11614802Y-15928852D01*
X11592802Y-3651852D02*
X11956802Y-3715852D01*
X25236802Y-15853852D02*
X25062802Y-15928852D01*
X22179802Y-4550852D02*
X22677802Y-4348852D01*
X10249802Y-13395852D02*
X10209802Y-13380852D01*
X18338802Y-17506252D02*
X18220802Y-17506852D01*
X4408802Y-11975852D02*
X4371802Y-11965852D01*
X6339802Y-3454852D02*
X7021802Y-3435852D01*
X7518802Y-3424852D02*
X7964802Y-3422852D01*
X23532802Y-4024852D02*
X24078802Y-3862852D01*
X12540802Y-16311852D02*
X12312802Y-16220852D01*
X4334802Y-11954852D02*
X4295802Y-11935852D01*
X22141802Y-16972852D02*
X21892802Y-17041852D01*
X6156802Y-3534852D02*
X6180802Y-3513852D01*
X26446802Y-15274852D02*
X26421802Y-15292852D01*
X32381802Y-11935852D02*
X32342802Y-11954852D01*
X16600802Y-17397852D02*
X16371802Y-17366852D01*
X17762802Y-17502852D02*
X17296802Y-17471852D01*
X21196802Y-14490852D02*
G75*
G03*
X21196802Y-14490852I-100000J0D01*
G01*
X10168802Y-15209852D02*
X10153802Y-15186852D01*
X10388802Y-13523852D02*
X10373802Y-13497852D01*
X11213802Y-3594852D02*
X11592802Y-3651852D01*
X12068802Y-16123852D02*
X11835802Y-16024852D01*
X10114802Y-15032852D02*
X10116802Y-15003852D01*
X32226802Y-11611852D02*
G75*
G03*
X32226802Y-11611852I-100000J0D01*
G01*
X6072802Y-3668852D02*
X6080802Y-3648852D01*
X6521802Y-3804852D02*
G75*
G03*
X6521802Y-3804852I-100000J0D01*
G01*
X12312802Y-16220852D02*
X12068802Y-16123852D01*
X26265802Y-13571852D02*
X26256802Y-13604852D01*
X26508802Y-15209852D02*
X26489802Y-15233852D01*
X15274802Y-17159852D02*
X15045802Y-17105852D01*
X13999802Y-4348852D02*
X14497802Y-4550852D01*
X10209802Y-13380852D02*
X4408802Y-11975852D01*
X10732802Y-15525852D02*
X10313802Y-15323852D01*
X20076802Y-17397852D02*
X19678802Y-17447852D01*
X10286802Y-15309852D02*
X10255802Y-15292852D01*
X21211802Y-4891852D02*
X21705802Y-4730852D01*
X6205802Y-3496852D02*
X6237802Y-3479852D01*
X10354802Y-13474852D02*
X10331802Y-13449852D01*
X28712802Y-3422852D02*
X29158802Y-3424852D01*
X26489802Y-15233852D02*
X26471802Y-15254852D01*
X10331802Y-13449852D02*
X10308802Y-13431852D01*
X30471802Y-3496852D02*
X30496802Y-3513852D01*
X16121802Y-17327852D02*
X15726802Y-17253852D01*
X10230802Y-15274852D02*
X10205802Y-15254852D01*
X13144802Y-4024852D02*
X13661802Y-4212852D01*
X14095802Y-16846852D02*
X13825802Y-16763852D01*
X4227802Y-11883852D02*
X4203802Y-11858852D01*
X30496802Y-3513852D02*
X30520802Y-3534852D01*
X18803802Y-5267852D02*
X19240802Y-5236852D01*
X10421802Y-13732852D02*
X10426802Y-13700852D01*
X24732802Y-4115852D02*
G75*
G03*
X24732802Y-4115852I-100000J0D01*
G01*
X32530802Y-11618852D02*
X32536802Y-11657852D01*
X26390802Y-15309852D02*
X26363802Y-15323852D01*
X10116802Y-15003852D02*
X10121802Y-14974852D01*
X16371802Y-17366852D02*
X16121802Y-17327852D01*
X19240802Y-5236852D02*
X19665802Y-5195852D01*
X26276802Y-13543852D02*
X26265802Y-13571852D01*
X13825802Y-16763852D02*
X13630802Y-16701852D01*
X20354802Y-5092852D02*
X20653802Y-5032852D01*
X26368802Y-13431852D02*
X26345802Y-13449852D01*
X15045802Y-17105852D02*
X14784802Y-17041852D01*
X6094802Y-3614852D02*
X6111802Y-3586852D01*
X32536802Y-11657852D02*
X32535802Y-11690852D01*
X16322802Y-5092852D02*
X16733802Y-5158852D01*
X20950802Y-17253852D02*
X20555802Y-17327852D01*
X24608802Y-16123852D02*
X24364802Y-16220852D01*
X19380802Y-17471852D02*
X18914802Y-17502852D01*
X30565802Y-3586852D02*
X30582802Y-3614852D01*
X25062802Y-15928852D02*
X24841802Y-16024852D01*
X6133802Y-3557852D02*
X6156802Y-3534852D01*
X30543802Y-3557852D02*
X30565802Y-3586852D01*
X10337802Y-3500852D02*
X10784802Y-3541852D01*
X4146802Y-11618852D02*
X4156802Y-11578852D01*
X14311802Y-16910852D02*
X14095802Y-16846852D01*
X30406802Y-3467852D02*
X30439802Y-3479852D01*
X17873802Y-5267852D02*
X18338802Y-5287852D01*
X4153802Y-11760852D02*
X4146802Y-11728852D01*
X26261802Y-13761852D02*
X26555802Y-14974852D01*
X30355802Y-3804852D02*
G75*
G03*
X30355802Y-3804852I-100000J0D01*
G01*
X7964802Y-3422852D02*
X8601802Y-3423852D01*
X22677802Y-4348852D02*
X23015802Y-4212852D01*
X7021802Y-3435852D02*
X7518802Y-3424852D01*
X32510802Y-11795852D02*
X32494802Y-11827852D01*
X23628802Y-16499852D02*
X23424802Y-16570852D01*
X26555802Y-14974852D02*
X26560802Y-15003852D01*
X30337802Y-3454852D02*
X30375802Y-3459852D01*
X23015802Y-4212852D02*
X23532802Y-4024852D01*
X22851802Y-16763852D02*
X22581802Y-16846852D01*
X6237802Y-3479852D02*
X6270802Y-3467852D01*
X26840802Y-3466852D02*
X27430802Y-3437852D01*
X26278801Y-14994852D02*
G75*
G03*
X26278801Y-14994852I-100000J0D01*
G01*
X4140802Y-11657852D02*
X4146802Y-11618852D01*
X20222802Y-16751852D02*
G75*
G03*
X20222802Y-16751852I-100000J0D01*
G01*
X10308802Y-13431852D02*
X10280802Y-13412852D01*
X32268802Y-11975852D02*
X26467802Y-13380852D01*
X22581802Y-16846852D02*
X22365802Y-16910852D01*
X6180802Y-3513852D02*
X6205802Y-3496852D01*
X24364802Y-16220852D02*
X24136802Y-16311852D01*
X16654802Y-16751852D02*
G75*
G03*
X16654802Y-16751852I-100000J0D01*
G01*
X15465802Y-4891852D02*
X16023802Y-5032852D01*
X10138802Y-15155852D02*
X10126802Y-15124852D01*
X20683802Y-5620852D02*
G75*
G03*
X20683802Y-5620852I-100000J0D01*
G01*
X30582802Y-3614852D02*
X30596802Y-3648852D01*
X13661802Y-4212852D02*
X13999802Y-4348852D01*
X4156802Y-11578852D02*
X6062802Y-3706852D01*
X32449802Y-11883852D02*
X32416802Y-11913852D01*
X10373802Y-13497852D02*
X10354802Y-13474852D01*
X10313802Y-15323852D02*
X10286802Y-15309852D01*
X21705802Y-4730852D02*
X22179802Y-4550852D01*
X10280802Y-13412852D02*
X10249802Y-13395852D01*
X15726802Y-17253852D02*
X15540802Y-17216852D01*
X10426802Y-13700852D02*
X10427802Y-13671852D01*
X25464802Y-15750852D02*
X25236802Y-15853852D01*
X25892802Y-3541852D02*
X26339802Y-3500852D01*
X10115802Y-15072852D02*
X10114802Y-15032852D01*
X12144801Y-4115852D02*
G75*
G03*
X12144801Y-4115852I-100000J0D01*
G01*
X10205802Y-15254852D02*
X10187802Y-15233852D01*
X32416802Y-11913852D02*
X32381802Y-11935852D01*
X26396802Y-13412852D02*
X26368802Y-13431852D01*
X26550802Y-15124852D02*
X26538802Y-15155852D01*
X6062802Y-3706852D02*
X6072802Y-3668852D01*
X19678802Y-17447852D02*
X19380802Y-17471852D01*
X11614802Y-15928852D02*
X11440802Y-15853852D01*
X26251802Y-13635852D02*
X26249802Y-13671852D01*
X12598802Y-3862852D02*
X13144802Y-4024852D01*
X26560802Y-15003852D02*
X26562802Y-15032852D01*
X26363802Y-15323852D02*
X25944802Y-15525852D01*
X11029802Y-15665852D02*
X10732802Y-15525852D01*
X32530802Y-11728852D02*
X32523802Y-11760852D01*
X30520802Y-3534852D02*
X30543802Y-3557852D01*
X10411802Y-13571852D02*
X10400802Y-13543852D01*
X13630802Y-16701852D02*
X13480802Y-16649852D01*
X26250802Y-13700852D02*
X26255802Y-13732852D01*
X10255802Y-15292852D02*
X10230802Y-15274852D01*
X14784802Y-17041852D02*
X14535802Y-16972852D01*
X32520802Y-11578852D02*
X32530802Y-11618852D01*
X18456802Y-17506852D02*
X18338802Y-17506252D01*
X10400802Y-13543852D02*
X10388802Y-13523852D01*
X20305802Y-17366852D02*
X20076802Y-17397852D01*
X26256802Y-13604852D02*
X26251802Y-13635852D01*
X24136802Y-16311852D02*
X23889802Y-16404852D01*
X4146802Y-11728852D02*
X4141802Y-11690852D01*
X8601802Y-3423852D02*
X9246802Y-3437852D01*
X26561802Y-15072852D02*
X26556802Y-15098852D01*
X10427802Y-13671852D02*
X10425802Y-13635852D01*
X23889802Y-16404852D02*
X23628802Y-16499852D01*
X9836802Y-3466852D02*
X10337802Y-3500852D01*
X17296802Y-17471852D02*
X16998802Y-17447852D01*
X32494802Y-11827852D02*
X32473802Y-11858852D01*
X23424802Y-16570852D02*
X23196802Y-16649852D01*
X11440802Y-15853852D02*
X11212802Y-15750852D01*
X21892802Y-17041852D02*
X21631802Y-17105852D01*
X26345802Y-13449852D02*
X26322802Y-13474852D01*
X10121802Y-14974852D02*
X10415802Y-13761852D01*
X26471802Y-15254852D02*
X26446802Y-15274852D01*
X4203802Y-11858852D02*
X4182802Y-11827852D01*
X10153802Y-15186852D02*
X10138802Y-15155852D01*
X20653802Y-5032852D02*
X21211802Y-4891852D01*
X6080802Y-3648852D02*
X6094802Y-3614852D01*
X21631802Y-17105852D02*
X21402802Y-17159852D01*
X10784802Y-3541852D02*
X11213802Y-3594852D01*
X16733802Y-5158852D02*
X17011802Y-5195852D01*
X12787802Y-16404852D02*
X12540802Y-16311852D01*
X25084802Y-3651852D02*
X25463802Y-3594852D01*
X6111802Y-3586852D02*
X6133802Y-3557852D01*
X26467802Y-13380852D02*
X26427802Y-13395852D01*
X11956802Y-3715852D02*
X12598802Y-3862852D01*
X20555802Y-17327852D02*
X20305802Y-17366852D01*
X26288802Y-13523852D02*
X26276802Y-13543852D01*
X30604802Y-3668852D02*
X30614802Y-3706852D01*
X29158802Y-3424852D02*
X29655802Y-3435852D01*
X4182802Y-11827852D02*
X4166802Y-11795852D01*
X26322802Y-13474852D02*
X26303802Y-13497852D01*
X4260802Y-11913852D02*
X4227802Y-11883852D01*
X13480802Y-16649852D02*
X13252802Y-16570852D01*
X9246802Y-3437852D02*
X9836802Y-3466852D01*
X25944802Y-15525852D02*
X25647802Y-15665852D01*
X27430802Y-3437852D02*
X28075802Y-3423852D01*
X4295802Y-11935852D02*
X4260802Y-11913852D01*
X28075802Y-3423852D02*
X28712802Y-3422852D01*
X26538802Y-15155852D02*
X26523802Y-15186852D01*
X30596802Y-3648852D02*
X30604802Y-3668852D01*
X26249802Y-13671852D02*
X26250802Y-13700852D01*
X4166802Y-11795852D02*
X4153802Y-11760852D01*
X29655802Y-3435852D02*
X30337802Y-3454852D01*
X24720802Y-3715852D02*
X25084802Y-3651852D01*
X4141802Y-11690852D02*
X4140802Y-11657852D01*
X32473802Y-11858852D02*
X32449802Y-11883852D01*
X14535802Y-16972852D02*
X14311802Y-16910852D01*
X18914802Y-17502852D02*
X18456802Y-17506852D01*
X4371802Y-11965852D02*
X4334802Y-11954852D01*
X24078802Y-3862852D02*
X24720802Y-3715852D01*
X32305802Y-11965852D02*
X32268802Y-11975852D01*
X21402802Y-17159852D02*
X21136802Y-17216852D01*
X32523802Y-11760852D02*
X32510802Y-11795852D01*
X10598802Y-14993852D02*
G75*
G03*
X10598802Y-14993852I-100000J0D01*
G01*
X26556802Y-15098852D02*
X26550802Y-15124852D01*
X16193802Y-5620852D02*
G75*
G03*
X16193802Y-5620852I-100000J0D01*
G01*
X15540802Y-17216852D02*
X15274802Y-17159852D01*
X18338802Y-5287852D02*
X18803802Y-5267852D01*
X10420802Y-13604852D02*
X10411802Y-13571852D01*
X25647802Y-15665852D02*
X25464802Y-15750852D01*
X26339802Y-3500852D02*
X26840802Y-3466852D01*
X10415802Y-13761852D02*
X10421802Y-13732852D01*
X30439802Y-3479852D02*
X30471802Y-3496852D01*
X19665802Y-5195852D02*
X19943802Y-5158852D01*
X4650802Y-11611852D02*
G75*
G03*
X4650802Y-11611852I-100000J0D01*
G01*
X30614802Y-3706852D02*
X32520802Y-11578852D01*
X19943802Y-5158852D02*
X20354802Y-5092852D01*
X24841802Y-16024852D02*
X24608802Y-16123852D01*
X23046802Y-16701852D02*
X22851802Y-16763852D01*
X18220802Y-17506852D02*
X17762802Y-17502852D01*
X25463802Y-3594852D02*
X25892802Y-3541852D01*
X32342802Y-11954852D02*
X32305802Y-11965852D01*
X16998802Y-17447852D02*
X16600802Y-17397852D01*
X10187802Y-15233852D02*
X10168802Y-15209852D01*
X10425802Y-13635852D02*
X10420802Y-13604852D01*
X21136802Y-17216852D02*
X20950802Y-17253852D01*
X16023802Y-5032852D02*
X16322802Y-5092852D01*
X15680802Y-14491852D02*
G75*
G03*
X15680802Y-14491852I-100000J0D01*
G01*
X30375802Y-3459852D02*
X30406802Y-3467852D01*
X10120802Y-15098852D02*
X10115802Y-15072852D01*
X23196802Y-16649852D02*
X23046802Y-16701852D01*
X13048802Y-16499852D02*
X12787802Y-16404852D01*
X26421802Y-15292852D02*
X26390802Y-15309852D01*
X26427802Y-13395852D02*
X26396802Y-13412852D01*
X6301802Y-3459852D02*
X6339802Y-3454852D01*
X26523802Y-15186852D02*
X26508802Y-15209852D01*
X26255802Y-13732852D02*
X26261802Y-13761852D01*
X22365802Y-16910852D02*
X22141802Y-16972852D01*
X6270802Y-3467852D02*
X6301802Y-3459852D01*
X14971802Y-4730852D02*
X15465802Y-4891852D01*
X32535802Y-11690852D02*
X32530802Y-11728852D01*
D11*
D12*
X18318802Y-6157852D02*
X18358802Y-6197852D01*
X18358802Y-6157852D02*
X18318802Y-6197852D01*
X18318802Y-6538852D02*
X18358802Y-6578852D01*
X18358802Y-6538852D02*
X18318802Y-6578852D01*
X18318802Y-6411852D02*
X18358802Y-6451852D01*
X18358802Y-6411852D02*
X18318802Y-6451852D01*
X18318802Y-6792852D02*
X18358802Y-6832852D01*
X18358802Y-6792852D02*
X18318802Y-6832852D01*
X18318802Y-6284852D02*
X18358802Y-6324852D01*
X18358802Y-6284852D02*
X18318802Y-6324852D01*
X18318802Y-6665852D02*
X18358802Y-6705852D01*
X18358802Y-6665852D02*
X18318802Y-6705852D01*
D13*
X6133231Y-9923296D02*
G75*
G03*
X6133231Y-9923296I-40000J0D01*
G01*
X6193259Y-9676491D02*
G75*
G03*
X6193259Y-9676491I-40000J0D01*
G01*
X6750243Y-10073365D02*
G75*
G03*
X6750243Y-10073365I-40000J0D01*
G01*
X6810271Y-9826560D02*
G75*
G03*
X6810271Y-9826560I-40000J0D01*
G01*
X7058326Y-6227225D02*
G75*
G03*
X7058326Y-6227225I-40000J0D01*
G01*
X7118354Y-5980420D02*
G75*
G03*
X7118354Y-5980420I-40000J0D01*
G01*
X7675339Y-6377294D02*
G75*
G03*
X7675339Y-6377294I-40000J0D01*
G01*
X7735366Y-6130489D02*
G75*
G03*
X7735366Y-6130489I-40000J0D01*
G01*
X7984268Y-10373504D02*
G75*
G03*
X7984268Y-10373504I-40000J0D01*
G01*
X8044296Y-10126699D02*
G75*
G03*
X8044296Y-10126699I-40000J0D01*
G01*
X8601280Y-10523573D02*
G75*
G03*
X8601280Y-10523573I-40000J0D01*
G01*
X8661308Y-10276768D02*
G75*
G03*
X8661308Y-10276768I-40000J0D01*
G01*
X8909363Y-6677432D02*
G75*
G03*
X8909363Y-6677432I-40000J0D01*
G01*
X8969391Y-6430627D02*
G75*
G03*
X8969391Y-6430627I-40000J0D01*
G01*
X9526376Y-6827501D02*
G75*
G03*
X9526376Y-6827501I-40000J0D01*
G01*
X9586404Y-6580696D02*
G75*
G03*
X9586404Y-6580696I-40000J0D01*
G01*
X9949358Y-10354782D02*
G75*
G03*
X9949358Y-10354782I-40000J0D01*
G01*
X10009385Y-10107977D02*
G75*
G03*
X10009385Y-10107977I-40000J0D01*
G01*
X10566370Y-10504851D02*
G75*
G03*
X10566370Y-10504851I-40000J0D01*
G01*
X10626398Y-10258046D02*
G75*
G03*
X10626398Y-10258046I-40000J0D01*
G01*
X10874453Y-6658710D02*
G75*
G03*
X10874453Y-6658710I-40000J0D01*
G01*
X10934481Y-6411905D02*
G75*
G03*
X10934481Y-6411905I-40000J0D01*
G01*
X11491466Y-6808779D02*
G75*
G03*
X11491466Y-6808779I-40000J0D01*
G01*
X11551493Y-6561975D02*
G75*
G03*
X11551493Y-6561975I-40000J0D01*
G01*
X11854419Y-10582865D02*
G75*
G03*
X11854419Y-10582865I-40000J0D01*
G01*
X11914447Y-10336060D02*
G75*
G03*
X11914447Y-10336060I-40000J0D01*
G01*
X12234021Y-13106256D02*
G75*
G03*
X12234021Y-13106256I-40000J0D01*
G01*
X12471432Y-10732934D02*
G75*
G03*
X12471432Y-10732934I-40000J0D01*
G01*
X12531460Y-10486129D02*
G75*
G03*
X12531460Y-10486129I-40000J0D01*
G01*
X12767175Y-6883792D02*
G75*
G03*
X12767175Y-6883792I-40000J0D01*
G01*
X12827203Y-6636987D02*
G75*
G03*
X12827203Y-6636987I-40000J0D01*
G01*
X12851033Y-13256325D02*
G75*
G03*
X12851033Y-13256325I-40000J0D01*
G01*
X13384187Y-7033861D02*
G75*
G03*
X13384187Y-7033861I-40000J0D01*
G01*
X13444215Y-6787056D02*
G75*
G03*
X13444215Y-6787056I-40000J0D01*
G01*
X13651432Y-11255197D02*
G75*
G03*
X13651432Y-11255197I-40000J0D01*
G01*
X13711459Y-11008392D02*
G75*
G03*
X13711459Y-11008392I-40000J0D01*
G01*
X14031033Y-13778588D02*
G75*
G03*
X14031033Y-13778588I-40000J0D01*
G01*
X14268444Y-11405266D02*
G75*
G03*
X14268444Y-11405266I-40000J0D01*
G01*
X14328472Y-11158461D02*
G75*
G03*
X14328472Y-11158461I-40000J0D01*
G01*
X14576527Y-7559125D02*
G75*
G03*
X14576527Y-7559125I-40000J0D01*
G01*
X14636555Y-7312320D02*
G75*
G03*
X14636555Y-7312320I-40000J0D01*
G01*
X14648046Y-13928657D02*
G75*
G03*
X14648046Y-13928657I-40000J0D01*
G01*
X15022270Y-14647047D02*
G75*
G03*
X15022270Y-14647047I-40000J0D01*
G01*
X15193540Y-7709194D02*
G75*
G03*
X15193540Y-7709194I-40000J0D01*
G01*
X15253567Y-7462390D02*
G75*
G03*
X15253567Y-7462390I-40000J0D01*
G01*
X15460784Y-11930530D02*
G75*
G03*
X15460784Y-11930530I-40000J0D01*
G01*
X15505860Y-14163434D02*
G75*
G03*
X15505860Y-14163434I-40000J0D01*
G01*
X15520812Y-11683725D02*
G75*
G03*
X15520812Y-11683725I-40000J0D01*
G01*
X15639282Y-14797116D02*
G75*
G03*
X15639282Y-14797116I-40000J0D01*
G01*
X16077797Y-12080599D02*
G75*
G03*
X16077797Y-12080599I-40000J0D01*
G01*
X16122872Y-14313503D02*
G75*
G03*
X16122872Y-14313503I-40000J0D01*
G01*
X16137824Y-11833794D02*
G75*
G03*
X16137824Y-11833794I-40000J0D01*
G01*
X16373539Y-8231457D02*
G75*
G03*
X16373539Y-8231457I-40000J0D01*
G01*
X16433567Y-7984652D02*
G75*
G03*
X16433567Y-7984652I-40000J0D01*
G01*
X16990552Y-8381526D02*
G75*
G03*
X16990552Y-8381526I-40000J0D01*
G01*
X17050580Y-8134722D02*
G75*
G03*
X17050580Y-8134722I-40000J0D01*
G01*
X20249995Y-8002660D02*
G75*
G03*
X20249995Y-8002660I-40000J0D01*
G01*
X20310022Y-8249465D02*
G75*
G03*
X20310022Y-8249465I-40000J0D01*
G01*
X20653409Y-14282820D02*
G75*
G03*
X20653409Y-14282820I-40000J0D01*
G01*
X20867007Y-7852591D02*
G75*
G03*
X20867007Y-7852591I-40000J0D01*
G01*
X20927035Y-8099396D02*
G75*
G03*
X20927035Y-8099396I-40000J0D01*
G01*
X21099643Y-14827799D02*
G75*
G03*
X21099643Y-14827799I-40000J0D01*
G01*
X21150409Y-11704734D02*
G75*
G03*
X21150409Y-11704734I-40000J0D01*
G01*
X21210437Y-11951539D02*
G75*
G03*
X21210437Y-11951539I-40000J0D01*
G01*
X21270421Y-14132750D02*
G75*
G03*
X21270421Y-14132750I-40000J0D01*
G01*
X21716656Y-14677729D02*
G75*
G03*
X21716656Y-14677729I-40000J0D01*
G01*
X21767422Y-11554665D02*
G75*
G03*
X21767422Y-11554665I-40000J0D01*
G01*
X21827450Y-11801470D02*
G75*
G03*
X21827450Y-11801470I-40000J0D01*
G01*
X22047007Y-7330328D02*
G75*
G03*
X22047007Y-7330328I-40000J0D01*
G01*
X22107034Y-7577133D02*
G75*
G03*
X22107034Y-7577133I-40000J0D01*
G01*
X22627848Y-13802598D02*
G75*
G03*
X22627848Y-13802598I-40000J0D01*
G01*
X22664019Y-7180259D02*
G75*
G03*
X22664019Y-7180259I-40000J0D01*
G01*
X22724047Y-7427064D02*
G75*
G03*
X22724047Y-7427064I-40000J0D01*
G01*
X22947422Y-11032402D02*
G75*
G03*
X22947422Y-11032402I-40000J0D01*
G01*
X23007449Y-11279207D02*
G75*
G03*
X23007449Y-11279207I-40000J0D01*
G01*
X23244860Y-13652529D02*
G75*
G03*
X23244860Y-13652529I-40000J0D01*
G01*
X23564434Y-10882333D02*
G75*
G03*
X23564434Y-10882333I-40000J0D01*
G01*
X23624462Y-11129138D02*
G75*
G03*
X23624462Y-11129138I-40000J0D01*
G01*
X23844019Y-6657996D02*
G75*
G03*
X23844019Y-6657996I-40000J0D01*
G01*
X23904046Y-6904801D02*
G75*
G03*
X23904046Y-6904801I-40000J0D01*
G01*
X24424860Y-13130266D02*
G75*
G03*
X24424860Y-13130266I-40000J0D01*
G01*
X24461031Y-6507927D02*
G75*
G03*
X24461031Y-6507927I-40000J0D01*
G01*
X24521059Y-6754732D02*
G75*
G03*
X24521059Y-6754732I-40000J0D01*
G01*
X24719753Y-10366073D02*
G75*
G03*
X24719753Y-10366073I-40000J0D01*
G01*
X24779781Y-10612878D02*
G75*
G03*
X24779781Y-10612878I-40000J0D01*
G01*
X25041872Y-12980197D02*
G75*
G03*
X25041872Y-12980197I-40000J0D01*
G01*
X25336766Y-10216004D02*
G75*
G03*
X25336766Y-10216004I-40000J0D01*
G01*
X25396793Y-10462809D02*
G75*
G03*
X25396793Y-10462809I-40000J0D01*
G01*
X25749081Y-6429913D02*
G75*
G03*
X25749081Y-6429913I-40000J0D01*
G01*
X25809108Y-6676718D02*
G75*
G03*
X25809108Y-6676718I-40000J0D01*
G01*
X26366093Y-6279844D02*
G75*
G03*
X26366093Y-6279844I-40000J0D01*
G01*
X26426121Y-6526649D02*
G75*
G03*
X26426121Y-6526649I-40000J0D01*
G01*
X26649496Y-10131987D02*
G75*
G03*
X26649496Y-10131987I-40000J0D01*
G01*
X26703521Y-10354111D02*
G75*
G03*
X26703521Y-10354111I-40000J0D01*
G01*
X27266508Y-9981918D02*
G75*
G03*
X27266508Y-9981918I-40000J0D01*
G01*
X27320533Y-10204042D02*
G75*
G03*
X27320533Y-10204042I-40000J0D01*
G01*
X27714170Y-6448635D02*
G75*
G03*
X27714170Y-6448635I-40000J0D01*
G01*
X27774198Y-6695440D02*
G75*
G03*
X27774198Y-6695440I-40000J0D01*
G01*
X28331183Y-6298565D02*
G75*
G03*
X28331183Y-6298565I-40000J0D01*
G01*
X28391210Y-6545371D02*
G75*
G03*
X28391210Y-6545371I-40000J0D01*
G01*
X28614585Y-10150709D02*
G75*
G03*
X28614585Y-10150709I-40000J0D01*
G01*
X28674613Y-10397514D02*
G75*
G03*
X28674613Y-10397514I-40000J0D01*
G01*
X29231598Y-10000640D02*
G75*
G03*
X29231598Y-10000640I-40000J0D01*
G01*
X29291625Y-10247445D02*
G75*
G03*
X29291625Y-10247445I-40000J0D01*
G01*
X29565207Y-5998427D02*
G75*
G03*
X29565207Y-5998427I-40000J0D01*
G01*
X29625235Y-6245232D02*
G75*
G03*
X29625235Y-6245232I-40000J0D01*
G01*
X30182220Y-5848358D02*
G75*
G03*
X30182220Y-5848358I-40000J0D01*
G01*
X30242248Y-6095163D02*
G75*
G03*
X30242248Y-6095163I-40000J0D01*
G01*
X30465623Y-9700501D02*
G75*
G03*
X30465623Y-9700501I-40000J0D01*
G01*
X30525650Y-9947306D02*
G75*
G03*
X30525650Y-9947306I-40000J0D01*
G01*
X31082635Y-9550432D02*
G75*
G03*
X31082635Y-9550432I-40000J0D01*
G01*
X31142662Y-9797237D02*
G75*
G03*
X31142662Y-9797237I-40000J0D01*
G01*
D14*
X17576802Y-9141317D02*
X17576802Y-9250537D01*
X17522192Y-9195927D02*
X17631412Y-9195927D01*
X17576802Y-9395317D02*
X17576802Y-9504537D01*
X17522192Y-9449927D02*
X17631412Y-9449927D01*
X17576802Y-9649317D02*
X17576802Y-9758537D01*
X17522192Y-9703927D02*
X17631412Y-9703927D01*
X17576802Y-9903317D02*
X17576802Y-10012537D01*
X17522192Y-9957927D02*
X17631412Y-9957927D01*
X17576802Y-10157317D02*
X17576802Y-10266537D01*
X17522192Y-10211927D02*
X17631412Y-10211927D01*
X17576802Y-10411317D02*
X17576802Y-10520537D01*
X17522192Y-10465927D02*
X17631412Y-10465927D01*
X17576802Y-10665317D02*
X17576802Y-10774537D01*
X17522192Y-10719927D02*
X17631412Y-10719927D01*
X17576802Y-10919317D02*
X17576802Y-11028537D01*
X17522192Y-10973927D02*
X17631412Y-10973927D01*
X17576802Y-11173317D02*
X17576802Y-11282537D01*
X17522192Y-11227927D02*
X17631412Y-11227927D01*
X17576802Y-11427317D02*
X17576802Y-11536537D01*
X17522192Y-11481927D02*
X17631412Y-11481927D01*
X17576802Y-11681317D02*
X17576802Y-11790537D01*
X17522192Y-11735927D02*
X17631412Y-11735927D01*
X17599662Y-11935317D02*
X17599662Y-12044537D01*
X17545052Y-11989927D02*
X17654272Y-11989927D01*
X17830802Y-11935317D02*
X17830802Y-12044537D01*
X17776192Y-11989927D02*
X17885412Y-11989927D01*
X18084802Y-11935317D02*
X18084802Y-12044537D01*
X18030192Y-11989927D02*
X18139412Y-11989927D01*
X18338802Y-11935317D02*
X18338802Y-12044537D01*
X18284192Y-11989927D02*
X18393412Y-11989927D01*
X18592802Y-11935317D02*
X18592802Y-12044537D01*
X18538192Y-11989927D02*
X18647412Y-11989927D01*
X18846802Y-11935317D02*
X18846802Y-12044537D01*
X18792192Y-11989927D02*
X18901412Y-11989927D01*
X19100802Y-9141317D02*
X19100802Y-9250537D01*
X19046192Y-9195927D02*
X19155412Y-9195927D01*
X19100802Y-9395317D02*
X19100802Y-9504537D01*
X19046192Y-9449927D02*
X19155412Y-9449927D01*
X19100802Y-9649317D02*
X19100802Y-9758537D01*
X19046192Y-9703927D02*
X19155412Y-9703927D01*
X19100802Y-9903317D02*
X19100802Y-10012537D01*
X19046192Y-9957927D02*
X19155412Y-9957927D01*
X19100802Y-10157317D02*
X19100802Y-10266537D01*
X19046192Y-10211927D02*
X19155412Y-10211927D01*
X19100802Y-10411317D02*
X19100802Y-10520537D01*
X19046192Y-10465927D02*
X19155412Y-10465927D01*
X19100802Y-10665317D02*
X19100802Y-10774537D01*
X19046192Y-10719927D02*
X19155412Y-10719927D01*
X19100802Y-10919317D02*
X19100802Y-11028537D01*
X19046192Y-10973927D02*
X19155412Y-10973927D01*
X19100802Y-11173317D02*
X19100802Y-11282537D01*
X19046192Y-11227927D02*
X19155412Y-11227927D01*
X19100802Y-11427317D02*
X19100802Y-11536537D01*
X19046192Y-11481927D02*
X19155412Y-11481927D01*
X19100802Y-11681317D02*
X19100802Y-11790537D01*
X19046192Y-11735927D02*
X19155412Y-11735927D01*
X19100802Y-11935317D02*
X19100802Y-12044537D01*
X19046192Y-11989927D02*
X19155412Y-11989927D01*
D15*
X19560787Y-5425222D02*
X19560787Y-5333297D01*
X19468862Y-5333297D01*
X19468862Y-5425222D01*
X19560787Y-5425222D01*
X20205942Y-5346007D02*
X20205942Y-5254082D01*
X20114017Y-5254082D01*
X20114017Y-5346007D01*
X20205942Y-5346007D01*
D11*
X4393421Y-17822328D02*
X4393421Y-17622328D01*
X4441040Y-17622328D01*
X4469611Y-17631852D01*
X4488659Y-17650899D01*
X4498183Y-17669947D01*
X4507706Y-17708042D01*
X4507706Y-17736614D01*
X4498183Y-17774709D01*
X4488659Y-17793756D01*
X4469611Y-17812804D01*
X4441040Y-17822328D01*
X4393421Y-17822328D01*
X4593421Y-17822328D02*
X4593421Y-17688995D01*
X4593421Y-17727090D02*
X4602944Y-17708042D01*
X4612468Y-17698518D01*
X4631516Y-17688995D01*
X4650564Y-17688995D01*
X4717230Y-17822328D02*
X4717230Y-17688995D01*
X4717230Y-17622328D02*
X4707706Y-17631852D01*
X4717230Y-17641376D01*
X4726754Y-17631852D01*
X4717230Y-17622328D01*
X4717230Y-17641376D01*
X4841040Y-17822328D02*
X4821992Y-17812804D01*
X4812468Y-17793756D01*
X4812468Y-17622328D01*
X4945802Y-17822328D02*
X4926754Y-17812804D01*
X4917230Y-17793756D01*
X4917230Y-17622328D01*
X5174373Y-17822328D02*
X5174373Y-17622328D01*
X5241040Y-17765185D01*
X5307706Y-17622328D01*
X5307706Y-17822328D01*
X5488659Y-17822328D02*
X5488659Y-17717566D01*
X5479135Y-17698518D01*
X5460087Y-17688995D01*
X5421992Y-17688995D01*
X5402944Y-17698518D01*
X5488659Y-17812804D02*
X5469611Y-17822328D01*
X5421992Y-17822328D01*
X5402944Y-17812804D01*
X5393421Y-17793756D01*
X5393421Y-17774709D01*
X5402944Y-17755661D01*
X5421992Y-17746137D01*
X5469611Y-17746137D01*
X5488659Y-17736614D01*
X5583897Y-17688995D02*
X5583897Y-17888995D01*
X5583897Y-17698518D02*
X5602944Y-17688995D01*
X5641040Y-17688995D01*
X5660087Y-17698518D01*
X5669611Y-17708042D01*
X5679135Y-17727090D01*
X5679135Y-17784233D01*
X5669611Y-17803280D01*
X5660087Y-17812804D01*
X5641040Y-17822328D01*
X5602944Y-17822328D01*
X5583897Y-17812804D01*
X5764849Y-17803280D02*
X5774373Y-17812804D01*
X5764849Y-17822328D01*
X5755325Y-17812804D01*
X5764849Y-17803280D01*
X5764849Y-17822328D01*
X5764849Y-17698518D02*
X5774373Y-17708042D01*
X5764849Y-17717566D01*
X5755325Y-17708042D01*
X5764849Y-17698518D01*
X5764849Y-17717566D01*
D12*
X4095802Y-18131852D02*
X4135802Y-18171852D01*
X4135802Y-18131852D02*
X4095802Y-18171852D01*
D11*
X4431516Y-18042328D02*
X4450564Y-18042328D01*
X4469611Y-18051852D01*
X4479135Y-18061376D01*
X4488659Y-18080423D01*
X4498183Y-18118518D01*
X4498183Y-18166137D01*
X4488659Y-18204233D01*
X4479135Y-18223280D01*
X4469611Y-18232804D01*
X4450564Y-18242328D01*
X4431516Y-18242328D01*
X4412468Y-18232804D01*
X4402944Y-18223280D01*
X4393421Y-18204233D01*
X4383897Y-18166137D01*
X4383897Y-18118518D01*
X4393421Y-18080423D01*
X4402944Y-18061376D01*
X4412468Y-18051852D01*
X4431516Y-18042328D01*
X4583897Y-18223280D02*
X4593421Y-18232804D01*
X4583897Y-18242328D01*
X4574373Y-18232804D01*
X4583897Y-18223280D01*
X4583897Y-18242328D01*
X4764849Y-18108995D02*
X4764849Y-18242328D01*
X4717230Y-18032804D02*
X4669611Y-18175661D01*
X4793421Y-18175661D01*
X4907706Y-18042328D02*
X4926754Y-18042328D01*
X4945802Y-18051852D01*
X4955325Y-18061376D01*
X4964849Y-18080423D01*
X4974373Y-18118518D01*
X4974373Y-18166137D01*
X4964849Y-18204233D01*
X4955325Y-18223280D01*
X4945802Y-18232804D01*
X4926754Y-18242328D01*
X4907706Y-18242328D01*
X4888659Y-18232804D01*
X4879135Y-18223280D01*
X4869611Y-18204233D01*
X4860087Y-18166137D01*
X4860087Y-18118518D01*
X4869611Y-18080423D01*
X4879135Y-18061376D01*
X4888659Y-18051852D01*
X4907706Y-18042328D01*
X5098183Y-18042328D02*
X5117230Y-18042328D01*
X5136278Y-18051852D01*
X5145802Y-18061376D01*
X5155325Y-18080423D01*
X5164849Y-18118518D01*
X5164849Y-18166137D01*
X5155325Y-18204233D01*
X5145802Y-18223280D01*
X5136278Y-18232804D01*
X5117230Y-18242328D01*
X5098183Y-18242328D01*
X5079135Y-18232804D01*
X5069611Y-18223280D01*
X5060087Y-18204233D01*
X5050564Y-18166137D01*
X5050564Y-18118518D01*
X5060087Y-18080423D01*
X5069611Y-18061376D01*
X5079135Y-18051852D01*
X5098183Y-18042328D01*
X5250564Y-18242328D02*
X5250564Y-18108995D01*
X5250564Y-18128042D02*
X5260087Y-18118518D01*
X5279135Y-18108995D01*
X5307706Y-18108995D01*
X5326754Y-18118518D01*
X5336278Y-18137566D01*
X5336278Y-18242328D01*
X5336278Y-18137566D02*
X5345802Y-18118518D01*
X5364849Y-18108995D01*
X5393421Y-18108995D01*
X5412468Y-18118518D01*
X5421992Y-18137566D01*
X5421992Y-18242328D01*
X5517230Y-18242328D02*
X5517230Y-18108995D01*
X5517230Y-18128042D02*
X5526754Y-18118518D01*
X5545802Y-18108995D01*
X5574373Y-18108995D01*
X5593421Y-18118518D01*
X5602944Y-18137566D01*
X5602944Y-18242328D01*
X5602944Y-18137566D02*
X5612468Y-18118518D01*
X5631516Y-18108995D01*
X5660087Y-18108995D01*
X5679135Y-18118518D01*
X5688659Y-18137566D01*
X5688659Y-18242328D01*
X6079135Y-18032804D02*
X5907706Y-18289947D01*
X6336278Y-18042328D02*
X6355325Y-18042328D01*
X6374373Y-18051852D01*
X6383897Y-18061376D01*
X6393421Y-18080423D01*
X6402944Y-18118518D01*
X6402944Y-18166137D01*
X6393421Y-18204233D01*
X6383897Y-18223280D01*
X6374373Y-18232804D01*
X6355325Y-18242328D01*
X6336278Y-18242328D01*
X6317230Y-18232804D01*
X6307706Y-18223280D01*
X6298182Y-18204233D01*
X6288659Y-18166137D01*
X6288659Y-18118518D01*
X6298182Y-18080423D01*
X6307706Y-18061376D01*
X6317230Y-18051852D01*
X6336278Y-18042328D01*
X6488659Y-18223280D02*
X6498182Y-18232804D01*
X6488659Y-18242328D01*
X6479135Y-18232804D01*
X6488659Y-18223280D01*
X6488659Y-18242328D01*
X6621992Y-18042328D02*
X6641040Y-18042328D01*
X6660087Y-18051852D01*
X6669611Y-18061376D01*
X6679135Y-18080423D01*
X6688659Y-18118518D01*
X6688659Y-18166137D01*
X6679135Y-18204233D01*
X6669611Y-18223280D01*
X6660087Y-18232804D01*
X6641040Y-18242328D01*
X6621992Y-18242328D01*
X6602944Y-18232804D01*
X6593421Y-18223280D01*
X6583897Y-18204233D01*
X6574373Y-18166137D01*
X6574373Y-18118518D01*
X6583897Y-18080423D01*
X6593421Y-18061376D01*
X6602944Y-18051852D01*
X6621992Y-18042328D01*
X6879135Y-18242328D02*
X6764849Y-18242328D01*
X6821992Y-18242328D02*
X6821992Y-18042328D01*
X6802944Y-18070899D01*
X6783897Y-18089947D01*
X6764849Y-18099471D01*
X7060087Y-18042328D02*
X6964849Y-18042328D01*
X6955325Y-18137566D01*
X6964849Y-18128042D01*
X6983897Y-18118518D01*
X7031516Y-18118518D01*
X7050563Y-18128042D01*
X7060087Y-18137566D01*
X7069611Y-18156614D01*
X7069611Y-18204233D01*
X7060087Y-18223280D01*
X7050563Y-18232804D01*
X7031516Y-18242328D01*
X6983897Y-18242328D01*
X6964849Y-18232804D01*
X6955325Y-18223280D01*
X7136278Y-18042328D02*
X7269611Y-18042328D01*
X7183897Y-18242328D01*
X7336278Y-18042328D02*
X7336278Y-18080423D01*
X7412468Y-18042328D02*
X7412468Y-18080423D01*
X7707706Y-18318518D02*
X7698182Y-18308995D01*
X7679135Y-18280423D01*
X7669611Y-18261376D01*
X7660087Y-18232804D01*
X7650563Y-18185185D01*
X7650563Y-18147090D01*
X7660087Y-18099471D01*
X7669611Y-18070899D01*
X7679135Y-18051852D01*
X7698182Y-18023280D01*
X7707706Y-18013756D01*
X7869611Y-18042328D02*
X7831516Y-18042328D01*
X7812468Y-18051852D01*
X7802944Y-18061376D01*
X7783897Y-18089947D01*
X7774373Y-18128042D01*
X7774373Y-18204233D01*
X7783897Y-18223280D01*
X7793421Y-18232804D01*
X7812468Y-18242328D01*
X7850563Y-18242328D01*
X7869611Y-18232804D01*
X7879135Y-18223280D01*
X7888659Y-18204233D01*
X7888659Y-18156614D01*
X7879135Y-18137566D01*
X7869611Y-18128042D01*
X7850563Y-18118518D01*
X7812468Y-18118518D01*
X7793421Y-18128042D01*
X7783897Y-18137566D01*
X7774373Y-18156614D01*
X8126754Y-18242328D02*
X8126754Y-18042328D01*
X8212468Y-18242328D02*
X8212468Y-18137566D01*
X8202944Y-18118518D01*
X8183897Y-18108995D01*
X8155325Y-18108995D01*
X8136278Y-18118518D01*
X8126754Y-18128042D01*
X8336278Y-18242328D02*
X8317230Y-18232804D01*
X8307706Y-18223280D01*
X8298182Y-18204233D01*
X8298182Y-18147090D01*
X8307706Y-18128042D01*
X8317230Y-18118518D01*
X8336278Y-18108995D01*
X8364849Y-18108995D01*
X8383897Y-18118518D01*
X8393421Y-18128042D01*
X8402944Y-18147090D01*
X8402944Y-18204233D01*
X8393421Y-18223280D01*
X8383897Y-18232804D01*
X8364849Y-18242328D01*
X8336278Y-18242328D01*
X8517230Y-18242328D02*
X8498183Y-18232804D01*
X8488659Y-18213756D01*
X8488659Y-18042328D01*
X8669611Y-18232804D02*
X8650564Y-18242328D01*
X8612468Y-18242328D01*
X8593421Y-18232804D01*
X8583897Y-18213756D01*
X8583897Y-18137566D01*
X8593421Y-18118518D01*
X8612468Y-18108995D01*
X8650564Y-18108995D01*
X8669611Y-18118518D01*
X8679135Y-18137566D01*
X8679135Y-18156614D01*
X8583897Y-18175661D01*
X8755325Y-18232804D02*
X8774373Y-18242328D01*
X8812468Y-18242328D01*
X8831516Y-18232804D01*
X8841040Y-18213756D01*
X8841040Y-18204233D01*
X8831516Y-18185185D01*
X8812468Y-18175661D01*
X8783897Y-18175661D01*
X8764849Y-18166137D01*
X8755325Y-18147090D01*
X8755325Y-18137566D01*
X8764849Y-18118518D01*
X8783897Y-18108995D01*
X8812468Y-18108995D01*
X8831516Y-18118518D01*
X8907706Y-18318518D02*
X8917230Y-18308995D01*
X8936278Y-18280423D01*
X8945802Y-18261376D01*
X8955325Y-18232804D01*
X8964849Y-18185185D01*
X8964849Y-18147090D01*
X8955325Y-18099471D01*
X8945802Y-18070899D01*
X8936278Y-18051852D01*
X8917230Y-18023280D01*
X8907706Y-18013756D01*
D13*
X4135802Y-18415852D02*
G75*
G03*
X4135802Y-18415852I-40000J0D01*
G01*
D11*
X4431516Y-18306328D02*
X4450564Y-18306328D01*
X4469611Y-18315852D01*
X4479135Y-18325376D01*
X4488659Y-18344423D01*
X4498183Y-18382518D01*
X4498183Y-18430137D01*
X4488659Y-18468233D01*
X4479135Y-18487280D01*
X4469611Y-18496804D01*
X4450564Y-18506328D01*
X4431516Y-18506328D01*
X4412468Y-18496804D01*
X4402944Y-18487280D01*
X4393421Y-18468233D01*
X4383897Y-18430137D01*
X4383897Y-18382518D01*
X4393421Y-18344423D01*
X4402944Y-18325376D01*
X4412468Y-18315852D01*
X4431516Y-18306328D01*
X4583897Y-18487280D02*
X4593421Y-18496804D01*
X4583897Y-18506328D01*
X4574373Y-18496804D01*
X4583897Y-18487280D01*
X4583897Y-18506328D01*
X4707706Y-18392042D02*
X4688659Y-18382518D01*
X4679135Y-18372995D01*
X4669611Y-18353947D01*
X4669611Y-18344423D01*
X4679135Y-18325376D01*
X4688659Y-18315852D01*
X4707706Y-18306328D01*
X4745802Y-18306328D01*
X4764849Y-18315852D01*
X4774373Y-18325376D01*
X4783897Y-18344423D01*
X4783897Y-18353947D01*
X4774373Y-18372995D01*
X4764849Y-18382518D01*
X4745802Y-18392042D01*
X4707706Y-18392042D01*
X4688659Y-18401566D01*
X4679135Y-18411090D01*
X4669611Y-18430137D01*
X4669611Y-18468233D01*
X4679135Y-18487280D01*
X4688659Y-18496804D01*
X4707706Y-18506328D01*
X4745802Y-18506328D01*
X4764849Y-18496804D01*
X4774373Y-18487280D01*
X4783897Y-18468233D01*
X4783897Y-18430137D01*
X4774373Y-18411090D01*
X4764849Y-18401566D01*
X4745802Y-18392042D01*
X4907706Y-18306328D02*
X4926754Y-18306328D01*
X4945802Y-18315852D01*
X4955325Y-18325376D01*
X4964849Y-18344423D01*
X4974373Y-18382518D01*
X4974373Y-18430137D01*
X4964849Y-18468233D01*
X4955325Y-18487280D01*
X4945802Y-18496804D01*
X4926754Y-18506328D01*
X4907706Y-18506328D01*
X4888659Y-18496804D01*
X4879135Y-18487280D01*
X4869611Y-18468233D01*
X4860087Y-18430137D01*
X4860087Y-18382518D01*
X4869611Y-18344423D01*
X4879135Y-18325376D01*
X4888659Y-18315852D01*
X4907706Y-18306328D01*
X5098183Y-18306328D02*
X5117230Y-18306328D01*
X5136278Y-18315852D01*
X5145802Y-18325376D01*
X5155325Y-18344423D01*
X5164849Y-18382518D01*
X5164849Y-18430137D01*
X5155325Y-18468233D01*
X5145802Y-18487280D01*
X5136278Y-18496804D01*
X5117230Y-18506328D01*
X5098183Y-18506328D01*
X5079135Y-18496804D01*
X5069611Y-18487280D01*
X5060087Y-18468233D01*
X5050564Y-18430137D01*
X5050564Y-18382518D01*
X5060087Y-18344423D01*
X5069611Y-18325376D01*
X5079135Y-18315852D01*
X5098183Y-18306328D01*
X5250564Y-18506328D02*
X5250564Y-18372995D01*
X5250564Y-18392042D02*
X5260087Y-18382518D01*
X5279135Y-18372995D01*
X5307706Y-18372995D01*
X5326754Y-18382518D01*
X5336278Y-18401566D01*
X5336278Y-18506328D01*
X5336278Y-18401566D02*
X5345802Y-18382518D01*
X5364849Y-18372995D01*
X5393421Y-18372995D01*
X5412468Y-18382518D01*
X5421992Y-18401566D01*
X5421992Y-18506328D01*
X5517230Y-18506328D02*
X5517230Y-18372995D01*
X5517230Y-18392042D02*
X5526754Y-18382518D01*
X5545802Y-18372995D01*
X5574373Y-18372995D01*
X5593421Y-18382518D01*
X5602944Y-18401566D01*
X5602944Y-18506328D01*
X5602944Y-18401566D02*
X5612468Y-18382518D01*
X5631516Y-18372995D01*
X5660087Y-18372995D01*
X5679135Y-18382518D01*
X5688659Y-18401566D01*
X5688659Y-18506328D01*
X6079135Y-18296804D02*
X5907706Y-18553947D01*
X6336278Y-18306328D02*
X6355325Y-18306328D01*
X6374373Y-18315852D01*
X6383897Y-18325376D01*
X6393421Y-18344423D01*
X6402944Y-18382518D01*
X6402944Y-18430137D01*
X6393421Y-18468233D01*
X6383897Y-18487280D01*
X6374373Y-18496804D01*
X6355325Y-18506328D01*
X6336278Y-18506328D01*
X6317230Y-18496804D01*
X6307706Y-18487280D01*
X6298182Y-18468233D01*
X6288659Y-18430137D01*
X6288659Y-18382518D01*
X6298182Y-18344423D01*
X6307706Y-18325376D01*
X6317230Y-18315852D01*
X6336278Y-18306328D01*
X6488659Y-18487280D02*
X6498182Y-18496804D01*
X6488659Y-18506328D01*
X6479135Y-18496804D01*
X6488659Y-18487280D01*
X6488659Y-18506328D01*
X6621992Y-18306328D02*
X6641040Y-18306328D01*
X6660087Y-18315852D01*
X6669611Y-18325376D01*
X6679135Y-18344423D01*
X6688659Y-18382518D01*
X6688659Y-18430137D01*
X6679135Y-18468233D01*
X6669611Y-18487280D01*
X6660087Y-18496804D01*
X6641040Y-18506328D01*
X6621992Y-18506328D01*
X6602944Y-18496804D01*
X6593421Y-18487280D01*
X6583897Y-18468233D01*
X6574373Y-18430137D01*
X6574373Y-18382518D01*
X6583897Y-18344423D01*
X6593421Y-18325376D01*
X6602944Y-18315852D01*
X6621992Y-18306328D01*
X6755325Y-18306328D02*
X6879135Y-18306328D01*
X6812468Y-18382518D01*
X6841040Y-18382518D01*
X6860087Y-18392042D01*
X6869611Y-18401566D01*
X6879135Y-18420614D01*
X6879135Y-18468233D01*
X6869611Y-18487280D01*
X6860087Y-18496804D01*
X6841040Y-18506328D01*
X6783897Y-18506328D01*
X6764849Y-18496804D01*
X6755325Y-18487280D01*
X7069611Y-18506328D02*
X6955325Y-18506328D01*
X7012468Y-18506328D02*
X7012468Y-18306328D01*
X6993421Y-18334899D01*
X6974373Y-18353947D01*
X6955325Y-18363471D01*
X7250563Y-18306328D02*
X7155325Y-18306328D01*
X7145801Y-18401566D01*
X7155325Y-18392042D01*
X7174373Y-18382518D01*
X7221992Y-18382518D01*
X7241040Y-18392042D01*
X7250563Y-18401566D01*
X7260087Y-18420614D01*
X7260087Y-18468233D01*
X7250563Y-18487280D01*
X7241040Y-18496804D01*
X7221992Y-18506328D01*
X7174373Y-18506328D01*
X7155325Y-18496804D01*
X7145801Y-18487280D01*
X7336278Y-18306328D02*
X7336278Y-18344423D01*
X7412468Y-18306328D02*
X7412468Y-18344423D01*
X7707706Y-18582518D02*
X7698182Y-18572995D01*
X7679135Y-18544423D01*
X7669611Y-18525376D01*
X7660087Y-18496804D01*
X7650563Y-18449185D01*
X7650563Y-18411090D01*
X7660087Y-18363471D01*
X7669611Y-18334899D01*
X7679135Y-18315852D01*
X7698182Y-18287280D01*
X7707706Y-18277756D01*
X7888659Y-18506328D02*
X7774373Y-18506328D01*
X7831516Y-18506328D02*
X7831516Y-18306328D01*
X7812468Y-18334899D01*
X7793421Y-18353947D01*
X7774373Y-18363471D01*
X8079135Y-18506328D02*
X7964849Y-18506328D01*
X8021992Y-18506328D02*
X8021992Y-18306328D01*
X8002944Y-18334899D01*
X7983897Y-18353947D01*
X7964849Y-18363471D01*
X8155325Y-18325376D02*
X8164849Y-18315852D01*
X8183897Y-18306328D01*
X8231516Y-18306328D01*
X8250563Y-18315852D01*
X8260087Y-18325376D01*
X8269611Y-18344423D01*
X8269611Y-18363471D01*
X8260087Y-18392042D01*
X8145801Y-18506328D01*
X8269611Y-18506328D01*
X8507706Y-18506328D02*
X8507706Y-18306328D01*
X8593421Y-18506328D02*
X8593421Y-18401566D01*
X8583897Y-18382518D01*
X8564849Y-18372995D01*
X8536278Y-18372995D01*
X8517230Y-18382518D01*
X8507706Y-18392042D01*
X8717230Y-18506328D02*
X8698183Y-18496804D01*
X8688659Y-18487280D01*
X8679135Y-18468233D01*
X8679135Y-18411090D01*
X8688659Y-18392042D01*
X8698183Y-18382518D01*
X8717230Y-18372995D01*
X8745802Y-18372995D01*
X8764849Y-18382518D01*
X8774373Y-18392042D01*
X8783897Y-18411090D01*
X8783897Y-18468233D01*
X8774373Y-18487280D01*
X8764849Y-18496804D01*
X8745802Y-18506328D01*
X8717230Y-18506328D01*
X8898183Y-18506328D02*
X8879135Y-18496804D01*
X8869611Y-18477756D01*
X8869611Y-18306328D01*
X9050564Y-18496804D02*
X9031516Y-18506328D01*
X8993421Y-18506328D01*
X8974373Y-18496804D01*
X8964849Y-18477756D01*
X8964849Y-18401566D01*
X8974373Y-18382518D01*
X8993421Y-18372995D01*
X9031516Y-18372995D01*
X9050564Y-18382518D01*
X9060087Y-18401566D01*
X9060087Y-18420614D01*
X8964849Y-18439661D01*
X9136278Y-18496804D02*
X9155325Y-18506328D01*
X9193421Y-18506328D01*
X9212468Y-18496804D01*
X9221992Y-18477756D01*
X9221992Y-18468233D01*
X9212468Y-18449185D01*
X9193421Y-18439661D01*
X9164849Y-18439661D01*
X9145802Y-18430137D01*
X9136278Y-18411090D01*
X9136278Y-18401566D01*
X9145802Y-18382518D01*
X9164849Y-18372995D01*
X9193421Y-18372995D01*
X9212468Y-18382518D01*
X9288659Y-18582518D02*
X9298183Y-18572995D01*
X9317230Y-18544423D01*
X9326754Y-18525376D01*
X9336278Y-18496804D01*
X9345802Y-18449185D01*
X9345802Y-18411090D01*
X9336278Y-18363471D01*
X9326754Y-18334899D01*
X9317230Y-18315852D01*
X9298183Y-18287280D01*
X9288659Y-18277756D01*
D14*
X4081192Y-18625242D02*
X4081192Y-18734462D01*
X4026582Y-18679852D02*
X4135802Y-18679852D01*
D11*
X4498183Y-18770328D02*
X4383897Y-18770328D01*
X4441040Y-18770328D02*
X4441040Y-18570328D01*
X4421992Y-18598899D01*
X4402944Y-18617947D01*
X4383897Y-18627471D01*
X4583897Y-18751280D02*
X4593421Y-18760804D01*
X4583897Y-18770328D01*
X4574373Y-18760804D01*
X4583897Y-18751280D01*
X4583897Y-18770328D01*
X4717230Y-18570328D02*
X4736278Y-18570328D01*
X4755325Y-18579852D01*
X4764849Y-18589376D01*
X4774373Y-18608423D01*
X4783897Y-18646518D01*
X4783897Y-18694137D01*
X4774373Y-18732233D01*
X4764849Y-18751280D01*
X4755325Y-18760804D01*
X4736278Y-18770328D01*
X4717230Y-18770328D01*
X4698183Y-18760804D01*
X4688659Y-18751280D01*
X4679135Y-18732233D01*
X4669611Y-18694137D01*
X4669611Y-18646518D01*
X4679135Y-18608423D01*
X4688659Y-18589376D01*
X4698183Y-18579852D01*
X4717230Y-18570328D01*
X4879135Y-18770328D02*
X4917230Y-18770328D01*
X4936278Y-18760804D01*
X4945802Y-18751280D01*
X4964849Y-18722709D01*
X4974373Y-18684614D01*
X4974373Y-18608423D01*
X4964849Y-18589376D01*
X4955325Y-18579852D01*
X4936278Y-18570328D01*
X4898183Y-18570328D01*
X4879135Y-18579852D01*
X4869611Y-18589376D01*
X4860087Y-18608423D01*
X4860087Y-18656042D01*
X4869611Y-18675090D01*
X4879135Y-18684614D01*
X4898183Y-18694137D01*
X4936278Y-18694137D01*
X4955325Y-18684614D01*
X4964849Y-18675090D01*
X4974373Y-18656042D01*
X5050564Y-18589376D02*
X5060087Y-18579852D01*
X5079135Y-18570328D01*
X5126754Y-18570328D01*
X5145802Y-18579852D01*
X5155325Y-18589376D01*
X5164849Y-18608423D01*
X5164849Y-18627471D01*
X5155325Y-18656042D01*
X5041040Y-18770328D01*
X5164849Y-18770328D01*
X5250564Y-18770328D02*
X5250564Y-18636995D01*
X5250564Y-18656042D02*
X5260087Y-18646518D01*
X5279135Y-18636995D01*
X5307706Y-18636995D01*
X5326754Y-18646518D01*
X5336278Y-18665566D01*
X5336278Y-18770328D01*
X5336278Y-18665566D02*
X5345802Y-18646518D01*
X5364849Y-18636995D01*
X5393421Y-18636995D01*
X5412468Y-18646518D01*
X5421992Y-18665566D01*
X5421992Y-18770328D01*
X5517230Y-18770328D02*
X5517230Y-18636995D01*
X5517230Y-18656042D02*
X5526754Y-18646518D01*
X5545802Y-18636995D01*
X5574373Y-18636995D01*
X5593421Y-18646518D01*
X5602944Y-18665566D01*
X5602944Y-18770328D01*
X5602944Y-18665566D02*
X5612468Y-18646518D01*
X5631516Y-18636995D01*
X5660087Y-18636995D01*
X5679135Y-18646518D01*
X5688659Y-18665566D01*
X5688659Y-18770328D01*
X6079135Y-18560804D02*
X5907706Y-18817947D01*
X6336278Y-18570328D02*
X6355325Y-18570328D01*
X6374373Y-18579852D01*
X6383897Y-18589376D01*
X6393421Y-18608423D01*
X6402944Y-18646518D01*
X6402944Y-18694137D01*
X6393421Y-18732233D01*
X6383897Y-18751280D01*
X6374373Y-18760804D01*
X6355325Y-18770328D01*
X6336278Y-18770328D01*
X6317230Y-18760804D01*
X6307706Y-18751280D01*
X6298182Y-18732233D01*
X6288659Y-18694137D01*
X6288659Y-18646518D01*
X6298182Y-18608423D01*
X6307706Y-18589376D01*
X6317230Y-18579852D01*
X6336278Y-18570328D01*
X6488659Y-18751280D02*
X6498182Y-18760804D01*
X6488659Y-18770328D01*
X6479135Y-18760804D01*
X6488659Y-18751280D01*
X6488659Y-18770328D01*
X6621992Y-18570328D02*
X6641040Y-18570328D01*
X6660087Y-18579852D01*
X6669611Y-18589376D01*
X6679135Y-18608423D01*
X6688659Y-18646518D01*
X6688659Y-18694137D01*
X6679135Y-18732233D01*
X6669611Y-18751280D01*
X6660087Y-18760804D01*
X6641040Y-18770328D01*
X6621992Y-18770328D01*
X6602944Y-18760804D01*
X6593421Y-18751280D01*
X6583897Y-18732233D01*
X6574373Y-18694137D01*
X6574373Y-18646518D01*
X6583897Y-18608423D01*
X6593421Y-18589376D01*
X6602944Y-18579852D01*
X6621992Y-18570328D01*
X6860087Y-18636995D02*
X6860087Y-18770328D01*
X6812468Y-18560804D02*
X6764849Y-18703661D01*
X6888659Y-18703661D01*
X6945802Y-18570328D02*
X7069611Y-18570328D01*
X7002944Y-18646518D01*
X7031516Y-18646518D01*
X7050563Y-18656042D01*
X7060087Y-18665566D01*
X7069611Y-18684614D01*
X7069611Y-18732233D01*
X7060087Y-18751280D01*
X7050563Y-18760804D01*
X7031516Y-18770328D01*
X6974373Y-18770328D01*
X6955325Y-18760804D01*
X6945802Y-18751280D01*
X7193421Y-18570328D02*
X7212468Y-18570328D01*
X7231516Y-18579852D01*
X7241040Y-18589376D01*
X7250563Y-18608423D01*
X7260087Y-18646518D01*
X7260087Y-18694137D01*
X7250563Y-18732233D01*
X7241040Y-18751280D01*
X7231516Y-18760804D01*
X7212468Y-18770328D01*
X7193421Y-18770328D01*
X7174373Y-18760804D01*
X7164849Y-18751280D01*
X7155325Y-18732233D01*
X7145801Y-18694137D01*
X7145801Y-18646518D01*
X7155325Y-18608423D01*
X7164849Y-18589376D01*
X7174373Y-18579852D01*
X7193421Y-18570328D01*
X7336278Y-18570328D02*
X7336278Y-18608423D01*
X7412468Y-18570328D02*
X7412468Y-18608423D01*
X7707706Y-18846518D02*
X7698182Y-18836995D01*
X7679135Y-18808423D01*
X7669611Y-18789376D01*
X7660087Y-18760804D01*
X7650563Y-18713185D01*
X7650563Y-18675090D01*
X7660087Y-18627471D01*
X7669611Y-18598899D01*
X7679135Y-18579852D01*
X7698182Y-18551280D01*
X7707706Y-18541756D01*
X7774373Y-18589376D02*
X7783897Y-18579852D01*
X7802944Y-18570328D01*
X7850563Y-18570328D01*
X7869611Y-18579852D01*
X7879135Y-18589376D01*
X7888659Y-18608423D01*
X7888659Y-18627471D01*
X7879135Y-18656042D01*
X7764849Y-18770328D01*
X7888659Y-18770328D01*
X7983897Y-18770328D02*
X8021992Y-18770328D01*
X8041040Y-18760804D01*
X8050563Y-18751280D01*
X8069611Y-18722709D01*
X8079135Y-18684614D01*
X8079135Y-18608423D01*
X8069611Y-18589376D01*
X8060087Y-18579852D01*
X8041040Y-18570328D01*
X8002944Y-18570328D01*
X7983897Y-18579852D01*
X7974373Y-18589376D01*
X7964849Y-18608423D01*
X7964849Y-18656042D01*
X7974373Y-18675090D01*
X7983897Y-18684614D01*
X8002944Y-18694137D01*
X8041040Y-18694137D01*
X8060087Y-18684614D01*
X8069611Y-18675090D01*
X8079135Y-18656042D01*
X8317230Y-18770328D02*
X8317230Y-18570328D01*
X8402944Y-18770328D02*
X8402944Y-18665566D01*
X8393421Y-18646518D01*
X8374373Y-18636995D01*
X8345801Y-18636995D01*
X8326754Y-18646518D01*
X8317230Y-18656042D01*
X8526754Y-18770328D02*
X8507706Y-18760804D01*
X8498183Y-18751280D01*
X8488659Y-18732233D01*
X8488659Y-18675090D01*
X8498183Y-18656042D01*
X8507706Y-18646518D01*
X8526754Y-18636995D01*
X8555325Y-18636995D01*
X8574373Y-18646518D01*
X8583897Y-18656042D01*
X8593421Y-18675090D01*
X8593421Y-18732233D01*
X8583897Y-18751280D01*
X8574373Y-18760804D01*
X8555325Y-18770328D01*
X8526754Y-18770328D01*
X8707706Y-18770328D02*
X8688659Y-18760804D01*
X8679135Y-18741756D01*
X8679135Y-18570328D01*
X8860087Y-18760804D02*
X8841040Y-18770328D01*
X8802944Y-18770328D01*
X8783897Y-18760804D01*
X8774373Y-18741756D01*
X8774373Y-18665566D01*
X8783897Y-18646518D01*
X8802944Y-18636995D01*
X8841040Y-18636995D01*
X8860087Y-18646518D01*
X8869611Y-18665566D01*
X8869611Y-18684614D01*
X8774373Y-18703661D01*
X8945802Y-18760804D02*
X8964849Y-18770328D01*
X9002944Y-18770328D01*
X9021992Y-18760804D01*
X9031516Y-18741756D01*
X9031516Y-18732233D01*
X9021992Y-18713185D01*
X9002944Y-18703661D01*
X8974373Y-18703661D01*
X8955325Y-18694137D01*
X8945802Y-18675090D01*
X8945802Y-18665566D01*
X8955325Y-18646518D01*
X8974373Y-18636995D01*
X9002944Y-18636995D01*
X9021992Y-18646518D01*
X9098183Y-18846518D02*
X9107706Y-18836995D01*
X9126754Y-18808423D01*
X9136278Y-18789376D01*
X9145802Y-18760804D01*
X9155325Y-18713185D01*
X9155325Y-18675090D01*
X9145802Y-18627471D01*
X9136278Y-18598899D01*
X9126754Y-18579852D01*
X9107706Y-18551280D01*
X9098183Y-18541756D01*
D15*
X4116764Y-18989814D02*
X4116764Y-18897889D01*
X4024839Y-18897889D01*
X4024839Y-18989814D01*
X4116764Y-18989814D01*
D11*
X4498183Y-19034328D02*
X4383897Y-19034328D01*
X4441040Y-19034328D02*
X4441040Y-18834328D01*
X4421992Y-18862899D01*
X4402944Y-18881947D01*
X4383897Y-18891471D01*
X4583897Y-19015280D02*
X4593421Y-19024804D01*
X4583897Y-19034328D01*
X4574373Y-19024804D01*
X4583897Y-19015280D01*
X4583897Y-19034328D01*
X4660087Y-18834328D02*
X4783897Y-18834328D01*
X4717230Y-18910518D01*
X4745802Y-18910518D01*
X4764849Y-18920042D01*
X4774373Y-18929566D01*
X4783897Y-18948614D01*
X4783897Y-18996233D01*
X4774373Y-19015280D01*
X4764849Y-19024804D01*
X4745802Y-19034328D01*
X4688659Y-19034328D01*
X4669611Y-19024804D01*
X4660087Y-19015280D01*
X4907706Y-18834328D02*
X4926754Y-18834328D01*
X4945802Y-18843852D01*
X4955325Y-18853376D01*
X4964849Y-18872423D01*
X4974373Y-18910518D01*
X4974373Y-18958137D01*
X4964849Y-18996233D01*
X4955325Y-19015280D01*
X4945802Y-19024804D01*
X4926754Y-19034328D01*
X4907706Y-19034328D01*
X4888659Y-19024804D01*
X4879135Y-19015280D01*
X4869611Y-18996233D01*
X4860087Y-18958137D01*
X4860087Y-18910518D01*
X4869611Y-18872423D01*
X4879135Y-18853376D01*
X4888659Y-18843852D01*
X4907706Y-18834328D01*
X5098183Y-18834328D02*
X5117230Y-18834328D01*
X5136278Y-18843852D01*
X5145802Y-18853376D01*
X5155325Y-18872423D01*
X5164849Y-18910518D01*
X5164849Y-18958137D01*
X5155325Y-18996233D01*
X5145802Y-19015280D01*
X5136278Y-19024804D01*
X5117230Y-19034328D01*
X5098183Y-19034328D01*
X5079135Y-19024804D01*
X5069611Y-19015280D01*
X5060087Y-18996233D01*
X5050564Y-18958137D01*
X5050564Y-18910518D01*
X5060087Y-18872423D01*
X5069611Y-18853376D01*
X5079135Y-18843852D01*
X5098183Y-18834328D01*
X5250564Y-19034328D02*
X5250564Y-18900995D01*
X5250564Y-18920042D02*
X5260087Y-18910518D01*
X5279135Y-18900995D01*
X5307706Y-18900995D01*
X5326754Y-18910518D01*
X5336278Y-18929566D01*
X5336278Y-19034328D01*
X5336278Y-18929566D02*
X5345802Y-18910518D01*
X5364849Y-18900995D01*
X5393421Y-18900995D01*
X5412468Y-18910518D01*
X5421992Y-18929566D01*
X5421992Y-19034328D01*
X5517230Y-19034328D02*
X5517230Y-18900995D01*
X5517230Y-18920042D02*
X5526754Y-18910518D01*
X5545802Y-18900995D01*
X5574373Y-18900995D01*
X5593421Y-18910518D01*
X5602944Y-18929566D01*
X5602944Y-19034328D01*
X5602944Y-18929566D02*
X5612468Y-18910518D01*
X5631516Y-18900995D01*
X5660087Y-18900995D01*
X5679135Y-18910518D01*
X5688659Y-18929566D01*
X5688659Y-19034328D01*
X6079135Y-18824804D02*
X5907706Y-19081947D01*
X6336278Y-18834328D02*
X6355325Y-18834328D01*
X6374373Y-18843852D01*
X6383897Y-18853376D01*
X6393421Y-18872423D01*
X6402944Y-18910518D01*
X6402944Y-18958137D01*
X6393421Y-18996233D01*
X6383897Y-19015280D01*
X6374373Y-19024804D01*
X6355325Y-19034328D01*
X6336278Y-19034328D01*
X6317230Y-19024804D01*
X6307706Y-19015280D01*
X6298182Y-18996233D01*
X6288659Y-18958137D01*
X6288659Y-18910518D01*
X6298182Y-18872423D01*
X6307706Y-18853376D01*
X6317230Y-18843852D01*
X6336278Y-18834328D01*
X6488659Y-19015280D02*
X6498182Y-19024804D01*
X6488659Y-19034328D01*
X6479135Y-19024804D01*
X6488659Y-19015280D01*
X6488659Y-19034328D01*
X6621992Y-18834328D02*
X6641040Y-18834328D01*
X6660087Y-18843852D01*
X6669611Y-18853376D01*
X6679135Y-18872423D01*
X6688659Y-18910518D01*
X6688659Y-18958137D01*
X6679135Y-18996233D01*
X6669611Y-19015280D01*
X6660087Y-19024804D01*
X6641040Y-19034328D01*
X6621992Y-19034328D01*
X6602944Y-19024804D01*
X6593421Y-19015280D01*
X6583897Y-18996233D01*
X6574373Y-18958137D01*
X6574373Y-18910518D01*
X6583897Y-18872423D01*
X6593421Y-18853376D01*
X6602944Y-18843852D01*
X6621992Y-18834328D01*
X6869611Y-18834328D02*
X6774373Y-18834328D01*
X6764849Y-18929566D01*
X6774373Y-18920042D01*
X6793421Y-18910518D01*
X6841040Y-18910518D01*
X6860087Y-18920042D01*
X6869611Y-18929566D01*
X6879135Y-18948614D01*
X6879135Y-18996233D01*
X6869611Y-19015280D01*
X6860087Y-19024804D01*
X6841040Y-19034328D01*
X6793421Y-19034328D01*
X6774373Y-19024804D01*
X6764849Y-19015280D01*
X7069611Y-19034328D02*
X6955325Y-19034328D01*
X7012468Y-19034328D02*
X7012468Y-18834328D01*
X6993421Y-18862899D01*
X6974373Y-18881947D01*
X6955325Y-18891471D01*
X7145801Y-18853376D02*
X7155325Y-18843852D01*
X7174373Y-18834328D01*
X7221992Y-18834328D01*
X7241040Y-18843852D01*
X7250563Y-18853376D01*
X7260087Y-18872423D01*
X7260087Y-18891471D01*
X7250563Y-18920042D01*
X7136278Y-19034328D01*
X7260087Y-19034328D01*
X7336278Y-18834328D02*
X7336278Y-18872423D01*
X7412468Y-18834328D02*
X7412468Y-18872423D01*
X7707706Y-19110518D02*
X7698182Y-19100995D01*
X7679135Y-19072423D01*
X7669611Y-19053376D01*
X7660087Y-19024804D01*
X7650563Y-18977185D01*
X7650563Y-18939090D01*
X7660087Y-18891471D01*
X7669611Y-18862899D01*
X7679135Y-18843852D01*
X7698182Y-18815280D01*
X7707706Y-18805756D01*
X7774373Y-18853376D02*
X7783897Y-18843852D01*
X7802944Y-18834328D01*
X7850563Y-18834328D01*
X7869611Y-18843852D01*
X7879135Y-18853376D01*
X7888659Y-18872423D01*
X7888659Y-18891471D01*
X7879135Y-18920042D01*
X7764849Y-19034328D01*
X7888659Y-19034328D01*
X8126754Y-19034328D02*
X8126754Y-18834328D01*
X8212468Y-19034328D02*
X8212468Y-18929566D01*
X8202944Y-18910518D01*
X8183897Y-18900995D01*
X8155325Y-18900995D01*
X8136278Y-18910518D01*
X8126754Y-18920042D01*
X8336278Y-19034328D02*
X8317230Y-19024804D01*
X8307706Y-19015280D01*
X8298182Y-18996233D01*
X8298182Y-18939090D01*
X8307706Y-18920042D01*
X8317230Y-18910518D01*
X8336278Y-18900995D01*
X8364849Y-18900995D01*
X8383897Y-18910518D01*
X8393421Y-18920042D01*
X8402944Y-18939090D01*
X8402944Y-18996233D01*
X8393421Y-19015280D01*
X8383897Y-19024804D01*
X8364849Y-19034328D01*
X8336278Y-19034328D01*
X8517230Y-19034328D02*
X8498183Y-19024804D01*
X8488659Y-19005756D01*
X8488659Y-18834328D01*
X8669611Y-19024804D02*
X8650564Y-19034328D01*
X8612468Y-19034328D01*
X8593421Y-19024804D01*
X8583897Y-19005756D01*
X8583897Y-18929566D01*
X8593421Y-18910518D01*
X8612468Y-18900995D01*
X8650564Y-18900995D01*
X8669611Y-18910518D01*
X8679135Y-18929566D01*
X8679135Y-18948614D01*
X8583897Y-18967661D01*
X8755325Y-19024804D02*
X8774373Y-19034328D01*
X8812468Y-19034328D01*
X8831516Y-19024804D01*
X8841040Y-19005756D01*
X8841040Y-18996233D01*
X8831516Y-18977185D01*
X8812468Y-18967661D01*
X8783897Y-18967661D01*
X8764849Y-18958137D01*
X8755325Y-18939090D01*
X8755325Y-18929566D01*
X8764849Y-18910518D01*
X8783897Y-18900995D01*
X8812468Y-18900995D01*
X8831516Y-18910518D01*
X8907706Y-19110518D02*
X8917230Y-19100995D01*
X8936278Y-19072423D01*
X8945802Y-19053376D01*
X8955325Y-19024804D01*
X8964849Y-18977185D01*
X8964849Y-18939090D01*
X8955325Y-18891471D01*
X8945802Y-18862899D01*
X8936278Y-18843852D01*
X8917230Y-18815280D01*
X8907706Y-18805756D01*
M02*
