%FSLAX45Y45*%
G04 Gerber Fmt 4.5, Leading zero omitted, Abs format (unit mm)*
G04 Created by KiCad (PCBNEW (6.0.0-0)) date 2022-01-08 14:54:39*
%MOMM*%
%LPD*%
G01*
G04 APERTURE LIST*
%TA.AperFunction,Profile*%
%ADD10C,0.100000*%
%TD*%
%ADD11C,0.200000*%
%ADD12C,0.040000*%
%ADD13C,0.080000*%
%ADD14C,0.109220*%
%ADD15C,0.130000*%
G04 APERTURE END LIST*
D10*
X26303801Y-13496852D02*
X26288801Y-13522852D01*
X17011802Y-5194852D02*
X17436801Y-5235852D01*
X17436801Y-5235852D02*
X17873802Y-5266852D01*
X14497802Y-4549852D02*
X14971802Y-4729852D01*
X13252802Y-16569852D02*
X13048802Y-16498852D01*
X11212801Y-15749852D02*
X11029802Y-15664852D01*
X26562802Y-15031852D02*
X26561801Y-15071852D01*
X10126802Y-15123852D02*
X10120802Y-15097852D01*
X11835801Y-16023852D02*
X11614801Y-15927852D01*
X11592802Y-3650852D02*
X11956802Y-3714852D01*
X25236801Y-15852852D02*
X25062802Y-15927852D01*
X22179802Y-4549852D02*
X22677802Y-4347852D01*
X10249802Y-13394852D02*
X10209802Y-13379852D01*
X18338802Y-17505252D02*
X18220802Y-17505852D01*
X4408802Y-11974851D02*
X4371802Y-11964852D01*
X6339802Y-3453851D02*
X7021802Y-3434852D01*
X7518802Y-3423852D02*
X7964802Y-3421851D01*
X23532801Y-4023852D02*
X24078802Y-3861852D01*
X12540801Y-16310852D02*
X12312802Y-16219852D01*
X4334802Y-11953852D02*
X4295802Y-11934852D01*
X22141802Y-16971852D02*
X21892802Y-17040852D01*
X6156802Y-3533852D02*
X6180802Y-3512852D01*
X26446801Y-15273851D02*
X26421802Y-15291852D01*
X32381801Y-11934852D02*
X32342802Y-11953852D01*
X16600802Y-17396852D02*
X16371802Y-17365852D01*
X17762802Y-17501852D02*
X17296802Y-17470852D01*
X21196802Y-14489851D02*
G75*
G03*
X21196802Y-14489851I-100001J0D01*
G01*
X10168802Y-15208852D02*
X10153802Y-15185852D01*
X10388802Y-13522852D02*
X10373802Y-13496852D01*
X11213802Y-3593851D02*
X11592802Y-3650852D01*
X12068802Y-16122852D02*
X11835801Y-16023852D01*
X10114802Y-15031852D02*
X10116802Y-15002852D01*
X32226801Y-11610852D02*
G75*
G03*
X32226801Y-11610852I-100000J0D01*
G01*
X6072802Y-3667852D02*
X6080802Y-3647852D01*
X6521801Y-3803852D02*
G75*
G03*
X6521801Y-3803852I-100000J0D01*
G01*
X12312802Y-16219852D02*
X12068802Y-16122852D01*
X26265802Y-13570852D02*
X26256802Y-13603852D01*
X26508802Y-15208852D02*
X26489802Y-15232852D01*
X15274802Y-17158852D02*
X15045801Y-17104852D01*
X13999801Y-4347852D02*
X14497802Y-4549852D01*
X10209802Y-13379852D02*
X4408802Y-11974851D01*
X10732802Y-15524852D02*
X10313801Y-15322852D01*
X20076802Y-17396852D02*
X19678802Y-17446852D01*
X10286802Y-15308852D02*
X10255802Y-15291852D01*
X21211802Y-4890852D02*
X21705801Y-4729852D01*
X6205801Y-3495852D02*
X6237802Y-3478852D01*
X10354802Y-13473851D02*
X10331802Y-13448851D01*
X28712801Y-3421851D02*
X29158802Y-3423852D01*
X26489802Y-15232852D02*
X26471802Y-15253852D01*
X10331802Y-13448851D02*
X10308801Y-13430851D01*
X30471801Y-3495852D02*
X30496802Y-3512852D01*
X16121802Y-17326852D02*
X15726802Y-17252852D01*
X10230802Y-15273852D02*
X10205802Y-15253852D01*
X13144802Y-4023851D02*
X13661801Y-4211852D01*
X14095802Y-16845852D02*
X13825801Y-16762852D01*
X4227802Y-11882852D02*
X4203801Y-11857852D01*
X30496802Y-3512852D02*
X30520801Y-3533852D01*
X18803802Y-5266852D02*
X19240802Y-5235852D01*
X10421802Y-13731852D02*
X10426802Y-13699852D01*
X24732802Y-4114852D02*
G75*
G03*
X24732802Y-4114852I-100000J0D01*
G01*
X32530801Y-11617852D02*
X32536802Y-11656852D01*
X26390802Y-15308852D02*
X26363802Y-15322852D01*
X10116802Y-15002852D02*
X10121802Y-14973852D01*
X16371802Y-17365852D02*
X16121802Y-17326852D01*
X19240802Y-5235852D02*
X19665802Y-5194852D01*
X26276802Y-13542852D02*
X26265802Y-13570852D01*
X13825801Y-16762852D02*
X13630802Y-16700852D01*
X20354802Y-5091852D02*
X20653802Y-5031852D01*
X26368801Y-13430852D02*
X26345802Y-13448852D01*
X15045801Y-17104852D02*
X14784801Y-17040852D01*
X6094801Y-3613852D02*
X6111802Y-3585852D01*
X32536802Y-11656852D02*
X32535801Y-11689852D01*
X16322802Y-5091852D02*
X16733801Y-5157852D01*
X20950802Y-17252852D02*
X20555802Y-17326852D01*
X24608801Y-16122851D02*
X24364802Y-16219852D01*
X19380802Y-17470852D02*
X18914802Y-17501852D01*
X30565801Y-3585852D02*
X30582802Y-3613852D01*
X25062802Y-15927852D02*
X24841802Y-16023852D01*
X6133801Y-3556852D02*
X6156802Y-3533852D01*
X30543802Y-3556852D02*
X30565801Y-3585852D01*
X10337802Y-3499852D02*
X10784802Y-3540851D01*
X4146801Y-11617852D02*
X4156801Y-11577852D01*
X14311802Y-16909852D02*
X14095802Y-16845852D01*
X30406801Y-3466852D02*
X30439802Y-3478852D01*
X17873802Y-5266852D02*
X18338802Y-5286852D01*
X4153802Y-11759852D02*
X4146802Y-11727852D01*
X26261801Y-13760852D02*
X26555802Y-14973852D01*
X30355801Y-3803852D02*
G75*
G03*
X30355801Y-3803852I-100000J0D01*
G01*
X7964802Y-3421851D02*
X8601802Y-3422851D01*
X22677802Y-4347852D02*
X23015801Y-4211852D01*
X7021802Y-3434852D02*
X7518802Y-3423852D01*
X32510802Y-11794852D02*
X32494801Y-11826852D01*
X23628802Y-16498852D02*
X23424801Y-16569852D01*
X26555802Y-14973852D02*
X26560802Y-15002852D01*
X30337801Y-3453852D02*
X30375801Y-3458851D01*
X23015801Y-4211852D02*
X23532801Y-4023852D01*
X22851802Y-16762852D02*
X22581801Y-16845852D01*
X6237802Y-3478852D02*
X6270801Y-3466852D01*
X26840801Y-3465852D02*
X27430801Y-3436852D01*
X26278802Y-14993852D02*
G75*
G03*
X26278802Y-14993852I-100000J0D01*
G01*
X4140801Y-11656851D02*
X4146801Y-11617852D01*
X20222802Y-16750852D02*
G75*
G03*
X20222802Y-16750852I-100000J0D01*
G01*
X10308801Y-13430851D02*
X10280802Y-13411852D01*
X32268802Y-11974852D02*
X26467802Y-13379852D01*
X22581801Y-16845852D02*
X22365802Y-16909852D01*
X6180802Y-3512852D02*
X6205801Y-3495852D01*
X24364802Y-16219852D02*
X24136801Y-16310852D01*
X16654802Y-16750852D02*
G75*
G03*
X16654802Y-16750852I-100000J0D01*
G01*
X15465802Y-4890852D02*
X16023801Y-5031852D01*
X10138802Y-15154852D02*
X10126802Y-15123852D01*
X20683801Y-5619852D02*
G75*
G03*
X20683801Y-5619852I-100000J0D01*
G01*
X30582802Y-3613852D02*
X30596802Y-3647851D01*
X13661801Y-4211852D02*
X13999801Y-4347852D01*
X4156801Y-11577852D02*
X6062802Y-3705852D01*
X32449802Y-11882852D02*
X32416802Y-11912852D01*
X10373802Y-13496852D02*
X10354802Y-13473851D01*
X10313801Y-15322852D02*
X10286802Y-15308852D01*
X21705801Y-4729852D02*
X22179802Y-4549852D01*
X10280802Y-13411852D02*
X10249802Y-13394852D01*
X15726802Y-17252852D02*
X15540802Y-17215852D01*
X10426802Y-13699852D02*
X10427802Y-13670852D01*
X25464802Y-15749852D02*
X25236801Y-15852852D01*
X25892801Y-3540852D02*
X26339801Y-3499852D01*
X10115802Y-15071852D02*
X10114802Y-15031852D01*
X12144801Y-4114852D02*
G75*
G03*
X12144801Y-4114852I-100000J0D01*
G01*
X10205802Y-15253852D02*
X10187802Y-15232851D01*
X32416802Y-11912852D02*
X32381801Y-11934852D01*
X26396801Y-13411852D02*
X26368801Y-13430852D01*
X26550801Y-15123852D02*
X26538801Y-15154851D01*
X6062802Y-3705852D02*
X6072802Y-3667852D01*
X19678802Y-17446852D02*
X19380802Y-17470852D01*
X11614801Y-15927852D02*
X11440802Y-15852852D01*
X26251802Y-13634852D02*
X26249801Y-13670852D01*
X12598802Y-3861852D02*
X13144802Y-4023851D01*
X26560802Y-15002852D02*
X26562802Y-15031852D01*
X26363802Y-15322852D02*
X25944801Y-15524852D01*
X11029802Y-15664852D02*
X10732802Y-15524852D01*
X32530801Y-11727851D02*
X32523801Y-11759852D01*
X30520801Y-3533852D02*
X30543802Y-3556852D01*
X10411802Y-13570852D02*
X10400802Y-13542852D01*
X13630802Y-16700852D02*
X13480802Y-16648852D01*
X26250802Y-13699852D02*
X26255801Y-13731852D01*
X10255802Y-15291852D02*
X10230802Y-15273852D01*
X14784801Y-17040852D02*
X14535801Y-16971852D01*
X32520801Y-11577852D02*
X32530801Y-11617852D01*
X18456802Y-17505852D02*
X18338802Y-17505252D01*
X10400802Y-13542852D02*
X10388802Y-13522852D01*
X20305802Y-17365852D02*
X20076802Y-17396852D01*
X26256802Y-13603852D02*
X26251802Y-13634852D01*
X24136801Y-16310852D02*
X23889802Y-16403852D01*
X4146802Y-11727852D02*
X4141801Y-11689852D01*
X8601802Y-3422851D02*
X9246802Y-3436852D01*
X26561801Y-15071852D02*
X26556802Y-15097851D01*
X10427802Y-13670852D02*
X10425802Y-13634852D01*
X23889802Y-16403852D02*
X23628802Y-16498852D01*
X9836802Y-3465852D02*
X10337802Y-3499852D01*
X17296802Y-17470852D02*
X16998802Y-17446852D01*
X32494801Y-11826852D02*
X32473802Y-11857852D01*
X23424801Y-16569852D02*
X23196802Y-16648852D01*
X11440802Y-15852852D02*
X11212801Y-15749852D01*
X21892802Y-17040852D02*
X21631802Y-17104852D01*
X26345802Y-13448852D02*
X26322802Y-13473852D01*
X10121802Y-14973852D02*
X10415802Y-13760852D01*
X26471802Y-15253852D02*
X26446801Y-15273851D01*
X4203801Y-11857852D02*
X4182802Y-11826852D01*
X10153802Y-15185852D02*
X10138802Y-15154852D01*
X20653802Y-5031852D02*
X21211802Y-4890852D01*
X6080802Y-3647852D02*
X6094801Y-3613852D01*
X21631802Y-17104852D02*
X21402802Y-17158852D01*
X10784802Y-3540851D02*
X11213802Y-3593851D01*
X16733801Y-5157852D02*
X17011802Y-5194852D01*
X12787801Y-16403852D02*
X12540801Y-16310852D01*
X25084802Y-3650851D02*
X25463802Y-3593852D01*
X6111802Y-3585852D02*
X6133801Y-3556852D01*
X26467802Y-13379852D02*
X26427802Y-13394852D01*
X11956802Y-3714852D02*
X12598802Y-3861852D01*
X20555802Y-17326852D02*
X20305802Y-17365852D01*
X26288801Y-13522852D02*
X26276802Y-13542852D01*
X30604802Y-3667852D02*
X30614802Y-3705852D01*
X29158802Y-3423852D02*
X29655801Y-3434852D01*
X4182802Y-11826852D02*
X4166802Y-11794852D01*
X26322802Y-13473852D02*
X26303801Y-13496852D01*
X4260802Y-11912852D02*
X4227802Y-11882852D01*
X13480802Y-16648852D02*
X13252802Y-16569852D01*
X9246802Y-3436852D02*
X9836802Y-3465852D01*
X25944801Y-15524852D02*
X25647802Y-15664852D01*
X27430801Y-3436852D02*
X28075801Y-3422852D01*
X4295802Y-11934852D02*
X4260802Y-11912852D01*
X28075801Y-3422852D02*
X28712801Y-3421851D01*
X26538801Y-15154851D02*
X26523802Y-15185852D01*
X30596802Y-3647851D02*
X30604802Y-3667852D01*
X26249801Y-13670852D02*
X26250802Y-13699852D01*
X4166802Y-11794852D02*
X4153802Y-11759852D01*
X29655801Y-3434852D02*
X30337801Y-3453852D01*
X24720802Y-3714852D02*
X25084802Y-3650851D01*
X4141801Y-11689852D02*
X4140801Y-11656851D01*
X32473802Y-11857852D02*
X32449802Y-11882852D01*
X14535801Y-16971852D02*
X14311802Y-16909852D01*
X18914802Y-17501852D02*
X18456802Y-17505852D01*
X4371802Y-11964852D02*
X4334802Y-11953852D01*
X24078802Y-3861852D02*
X24720802Y-3714852D01*
X32305801Y-11964852D02*
X32268802Y-11974852D01*
X21402802Y-17158852D02*
X21136802Y-17215852D01*
X32523801Y-11759852D02*
X32510802Y-11794852D01*
X10598802Y-14992852D02*
G75*
G03*
X10598802Y-14992852I-100000J0D01*
G01*
X26556802Y-15097851D02*
X26550801Y-15123852D01*
X16193802Y-5619852D02*
G75*
G03*
X16193802Y-5619852I-100000J0D01*
G01*
X15540802Y-17215852D02*
X15274802Y-17158852D01*
X18338802Y-5286852D02*
X18803802Y-5266852D01*
X10420802Y-13603852D02*
X10411802Y-13570852D01*
X25647802Y-15664852D02*
X25464802Y-15749852D01*
X26339801Y-3499852D02*
X26840801Y-3465852D01*
X10415802Y-13760852D02*
X10421802Y-13731852D01*
X30439802Y-3478852D02*
X30471801Y-3495852D01*
X19665802Y-5194852D02*
X19943802Y-5157852D01*
X4650802Y-11610852D02*
G75*
G03*
X4650802Y-11610852I-100000J0D01*
G01*
X30614802Y-3705852D02*
X32520801Y-11577852D01*
X19943802Y-5157852D02*
X20354802Y-5091852D01*
X24841802Y-16023852D02*
X24608801Y-16122851D01*
X23046801Y-16700852D02*
X22851802Y-16762852D01*
X18220802Y-17505852D02*
X17762802Y-17501852D01*
X25463802Y-3593852D02*
X25892801Y-3540852D01*
X32342802Y-11953852D02*
X32305801Y-11964852D01*
X16998802Y-17446852D02*
X16600802Y-17396852D01*
X10187802Y-15232851D02*
X10168802Y-15208852D01*
X10425802Y-13634852D02*
X10420802Y-13603852D01*
X21136802Y-17215852D02*
X20950802Y-17252852D01*
X16023801Y-5031852D02*
X16322802Y-5091852D01*
X15680802Y-14490852D02*
G75*
G03*
X15680802Y-14490852I-100000J0D01*
G01*
X30375801Y-3458851D02*
X30406801Y-3466852D01*
X10120802Y-15097852D02*
X10115802Y-15071852D01*
X23196802Y-16648852D02*
X23046801Y-16700852D01*
X13048802Y-16498852D02*
X12787801Y-16403852D01*
X26421802Y-15291852D02*
X26390802Y-15308852D01*
X26427802Y-13394852D02*
X26396801Y-13411852D01*
X6301802Y-3458852D02*
X6339802Y-3453851D01*
X26523802Y-15185852D02*
X26508802Y-15208852D01*
X26255801Y-13731852D02*
X26261801Y-13760852D01*
X22365802Y-16909852D02*
X22141802Y-16971852D01*
X6270801Y-3466852D02*
X6301802Y-3458852D01*
X14971802Y-4729852D02*
X15465802Y-4890852D01*
X32535801Y-11689852D02*
X32530801Y-11727851D01*
D11*
D12*
X18318801Y-6156852D02*
X18358801Y-6196852D01*
X18358801Y-6156852D02*
X18318801Y-6196852D01*
X18318801Y-6410852D02*
X18358801Y-6450852D01*
X18358801Y-6410852D02*
X18318801Y-6450852D01*
X18318801Y-6791852D02*
X18358801Y-6831852D01*
X18358801Y-6791852D02*
X18318801Y-6831852D01*
X18318802Y-6283852D02*
X18358802Y-6323852D01*
X18358802Y-6283852D02*
X18318802Y-6323852D01*
X18318802Y-6537852D02*
X18358802Y-6577852D01*
X18358802Y-6537852D02*
X18318802Y-6577852D01*
X18318802Y-6664852D02*
X18358802Y-6704852D01*
X18358802Y-6664852D02*
X18318802Y-6704852D01*
D13*
X6133231Y-9922296D02*
G75*
G03*
X6133231Y-9922296I-40000J0D01*
G01*
X6193259Y-9675491D02*
G75*
G03*
X6193259Y-9675491I-40000J0D01*
G01*
X6750243Y-10072365D02*
G75*
G03*
X6750243Y-10072365I-40000J0D01*
G01*
X6810271Y-9825560D02*
G75*
G03*
X6810271Y-9825560I-40000J0D01*
G01*
X7058326Y-6226225D02*
G75*
G03*
X7058326Y-6226225I-40000J0D01*
G01*
X7118354Y-5979420D02*
G75*
G03*
X7118354Y-5979420I-40000J0D01*
G01*
X7675339Y-6376294D02*
G75*
G03*
X7675339Y-6376294I-40000J0D01*
G01*
X7735366Y-6129489D02*
G75*
G03*
X7735366Y-6129489I-40000J0D01*
G01*
X7984268Y-10372504D02*
G75*
G03*
X7984268Y-10372504I-40000J0D01*
G01*
X8044296Y-10125699D02*
G75*
G03*
X8044296Y-10125699I-40000J0D01*
G01*
X8601280Y-10522573D02*
G75*
G03*
X8601280Y-10522573I-40000J0D01*
G01*
X8661308Y-10275768D02*
G75*
G03*
X8661308Y-10275768I-40000J0D01*
G01*
X8909363Y-6676432D02*
G75*
G03*
X8909363Y-6676432I-40000J0D01*
G01*
X8969391Y-6429627D02*
G75*
G03*
X8969391Y-6429627I-40000J0D01*
G01*
X9526376Y-6826501D02*
G75*
G03*
X9526376Y-6826501I-40000J0D01*
G01*
X9586403Y-6579697D02*
G75*
G03*
X9586403Y-6579697I-40000J0D01*
G01*
X9949358Y-10353782D02*
G75*
G03*
X9949358Y-10353782I-40000J0D01*
G01*
X10009385Y-10106977D02*
G75*
G03*
X10009385Y-10106977I-40000J0D01*
G01*
X10566370Y-10503851D02*
G75*
G03*
X10566370Y-10503851I-40000J0D01*
G01*
X10626398Y-10257046D02*
G75*
G03*
X10626398Y-10257046I-40000J0D01*
G01*
X10874453Y-6657710D02*
G75*
G03*
X10874453Y-6657710I-40000J0D01*
G01*
X10934481Y-6410905D02*
G75*
G03*
X10934481Y-6410905I-40000J0D01*
G01*
X11491465Y-6807779D02*
G75*
G03*
X11491465Y-6807779I-40000J0D01*
G01*
X11551493Y-6560975D02*
G75*
G03*
X11551493Y-6560975I-40000J0D01*
G01*
X11854419Y-10581865D02*
G75*
G03*
X11854419Y-10581865I-40000J0D01*
G01*
X11914447Y-10335060D02*
G75*
G03*
X11914447Y-10335060I-40000J0D01*
G01*
X12234021Y-13105256D02*
G75*
G03*
X12234021Y-13105256I-40000J0D01*
G01*
X12471432Y-10731934D02*
G75*
G03*
X12471432Y-10731934I-40000J0D01*
G01*
X12531460Y-10485129D02*
G75*
G03*
X12531460Y-10485129I-40000J0D01*
G01*
X12767175Y-6882792D02*
G75*
G03*
X12767175Y-6882792I-40000J0D01*
G01*
X12827202Y-6635987D02*
G75*
G03*
X12827202Y-6635987I-40000J0D01*
G01*
X12851033Y-13255325D02*
G75*
G03*
X12851033Y-13255325I-40000J0D01*
G01*
X13384187Y-7032861D02*
G75*
G03*
X13384187Y-7032861I-40000J0D01*
G01*
X13444215Y-6786056D02*
G75*
G03*
X13444215Y-6786056I-40000J0D01*
G01*
X13651432Y-11254197D02*
G75*
G03*
X13651432Y-11254197I-40000J0D01*
G01*
X13711459Y-11007392D02*
G75*
G03*
X13711459Y-11007392I-40000J0D01*
G01*
X14031033Y-13777588D02*
G75*
G03*
X14031033Y-13777588I-40000J0D01*
G01*
X14268444Y-11404266D02*
G75*
G03*
X14268444Y-11404266I-40000J0D01*
G01*
X14328472Y-11157461D02*
G75*
G03*
X14328472Y-11157461I-40000J0D01*
G01*
X14576527Y-7558125D02*
G75*
G03*
X14576527Y-7558125I-40000J0D01*
G01*
X14636555Y-7311320D02*
G75*
G03*
X14636555Y-7311320I-40000J0D01*
G01*
X14648045Y-13927657D02*
G75*
G03*
X14648045Y-13927657I-40000J0D01*
G01*
X15009888Y-14695532D02*
G75*
G03*
X15009888Y-14695532I-40000J0D01*
G01*
X15193540Y-7708194D02*
G75*
G03*
X15193540Y-7708194I-40000J0D01*
G01*
X15253567Y-7461390D02*
G75*
G03*
X15253567Y-7461390I-40000J0D01*
G01*
X15460784Y-11929530D02*
G75*
G03*
X15460784Y-11929530I-40000J0D01*
G01*
X15520812Y-11682725D02*
G75*
G03*
X15520812Y-11682725I-40000J0D01*
G01*
X15551975Y-14111129D02*
G75*
G03*
X15551975Y-14111129I-40000J0D01*
G01*
X15626900Y-14845601D02*
G75*
G03*
X15626900Y-14845601I-40000J0D01*
G01*
X16077797Y-12079599D02*
G75*
G03*
X16077797Y-12079599I-40000J0D01*
G01*
X16137824Y-11832795D02*
G75*
G03*
X16137824Y-11832795I-40000J0D01*
G01*
X16168987Y-14261198D02*
G75*
G03*
X16168987Y-14261198I-40000J0D01*
G01*
X16373539Y-8230457D02*
G75*
G03*
X16373539Y-8230457I-40000J0D01*
G01*
X16433567Y-7983652D02*
G75*
G03*
X16433567Y-7983652I-40000J0D01*
G01*
X16990552Y-8380526D02*
G75*
G03*
X16990552Y-8380526I-40000J0D01*
G01*
X17050579Y-8133722D02*
G75*
G03*
X17050579Y-8133722I-40000J0D01*
G01*
X20249994Y-8001660D02*
G75*
G03*
X20249994Y-8001660I-40000J0D01*
G01*
X20310022Y-8248465D02*
G75*
G03*
X20310022Y-8248465I-40000J0D01*
G01*
X20623997Y-14246905D02*
G75*
G03*
X20623997Y-14246905I-40000J0D01*
G01*
X20867007Y-7851591D02*
G75*
G03*
X20867007Y-7851591I-40000J0D01*
G01*
X20927035Y-8098396D02*
G75*
G03*
X20927035Y-8098396I-40000J0D01*
G01*
X21127729Y-14856321D02*
G75*
G03*
X21127729Y-14856321I-40000J0D01*
G01*
X21150409Y-11703734D02*
G75*
G03*
X21150409Y-11703734I-40000J0D01*
G01*
X21210437Y-11950539D02*
G75*
G03*
X21210437Y-11950539I-40000J0D01*
G01*
X21241009Y-14096836D02*
G75*
G03*
X21241009Y-14096836I-40000J0D01*
G01*
X21744741Y-14706252D02*
G75*
G03*
X21744741Y-14706252I-40000J0D01*
G01*
X21767422Y-11553665D02*
G75*
G03*
X21767422Y-11553665I-40000J0D01*
G01*
X21827450Y-11800470D02*
G75*
G03*
X21827450Y-11800470I-40000J0D01*
G01*
X22047007Y-7329328D02*
G75*
G03*
X22047007Y-7329328I-40000J0D01*
G01*
X22107034Y-7576133D02*
G75*
G03*
X22107034Y-7576133I-40000J0D01*
G01*
X22627848Y-13801598D02*
G75*
G03*
X22627848Y-13801598I-40000J0D01*
G01*
X22664019Y-7179259D02*
G75*
G03*
X22664019Y-7179259I-40000J0D01*
G01*
X22724047Y-7426064D02*
G75*
G03*
X22724047Y-7426064I-40000J0D01*
G01*
X22947422Y-11031402D02*
G75*
G03*
X22947422Y-11031402I-40000J0D01*
G01*
X23007449Y-11278207D02*
G75*
G03*
X23007449Y-11278207I-40000J0D01*
G01*
X23244860Y-13651529D02*
G75*
G03*
X23244860Y-13651529I-40000J0D01*
G01*
X23564434Y-10881333D02*
G75*
G03*
X23564434Y-10881333I-40000J0D01*
G01*
X23624461Y-11128138D02*
G75*
G03*
X23624461Y-11128138I-40000J0D01*
G01*
X23844019Y-6656996D02*
G75*
G03*
X23844019Y-6656996I-40000J0D01*
G01*
X23904046Y-6903801D02*
G75*
G03*
X23904046Y-6903801I-40000J0D01*
G01*
X24424860Y-13129266D02*
G75*
G03*
X24424860Y-13129266I-40000J0D01*
G01*
X24461031Y-6506926D02*
G75*
G03*
X24461031Y-6506926I-40000J0D01*
G01*
X24521059Y-6753732D02*
G75*
G03*
X24521059Y-6753732I-40000J0D01*
G01*
X24719753Y-10365073D02*
G75*
G03*
X24719753Y-10365073I-40000J0D01*
G01*
X24779781Y-10611878D02*
G75*
G03*
X24779781Y-10611878I-40000J0D01*
G01*
X25041872Y-12979197D02*
G75*
G03*
X25041872Y-12979197I-40000J0D01*
G01*
X25336766Y-10215004D02*
G75*
G03*
X25336766Y-10215004I-40000J0D01*
G01*
X25396793Y-10461809D02*
G75*
G03*
X25396793Y-10461809I-40000J0D01*
G01*
X25749081Y-6428913D02*
G75*
G03*
X25749081Y-6428913I-40000J0D01*
G01*
X25809108Y-6675718D02*
G75*
G03*
X25809108Y-6675718I-40000J0D01*
G01*
X26366093Y-6278844D02*
G75*
G03*
X26366093Y-6278844I-40000J0D01*
G01*
X26426121Y-6525649D02*
G75*
G03*
X26426121Y-6525649I-40000J0D01*
G01*
X26649496Y-10130987D02*
G75*
G03*
X26649496Y-10130987I-40000J0D01*
G01*
X26703521Y-10353111D02*
G75*
G03*
X26703521Y-10353111I-40000J0D01*
G01*
X27266508Y-9980918D02*
G75*
G03*
X27266508Y-9980918I-40000J0D01*
G01*
X27320533Y-10203042D02*
G75*
G03*
X27320533Y-10203042I-40000J0D01*
G01*
X27714170Y-6447635D02*
G75*
G03*
X27714170Y-6447635I-40000J0D01*
G01*
X27774198Y-6694440D02*
G75*
G03*
X27774198Y-6694440I-40000J0D01*
G01*
X28331183Y-6297566D02*
G75*
G03*
X28331183Y-6297566I-40000J0D01*
G01*
X28391210Y-6544370D02*
G75*
G03*
X28391210Y-6544370I-40000J0D01*
G01*
X28614585Y-10149709D02*
G75*
G03*
X28614585Y-10149709I-40000J0D01*
G01*
X28674613Y-10396514D02*
G75*
G03*
X28674613Y-10396514I-40000J0D01*
G01*
X29231598Y-9999640D02*
G75*
G03*
X29231598Y-9999640I-40000J0D01*
G01*
X29291625Y-10246445D02*
G75*
G03*
X29291625Y-10246445I-40000J0D01*
G01*
X29565207Y-5997427D02*
G75*
G03*
X29565207Y-5997427I-40000J0D01*
G01*
X29625235Y-6244232D02*
G75*
G03*
X29625235Y-6244232I-40000J0D01*
G01*
X30182220Y-5847358D02*
G75*
G03*
X30182220Y-5847358I-40000J0D01*
G01*
X30242248Y-6094163D02*
G75*
G03*
X30242248Y-6094163I-40000J0D01*
G01*
X30465623Y-9699502D02*
G75*
G03*
X30465623Y-9699502I-40000J0D01*
G01*
X30525650Y-9946307D02*
G75*
G03*
X30525650Y-9946307I-40000J0D01*
G01*
X31082635Y-9549432D02*
G75*
G03*
X31082635Y-9549432I-40000J0D01*
G01*
X31142662Y-9796237D02*
G75*
G03*
X31142662Y-9796237I-40000J0D01*
G01*
D14*
X17576802Y-9140317D02*
X17576802Y-9249537D01*
X17522192Y-9194927D02*
X17631412Y-9194927D01*
X17576802Y-9394317D02*
X17576802Y-9503537D01*
X17522192Y-9448927D02*
X17631412Y-9448927D01*
X17576802Y-9648317D02*
X17576802Y-9757537D01*
X17522192Y-9702927D02*
X17631412Y-9702927D01*
X17576802Y-9902317D02*
X17576802Y-10011537D01*
X17522192Y-9956927D02*
X17631412Y-9956927D01*
X17576802Y-10156317D02*
X17576802Y-10265537D01*
X17522192Y-10210927D02*
X17631412Y-10210927D01*
X17576802Y-10410317D02*
X17576802Y-10519537D01*
X17522192Y-10464927D02*
X17631412Y-10464927D01*
X17576802Y-10664317D02*
X17576802Y-10773537D01*
X17522192Y-10718927D02*
X17631412Y-10718927D01*
X17576802Y-10918317D02*
X17576802Y-11027537D01*
X17522192Y-10972927D02*
X17631412Y-10972927D01*
X17576802Y-11172317D02*
X17576802Y-11281537D01*
X17522192Y-11226927D02*
X17631412Y-11226927D01*
X17576802Y-11426317D02*
X17576802Y-11535537D01*
X17522192Y-11480927D02*
X17631412Y-11480927D01*
X17576802Y-11680317D02*
X17576802Y-11789537D01*
X17522192Y-11734927D02*
X17631412Y-11734927D01*
X17576802Y-11934317D02*
X17576802Y-12043537D01*
X17522192Y-11988927D02*
X17631412Y-11988927D01*
X17830802Y-11934317D02*
X17830802Y-12043537D01*
X17776192Y-11988927D02*
X17885412Y-11988927D01*
X18084802Y-11934317D02*
X18084802Y-12043537D01*
X18030192Y-11988927D02*
X18139412Y-11988927D01*
X18338802Y-11934317D02*
X18338802Y-12043537D01*
X18284192Y-11988927D02*
X18393412Y-11988927D01*
X18592802Y-11934317D02*
X18592802Y-12043537D01*
X18538192Y-11988927D02*
X18647412Y-11988927D01*
X18846802Y-11934317D02*
X18846802Y-12043537D01*
X18792192Y-11988927D02*
X18901412Y-11988927D01*
X19100802Y-9140317D02*
X19100802Y-9249537D01*
X19046192Y-9194927D02*
X19155412Y-9194927D01*
X19100802Y-9394317D02*
X19100802Y-9503537D01*
X19046192Y-9448927D02*
X19155412Y-9448927D01*
X19100802Y-9648317D02*
X19100802Y-9757537D01*
X19046192Y-9702927D02*
X19155412Y-9702927D01*
X19100802Y-9902317D02*
X19100802Y-10011537D01*
X19046192Y-9956927D02*
X19155412Y-9956927D01*
X19100802Y-10156317D02*
X19100802Y-10265537D01*
X19046192Y-10210927D02*
X19155412Y-10210927D01*
X19100802Y-10410317D02*
X19100802Y-10519537D01*
X19046192Y-10464927D02*
X19155412Y-10464927D01*
X19100802Y-10664317D02*
X19100802Y-10773537D01*
X19046192Y-10718927D02*
X19155412Y-10718927D01*
X19100802Y-10918317D02*
X19100802Y-11027537D01*
X19046192Y-10972927D02*
X19155412Y-10972927D01*
X19100802Y-11172317D02*
X19100802Y-11281537D01*
X19046192Y-11226927D02*
X19155412Y-11226927D01*
X19100802Y-11426317D02*
X19100802Y-11535537D01*
X19046192Y-11480927D02*
X19155412Y-11480927D01*
X19100802Y-11680317D02*
X19100802Y-11789537D01*
X19046192Y-11734927D02*
X19155412Y-11734927D01*
X19100802Y-11934317D02*
X19100802Y-12043537D01*
X19046192Y-11988927D02*
X19155412Y-11988927D01*
D15*
X19560786Y-5424222D02*
X19560786Y-5332297D01*
X19468862Y-5332297D01*
X19468862Y-5424222D01*
X19560786Y-5424222D01*
X20205941Y-5345007D02*
X20205941Y-5253082D01*
X20114017Y-5253082D01*
X20114017Y-5345007D01*
X20205941Y-5345007D01*
D11*
X4393421Y-17821328D02*
X4393421Y-17621328D01*
X4441040Y-17621328D01*
X4469611Y-17630852D01*
X4488659Y-17649899D01*
X4498182Y-17668947D01*
X4507706Y-17707042D01*
X4507706Y-17735614D01*
X4498182Y-17773709D01*
X4488659Y-17792756D01*
X4469611Y-17811804D01*
X4441040Y-17821328D01*
X4393421Y-17821328D01*
X4593421Y-17821328D02*
X4593421Y-17687994D01*
X4593421Y-17726090D02*
X4602944Y-17707042D01*
X4612468Y-17697518D01*
X4631516Y-17687994D01*
X4650563Y-17687994D01*
X4717230Y-17821328D02*
X4717230Y-17687994D01*
X4717230Y-17621328D02*
X4707706Y-17630852D01*
X4717230Y-17640375D01*
X4726754Y-17630852D01*
X4717230Y-17621328D01*
X4717230Y-17640375D01*
X4841040Y-17821328D02*
X4821992Y-17811804D01*
X4812468Y-17792756D01*
X4812468Y-17621328D01*
X4945802Y-17821328D02*
X4926754Y-17811804D01*
X4917230Y-17792756D01*
X4917230Y-17621328D01*
X5174373Y-17821328D02*
X5174373Y-17621328D01*
X5241040Y-17764185D01*
X5307706Y-17621328D01*
X5307706Y-17821328D01*
X5488659Y-17821328D02*
X5488659Y-17716566D01*
X5479135Y-17697518D01*
X5460087Y-17687994D01*
X5421992Y-17687994D01*
X5402944Y-17697518D01*
X5488659Y-17811804D02*
X5469611Y-17821328D01*
X5421992Y-17821328D01*
X5402944Y-17811804D01*
X5393421Y-17792756D01*
X5393421Y-17773709D01*
X5402944Y-17754661D01*
X5421992Y-17745137D01*
X5469611Y-17745137D01*
X5488659Y-17735614D01*
X5583897Y-17687994D02*
X5583897Y-17887994D01*
X5583897Y-17697518D02*
X5602944Y-17687994D01*
X5641039Y-17687994D01*
X5660087Y-17697518D01*
X5669611Y-17707042D01*
X5679135Y-17726090D01*
X5679135Y-17783233D01*
X5669611Y-17802280D01*
X5660087Y-17811804D01*
X5641039Y-17821328D01*
X5602944Y-17821328D01*
X5583897Y-17811804D01*
X5764849Y-17802280D02*
X5774373Y-17811804D01*
X5764849Y-17821328D01*
X5755325Y-17811804D01*
X5764849Y-17802280D01*
X5764849Y-17821328D01*
X5764849Y-17697518D02*
X5774373Y-17707042D01*
X5764849Y-17716566D01*
X5755325Y-17707042D01*
X5764849Y-17697518D01*
X5764849Y-17716566D01*
D12*
X4095801Y-18130852D02*
X4135801Y-18170852D01*
X4135801Y-18130852D02*
X4095801Y-18170852D01*
D11*
X4431516Y-18041328D02*
X4450563Y-18041328D01*
X4469611Y-18050852D01*
X4479135Y-18060375D01*
X4488659Y-18079423D01*
X4498182Y-18117518D01*
X4498182Y-18165137D01*
X4488659Y-18203233D01*
X4479135Y-18222280D01*
X4469611Y-18231804D01*
X4450563Y-18241328D01*
X4431516Y-18241328D01*
X4412468Y-18231804D01*
X4402944Y-18222280D01*
X4393421Y-18203233D01*
X4383897Y-18165137D01*
X4383897Y-18117518D01*
X4393421Y-18079423D01*
X4402944Y-18060375D01*
X4412468Y-18050852D01*
X4431516Y-18041328D01*
X4583897Y-18222280D02*
X4593421Y-18231804D01*
X4583897Y-18241328D01*
X4574373Y-18231804D01*
X4583897Y-18222280D01*
X4583897Y-18241328D01*
X4764849Y-18107994D02*
X4764849Y-18241328D01*
X4717230Y-18031804D02*
X4669611Y-18174661D01*
X4793421Y-18174661D01*
X4907706Y-18041328D02*
X4926754Y-18041328D01*
X4945802Y-18050852D01*
X4955325Y-18060375D01*
X4964849Y-18079423D01*
X4974373Y-18117518D01*
X4974373Y-18165137D01*
X4964849Y-18203233D01*
X4955325Y-18222280D01*
X4945802Y-18231804D01*
X4926754Y-18241328D01*
X4907706Y-18241328D01*
X4888659Y-18231804D01*
X4879135Y-18222280D01*
X4869611Y-18203233D01*
X4860087Y-18165137D01*
X4860087Y-18117518D01*
X4869611Y-18079423D01*
X4879135Y-18060375D01*
X4888659Y-18050852D01*
X4907706Y-18041328D01*
X5098182Y-18041328D02*
X5117230Y-18041328D01*
X5136278Y-18050852D01*
X5145802Y-18060375D01*
X5155325Y-18079423D01*
X5164849Y-18117518D01*
X5164849Y-18165137D01*
X5155325Y-18203233D01*
X5145802Y-18222280D01*
X5136278Y-18231804D01*
X5117230Y-18241328D01*
X5098182Y-18241328D01*
X5079135Y-18231804D01*
X5069611Y-18222280D01*
X5060087Y-18203233D01*
X5050563Y-18165137D01*
X5050563Y-18117518D01*
X5060087Y-18079423D01*
X5069611Y-18060375D01*
X5079135Y-18050852D01*
X5098182Y-18041328D01*
X5250563Y-18241328D02*
X5250563Y-18107994D01*
X5250563Y-18127042D02*
X5260087Y-18117518D01*
X5279135Y-18107994D01*
X5307706Y-18107994D01*
X5326754Y-18117518D01*
X5336278Y-18136566D01*
X5336278Y-18241328D01*
X5336278Y-18136566D02*
X5345802Y-18117518D01*
X5364849Y-18107994D01*
X5393421Y-18107994D01*
X5412468Y-18117518D01*
X5421992Y-18136566D01*
X5421992Y-18241328D01*
X5517230Y-18241328D02*
X5517230Y-18107994D01*
X5517230Y-18127042D02*
X5526754Y-18117518D01*
X5545802Y-18107994D01*
X5574373Y-18107994D01*
X5593420Y-18117518D01*
X5602944Y-18136566D01*
X5602944Y-18241328D01*
X5602944Y-18136566D02*
X5612468Y-18117518D01*
X5631516Y-18107994D01*
X5660087Y-18107994D01*
X5679135Y-18117518D01*
X5688659Y-18136566D01*
X5688659Y-18241328D01*
X6079135Y-18031804D02*
X5907706Y-18288947D01*
X6336278Y-18041328D02*
X6355325Y-18041328D01*
X6374373Y-18050852D01*
X6383897Y-18060375D01*
X6393420Y-18079423D01*
X6402944Y-18117518D01*
X6402944Y-18165137D01*
X6393420Y-18203233D01*
X6383897Y-18222280D01*
X6374373Y-18231804D01*
X6355325Y-18241328D01*
X6336278Y-18241328D01*
X6317230Y-18231804D01*
X6307706Y-18222280D01*
X6298182Y-18203233D01*
X6288659Y-18165137D01*
X6288659Y-18117518D01*
X6298182Y-18079423D01*
X6307706Y-18060375D01*
X6317230Y-18050852D01*
X6336278Y-18041328D01*
X6488659Y-18222280D02*
X6498182Y-18231804D01*
X6488659Y-18241328D01*
X6479135Y-18231804D01*
X6488659Y-18222280D01*
X6488659Y-18241328D01*
X6621992Y-18041328D02*
X6641039Y-18041328D01*
X6660087Y-18050852D01*
X6669611Y-18060375D01*
X6679135Y-18079423D01*
X6688659Y-18117518D01*
X6688659Y-18165137D01*
X6679135Y-18203233D01*
X6669611Y-18222280D01*
X6660087Y-18231804D01*
X6641039Y-18241328D01*
X6621992Y-18241328D01*
X6602944Y-18231804D01*
X6593420Y-18222280D01*
X6583897Y-18203233D01*
X6574373Y-18165137D01*
X6574373Y-18117518D01*
X6583897Y-18079423D01*
X6593420Y-18060375D01*
X6602944Y-18050852D01*
X6621992Y-18041328D01*
X6879135Y-18241328D02*
X6764849Y-18241328D01*
X6821992Y-18241328D02*
X6821992Y-18041328D01*
X6802944Y-18069899D01*
X6783897Y-18088947D01*
X6764849Y-18098471D01*
X7060087Y-18041328D02*
X6964849Y-18041328D01*
X6955325Y-18136566D01*
X6964849Y-18127042D01*
X6983897Y-18117518D01*
X7031516Y-18117518D01*
X7050563Y-18127042D01*
X7060087Y-18136566D01*
X7069611Y-18155614D01*
X7069611Y-18203233D01*
X7060087Y-18222280D01*
X7050563Y-18231804D01*
X7031516Y-18241328D01*
X6983897Y-18241328D01*
X6964849Y-18231804D01*
X6955325Y-18222280D01*
X7136278Y-18041328D02*
X7269611Y-18041328D01*
X7183897Y-18241328D01*
X7336278Y-18041328D02*
X7336278Y-18079423D01*
X7412468Y-18041328D02*
X7412468Y-18079423D01*
X7707706Y-18317518D02*
X7698182Y-18307994D01*
X7679135Y-18279423D01*
X7669611Y-18260375D01*
X7660087Y-18231804D01*
X7650563Y-18184185D01*
X7650563Y-18146090D01*
X7660087Y-18098471D01*
X7669611Y-18069899D01*
X7679135Y-18050852D01*
X7698182Y-18022280D01*
X7707706Y-18012756D01*
X7869611Y-18041328D02*
X7831516Y-18041328D01*
X7812468Y-18050852D01*
X7802944Y-18060375D01*
X7783897Y-18088947D01*
X7774373Y-18127042D01*
X7774373Y-18203233D01*
X7783897Y-18222280D01*
X7793420Y-18231804D01*
X7812468Y-18241328D01*
X7850563Y-18241328D01*
X7869611Y-18231804D01*
X7879135Y-18222280D01*
X7888659Y-18203233D01*
X7888659Y-18155614D01*
X7879135Y-18136566D01*
X7869611Y-18127042D01*
X7850563Y-18117518D01*
X7812468Y-18117518D01*
X7793420Y-18127042D01*
X7783897Y-18136566D01*
X7774373Y-18155614D01*
X8126754Y-18241328D02*
X8126754Y-18041328D01*
X8212468Y-18241328D02*
X8212468Y-18136566D01*
X8202944Y-18117518D01*
X8183897Y-18107994D01*
X8155325Y-18107994D01*
X8136278Y-18117518D01*
X8126754Y-18127042D01*
X8336278Y-18241328D02*
X8317230Y-18231804D01*
X8307706Y-18222280D01*
X8298182Y-18203233D01*
X8298182Y-18146090D01*
X8307706Y-18127042D01*
X8317230Y-18117518D01*
X8336278Y-18107994D01*
X8364849Y-18107994D01*
X8383897Y-18117518D01*
X8393421Y-18127042D01*
X8402944Y-18146090D01*
X8402944Y-18203233D01*
X8393421Y-18222280D01*
X8383897Y-18231804D01*
X8364849Y-18241328D01*
X8336278Y-18241328D01*
X8517230Y-18241328D02*
X8498182Y-18231804D01*
X8488659Y-18212756D01*
X8488659Y-18041328D01*
X8669611Y-18231804D02*
X8650563Y-18241328D01*
X8612468Y-18241328D01*
X8593421Y-18231804D01*
X8583897Y-18212756D01*
X8583897Y-18136566D01*
X8593421Y-18117518D01*
X8612468Y-18107994D01*
X8650563Y-18107994D01*
X8669611Y-18117518D01*
X8679135Y-18136566D01*
X8679135Y-18155614D01*
X8583897Y-18174661D01*
X8755325Y-18231804D02*
X8774373Y-18241328D01*
X8812468Y-18241328D01*
X8831516Y-18231804D01*
X8841040Y-18212756D01*
X8841040Y-18203233D01*
X8831516Y-18184185D01*
X8812468Y-18174661D01*
X8783897Y-18174661D01*
X8764849Y-18165137D01*
X8755325Y-18146090D01*
X8755325Y-18136566D01*
X8764849Y-18117518D01*
X8783897Y-18107994D01*
X8812468Y-18107994D01*
X8831516Y-18117518D01*
X8907706Y-18317518D02*
X8917230Y-18307994D01*
X8936278Y-18279423D01*
X8945801Y-18260375D01*
X8955325Y-18231804D01*
X8964849Y-18184185D01*
X8964849Y-18146090D01*
X8955325Y-18098471D01*
X8945801Y-18069899D01*
X8936278Y-18050852D01*
X8917230Y-18022280D01*
X8907706Y-18012756D01*
D13*
X4135801Y-18414852D02*
G75*
G03*
X4135801Y-18414852I-40000J0D01*
G01*
D11*
X4431516Y-18305328D02*
X4450563Y-18305328D01*
X4469611Y-18314852D01*
X4479135Y-18324375D01*
X4488659Y-18343423D01*
X4498182Y-18381518D01*
X4498182Y-18429137D01*
X4488659Y-18467233D01*
X4479135Y-18486280D01*
X4469611Y-18495804D01*
X4450563Y-18505328D01*
X4431516Y-18505328D01*
X4412468Y-18495804D01*
X4402944Y-18486280D01*
X4393421Y-18467233D01*
X4383897Y-18429137D01*
X4383897Y-18381518D01*
X4393421Y-18343423D01*
X4402944Y-18324375D01*
X4412468Y-18314852D01*
X4431516Y-18305328D01*
X4583897Y-18486280D02*
X4593421Y-18495804D01*
X4583897Y-18505328D01*
X4574373Y-18495804D01*
X4583897Y-18486280D01*
X4583897Y-18505328D01*
X4707706Y-18391042D02*
X4688659Y-18381518D01*
X4679135Y-18371994D01*
X4669611Y-18352947D01*
X4669611Y-18343423D01*
X4679135Y-18324375D01*
X4688659Y-18314852D01*
X4707706Y-18305328D01*
X4745802Y-18305328D01*
X4764849Y-18314852D01*
X4774373Y-18324375D01*
X4783897Y-18343423D01*
X4783897Y-18352947D01*
X4774373Y-18371994D01*
X4764849Y-18381518D01*
X4745802Y-18391042D01*
X4707706Y-18391042D01*
X4688659Y-18400566D01*
X4679135Y-18410090D01*
X4669611Y-18429137D01*
X4669611Y-18467233D01*
X4679135Y-18486280D01*
X4688659Y-18495804D01*
X4707706Y-18505328D01*
X4745802Y-18505328D01*
X4764849Y-18495804D01*
X4774373Y-18486280D01*
X4783897Y-18467233D01*
X4783897Y-18429137D01*
X4774373Y-18410090D01*
X4764849Y-18400566D01*
X4745802Y-18391042D01*
X4907706Y-18305328D02*
X4926754Y-18305328D01*
X4945802Y-18314852D01*
X4955325Y-18324375D01*
X4964849Y-18343423D01*
X4974373Y-18381518D01*
X4974373Y-18429137D01*
X4964849Y-18467233D01*
X4955325Y-18486280D01*
X4945802Y-18495804D01*
X4926754Y-18505328D01*
X4907706Y-18505328D01*
X4888659Y-18495804D01*
X4879135Y-18486280D01*
X4869611Y-18467233D01*
X4860087Y-18429137D01*
X4860087Y-18381518D01*
X4869611Y-18343423D01*
X4879135Y-18324375D01*
X4888659Y-18314852D01*
X4907706Y-18305328D01*
X5098182Y-18305328D02*
X5117230Y-18305328D01*
X5136278Y-18314852D01*
X5145802Y-18324375D01*
X5155325Y-18343423D01*
X5164849Y-18381518D01*
X5164849Y-18429137D01*
X5155325Y-18467233D01*
X5145802Y-18486280D01*
X5136278Y-18495804D01*
X5117230Y-18505328D01*
X5098182Y-18505328D01*
X5079135Y-18495804D01*
X5069611Y-18486280D01*
X5060087Y-18467233D01*
X5050563Y-18429137D01*
X5050563Y-18381518D01*
X5060087Y-18343423D01*
X5069611Y-18324375D01*
X5079135Y-18314852D01*
X5098182Y-18305328D01*
X5250563Y-18505328D02*
X5250563Y-18371994D01*
X5250563Y-18391042D02*
X5260087Y-18381518D01*
X5279135Y-18371994D01*
X5307706Y-18371994D01*
X5326754Y-18381518D01*
X5336278Y-18400566D01*
X5336278Y-18505328D01*
X5336278Y-18400566D02*
X5345802Y-18381518D01*
X5364849Y-18371994D01*
X5393421Y-18371994D01*
X5412468Y-18381518D01*
X5421992Y-18400566D01*
X5421992Y-18505328D01*
X5517230Y-18505328D02*
X5517230Y-18371994D01*
X5517230Y-18391042D02*
X5526754Y-18381518D01*
X5545802Y-18371994D01*
X5574373Y-18371994D01*
X5593420Y-18381518D01*
X5602944Y-18400566D01*
X5602944Y-18505328D01*
X5602944Y-18400566D02*
X5612468Y-18381518D01*
X5631516Y-18371994D01*
X5660087Y-18371994D01*
X5679135Y-18381518D01*
X5688659Y-18400566D01*
X5688659Y-18505328D01*
X6079135Y-18295804D02*
X5907706Y-18552947D01*
X6336278Y-18305328D02*
X6355325Y-18305328D01*
X6374373Y-18314852D01*
X6383897Y-18324375D01*
X6393420Y-18343423D01*
X6402944Y-18381518D01*
X6402944Y-18429137D01*
X6393420Y-18467233D01*
X6383897Y-18486280D01*
X6374373Y-18495804D01*
X6355325Y-18505328D01*
X6336278Y-18505328D01*
X6317230Y-18495804D01*
X6307706Y-18486280D01*
X6298182Y-18467233D01*
X6288659Y-18429137D01*
X6288659Y-18381518D01*
X6298182Y-18343423D01*
X6307706Y-18324375D01*
X6317230Y-18314852D01*
X6336278Y-18305328D01*
X6488659Y-18486280D02*
X6498182Y-18495804D01*
X6488659Y-18505328D01*
X6479135Y-18495804D01*
X6488659Y-18486280D01*
X6488659Y-18505328D01*
X6621992Y-18305328D02*
X6641039Y-18305328D01*
X6660087Y-18314852D01*
X6669611Y-18324375D01*
X6679135Y-18343423D01*
X6688659Y-18381518D01*
X6688659Y-18429137D01*
X6679135Y-18467233D01*
X6669611Y-18486280D01*
X6660087Y-18495804D01*
X6641039Y-18505328D01*
X6621992Y-18505328D01*
X6602944Y-18495804D01*
X6593420Y-18486280D01*
X6583897Y-18467233D01*
X6574373Y-18429137D01*
X6574373Y-18381518D01*
X6583897Y-18343423D01*
X6593420Y-18324375D01*
X6602944Y-18314852D01*
X6621992Y-18305328D01*
X6755325Y-18305328D02*
X6879135Y-18305328D01*
X6812468Y-18381518D01*
X6841039Y-18381518D01*
X6860087Y-18391042D01*
X6869611Y-18400566D01*
X6879135Y-18419614D01*
X6879135Y-18467233D01*
X6869611Y-18486280D01*
X6860087Y-18495804D01*
X6841039Y-18505328D01*
X6783897Y-18505328D01*
X6764849Y-18495804D01*
X6755325Y-18486280D01*
X7069611Y-18505328D02*
X6955325Y-18505328D01*
X7012468Y-18505328D02*
X7012468Y-18305328D01*
X6993420Y-18333899D01*
X6974373Y-18352947D01*
X6955325Y-18362471D01*
X7250563Y-18305328D02*
X7155325Y-18305328D01*
X7145801Y-18400566D01*
X7155325Y-18391042D01*
X7174373Y-18381518D01*
X7221992Y-18381518D01*
X7241039Y-18391042D01*
X7250563Y-18400566D01*
X7260087Y-18419614D01*
X7260087Y-18467233D01*
X7250563Y-18486280D01*
X7241039Y-18495804D01*
X7221992Y-18505328D01*
X7174373Y-18505328D01*
X7155325Y-18495804D01*
X7145801Y-18486280D01*
X7336278Y-18305328D02*
X7336278Y-18343423D01*
X7412468Y-18305328D02*
X7412468Y-18343423D01*
X7707706Y-18581518D02*
X7698182Y-18571994D01*
X7679135Y-18543423D01*
X7669611Y-18524375D01*
X7660087Y-18495804D01*
X7650563Y-18448185D01*
X7650563Y-18410090D01*
X7660087Y-18362471D01*
X7669611Y-18333899D01*
X7679135Y-18314852D01*
X7698182Y-18286280D01*
X7707706Y-18276756D01*
X7888659Y-18505328D02*
X7774373Y-18505328D01*
X7831516Y-18505328D02*
X7831516Y-18305328D01*
X7812468Y-18333899D01*
X7793420Y-18352947D01*
X7774373Y-18362471D01*
X8079135Y-18505328D02*
X7964849Y-18505328D01*
X8021992Y-18505328D02*
X8021992Y-18305328D01*
X8002944Y-18333899D01*
X7983897Y-18352947D01*
X7964849Y-18362471D01*
X8155325Y-18324375D02*
X8164849Y-18314852D01*
X8183897Y-18305328D01*
X8231516Y-18305328D01*
X8250563Y-18314852D01*
X8260087Y-18324375D01*
X8269611Y-18343423D01*
X8269611Y-18362471D01*
X8260087Y-18391042D01*
X8145801Y-18505328D01*
X8269611Y-18505328D01*
X8507706Y-18505328D02*
X8507706Y-18305328D01*
X8593421Y-18505328D02*
X8593421Y-18400566D01*
X8583897Y-18381518D01*
X8564849Y-18371994D01*
X8536278Y-18371994D01*
X8517230Y-18381518D01*
X8507706Y-18391042D01*
X8717230Y-18505328D02*
X8698182Y-18495804D01*
X8688659Y-18486280D01*
X8679135Y-18467233D01*
X8679135Y-18410090D01*
X8688659Y-18391042D01*
X8698182Y-18381518D01*
X8717230Y-18371994D01*
X8745801Y-18371994D01*
X8764849Y-18381518D01*
X8774373Y-18391042D01*
X8783897Y-18410090D01*
X8783897Y-18467233D01*
X8774373Y-18486280D01*
X8764849Y-18495804D01*
X8745801Y-18505328D01*
X8717230Y-18505328D01*
X8898182Y-18505328D02*
X8879135Y-18495804D01*
X8869611Y-18476756D01*
X8869611Y-18305328D01*
X9050563Y-18495804D02*
X9031516Y-18505328D01*
X8993421Y-18505328D01*
X8974373Y-18495804D01*
X8964849Y-18476756D01*
X8964849Y-18400566D01*
X8974373Y-18381518D01*
X8993421Y-18371994D01*
X9031516Y-18371994D01*
X9050563Y-18381518D01*
X9060087Y-18400566D01*
X9060087Y-18419614D01*
X8964849Y-18438661D01*
X9136278Y-18495804D02*
X9155325Y-18505328D01*
X9193421Y-18505328D01*
X9212468Y-18495804D01*
X9221992Y-18476756D01*
X9221992Y-18467233D01*
X9212468Y-18448185D01*
X9193421Y-18438661D01*
X9164849Y-18438661D01*
X9145801Y-18429137D01*
X9136278Y-18410090D01*
X9136278Y-18400566D01*
X9145801Y-18381518D01*
X9164849Y-18371994D01*
X9193421Y-18371994D01*
X9212468Y-18381518D01*
X9288659Y-18581518D02*
X9298182Y-18571994D01*
X9317230Y-18543423D01*
X9326754Y-18524375D01*
X9336278Y-18495804D01*
X9345801Y-18448185D01*
X9345801Y-18410090D01*
X9336278Y-18362471D01*
X9326754Y-18333899D01*
X9317230Y-18314852D01*
X9298182Y-18286280D01*
X9288659Y-18276756D01*
D14*
X4081191Y-18624242D02*
X4081191Y-18733462D01*
X4026581Y-18678852D02*
X4135801Y-18678852D01*
D11*
X4498182Y-18769328D02*
X4383897Y-18769328D01*
X4441040Y-18769328D02*
X4441040Y-18569328D01*
X4421992Y-18597899D01*
X4402944Y-18616947D01*
X4383897Y-18626471D01*
X4583897Y-18750280D02*
X4593421Y-18759804D01*
X4583897Y-18769328D01*
X4574373Y-18759804D01*
X4583897Y-18750280D01*
X4583897Y-18769328D01*
X4717230Y-18569328D02*
X4736278Y-18569328D01*
X4755325Y-18578852D01*
X4764849Y-18588375D01*
X4774373Y-18607423D01*
X4783897Y-18645518D01*
X4783897Y-18693137D01*
X4774373Y-18731233D01*
X4764849Y-18750280D01*
X4755325Y-18759804D01*
X4736278Y-18769328D01*
X4717230Y-18769328D01*
X4698182Y-18759804D01*
X4688659Y-18750280D01*
X4679135Y-18731233D01*
X4669611Y-18693137D01*
X4669611Y-18645518D01*
X4679135Y-18607423D01*
X4688659Y-18588375D01*
X4698182Y-18578852D01*
X4717230Y-18569328D01*
X4879135Y-18769328D02*
X4917230Y-18769328D01*
X4936278Y-18759804D01*
X4945802Y-18750280D01*
X4964849Y-18721709D01*
X4974373Y-18683614D01*
X4974373Y-18607423D01*
X4964849Y-18588375D01*
X4955325Y-18578852D01*
X4936278Y-18569328D01*
X4898182Y-18569328D01*
X4879135Y-18578852D01*
X4869611Y-18588375D01*
X4860087Y-18607423D01*
X4860087Y-18655042D01*
X4869611Y-18674090D01*
X4879135Y-18683614D01*
X4898182Y-18693137D01*
X4936278Y-18693137D01*
X4955325Y-18683614D01*
X4964849Y-18674090D01*
X4974373Y-18655042D01*
X5050563Y-18588375D02*
X5060087Y-18578852D01*
X5079135Y-18569328D01*
X5126754Y-18569328D01*
X5145802Y-18578852D01*
X5155325Y-18588375D01*
X5164849Y-18607423D01*
X5164849Y-18626471D01*
X5155325Y-18655042D01*
X5041040Y-18769328D01*
X5164849Y-18769328D01*
X5250563Y-18769328D02*
X5250563Y-18635994D01*
X5250563Y-18655042D02*
X5260087Y-18645518D01*
X5279135Y-18635994D01*
X5307706Y-18635994D01*
X5326754Y-18645518D01*
X5336278Y-18664566D01*
X5336278Y-18769328D01*
X5336278Y-18664566D02*
X5345802Y-18645518D01*
X5364849Y-18635994D01*
X5393421Y-18635994D01*
X5412468Y-18645518D01*
X5421992Y-18664566D01*
X5421992Y-18769328D01*
X5517230Y-18769328D02*
X5517230Y-18635994D01*
X5517230Y-18655042D02*
X5526754Y-18645518D01*
X5545802Y-18635994D01*
X5574373Y-18635994D01*
X5593420Y-18645518D01*
X5602944Y-18664566D01*
X5602944Y-18769328D01*
X5602944Y-18664566D02*
X5612468Y-18645518D01*
X5631516Y-18635994D01*
X5660087Y-18635994D01*
X5679135Y-18645518D01*
X5688659Y-18664566D01*
X5688659Y-18769328D01*
X6079135Y-18559804D02*
X5907706Y-18816947D01*
X6336278Y-18569328D02*
X6355325Y-18569328D01*
X6374373Y-18578852D01*
X6383897Y-18588375D01*
X6393420Y-18607423D01*
X6402944Y-18645518D01*
X6402944Y-18693137D01*
X6393420Y-18731233D01*
X6383897Y-18750280D01*
X6374373Y-18759804D01*
X6355325Y-18769328D01*
X6336278Y-18769328D01*
X6317230Y-18759804D01*
X6307706Y-18750280D01*
X6298182Y-18731233D01*
X6288659Y-18693137D01*
X6288659Y-18645518D01*
X6298182Y-18607423D01*
X6307706Y-18588375D01*
X6317230Y-18578852D01*
X6336278Y-18569328D01*
X6488659Y-18750280D02*
X6498182Y-18759804D01*
X6488659Y-18769328D01*
X6479135Y-18759804D01*
X6488659Y-18750280D01*
X6488659Y-18769328D01*
X6621992Y-18569328D02*
X6641039Y-18569328D01*
X6660087Y-18578852D01*
X6669611Y-18588375D01*
X6679135Y-18607423D01*
X6688659Y-18645518D01*
X6688659Y-18693137D01*
X6679135Y-18731233D01*
X6669611Y-18750280D01*
X6660087Y-18759804D01*
X6641039Y-18769328D01*
X6621992Y-18769328D01*
X6602944Y-18759804D01*
X6593420Y-18750280D01*
X6583897Y-18731233D01*
X6574373Y-18693137D01*
X6574373Y-18645518D01*
X6583897Y-18607423D01*
X6593420Y-18588375D01*
X6602944Y-18578852D01*
X6621992Y-18569328D01*
X6860087Y-18635994D02*
X6860087Y-18769328D01*
X6812468Y-18559804D02*
X6764849Y-18702661D01*
X6888659Y-18702661D01*
X6945801Y-18569328D02*
X7069611Y-18569328D01*
X7002944Y-18645518D01*
X7031516Y-18645518D01*
X7050563Y-18655042D01*
X7060087Y-18664566D01*
X7069611Y-18683614D01*
X7069611Y-18731233D01*
X7060087Y-18750280D01*
X7050563Y-18759804D01*
X7031516Y-18769328D01*
X6974373Y-18769328D01*
X6955325Y-18759804D01*
X6945801Y-18750280D01*
X7193420Y-18569328D02*
X7212468Y-18569328D01*
X7231516Y-18578852D01*
X7241039Y-18588375D01*
X7250563Y-18607423D01*
X7260087Y-18645518D01*
X7260087Y-18693137D01*
X7250563Y-18731233D01*
X7241039Y-18750280D01*
X7231516Y-18759804D01*
X7212468Y-18769328D01*
X7193420Y-18769328D01*
X7174373Y-18759804D01*
X7164849Y-18750280D01*
X7155325Y-18731233D01*
X7145801Y-18693137D01*
X7145801Y-18645518D01*
X7155325Y-18607423D01*
X7164849Y-18588375D01*
X7174373Y-18578852D01*
X7193420Y-18569328D01*
X7336278Y-18569328D02*
X7336278Y-18607423D01*
X7412468Y-18569328D02*
X7412468Y-18607423D01*
X7707706Y-18845518D02*
X7698182Y-18835994D01*
X7679135Y-18807423D01*
X7669611Y-18788375D01*
X7660087Y-18759804D01*
X7650563Y-18712185D01*
X7650563Y-18674090D01*
X7660087Y-18626471D01*
X7669611Y-18597899D01*
X7679135Y-18578852D01*
X7698182Y-18550280D01*
X7707706Y-18540756D01*
X7774373Y-18588375D02*
X7783897Y-18578852D01*
X7802944Y-18569328D01*
X7850563Y-18569328D01*
X7869611Y-18578852D01*
X7879135Y-18588375D01*
X7888659Y-18607423D01*
X7888659Y-18626471D01*
X7879135Y-18655042D01*
X7764849Y-18769328D01*
X7888659Y-18769328D01*
X7983897Y-18769328D02*
X8021992Y-18769328D01*
X8041039Y-18759804D01*
X8050563Y-18750280D01*
X8069611Y-18721709D01*
X8079135Y-18683614D01*
X8079135Y-18607423D01*
X8069611Y-18588375D01*
X8060087Y-18578852D01*
X8041039Y-18569328D01*
X8002944Y-18569328D01*
X7983897Y-18578852D01*
X7974373Y-18588375D01*
X7964849Y-18607423D01*
X7964849Y-18655042D01*
X7974373Y-18674090D01*
X7983897Y-18683614D01*
X8002944Y-18693137D01*
X8041039Y-18693137D01*
X8060087Y-18683614D01*
X8069611Y-18674090D01*
X8079135Y-18655042D01*
X8317230Y-18769328D02*
X8317230Y-18569328D01*
X8402944Y-18769328D02*
X8402944Y-18664566D01*
X8393421Y-18645518D01*
X8374373Y-18635994D01*
X8345801Y-18635994D01*
X8326754Y-18645518D01*
X8317230Y-18655042D01*
X8526754Y-18769328D02*
X8507706Y-18759804D01*
X8498182Y-18750280D01*
X8488659Y-18731233D01*
X8488659Y-18674090D01*
X8498182Y-18655042D01*
X8507706Y-18645518D01*
X8526754Y-18635994D01*
X8555325Y-18635994D01*
X8574373Y-18645518D01*
X8583897Y-18655042D01*
X8593421Y-18674090D01*
X8593421Y-18731233D01*
X8583897Y-18750280D01*
X8574373Y-18759804D01*
X8555325Y-18769328D01*
X8526754Y-18769328D01*
X8707706Y-18769328D02*
X8688659Y-18759804D01*
X8679135Y-18740756D01*
X8679135Y-18569328D01*
X8860087Y-18759804D02*
X8841040Y-18769328D01*
X8802944Y-18769328D01*
X8783897Y-18759804D01*
X8774373Y-18740756D01*
X8774373Y-18664566D01*
X8783897Y-18645518D01*
X8802944Y-18635994D01*
X8841040Y-18635994D01*
X8860087Y-18645518D01*
X8869611Y-18664566D01*
X8869611Y-18683614D01*
X8774373Y-18702661D01*
X8945801Y-18759804D02*
X8964849Y-18769328D01*
X9002944Y-18769328D01*
X9021992Y-18759804D01*
X9031516Y-18740756D01*
X9031516Y-18731233D01*
X9021992Y-18712185D01*
X9002944Y-18702661D01*
X8974373Y-18702661D01*
X8955325Y-18693137D01*
X8945801Y-18674090D01*
X8945801Y-18664566D01*
X8955325Y-18645518D01*
X8974373Y-18635994D01*
X9002944Y-18635994D01*
X9021992Y-18645518D01*
X9098182Y-18845518D02*
X9107706Y-18835994D01*
X9126754Y-18807423D01*
X9136278Y-18788375D01*
X9145801Y-18759804D01*
X9155325Y-18712185D01*
X9155325Y-18674090D01*
X9145801Y-18626471D01*
X9136278Y-18597899D01*
X9126754Y-18578852D01*
X9107706Y-18550280D01*
X9098182Y-18540756D01*
D15*
X4116764Y-18988814D02*
X4116764Y-18896889D01*
X4024839Y-18896889D01*
X4024839Y-18988814D01*
X4116764Y-18988814D01*
D11*
X4498182Y-19033328D02*
X4383897Y-19033328D01*
X4441040Y-19033328D02*
X4441040Y-18833328D01*
X4421992Y-18861899D01*
X4402944Y-18880947D01*
X4383897Y-18890471D01*
X4583897Y-19014280D02*
X4593421Y-19023804D01*
X4583897Y-19033328D01*
X4574373Y-19023804D01*
X4583897Y-19014280D01*
X4583897Y-19033328D01*
X4660087Y-18833328D02*
X4783897Y-18833328D01*
X4717230Y-18909518D01*
X4745802Y-18909518D01*
X4764849Y-18919042D01*
X4774373Y-18928566D01*
X4783897Y-18947614D01*
X4783897Y-18995233D01*
X4774373Y-19014280D01*
X4764849Y-19023804D01*
X4745802Y-19033328D01*
X4688659Y-19033328D01*
X4669611Y-19023804D01*
X4660087Y-19014280D01*
X4907706Y-18833328D02*
X4926754Y-18833328D01*
X4945802Y-18842852D01*
X4955325Y-18852375D01*
X4964849Y-18871423D01*
X4974373Y-18909518D01*
X4974373Y-18957137D01*
X4964849Y-18995233D01*
X4955325Y-19014280D01*
X4945802Y-19023804D01*
X4926754Y-19033328D01*
X4907706Y-19033328D01*
X4888659Y-19023804D01*
X4879135Y-19014280D01*
X4869611Y-18995233D01*
X4860087Y-18957137D01*
X4860087Y-18909518D01*
X4869611Y-18871423D01*
X4879135Y-18852375D01*
X4888659Y-18842852D01*
X4907706Y-18833328D01*
X5098182Y-18833328D02*
X5117230Y-18833328D01*
X5136278Y-18842852D01*
X5145802Y-18852375D01*
X5155325Y-18871423D01*
X5164849Y-18909518D01*
X5164849Y-18957137D01*
X5155325Y-18995233D01*
X5145802Y-19014280D01*
X5136278Y-19023804D01*
X5117230Y-19033328D01*
X5098182Y-19033328D01*
X5079135Y-19023804D01*
X5069611Y-19014280D01*
X5060087Y-18995233D01*
X5050563Y-18957137D01*
X5050563Y-18909518D01*
X5060087Y-18871423D01*
X5069611Y-18852375D01*
X5079135Y-18842852D01*
X5098182Y-18833328D01*
X5250563Y-19033328D02*
X5250563Y-18899994D01*
X5250563Y-18919042D02*
X5260087Y-18909518D01*
X5279135Y-18899994D01*
X5307706Y-18899994D01*
X5326754Y-18909518D01*
X5336278Y-18928566D01*
X5336278Y-19033328D01*
X5336278Y-18928566D02*
X5345802Y-18909518D01*
X5364849Y-18899994D01*
X5393421Y-18899994D01*
X5412468Y-18909518D01*
X5421992Y-18928566D01*
X5421992Y-19033328D01*
X5517230Y-19033328D02*
X5517230Y-18899994D01*
X5517230Y-18919042D02*
X5526754Y-18909518D01*
X5545802Y-18899994D01*
X5574373Y-18899994D01*
X5593420Y-18909518D01*
X5602944Y-18928566D01*
X5602944Y-19033328D01*
X5602944Y-18928566D02*
X5612468Y-18909518D01*
X5631516Y-18899994D01*
X5660087Y-18899994D01*
X5679135Y-18909518D01*
X5688659Y-18928566D01*
X5688659Y-19033328D01*
X6079135Y-18823804D02*
X5907706Y-19080947D01*
X6336278Y-18833328D02*
X6355325Y-18833328D01*
X6374373Y-18842852D01*
X6383897Y-18852375D01*
X6393420Y-18871423D01*
X6402944Y-18909518D01*
X6402944Y-18957137D01*
X6393420Y-18995233D01*
X6383897Y-19014280D01*
X6374373Y-19023804D01*
X6355325Y-19033328D01*
X6336278Y-19033328D01*
X6317230Y-19023804D01*
X6307706Y-19014280D01*
X6298182Y-18995233D01*
X6288659Y-18957137D01*
X6288659Y-18909518D01*
X6298182Y-18871423D01*
X6307706Y-18852375D01*
X6317230Y-18842852D01*
X6336278Y-18833328D01*
X6488659Y-19014280D02*
X6498182Y-19023804D01*
X6488659Y-19033328D01*
X6479135Y-19023804D01*
X6488659Y-19014280D01*
X6488659Y-19033328D01*
X6621992Y-18833328D02*
X6641039Y-18833328D01*
X6660087Y-18842852D01*
X6669611Y-18852375D01*
X6679135Y-18871423D01*
X6688659Y-18909518D01*
X6688659Y-18957137D01*
X6679135Y-18995233D01*
X6669611Y-19014280D01*
X6660087Y-19023804D01*
X6641039Y-19033328D01*
X6621992Y-19033328D01*
X6602944Y-19023804D01*
X6593420Y-19014280D01*
X6583897Y-18995233D01*
X6574373Y-18957137D01*
X6574373Y-18909518D01*
X6583897Y-18871423D01*
X6593420Y-18852375D01*
X6602944Y-18842852D01*
X6621992Y-18833328D01*
X6869611Y-18833328D02*
X6774373Y-18833328D01*
X6764849Y-18928566D01*
X6774373Y-18919042D01*
X6793420Y-18909518D01*
X6841039Y-18909518D01*
X6860087Y-18919042D01*
X6869611Y-18928566D01*
X6879135Y-18947614D01*
X6879135Y-18995233D01*
X6869611Y-19014280D01*
X6860087Y-19023804D01*
X6841039Y-19033328D01*
X6793420Y-19033328D01*
X6774373Y-19023804D01*
X6764849Y-19014280D01*
X7069611Y-19033328D02*
X6955325Y-19033328D01*
X7012468Y-19033328D02*
X7012468Y-18833328D01*
X6993420Y-18861899D01*
X6974373Y-18880947D01*
X6955325Y-18890471D01*
X7145801Y-18852375D02*
X7155325Y-18842852D01*
X7174373Y-18833328D01*
X7221992Y-18833328D01*
X7241039Y-18842852D01*
X7250563Y-18852375D01*
X7260087Y-18871423D01*
X7260087Y-18890471D01*
X7250563Y-18919042D01*
X7136278Y-19033328D01*
X7260087Y-19033328D01*
X7336278Y-18833328D02*
X7336278Y-18871423D01*
X7412468Y-18833328D02*
X7412468Y-18871423D01*
X7707706Y-19109518D02*
X7698182Y-19099994D01*
X7679135Y-19071423D01*
X7669611Y-19052375D01*
X7660087Y-19023804D01*
X7650563Y-18976185D01*
X7650563Y-18938090D01*
X7660087Y-18890471D01*
X7669611Y-18861899D01*
X7679135Y-18842852D01*
X7698182Y-18814280D01*
X7707706Y-18804756D01*
X7774373Y-18852375D02*
X7783897Y-18842852D01*
X7802944Y-18833328D01*
X7850563Y-18833328D01*
X7869611Y-18842852D01*
X7879135Y-18852375D01*
X7888659Y-18871423D01*
X7888659Y-18890471D01*
X7879135Y-18919042D01*
X7764849Y-19033328D01*
X7888659Y-19033328D01*
X8126754Y-19033328D02*
X8126754Y-18833328D01*
X8212468Y-19033328D02*
X8212468Y-18928566D01*
X8202944Y-18909518D01*
X8183897Y-18899994D01*
X8155325Y-18899994D01*
X8136278Y-18909518D01*
X8126754Y-18919042D01*
X8336278Y-19033328D02*
X8317230Y-19023804D01*
X8307706Y-19014280D01*
X8298182Y-18995233D01*
X8298182Y-18938090D01*
X8307706Y-18919042D01*
X8317230Y-18909518D01*
X8336278Y-18899994D01*
X8364849Y-18899994D01*
X8383897Y-18909518D01*
X8393421Y-18919042D01*
X8402944Y-18938090D01*
X8402944Y-18995233D01*
X8393421Y-19014280D01*
X8383897Y-19023804D01*
X8364849Y-19033328D01*
X8336278Y-19033328D01*
X8517230Y-19033328D02*
X8498182Y-19023804D01*
X8488659Y-19004756D01*
X8488659Y-18833328D01*
X8669611Y-19023804D02*
X8650563Y-19033328D01*
X8612468Y-19033328D01*
X8593421Y-19023804D01*
X8583897Y-19004756D01*
X8583897Y-18928566D01*
X8593421Y-18909518D01*
X8612468Y-18899994D01*
X8650563Y-18899994D01*
X8669611Y-18909518D01*
X8679135Y-18928566D01*
X8679135Y-18947614D01*
X8583897Y-18966661D01*
X8755325Y-19023804D02*
X8774373Y-19033328D01*
X8812468Y-19033328D01*
X8831516Y-19023804D01*
X8841040Y-19004756D01*
X8841040Y-18995233D01*
X8831516Y-18976185D01*
X8812468Y-18966661D01*
X8783897Y-18966661D01*
X8764849Y-18957137D01*
X8755325Y-18938090D01*
X8755325Y-18928566D01*
X8764849Y-18909518D01*
X8783897Y-18899994D01*
X8812468Y-18899994D01*
X8831516Y-18909518D01*
X8907706Y-19109518D02*
X8917230Y-19099994D01*
X8936278Y-19071423D01*
X8945801Y-19052375D01*
X8955325Y-19023804D01*
X8964849Y-18976185D01*
X8964849Y-18938090D01*
X8955325Y-18890471D01*
X8945801Y-18861899D01*
X8936278Y-18842852D01*
X8917230Y-18814280D01*
X8907706Y-18804756D01*
M02*
