%FSLAX45Y45*%
G04 Gerber Fmt 4.5, Leading zero omitted, Abs format (unit mm)*
G04 Created by KiCad (PCBNEW (6.0.0-0)) date 2022-01-06 19:14:08*
%MOMM*%
%LPD*%
G01*
G04 APERTURE LIST*
%TA.AperFunction,Profile*%
%ADD10C,0.100000*%
%TD*%
%ADD11C,0.200000*%
%ADD12C,0.190000*%
%ADD13C,0.300000*%
%ADD14C,0.410000*%
G04 APERTURE END LIST*
D10*
X26303802Y-13497852D02*
X26288802Y-13523852D01*
X17011802Y-5195852D02*
X17436802Y-5236852D01*
X17436802Y-5236852D02*
X17873802Y-5267852D01*
X14497802Y-4550852D02*
X14971802Y-4730852D01*
X13252802Y-16570852D02*
X13048802Y-16499852D01*
X11212802Y-15750852D02*
X11029802Y-15665852D01*
X26562802Y-15032852D02*
X26561802Y-15072852D01*
X10126802Y-15124852D02*
X10120802Y-15098852D01*
X11835802Y-16024852D02*
X11614802Y-15928852D01*
X11592802Y-3651852D02*
X11956802Y-3715852D01*
X25236802Y-15853852D02*
X25062802Y-15928852D01*
X22179802Y-4550852D02*
X22677802Y-4348852D01*
X10249802Y-13395852D02*
X10209802Y-13380852D01*
X18338802Y-17506252D02*
X18220802Y-17506852D01*
X4408802Y-11975852D02*
X4371802Y-11965852D01*
X6339802Y-3454852D02*
X7021802Y-3435852D01*
X7518802Y-3424852D02*
X7964802Y-3422852D01*
X23532802Y-4024852D02*
X24078802Y-3862852D01*
X12540802Y-16311852D02*
X12312802Y-16220852D01*
X4334802Y-11954852D02*
X4295802Y-11935852D01*
X22141802Y-16972852D02*
X21892802Y-17041852D01*
X6156802Y-3534852D02*
X6180802Y-3513852D01*
X26446802Y-15274852D02*
X26421802Y-15292852D01*
X32381802Y-11935852D02*
X32342802Y-11954852D01*
X16600802Y-17397852D02*
X16371802Y-17366852D01*
X17762802Y-17502852D02*
X17296802Y-17471852D01*
X21196802Y-14490852D02*
G75*
G03*
X21196802Y-14490852I-100000J0D01*
G01*
X10168802Y-15209852D02*
X10153802Y-15186852D01*
X10388802Y-13523852D02*
X10373802Y-13497852D01*
X11213802Y-3594852D02*
X11592802Y-3651852D01*
X12068802Y-16123852D02*
X11835802Y-16024852D01*
X10114802Y-15032852D02*
X10116802Y-15003852D01*
X32226802Y-11611852D02*
G75*
G03*
X32226802Y-11611852I-100000J0D01*
G01*
X6072802Y-3668852D02*
X6080802Y-3648852D01*
X6521802Y-3804852D02*
G75*
G03*
X6521802Y-3804852I-100000J0D01*
G01*
X12312802Y-16220852D02*
X12068802Y-16123852D01*
X26265802Y-13571852D02*
X26256802Y-13604852D01*
X26508802Y-15209852D02*
X26489802Y-15233852D01*
X15274802Y-17159852D02*
X15045802Y-17105852D01*
X13999802Y-4348852D02*
X14497802Y-4550852D01*
X10209802Y-13380852D02*
X4408802Y-11975852D01*
X10732802Y-15525852D02*
X10313802Y-15323852D01*
X20076802Y-17397852D02*
X19678802Y-17447852D01*
X10286802Y-15309852D02*
X10255802Y-15292852D01*
X21211802Y-4891852D02*
X21705802Y-4730852D01*
X6205802Y-3496852D02*
X6237802Y-3479852D01*
X10354802Y-13474852D02*
X10331802Y-13449852D01*
X28712802Y-3422852D02*
X29158802Y-3424852D01*
X26489802Y-15233852D02*
X26471802Y-15254852D01*
X10331802Y-13449852D02*
X10308802Y-13431852D01*
X30471802Y-3496852D02*
X30496802Y-3513852D01*
X16121802Y-17327852D02*
X15726802Y-17253852D01*
X10230802Y-15274852D02*
X10205802Y-15254852D01*
X13144802Y-4024852D02*
X13661802Y-4212852D01*
X14095802Y-16846852D02*
X13825802Y-16763852D01*
X4227802Y-11883852D02*
X4203802Y-11858852D01*
X30496802Y-3513852D02*
X30520802Y-3534852D01*
X18803802Y-5267852D02*
X19240802Y-5236852D01*
X10421802Y-13732852D02*
X10426802Y-13700852D01*
X24732802Y-4115852D02*
G75*
G03*
X24732802Y-4115852I-100000J0D01*
G01*
X32530802Y-11618852D02*
X32536802Y-11657852D01*
X26390802Y-15309852D02*
X26363802Y-15323852D01*
X10116802Y-15003852D02*
X10121802Y-14974852D01*
X16371802Y-17366852D02*
X16121802Y-17327852D01*
X19240802Y-5236852D02*
X19665802Y-5195852D01*
X26276802Y-13543852D02*
X26265802Y-13571852D01*
X13825802Y-16763852D02*
X13630802Y-16701852D01*
X20354802Y-5092852D02*
X20653802Y-5032852D01*
X26368802Y-13431852D02*
X26345802Y-13449852D01*
X15045802Y-17105852D02*
X14784802Y-17041852D01*
X6094802Y-3614852D02*
X6111802Y-3586852D01*
X32536802Y-11657852D02*
X32535802Y-11690852D01*
X16322802Y-5092852D02*
X16733802Y-5158852D01*
X20950802Y-17253852D02*
X20555802Y-17327852D01*
X24608802Y-16123852D02*
X24364802Y-16220852D01*
X19380802Y-17471852D02*
X18914802Y-17502852D01*
X30565802Y-3586852D02*
X30582802Y-3614852D01*
X25062802Y-15928852D02*
X24841802Y-16024852D01*
X6133802Y-3557852D02*
X6156802Y-3534852D01*
X30543802Y-3557852D02*
X30565802Y-3586852D01*
X10337802Y-3500852D02*
X10784802Y-3541852D01*
X4146802Y-11618852D02*
X4156802Y-11578852D01*
X14311802Y-16910852D02*
X14095802Y-16846852D01*
X30406802Y-3467852D02*
X30439802Y-3479852D01*
X17873802Y-5267852D02*
X18338802Y-5287852D01*
X4153802Y-11760852D02*
X4146802Y-11728852D01*
X26261802Y-13761852D02*
X26555802Y-14974852D01*
X30355802Y-3804852D02*
G75*
G03*
X30355802Y-3804852I-100000J0D01*
G01*
X7964802Y-3422852D02*
X8601802Y-3423852D01*
X22677802Y-4348852D02*
X23015802Y-4212852D01*
X7021802Y-3435852D02*
X7518802Y-3424852D01*
X32510802Y-11795852D02*
X32494802Y-11827852D01*
X23628802Y-16499852D02*
X23424802Y-16570852D01*
X26555802Y-14974852D02*
X26560802Y-15003852D01*
X30337802Y-3454852D02*
X30375802Y-3459852D01*
X23015802Y-4212852D02*
X23532802Y-4024852D01*
X22851802Y-16763852D02*
X22581802Y-16846852D01*
X6237802Y-3479852D02*
X6270802Y-3467852D01*
X26840802Y-3466852D02*
X27430802Y-3437852D01*
X26278801Y-14994852D02*
G75*
G03*
X26278801Y-14994852I-100000J0D01*
G01*
X4140802Y-11657852D02*
X4146802Y-11618852D01*
X20222802Y-16751852D02*
G75*
G03*
X20222802Y-16751852I-100000J0D01*
G01*
X10308802Y-13431852D02*
X10280802Y-13412852D01*
X32268802Y-11975852D02*
X26467802Y-13380852D01*
X22581802Y-16846852D02*
X22365802Y-16910852D01*
X6180802Y-3513852D02*
X6205802Y-3496852D01*
X24364802Y-16220852D02*
X24136802Y-16311852D01*
X16654802Y-16751852D02*
G75*
G03*
X16654802Y-16751852I-100000J0D01*
G01*
X15465802Y-4891852D02*
X16023802Y-5032852D01*
X10138802Y-15155852D02*
X10126802Y-15124852D01*
X20683802Y-5620852D02*
G75*
G03*
X20683802Y-5620852I-100000J0D01*
G01*
X30582802Y-3614852D02*
X30596802Y-3648852D01*
X13661802Y-4212852D02*
X13999802Y-4348852D01*
X4156802Y-11578852D02*
X6062802Y-3706852D01*
X32449802Y-11883852D02*
X32416802Y-11913852D01*
X10373802Y-13497852D02*
X10354802Y-13474852D01*
X10313802Y-15323852D02*
X10286802Y-15309852D01*
X21705802Y-4730852D02*
X22179802Y-4550852D01*
X10280802Y-13412852D02*
X10249802Y-13395852D01*
X15726802Y-17253852D02*
X15540802Y-17216852D01*
X10426802Y-13700852D02*
X10427802Y-13671852D01*
X25464802Y-15750852D02*
X25236802Y-15853852D01*
X25892802Y-3541852D02*
X26339802Y-3500852D01*
X10115802Y-15072852D02*
X10114802Y-15032852D01*
X12144801Y-4115852D02*
G75*
G03*
X12144801Y-4115852I-100000J0D01*
G01*
X10205802Y-15254852D02*
X10187802Y-15233852D01*
X32416802Y-11913852D02*
X32381802Y-11935852D01*
X26396802Y-13412852D02*
X26368802Y-13431852D01*
X26550802Y-15124852D02*
X26538802Y-15155852D01*
X6062802Y-3706852D02*
X6072802Y-3668852D01*
X19678802Y-17447852D02*
X19380802Y-17471852D01*
X11614802Y-15928852D02*
X11440802Y-15853852D01*
X26251802Y-13635852D02*
X26249802Y-13671852D01*
X12598802Y-3862852D02*
X13144802Y-4024852D01*
X26560802Y-15003852D02*
X26562802Y-15032852D01*
X26363802Y-15323852D02*
X25944802Y-15525852D01*
X11029802Y-15665852D02*
X10732802Y-15525852D01*
X32530802Y-11728852D02*
X32523802Y-11760852D01*
X30520802Y-3534852D02*
X30543802Y-3557852D01*
X10411802Y-13571852D02*
X10400802Y-13543852D01*
X13630802Y-16701852D02*
X13480802Y-16649852D01*
X26250802Y-13700852D02*
X26255802Y-13732852D01*
X10255802Y-15292852D02*
X10230802Y-15274852D01*
X14784802Y-17041852D02*
X14535802Y-16972852D01*
X32520802Y-11578852D02*
X32530802Y-11618852D01*
X18456802Y-17506852D02*
X18338802Y-17506252D01*
X10400802Y-13543852D02*
X10388802Y-13523852D01*
X20305802Y-17366852D02*
X20076802Y-17397852D01*
X26256802Y-13604852D02*
X26251802Y-13635852D01*
X24136802Y-16311852D02*
X23889802Y-16404852D01*
X4146802Y-11728852D02*
X4141802Y-11690852D01*
X8601802Y-3423852D02*
X9246802Y-3437852D01*
X26561802Y-15072852D02*
X26556802Y-15098852D01*
X10427802Y-13671852D02*
X10425802Y-13635852D01*
X23889802Y-16404852D02*
X23628802Y-16499852D01*
X9836802Y-3466852D02*
X10337802Y-3500852D01*
X17296802Y-17471852D02*
X16998802Y-17447852D01*
X32494802Y-11827852D02*
X32473802Y-11858852D01*
X23424802Y-16570852D02*
X23196802Y-16649852D01*
X11440802Y-15853852D02*
X11212802Y-15750852D01*
X21892802Y-17041852D02*
X21631802Y-17105852D01*
X26345802Y-13449852D02*
X26322802Y-13474852D01*
X10121802Y-14974852D02*
X10415802Y-13761852D01*
X26471802Y-15254852D02*
X26446802Y-15274852D01*
X4203802Y-11858852D02*
X4182802Y-11827852D01*
X10153802Y-15186852D02*
X10138802Y-15155852D01*
X20653802Y-5032852D02*
X21211802Y-4891852D01*
X6080802Y-3648852D02*
X6094802Y-3614852D01*
X21631802Y-17105852D02*
X21402802Y-17159852D01*
X10784802Y-3541852D02*
X11213802Y-3594852D01*
X16733802Y-5158852D02*
X17011802Y-5195852D01*
X12787802Y-16404852D02*
X12540802Y-16311852D01*
X25084802Y-3651852D02*
X25463802Y-3594852D01*
X6111802Y-3586852D02*
X6133802Y-3557852D01*
X26467802Y-13380852D02*
X26427802Y-13395852D01*
X11956802Y-3715852D02*
X12598802Y-3862852D01*
X20555802Y-17327852D02*
X20305802Y-17366852D01*
X26288802Y-13523852D02*
X26276802Y-13543852D01*
X30604802Y-3668852D02*
X30614802Y-3706852D01*
X29158802Y-3424852D02*
X29655802Y-3435852D01*
X4182802Y-11827852D02*
X4166802Y-11795852D01*
X26322802Y-13474852D02*
X26303802Y-13497852D01*
X4260802Y-11913852D02*
X4227802Y-11883852D01*
X13480802Y-16649852D02*
X13252802Y-16570852D01*
X9246802Y-3437852D02*
X9836802Y-3466852D01*
X25944802Y-15525852D02*
X25647802Y-15665852D01*
X27430802Y-3437852D02*
X28075802Y-3423852D01*
X4295802Y-11935852D02*
X4260802Y-11913852D01*
X28075802Y-3423852D02*
X28712802Y-3422852D01*
X26538802Y-15155852D02*
X26523802Y-15186852D01*
X30596802Y-3648852D02*
X30604802Y-3668852D01*
X26249802Y-13671852D02*
X26250802Y-13700852D01*
X4166802Y-11795852D02*
X4153802Y-11760852D01*
X29655802Y-3435852D02*
X30337802Y-3454852D01*
X24720802Y-3715852D02*
X25084802Y-3651852D01*
X4141802Y-11690852D02*
X4140802Y-11657852D01*
X32473802Y-11858852D02*
X32449802Y-11883852D01*
X14535802Y-16972852D02*
X14311802Y-16910852D01*
X18914802Y-17502852D02*
X18456802Y-17506852D01*
X4371802Y-11965852D02*
X4334802Y-11954852D01*
X24078802Y-3862852D02*
X24720802Y-3715852D01*
X32305802Y-11965852D02*
X32268802Y-11975852D01*
X21402802Y-17159852D02*
X21136802Y-17216852D01*
X32523802Y-11760852D02*
X32510802Y-11795852D01*
X10598802Y-14993852D02*
G75*
G03*
X10598802Y-14993852I-100000J0D01*
G01*
X26556802Y-15098852D02*
X26550802Y-15124852D01*
X16193802Y-5620852D02*
G75*
G03*
X16193802Y-5620852I-100000J0D01*
G01*
X15540802Y-17216852D02*
X15274802Y-17159852D01*
X18338802Y-5287852D02*
X18803802Y-5267852D01*
X10420802Y-13604852D02*
X10411802Y-13571852D01*
X25647802Y-15665852D02*
X25464802Y-15750852D01*
X26339802Y-3500852D02*
X26840802Y-3466852D01*
X10415802Y-13761852D02*
X10421802Y-13732852D01*
X30439802Y-3479852D02*
X30471802Y-3496852D01*
X19665802Y-5195852D02*
X19943802Y-5158852D01*
X4650802Y-11611852D02*
G75*
G03*
X4650802Y-11611852I-100000J0D01*
G01*
X30614802Y-3706852D02*
X32520802Y-11578852D01*
X19943802Y-5158852D02*
X20354802Y-5092852D01*
X24841802Y-16024852D02*
X24608802Y-16123852D01*
X23046802Y-16701852D02*
X22851802Y-16763852D01*
X18220802Y-17506852D02*
X17762802Y-17502852D01*
X25463802Y-3594852D02*
X25892802Y-3541852D01*
X32342802Y-11954852D02*
X32305802Y-11965852D01*
X16998802Y-17447852D02*
X16600802Y-17397852D01*
X10187802Y-15233852D02*
X10168802Y-15209852D01*
X10425802Y-13635852D02*
X10420802Y-13604852D01*
X21136802Y-17216852D02*
X20950802Y-17253852D01*
X16023802Y-5032852D02*
X16322802Y-5092852D01*
X15680802Y-14491852D02*
G75*
G03*
X15680802Y-14491852I-100000J0D01*
G01*
X30375802Y-3459852D02*
X30406802Y-3467852D01*
X10120802Y-15098852D02*
X10115802Y-15072852D01*
X23196802Y-16649852D02*
X23046802Y-16701852D01*
X13048802Y-16499852D02*
X12787802Y-16404852D01*
X26421802Y-15292852D02*
X26390802Y-15309852D01*
X26427802Y-13395852D02*
X26396802Y-13412852D01*
X6301802Y-3459852D02*
X6339802Y-3454852D01*
X26523802Y-15186852D02*
X26508802Y-15209852D01*
X26255802Y-13732852D02*
X26261802Y-13761852D01*
X22365802Y-16910852D02*
X22141802Y-16972852D01*
X6270802Y-3467852D02*
X6301802Y-3459852D01*
X14971802Y-4730852D02*
X15465802Y-4891852D01*
X32535802Y-11690852D02*
X32530802Y-11728852D01*
D11*
D12*
X5360729Y-10527675D02*
X5550729Y-10717675D01*
X5550729Y-10527675D02*
X5360729Y-10717675D01*
X5810937Y-8676638D02*
X6000937Y-8866638D01*
X6000937Y-8676638D02*
X5810937Y-8866638D01*
X6261144Y-6825601D02*
X6451144Y-7015601D01*
X6451144Y-6825601D02*
X6261144Y-7015601D01*
X6347949Y-10767785D02*
X6537949Y-10957785D01*
X6537949Y-10767785D02*
X6347949Y-10957785D01*
X6711352Y-4974564D02*
X6901352Y-5164564D01*
X6901352Y-4974564D02*
X6711352Y-5164564D01*
X6798156Y-8916748D02*
X6988156Y-9106748D01*
X6988156Y-8916748D02*
X6798156Y-9106748D01*
X7211766Y-10977882D02*
X7401766Y-11167882D01*
X7401766Y-10977882D02*
X7211766Y-11167882D01*
X7248364Y-7065711D02*
X7438364Y-7255711D01*
X7438364Y-7065711D02*
X7248364Y-7255711D01*
X7661974Y-9126845D02*
X7851974Y-9316845D01*
X7851974Y-9126845D02*
X7661974Y-9316845D01*
X7698571Y-5214674D02*
X7888571Y-5404674D01*
X7888571Y-5214674D02*
X7698571Y-5404674D01*
X8112181Y-7275808D02*
X8302181Y-7465808D01*
X8302181Y-7275808D02*
X8112181Y-7465808D01*
X8198986Y-11217993D02*
X8388986Y-11407993D01*
X8388986Y-11217993D02*
X8198986Y-11407993D01*
X8562389Y-5424771D02*
X8752389Y-5614771D01*
X8752389Y-5424771D02*
X8562389Y-5614771D01*
X8649194Y-9366956D02*
X8839194Y-9556956D01*
X8839194Y-9366956D02*
X8649194Y-9556956D01*
X9099401Y-7515919D02*
X9289401Y-7705919D01*
X9289401Y-7515919D02*
X9099401Y-7705919D01*
X9176856Y-10959160D02*
X9366856Y-11149160D01*
X9366856Y-10959160D02*
X9176856Y-11149160D01*
X9549609Y-5664882D02*
X9739609Y-5854882D01*
X9739609Y-5664882D02*
X9549609Y-5854882D01*
X9627063Y-9108123D02*
X9817063Y-9298123D01*
X9817063Y-9108123D02*
X9627063Y-9298123D01*
X10077271Y-7257086D02*
X10267271Y-7447086D01*
X10267271Y-7257086D02*
X10077271Y-7447086D01*
X10164076Y-11199271D02*
X10354076Y-11389271D01*
X10354076Y-11199271D02*
X10164076Y-11389271D01*
X10527479Y-5406049D02*
X10717479Y-5596049D01*
X10717479Y-5406049D02*
X10527479Y-5596049D01*
X10614283Y-9348234D02*
X10804283Y-9538234D01*
X10804283Y-9348234D02*
X10614283Y-9538234D01*
X11064491Y-7497197D02*
X11254491Y-7687197D01*
X11254491Y-7497197D02*
X11064491Y-7687197D01*
X11081918Y-11187244D02*
X11271918Y-11377244D01*
X11271918Y-11187244D02*
X11081918Y-11377244D01*
X11456371Y-13713730D02*
X11646371Y-13903730D01*
X11646371Y-13713730D02*
X11456371Y-13903730D01*
X11514698Y-5646160D02*
X11704698Y-5836160D01*
X11704698Y-5646160D02*
X11514698Y-5836160D01*
X11532125Y-9336206D02*
X11722125Y-9526206D01*
X11722125Y-9336206D02*
X11532125Y-9526206D01*
X11982333Y-7485169D02*
X12172333Y-7675169D01*
X12172333Y-7485169D02*
X11982333Y-7675169D01*
X12069137Y-11427354D02*
X12259137Y-11617354D01*
X12259137Y-11427354D02*
X12069137Y-11617354D01*
X12432541Y-5634132D02*
X12622541Y-5824132D01*
X12622541Y-5634132D02*
X12432541Y-5824132D01*
X12443591Y-13953840D02*
X12633591Y-14143840D01*
X12633591Y-13953840D02*
X12443591Y-14143840D01*
X12519345Y-9576317D02*
X12709345Y-9766317D01*
X12709345Y-9576317D02*
X12519345Y-9766317D01*
X12878930Y-11859576D02*
X13068930Y-12049576D01*
X13068930Y-11859576D02*
X12878930Y-12049576D01*
X12969552Y-7725280D02*
X13159552Y-7915280D01*
X13159552Y-7725280D02*
X12969552Y-7915280D01*
X13253383Y-14386062D02*
X13443383Y-14576062D01*
X13443383Y-14386062D02*
X13253383Y-14576062D01*
X13329138Y-10008538D02*
X13519138Y-10198538D01*
X13519138Y-10008538D02*
X13329138Y-10198538D01*
X13419760Y-5874243D02*
X13609760Y-6064243D01*
X13609760Y-5874243D02*
X13419760Y-6064243D01*
X13779345Y-8157501D02*
X13969345Y-8347501D01*
X13969345Y-8157501D02*
X13779345Y-8347501D01*
X13866150Y-12099686D02*
X14056150Y-12289686D01*
X14056150Y-12099686D02*
X13866150Y-12289686D01*
X14229552Y-6306464D02*
X14419552Y-6496464D01*
X14419552Y-6306464D02*
X14229552Y-6496464D01*
X14240603Y-14626172D02*
X14430603Y-14816172D01*
X14430603Y-14626172D02*
X14240603Y-14816172D01*
X14316357Y-10248649D02*
X14506357Y-10438649D01*
X14506357Y-10248649D02*
X14316357Y-10438649D01*
X14675942Y-12531907D02*
X14865942Y-12721907D01*
X14865942Y-12531907D02*
X14675942Y-12721907D01*
X14766565Y-8397612D02*
X14956565Y-8587612D01*
X14956565Y-8397612D02*
X14766565Y-8587612D01*
X15126150Y-10680871D02*
X15316150Y-10870871D01*
X15316150Y-10680871D02*
X15126150Y-10870871D01*
X15216772Y-6546575D02*
X15406772Y-6736575D01*
X15406772Y-6546575D02*
X15216772Y-6736575D01*
X15284349Y-16194326D02*
X15474349Y-16384326D01*
X15474349Y-16194326D02*
X15284349Y-16384326D01*
X15576357Y-8829833D02*
X15766357Y-9019833D01*
X15766357Y-8829833D02*
X15576357Y-9019833D01*
X15663162Y-12772018D02*
X15853162Y-12962018D01*
X15853162Y-12772018D02*
X15663162Y-12962018D01*
X15985003Y-15458567D02*
X16175003Y-15648567D01*
X16175003Y-15458567D02*
X15985003Y-15648567D01*
X16026565Y-6978796D02*
X16216565Y-7168796D01*
X16216565Y-6978796D02*
X16026565Y-7168796D01*
X16113370Y-10920981D02*
X16303370Y-11110981D01*
X16303370Y-10920981D02*
X16113370Y-11110981D01*
X16563577Y-9069944D02*
X16753577Y-9259944D01*
X16753577Y-9069944D02*
X16563577Y-9259944D01*
X16598075Y-14814778D02*
X16788075Y-15004778D01*
X16788075Y-14814778D02*
X16598075Y-15004778D01*
X17013784Y-7218907D02*
X17203784Y-7408907D01*
X17203784Y-7218907D02*
X17013784Y-7408907D01*
X17298728Y-14079020D02*
X17488728Y-14269020D01*
X17488728Y-14079020D02*
X17298728Y-14269020D01*
X19179748Y-14079020D02*
X19369748Y-14269020D01*
X19369748Y-14079020D02*
X19179748Y-14269020D01*
X19464692Y-7218907D02*
X19654692Y-7408907D01*
X19654692Y-7218907D02*
X19464692Y-7408907D01*
X19880401Y-14814778D02*
X20070401Y-15004778D01*
X20070401Y-14814778D02*
X19880401Y-15004778D01*
X19914899Y-9069944D02*
X20104899Y-9259944D01*
X20104899Y-9069944D02*
X19914899Y-9259944D01*
X20365107Y-10920981D02*
X20555107Y-11110981D01*
X20555107Y-10920981D02*
X20365107Y-11110981D01*
X20451912Y-6978796D02*
X20641912Y-7168796D01*
X20641912Y-6978796D02*
X20451912Y-7168796D01*
X20493473Y-15458567D02*
X20683473Y-15648567D01*
X20683473Y-15458567D02*
X20493473Y-15648567D01*
X20815314Y-12772018D02*
X21005314Y-12962018D01*
X21005314Y-12772018D02*
X20815314Y-12962018D01*
X20902119Y-8829833D02*
X21092119Y-9019833D01*
X21092119Y-8829833D02*
X20902119Y-9019833D01*
X21194127Y-16194326D02*
X21384127Y-16384326D01*
X21384127Y-16194326D02*
X21194127Y-16384326D01*
X21261704Y-6546575D02*
X21451704Y-6736575D01*
X21451704Y-6546575D02*
X21261704Y-6736575D01*
X21352327Y-10680870D02*
X21542327Y-10870870D01*
X21542327Y-10680870D02*
X21352327Y-10870870D01*
X21711912Y-8397612D02*
X21901912Y-8587612D01*
X21901912Y-8397612D02*
X21711912Y-8587612D01*
X21802534Y-12531907D02*
X21992534Y-12721907D01*
X21992534Y-12531907D02*
X21802534Y-12721907D01*
X22162119Y-10248649D02*
X22352119Y-10438649D01*
X22352119Y-10248649D02*
X22162119Y-10438649D01*
X22237873Y-14626173D02*
X22427873Y-14816173D01*
X22427873Y-14626173D02*
X22237873Y-14816173D01*
X22248924Y-6306464D02*
X22438924Y-6496464D01*
X22438924Y-6306464D02*
X22248924Y-6496464D01*
X22612326Y-12099686D02*
X22802326Y-12289686D01*
X22802326Y-12099686D02*
X22612326Y-12289686D01*
X22699131Y-8157501D02*
X22889131Y-8347501D01*
X22889131Y-8157501D02*
X22699131Y-8347501D01*
X23056092Y-5874881D02*
X23246092Y-6064881D01*
X23246092Y-5874881D02*
X23056092Y-6064881D01*
X23149339Y-10008539D02*
X23339339Y-10198539D01*
X23339339Y-10008539D02*
X23149339Y-10198539D01*
X23225093Y-14386062D02*
X23415093Y-14576062D01*
X23415093Y-14386062D02*
X23225093Y-14576062D01*
X23506300Y-7725918D02*
X23696300Y-7915918D01*
X23696300Y-7725918D02*
X23506300Y-7915918D01*
X23599546Y-11859576D02*
X23789546Y-12049576D01*
X23789546Y-11859576D02*
X23599546Y-12049576D01*
X23956507Y-9576955D02*
X24146507Y-9766955D01*
X24146507Y-9576955D02*
X23956507Y-9766955D01*
X24034885Y-13953841D02*
X24224885Y-14143841D01*
X24224885Y-13953841D02*
X24034885Y-14143841D01*
X24043312Y-5634770D02*
X24233312Y-5824770D01*
X24233312Y-5634770D02*
X24043312Y-5824770D01*
X24406715Y-11427992D02*
X24596715Y-11617992D01*
X24596715Y-11427992D02*
X24406715Y-11617992D01*
X24493520Y-7485808D02*
X24683520Y-7675808D01*
X24683520Y-7485808D02*
X24493520Y-7675808D01*
X24943727Y-9336845D02*
X25133727Y-9526845D01*
X25133727Y-9336845D02*
X24943727Y-9526845D01*
X24963778Y-5646160D02*
X25153778Y-5836160D01*
X25153778Y-5646160D02*
X24963778Y-5836160D01*
X25022105Y-13713730D02*
X25212105Y-13903730D01*
X25212105Y-13713730D02*
X25022105Y-13903730D01*
X25393935Y-11187882D02*
X25583935Y-11377882D01*
X25583935Y-11187882D02*
X25393935Y-11377882D01*
X25413985Y-7497197D02*
X25603985Y-7687197D01*
X25603985Y-7497197D02*
X25413985Y-7687197D01*
X25864193Y-9348234D02*
X26054193Y-9538234D01*
X26054193Y-9348234D02*
X25864193Y-9538234D01*
X25950998Y-5406049D02*
X26140998Y-5596049D01*
X26140998Y-5406049D02*
X25950998Y-5596049D01*
X26314400Y-11199271D02*
X26504400Y-11389271D01*
X26504400Y-11199271D02*
X26314400Y-11389271D01*
X26401205Y-7257086D02*
X26591205Y-7447086D01*
X26591205Y-7257086D02*
X26401205Y-7447086D01*
X26851413Y-9108123D02*
X27041413Y-9298123D01*
X27041413Y-9108123D02*
X26851413Y-9298123D01*
X26928868Y-5664881D02*
X27118868Y-5854881D01*
X27118868Y-5664881D02*
X26928868Y-5854881D01*
X27301620Y-10959161D02*
X27491620Y-11149161D01*
X27491620Y-10959161D02*
X27301620Y-11149161D01*
X27379075Y-7515919D02*
X27569075Y-7705919D01*
X27569075Y-7515919D02*
X27379075Y-7705919D01*
X27829283Y-9366956D02*
X28019283Y-9556956D01*
X28019283Y-9366956D02*
X27829283Y-9556956D01*
X27916087Y-5424771D02*
X28106087Y-5614771D01*
X28106087Y-5424771D02*
X27916087Y-5614771D01*
X28279490Y-11217993D02*
X28469490Y-11407993D01*
X28469490Y-11217993D02*
X28279490Y-11407993D01*
X28366295Y-7275808D02*
X28556295Y-7465808D01*
X28556295Y-7275808D02*
X28366295Y-7465808D01*
X28779904Y-5214674D02*
X28969904Y-5404674D01*
X28969904Y-5214674D02*
X28779904Y-5404674D01*
X28816502Y-9126845D02*
X29006502Y-9316845D01*
X29006502Y-9126845D02*
X28816502Y-9316845D01*
X29230112Y-7065711D02*
X29420112Y-7255711D01*
X29420112Y-7065711D02*
X29230112Y-7255711D01*
X29266710Y-10977882D02*
X29456710Y-11167882D01*
X29456710Y-10977882D02*
X29266710Y-11167882D01*
X29680320Y-8916748D02*
X29870320Y-9106748D01*
X29870320Y-8916748D02*
X29680320Y-9106748D01*
X29767124Y-4974564D02*
X29957124Y-5164564D01*
X29957124Y-4974564D02*
X29767124Y-5164564D01*
X30130527Y-10767785D02*
X30320527Y-10957785D01*
X30320527Y-10767785D02*
X30130527Y-10957785D01*
X30217332Y-6825601D02*
X30407332Y-7015601D01*
X30407332Y-6825601D02*
X30217332Y-7015601D01*
X30667539Y-8676637D02*
X30857539Y-8866637D01*
X30857539Y-8676637D02*
X30667539Y-8866637D01*
X31117747Y-10527675D02*
X31307747Y-10717675D01*
X31307747Y-10527675D02*
X31117747Y-10717675D01*
D13*
X5789159Y-10405884D02*
G75*
G03*
X5789159Y-10405884I-150000J0D01*
G01*
X6239367Y-8554847D02*
G75*
G03*
X6239367Y-8554847I-150000J0D01*
G01*
X6466199Y-10309148D02*
G75*
G03*
X6466199Y-10309148I-150000J0D01*
G01*
X6689574Y-6703810D02*
G75*
G03*
X6689574Y-6703810I-150000J0D01*
G01*
X6916407Y-8458111D02*
G75*
G03*
X6916407Y-8458111I-150000J0D01*
G01*
X7139782Y-4852773D02*
G75*
G03*
X7139782Y-4852773I-150000J0D01*
G01*
X7366614Y-6607074D02*
G75*
G03*
X7366614Y-6607074I-150000J0D01*
G01*
X7640196Y-10856091D02*
G75*
G03*
X7640196Y-10856091I-150000J0D01*
G01*
X7816822Y-4756037D02*
G75*
G03*
X7816822Y-4756037I-150000J0D01*
G01*
X8090404Y-9005054D02*
G75*
G03*
X8090404Y-9005054I-150000J0D01*
G01*
X8317236Y-10759355D02*
G75*
G03*
X8317236Y-10759355I-150000J0D01*
G01*
X8540611Y-7154017D02*
G75*
G03*
X8540611Y-7154017I-150000J0D01*
G01*
X8767444Y-8908318D02*
G75*
G03*
X8767444Y-8908318I-150000J0D01*
G01*
X8990819Y-5302980D02*
G75*
G03*
X8990819Y-5302980I-150000J0D01*
G01*
X9217651Y-7057281D02*
G75*
G03*
X9217651Y-7057281I-150000J0D01*
G01*
X9605286Y-10837369D02*
G75*
G03*
X9605286Y-10837369I-150000J0D01*
G01*
X9667859Y-5206244D02*
G75*
G03*
X9667859Y-5206244I-150000J0D01*
G01*
X10055494Y-8986332D02*
G75*
G03*
X10055494Y-8986332I-150000J0D01*
G01*
X10282326Y-10740633D02*
G75*
G03*
X10282326Y-10740633I-150000J0D01*
G01*
X10505701Y-7135295D02*
G75*
G03*
X10505701Y-7135295I-150000J0D01*
G01*
X10732534Y-8889597D02*
G75*
G03*
X10732534Y-8889597I-150000J0D01*
G01*
X10955909Y-5284258D02*
G75*
G03*
X10955909Y-5284258I-150000J0D01*
G01*
X11182741Y-7038560D02*
G75*
G03*
X11182741Y-7038560I-150000J0D01*
G01*
X11510348Y-11065453D02*
G75*
G03*
X11510348Y-11065453I-150000J0D01*
G01*
X11632949Y-5187522D02*
G75*
G03*
X11632949Y-5187522I-150000J0D01*
G01*
X11884802Y-13591939D02*
G75*
G03*
X11884802Y-13591939I-150000J0D01*
G01*
X11960556Y-9214415D02*
G75*
G03*
X11960556Y-9214415I-150000J0D01*
G01*
X12187388Y-10968717D02*
G75*
G03*
X12187388Y-10968717I-150000J0D01*
G01*
X12410763Y-7363378D02*
G75*
G03*
X12410763Y-7363378I-150000J0D01*
G01*
X12561842Y-13495203D02*
G75*
G03*
X12561842Y-13495203I-150000J0D01*
G01*
X12637596Y-9117679D02*
G75*
G03*
X12637596Y-9117679I-150000J0D01*
G01*
X12860971Y-5512341D02*
G75*
G03*
X12860971Y-5512341I-150000J0D01*
G01*
X13087803Y-7266643D02*
G75*
G03*
X13087803Y-7266643I-150000J0D01*
G01*
X13307360Y-11737784D02*
G75*
G03*
X13307360Y-11737784I-150000J0D01*
G01*
X13538011Y-5415606D02*
G75*
G03*
X13538011Y-5415606I-150000J0D01*
G01*
X13681813Y-14264271D02*
G75*
G03*
X13681813Y-14264271I-150000J0D01*
G01*
X13757568Y-9886747D02*
G75*
G03*
X13757568Y-9886747I-150000J0D01*
G01*
X13984400Y-11641049D02*
G75*
G03*
X13984400Y-11641049I-150000J0D01*
G01*
X14207775Y-8035710D02*
G75*
G03*
X14207775Y-8035710I-150000J0D01*
G01*
X14358853Y-14167535D02*
G75*
G03*
X14358853Y-14167535I-150000J0D01*
G01*
X14434608Y-9790011D02*
G75*
G03*
X14434608Y-9790011I-150000J0D01*
G01*
X14657983Y-6184673D02*
G75*
G03*
X14657983Y-6184673I-150000J0D01*
G01*
X14884815Y-7938975D02*
G75*
G03*
X14884815Y-7938975I-150000J0D01*
G01*
X15104372Y-12410116D02*
G75*
G03*
X15104372Y-12410116I-150000J0D01*
G01*
X15335023Y-6087937D02*
G75*
G03*
X15335023Y-6087937I-150000J0D01*
G01*
X15432991Y-16022192D02*
G75*
G03*
X15432991Y-16022192I-150000J0D01*
G01*
X15554580Y-10559079D02*
G75*
G03*
X15554580Y-10559079I-150000J0D01*
G01*
X15686960Y-15387180D02*
G75*
G03*
X15686960Y-15387180I-150000J0D01*
G01*
X15781412Y-12313380D02*
G75*
G03*
X15781412Y-12313380I-150000J0D01*
G01*
X16004787Y-8708042D02*
G75*
G03*
X16004787Y-8708042I-150000J0D01*
G01*
X16231620Y-10462344D02*
G75*
G03*
X16231620Y-10462344I-150000J0D01*
G01*
X16454995Y-6857005D02*
G75*
G03*
X16454995Y-6857005I-150000J0D01*
G01*
X16681827Y-8611307D02*
G75*
G03*
X16681827Y-8611307I-150000J0D01*
G01*
X16746717Y-14642645D02*
G75*
G03*
X16746717Y-14642645I-150000J0D01*
G01*
X17000686Y-14007633D02*
G75*
G03*
X17000686Y-14007633I-150000J0D01*
G01*
X17132035Y-6760269D02*
G75*
G03*
X17132035Y-6760269I-150000J0D01*
G01*
X19696269Y-14090826D02*
G75*
G03*
X19696269Y-14090826I-150000J0D01*
G01*
X19773067Y-7037088D02*
G75*
G03*
X19773067Y-7037088I-150000J0D01*
G01*
X20223274Y-8888125D02*
G75*
G03*
X20223274Y-8888125I-150000J0D01*
G01*
X20318117Y-14375512D02*
G75*
G03*
X20318117Y-14375512I-150000J0D01*
G01*
X20330051Y-6640214D02*
G75*
G03*
X20330051Y-6640214I-150000J0D01*
G01*
X20673482Y-10739162D02*
G75*
G03*
X20673482Y-10739162I-150000J0D01*
G01*
X20780259Y-8491251D02*
G75*
G03*
X20780259Y-8491251I-150000J0D01*
G01*
X21009994Y-15470374D02*
G75*
G03*
X21009994Y-15470374I-150000J0D01*
G01*
X21123689Y-12590199D02*
G75*
G03*
X21123689Y-12590199I-150000J0D01*
G01*
X21230466Y-10342288D02*
G75*
G03*
X21230466Y-10342288I-150000J0D01*
G01*
X21570079Y-6364756D02*
G75*
G03*
X21570079Y-6364756I-150000J0D01*
G01*
X21631843Y-15755059D02*
G75*
G03*
X21631843Y-15755059I-150000J0D01*
G01*
X21680674Y-12193325D02*
G75*
G03*
X21680674Y-12193325I-150000J0D01*
G01*
X22020286Y-8215793D02*
G75*
G03*
X22020286Y-8215793I-150000J0D01*
G01*
X22127063Y-5967882D02*
G75*
G03*
X22127063Y-5967882I-150000J0D01*
G01*
X22470494Y-10066830D02*
G75*
G03*
X22470494Y-10066830I-150000J0D01*
G01*
X22546248Y-14444354D02*
G75*
G03*
X22546248Y-14444354I-150000J0D01*
G01*
X22577271Y-7818919D02*
G75*
G03*
X22577271Y-7818919I-150000J0D01*
G01*
X22920701Y-11917867D02*
G75*
G03*
X22920701Y-11917867I-150000J0D01*
G01*
X23027478Y-9669956D02*
G75*
G03*
X23027478Y-9669956I-150000J0D01*
G01*
X23103232Y-14047480D02*
G75*
G03*
X23103232Y-14047480I-150000J0D01*
G01*
X23364467Y-5693062D02*
G75*
G03*
X23364467Y-5693062I-150000J0D01*
G01*
X23477686Y-11520993D02*
G75*
G03*
X23477686Y-11520993I-150000J0D01*
G01*
X23814675Y-7544099D02*
G75*
G03*
X23814675Y-7544099I-150000J0D01*
G01*
X23921452Y-5296188D02*
G75*
G03*
X23921452Y-5296188I-150000J0D01*
G01*
X24264882Y-9395137D02*
G75*
G03*
X24264882Y-9395137I-150000J0D01*
G01*
X24343260Y-13772022D02*
G75*
G03*
X24343260Y-13772022I-150000J0D01*
G01*
X24371660Y-7147225D02*
G75*
G03*
X24371660Y-7147225I-150000J0D01*
G01*
X24715090Y-11246174D02*
G75*
G03*
X24715090Y-11246174I-150000J0D01*
G01*
X24821867Y-8998262D02*
G75*
G03*
X24821867Y-8998262I-150000J0D01*
G01*
X24900244Y-13375148D02*
G75*
G03*
X24900244Y-13375148I-150000J0D01*
G01*
X25272075Y-10849299D02*
G75*
G03*
X25272075Y-10849299I-150000J0D01*
G01*
X25272153Y-5464341D02*
G75*
G03*
X25272153Y-5464341I-150000J0D01*
G01*
X25722360Y-7315378D02*
G75*
G03*
X25722360Y-7315378I-150000J0D01*
G01*
X25829137Y-5067467D02*
G75*
G03*
X25829137Y-5067467I-150000J0D01*
G01*
X26172568Y-9166415D02*
G75*
G03*
X26172568Y-9166415I-150000J0D01*
G01*
X26279345Y-6918504D02*
G75*
G03*
X26279345Y-6918504I-150000J0D01*
G01*
X26622775Y-11017452D02*
G75*
G03*
X26622775Y-11017452I-150000J0D01*
G01*
X26729553Y-8769541D02*
G75*
G03*
X26729553Y-8769541I-150000J0D01*
G01*
X27179760Y-10620578D02*
G75*
G03*
X27179760Y-10620578I-150000J0D01*
G01*
X27237242Y-5483063D02*
G75*
G03*
X27237242Y-5483063I-150000J0D01*
G01*
X27687450Y-7334100D02*
G75*
G03*
X27687450Y-7334100I-150000J0D01*
G01*
X27794227Y-5086189D02*
G75*
G03*
X27794227Y-5086189I-150000J0D01*
G01*
X28137657Y-9185137D02*
G75*
G03*
X28137657Y-9185137I-150000J0D01*
G01*
X28244435Y-6937226D02*
G75*
G03*
X28244435Y-6937226I-150000J0D01*
G01*
X28587865Y-11036174D02*
G75*
G03*
X28587865Y-11036174I-150000J0D01*
G01*
X28694642Y-8788263D02*
G75*
G03*
X28694642Y-8788263I-150000J0D01*
G01*
X29088279Y-5032856D02*
G75*
G03*
X29088279Y-5032856I-150000J0D01*
G01*
X29144850Y-10639300D02*
G75*
G03*
X29144850Y-10639300I-150000J0D01*
G01*
X29538487Y-6883893D02*
G75*
G03*
X29538487Y-6883893I-150000J0D01*
G01*
X29645264Y-4635981D02*
G75*
G03*
X29645264Y-4635981I-150000J0D01*
G01*
X29988694Y-8734929D02*
G75*
G03*
X29988694Y-8734929I-150000J0D01*
G01*
X30095472Y-6487018D02*
G75*
G03*
X30095472Y-6487018I-150000J0D01*
G01*
X30438902Y-10585967D02*
G75*
G03*
X30438902Y-10585967I-150000J0D01*
G01*
X30545679Y-8338055D02*
G75*
G03*
X30545679Y-8338055I-150000J0D01*
G01*
X30995886Y-10189092D02*
G75*
G03*
X30995886Y-10189092I-150000J0D01*
G01*
D14*
X5949339Y-10537730D02*
X5949339Y-10947730D01*
X5744339Y-10742730D02*
X6154339Y-10742730D01*
X6399546Y-8686693D02*
X6399546Y-9096693D01*
X6194546Y-8891693D02*
X6604546Y-8891693D01*
X6849754Y-6835656D02*
X6849754Y-7245656D01*
X6644754Y-7040656D02*
X7054754Y-7040656D01*
X7299961Y-4984619D02*
X7299961Y-5394619D01*
X7094961Y-5189619D02*
X7504961Y-5189619D01*
X7800376Y-10987938D02*
X7800376Y-11397937D01*
X7595376Y-11192937D02*
X8005376Y-11192937D01*
X8250584Y-9136900D02*
X8250584Y-9546900D01*
X8045584Y-9341900D02*
X8455584Y-9341900D01*
X8700791Y-7285863D02*
X8700791Y-7695863D01*
X8495791Y-7490863D02*
X8905791Y-7490863D01*
X9150999Y-5434827D02*
X9150999Y-5844826D01*
X8945999Y-5639826D02*
X9355999Y-5639826D01*
X9765466Y-10969215D02*
X9765466Y-11379215D01*
X9560466Y-11174215D02*
X9970466Y-11174215D01*
X10215673Y-9118179D02*
X10215673Y-9528179D01*
X10010673Y-9323179D02*
X10420673Y-9323179D01*
X10665881Y-7267142D02*
X10665881Y-7677142D01*
X10460881Y-7472142D02*
X10870881Y-7472142D01*
X11116088Y-5416105D02*
X11116088Y-5826105D01*
X10911088Y-5621105D02*
X11321088Y-5621105D01*
X11670528Y-11197299D02*
X11670528Y-11607299D01*
X11465528Y-11402299D02*
X11875528Y-11402299D01*
X12044981Y-13723785D02*
X12044981Y-14133785D01*
X11839981Y-13928785D02*
X12249981Y-13928785D01*
X12120735Y-9346261D02*
X12120735Y-9756261D01*
X11915735Y-9551261D02*
X12325735Y-9551261D01*
X12570942Y-7495225D02*
X12570942Y-7905225D01*
X12365942Y-7700225D02*
X12775942Y-7700225D01*
X13021151Y-5644188D02*
X13021151Y-6054188D01*
X12816151Y-5849188D02*
X13226151Y-5849188D01*
X13467540Y-11869631D02*
X13467540Y-12279631D01*
X13262540Y-12074631D02*
X13672540Y-12074631D01*
X13841993Y-14396117D02*
X13841993Y-14806117D01*
X13636993Y-14601117D02*
X14046993Y-14601117D01*
X13917747Y-10018594D02*
X13917747Y-10428594D01*
X13712747Y-10223594D02*
X14122747Y-10223594D01*
X14367955Y-8167557D02*
X14367955Y-8577557D01*
X14162955Y-8372557D02*
X14572955Y-8372557D01*
X14818162Y-6316520D02*
X14818162Y-6726520D01*
X14613162Y-6521520D02*
X15023162Y-6521520D01*
X15264552Y-12541963D02*
X15264552Y-12951963D01*
X15059552Y-12746963D02*
X15469552Y-12746963D01*
X15714760Y-10690926D02*
X15714760Y-11100926D01*
X15509760Y-10895926D02*
X15919760Y-10895926D01*
X15729676Y-15716446D02*
X15729676Y-16126446D01*
X15524676Y-15921446D02*
X15934676Y-15921446D01*
X16164967Y-8839889D02*
X16164967Y-9249889D01*
X15959967Y-9044889D02*
X16369967Y-9044889D01*
X16615174Y-6988852D02*
X16615174Y-7398852D01*
X16410174Y-7193852D02*
X16820175Y-7193852D01*
X17043402Y-14336899D02*
X17043402Y-14746899D01*
X16838402Y-14541899D02*
X17248402Y-14541899D01*
X19625075Y-14336899D02*
X19625075Y-14746899D01*
X19420075Y-14541899D02*
X19830075Y-14541899D01*
X20053302Y-6988852D02*
X20053302Y-7398852D01*
X19848302Y-7193852D02*
X20258302Y-7193852D01*
X20503509Y-8839889D02*
X20503509Y-9249889D01*
X20298509Y-9044889D02*
X20708509Y-9044889D01*
X20938800Y-15716446D02*
X20938800Y-16126446D01*
X20733800Y-15921446D02*
X21143800Y-15921446D01*
X20953717Y-10690925D02*
X20953717Y-11100925D01*
X20748717Y-10895925D02*
X21158717Y-10895925D01*
X21403924Y-12541963D02*
X21403924Y-12951963D01*
X21198924Y-12746963D02*
X21608924Y-12746963D01*
X21850314Y-6316520D02*
X21850314Y-6726520D01*
X21645314Y-6521520D02*
X22055314Y-6521520D01*
X22300522Y-8167557D02*
X22300522Y-8577557D01*
X22095522Y-8372557D02*
X22505521Y-8372557D01*
X22750729Y-10018594D02*
X22750729Y-10428594D01*
X22545729Y-10223594D02*
X22955729Y-10223594D01*
X22826483Y-14396117D02*
X22826483Y-14806117D01*
X22621483Y-14601117D02*
X23031483Y-14601117D01*
X23200936Y-11869631D02*
X23200936Y-12279631D01*
X22995936Y-12074631D02*
X23405936Y-12074631D01*
X23644702Y-5644826D02*
X23644702Y-6054826D01*
X23439702Y-5849826D02*
X23849702Y-5849826D01*
X24094910Y-7495863D02*
X24094910Y-7905863D01*
X23889910Y-7700863D02*
X24299910Y-7700863D01*
X24545117Y-9346900D02*
X24545117Y-9756900D01*
X24340117Y-9551900D02*
X24750117Y-9551900D01*
X24623495Y-13723785D02*
X24623495Y-14133785D01*
X24418495Y-13928785D02*
X24828495Y-13928785D01*
X24995325Y-11197937D02*
X24995325Y-11607937D01*
X24790325Y-11402937D02*
X25200325Y-11402937D01*
X25552388Y-5416104D02*
X25552388Y-5826104D01*
X25347388Y-5621104D02*
X25757388Y-5621104D01*
X26002595Y-7267141D02*
X26002595Y-7677141D01*
X25797595Y-7472141D02*
X26207595Y-7472141D01*
X26452803Y-9118179D02*
X26452803Y-9528179D01*
X26247803Y-9323179D02*
X26657803Y-9323179D01*
X26903010Y-10969216D02*
X26903010Y-11379216D01*
X26698010Y-11174216D02*
X27108010Y-11174216D01*
X27517478Y-5434826D02*
X27517478Y-5844826D01*
X27312478Y-5639826D02*
X27722478Y-5639826D01*
X27967685Y-7285863D02*
X27967685Y-7695863D01*
X27762685Y-7490863D02*
X28172685Y-7490863D01*
X28417893Y-9136901D02*
X28417893Y-9546901D01*
X28212893Y-9341901D02*
X28622893Y-9341901D01*
X28868100Y-10987938D02*
X28868100Y-11397937D01*
X28663100Y-11192937D02*
X29073100Y-11192937D01*
X29368514Y-4984619D02*
X29368514Y-5394619D01*
X29163514Y-5189619D02*
X29573514Y-5189619D01*
X29818722Y-6835656D02*
X29818722Y-7245656D01*
X29613722Y-7040656D02*
X30023722Y-7040656D01*
X30268930Y-8686693D02*
X30268930Y-9096693D01*
X30063930Y-8891693D02*
X30473930Y-8891693D01*
X30719137Y-10537730D02*
X30719137Y-10947730D01*
X30514137Y-10742730D02*
X30924137Y-10742730D01*
D11*
X4393421Y-17822328D02*
X4393421Y-17622328D01*
X4441040Y-17622328D01*
X4469611Y-17631852D01*
X4488659Y-17650899D01*
X4498183Y-17669947D01*
X4507706Y-17708042D01*
X4507706Y-17736614D01*
X4498183Y-17774709D01*
X4488659Y-17793756D01*
X4469611Y-17812804D01*
X4441040Y-17822328D01*
X4393421Y-17822328D01*
X4593421Y-17822328D02*
X4593421Y-17688995D01*
X4593421Y-17727090D02*
X4602944Y-17708042D01*
X4612468Y-17698518D01*
X4631516Y-17688995D01*
X4650564Y-17688995D01*
X4717230Y-17822328D02*
X4717230Y-17688995D01*
X4717230Y-17622328D02*
X4707706Y-17631852D01*
X4717230Y-17641376D01*
X4726754Y-17631852D01*
X4717230Y-17622328D01*
X4717230Y-17641376D01*
X4841040Y-17822328D02*
X4821992Y-17812804D01*
X4812468Y-17793756D01*
X4812468Y-17622328D01*
X4945802Y-17822328D02*
X4926754Y-17812804D01*
X4917230Y-17793756D01*
X4917230Y-17622328D01*
X5174373Y-17822328D02*
X5174373Y-17622328D01*
X5241040Y-17765185D01*
X5307706Y-17622328D01*
X5307706Y-17822328D01*
X5488659Y-17822328D02*
X5488659Y-17717566D01*
X5479135Y-17698518D01*
X5460087Y-17688995D01*
X5421992Y-17688995D01*
X5402944Y-17698518D01*
X5488659Y-17812804D02*
X5469611Y-17822328D01*
X5421992Y-17822328D01*
X5402944Y-17812804D01*
X5393421Y-17793756D01*
X5393421Y-17774709D01*
X5402944Y-17755661D01*
X5421992Y-17746137D01*
X5469611Y-17746137D01*
X5488659Y-17736614D01*
X5583897Y-17688995D02*
X5583897Y-17888995D01*
X5583897Y-17698518D02*
X5602944Y-17688995D01*
X5641040Y-17688995D01*
X5660087Y-17698518D01*
X5669611Y-17708042D01*
X5679135Y-17727090D01*
X5679135Y-17784233D01*
X5669611Y-17803280D01*
X5660087Y-17812804D01*
X5641040Y-17822328D01*
X5602944Y-17822328D01*
X5583897Y-17812804D01*
X5764849Y-17803280D02*
X5774373Y-17812804D01*
X5764849Y-17822328D01*
X5755325Y-17812804D01*
X5764849Y-17803280D01*
X5764849Y-17822328D01*
X5764849Y-17698518D02*
X5774373Y-17708042D01*
X5764849Y-17717566D01*
X5755325Y-17708042D01*
X5764849Y-17698518D01*
X5764849Y-17717566D01*
D12*
X3945802Y-18056852D02*
X4135802Y-18246852D01*
X4135802Y-18056852D02*
X3945802Y-18246852D01*
D11*
X4498183Y-18242328D02*
X4383897Y-18242328D01*
X4441040Y-18242328D02*
X4441040Y-18042328D01*
X4421992Y-18070899D01*
X4402944Y-18089947D01*
X4383897Y-18099471D01*
X4583897Y-18223280D02*
X4593421Y-18232804D01*
X4583897Y-18242328D01*
X4574373Y-18232804D01*
X4583897Y-18223280D01*
X4583897Y-18242328D01*
X4688659Y-18242328D02*
X4726754Y-18242328D01*
X4745802Y-18232804D01*
X4755325Y-18223280D01*
X4774373Y-18194709D01*
X4783897Y-18156614D01*
X4783897Y-18080423D01*
X4774373Y-18061376D01*
X4764849Y-18051852D01*
X4745802Y-18042328D01*
X4707706Y-18042328D01*
X4688659Y-18051852D01*
X4679135Y-18061376D01*
X4669611Y-18080423D01*
X4669611Y-18128042D01*
X4679135Y-18147090D01*
X4688659Y-18156614D01*
X4707706Y-18166137D01*
X4745802Y-18166137D01*
X4764849Y-18156614D01*
X4774373Y-18147090D01*
X4783897Y-18128042D01*
X4907706Y-18042328D02*
X4926754Y-18042328D01*
X4945802Y-18051852D01*
X4955325Y-18061376D01*
X4964849Y-18080423D01*
X4974373Y-18118518D01*
X4974373Y-18166137D01*
X4964849Y-18204233D01*
X4955325Y-18223280D01*
X4945802Y-18232804D01*
X4926754Y-18242328D01*
X4907706Y-18242328D01*
X4888659Y-18232804D01*
X4879135Y-18223280D01*
X4869611Y-18204233D01*
X4860087Y-18166137D01*
X4860087Y-18118518D01*
X4869611Y-18080423D01*
X4879135Y-18061376D01*
X4888659Y-18051852D01*
X4907706Y-18042328D01*
X5098183Y-18042328D02*
X5117230Y-18042328D01*
X5136278Y-18051852D01*
X5145802Y-18061376D01*
X5155325Y-18080423D01*
X5164849Y-18118518D01*
X5164849Y-18166137D01*
X5155325Y-18204233D01*
X5145802Y-18223280D01*
X5136278Y-18232804D01*
X5117230Y-18242328D01*
X5098183Y-18242328D01*
X5079135Y-18232804D01*
X5069611Y-18223280D01*
X5060087Y-18204233D01*
X5050564Y-18166137D01*
X5050564Y-18118518D01*
X5060087Y-18080423D01*
X5069611Y-18061376D01*
X5079135Y-18051852D01*
X5098183Y-18042328D01*
X5250564Y-18242328D02*
X5250564Y-18108995D01*
X5250564Y-18128042D02*
X5260087Y-18118518D01*
X5279135Y-18108995D01*
X5307706Y-18108995D01*
X5326754Y-18118518D01*
X5336278Y-18137566D01*
X5336278Y-18242328D01*
X5336278Y-18137566D02*
X5345802Y-18118518D01*
X5364849Y-18108995D01*
X5393421Y-18108995D01*
X5412468Y-18118518D01*
X5421992Y-18137566D01*
X5421992Y-18242328D01*
X5517230Y-18242328D02*
X5517230Y-18108995D01*
X5517230Y-18128042D02*
X5526754Y-18118518D01*
X5545802Y-18108995D01*
X5574373Y-18108995D01*
X5593421Y-18118518D01*
X5602944Y-18137566D01*
X5602944Y-18242328D01*
X5602944Y-18137566D02*
X5612468Y-18118518D01*
X5631516Y-18108995D01*
X5660087Y-18108995D01*
X5679135Y-18118518D01*
X5688659Y-18137566D01*
X5688659Y-18242328D01*
X6079135Y-18032804D02*
X5907706Y-18289947D01*
X6336278Y-18042328D02*
X6355325Y-18042328D01*
X6374373Y-18051852D01*
X6383897Y-18061376D01*
X6393421Y-18080423D01*
X6402944Y-18118518D01*
X6402944Y-18166137D01*
X6393421Y-18204233D01*
X6383897Y-18223280D01*
X6374373Y-18232804D01*
X6355325Y-18242328D01*
X6336278Y-18242328D01*
X6317230Y-18232804D01*
X6307706Y-18223280D01*
X6298182Y-18204233D01*
X6288659Y-18166137D01*
X6288659Y-18118518D01*
X6298182Y-18080423D01*
X6307706Y-18061376D01*
X6317230Y-18051852D01*
X6336278Y-18042328D01*
X6488659Y-18223280D02*
X6498182Y-18232804D01*
X6488659Y-18242328D01*
X6479135Y-18232804D01*
X6488659Y-18223280D01*
X6488659Y-18242328D01*
X6621992Y-18042328D02*
X6641040Y-18042328D01*
X6660087Y-18051852D01*
X6669611Y-18061376D01*
X6679135Y-18080423D01*
X6688659Y-18118518D01*
X6688659Y-18166137D01*
X6679135Y-18204233D01*
X6669611Y-18223280D01*
X6660087Y-18232804D01*
X6641040Y-18242328D01*
X6621992Y-18242328D01*
X6602944Y-18232804D01*
X6593421Y-18223280D01*
X6583897Y-18204233D01*
X6574373Y-18166137D01*
X6574373Y-18118518D01*
X6583897Y-18080423D01*
X6593421Y-18061376D01*
X6602944Y-18051852D01*
X6621992Y-18042328D01*
X6755325Y-18042328D02*
X6888659Y-18042328D01*
X6802944Y-18242328D01*
X7050563Y-18108995D02*
X7050563Y-18242328D01*
X7002944Y-18032804D02*
X6955325Y-18175661D01*
X7079135Y-18175661D01*
X7183897Y-18128042D02*
X7164849Y-18118518D01*
X7155325Y-18108995D01*
X7145801Y-18089947D01*
X7145801Y-18080423D01*
X7155325Y-18061376D01*
X7164849Y-18051852D01*
X7183897Y-18042328D01*
X7221992Y-18042328D01*
X7241040Y-18051852D01*
X7250563Y-18061376D01*
X7260087Y-18080423D01*
X7260087Y-18089947D01*
X7250563Y-18108995D01*
X7241040Y-18118518D01*
X7221992Y-18128042D01*
X7183897Y-18128042D01*
X7164849Y-18137566D01*
X7155325Y-18147090D01*
X7145801Y-18166137D01*
X7145801Y-18204233D01*
X7155325Y-18223280D01*
X7164849Y-18232804D01*
X7183897Y-18242328D01*
X7221992Y-18242328D01*
X7241040Y-18232804D01*
X7250563Y-18223280D01*
X7260087Y-18204233D01*
X7260087Y-18166137D01*
X7250563Y-18147090D01*
X7241040Y-18137566D01*
X7221992Y-18128042D01*
X7336278Y-18042328D02*
X7336278Y-18080423D01*
X7412468Y-18042328D02*
X7412468Y-18080423D01*
X7707706Y-18318518D02*
X7698182Y-18308995D01*
X7679135Y-18280423D01*
X7669611Y-18261376D01*
X7660087Y-18232804D01*
X7650563Y-18185185D01*
X7650563Y-18147090D01*
X7660087Y-18099471D01*
X7669611Y-18070899D01*
X7679135Y-18051852D01*
X7698182Y-18023280D01*
X7707706Y-18013756D01*
X7888659Y-18242328D02*
X7774373Y-18242328D01*
X7831516Y-18242328D02*
X7831516Y-18042328D01*
X7812468Y-18070899D01*
X7793421Y-18089947D01*
X7774373Y-18099471D01*
X8079135Y-18242328D02*
X7964849Y-18242328D01*
X8021992Y-18242328D02*
X8021992Y-18042328D01*
X8002944Y-18070899D01*
X7983897Y-18089947D01*
X7964849Y-18099471D01*
X8155325Y-18061376D02*
X8164849Y-18051852D01*
X8183897Y-18042328D01*
X8231516Y-18042328D01*
X8250563Y-18051852D01*
X8260087Y-18061376D01*
X8269611Y-18080423D01*
X8269611Y-18099471D01*
X8260087Y-18128042D01*
X8145801Y-18242328D01*
X8269611Y-18242328D01*
X8507706Y-18242328D02*
X8507706Y-18042328D01*
X8593421Y-18242328D02*
X8593421Y-18137566D01*
X8583897Y-18118518D01*
X8564849Y-18108995D01*
X8536278Y-18108995D01*
X8517230Y-18118518D01*
X8507706Y-18128042D01*
X8717230Y-18242328D02*
X8698183Y-18232804D01*
X8688659Y-18223280D01*
X8679135Y-18204233D01*
X8679135Y-18147090D01*
X8688659Y-18128042D01*
X8698183Y-18118518D01*
X8717230Y-18108995D01*
X8745802Y-18108995D01*
X8764849Y-18118518D01*
X8774373Y-18128042D01*
X8783897Y-18147090D01*
X8783897Y-18204233D01*
X8774373Y-18223280D01*
X8764849Y-18232804D01*
X8745802Y-18242328D01*
X8717230Y-18242328D01*
X8898183Y-18242328D02*
X8879135Y-18232804D01*
X8869611Y-18213756D01*
X8869611Y-18042328D01*
X9050564Y-18232804D02*
X9031516Y-18242328D01*
X8993421Y-18242328D01*
X8974373Y-18232804D01*
X8964849Y-18213756D01*
X8964849Y-18137566D01*
X8974373Y-18118518D01*
X8993421Y-18108995D01*
X9031516Y-18108995D01*
X9050564Y-18118518D01*
X9060087Y-18137566D01*
X9060087Y-18156614D01*
X8964849Y-18175661D01*
X9136278Y-18232804D02*
X9155325Y-18242328D01*
X9193421Y-18242328D01*
X9212468Y-18232804D01*
X9221992Y-18213756D01*
X9221992Y-18204233D01*
X9212468Y-18185185D01*
X9193421Y-18175661D01*
X9164849Y-18175661D01*
X9145802Y-18166137D01*
X9136278Y-18147090D01*
X9136278Y-18137566D01*
X9145802Y-18118518D01*
X9164849Y-18108995D01*
X9193421Y-18108995D01*
X9212468Y-18118518D01*
X9288659Y-18318518D02*
X9298183Y-18308995D01*
X9317230Y-18280423D01*
X9326754Y-18261376D01*
X9336278Y-18232804D01*
X9345802Y-18185185D01*
X9345802Y-18147090D01*
X9336278Y-18099471D01*
X9326754Y-18070899D01*
X9317230Y-18051852D01*
X9298183Y-18023280D01*
X9288659Y-18013756D01*
X9650564Y-18318518D02*
X9641040Y-18308995D01*
X9621992Y-18280423D01*
X9612468Y-18261376D01*
X9602944Y-18232804D01*
X9593421Y-18185185D01*
X9593421Y-18147090D01*
X9602944Y-18099471D01*
X9612468Y-18070899D01*
X9621992Y-18051852D01*
X9641040Y-18023280D01*
X9650564Y-18013756D01*
X9726754Y-18108995D02*
X9726754Y-18242328D01*
X9726754Y-18128042D02*
X9736278Y-18118518D01*
X9755325Y-18108995D01*
X9783897Y-18108995D01*
X9802944Y-18118518D01*
X9812468Y-18137566D01*
X9812468Y-18242328D01*
X9936278Y-18242328D02*
X9917230Y-18232804D01*
X9907706Y-18223280D01*
X9898183Y-18204233D01*
X9898183Y-18147090D01*
X9907706Y-18128042D01*
X9917230Y-18118518D01*
X9936278Y-18108995D01*
X9964849Y-18108995D01*
X9983897Y-18118518D01*
X9993421Y-18128042D01*
X10002944Y-18147090D01*
X10002944Y-18204233D01*
X9993421Y-18223280D01*
X9983897Y-18232804D01*
X9964849Y-18242328D01*
X9936278Y-18242328D01*
X10060087Y-18108995D02*
X10136278Y-18108995D01*
X10088659Y-18042328D02*
X10088659Y-18213756D01*
X10098183Y-18232804D01*
X10117230Y-18242328D01*
X10136278Y-18242328D01*
X10355325Y-18108995D02*
X10355325Y-18308995D01*
X10355325Y-18118518D02*
X10374373Y-18108995D01*
X10412468Y-18108995D01*
X10431516Y-18118518D01*
X10441040Y-18128042D01*
X10450564Y-18147090D01*
X10450564Y-18204233D01*
X10441040Y-18223280D01*
X10431516Y-18232804D01*
X10412468Y-18242328D01*
X10374373Y-18242328D01*
X10355325Y-18232804D01*
X10564849Y-18242328D02*
X10545802Y-18232804D01*
X10536278Y-18213756D01*
X10536278Y-18042328D01*
X10726754Y-18242328D02*
X10726754Y-18137566D01*
X10717230Y-18118518D01*
X10698183Y-18108995D01*
X10660087Y-18108995D01*
X10641040Y-18118518D01*
X10726754Y-18232804D02*
X10707706Y-18242328D01*
X10660087Y-18242328D01*
X10641040Y-18232804D01*
X10631516Y-18213756D01*
X10631516Y-18194709D01*
X10641040Y-18175661D01*
X10660087Y-18166137D01*
X10707706Y-18166137D01*
X10726754Y-18156614D01*
X10793421Y-18108995D02*
X10869611Y-18108995D01*
X10821992Y-18042328D02*
X10821992Y-18213756D01*
X10831516Y-18232804D01*
X10850564Y-18242328D01*
X10869611Y-18242328D01*
X11012468Y-18232804D02*
X10993421Y-18242328D01*
X10955325Y-18242328D01*
X10936278Y-18232804D01*
X10926754Y-18213756D01*
X10926754Y-18137566D01*
X10936278Y-18118518D01*
X10955325Y-18108995D01*
X10993421Y-18108995D01*
X11012468Y-18118518D01*
X11021992Y-18137566D01*
X11021992Y-18156614D01*
X10926754Y-18175661D01*
X11193421Y-18242328D02*
X11193421Y-18042328D01*
X11193421Y-18232804D02*
X11174373Y-18242328D01*
X11136278Y-18242328D01*
X11117230Y-18232804D01*
X11107706Y-18223280D01*
X11098183Y-18204233D01*
X11098183Y-18147090D01*
X11107706Y-18128042D01*
X11117230Y-18118518D01*
X11136278Y-18108995D01*
X11174373Y-18108995D01*
X11193421Y-18118518D01*
X11269611Y-18318518D02*
X11279135Y-18308995D01*
X11298182Y-18280423D01*
X11307706Y-18261376D01*
X11317230Y-18232804D01*
X11326754Y-18185185D01*
X11326754Y-18147090D01*
X11317230Y-18099471D01*
X11307706Y-18070899D01*
X11298182Y-18051852D01*
X11279135Y-18023280D01*
X11269611Y-18013756D01*
X4135802Y-18461852D02*
G75*
G03*
X4135802Y-18461852I-100000J0D01*
G01*
X4374373Y-18352328D02*
X4498183Y-18352328D01*
X4431516Y-18428518D01*
X4460087Y-18428518D01*
X4479135Y-18438042D01*
X4488659Y-18447566D01*
X4498183Y-18466614D01*
X4498183Y-18514233D01*
X4488659Y-18533280D01*
X4479135Y-18542804D01*
X4460087Y-18552328D01*
X4402944Y-18552328D01*
X4383897Y-18542804D01*
X4374373Y-18533280D01*
X4583897Y-18533280D02*
X4593421Y-18542804D01*
X4583897Y-18552328D01*
X4574373Y-18542804D01*
X4583897Y-18533280D01*
X4583897Y-18552328D01*
X4717230Y-18352328D02*
X4736278Y-18352328D01*
X4755325Y-18361852D01*
X4764849Y-18371376D01*
X4774373Y-18390423D01*
X4783897Y-18428518D01*
X4783897Y-18476137D01*
X4774373Y-18514233D01*
X4764849Y-18533280D01*
X4755325Y-18542804D01*
X4736278Y-18552328D01*
X4717230Y-18552328D01*
X4698183Y-18542804D01*
X4688659Y-18533280D01*
X4679135Y-18514233D01*
X4669611Y-18476137D01*
X4669611Y-18428518D01*
X4679135Y-18390423D01*
X4688659Y-18371376D01*
X4698183Y-18361852D01*
X4717230Y-18352328D01*
X4907706Y-18352328D02*
X4926754Y-18352328D01*
X4945802Y-18361852D01*
X4955325Y-18371376D01*
X4964849Y-18390423D01*
X4974373Y-18428518D01*
X4974373Y-18476137D01*
X4964849Y-18514233D01*
X4955325Y-18533280D01*
X4945802Y-18542804D01*
X4926754Y-18552328D01*
X4907706Y-18552328D01*
X4888659Y-18542804D01*
X4879135Y-18533280D01*
X4869611Y-18514233D01*
X4860087Y-18476137D01*
X4860087Y-18428518D01*
X4869611Y-18390423D01*
X4879135Y-18371376D01*
X4888659Y-18361852D01*
X4907706Y-18352328D01*
X5098183Y-18352328D02*
X5117230Y-18352328D01*
X5136278Y-18361852D01*
X5145802Y-18371376D01*
X5155325Y-18390423D01*
X5164849Y-18428518D01*
X5164849Y-18476137D01*
X5155325Y-18514233D01*
X5145802Y-18533280D01*
X5136278Y-18542804D01*
X5117230Y-18552328D01*
X5098183Y-18552328D01*
X5079135Y-18542804D01*
X5069611Y-18533280D01*
X5060087Y-18514233D01*
X5050564Y-18476137D01*
X5050564Y-18428518D01*
X5060087Y-18390423D01*
X5069611Y-18371376D01*
X5079135Y-18361852D01*
X5098183Y-18352328D01*
X5250564Y-18552328D02*
X5250564Y-18418995D01*
X5250564Y-18438042D02*
X5260087Y-18428518D01*
X5279135Y-18418995D01*
X5307706Y-18418995D01*
X5326754Y-18428518D01*
X5336278Y-18447566D01*
X5336278Y-18552328D01*
X5336278Y-18447566D02*
X5345802Y-18428518D01*
X5364849Y-18418995D01*
X5393421Y-18418995D01*
X5412468Y-18428518D01*
X5421992Y-18447566D01*
X5421992Y-18552328D01*
X5517230Y-18552328D02*
X5517230Y-18418995D01*
X5517230Y-18438042D02*
X5526754Y-18428518D01*
X5545802Y-18418995D01*
X5574373Y-18418995D01*
X5593421Y-18428518D01*
X5602944Y-18447566D01*
X5602944Y-18552328D01*
X5602944Y-18447566D02*
X5612468Y-18428518D01*
X5631516Y-18418995D01*
X5660087Y-18418995D01*
X5679135Y-18428518D01*
X5688659Y-18447566D01*
X5688659Y-18552328D01*
X6079135Y-18342804D02*
X5907706Y-18599947D01*
X6336278Y-18352328D02*
X6355325Y-18352328D01*
X6374373Y-18361852D01*
X6383897Y-18371376D01*
X6393421Y-18390423D01*
X6402944Y-18428518D01*
X6402944Y-18476137D01*
X6393421Y-18514233D01*
X6383897Y-18533280D01*
X6374373Y-18542804D01*
X6355325Y-18552328D01*
X6336278Y-18552328D01*
X6317230Y-18542804D01*
X6307706Y-18533280D01*
X6298182Y-18514233D01*
X6288659Y-18476137D01*
X6288659Y-18428518D01*
X6298182Y-18390423D01*
X6307706Y-18371376D01*
X6317230Y-18361852D01*
X6336278Y-18352328D01*
X6488659Y-18533280D02*
X6498182Y-18542804D01*
X6488659Y-18552328D01*
X6479135Y-18542804D01*
X6488659Y-18533280D01*
X6488659Y-18552328D01*
X6688659Y-18552328D02*
X6574373Y-18552328D01*
X6631516Y-18552328D02*
X6631516Y-18352328D01*
X6612468Y-18380899D01*
X6593421Y-18399947D01*
X6574373Y-18409471D01*
X6879135Y-18552328D02*
X6764849Y-18552328D01*
X6821992Y-18552328D02*
X6821992Y-18352328D01*
X6802944Y-18380899D01*
X6783897Y-18399947D01*
X6764849Y-18409471D01*
X6993421Y-18438042D02*
X6974373Y-18428518D01*
X6964849Y-18418995D01*
X6955325Y-18399947D01*
X6955325Y-18390423D01*
X6964849Y-18371376D01*
X6974373Y-18361852D01*
X6993421Y-18352328D01*
X7031516Y-18352328D01*
X7050563Y-18361852D01*
X7060087Y-18371376D01*
X7069611Y-18390423D01*
X7069611Y-18399947D01*
X7060087Y-18418995D01*
X7050563Y-18428518D01*
X7031516Y-18438042D01*
X6993421Y-18438042D01*
X6974373Y-18447566D01*
X6964849Y-18457090D01*
X6955325Y-18476137D01*
X6955325Y-18514233D01*
X6964849Y-18533280D01*
X6974373Y-18542804D01*
X6993421Y-18552328D01*
X7031516Y-18552328D01*
X7050563Y-18542804D01*
X7060087Y-18533280D01*
X7069611Y-18514233D01*
X7069611Y-18476137D01*
X7060087Y-18457090D01*
X7050563Y-18447566D01*
X7031516Y-18438042D01*
X7260087Y-18552328D02*
X7145801Y-18552328D01*
X7202944Y-18552328D02*
X7202944Y-18352328D01*
X7183897Y-18380899D01*
X7164849Y-18399947D01*
X7145801Y-18409471D01*
X7336278Y-18352328D02*
X7336278Y-18390423D01*
X7412468Y-18352328D02*
X7412468Y-18390423D01*
X7707706Y-18628518D02*
X7698182Y-18618995D01*
X7679135Y-18590423D01*
X7669611Y-18571376D01*
X7660087Y-18542804D01*
X7650563Y-18495185D01*
X7650563Y-18457090D01*
X7660087Y-18409471D01*
X7669611Y-18380899D01*
X7679135Y-18361852D01*
X7698182Y-18333280D01*
X7707706Y-18323756D01*
X7888659Y-18552328D02*
X7774373Y-18552328D01*
X7831516Y-18552328D02*
X7831516Y-18352328D01*
X7812468Y-18380899D01*
X7793421Y-18399947D01*
X7774373Y-18409471D01*
X8079135Y-18552328D02*
X7964849Y-18552328D01*
X8021992Y-18552328D02*
X8021992Y-18352328D01*
X8002944Y-18380899D01*
X7983897Y-18399947D01*
X7964849Y-18409471D01*
X8155325Y-18371376D02*
X8164849Y-18361852D01*
X8183897Y-18352328D01*
X8231516Y-18352328D01*
X8250563Y-18361852D01*
X8260087Y-18371376D01*
X8269611Y-18390423D01*
X8269611Y-18409471D01*
X8260087Y-18438042D01*
X8145801Y-18552328D01*
X8269611Y-18552328D01*
X8507706Y-18552328D02*
X8507706Y-18352328D01*
X8593421Y-18552328D02*
X8593421Y-18447566D01*
X8583897Y-18428518D01*
X8564849Y-18418995D01*
X8536278Y-18418995D01*
X8517230Y-18428518D01*
X8507706Y-18438042D01*
X8717230Y-18552328D02*
X8698183Y-18542804D01*
X8688659Y-18533280D01*
X8679135Y-18514233D01*
X8679135Y-18457090D01*
X8688659Y-18438042D01*
X8698183Y-18428518D01*
X8717230Y-18418995D01*
X8745802Y-18418995D01*
X8764849Y-18428518D01*
X8774373Y-18438042D01*
X8783897Y-18457090D01*
X8783897Y-18514233D01*
X8774373Y-18533280D01*
X8764849Y-18542804D01*
X8745802Y-18552328D01*
X8717230Y-18552328D01*
X8898183Y-18552328D02*
X8879135Y-18542804D01*
X8869611Y-18523756D01*
X8869611Y-18352328D01*
X9050564Y-18542804D02*
X9031516Y-18552328D01*
X8993421Y-18552328D01*
X8974373Y-18542804D01*
X8964849Y-18523756D01*
X8964849Y-18447566D01*
X8974373Y-18428518D01*
X8993421Y-18418995D01*
X9031516Y-18418995D01*
X9050564Y-18428518D01*
X9060087Y-18447566D01*
X9060087Y-18466614D01*
X8964849Y-18485661D01*
X9136278Y-18542804D02*
X9155325Y-18552328D01*
X9193421Y-18552328D01*
X9212468Y-18542804D01*
X9221992Y-18523756D01*
X9221992Y-18514233D01*
X9212468Y-18495185D01*
X9193421Y-18485661D01*
X9164849Y-18485661D01*
X9145802Y-18476137D01*
X9136278Y-18457090D01*
X9136278Y-18447566D01*
X9145802Y-18428518D01*
X9164849Y-18418995D01*
X9193421Y-18418995D01*
X9212468Y-18428518D01*
X9288659Y-18628518D02*
X9298183Y-18618995D01*
X9317230Y-18590423D01*
X9326754Y-18571376D01*
X9336278Y-18542804D01*
X9345802Y-18495185D01*
X9345802Y-18457090D01*
X9336278Y-18409471D01*
X9326754Y-18380899D01*
X9317230Y-18361852D01*
X9298183Y-18333280D01*
X9288659Y-18323756D01*
X9650564Y-18628518D02*
X9641040Y-18618995D01*
X9621992Y-18590423D01*
X9612468Y-18571376D01*
X9602944Y-18542804D01*
X9593421Y-18495185D01*
X9593421Y-18457090D01*
X9602944Y-18409471D01*
X9612468Y-18380899D01*
X9621992Y-18361852D01*
X9641040Y-18333280D01*
X9650564Y-18323756D01*
X9726754Y-18418995D02*
X9726754Y-18552328D01*
X9726754Y-18438042D02*
X9736278Y-18428518D01*
X9755325Y-18418995D01*
X9783897Y-18418995D01*
X9802944Y-18428518D01*
X9812468Y-18447566D01*
X9812468Y-18552328D01*
X9936278Y-18552328D02*
X9917230Y-18542804D01*
X9907706Y-18533280D01*
X9898183Y-18514233D01*
X9898183Y-18457090D01*
X9907706Y-18438042D01*
X9917230Y-18428518D01*
X9936278Y-18418995D01*
X9964849Y-18418995D01*
X9983897Y-18428518D01*
X9993421Y-18438042D01*
X10002944Y-18457090D01*
X10002944Y-18514233D01*
X9993421Y-18533280D01*
X9983897Y-18542804D01*
X9964849Y-18552328D01*
X9936278Y-18552328D01*
X10060087Y-18418995D02*
X10136278Y-18418995D01*
X10088659Y-18352328D02*
X10088659Y-18523756D01*
X10098183Y-18542804D01*
X10117230Y-18552328D01*
X10136278Y-18552328D01*
X10355325Y-18418995D02*
X10355325Y-18618995D01*
X10355325Y-18428518D02*
X10374373Y-18418995D01*
X10412468Y-18418995D01*
X10431516Y-18428518D01*
X10441040Y-18438042D01*
X10450564Y-18457090D01*
X10450564Y-18514233D01*
X10441040Y-18533280D01*
X10431516Y-18542804D01*
X10412468Y-18552328D01*
X10374373Y-18552328D01*
X10355325Y-18542804D01*
X10564849Y-18552328D02*
X10545802Y-18542804D01*
X10536278Y-18523756D01*
X10536278Y-18352328D01*
X10726754Y-18552328D02*
X10726754Y-18447566D01*
X10717230Y-18428518D01*
X10698183Y-18418995D01*
X10660087Y-18418995D01*
X10641040Y-18428518D01*
X10726754Y-18542804D02*
X10707706Y-18552328D01*
X10660087Y-18552328D01*
X10641040Y-18542804D01*
X10631516Y-18523756D01*
X10631516Y-18504709D01*
X10641040Y-18485661D01*
X10660087Y-18476137D01*
X10707706Y-18476137D01*
X10726754Y-18466614D01*
X10793421Y-18418995D02*
X10869611Y-18418995D01*
X10821992Y-18352328D02*
X10821992Y-18523756D01*
X10831516Y-18542804D01*
X10850564Y-18552328D01*
X10869611Y-18552328D01*
X11012468Y-18542804D02*
X10993421Y-18552328D01*
X10955325Y-18552328D01*
X10936278Y-18542804D01*
X10926754Y-18523756D01*
X10926754Y-18447566D01*
X10936278Y-18428518D01*
X10955325Y-18418995D01*
X10993421Y-18418995D01*
X11012468Y-18428518D01*
X11021992Y-18447566D01*
X11021992Y-18466614D01*
X10926754Y-18485661D01*
X11193421Y-18552328D02*
X11193421Y-18352328D01*
X11193421Y-18542804D02*
X11174373Y-18552328D01*
X11136278Y-18552328D01*
X11117230Y-18542804D01*
X11107706Y-18533280D01*
X11098183Y-18514233D01*
X11098183Y-18457090D01*
X11107706Y-18438042D01*
X11117230Y-18428518D01*
X11136278Y-18418995D01*
X11174373Y-18418995D01*
X11193421Y-18428518D01*
X11269611Y-18628518D02*
X11279135Y-18618995D01*
X11298182Y-18590423D01*
X11307706Y-18571376D01*
X11317230Y-18542804D01*
X11326754Y-18495185D01*
X11326754Y-18457090D01*
X11317230Y-18409471D01*
X11307706Y-18380899D01*
X11298182Y-18361852D01*
X11279135Y-18333280D01*
X11269611Y-18323756D01*
X4035802Y-18681852D02*
X4035802Y-18881852D01*
X3935802Y-18781852D02*
X4135802Y-18781852D01*
X4479135Y-18738995D02*
X4479135Y-18872328D01*
X4431516Y-18662804D02*
X4383897Y-18805661D01*
X4507706Y-18805661D01*
X4583897Y-18853280D02*
X4593421Y-18862804D01*
X4583897Y-18872328D01*
X4574373Y-18862804D01*
X4583897Y-18853280D01*
X4583897Y-18872328D01*
X4783897Y-18872328D02*
X4669611Y-18872328D01*
X4726754Y-18872328D02*
X4726754Y-18672328D01*
X4707706Y-18700899D01*
X4688659Y-18719947D01*
X4669611Y-18729471D01*
X4907706Y-18672328D02*
X4926754Y-18672328D01*
X4945802Y-18681852D01*
X4955325Y-18691376D01*
X4964849Y-18710423D01*
X4974373Y-18748518D01*
X4974373Y-18796137D01*
X4964849Y-18834233D01*
X4955325Y-18853280D01*
X4945802Y-18862804D01*
X4926754Y-18872328D01*
X4907706Y-18872328D01*
X4888659Y-18862804D01*
X4879135Y-18853280D01*
X4869611Y-18834233D01*
X4860087Y-18796137D01*
X4860087Y-18748518D01*
X4869611Y-18710423D01*
X4879135Y-18691376D01*
X4888659Y-18681852D01*
X4907706Y-18672328D01*
X5098183Y-18672328D02*
X5117230Y-18672328D01*
X5136278Y-18681852D01*
X5145802Y-18691376D01*
X5155325Y-18710423D01*
X5164849Y-18748518D01*
X5164849Y-18796137D01*
X5155325Y-18834233D01*
X5145802Y-18853280D01*
X5136278Y-18862804D01*
X5117230Y-18872328D01*
X5098183Y-18872328D01*
X5079135Y-18862804D01*
X5069611Y-18853280D01*
X5060087Y-18834233D01*
X5050564Y-18796137D01*
X5050564Y-18748518D01*
X5060087Y-18710423D01*
X5069611Y-18691376D01*
X5079135Y-18681852D01*
X5098183Y-18672328D01*
X5250564Y-18872328D02*
X5250564Y-18738995D01*
X5250564Y-18758042D02*
X5260087Y-18748518D01*
X5279135Y-18738995D01*
X5307706Y-18738995D01*
X5326754Y-18748518D01*
X5336278Y-18767566D01*
X5336278Y-18872328D01*
X5336278Y-18767566D02*
X5345802Y-18748518D01*
X5364849Y-18738995D01*
X5393421Y-18738995D01*
X5412468Y-18748518D01*
X5421992Y-18767566D01*
X5421992Y-18872328D01*
X5517230Y-18872328D02*
X5517230Y-18738995D01*
X5517230Y-18758042D02*
X5526754Y-18748518D01*
X5545802Y-18738995D01*
X5574373Y-18738995D01*
X5593421Y-18748518D01*
X5602944Y-18767566D01*
X5602944Y-18872328D01*
X5602944Y-18767566D02*
X5612468Y-18748518D01*
X5631516Y-18738995D01*
X5660087Y-18738995D01*
X5679135Y-18748518D01*
X5688659Y-18767566D01*
X5688659Y-18872328D01*
X6079135Y-18662804D02*
X5907706Y-18919947D01*
X6336278Y-18672328D02*
X6355325Y-18672328D01*
X6374373Y-18681852D01*
X6383897Y-18691376D01*
X6393421Y-18710423D01*
X6402944Y-18748518D01*
X6402944Y-18796137D01*
X6393421Y-18834233D01*
X6383897Y-18853280D01*
X6374373Y-18862804D01*
X6355325Y-18872328D01*
X6336278Y-18872328D01*
X6317230Y-18862804D01*
X6307706Y-18853280D01*
X6298182Y-18834233D01*
X6288659Y-18796137D01*
X6288659Y-18748518D01*
X6298182Y-18710423D01*
X6307706Y-18691376D01*
X6317230Y-18681852D01*
X6336278Y-18672328D01*
X6488659Y-18853280D02*
X6498182Y-18862804D01*
X6488659Y-18872328D01*
X6479135Y-18862804D01*
X6488659Y-18853280D01*
X6488659Y-18872328D01*
X6688659Y-18872328D02*
X6574373Y-18872328D01*
X6631516Y-18872328D02*
X6631516Y-18672328D01*
X6612468Y-18700899D01*
X6593421Y-18719947D01*
X6574373Y-18729471D01*
X6860087Y-18672328D02*
X6821992Y-18672328D01*
X6802944Y-18681852D01*
X6793421Y-18691376D01*
X6774373Y-18719947D01*
X6764849Y-18758042D01*
X6764849Y-18834233D01*
X6774373Y-18853280D01*
X6783897Y-18862804D01*
X6802944Y-18872328D01*
X6841040Y-18872328D01*
X6860087Y-18862804D01*
X6869611Y-18853280D01*
X6879135Y-18834233D01*
X6879135Y-18786614D01*
X6869611Y-18767566D01*
X6860087Y-18758042D01*
X6841040Y-18748518D01*
X6802944Y-18748518D01*
X6783897Y-18758042D01*
X6774373Y-18767566D01*
X6764849Y-18786614D01*
X7069611Y-18872328D02*
X6955325Y-18872328D01*
X7012468Y-18872328D02*
X7012468Y-18672328D01*
X6993421Y-18700899D01*
X6974373Y-18719947D01*
X6955325Y-18729471D01*
X7241040Y-18738995D02*
X7241040Y-18872328D01*
X7193421Y-18662804D02*
X7145801Y-18805661D01*
X7269611Y-18805661D01*
X7336278Y-18672328D02*
X7336278Y-18710423D01*
X7412468Y-18672328D02*
X7412468Y-18710423D01*
X7707706Y-18948518D02*
X7698182Y-18938995D01*
X7679135Y-18910423D01*
X7669611Y-18891376D01*
X7660087Y-18862804D01*
X7650563Y-18815185D01*
X7650563Y-18777090D01*
X7660087Y-18729471D01*
X7669611Y-18700899D01*
X7679135Y-18681852D01*
X7698182Y-18653280D01*
X7707706Y-18643756D01*
X7879135Y-18672328D02*
X7783897Y-18672328D01*
X7774373Y-18767566D01*
X7783897Y-18758042D01*
X7802944Y-18748518D01*
X7850563Y-18748518D01*
X7869611Y-18758042D01*
X7879135Y-18767566D01*
X7888659Y-18786614D01*
X7888659Y-18834233D01*
X7879135Y-18853280D01*
X7869611Y-18862804D01*
X7850563Y-18872328D01*
X7802944Y-18872328D01*
X7783897Y-18862804D01*
X7774373Y-18853280D01*
X8060087Y-18672328D02*
X8021992Y-18672328D01*
X8002944Y-18681852D01*
X7993421Y-18691376D01*
X7974373Y-18719947D01*
X7964849Y-18758042D01*
X7964849Y-18834233D01*
X7974373Y-18853280D01*
X7983897Y-18862804D01*
X8002944Y-18872328D01*
X8041040Y-18872328D01*
X8060087Y-18862804D01*
X8069611Y-18853280D01*
X8079135Y-18834233D01*
X8079135Y-18786614D01*
X8069611Y-18767566D01*
X8060087Y-18758042D01*
X8041040Y-18748518D01*
X8002944Y-18748518D01*
X7983897Y-18758042D01*
X7974373Y-18767566D01*
X7964849Y-18786614D01*
X8317230Y-18872328D02*
X8317230Y-18672328D01*
X8402944Y-18872328D02*
X8402944Y-18767566D01*
X8393421Y-18748518D01*
X8374373Y-18738995D01*
X8345801Y-18738995D01*
X8326754Y-18748518D01*
X8317230Y-18758042D01*
X8526754Y-18872328D02*
X8507706Y-18862804D01*
X8498183Y-18853280D01*
X8488659Y-18834233D01*
X8488659Y-18777090D01*
X8498183Y-18758042D01*
X8507706Y-18748518D01*
X8526754Y-18738995D01*
X8555325Y-18738995D01*
X8574373Y-18748518D01*
X8583897Y-18758042D01*
X8593421Y-18777090D01*
X8593421Y-18834233D01*
X8583897Y-18853280D01*
X8574373Y-18862804D01*
X8555325Y-18872328D01*
X8526754Y-18872328D01*
X8707706Y-18872328D02*
X8688659Y-18862804D01*
X8679135Y-18843756D01*
X8679135Y-18672328D01*
X8860087Y-18862804D02*
X8841040Y-18872328D01*
X8802944Y-18872328D01*
X8783897Y-18862804D01*
X8774373Y-18843756D01*
X8774373Y-18767566D01*
X8783897Y-18748518D01*
X8802944Y-18738995D01*
X8841040Y-18738995D01*
X8860087Y-18748518D01*
X8869611Y-18767566D01*
X8869611Y-18786614D01*
X8774373Y-18805661D01*
X8945802Y-18862804D02*
X8964849Y-18872328D01*
X9002944Y-18872328D01*
X9021992Y-18862804D01*
X9031516Y-18843756D01*
X9031516Y-18834233D01*
X9021992Y-18815185D01*
X9002944Y-18805661D01*
X8974373Y-18805661D01*
X8955325Y-18796137D01*
X8945802Y-18777090D01*
X8945802Y-18767566D01*
X8955325Y-18748518D01*
X8974373Y-18738995D01*
X9002944Y-18738995D01*
X9021992Y-18748518D01*
X9098183Y-18948518D02*
X9107706Y-18938995D01*
X9126754Y-18910423D01*
X9136278Y-18891376D01*
X9145802Y-18862804D01*
X9155325Y-18815185D01*
X9155325Y-18777090D01*
X9145802Y-18729471D01*
X9136278Y-18700899D01*
X9126754Y-18681852D01*
X9107706Y-18653280D01*
X9098183Y-18643756D01*
X9460087Y-18948518D02*
X9450564Y-18938995D01*
X9431516Y-18910423D01*
X9421992Y-18891376D01*
X9412468Y-18862804D01*
X9402944Y-18815185D01*
X9402944Y-18777090D01*
X9412468Y-18729471D01*
X9421992Y-18700899D01*
X9431516Y-18681852D01*
X9450564Y-18653280D01*
X9460087Y-18643756D01*
X9536278Y-18738995D02*
X9536278Y-18872328D01*
X9536278Y-18758042D02*
X9545802Y-18748518D01*
X9564849Y-18738995D01*
X9593421Y-18738995D01*
X9612468Y-18748518D01*
X9621992Y-18767566D01*
X9621992Y-18872328D01*
X9745802Y-18872328D02*
X9726754Y-18862804D01*
X9717230Y-18853280D01*
X9707706Y-18834233D01*
X9707706Y-18777090D01*
X9717230Y-18758042D01*
X9726754Y-18748518D01*
X9745802Y-18738995D01*
X9774373Y-18738995D01*
X9793421Y-18748518D01*
X9802944Y-18758042D01*
X9812468Y-18777090D01*
X9812468Y-18834233D01*
X9802944Y-18853280D01*
X9793421Y-18862804D01*
X9774373Y-18872328D01*
X9745802Y-18872328D01*
X9869611Y-18738995D02*
X9945802Y-18738995D01*
X9898183Y-18672328D02*
X9898183Y-18843756D01*
X9907706Y-18862804D01*
X9926754Y-18872328D01*
X9945802Y-18872328D01*
X10164849Y-18738995D02*
X10164849Y-18938995D01*
X10164849Y-18748518D02*
X10183897Y-18738995D01*
X10221992Y-18738995D01*
X10241040Y-18748518D01*
X10250564Y-18758042D01*
X10260087Y-18777090D01*
X10260087Y-18834233D01*
X10250564Y-18853280D01*
X10241040Y-18862804D01*
X10221992Y-18872328D01*
X10183897Y-18872328D01*
X10164849Y-18862804D01*
X10374373Y-18872328D02*
X10355325Y-18862804D01*
X10345802Y-18843756D01*
X10345802Y-18672328D01*
X10536278Y-18872328D02*
X10536278Y-18767566D01*
X10526754Y-18748518D01*
X10507706Y-18738995D01*
X10469611Y-18738995D01*
X10450564Y-18748518D01*
X10536278Y-18862804D02*
X10517230Y-18872328D01*
X10469611Y-18872328D01*
X10450564Y-18862804D01*
X10441040Y-18843756D01*
X10441040Y-18824709D01*
X10450564Y-18805661D01*
X10469611Y-18796137D01*
X10517230Y-18796137D01*
X10536278Y-18786614D01*
X10602944Y-18738995D02*
X10679135Y-18738995D01*
X10631516Y-18672328D02*
X10631516Y-18843756D01*
X10641040Y-18862804D01*
X10660087Y-18872328D01*
X10679135Y-18872328D01*
X10821992Y-18862804D02*
X10802944Y-18872328D01*
X10764849Y-18872328D01*
X10745802Y-18862804D01*
X10736278Y-18843756D01*
X10736278Y-18767566D01*
X10745802Y-18748518D01*
X10764849Y-18738995D01*
X10802944Y-18738995D01*
X10821992Y-18748518D01*
X10831516Y-18767566D01*
X10831516Y-18786614D01*
X10736278Y-18805661D01*
X11002944Y-18872328D02*
X11002944Y-18672328D01*
X11002944Y-18862804D02*
X10983897Y-18872328D01*
X10945802Y-18872328D01*
X10926754Y-18862804D01*
X10917230Y-18853280D01*
X10907706Y-18834233D01*
X10907706Y-18777090D01*
X10917230Y-18758042D01*
X10926754Y-18748518D01*
X10945802Y-18738995D01*
X10983897Y-18738995D01*
X11002944Y-18748518D01*
X11079135Y-18948518D02*
X11088659Y-18938995D01*
X11107706Y-18910423D01*
X11117230Y-18891376D01*
X11126754Y-18862804D01*
X11136278Y-18815185D01*
X11136278Y-18777090D01*
X11126754Y-18729471D01*
X11117230Y-18700899D01*
X11107706Y-18681852D01*
X11088659Y-18653280D01*
X11079135Y-18643756D01*
M02*
