M48
; DRILL file {KiCad (6.0.0-0)} date Saturday, January 08, 2022 at 02:54:40 PM
; FORMAT={-:-/ absolute / metric / decimal}
; #@! TF.CreationDate,2022-01-08T14:54:40+00:00
; #@! TF.GenerationSoftware,Kicad,Pcbnew,(6.0.0-0)
; #@! TF.FileFunction,Plated,1,2,PTH
FMAT,2
METRIC
; #@! TA.AperFunction,Plated,PTH,ViaDrill
T1C0.400
; #@! TA.AperFunction,Plated,PTH,ComponentDrill
T2C0.800
; #@! TA.AperFunction,Plated,PTH,ComponentDrill
T3C1.092
; #@! TA.AperFunction,Plated,PTH,ComponentDrill
T4C1.300
%
G90
G05
T1
X183.388Y-61.769
X183.388Y-64.309
X183.388Y-68.119
X183.388Y-63.039
X183.388Y-65.579
X183.388Y-66.849
T2
X60.932Y-99.223
X61.533Y-96.755
X67.102Y-100.724
X67.703Y-98.256
X70.183Y-62.262
X70.784Y-59.794
X76.353Y-63.763
X76.954Y-61.295
X79.443Y-103.725
X80.043Y-101.257
X85.613Y-105.226
X86.213Y-102.758
X88.694Y-66.764
X89.294Y-64.296
X94.864Y-68.265
X95.464Y-65.797
X99.094Y-103.538
X99.694Y-101.07
X105.264Y-105.039
X105.864Y-102.57
X108.345Y-66.577
X108.945Y-64.109
X114.515Y-68.078
X115.115Y-65.61
X118.144Y-105.819
X118.744Y-103.351
X121.94Y-131.053
X124.314Y-107.319
X124.915Y-104.851
X127.272Y-68.828
X127.872Y-66.36
X128.11Y-132.553
X133.442Y-70.329
X134.042Y-67.861
X136.114Y-112.542
X136.715Y-110.074
X139.91Y-137.776
X142.284Y-114.043
X142.885Y-111.575
X145.365Y-75.581
X145.966Y-73.113
X146.08Y-139.277
X149.699Y-146.955
X151.535Y-77.082
X152.136Y-74.614
X154.208Y-119.295
X154.808Y-116.827
X155.12Y-141.111
X155.869Y-148.456
X160.378Y-120.796
X160.978Y-118.328
X161.29Y-142.612
X163.335Y-82.305
X163.936Y-79.837
X169.506Y-83.805
X170.106Y-81.337
X202.1Y-80.017
X202.7Y-82.485
X205.84Y-142.469
X208.27Y-78.516
X208.87Y-80.984
X210.877Y-148.563
X211.104Y-117.037
X211.704Y-119.505
X212.01Y-140.968
X217.047Y-147.063
X217.274Y-115.537
X217.874Y-118.005
X220.07Y-73.293
X220.67Y-75.761
X225.878Y-138.016
X226.24Y-71.793
X226.84Y-74.261
X229.074Y-110.314
X229.674Y-112.782
X232.049Y-136.515
X235.244Y-108.813
X235.845Y-111.281
X238.04Y-66.57
X238.64Y-69.038
X243.849Y-131.293
X244.21Y-65.069
X244.811Y-67.537
X246.798Y-103.651
X247.398Y-106.119
X250.019Y-129.792
X252.968Y-102.15
X253.568Y-104.618
X257.091Y-64.289
X257.691Y-66.757
X263.261Y-62.788
X263.861Y-65.256
X266.095Y-101.31
X266.635Y-103.531
X272.265Y-99.809
X272.805Y-102.03
X276.742Y-64.476
X277.342Y-66.944
X282.912Y-62.976
X283.512Y-65.444
X285.746Y-101.497
X286.346Y-103.965
X291.916Y-99.996
X292.516Y-102.464
X295.252Y-59.974
X295.852Y-62.442
X301.422Y-58.474
X302.022Y-60.942
X304.256Y-96.995
X304.856Y-99.463
X310.426Y-95.494
X311.027Y-97.962
T3
X175.768Y-91.949
X175.768Y-94.489
X175.768Y-97.029
X175.768Y-99.569
X175.768Y-102.109
X175.768Y-104.649
X175.768Y-107.189
X175.768Y-109.729
X175.768Y-112.269
X175.768Y-114.809
X175.768Y-117.349
X175.768Y-119.889
X178.308Y-119.889
X180.848Y-119.889
X183.388Y-119.889
X185.928Y-119.889
X188.468Y-119.889
X191.008Y-91.949
X191.008Y-94.489
X191.008Y-97.029
X191.008Y-99.569
X191.008Y-102.109
X191.008Y-104.649
X191.008Y-107.189
X191.008Y-109.729
X191.008Y-112.269
X191.008Y-114.809
X191.008Y-117.349
X191.008Y-119.889
T4
X195.148Y-53.783
X201.6Y-52.99
T0
M30
