%TF.GenerationSoftware,KiCad,Pcbnew,(6.0.0-0)*%
%TF.CreationDate,2022-01-08T14:54:33+00:00*%
%TF.ProjectId,atreis,61747265-6973-42e6-9b69-6361645f7063,rev?*%
%TF.SameCoordinates,Original*%
%TF.FileFunction,Legend,Top*%
%TF.FilePolarity,Positive*%
%FSLAX46Y46*%
G04 Gerber Fmt 4.6, Leading zero omitted, Abs format (unit mm)*
G04 Created by KiCad (PCBNEW (6.0.0-0)) date 2022-01-08 14:54:33*
%MOMM*%
%LPD*%
G01*
G04 APERTURE LIST*
G04 Aperture macros list*
%AMRotRect*
0 Rectangle, with rotation*
0 The origin of the aperture is its center*
0 $1 length*
0 $2 width*
0 $3 Rotation angle, in degrees counterclockwise*
0 Add horizontal line*
21,1,$1,$2,0,0,$3*%
G04 Aperture macros list end*
%ADD10C,0.150000*%
%ADD11C,0.381000*%
%ADD12C,0.200000*%
%ADD13C,1.752600*%
%ADD14R,1.752600X1.752600*%
%ADD15C,4.000000*%
%ADD16C,4.100000*%
%ADD17C,1.900000*%
%ADD18C,3.000000*%
%ADD19C,1.400000*%
%ADD20RotRect,1.600000X1.200000X166.330000*%
%ADD21RotRect,1.400000X1.400000X166.330000*%
%ADD22RotRect,1.600000X1.200000X193.670000*%
%ADD23RotRect,1.400000X1.400000X193.670000*%
G04 APERTURE END LIST*
D10*
%TO.C,U1*%
X177793681Y-110014982D02*
X177755586Y-110053077D01*
X177641300Y-110091172D01*
X177565110Y-110091172D01*
X177450824Y-110053077D01*
X177374634Y-109976887D01*
X177336538Y-109900696D01*
X177298443Y-109748315D01*
X177298443Y-109634029D01*
X177336538Y-109481648D01*
X177374634Y-109405458D01*
X177450824Y-109329268D01*
X177565110Y-109291172D01*
X177641300Y-109291172D01*
X177755586Y-109329268D01*
X177793681Y-109367363D01*
X178479395Y-109291172D02*
X178327015Y-109291172D01*
X178250824Y-109329268D01*
X178212729Y-109367363D01*
X178136538Y-109481648D01*
X178098443Y-109634029D01*
X178098443Y-109938791D01*
X178136538Y-110014982D01*
X178174634Y-110053077D01*
X178250824Y-110091172D01*
X178403205Y-110091172D01*
X178479395Y-110053077D01*
X178517491Y-110014982D01*
X178555586Y-109938791D01*
X178555586Y-109748315D01*
X178517491Y-109672125D01*
X178479395Y-109634029D01*
X178403205Y-109595934D01*
X178250824Y-109595934D01*
X178174634Y-109634029D01*
X178136538Y-109672125D01*
X178098443Y-109748315D01*
X188582348Y-107132125D02*
X188315681Y-107132125D01*
X188315681Y-107551172D02*
X188315681Y-106751172D01*
X188696634Y-106751172D01*
X189344253Y-106751172D02*
X189191872Y-106751172D01*
X189115681Y-106789268D01*
X189077586Y-106827363D01*
X189001395Y-106941648D01*
X188963300Y-107094029D01*
X188963300Y-107398791D01*
X189001395Y-107474982D01*
X189039491Y-107513077D01*
X189115681Y-107551172D01*
X189268062Y-107551172D01*
X189344253Y-107513077D01*
X189382348Y-107474982D01*
X189420443Y-107398791D01*
X189420443Y-107208315D01*
X189382348Y-107132125D01*
X189344253Y-107094029D01*
X189268062Y-107055934D01*
X189115681Y-107055934D01*
X189039491Y-107094029D01*
X189001395Y-107132125D01*
X188963300Y-107208315D01*
X188587801Y-97323077D02*
X188702087Y-97361172D01*
X188892563Y-97361172D01*
X188968754Y-97323077D01*
X189006849Y-97284982D01*
X189044944Y-97208791D01*
X189044944Y-97132601D01*
X189006849Y-97056410D01*
X188968754Y-97018315D01*
X188892563Y-96980220D01*
X188740182Y-96942125D01*
X188663992Y-96904029D01*
X188625896Y-96865934D01*
X188587801Y-96789744D01*
X188587801Y-96713553D01*
X188625896Y-96637363D01*
X188663992Y-96599268D01*
X188740182Y-96561172D01*
X188930658Y-96561172D01*
X189044944Y-96599268D01*
X189273515Y-96561172D02*
X189730658Y-96561172D01*
X189502087Y-97361172D02*
X189502087Y-96561172D01*
X180257538Y-118681172D02*
X180257538Y-117881172D01*
X180448015Y-117881172D01*
X180562300Y-117919268D01*
X180638491Y-117995458D01*
X180676586Y-118071648D01*
X180714681Y-118224029D01*
X180714681Y-118338315D01*
X180676586Y-118490696D01*
X180638491Y-118566887D01*
X180562300Y-118643077D01*
X180448015Y-118681172D01*
X180257538Y-118681172D01*
X181438491Y-117881172D02*
X181057538Y-117881172D01*
X181019443Y-118262125D01*
X181057538Y-118224029D01*
X181133729Y-118185934D01*
X181324205Y-118185934D01*
X181400395Y-118224029D01*
X181438491Y-118262125D01*
X181476586Y-118338315D01*
X181476586Y-118528791D01*
X181438491Y-118604982D01*
X181400395Y-118643077D01*
X181324205Y-118681172D01*
X181133729Y-118681172D01*
X181057538Y-118643077D01*
X181019443Y-118604982D01*
X177317491Y-99169268D02*
X177241300Y-99131172D01*
X177127015Y-99131172D01*
X177012729Y-99169268D01*
X176936538Y-99245458D01*
X176898443Y-99321648D01*
X176860348Y-99474029D01*
X176860348Y-99588315D01*
X176898443Y-99740696D01*
X176936538Y-99816887D01*
X177012729Y-99893077D01*
X177127015Y-99931172D01*
X177203205Y-99931172D01*
X177317491Y-99893077D01*
X177355586Y-99854982D01*
X177355586Y-99588315D01*
X177203205Y-99588315D01*
X177698443Y-99931172D02*
X177698443Y-99131172D01*
X178155586Y-99931172D01*
X178155586Y-99131172D01*
X178536538Y-99931172D02*
X178536538Y-99131172D01*
X178727015Y-99131172D01*
X178841300Y-99169268D01*
X178917491Y-99245458D01*
X178955586Y-99321648D01*
X178993681Y-99474029D01*
X178993681Y-99588315D01*
X178955586Y-99740696D01*
X178917491Y-99816887D01*
X178841300Y-99893077D01*
X178727015Y-99931172D01*
X178536538Y-99931172D01*
X177153006Y-118854970D02*
X177105866Y-118760689D01*
X177105866Y-118713548D01*
X177129436Y-118642838D01*
X177200147Y-118572127D01*
X177270857Y-118548557D01*
X177317998Y-118548557D01*
X177388708Y-118572127D01*
X177577270Y-118760689D01*
X177082295Y-119255664D01*
X176917304Y-119090672D01*
X176893734Y-119019961D01*
X176893734Y-118972821D01*
X176917304Y-118902110D01*
X176964444Y-118854970D01*
X177035155Y-118831400D01*
X177082295Y-118831400D01*
X177153006Y-118854970D01*
X177317998Y-119019961D01*
X176351618Y-118524987D02*
X176587321Y-118760689D01*
X176846593Y-118548557D01*
X176799453Y-118548557D01*
X176728742Y-118524987D01*
X176610891Y-118407135D01*
X176587321Y-118336425D01*
X176587321Y-118289284D01*
X176610891Y-118218574D01*
X176728742Y-118100723D01*
X176799453Y-118077152D01*
X176846593Y-118077152D01*
X176917304Y-118100723D01*
X177035155Y-118218574D01*
X177058725Y-118289284D01*
X177058725Y-118336425D01*
X188525205Y-91892125D02*
X188639491Y-91930220D01*
X188677586Y-91968315D01*
X188715681Y-92044506D01*
X188715681Y-92158791D01*
X188677586Y-92234982D01*
X188639491Y-92273077D01*
X188563300Y-92311172D01*
X188258538Y-92311172D01*
X188258538Y-91511172D01*
X188525205Y-91511172D01*
X188601395Y-91549268D01*
X188639491Y-91587363D01*
X188677586Y-91663553D01*
X188677586Y-91739744D01*
X188639491Y-91815934D01*
X188601395Y-91854029D01*
X188525205Y-91892125D01*
X188258538Y-91892125D01*
X189210919Y-91511172D02*
X189287110Y-91511172D01*
X189363300Y-91549268D01*
X189401395Y-91587363D01*
X189439491Y-91663553D01*
X189477586Y-91815934D01*
X189477586Y-92006410D01*
X189439491Y-92158791D01*
X189401395Y-92234982D01*
X189363300Y-92273077D01*
X189287110Y-92311172D01*
X189210919Y-92311172D01*
X189134729Y-92273077D01*
X189096634Y-92234982D01*
X189058538Y-92158791D01*
X189020443Y-92006410D01*
X189020443Y-91815934D01*
X189058538Y-91663553D01*
X189096634Y-91587363D01*
X189134729Y-91549268D01*
X189210919Y-91511172D01*
X188239491Y-94089268D02*
X188163300Y-94051172D01*
X188049015Y-94051172D01*
X187934729Y-94089268D01*
X187858538Y-94165458D01*
X187820443Y-94241648D01*
X187782348Y-94394029D01*
X187782348Y-94508315D01*
X187820443Y-94660696D01*
X187858538Y-94736887D01*
X187934729Y-94813077D01*
X188049015Y-94851172D01*
X188125205Y-94851172D01*
X188239491Y-94813077D01*
X188277586Y-94774982D01*
X188277586Y-94508315D01*
X188125205Y-94508315D01*
X188620443Y-94851172D02*
X188620443Y-94051172D01*
X189077586Y-94851172D01*
X189077586Y-94051172D01*
X189458538Y-94851172D02*
X189458538Y-94051172D01*
X189649015Y-94051172D01*
X189763300Y-94089268D01*
X189839491Y-94165458D01*
X189877586Y-94241648D01*
X189915681Y-94394029D01*
X189915681Y-94508315D01*
X189877586Y-94660696D01*
X189839491Y-94736887D01*
X189763300Y-94813077D01*
X189649015Y-94851172D01*
X189458538Y-94851172D01*
X183254681Y-118604982D02*
X183216586Y-118643077D01*
X183102300Y-118681172D01*
X183026110Y-118681172D01*
X182911824Y-118643077D01*
X182835634Y-118566887D01*
X182797538Y-118490696D01*
X182759443Y-118338315D01*
X182759443Y-118224029D01*
X182797538Y-118071648D01*
X182835634Y-117995458D01*
X182911824Y-117919268D01*
X183026110Y-117881172D01*
X183102300Y-117881172D01*
X183216586Y-117919268D01*
X183254681Y-117957363D01*
X183521348Y-117881172D02*
X184054681Y-117881172D01*
X183711824Y-118681172D01*
X187654681Y-118469268D02*
X187421348Y-118469268D01*
X187421348Y-118835934D02*
X187421348Y-118135934D01*
X187754681Y-118135934D01*
X188154681Y-118135934D02*
X188221348Y-118135934D01*
X188288015Y-118169268D01*
X188321348Y-118202601D01*
X188354681Y-118269268D01*
X188388015Y-118402601D01*
X188388015Y-118569268D01*
X188354681Y-118702601D01*
X188321348Y-118769268D01*
X188288015Y-118802601D01*
X188221348Y-118835934D01*
X188154681Y-118835934D01*
X188088015Y-118802601D01*
X188054681Y-118769268D01*
X188021348Y-118702601D01*
X187988015Y-118569268D01*
X187988015Y-118402601D01*
X188021348Y-118269268D01*
X188054681Y-118202601D01*
X188088015Y-118169268D01*
X188154681Y-118135934D01*
X177336538Y-107551172D02*
X177336538Y-106751172D01*
X177527015Y-106751172D01*
X177641300Y-106789268D01*
X177717491Y-106865458D01*
X177755586Y-106941648D01*
X177793681Y-107094029D01*
X177793681Y-107208315D01*
X177755586Y-107360696D01*
X177717491Y-107436887D01*
X177641300Y-107513077D01*
X177527015Y-107551172D01*
X177336538Y-107551172D01*
X178479395Y-107017839D02*
X178479395Y-107551172D01*
X178288919Y-106713077D02*
X178098443Y-107284506D01*
X178593681Y-107284506D01*
X188525205Y-114752125D02*
X188639491Y-114790220D01*
X188677586Y-114828315D01*
X188715681Y-114904506D01*
X188715681Y-115018791D01*
X188677586Y-115094982D01*
X188639491Y-115133077D01*
X188563300Y-115171172D01*
X188258538Y-115171172D01*
X188258538Y-114371172D01*
X188525205Y-114371172D01*
X188601395Y-114409268D01*
X188639491Y-114447363D01*
X188677586Y-114523553D01*
X188677586Y-114599744D01*
X188639491Y-114675934D01*
X188601395Y-114714029D01*
X188525205Y-114752125D01*
X188258538Y-114752125D01*
X188982348Y-114371172D02*
X189477586Y-114371172D01*
X189210919Y-114675934D01*
X189325205Y-114675934D01*
X189401395Y-114714029D01*
X189439491Y-114752125D01*
X189477586Y-114828315D01*
X189477586Y-115018791D01*
X189439491Y-115094982D01*
X189401395Y-115133077D01*
X189325205Y-115171172D01*
X189096634Y-115171172D01*
X189020443Y-115133077D01*
X188982348Y-115094982D01*
X177336538Y-94851172D02*
X177336538Y-94051172D01*
X177527015Y-94051172D01*
X177641300Y-94089268D01*
X177717491Y-94165458D01*
X177755586Y-94241648D01*
X177793681Y-94394029D01*
X177793681Y-94508315D01*
X177755586Y-94660696D01*
X177717491Y-94736887D01*
X177641300Y-94813077D01*
X177527015Y-94851172D01*
X177336538Y-94851172D01*
X178098443Y-94127363D02*
X178136538Y-94089268D01*
X178212729Y-94051172D01*
X178403205Y-94051172D01*
X178479395Y-94089268D01*
X178517491Y-94127363D01*
X178555586Y-94203553D01*
X178555586Y-94279744D01*
X178517491Y-94394029D01*
X178060348Y-94851172D01*
X178555586Y-94851172D01*
X188525205Y-112212125D02*
X188639491Y-112250220D01*
X188677586Y-112288315D01*
X188715681Y-112364506D01*
X188715681Y-112478791D01*
X188677586Y-112554982D01*
X188639491Y-112593077D01*
X188563300Y-112631172D01*
X188258538Y-112631172D01*
X188258538Y-111831172D01*
X188525205Y-111831172D01*
X188601395Y-111869268D01*
X188639491Y-111907363D01*
X188677586Y-111983553D01*
X188677586Y-112059744D01*
X188639491Y-112135934D01*
X188601395Y-112174029D01*
X188525205Y-112212125D01*
X188258538Y-112212125D01*
X189477586Y-112631172D02*
X189020443Y-112631172D01*
X189249015Y-112631172D02*
X189249015Y-111831172D01*
X189172824Y-111945458D01*
X189096634Y-112021648D01*
X189020443Y-112059744D01*
X188582348Y-104592125D02*
X188315681Y-104592125D01*
X188315681Y-105011172D02*
X188315681Y-104211172D01*
X188696634Y-104211172D01*
X189382348Y-104211172D02*
X189001395Y-104211172D01*
X188963300Y-104592125D01*
X189001395Y-104554029D01*
X189077586Y-104515934D01*
X189268062Y-104515934D01*
X189344253Y-104554029D01*
X189382348Y-104592125D01*
X189420443Y-104668315D01*
X189420443Y-104858791D01*
X189382348Y-104934982D01*
X189344253Y-104973077D01*
X189268062Y-105011172D01*
X189077586Y-105011172D01*
X189001395Y-104973077D01*
X188963300Y-104934982D01*
X177336538Y-105011172D02*
X177336538Y-104211172D01*
X177527015Y-104211172D01*
X177641300Y-104249268D01*
X177717491Y-104325458D01*
X177755586Y-104401648D01*
X177793681Y-104554029D01*
X177793681Y-104668315D01*
X177755586Y-104820696D01*
X177717491Y-104896887D01*
X177641300Y-104973077D01*
X177527015Y-105011172D01*
X177336538Y-105011172D01*
X178288919Y-104211172D02*
X178365110Y-104211172D01*
X178441300Y-104249268D01*
X178479395Y-104287363D01*
X178517491Y-104363553D01*
X178555586Y-104515934D01*
X178555586Y-104706410D01*
X178517491Y-104858791D01*
X178479395Y-104934982D01*
X178441300Y-104973077D01*
X178365110Y-105011172D01*
X178288919Y-105011172D01*
X178212729Y-104973077D01*
X178174634Y-104934982D01*
X178136538Y-104858791D01*
X178098443Y-104706410D01*
X178098443Y-104515934D01*
X178136538Y-104363553D01*
X178174634Y-104287363D01*
X178212729Y-104249268D01*
X178288919Y-104211172D01*
X177603205Y-117292125D02*
X177717491Y-117330220D01*
X177755586Y-117368315D01*
X177793681Y-117444506D01*
X177793681Y-117558791D01*
X177755586Y-117634982D01*
X177717491Y-117673077D01*
X177641300Y-117711172D01*
X177336538Y-117711172D01*
X177336538Y-116911172D01*
X177603205Y-116911172D01*
X177679395Y-116949268D01*
X177717491Y-116987363D01*
X177755586Y-117063553D01*
X177755586Y-117139744D01*
X177717491Y-117215934D01*
X177679395Y-117254029D01*
X177603205Y-117292125D01*
X177336538Y-117292125D01*
X178479395Y-117177839D02*
X178479395Y-117711172D01*
X178288919Y-116873077D02*
X178098443Y-117444506D01*
X178593681Y-117444506D01*
X178604681Y-118469268D02*
X178704681Y-118502601D01*
X178738015Y-118535934D01*
X178771348Y-118602601D01*
X178771348Y-118702601D01*
X178738015Y-118769268D01*
X178704681Y-118802601D01*
X178638015Y-118835934D01*
X178371348Y-118835934D01*
X178371348Y-118135934D01*
X178604681Y-118135934D01*
X178671348Y-118169268D01*
X178704681Y-118202601D01*
X178738015Y-118269268D01*
X178738015Y-118335934D01*
X178704681Y-118402601D01*
X178671348Y-118435934D01*
X178604681Y-118469268D01*
X178371348Y-118469268D01*
X179004681Y-118135934D02*
X179471348Y-118135934D01*
X179171348Y-118835934D01*
X177336538Y-102471172D02*
X177336538Y-101671172D01*
X177527015Y-101671172D01*
X177641300Y-101709268D01*
X177717491Y-101785458D01*
X177755586Y-101861648D01*
X177793681Y-102014029D01*
X177793681Y-102128315D01*
X177755586Y-102280696D01*
X177717491Y-102356887D01*
X177641300Y-102433077D01*
X177527015Y-102471172D01*
X177336538Y-102471172D01*
X178555586Y-102471172D02*
X178098443Y-102471172D01*
X178327015Y-102471172D02*
X178327015Y-101671172D01*
X178250824Y-101785458D01*
X178174634Y-101861648D01*
X178098443Y-101899744D01*
X187782348Y-99131172D02*
X188049015Y-99931172D01*
X188315681Y-99131172D01*
X189039491Y-99854982D02*
X189001395Y-99893077D01*
X188887110Y-99931172D01*
X188810919Y-99931172D01*
X188696634Y-99893077D01*
X188620443Y-99816887D01*
X188582348Y-99740696D01*
X188544253Y-99588315D01*
X188544253Y-99474029D01*
X188582348Y-99321648D01*
X188620443Y-99245458D01*
X188696634Y-99169268D01*
X188810919Y-99131172D01*
X188887110Y-99131172D01*
X189001395Y-99169268D01*
X189039491Y-99207363D01*
X189839491Y-99854982D02*
X189801395Y-99893077D01*
X189687110Y-99931172D01*
X189610919Y-99931172D01*
X189496634Y-99893077D01*
X189420443Y-99816887D01*
X189382348Y-99740696D01*
X189344253Y-99588315D01*
X189344253Y-99474029D01*
X189382348Y-99321648D01*
X189420443Y-99245458D01*
X189496634Y-99169268D01*
X189610919Y-99131172D01*
X189687110Y-99131172D01*
X189801395Y-99169268D01*
X189839491Y-99207363D01*
X185661348Y-118262125D02*
X185394681Y-118262125D01*
X185394681Y-118681172D02*
X185394681Y-117881172D01*
X185775634Y-117881172D01*
X186499443Y-118681172D02*
X186042300Y-118681172D01*
X186270872Y-118681172D02*
X186270872Y-117881172D01*
X186194681Y-117995458D01*
X186118491Y-118071648D01*
X186042300Y-118109744D01*
X189552312Y-118784259D02*
X189646593Y-118737119D01*
X189693734Y-118737119D01*
X189764444Y-118760689D01*
X189835155Y-118831400D01*
X189858725Y-118902110D01*
X189858725Y-118949251D01*
X189835155Y-119019961D01*
X189646593Y-119208523D01*
X189151618Y-118713548D01*
X189316610Y-118548557D01*
X189387321Y-118524987D01*
X189434461Y-118524987D01*
X189505172Y-118548557D01*
X189552312Y-118595697D01*
X189575882Y-118666408D01*
X189575882Y-118713548D01*
X189552312Y-118784259D01*
X189387321Y-118949251D01*
X189858725Y-118006442D02*
X189764444Y-118100723D01*
X189740874Y-118171433D01*
X189740874Y-118218574D01*
X189764444Y-118336425D01*
X189835155Y-118454276D01*
X190023717Y-118642838D01*
X190094427Y-118666408D01*
X190141568Y-118666408D01*
X190212279Y-118642838D01*
X190306559Y-118548557D01*
X190330130Y-118477846D01*
X190330130Y-118430706D01*
X190306559Y-118359995D01*
X190188708Y-118242144D01*
X190117998Y-118218574D01*
X190070857Y-118218574D01*
X190000147Y-118242144D01*
X189905866Y-118336425D01*
X189882295Y-118407135D01*
X189882295Y-118454276D01*
X189905866Y-118524987D01*
X177336538Y-112631172D02*
X177336538Y-111831172D01*
X177527015Y-111831172D01*
X177641300Y-111869268D01*
X177717491Y-111945458D01*
X177755586Y-112021648D01*
X177793681Y-112174029D01*
X177793681Y-112288315D01*
X177755586Y-112440696D01*
X177717491Y-112516887D01*
X177641300Y-112593077D01*
X177527015Y-112631172D01*
X177336538Y-112631172D01*
X178060348Y-111831172D02*
X178593681Y-111831172D01*
X178250824Y-112631172D01*
X177374634Y-114752125D02*
X177641300Y-114752125D01*
X177755586Y-115171172D02*
X177374634Y-115171172D01*
X177374634Y-114371172D01*
X177755586Y-114371172D01*
X178441300Y-114371172D02*
X178288919Y-114371172D01*
X178212729Y-114409268D01*
X178174634Y-114447363D01*
X178098443Y-114561648D01*
X178060348Y-114714029D01*
X178060348Y-115018791D01*
X178098443Y-115094982D01*
X178136538Y-115133077D01*
X178212729Y-115171172D01*
X178365110Y-115171172D01*
X178441300Y-115133077D01*
X178479395Y-115094982D01*
X178517491Y-115018791D01*
X178517491Y-114828315D01*
X178479395Y-114752125D01*
X178441300Y-114714029D01*
X178365110Y-114675934D01*
X178212729Y-114675934D01*
X178136538Y-114714029D01*
X178098443Y-114752125D01*
X178060348Y-114828315D01*
X188525205Y-117292125D02*
X188639491Y-117330220D01*
X188677586Y-117368315D01*
X188715681Y-117444506D01*
X188715681Y-117558791D01*
X188677586Y-117634982D01*
X188639491Y-117673077D01*
X188563300Y-117711172D01*
X188258538Y-117711172D01*
X188258538Y-116911172D01*
X188525205Y-116911172D01*
X188601395Y-116949268D01*
X188639491Y-116987363D01*
X188677586Y-117063553D01*
X188677586Y-117139744D01*
X188639491Y-117215934D01*
X188601395Y-117254029D01*
X188525205Y-117292125D01*
X188258538Y-117292125D01*
X189020443Y-116987363D02*
X189058538Y-116949268D01*
X189134729Y-116911172D01*
X189325205Y-116911172D01*
X189401395Y-116949268D01*
X189439491Y-116987363D01*
X189477586Y-117063553D01*
X189477586Y-117139744D01*
X189439491Y-117254029D01*
X188982348Y-117711172D01*
X189477586Y-117711172D01*
X188582348Y-109672125D02*
X188315681Y-109672125D01*
X188315681Y-110091172D02*
X188315681Y-109291172D01*
X188696634Y-109291172D01*
X188925205Y-109291172D02*
X189458538Y-109291172D01*
X189115681Y-110091172D01*
X177625666Y-91511172D02*
X178082809Y-91511172D01*
X177854238Y-92311172D02*
X177854238Y-91511172D01*
X178273285Y-91511172D02*
X178806619Y-92311172D01*
X178806619Y-91511172D02*
X178273285Y-92311172D01*
X179263762Y-91511172D02*
X179339952Y-91511172D01*
X179416143Y-91549268D01*
X179454238Y-91587363D01*
X179492333Y-91663553D01*
X179530428Y-91815934D01*
X179530428Y-92006410D01*
X179492333Y-92158791D01*
X179454238Y-92234982D01*
X179416143Y-92273077D01*
X179339952Y-92311172D01*
X179263762Y-92311172D01*
X179187571Y-92273077D01*
X179149476Y-92234982D01*
X179111381Y-92158791D01*
X179073285Y-92006410D01*
X179073285Y-91815934D01*
X179111381Y-91663553D01*
X179149476Y-91587363D01*
X179187571Y-91549268D01*
X179263762Y-91511172D01*
X180444714Y-91473077D02*
X179759000Y-92501648D01*
X180711381Y-92311172D02*
X180711381Y-91511172D01*
X180901857Y-91511172D01*
X181016143Y-91549268D01*
X181092333Y-91625458D01*
X181130428Y-91701648D01*
X181168523Y-91854029D01*
X181168523Y-91968315D01*
X181130428Y-92120696D01*
X181092333Y-92196887D01*
X181016143Y-92273077D01*
X180901857Y-92311172D01*
X180711381Y-92311172D01*
X181435190Y-91511172D02*
X181930428Y-91511172D01*
X181663762Y-91815934D01*
X181778047Y-91815934D01*
X181854238Y-91854029D01*
X181892333Y-91892125D01*
X181930428Y-91968315D01*
X181930428Y-92158791D01*
X181892333Y-92234982D01*
X181854238Y-92273077D01*
X181778047Y-92311172D01*
X181549476Y-92311172D01*
X181473285Y-92273077D01*
X181435190Y-92234982D01*
X177317491Y-96629268D02*
X177241300Y-96591172D01*
X177127015Y-96591172D01*
X177012729Y-96629268D01*
X176936538Y-96705458D01*
X176898443Y-96781648D01*
X176860348Y-96934029D01*
X176860348Y-97048315D01*
X176898443Y-97200696D01*
X176936538Y-97276887D01*
X177012729Y-97353077D01*
X177127015Y-97391172D01*
X177203205Y-97391172D01*
X177317491Y-97353077D01*
X177355586Y-97314982D01*
X177355586Y-97048315D01*
X177203205Y-97048315D01*
X177698443Y-97391172D02*
X177698443Y-96591172D01*
X178155586Y-97391172D01*
X178155586Y-96591172D01*
X178536538Y-97391172D02*
X178536538Y-96591172D01*
X178727015Y-96591172D01*
X178841300Y-96629268D01*
X178917491Y-96705458D01*
X178955586Y-96781648D01*
X178993681Y-96934029D01*
X178993681Y-97048315D01*
X178955586Y-97200696D01*
X178917491Y-97276887D01*
X178841300Y-97353077D01*
X178727015Y-97391172D01*
X178536538Y-97391172D01*
X188582348Y-102052125D02*
X188315681Y-102052125D01*
X188315681Y-102471172D02*
X188315681Y-101671172D01*
X188696634Y-101671172D01*
X189344253Y-101937839D02*
X189344253Y-102471172D01*
X189153776Y-101633077D02*
X188963300Y-102204506D01*
X189458538Y-102204506D01*
%TO.C,*%
%TO.C,SW1*%
X196987591Y-54012527D02*
X196598709Y-53580509D01*
X196420422Y-54082167D02*
X196298552Y-53089621D01*
X196676665Y-53043194D01*
X196776996Y-53078852D01*
X196830064Y-53120313D01*
X196888935Y-53209037D01*
X196906345Y-53350830D01*
X196870687Y-53451161D01*
X196829226Y-53504229D01*
X196740501Y-53563099D01*
X196362388Y-53609526D01*
X197349131Y-53440392D02*
X197679980Y-53399769D01*
X197885609Y-53902264D02*
X197412968Y-53960297D01*
X197291098Y-52967751D01*
X197763739Y-52909718D01*
X198257918Y-53808574D02*
X198405514Y-53838428D01*
X198641834Y-53809412D01*
X198730559Y-53750541D01*
X198772020Y-53697474D01*
X198807678Y-53597142D01*
X198796071Y-53502614D01*
X198737200Y-53413889D01*
X198684133Y-53372428D01*
X198583801Y-53336771D01*
X198388942Y-53312720D01*
X198288610Y-53277062D01*
X198235543Y-53235601D01*
X198176672Y-53146876D01*
X198165065Y-53052348D01*
X198200723Y-52952017D01*
X198242184Y-52898949D01*
X198330909Y-52840079D01*
X198567229Y-52811062D01*
X198714825Y-52840916D01*
X199192431Y-53214064D02*
X199523280Y-53173440D01*
X199728909Y-53675936D02*
X199256268Y-53733969D01*
X199134398Y-52741423D01*
X199607039Y-52683390D01*
X199890624Y-52648570D02*
X200457793Y-52578930D01*
X200296078Y-53606296D02*
X200174209Y-52613750D01*
%TO.C,U1*%
X188319583Y-97158628D02*
X188319583Y-97358628D01*
X188319583Y-97358628D02*
X188219583Y-97358628D01*
X188219583Y-97358628D02*
X188219583Y-97158628D01*
X188219583Y-97158628D02*
X188319583Y-97158628D01*
G36*
X188319583Y-97358628D02*
G01*
X188219583Y-97358628D01*
X188219583Y-97158628D01*
X188319583Y-97158628D01*
X188319583Y-97358628D01*
G37*
X188319583Y-97358628D02*
X188219583Y-97358628D01*
X188219583Y-97158628D01*
X188319583Y-97158628D01*
X188319583Y-97358628D01*
X187919583Y-96558628D02*
X187919583Y-97358628D01*
X187919583Y-97358628D02*
X187819583Y-97358628D01*
X187819583Y-97358628D02*
X187819583Y-96558628D01*
X187819583Y-96558628D02*
X187919583Y-96558628D01*
G36*
X187919583Y-97358628D02*
G01*
X187819583Y-97358628D01*
X187819583Y-96558628D01*
X187919583Y-96558628D01*
X187919583Y-97358628D01*
G37*
X187919583Y-97358628D02*
X187819583Y-97358628D01*
X187819583Y-96558628D01*
X187919583Y-96558628D01*
X187919583Y-97358628D01*
X188119583Y-96958628D02*
X188119583Y-97058628D01*
X188119583Y-97058628D02*
X188019583Y-97058628D01*
X188019583Y-97058628D02*
X188019583Y-96958628D01*
X188019583Y-96958628D02*
X188119583Y-96958628D01*
G36*
X188119583Y-97058628D02*
G01*
X188019583Y-97058628D01*
X188019583Y-96958628D01*
X188119583Y-96958628D01*
X188119583Y-97058628D01*
G37*
X188119583Y-97058628D02*
X188019583Y-97058628D01*
X188019583Y-96958628D01*
X188119583Y-96958628D01*
X188119583Y-97058628D01*
X188319583Y-96558628D02*
X188319583Y-96858628D01*
X188319583Y-96858628D02*
X188219583Y-96858628D01*
X188219583Y-96858628D02*
X188219583Y-96558628D01*
X188219583Y-96558628D02*
X188319583Y-96558628D01*
G36*
X188319583Y-96858628D02*
G01*
X188219583Y-96858628D01*
X188219583Y-96558628D01*
X188319583Y-96558628D01*
X188319583Y-96858628D01*
G37*
X188319583Y-96858628D02*
X188219583Y-96858628D01*
X188219583Y-96558628D01*
X188319583Y-96558628D01*
X188319583Y-96858628D01*
X188319583Y-96558628D02*
X188319583Y-96658628D01*
X188319583Y-96658628D02*
X187819583Y-96658628D01*
X187819583Y-96658628D02*
X187819583Y-96558628D01*
X187819583Y-96558628D02*
X188319583Y-96558628D01*
G36*
X188319583Y-96658628D02*
G01*
X187819583Y-96658628D01*
X187819583Y-96558628D01*
X188319583Y-96558628D01*
X188319583Y-96658628D01*
G37*
X188319583Y-96658628D02*
X187819583Y-96658628D01*
X187819583Y-96558628D01*
X188319583Y-96558628D01*
X188319583Y-96658628D01*
D11*
X192278015Y-90679268D02*
X192278015Y-88139268D01*
X174498015Y-90679268D02*
X174498015Y-121159268D01*
X192278015Y-121159268D02*
X192278015Y-90679268D01*
X177038015Y-93219268D02*
X174498015Y-93219268D01*
X174498015Y-121159268D02*
X192278015Y-121159268D01*
X177038015Y-90679268D02*
X174498015Y-90679268D01*
X192278015Y-88139268D02*
X174498015Y-88139268D01*
X177038015Y-90679268D02*
X177038015Y-93219268D01*
X174498015Y-88139268D02*
X174498015Y-90679268D01*
D10*
%TO.C,SW1*%
X201397762Y-54627264D02*
X201367295Y-54379128D01*
X195740249Y-55321919D02*
X195709782Y-55073783D01*
X195350268Y-52145772D02*
X195380735Y-52393908D01*
X195350268Y-52145772D02*
X201007781Y-51451117D01*
X195740249Y-55321919D02*
X201397762Y-54627264D01*
X201007781Y-51451117D02*
X201038248Y-51699253D01*
D12*
%TO.C,D28*%
X160119373Y-141503971D02*
X159741246Y-143058648D01*
X159929532Y-142281121D02*
X158514061Y-142811631D01*
X158915821Y-141159787D02*
X158514061Y-142811631D01*
X159930309Y-142281310D02*
X160318978Y-142375842D01*
X159929532Y-142281121D02*
X158915821Y-141159787D01*
%TO.C,D11*%
X150175054Y-76751084D02*
X148759583Y-77281594D01*
X150175054Y-76751084D02*
X149161343Y-75629750D01*
X150364895Y-75973934D02*
X149986768Y-77528611D01*
X149161343Y-75629750D02*
X148759583Y-77281594D01*
X150175831Y-76751273D02*
X150564500Y-76845805D01*
%TO.C,D54*%
X215498786Y-146615854D02*
X215876913Y-148170531D01*
X215687072Y-147393381D02*
X214673361Y-148514715D01*
X215687072Y-147393381D02*
X214271601Y-146862871D01*
X214271601Y-146862871D02*
X214673361Y-148514715D01*
X215687849Y-147393192D02*
X216076518Y-147298660D01*
%TO.C,D40*%
X300662135Y-61272490D02*
X299246664Y-60741980D01*
X300662135Y-61272490D02*
X299648424Y-62393824D01*
X300662912Y-61272301D02*
X301051581Y-61177769D01*
X300473849Y-60494963D02*
X300851976Y-62049640D01*
X299246664Y-60741980D02*
X299648424Y-62393824D01*
%TO.C,D24*%
X159017624Y-120465133D02*
X158003913Y-119343799D01*
X159017624Y-120465133D02*
X157602153Y-120995643D01*
X159018401Y-120465322D02*
X159407070Y-120559854D01*
X159207465Y-119687983D02*
X158829338Y-121242660D01*
X158003913Y-119343799D02*
X157602153Y-120995643D01*
%TO.C,D29*%
X206909725Y-78846768D02*
X205494254Y-78316258D01*
X206721439Y-78069241D02*
X207099566Y-79623918D01*
X205494254Y-78316258D02*
X205896014Y-79968102D01*
X206909725Y-78846768D02*
X205896014Y-79968102D01*
X206910502Y-78846579D02*
X207299171Y-78752047D01*
%TO.C,D8*%
X93504193Y-67934342D02*
X93892862Y-68028874D01*
X93693257Y-67157003D02*
X93315130Y-68711680D01*
X92489705Y-66812819D02*
X92087945Y-68464663D01*
X93503416Y-67934153D02*
X92087945Y-68464663D01*
X93503416Y-67934153D02*
X92489705Y-66812819D01*
%TO.C,D37*%
X243261960Y-67090653D02*
X243640087Y-68645330D01*
X243450246Y-67868180D02*
X242034775Y-67337670D01*
X242034775Y-67337670D02*
X242436535Y-68989514D01*
X243450246Y-67868180D02*
X242436535Y-68989514D01*
X243451023Y-67867991D02*
X243839692Y-67773459D01*
%TO.C,D43*%
X250191843Y-101950387D02*
X250593603Y-103602231D01*
X251607314Y-102480897D02*
X250593603Y-103602231D01*
X251419028Y-101703370D02*
X251797155Y-103258047D01*
X251608091Y-102480708D02*
X251996760Y-102386176D01*
X251607314Y-102480897D02*
X250191843Y-101950387D01*
%TO.C,D49*%
X252208368Y-104948760D02*
X252597037Y-104854228D01*
X250792120Y-104418439D02*
X251193880Y-106070283D01*
X252019305Y-104171422D02*
X252397432Y-105726099D01*
X252207591Y-104948949D02*
X250792120Y-104418439D01*
X252207591Y-104948949D02*
X251193880Y-106070283D01*
%TO.C,D12*%
X167131464Y-82353068D02*
X166729704Y-84004912D01*
X168145952Y-83474591D02*
X168534621Y-83569123D01*
X168145175Y-83474402D02*
X166729704Y-84004912D01*
X168335016Y-82697252D02*
X167956889Y-84251929D01*
X168145175Y-83474402D02*
X167131464Y-82353068D01*
%TO.C,D47*%
X216514930Y-118335370D02*
X216903599Y-118240838D01*
X216514153Y-118335559D02*
X215500442Y-119456893D01*
X216514153Y-118335559D02*
X215098682Y-117805049D01*
X216325867Y-117558032D02*
X216703994Y-119112709D01*
X215098682Y-117805049D02*
X215500442Y-119456893D01*
%TO.C,D23*%
X159617899Y-117997085D02*
X158604188Y-116875751D01*
X159807740Y-117219935D02*
X159429613Y-118774612D01*
X159618676Y-117997274D02*
X160007345Y-118091806D01*
X158604188Y-116875751D02*
X158202428Y-118527595D01*
X159617899Y-117997085D02*
X158202428Y-118527595D01*
%TO.C,D39*%
X281963474Y-64997039D02*
X282341601Y-66551716D01*
X282151760Y-65774566D02*
X280736289Y-65244056D01*
X280736289Y-65244056D02*
X281138049Y-66895900D01*
X282151760Y-65774566D02*
X281138049Y-66895900D01*
X282152537Y-65774377D02*
X282541206Y-65679845D01*
%TO.C,D55*%
X230499974Y-136068626D02*
X230878101Y-137623303D01*
X229272789Y-136315643D02*
X229674549Y-137967487D01*
X230688260Y-136846153D02*
X229272789Y-136315643D01*
X230689037Y-136845964D02*
X231077706Y-136751432D01*
X230688260Y-136846153D02*
X229674549Y-137967487D01*
%TO.C,D50*%
X271444989Y-102361281D02*
X270029518Y-101830771D01*
X270029518Y-101830771D02*
X270431278Y-103482615D01*
X271444989Y-102361281D02*
X270431278Y-103482615D01*
X271256703Y-101583754D02*
X271634830Y-103138431D01*
X271445766Y-102361092D02*
X271834435Y-102266560D01*
%TO.C,D16*%
X84252461Y-104894866D02*
X82836990Y-105425376D01*
X83238750Y-103773532D02*
X82836990Y-105425376D01*
X84252461Y-104894866D02*
X83238750Y-103773532D01*
X84442302Y-104117716D02*
X84064175Y-105672393D01*
X84253238Y-104895055D02*
X84641907Y-104989587D01*
%TO.C,D30*%
X224691561Y-71345921D02*
X225069688Y-72900598D01*
X224879847Y-72123448D02*
X223866136Y-73244782D01*
X224879847Y-72123448D02*
X223464376Y-71592938D01*
X223464376Y-71592938D02*
X223866136Y-73244782D01*
X224880624Y-72123259D02*
X225269293Y-72028727D01*
%TO.C,D31*%
X242849971Y-65400126D02*
X241836260Y-66521460D01*
X242661685Y-64622599D02*
X243039812Y-66177276D01*
X242849971Y-65400126D02*
X241434500Y-64869616D01*
X241434500Y-64869616D02*
X241836260Y-66521460D01*
X242850748Y-65399937D02*
X243239417Y-65305405D01*
%TO.C,D27*%
X153494947Y-147003819D02*
X153093187Y-148655663D01*
X154508658Y-148125153D02*
X153093187Y-148655663D01*
X154698499Y-147348003D02*
X154320372Y-148902680D01*
X154509435Y-148125342D02*
X154898104Y-148219874D01*
X154508658Y-148125153D02*
X153494947Y-147003819D01*
%TO.C,D26*%
X144720113Y-138945710D02*
X143304642Y-139476220D01*
X144720113Y-138945710D02*
X143706402Y-137824376D01*
X144909954Y-138168560D02*
X144531827Y-139723237D01*
X144720890Y-138945899D02*
X145109559Y-139040431D01*
X143706402Y-137824376D02*
X143304642Y-139476220D01*
%TO.C,D44*%
X269489270Y-99609530D02*
X269891030Y-101261374D01*
X270904741Y-100140040D02*
X269891030Y-101261374D01*
X270905518Y-100139851D02*
X271294187Y-100045319D01*
X270716455Y-99362513D02*
X271094582Y-100917190D01*
X270904741Y-100140040D02*
X269489270Y-99609530D01*
%TO.C,D41*%
X214498405Y-115337001D02*
X214900165Y-116988845D01*
X215725590Y-115089984D02*
X216103717Y-116644661D01*
X215914653Y-115867322D02*
X216303322Y-115772790D01*
X215913876Y-115867511D02*
X214900165Y-116988845D01*
X215913876Y-115867511D02*
X214498405Y-115337001D01*
%TO.C,D25*%
X125736281Y-131101058D02*
X125334521Y-132752902D01*
X126939833Y-131445242D02*
X126561706Y-132999919D01*
X126750769Y-132222581D02*
X127139438Y-132317113D01*
X126749992Y-132222392D02*
X125334521Y-132752902D01*
X126749992Y-132222392D02*
X125736281Y-131101058D01*
%TO.C,D42*%
X233883999Y-109144191D02*
X232468528Y-108613681D01*
X232468528Y-108613681D02*
X232870288Y-110265525D01*
X233884776Y-109144002D02*
X234273445Y-109049470D01*
X233695713Y-108366664D02*
X234073840Y-109921341D01*
X233883999Y-109144191D02*
X232870288Y-110265525D01*
%TO.C,D33*%
X281551485Y-63306517D02*
X280537774Y-64427851D01*
X281552262Y-63306328D02*
X281940931Y-63211796D01*
X281551485Y-63306517D02*
X280136014Y-62776007D01*
X281363199Y-62528990D02*
X281741326Y-64083667D01*
X280136014Y-62776007D02*
X280537774Y-64427851D01*
%TO.C,D10*%
X132081531Y-69997750D02*
X130666060Y-70528260D01*
X131067820Y-68876416D02*
X130666060Y-70528260D01*
X132081531Y-69997750D02*
X131067820Y-68876416D01*
X132082308Y-69997939D02*
X132470977Y-70092471D01*
X132271372Y-69220600D02*
X131893245Y-70775277D01*
%TO.C,D56*%
X248658381Y-130122828D02*
X247644670Y-131244162D01*
X247242910Y-129592318D02*
X247644670Y-131244162D01*
X248658381Y-130122828D02*
X247242910Y-129592318D01*
X248659158Y-130122639D02*
X249047827Y-130028107D01*
X248470095Y-129345301D02*
X248848222Y-130899978D01*
%TO.C,D38*%
X262500866Y-65587348D02*
X261085395Y-65056838D01*
X262501643Y-65587159D02*
X262890312Y-65492627D01*
X262500866Y-65587348D02*
X261487155Y-66708682D01*
X262312580Y-64809821D02*
X262690707Y-66364498D01*
X261085395Y-65056838D02*
X261487155Y-66708682D01*
%TO.C,D6*%
X167731741Y-79885021D02*
X167329981Y-81536865D01*
X168745452Y-81006355D02*
X167329981Y-81536865D01*
X168745452Y-81006355D02*
X167731741Y-79885021D01*
X168746229Y-81006544D02*
X169134898Y-81101076D01*
X168935293Y-80229205D02*
X168557166Y-81783882D01*
%TO.C,D17*%
X104503634Y-102239599D02*
X103489923Y-101118265D01*
X104503634Y-102239599D02*
X103088163Y-102770109D01*
X103489923Y-101118265D02*
X103088163Y-102770109D01*
X104693475Y-101462449D02*
X104315348Y-103017126D01*
X104504411Y-102239788D02*
X104893080Y-102334320D01*
%TO.C,D48*%
X233068802Y-111081729D02*
X233470562Y-112733573D01*
X234484273Y-111612239D02*
X233068802Y-111081729D01*
X234295987Y-110834712D02*
X234674114Y-112389389D01*
X234485050Y-111612050D02*
X234873719Y-111517518D01*
X234484273Y-111612239D02*
X233470562Y-112733573D01*
%TO.C,D2*%
X94293533Y-64688955D02*
X93915406Y-66243632D01*
X94103692Y-65466105D02*
X93089981Y-64344771D01*
X93089981Y-64344771D02*
X92688221Y-65996615D01*
X94103692Y-65466105D02*
X92688221Y-65996615D01*
X94104469Y-65466294D02*
X94493138Y-65560826D01*
%TO.C,D51*%
X289740441Y-102264798D02*
X290142201Y-103916642D01*
X291155912Y-102795308D02*
X289740441Y-102264798D01*
X291155912Y-102795308D02*
X290142201Y-103916642D01*
X290967626Y-102017781D02*
X291345753Y-103572458D01*
X291156689Y-102795119D02*
X291545358Y-102700587D01*
%TO.C,D22*%
X141113940Y-112934649D02*
X140735813Y-114489326D01*
X139910388Y-112590465D02*
X139508628Y-114242309D01*
X140924099Y-113711799D02*
X139508628Y-114242309D01*
X140924876Y-113711988D02*
X141313545Y-113806520D01*
X140924099Y-113711799D02*
X139910388Y-112590465D01*
%TO.C,D9*%
X113154313Y-67746933D02*
X112140602Y-66625599D01*
X113344154Y-66969783D02*
X112966027Y-68524460D01*
X113154313Y-67746933D02*
X111738842Y-68277443D01*
X113155090Y-67747122D02*
X113543759Y-67841654D01*
X112140602Y-66625599D02*
X111738842Y-68277443D01*
%TO.C,D36*%
X225291838Y-73813973D02*
X225669965Y-75368650D01*
X225480124Y-74591500D02*
X224466413Y-75712834D01*
X225480901Y-74591311D02*
X225869570Y-74496779D01*
X225480124Y-74591500D02*
X224064653Y-74060990D01*
X224064653Y-74060990D02*
X224466413Y-75712834D01*
%TO.C,D46*%
X309066009Y-95825184D02*
X308052298Y-96946518D01*
X309066786Y-95824995D02*
X309455455Y-95730463D01*
X307650538Y-95294674D02*
X308052298Y-96946518D01*
X309066009Y-95825184D02*
X307650538Y-95294674D01*
X308877723Y-95047657D02*
X309255850Y-96602334D01*
%TO.C,D1*%
X75594099Y-60964219D02*
X75982768Y-61058751D01*
X75593322Y-60964030D02*
X74579611Y-59842696D01*
X74579611Y-59842696D02*
X74177851Y-61494540D01*
X75593322Y-60964030D02*
X74177851Y-61494540D01*
X75783163Y-60186880D02*
X75405036Y-61741557D01*
%TO.C,D34*%
X300062632Y-58804253D02*
X300451301Y-58709721D01*
X300061855Y-58804442D02*
X299048144Y-59925776D01*
X299873569Y-58026915D02*
X300251696Y-59581592D01*
X300061855Y-58804442D02*
X298646384Y-58273932D01*
X298646384Y-58273932D02*
X299048144Y-59925776D01*
%TO.C,D21*%
X140510664Y-110122415D02*
X140108904Y-111774259D01*
X141714216Y-110466599D02*
X141336089Y-112021276D01*
X141524375Y-111243749D02*
X140510664Y-110122415D01*
X141524375Y-111243749D02*
X140108904Y-111774259D01*
X141525152Y-111243938D02*
X141913821Y-111338470D01*
%TO.C,D20*%
X123143816Y-106211327D02*
X122765689Y-107766004D01*
X122953975Y-106988477D02*
X121538504Y-107518987D01*
X122953975Y-106988477D02*
X121940264Y-105867143D01*
X122954752Y-106988666D02*
X123343421Y-107083198D01*
X121940264Y-105867143D02*
X121538504Y-107518987D01*
%TO.C,D45*%
X290556414Y-100327071D02*
X290945083Y-100232539D01*
X290367351Y-99549733D02*
X290745478Y-101104410D01*
X290555637Y-100327260D02*
X289541926Y-101448594D01*
X289140166Y-99796750D02*
X289541926Y-101448594D01*
X290555637Y-100327260D02*
X289140166Y-99796750D01*
%TO.C,D3*%
X113754589Y-65278885D02*
X112740878Y-64157551D01*
X113944430Y-64501735D02*
X113566303Y-66056412D01*
X113755366Y-65279074D02*
X114144035Y-65373606D01*
X112740878Y-64157551D02*
X112339118Y-65809395D01*
X113754589Y-65278885D02*
X112339118Y-65809395D01*
%TO.C,D14*%
X65742090Y-100392790D02*
X64728379Y-99271456D01*
X65742090Y-100392790D02*
X64326619Y-100923300D01*
X65742867Y-100392979D02*
X66131536Y-100487511D01*
X65931931Y-99615640D02*
X65553804Y-101170317D01*
X64728379Y-99271456D02*
X64326619Y-100923300D01*
%TO.C,D32*%
X261901365Y-63119109D02*
X262290034Y-63024577D01*
X261900588Y-63119298D02*
X260485117Y-62588788D01*
X261900588Y-63119298D02*
X260886877Y-64240632D01*
X261712302Y-62341771D02*
X262090429Y-63896448D01*
X260485117Y-62588788D02*
X260886877Y-64240632D01*
%TO.C,D52*%
X309666281Y-98293234D02*
X308652570Y-99414568D01*
X309666281Y-98293234D02*
X308250810Y-97762724D01*
X309477995Y-97515707D02*
X309856122Y-99070384D01*
X308250810Y-97762724D02*
X308652570Y-99414568D01*
X309667058Y-98293045D02*
X310055727Y-98198513D01*
%TO.C,D19*%
X123744095Y-103743280D02*
X123365968Y-105297957D01*
X123554254Y-104520430D02*
X122138783Y-105050940D01*
X123554254Y-104520430D02*
X122540543Y-103399096D01*
X122540543Y-103399096D02*
X122138783Y-105050940D01*
X123555031Y-104520619D02*
X123943700Y-104615151D01*
%TO.C,D13*%
X66342368Y-97924743D02*
X65328657Y-96803409D01*
X65328657Y-96803409D02*
X64926897Y-98455253D01*
X66342368Y-97924743D02*
X64926897Y-98455253D01*
X66343145Y-97924932D02*
X66731814Y-98019464D01*
X66532209Y-97147593D02*
X66154082Y-98702270D01*
%TO.C,D53*%
X209234279Y-140768710D02*
X209636039Y-142420554D01*
X210650527Y-141299031D02*
X211039196Y-141204499D01*
X210649750Y-141299220D02*
X209636039Y-142420554D01*
X210461464Y-140521693D02*
X210839591Y-142076370D01*
X210649750Y-141299220D02*
X209234279Y-140768710D01*
%TO.C,D5*%
X150965171Y-73505886D02*
X150587044Y-75060563D01*
X150775330Y-74283036D02*
X149359859Y-74813546D01*
X150775330Y-74283036D02*
X149761619Y-73161702D01*
X150776107Y-74283225D02*
X151164776Y-74377757D01*
X149761619Y-73161702D02*
X149359859Y-74813546D01*
%TO.C,D18*%
X102889647Y-103586313D02*
X102487887Y-105238157D01*
X103903358Y-104707647D02*
X102487887Y-105238157D01*
X103903358Y-104707647D02*
X102889647Y-103586313D01*
X104093199Y-103930497D02*
X103715072Y-105485174D01*
X103904135Y-104707836D02*
X104292804Y-104802368D01*
%TO.C,D15*%
X83839028Y-101305482D02*
X83437268Y-102957326D01*
X84853516Y-102427005D02*
X85242185Y-102521537D01*
X84852739Y-102426816D02*
X83437268Y-102957326D01*
X85042580Y-101649666D02*
X84664453Y-103204343D01*
X84852739Y-102426816D02*
X83839028Y-101305482D01*
%TO.C,D4*%
X132682584Y-67529890D02*
X133071253Y-67624422D01*
X132681807Y-67529701D02*
X131266336Y-68060211D01*
X131668096Y-66408367D02*
X131266336Y-68060211D01*
X132871648Y-66752551D02*
X132493521Y-68307228D01*
X132681807Y-67529701D02*
X131668096Y-66408367D01*
%TO.C,D7*%
X75182887Y-62654929D02*
X74804760Y-64209606D01*
X74993823Y-63432268D02*
X75382492Y-63526800D01*
X74993046Y-63432079D02*
X73577575Y-63962589D01*
X73979335Y-62310745D02*
X73577575Y-63962589D01*
X74993046Y-63432079D02*
X73979335Y-62310745D01*
%TO.C,D35*%
X207510003Y-81314819D02*
X206094532Y-80784309D01*
X207321717Y-80537292D02*
X207699844Y-82091969D01*
X207510003Y-81314819D02*
X206496292Y-82436153D01*
X206094532Y-80784309D02*
X206496292Y-82436153D01*
X207510780Y-81314630D02*
X207899449Y-81220098D01*
%TD*%
D13*
%TO.C,U1*%
X188468015Y-119889268D03*
X185928015Y-119889268D03*
X183388015Y-119889268D03*
X180848015Y-119889268D03*
X178308015Y-119889268D03*
X191008015Y-91949268D03*
X191008015Y-94489268D03*
X191008015Y-97029268D03*
X191008015Y-99569268D03*
X191008015Y-102109268D03*
X191008015Y-104649268D03*
X191008015Y-107189268D03*
X191008015Y-109729268D03*
X191008015Y-112269268D03*
X191008015Y-114809268D03*
X191008015Y-117349268D03*
X191008015Y-119889268D03*
X175768015Y-119889268D03*
X175768015Y-117349268D03*
X175768015Y-114809268D03*
X175768015Y-112269268D03*
X175768015Y-109729268D03*
X175768015Y-107189268D03*
X175768015Y-104649268D03*
X175768015Y-102109268D03*
X175768015Y-99569268D03*
X175768015Y-97029268D03*
X175768015Y-94489268D03*
D14*
X175768015Y-91949268D03*
%TD*%
%LPC*%
D15*
%TO.C,REF\u002A\u002A*%
X205841618Y-56205916D03*
%TD*%
%TO.C,REF\u002A\u002A*%
X261797818Y-149931917D03*
%TD*%
%TO.C,REF\u002A\u002A*%
X321259218Y-116099118D03*
%TD*%
%TO.C,REF\u002A\u002A*%
X302564819Y-38044917D03*
%TD*%
%TO.C,REF\u002A\u002A*%
X246329217Y-41143718D03*
%TD*%
%TO.C,REF\u002A\u002A*%
X160961898Y-56169172D03*
%TD*%
%TO.C,REF\u002A\u002A*%
X120446818Y-41143716D03*
%TD*%
%TO.C,REF\u002A\u002A*%
X64211217Y-38044917D03*
%TD*%
%TO.C,REF\u002A\u002A*%
X45516819Y-116099118D03*
%TD*%
%TO.C,REF\u002A\u002A*%
X104978219Y-149931916D03*
%TD*%
%TO.C,REF\u002A\u002A*%
X165557218Y-167508718D03*
%TD*%
%TO.C,REF\u002A\u002A*%
X201244217Y-167508716D03*
%TD*%
%TO.C,REF\u002A\u002A*%
X210947018Y-144902717D03*
%TD*%
%TO.C,REF\u002A\u002A*%
X155803619Y-144902717D03*
%TD*%
%TO.C,REF\u002A\u002A*%
X80035417Y-63470316D03*
%TD*%
D13*
%TO.C,U1*%
X188468015Y-119889268D03*
X185928015Y-119889268D03*
X183388015Y-119889268D03*
X180848015Y-119889268D03*
X178308015Y-119889268D03*
X191008015Y-91949268D03*
X191008015Y-94489268D03*
X191008015Y-97029268D03*
X191008015Y-99569268D03*
X191008015Y-102109268D03*
X191008015Y-104649268D03*
X191008015Y-107189268D03*
X191008015Y-109729268D03*
X191008015Y-112269268D03*
X191008015Y-114809268D03*
X191008015Y-117349268D03*
X191008015Y-119889268D03*
X175768015Y-119889268D03*
X175768015Y-117349268D03*
X175768015Y-114809268D03*
X175768015Y-112269268D03*
X175768015Y-109729268D03*
X175768015Y-107189268D03*
X175768015Y-104649268D03*
X175768015Y-102109268D03*
X175768015Y-99569268D03*
X175768015Y-97029268D03*
X175768015Y-94489268D03*
D14*
X175768015Y-91949268D03*
%TD*%
D15*
%TO.C,REF\u002A\u002A*%
X286791418Y-63470317D03*
%TD*%
%TO.C,REF\u002A\u002A*%
X295732217Y-100503515D03*
%TD*%
%TO.C,REF\u002A\u002A*%
X220827616Y-114956116D03*
%TD*%
%TO.C,REF\u002A\u002A*%
X211886818Y-77948317D03*
%TD*%
%TO.C,REF\u002A\u002A*%
X145948417Y-114981516D03*
%TD*%
%TO.C,REF\u002A\u002A*%
X154914617Y-77897517D03*
%TD*%
%TO.C,*%
X71043818Y-100503518D03*
%TD*%
D16*
%TO.C,MX29*%
X200533018Y-71928517D03*
D17*
X195596919Y-73129070D03*
X205469117Y-70727964D03*
D18*
X196230667Y-70360883D03*
X201800514Y-66392141D03*
%TD*%
D17*
%TO.C,MX55*%
X233200927Y-144800621D03*
D18*
X223962477Y-144433540D03*
D17*
X223328729Y-147201727D03*
D16*
X228264828Y-146001174D03*
D18*
X229532324Y-140464798D03*
%TD*%
%TO.C,MX36*%
X224272710Y-78179193D03*
X218702863Y-82147935D03*
D17*
X218069115Y-84916122D03*
X227941313Y-82515016D03*
D16*
X223005214Y-83715569D03*
%TD*%
D18*
%TO.C,MX18*%
X160816203Y-104613435D03*
D16*
X157147600Y-108949257D03*
D17*
X152211501Y-107748704D03*
X162083699Y-110149810D03*
D18*
X154045803Y-105580793D03*
%TD*%
D17*
%TO.C,MX14*%
X77569739Y-92208450D03*
X87441937Y-94609556D03*
D16*
X82505838Y-93409003D03*
D18*
X86174441Y-89073181D03*
X79404041Y-90040539D03*
%TD*%
D17*
%TO.C,MX2*%
X86573885Y-55187714D03*
D18*
X95178587Y-52052445D03*
D16*
X91509984Y-56388267D03*
D17*
X96446083Y-57588820D03*
D18*
X88408187Y-53019803D03*
%TD*%
%TO.C,MX44*%
X265795527Y-87685411D03*
X260225680Y-91654153D03*
D17*
X269464130Y-92021234D03*
X259591932Y-94422340D03*
D16*
X264528031Y-93221787D03*
%TD*%
D18*
%TO.C,MX3*%
X108059087Y-52832582D03*
D17*
X106224785Y-55000493D03*
D16*
X111160884Y-56201046D03*
D18*
X114829487Y-51865224D03*
D17*
X116096983Y-57401599D03*
%TD*%
%TO.C,MX54*%
X205884729Y-155525673D03*
D18*
X208599942Y-154693738D03*
D17*
X212891263Y-162883259D03*
D18*
X214818423Y-157540595D03*
D16*
X209387996Y-159204466D03*
%TD*%
%TO.C,MX8*%
X87007910Y-74898634D03*
D17*
X82071811Y-73698081D03*
X91944009Y-76099187D03*
D18*
X83906113Y-71530170D03*
X90676513Y-70562812D03*
%TD*%
%TO.C,MX25*%
X124118415Y-134942027D03*
X117348015Y-135909385D03*
D17*
X125385911Y-140478402D03*
D16*
X120449812Y-139277849D03*
D17*
X115513713Y-138077296D03*
%TD*%
D18*
%TO.C,MX1*%
X69897817Y-48517725D03*
D16*
X72999614Y-51886189D03*
D17*
X77935713Y-53086742D03*
D18*
X76668217Y-47550367D03*
D17*
X68063515Y-50685636D03*
%TD*%
%TO.C,MX22*%
X121641375Y-115213542D03*
D18*
X113603479Y-110644525D03*
D17*
X111769177Y-112812436D03*
D18*
X120373879Y-109677167D03*
D16*
X116705276Y-114012989D03*
%TD*%
D17*
%TO.C,MX21*%
X92718559Y-110531600D03*
X102590757Y-112932706D03*
D18*
X101323261Y-107396331D03*
D16*
X97654658Y-111732153D03*
D18*
X94552861Y-108363689D03*
%TD*%
%TO.C,MX49*%
X251220745Y-108482994D03*
D17*
X245017150Y-115219923D03*
D18*
X245650898Y-112451736D03*
D16*
X249953249Y-114019370D03*
D17*
X254889348Y-112818817D03*
%TD*%
D18*
%TO.C,MX24*%
X149543724Y-124091163D03*
X156314124Y-123123805D03*
D16*
X152645521Y-127459627D03*
D17*
X157581620Y-128660180D03*
X147709422Y-126259074D03*
%TD*%
D16*
%TO.C,MX31*%
X236447023Y-58488256D03*
D18*
X237714519Y-52951880D03*
D17*
X231510924Y-59688809D03*
D18*
X232144672Y-56920622D03*
D17*
X241383122Y-57287703D03*
%TD*%
%TO.C,MX53*%
X192747478Y-141730198D03*
D18*
X195462691Y-140898263D03*
D17*
X199754012Y-149087784D03*
D18*
X201681172Y-143745120D03*
D16*
X196250745Y-145408991D03*
%TD*%
D17*
%TO.C,MX38*%
X255089855Y-75911967D03*
D16*
X260025954Y-74711414D03*
D17*
X264962053Y-73510861D03*
D18*
X255723603Y-73143780D03*
X261293450Y-69175038D03*
%TD*%
D17*
%TO.C,MX17*%
X134241375Y-101025382D03*
D18*
X142846077Y-97890113D03*
X136075677Y-98857471D03*
D17*
X144113573Y-103426488D03*
D16*
X139177474Y-102225935D03*
%TD*%
D18*
%TO.C,MX6*%
X163049947Y-68560055D03*
X169820347Y-67592697D03*
D17*
X171087843Y-73129072D03*
X161215645Y-70727966D03*
D16*
X166151744Y-71928519D03*
%TD*%
%TO.C,MX12*%
X161649669Y-90438887D03*
D17*
X166585768Y-91639440D03*
X156713570Y-89238334D03*
D18*
X165318272Y-86103065D03*
X158547872Y-87070423D03*
%TD*%
%TO.C,MX42*%
X228774785Y-96689562D03*
D17*
X222571190Y-103426491D03*
D16*
X227507289Y-102225938D03*
D17*
X232443388Y-101025385D03*
D18*
X223204938Y-100658304D03*
%TD*%
D17*
%TO.C,MX35*%
X209971189Y-89238333D03*
D18*
X206302586Y-84902510D03*
D16*
X205035090Y-90438886D03*
D17*
X200098991Y-91639439D03*
D18*
X200732739Y-88871252D03*
%TD*%
D16*
%TO.C,MX32*%
X255523876Y-56201044D03*
D18*
X251221525Y-54633410D03*
D17*
X260459975Y-55000491D03*
D18*
X256791372Y-50664668D03*
D17*
X250587777Y-57401597D03*
%TD*%
D18*
%TO.C,MX5*%
X145079824Y-61836732D03*
X151850224Y-60869374D03*
D16*
X148181621Y-65205196D03*
D17*
X153117720Y-66405749D03*
X143245522Y-64004643D03*
%TD*%
%TO.C,MX46*%
X307625393Y-87706374D03*
D18*
X303956790Y-83370551D03*
X298386943Y-87339293D03*
D16*
X302689294Y-88906927D03*
D17*
X297753195Y-90107480D03*
%TD*%
D18*
%TO.C,MX11*%
X147348151Y-79379746D03*
D17*
X138743449Y-82515015D03*
D16*
X143679548Y-83715568D03*
D18*
X140577751Y-80347104D03*
D17*
X148615647Y-84916121D03*
%TD*%
%TO.C,MX51*%
X283744902Y-113119927D03*
D18*
X289948497Y-106382998D03*
D16*
X288681001Y-111919374D03*
D17*
X293617100Y-110718821D03*
D18*
X284378650Y-110351740D03*
%TD*%
%TO.C,MX10*%
X129378027Y-72656426D03*
D17*
X120773325Y-75791695D03*
D16*
X125709424Y-76992248D03*
D17*
X130645523Y-78192801D03*
D18*
X122607627Y-73623784D03*
%TD*%
%TO.C,MX52*%
X302889016Y-105849665D03*
D17*
X312127466Y-106216746D03*
D16*
X307191367Y-107417299D03*
D17*
X302255268Y-108617852D03*
D18*
X308458863Y-101880923D03*
%TD*%
%TO.C,MX45*%
X279876575Y-91841371D03*
D17*
X289115025Y-92208452D03*
D16*
X284178926Y-93409005D03*
D17*
X279242827Y-94609558D03*
D18*
X285446422Y-87872629D03*
%TD*%
%TO.C,MX28*%
X168506855Y-140066325D03*
X165967167Y-146416450D03*
D16*
X170434014Y-145408989D03*
D17*
X173937281Y-141730196D03*
X166930747Y-149087782D03*
%TD*%
D18*
%TO.C,MX20*%
X81672362Y-107583553D03*
D16*
X78003759Y-111919375D03*
D17*
X82939858Y-113119928D03*
X73067660Y-110718822D03*
D18*
X74901962Y-108550911D03*
%TD*%
D16*
%TO.C,MX37*%
X240949099Y-76998632D03*
D17*
X245885198Y-75798079D03*
D18*
X236646748Y-75430998D03*
D17*
X236013000Y-78199185D03*
D18*
X242216595Y-71462256D03*
%TD*%
%TO.C,MX34*%
X294952638Y-46349813D03*
D17*
X288749043Y-53086742D03*
D18*
X289382791Y-50318555D03*
D17*
X298621241Y-50685636D03*
D16*
X293685142Y-51886189D03*
%TD*%
%TO.C,MX50*%
X269030101Y-111732157D03*
D17*
X264094002Y-112932710D03*
D18*
X270297597Y-106195781D03*
D17*
X273966200Y-110531604D03*
D18*
X264727750Y-110164523D03*
%TD*%
%TO.C,MX40*%
X293884870Y-68828926D03*
D17*
X303123320Y-69196007D03*
D18*
X299454717Y-64860184D03*
D17*
X293251122Y-71597113D03*
D16*
X298187221Y-70396560D03*
%TD*%
D18*
%TO.C,MX23*%
X131573601Y-117367846D03*
D16*
X134675398Y-120736310D03*
D17*
X129739299Y-119535757D03*
D18*
X138344001Y-116400488D03*
D17*
X139611497Y-121936863D03*
%TD*%
%TO.C,MX48*%
X236945462Y-119535758D03*
D18*
X233276859Y-115199935D03*
D17*
X227073264Y-121936864D03*
D16*
X232009363Y-120736311D03*
D18*
X227707012Y-119168677D03*
%TD*%
D17*
%TO.C,MX9*%
X101722707Y-73510864D03*
X111594905Y-75911970D03*
D16*
X106658806Y-74711417D03*
D18*
X110327409Y-70375595D03*
X103557009Y-71342953D03*
%TD*%
D17*
%TO.C,MX7*%
X73433638Y-71597114D03*
X63561440Y-69196008D03*
D18*
X65395742Y-67028097D03*
X72166142Y-66060739D03*
D16*
X68497539Y-70396561D03*
%TD*%
D17*
%TO.C,MX56*%
X241298849Y-140478407D03*
D18*
X241932597Y-137710220D03*
D17*
X251171047Y-138077301D03*
D16*
X246234948Y-139277854D03*
D18*
X247502444Y-133741478D03*
%TD*%
D17*
%TO.C,MX33*%
X280110877Y-55187708D03*
D18*
X276442274Y-50851885D03*
D17*
X270238679Y-57588814D03*
D16*
X275174778Y-56388261D03*
D18*
X270872427Y-54820627D03*
%TD*%
D17*
%TO.C,MX39*%
X284612950Y-73698080D03*
X274740752Y-76099186D03*
D18*
X280944347Y-69362257D03*
X275374500Y-73330999D03*
D16*
X279676851Y-74898633D03*
%TD*%
D17*
%TO.C,MX47*%
X209103143Y-128660180D03*
D18*
X215306738Y-121923251D03*
X209736891Y-125891993D03*
D16*
X214039242Y-127459627D03*
D17*
X218975341Y-126259074D03*
%TD*%
D16*
%TO.C,MX19*%
X59493389Y-107417301D03*
D18*
X56391592Y-104048837D03*
D17*
X64429488Y-108617854D03*
D18*
X63161992Y-103081479D03*
D17*
X54557290Y-106216748D03*
%TD*%
D18*
%TO.C,MX13*%
X60893666Y-85538466D03*
X67664066Y-84571108D03*
D16*
X63995463Y-88906930D03*
D17*
X59059364Y-87706377D03*
X68931562Y-90107483D03*
%TD*%
%TO.C,MX16*%
X126143454Y-96703167D03*
D18*
X124875958Y-91166792D03*
D17*
X116271256Y-94302061D03*
D18*
X118105558Y-92134150D03*
D16*
X121207355Y-95502614D03*
%TD*%
D18*
%TO.C,MX4*%
X127109708Y-55113412D03*
D17*
X135147604Y-59682429D03*
D18*
X133880108Y-54146054D03*
D16*
X130211505Y-58481876D03*
D17*
X125275406Y-57281323D03*
%TD*%
%TO.C,MX15*%
X97220632Y-92021235D03*
D18*
X99054934Y-89853324D03*
X105825334Y-88885966D03*
D17*
X107092830Y-94422341D03*
D16*
X102156731Y-93221788D03*
%TD*%
%TO.C,MX30*%
X218503138Y-65205196D03*
D18*
X219770634Y-59668820D03*
D17*
X223439237Y-64004643D03*
D18*
X214200787Y-63637562D03*
D17*
X213567039Y-66405749D03*
%TD*%
%TO.C,MX26*%
X133483832Y-144800617D03*
D16*
X138419931Y-146001170D03*
D18*
X142088534Y-141665348D03*
X135318134Y-142632706D03*
D17*
X143356030Y-147201723D03*
%TD*%
D18*
%TO.C,MX41*%
X210804663Y-103412880D03*
D17*
X214473266Y-107748703D03*
D16*
X209537167Y-108949256D03*
D17*
X204601068Y-110149809D03*
D18*
X205234816Y-107381622D03*
%TD*%
%TO.C,MX43*%
X241148821Y-93941366D03*
D17*
X250387271Y-94308447D03*
D16*
X245451172Y-95509000D03*
D17*
X240515073Y-96709553D03*
D18*
X246718668Y-89972624D03*
%TD*%
D17*
%TO.C,MX27*%
X160800030Y-155525671D03*
D18*
X155369604Y-153861800D03*
X152829916Y-160211925D03*
D17*
X153793496Y-162883257D03*
D16*
X157296763Y-159204464D03*
%TD*%
D19*
%TO.C,D28*%
X155119750Y-141111290D03*
D20*
X157694684Y-141737563D03*
D21*
X161289874Y-142611982D03*
%TD*%
D20*
%TO.C,D11*%
X147940206Y-76207526D03*
D19*
X145365272Y-75581253D03*
D21*
X151535396Y-77081945D03*
%TD*%
D19*
%TO.C,D54*%
X210877290Y-148563212D03*
D22*
X213452224Y-147936939D03*
D23*
X217047414Y-147062520D03*
%TD*%
D22*
%TO.C,D40*%
X298427287Y-61816048D03*
D19*
X295852353Y-62442321D03*
D23*
X302022477Y-60941629D03*
%TD*%
D20*
%TO.C,D24*%
X156782776Y-119921575D03*
D19*
X154207842Y-119295302D03*
D21*
X160377966Y-120795994D03*
%TD*%
D19*
%TO.C,D29*%
X202099943Y-80016599D03*
D22*
X204674877Y-79390326D03*
D23*
X208270067Y-78515907D03*
%TD*%
D19*
%TO.C,D8*%
X88693634Y-66764322D03*
D20*
X91268568Y-67390595D03*
D21*
X94863758Y-68265014D03*
%TD*%
D19*
%TO.C,D37*%
X238640464Y-69038011D03*
D22*
X241215398Y-68411738D03*
D23*
X244810588Y-67537319D03*
%TD*%
D19*
%TO.C,D43*%
X246797532Y-103650728D03*
D22*
X249372466Y-103024455D03*
D23*
X252967656Y-102150036D03*
%TD*%
D19*
%TO.C,D49*%
X247397809Y-106118780D03*
D22*
X249972743Y-105492507D03*
D23*
X253567933Y-104618088D03*
%TD*%
D19*
%TO.C,D12*%
X163335393Y-82304571D03*
D20*
X165910327Y-82930844D03*
D21*
X169505517Y-83805263D03*
%TD*%
D19*
%TO.C,D47*%
X211704371Y-119505390D03*
D22*
X214279305Y-118879117D03*
D23*
X217874495Y-118004698D03*
%TD*%
D20*
%TO.C,D23*%
X157383051Y-117453527D03*
D19*
X154808117Y-116827254D03*
D21*
X160978241Y-118327946D03*
%TD*%
D22*
%TO.C,D39*%
X279916912Y-66318124D03*
D19*
X277341978Y-66944397D03*
D23*
X283512102Y-65443705D03*
%TD*%
D19*
%TO.C,D55*%
X225878478Y-138015984D03*
D22*
X228453412Y-137389711D03*
D23*
X232048602Y-136515292D03*
%TD*%
D19*
%TO.C,D50*%
X266635207Y-103531112D03*
D22*
X269210141Y-102904839D03*
D23*
X272805331Y-102030420D03*
%TD*%
D20*
%TO.C,D16*%
X82017613Y-104351308D03*
D19*
X79442679Y-103725035D03*
D21*
X85612803Y-105225727D03*
%TD*%
D19*
%TO.C,D30*%
X220070065Y-73293279D03*
D22*
X222644999Y-72667006D03*
D23*
X226240189Y-71792587D03*
%TD*%
D19*
%TO.C,D31*%
X238040189Y-66569957D03*
D22*
X240615123Y-65943684D03*
D23*
X244210313Y-65069265D03*
%TD*%
D20*
%TO.C,D27*%
X152273810Y-147581595D03*
D19*
X149698876Y-146955322D03*
D21*
X155869000Y-148456014D03*
%TD*%
D19*
%TO.C,D26*%
X139910331Y-137775879D03*
D20*
X142485265Y-138402152D03*
D21*
X146080455Y-139276571D03*
%TD*%
D19*
%TO.C,D44*%
X266094959Y-101309871D03*
D22*
X268669893Y-100683598D03*
D23*
X272265083Y-99809179D03*
%TD*%
D19*
%TO.C,D41*%
X211104094Y-117037342D03*
D22*
X213679028Y-116411069D03*
D23*
X217274218Y-115536650D03*
%TD*%
D19*
%TO.C,D25*%
X121940210Y-131052561D03*
D20*
X124515144Y-131678834D03*
D21*
X128110334Y-132553253D03*
%TD*%
D22*
%TO.C,D42*%
X231649151Y-109687749D03*
D19*
X229074217Y-110314022D03*
D23*
X235244341Y-108813330D03*
%TD*%
D22*
%TO.C,D33*%
X279316637Y-63850075D03*
D19*
X276741703Y-64476348D03*
D23*
X282911827Y-62975656D03*
%TD*%
D19*
%TO.C,D10*%
X127271749Y-68827919D03*
D20*
X129846683Y-69454192D03*
D21*
X133441873Y-70328611D03*
%TD*%
D19*
%TO.C,D56*%
X243848599Y-131292659D03*
D22*
X246423533Y-130666386D03*
D23*
X250018723Y-129791967D03*
%TD*%
D22*
%TO.C,D38*%
X260266018Y-66130906D03*
D19*
X257691084Y-66757179D03*
D23*
X263861208Y-65256487D03*
%TD*%
D20*
%TO.C,D6*%
X166510604Y-80462797D03*
D19*
X163935670Y-79836524D03*
D21*
X170105794Y-81337216D03*
%TD*%
D19*
%TO.C,D17*%
X99693852Y-101069768D03*
D20*
X102268786Y-101696041D03*
D21*
X105863976Y-102570460D03*
%TD*%
D22*
%TO.C,D48*%
X232249425Y-112155797D03*
D19*
X229674491Y-112782070D03*
D23*
X235844615Y-111281378D03*
%TD*%
D20*
%TO.C,D2*%
X91868844Y-64922547D03*
D19*
X89293910Y-64296274D03*
D21*
X95464034Y-65796966D03*
%TD*%
D22*
%TO.C,D51*%
X288921064Y-103338866D03*
D19*
X286346130Y-103965139D03*
D23*
X292516254Y-102464447D03*
%TD*%
D20*
%TO.C,D22*%
X138689251Y-113168241D03*
D19*
X136114317Y-112541968D03*
D21*
X142284441Y-114042660D03*
%TD*%
D20*
%TO.C,D9*%
X110919465Y-67203375D03*
D19*
X108344531Y-66577102D03*
D21*
X114514655Y-68077794D03*
%TD*%
D19*
%TO.C,D36*%
X220670342Y-75761331D03*
D22*
X223245276Y-75135058D03*
D23*
X226840466Y-74260639D03*
%TD*%
D19*
%TO.C,D46*%
X304256227Y-96995015D03*
D22*
X306831161Y-96368742D03*
D23*
X310426351Y-95494323D03*
%TD*%
D19*
%TO.C,D1*%
X70783540Y-59794199D03*
D20*
X73358474Y-60420472D03*
D21*
X76953664Y-61294891D03*
%TD*%
D19*
%TO.C,D34*%
X295252073Y-59974273D03*
D22*
X297827007Y-59348000D03*
D23*
X301422197Y-58473581D03*
%TD*%
D20*
%TO.C,D21*%
X139289527Y-110700191D03*
D19*
X136714593Y-110073918D03*
D21*
X142884717Y-111574610D03*
%TD*%
D20*
%TO.C,D20*%
X120719127Y-106444919D03*
D19*
X118144193Y-105818646D03*
D21*
X124314317Y-107319338D03*
%TD*%
D19*
%TO.C,D45*%
X285745855Y-101497091D03*
D22*
X288320789Y-100870818D03*
D23*
X291915979Y-99996399D03*
%TD*%
D20*
%TO.C,D3*%
X111519741Y-64735327D03*
D19*
X108944807Y-64109054D03*
D21*
X115114931Y-65609746D03*
%TD*%
D19*
%TO.C,D14*%
X60932308Y-99222959D03*
D20*
X63507242Y-99849232D03*
D21*
X67102432Y-100723651D03*
%TD*%
D22*
%TO.C,D32*%
X259665740Y-63662856D03*
D19*
X257090806Y-64289129D03*
D23*
X263260930Y-62788437D03*
%TD*%
D19*
%TO.C,D52*%
X304856499Y-99463065D03*
D22*
X307431433Y-98836792D03*
D23*
X311026623Y-97962373D03*
%TD*%
D19*
%TO.C,D19*%
X118744472Y-103350599D03*
D20*
X121319406Y-103976872D03*
D21*
X124914596Y-104851291D03*
%TD*%
D20*
%TO.C,D13*%
X64107520Y-97381185D03*
D19*
X61532586Y-96754912D03*
D21*
X67702710Y-98255604D03*
%TD*%
D19*
%TO.C,D53*%
X205839968Y-142469051D03*
D22*
X208414902Y-141842778D03*
D23*
X212010092Y-140968359D03*
%TD*%
D19*
%TO.C,D5*%
X145965548Y-73113205D03*
D20*
X148540482Y-73739478D03*
D21*
X152135672Y-74613897D03*
%TD*%
D20*
%TO.C,D18*%
X101668510Y-104164089D03*
D19*
X99093576Y-103537816D03*
D21*
X105263700Y-105038508D03*
%TD*%
D20*
%TO.C,D15*%
X82617891Y-101883258D03*
D19*
X80042957Y-101256985D03*
D21*
X86213081Y-102757677D03*
%TD*%
D19*
%TO.C,D4*%
X127872025Y-66359870D03*
D20*
X130446959Y-66986143D03*
D21*
X134042149Y-67860562D03*
%TD*%
D19*
%TO.C,D7*%
X70183264Y-62262248D03*
D20*
X72758198Y-62888521D03*
D21*
X76353388Y-63762940D03*
%TD*%
D22*
%TO.C,D35*%
X205275155Y-81858377D03*
D19*
X202700221Y-82484650D03*
D23*
X208870345Y-80983958D03*
%TD*%
M02*
