%TF.GenerationSoftware,KiCad,Pcbnew,(6.0.0-0)*%
%TF.CreationDate,2022-01-06T19:14:07+00:00*%
%TF.ProjectId,atreis,61747265-6973-42e6-9b69-6361645f7063,rev?*%
%TF.SameCoordinates,Original*%
%TF.FileFunction,Profile,NP*%
%FSLAX46Y46*%
G04 Gerber Fmt 4.6, Leading zero omitted, Abs format (unit mm)*
G04 Created by KiCad (PCBNEW (6.0.0-0)) date 2022-01-06 19:14:07*
%MOMM*%
%LPD*%
G01*
G04 APERTURE LIST*
%TA.AperFunction,Profile*%
%ADD10C,0.100000*%
%TD*%
G04 APERTURE END LIST*
D10*
X263038016Y-134978517D02*
X262888016Y-135238517D01*
X170118017Y-51958517D02*
X174368016Y-52368517D01*
X174368016Y-52368517D02*
X178738016Y-52678517D01*
X144978018Y-45508517D02*
X149718018Y-47308517D01*
X132528017Y-165708517D02*
X130488017Y-164998517D01*
X112128016Y-157508517D02*
X110298017Y-156658517D01*
X265628017Y-150328517D02*
X265618017Y-150728517D01*
X101268016Y-151248517D02*
X101208016Y-150988517D01*
X118358016Y-160248516D02*
X116148017Y-159288516D01*
X115928016Y-36518517D02*
X119568017Y-37158517D01*
X252368016Y-158538517D02*
X250628016Y-159288517D01*
X221798017Y-45508517D02*
X226778016Y-43488516D01*
X102498017Y-133958517D02*
X102098016Y-133808517D01*
X183388016Y-175062517D02*
X182208016Y-175068517D01*
X44088016Y-119758516D02*
X43718016Y-119658517D01*
X63398017Y-34548516D02*
X70218016Y-34358517D01*
X75188017Y-34248517D02*
X79648017Y-34228516D01*
X235328016Y-40248517D02*
X240788017Y-38628517D01*
X125408017Y-163118517D02*
X123128016Y-162208517D01*
X43348016Y-119548517D02*
X42958017Y-119358517D01*
X221418016Y-169728516D02*
X218928017Y-170418517D01*
X61568017Y-35348517D02*
X61808017Y-35138517D01*
X264468016Y-152748516D02*
X264218016Y-152928517D01*
X323818016Y-119358516D02*
X323428017Y-119548517D01*
X166008017Y-173978517D02*
X163718016Y-173668517D01*
X177628017Y-175028516D02*
X172968016Y-174718517D01*
X211968017Y-144908516D02*
G75*
G03*
X211968017Y-144908516I-1000001J0D01*
G01*
X101688016Y-152098517D02*
X101538016Y-151868517D01*
X103888017Y-135238517D02*
X103738016Y-134978517D01*
X112138017Y-35948517D02*
X115928016Y-36518517D01*
X120688017Y-161238517D02*
X118358016Y-160248516D01*
X101148017Y-150328517D02*
X101168016Y-150038516D01*
X322268016Y-116118517D02*
G75*
G03*
X322268016Y-116118517I-1000000J0D01*
G01*
X60728017Y-36688517D02*
X60808017Y-36488517D01*
X65218016Y-38048517D02*
G75*
G03*
X65218016Y-38048517I-999999J0D01*
G01*
X123128016Y-162208517D02*
X120688017Y-161238517D01*
X262658016Y-135718517D02*
X262568016Y-136048516D01*
X265088016Y-152098517D02*
X264898017Y-152338517D01*
X152748017Y-171598516D02*
X150458017Y-171058517D01*
X139998016Y-43488517D02*
X144978018Y-45508517D01*
X102098016Y-133808517D02*
X44088016Y-119758516D01*
X107328017Y-155258517D02*
X103138016Y-153238517D01*
X200768017Y-173978516D02*
X196788016Y-174478517D01*
X102868017Y-153098517D02*
X102558017Y-152928516D01*
X212118016Y-48918516D02*
X217058016Y-47308517D01*
X62058016Y-34968517D02*
X62378017Y-34798517D01*
X103548016Y-134748516D02*
X103318016Y-134498516D01*
X287128016Y-34228516D02*
X291588018Y-34248517D01*
X264898017Y-152338517D02*
X264718017Y-152548517D01*
X103318016Y-134498516D02*
X103088016Y-134318516D01*
X304718016Y-34968517D02*
X304968016Y-35138516D01*
X161218016Y-173278517D02*
X157268017Y-172538516D01*
X102308016Y-152748517D02*
X102058016Y-152548517D01*
X131448017Y-40248517D02*
X136618016Y-42128516D01*
X140958016Y-168468517D02*
X138258017Y-167638517D01*
X42278016Y-118838517D02*
X42038016Y-118588517D01*
X304968016Y-35138516D02*
X305208016Y-35348517D01*
X188038016Y-52678517D02*
X192408017Y-52368517D01*
X104218016Y-137328516D02*
X104268016Y-137008516D01*
X247328017Y-41158516D02*
G75*
G03*
X247328017Y-41158516I-1000000J0D01*
G01*
X325308016Y-116188517D02*
X325368017Y-116578517D01*
X263908017Y-153098517D02*
X263638017Y-153238517D01*
X101168016Y-150038516D02*
X101218017Y-149748517D01*
X163718016Y-173668517D02*
X161218016Y-173278517D01*
X192408017Y-52368517D02*
X196658016Y-51958517D01*
X262768017Y-135438517D02*
X262658016Y-135718517D01*
X138258017Y-167638517D02*
X136308017Y-167018516D01*
X203548017Y-50928517D02*
X206538016Y-50328517D01*
X263688016Y-134318517D02*
X263458017Y-134498516D01*
X150458017Y-171058517D02*
X147848016Y-170418517D01*
X60948016Y-36148517D02*
X61118016Y-35868517D01*
X325368017Y-116578517D02*
X325358017Y-116908517D01*
X163228017Y-50928518D02*
X167338017Y-51588516D01*
X209508016Y-172538516D02*
X205558017Y-173278516D01*
X246088016Y-161238516D02*
X243648017Y-162208516D01*
X193808018Y-174718517D02*
X189148017Y-175028517D01*
X305658016Y-35868517D02*
X305828017Y-36148517D01*
X250628016Y-159288517D02*
X248418016Y-160248517D01*
X61338017Y-35578517D02*
X61568017Y-35348517D01*
X305438017Y-35578516D02*
X305658016Y-35868517D01*
X103378017Y-35008517D02*
X107848017Y-35418516D01*
X41468016Y-116188517D02*
X41568016Y-115788516D01*
X143118016Y-169108516D02*
X140958016Y-168468517D01*
X304068016Y-34678516D02*
X304398017Y-34798517D01*
X178738016Y-52678517D02*
X183388016Y-52878516D01*
X41538017Y-117608516D02*
X41468017Y-117288518D01*
X262618016Y-137618516D02*
X265558017Y-149748517D01*
X303558016Y-38048517D02*
G75*
G03*
X303558016Y-38048517I-999999J0D01*
G01*
X79648017Y-34228516D02*
X86018017Y-34238517D01*
X226778016Y-43488516D02*
X230158016Y-42128516D01*
X70218016Y-34358517D02*
X75188017Y-34248517D01*
X325108017Y-117958517D02*
X324948016Y-118278517D01*
X236288017Y-164998517D02*
X234248016Y-165708516D01*
X265558017Y-149748517D02*
X265608018Y-150038517D01*
X303378016Y-34548517D02*
X303758016Y-34598516D01*
X230158016Y-42128516D02*
X235328016Y-40248517D01*
X228518017Y-167638517D02*
X225818016Y-168468516D01*
X62378017Y-34798517D02*
X62708016Y-34678517D01*
X268408016Y-34668517D02*
X274308016Y-34378517D01*
X262788015Y-149948517D02*
G75*
G03*
X262788015Y-149948517I-999999J0D01*
G01*
X41408016Y-116578516D02*
X41468016Y-116188517D01*
X202228018Y-167518516D02*
G75*
G03*
X202228018Y-167518516I-1000002J0D01*
G01*
X103088016Y-134318516D02*
X102808016Y-134128516D01*
X322688017Y-119758516D02*
X264678017Y-133808518D01*
X225818016Y-168468516D02*
X223658017Y-169108516D01*
X61808017Y-35138517D02*
X62058016Y-34968517D01*
X243648017Y-162208516D02*
X241368016Y-163118517D01*
X166548016Y-167518517D02*
G75*
G03*
X166548016Y-167518517I-999999J0D01*
G01*
X154658017Y-48918516D02*
X160238016Y-50328516D01*
X101388017Y-151558517D02*
X101268016Y-151248517D01*
X206838016Y-56208517D02*
G75*
G03*
X206838016Y-56208517I-1000000J0D01*
G01*
X305828017Y-36148517D02*
X305968017Y-36488516D01*
X136618016Y-42128516D02*
X139998016Y-43488517D01*
X41568016Y-115788516D02*
X60628017Y-37068517D01*
X324498017Y-118838517D02*
X324168017Y-119138517D01*
X103738016Y-134978517D02*
X103548016Y-134748516D01*
X103138016Y-153238517D02*
X102868017Y-153098517D01*
X217058016Y-47308517D02*
X221798017Y-45508517D01*
X102808016Y-134128516D02*
X102498017Y-133958517D01*
X157268017Y-172538516D02*
X155408017Y-172168517D01*
X104268016Y-137008516D02*
X104278017Y-136718518D01*
X254648017Y-157508518D02*
X252368016Y-158538517D01*
X258928016Y-35418517D02*
X263398016Y-35008517D01*
X101158016Y-150728517D02*
X101148017Y-150328517D01*
X121448015Y-41158518D02*
G75*
G03*
X121448015Y-41158518I-999998J0D01*
G01*
X102058016Y-152548517D02*
X101878017Y-152338517D01*
X324168017Y-119138517D02*
X323818016Y-119358516D01*
X263968016Y-134128516D02*
X263688016Y-134318517D01*
X265508017Y-151248516D02*
X265388016Y-151558516D01*
X60628017Y-37068517D02*
X60728017Y-36688517D01*
X196788016Y-174478517D02*
X193808018Y-174718517D01*
X116148017Y-159288516D02*
X114408017Y-158538516D01*
X262518017Y-136358516D02*
X262498016Y-136718517D01*
X125988017Y-38628517D02*
X131448017Y-40248517D01*
X265608018Y-150038517D02*
X265628017Y-150328517D01*
X263638017Y-153238517D02*
X259448017Y-155258517D01*
X110298017Y-156658517D02*
X107328017Y-155258517D01*
X325308016Y-117288516D02*
X325238016Y-117608516D01*
X305208016Y-35348517D02*
X305438017Y-35578516D01*
X104118017Y-135718517D02*
X104008016Y-135438516D01*
X136308017Y-167018516D02*
X134808017Y-166498516D01*
X262508016Y-137008517D02*
X262558016Y-137328516D01*
X102558017Y-152928516D02*
X102308016Y-152748517D01*
X147848016Y-170418517D02*
X145358016Y-169728516D01*
X325208016Y-115788517D02*
X325308016Y-116188517D01*
X184568016Y-175068516D02*
X183388016Y-175062517D01*
X104008016Y-135438516D02*
X103888017Y-135238517D01*
X203058017Y-173668517D02*
X200768017Y-173978516D01*
X262568016Y-136048516D02*
X262518017Y-136358516D01*
X241368016Y-163118517D02*
X238898016Y-164048517D01*
X41468017Y-117288518D02*
X41418017Y-116908517D01*
X86018017Y-34238517D02*
X92468017Y-34378517D01*
X265618017Y-150728517D02*
X265568017Y-150988517D01*
X104278017Y-136718518D02*
X104258017Y-136358517D01*
X238898016Y-164048517D02*
X236288017Y-164998517D01*
X98368017Y-34668517D02*
X103378017Y-35008517D01*
X172968016Y-174718517D02*
X169988017Y-174478517D01*
X324948016Y-118278517D02*
X324738017Y-118588516D01*
X234248016Y-165708516D02*
X231968016Y-166498517D01*
X114408017Y-158538516D02*
X112128016Y-157508517D01*
X218928017Y-170418517D02*
X216318016Y-171058517D01*
X263458017Y-134498516D02*
X263228017Y-134748517D01*
X101218017Y-149748517D02*
X104158017Y-137618517D01*
X264718017Y-152548517D02*
X264468016Y-152748516D01*
X42038016Y-118588517D02*
X41828017Y-118278517D01*
X101538016Y-151868517D02*
X101388017Y-151558517D01*
X206538016Y-50328517D02*
X212118016Y-48918516D01*
X60808017Y-36488517D02*
X60948016Y-36148517D01*
X216318016Y-171058517D02*
X214028017Y-171598517D01*
X107848017Y-35418516D02*
X112138017Y-35948517D01*
X167338017Y-51588516D02*
X170118017Y-51958517D01*
X127878016Y-164048517D02*
X125408017Y-163118517D01*
X250848016Y-36518516D02*
X254638017Y-35948518D01*
X61118016Y-35868517D02*
X61338017Y-35578517D01*
X264678017Y-133808518D02*
X264278017Y-133958517D01*
X119568017Y-37158517D02*
X125988017Y-38628517D01*
X205558017Y-173278516D02*
X203058017Y-173668517D01*
X262888016Y-135238517D02*
X262768017Y-135438517D01*
X306048017Y-36688517D02*
X306148016Y-37068517D01*
X291588018Y-34248517D02*
X296558017Y-34358518D01*
X41828017Y-118278517D02*
X41668018Y-117958517D01*
X263228017Y-134748517D02*
X263038016Y-134978517D01*
X42608016Y-119138517D02*
X42278016Y-118838517D01*
X134808017Y-166498516D02*
X132528017Y-165708517D01*
X92468017Y-34378517D02*
X98368017Y-34668517D01*
X259448017Y-155258517D02*
X256478016Y-156658517D01*
X274308016Y-34378517D02*
X280758017Y-34238517D01*
X42958017Y-119358517D02*
X42608016Y-119138517D01*
X280758017Y-34238517D02*
X287128016Y-34228516D01*
X265388016Y-151558516D02*
X265238017Y-151868517D01*
X305968017Y-36488516D02*
X306048017Y-36688517D01*
X262498016Y-136718517D02*
X262508016Y-137008517D01*
X41668018Y-117958517D02*
X41538017Y-117608516D01*
X296558017Y-34358518D02*
X303378016Y-34548517D01*
X247208017Y-37158517D02*
X250848016Y-36518516D01*
X41418017Y-116908517D02*
X41408016Y-116578516D01*
X324738017Y-118588516D02*
X324498017Y-118838517D01*
X145358016Y-169728516D02*
X143118016Y-169108516D01*
X189148017Y-175028517D02*
X184568016Y-175068516D01*
X43718016Y-119658517D02*
X43348016Y-119548517D01*
X240788017Y-38628517D02*
X247208017Y-37158517D01*
X323058016Y-119658517D02*
X322688017Y-119758516D01*
X214028017Y-171598517D02*
X211368016Y-172168517D01*
X325238016Y-117608516D02*
X325108017Y-117958517D01*
X105988016Y-149938517D02*
G75*
G03*
X105988016Y-149938517I-1000000J0D01*
G01*
X265568017Y-150988517D02*
X265508017Y-151248516D01*
X161938018Y-56208516D02*
G75*
G03*
X161938018Y-56208516I-1000001J0D01*
G01*
X155408017Y-172168517D02*
X152748017Y-171598516D01*
X183388016Y-52878516D02*
X188038016Y-52678517D01*
X104208018Y-136048517D02*
X104118017Y-135718517D01*
X256478016Y-156658517D02*
X254648017Y-157508518D01*
X263398016Y-35008517D02*
X268408016Y-34668517D01*
X104158017Y-137618517D02*
X104218016Y-137328516D01*
X304398017Y-34798517D02*
X304718016Y-34968517D01*
X196658016Y-51958517D02*
X199438016Y-51588516D01*
X46508017Y-116118516D02*
G75*
G03*
X46508017Y-116118516I-1000000J0D01*
G01*
X306148016Y-37068517D02*
X325208016Y-115788517D01*
X199438016Y-51588516D02*
X203548017Y-50928517D01*
X248418016Y-160248517D02*
X246088016Y-161238516D01*
X230468016Y-167018517D02*
X228518017Y-167638517D01*
X182208016Y-175068517D02*
X177628017Y-175028516D01*
X254638017Y-35948518D02*
X258928016Y-35418517D01*
X323428017Y-119548517D02*
X323058016Y-119658517D01*
X169988017Y-174478517D02*
X166008017Y-173978517D01*
X101878017Y-152338517D02*
X101688016Y-152098517D01*
X104258017Y-136358517D02*
X104208018Y-136048517D01*
X211368016Y-172168517D02*
X209508016Y-172538516D01*
X160238016Y-50328516D02*
X163228017Y-50928518D01*
X156808016Y-144918517D02*
G75*
G03*
X156808016Y-144918517I-1000000J0D01*
G01*
X303758016Y-34598516D02*
X304068016Y-34678516D01*
X101208016Y-150988517D02*
X101158016Y-150728517D01*
X231968016Y-166498517D02*
X230468016Y-167018517D01*
X130488017Y-164998517D02*
X127878016Y-164048517D01*
X264218016Y-152928517D02*
X263908017Y-153098517D01*
X264278017Y-133958517D02*
X263968016Y-134128516D01*
X63018017Y-34598517D02*
X63398017Y-34548516D01*
X265238017Y-151868517D02*
X265088016Y-152098517D01*
X262558016Y-137328516D02*
X262618016Y-137618516D01*
X223658017Y-169108516D02*
X221418016Y-169728516D01*
X62708016Y-34678517D02*
X63018017Y-34598517D01*
X149718018Y-47308517D02*
X154658017Y-48918516D01*
X325358017Y-116908517D02*
X325308016Y-117288516D01*
M02*
