%TF.GenerationSoftware,KiCad,Pcbnew,(6.0.0-0)*%
%TF.CreationDate,2022-01-06T19:14:06+00:00*%
%TF.ProjectId,atreis,61747265-6973-42e6-9b69-6361645f7063,rev?*%
%TF.SameCoordinates,Original*%
%TF.FileFunction,Copper,L2,Bot*%
%TF.FilePolarity,Positive*%
%FSLAX46Y46*%
G04 Gerber Fmt 4.6, Leading zero omitted, Abs format (unit mm)*
G04 Created by KiCad (PCBNEW (6.0.0-0)) date 2022-01-06 19:14:06*
%MOMM*%
%LPD*%
G01*
G04 APERTURE LIST*
G04 Aperture macros list*
%AMRotRect*
0 Rectangle, with rotation*
0 The origin of the aperture is its center*
0 $1 length*
0 $2 width*
0 $3 Rotation angle, in degrees counterclockwise*
0 Add horizontal line*
21,1,$1,$2,0,0,$3*%
G04 Aperture macros list end*
%TA.AperFunction,SMDPad,CuDef*%
%ADD10RotRect,2.550000X2.500000X193.670000*%
%TD*%
%TA.AperFunction,SMDPad,CuDef*%
%ADD11RotRect,2.550000X2.500000X193.669000*%
%TD*%
%TA.AperFunction,ComponentPad*%
%ADD12C,2.000000*%
%TD*%
%TA.AperFunction,SMDPad,CuDef*%
%ADD13RotRect,2.550000X2.500000X166.330000*%
%TD*%
%TA.AperFunction,SMDPad,CuDef*%
%ADD14RotRect,2.550000X2.500000X133.600000*%
%TD*%
%TA.AperFunction,SMDPad,CuDef*%
%ADD15RotRect,2.550000X2.500000X226.400000*%
%TD*%
%TA.AperFunction,ComponentPad*%
%ADD16R,1.752600X1.752600*%
%TD*%
%TA.AperFunction,ComponentPad*%
%ADD17C,1.752600*%
%TD*%
%TA.AperFunction,ComponentPad*%
%ADD18RotRect,1.400000X1.400000X166.330000*%
%TD*%
%TA.AperFunction,ComponentPad*%
%ADD19C,1.400000*%
%TD*%
%TA.AperFunction,ComponentPad*%
%ADD20RotRect,1.400000X1.400000X193.670000*%
%TD*%
%TA.AperFunction,ViaPad*%
%ADD21C,0.800000*%
%TD*%
%TA.AperFunction,Conductor*%
%ADD22C,0.250000*%
%TD*%
G04 APERTURE END LIST*
D10*
%TO.P,MX29,1,COL*%
%TO.N,COL5*%
X193048437Y-71144861D03*
D11*
%TO.P,MX29,2,ROW*%
%TO.N,Net-(D29-Pad2)*%
X205008977Y-65621782D03*
%TD*%
%TO.P,MX55,1,COL*%
%TO.N,COL3*%
X220780248Y-145217517D03*
%TO.P,MX55,2,ROW*%
%TO.N,Net-(D55-Pad2)*%
X232740788Y-139694438D03*
%TD*%
D10*
%TO.P,MX36,1,COL*%
%TO.N,COL4*%
X215520635Y-82931912D03*
D11*
%TO.P,MX36,2,ROW*%
%TO.N,Net-(D36-Pad2)*%
X227481175Y-77408833D03*
%TD*%
D12*
%TO.P,SW1,1,1*%
%TO.N,Net-(SW1-Pad1)*%
X201599792Y-53000442D03*
%TO.P,SW1,2,2*%
%TO.N,GND*%
X195148242Y-53792592D03*
%TD*%
D13*
%TO.P,MX18,1,COL*%
%TO.N,COL5*%
X150863572Y-104816815D03*
%TO.P,MX18,2,ROW*%
%TO.N,Net-(D18-Pad2)*%
X164024665Y-105403796D03*
%TD*%
%TO.P,MX14,1,COL*%
%TO.N,COL1*%
X76221810Y-89276559D03*
%TO.P,MX14,2,ROW*%
%TO.N,Net-(D14-Pad2)*%
X89382903Y-89863540D03*
%TD*%
%TO.P,MX2,1,COL*%
%TO.N,COL1*%
X85225960Y-52255822D03*
%TO.P,MX2,2,ROW*%
%TO.N,Net-(D2-Pad2)*%
X98387053Y-52842803D03*
%TD*%
D10*
%TO.P,MX44,1,COL*%
%TO.N,COL2*%
X257043450Y-92438131D03*
D11*
%TO.P,MX44,2,ROW*%
%TO.N,Net-(D44-Pad2)*%
X269003990Y-86915052D03*
%TD*%
D13*
%TO.P,MX3,1,COL*%
%TO.N,COL2*%
X104876858Y-52068603D03*
%TO.P,MX3,2,ROW*%
%TO.N,Net-(D3-Pad2)*%
X118037951Y-52655584D03*
%TD*%
D14*
%TO.P,MX54,1,COL*%
%TO.N,COL4*%
X206341440Y-152332073D03*
%TO.P,MX54,2,ROW*%
%TO.N,Net-(D54-Pad2)*%
X217095548Y-159941809D03*
%TD*%
D13*
%TO.P,MX8,1,COL*%
%TO.N,COL1*%
X80723885Y-70766190D03*
%TO.P,MX8,2,ROW*%
%TO.N,Net-(D8-Pad2)*%
X93884978Y-71353171D03*
%TD*%
%TO.P,MX25,1,COL*%
%TO.N,COL2*%
X114165788Y-135145407D03*
%TO.P,MX25,2,ROW*%
%TO.N,Net-(D25-Pad2)*%
X127326880Y-135732388D03*
%TD*%
%TO.P,MX1,1,COL*%
%TO.N,COL0*%
X66715590Y-47753746D03*
%TO.P,MX1,2,ROW*%
%TO.N,Net-(D1-Pad2)*%
X79876682Y-48340727D03*
%TD*%
%TO.P,MX22,1,COL*%
%TO.N,COL3*%
X110421250Y-109880546D03*
%TO.P,MX22,2,ROW*%
%TO.N,Net-(D22-Pad2)*%
X123582343Y-110467527D03*
%TD*%
%TO.P,MX21,1,COL*%
%TO.N,COL2*%
X91370631Y-107599711D03*
%TO.P,MX21,2,ROW*%
%TO.N,Net-(D21-Pad2)*%
X104531724Y-108186692D03*
%TD*%
D10*
%TO.P,MX49,1,COL*%
%TO.N,COL3*%
X242468670Y-113235714D03*
D11*
%TO.P,MX49,2,ROW*%
%TO.N,Net-(D49-Pad2)*%
X254429210Y-107712635D03*
%TD*%
D13*
%TO.P,MX24,1,COL*%
%TO.N,COL5*%
X146361494Y-123327184D03*
%TO.P,MX24,2,ROW*%
%TO.N,Net-(D24-Pad2)*%
X159522587Y-123914165D03*
%TD*%
D10*
%TO.P,MX31,1,COL*%
%TO.N,COL3*%
X228962443Y-57704600D03*
D11*
%TO.P,MX31,2,ROW*%
%TO.N,Net-(D31-Pad2)*%
X240922983Y-52181521D03*
%TD*%
D14*
%TO.P,MX53,1,COL*%
%TO.N,COL5*%
X193204188Y-138536599D03*
%TO.P,MX53,2,ROW*%
%TO.N,Net-(D53-Pad2)*%
X203958296Y-146146335D03*
%TD*%
D10*
%TO.P,MX38,1,COL*%
%TO.N,COL2*%
X252541374Y-73927757D03*
D11*
%TO.P,MX38,2,ROW*%
%TO.N,Net-(D38-Pad2)*%
X264501914Y-68404678D03*
%TD*%
D13*
%TO.P,MX17,1,COL*%
%TO.N,COL4*%
X132893449Y-98093492D03*
%TO.P,MX17,2,ROW*%
%TO.N,Net-(D17-Pad2)*%
X146054542Y-98680473D03*
%TD*%
%TO.P,MX6,1,COL*%
%TO.N,COL5*%
X159867719Y-67796074D03*
%TO.P,MX6,2,ROW*%
%TO.N,Net-(D6-Pad2)*%
X173028812Y-68383055D03*
%TD*%
%TO.P,MX12,1,COL*%
%TO.N,COL5*%
X155365644Y-86306444D03*
%TO.P,MX12,2,ROW*%
%TO.N,Net-(D12-Pad2)*%
X168526737Y-86893425D03*
%TD*%
D10*
%TO.P,MX42,1,COL*%
%TO.N,COL4*%
X220022709Y-101442282D03*
D11*
%TO.P,MX42,2,ROW*%
%TO.N,Net-(D42-Pad2)*%
X231983249Y-95919203D03*
%TD*%
D10*
%TO.P,MX35,1,COL*%
%TO.N,COL5*%
X197550511Y-89655231D03*
D11*
%TO.P,MX35,2,ROW*%
%TO.N,Net-(D35-Pad2)*%
X209511051Y-84132152D03*
%TD*%
D10*
%TO.P,MX32,1,COL*%
%TO.N,COL2*%
X248039297Y-55417388D03*
D11*
%TO.P,MX32,2,ROW*%
%TO.N,Net-(D32-Pad2)*%
X259999837Y-49894309D03*
%TD*%
D13*
%TO.P,MX5,1,COL*%
%TO.N,COL4*%
X141897597Y-61072753D03*
%TO.P,MX5,2,ROW*%
%TO.N,Net-(D5-Pad2)*%
X155058690Y-61659734D03*
%TD*%
D10*
%TO.P,MX46,1,COL*%
%TO.N,COL0*%
X295204716Y-88123271D03*
D11*
%TO.P,MX46,2,ROW*%
%TO.N,Net-(D46-Pad2)*%
X307165256Y-82600192D03*
%TD*%
D13*
%TO.P,MX11,1,COL*%
%TO.N,COL4*%
X137395523Y-79583125D03*
%TO.P,MX11,2,ROW*%
%TO.N,Net-(D11-Pad2)*%
X150556616Y-80170106D03*
%TD*%
D10*
%TO.P,MX51,1,COL*%
%TO.N,COL1*%
X281196423Y-111135719D03*
D11*
%TO.P,MX51,2,ROW*%
%TO.N,Net-(D51-Pad2)*%
X293156963Y-105612640D03*
%TD*%
D13*
%TO.P,MX10,1,COL*%
%TO.N,COL3*%
X119425399Y-72859805D03*
%TO.P,MX10,2,ROW*%
%TO.N,Net-(D10-Pad2)*%
X132586492Y-73446786D03*
%TD*%
D10*
%TO.P,MX52,1,COL*%
%TO.N,COL0*%
X299706789Y-106633643D03*
D11*
%TO.P,MX52,2,ROW*%
%TO.N,Net-(D52-Pad2)*%
X311667329Y-101110564D03*
%TD*%
D10*
%TO.P,MX45,1,COL*%
%TO.N,COL1*%
X276694346Y-92625350D03*
D11*
%TO.P,MX45,2,ROW*%
%TO.N,Net-(D45-Pad2)*%
X288654886Y-87102271D03*
%TD*%
D15*
%TO.P,MX28,1,COL*%
%TO.N,COL5*%
X163708665Y-148798114D03*
%TO.P,MX28,2,ROW*%
%TO.N,Net-(D28-Pad2)*%
X170783980Y-137685111D03*
%TD*%
D13*
%TO.P,MX20,1,COL*%
%TO.N,COL1*%
X71719733Y-107786932D03*
%TO.P,MX20,2,ROW*%
%TO.N,Net-(D20-Pad2)*%
X84880826Y-108373913D03*
%TD*%
D10*
%TO.P,MX37,1,COL*%
%TO.N,COL3*%
X233464520Y-76214973D03*
D11*
%TO.P,MX37,2,ROW*%
%TO.N,Net-(D37-Pad2)*%
X245425060Y-70691894D03*
%TD*%
D10*
%TO.P,MX34,1,COL*%
%TO.N,COL0*%
X286200563Y-51102533D03*
D11*
%TO.P,MX34,2,ROW*%
%TO.N,Net-(D34-Pad2)*%
X298161103Y-45579454D03*
%TD*%
D10*
%TO.P,MX50,1,COL*%
%TO.N,COL2*%
X261545522Y-110948502D03*
D11*
%TO.P,MX50,2,ROW*%
%TO.N,Net-(D50-Pad2)*%
X273506062Y-105425423D03*
%TD*%
D10*
%TO.P,MX40,1,COL*%
%TO.N,COL0*%
X290702642Y-69612904D03*
D11*
%TO.P,MX40,2,ROW*%
%TO.N,Net-(D40-Pad2)*%
X302663182Y-64089825D03*
%TD*%
D13*
%TO.P,MX23,1,COL*%
%TO.N,COL4*%
X128391372Y-116603866D03*
%TO.P,MX23,2,ROW*%
%TO.N,Net-(D23-Pad2)*%
X141552465Y-117190847D03*
%TD*%
D16*
%TO.P,U1,1,TX0/PD3*%
%TO.N,COL0*%
X175768016Y-91959267D03*
D17*
%TO.P,U1,2,RX1/PD2*%
%TO.N,COL1*%
X175768016Y-94499267D03*
%TO.P,U1,3,GND*%
%TO.N,GND*%
X175768016Y-97039267D03*
%TO.P,U1,4,GND*%
X175768016Y-99579267D03*
%TO.P,U1,5,2/PD1*%
%TO.N,unconnected-(U1-Pad5)*%
X175768016Y-102119267D03*
%TO.P,U1,6,3/PD0*%
%TO.N,unconnected-(U1-Pad6)*%
X175768016Y-104659267D03*
%TO.P,U1,7,4/PD4*%
%TO.N,COL2*%
X175768016Y-107199267D03*
%TO.P,U1,8,5/PC6*%
%TO.N,ROW0*%
X175768016Y-109739267D03*
%TO.P,U1,9,6/PD7*%
%TO.N,ROW1*%
X175768016Y-112279267D03*
%TO.P,U1,10,7/PE6*%
%TO.N,ROW2*%
X175768016Y-114819267D03*
%TO.P,U1,11,8/PB4*%
%TO.N,ROW3*%
X175768016Y-117359267D03*
%TO.P,U1,12,9/PB5*%
%TO.N,ROW4*%
X175996616Y-119899267D03*
%TO.P,U1,13,10/PB6*%
%TO.N,ROW9*%
X191008016Y-119899267D03*
%TO.P,U1,14,16/PB2*%
%TO.N,ROW8*%
X191008016Y-117359267D03*
%TO.P,U1,15,14/PB3*%
%TO.N,ROW7*%
X191008016Y-114819267D03*
%TO.P,U1,16,15/PB1*%
%TO.N,ROW6*%
X191008016Y-112279267D03*
%TO.P,U1,17,A0/PF7*%
%TO.N,ROW5*%
X191008016Y-109739267D03*
%TO.P,U1,18,A1/PF6*%
%TO.N,COL5*%
X191008016Y-107199267D03*
%TO.P,U1,19,A2/PF5*%
%TO.N,COL4*%
X191008016Y-104659267D03*
%TO.P,U1,20,A3/PF4*%
%TO.N,COL3*%
X191008016Y-102119267D03*
%TO.P,U1,21,VCC*%
%TO.N,unconnected-(U1-Pad21)*%
X191008016Y-99579267D03*
%TO.P,U1,22,RST*%
%TO.N,Net-(SW1-Pad1)*%
X191008016Y-97039267D03*
%TO.P,U1,23,GND*%
%TO.N,GND*%
X191008016Y-94499267D03*
%TO.P,U1,24,B0*%
%TO.N,unconnected-(U1-Pad24)*%
X191008016Y-91959267D03*
%TO.P,U1,25,B7*%
%TO.N,unconnected-(U1-Pad25)*%
X178308016Y-119899267D03*
%TO.P,U1,26,D5*%
%TO.N,unconnected-(U1-Pad26)*%
X180848016Y-119899267D03*
%TO.P,U1,27,C7*%
%TO.N,unconnected-(U1-Pad27)*%
X183388016Y-119899267D03*
%TO.P,U1,28,F1*%
%TO.N,unconnected-(U1-Pad28)*%
X185928016Y-119899267D03*
%TO.P,U1,29,F0*%
%TO.N,unconnected-(U1-Pad29)*%
X188468016Y-119899267D03*
%TD*%
D10*
%TO.P,MX48,1,COL*%
%TO.N,COL4*%
X224524784Y-119952653D03*
D11*
%TO.P,MX48,2,ROW*%
%TO.N,Net-(D48-Pad2)*%
X236485324Y-114429574D03*
%TD*%
D13*
%TO.P,MX9,1,COL*%
%TO.N,COL2*%
X100374782Y-70578975D03*
%TO.P,MX9,2,ROW*%
%TO.N,Net-(D9-Pad2)*%
X113535875Y-71165956D03*
%TD*%
%TO.P,MX7,1,COL*%
%TO.N,COL0*%
X62213514Y-66264119D03*
%TO.P,MX7,2,ROW*%
%TO.N,Net-(D7-Pad2)*%
X75374607Y-66851100D03*
%TD*%
D11*
%TO.P,MX56,1,COL*%
%TO.N,COL2*%
X238750368Y-138494198D03*
%TO.P,MX56,2,ROW*%
%TO.N,Net-(D56-Pad2)*%
X250710908Y-132971119D03*
%TD*%
D10*
%TO.P,MX33,1,COL*%
%TO.N,COL1*%
X267690196Y-55604605D03*
D11*
%TO.P,MX33,2,ROW*%
%TO.N,Net-(D33-Pad2)*%
X279650736Y-50081526D03*
%TD*%
D10*
%TO.P,MX39,1,COL*%
%TO.N,COL1*%
X272192271Y-74114978D03*
D11*
%TO.P,MX39,2,ROW*%
%TO.N,Net-(D39-Pad2)*%
X284152811Y-68591899D03*
%TD*%
D10*
%TO.P,MX47,1,COL*%
%TO.N,COL5*%
X206554663Y-126675972D03*
D11*
%TO.P,MX47,2,ROW*%
%TO.N,Net-(D47-Pad2)*%
X218515203Y-121152893D03*
%TD*%
D13*
%TO.P,MX19,1,COL*%
%TO.N,COL0*%
X53209364Y-103284858D03*
%TO.P,MX19,2,ROW*%
%TO.N,Net-(D19-Pad2)*%
X66370457Y-103871839D03*
%TD*%
%TO.P,MX13,1,COL*%
%TO.N,COL0*%
X57711439Y-84774488D03*
%TO.P,MX13,2,ROW*%
%TO.N,Net-(D13-Pad2)*%
X70872532Y-85361469D03*
%TD*%
%TO.P,MX16,1,COL*%
%TO.N,COL3*%
X114923327Y-91370171D03*
%TO.P,MX16,2,ROW*%
%TO.N,Net-(D16-Pad2)*%
X128084420Y-91957152D03*
%TD*%
%TO.P,MX4,1,COL*%
%TO.N,COL3*%
X123927480Y-54349434D03*
%TO.P,MX4,2,ROW*%
%TO.N,Net-(D4-Pad2)*%
X137088573Y-54936415D03*
%TD*%
%TO.P,MX15,1,COL*%
%TO.N,COL2*%
X95872706Y-89089344D03*
%TO.P,MX15,2,ROW*%
%TO.N,Net-(D15-Pad2)*%
X109033799Y-89676325D03*
%TD*%
D10*
%TO.P,MX30,1,COL*%
%TO.N,COL4*%
X211018558Y-64421541D03*
D11*
%TO.P,MX30,2,ROW*%
%TO.N,Net-(D30-Pad2)*%
X222979098Y-58898462D03*
%TD*%
D13*
%TO.P,MX26,1,COL*%
%TO.N,COL3*%
X132135907Y-141868728D03*
%TO.P,MX26,2,ROW*%
%TO.N,Net-(D26-Pad2)*%
X145296999Y-142455709D03*
%TD*%
D10*
%TO.P,MX41,1,COL*%
%TO.N,COL5*%
X202052587Y-108165598D03*
D11*
%TO.P,MX41,2,ROW*%
%TO.N,Net-(D41-Pad2)*%
X214013127Y-102642519D03*
%TD*%
D10*
%TO.P,MX43,1,COL*%
%TO.N,COL3*%
X237966594Y-94725343D03*
D11*
%TO.P,MX43,2,ROW*%
%TO.N,Net-(D43-Pad2)*%
X249927134Y-89202264D03*
%TD*%
D15*
%TO.P,MX27,1,COL*%
%TO.N,COL4*%
X150571411Y-162593588D03*
%TO.P,MX27,2,ROW*%
%TO.N,Net-(D27-Pad2)*%
X157646726Y-151480585D03*
%TD*%
D18*
%TO.P,D28,1,K*%
%TO.N,ROW4*%
X160828723Y-143135034D03*
D19*
%TO.P,D28,2,A*%
%TO.N,Net-(D28-Pad2)*%
X154658599Y-141634342D03*
%TD*%
D18*
%TO.P,D11,1,K*%
%TO.N,ROW1*%
X151535396Y-77091944D03*
D19*
%TO.P,D11,2,A*%
%TO.N,Net-(D11-Pad2)*%
X145365272Y-75591252D03*
%TD*%
D20*
%TO.P,D54,1,K*%
%TO.N,ROW9*%
X216766558Y-146777295D03*
D19*
%TO.P,D54,2,A*%
%TO.N,Net-(D54-Pad2)*%
X210596434Y-148277987D03*
%TD*%
D20*
%TO.P,D40,1,K*%
%TO.N,ROW6*%
X302022476Y-60951631D03*
D19*
%TO.P,D40,2,A*%
%TO.N,Net-(D40-Pad2)*%
X295852352Y-62452323D03*
%TD*%
D18*
%TO.P,D24,1,K*%
%TO.N,ROW3*%
X160377966Y-120805993D03*
D19*
%TO.P,D24,2,A*%
%TO.N,Net-(D24-Pad2)*%
X154207842Y-119305301D03*
%TD*%
D20*
%TO.P,D29,1,K*%
%TO.N,ROW5*%
X208270069Y-78525906D03*
D19*
%TO.P,D29,2,A*%
%TO.N,Net-(D29-Pad2)*%
X202099945Y-80026598D03*
%TD*%
D18*
%TO.P,D8,1,K*%
%TO.N,ROW1*%
X94863758Y-68275012D03*
D19*
%TO.P,D8,2,A*%
%TO.N,Net-(D8-Pad2)*%
X88693634Y-66774320D03*
%TD*%
D20*
%TO.P,D37,1,K*%
%TO.N,ROW6*%
X244810588Y-67547318D03*
D19*
%TO.P,D37,2,A*%
%TO.N,Net-(D37-Pad2)*%
X238640464Y-69048010D03*
%TD*%
D20*
%TO.P,D43,1,K*%
%TO.N,ROW7*%
X252967657Y-102160036D03*
D19*
%TO.P,D43,2,A*%
%TO.N,Net-(D43-Pad2)*%
X246797533Y-103660728D03*
%TD*%
D20*
%TO.P,D49,1,K*%
%TO.N,ROW8*%
X253567934Y-104628087D03*
D19*
%TO.P,D49,2,A*%
%TO.N,Net-(D49-Pad2)*%
X247397810Y-106128779D03*
%TD*%
D18*
%TO.P,D12,1,K*%
%TO.N,ROW1*%
X169505518Y-83815262D03*
D19*
%TO.P,D12,2,A*%
%TO.N,Net-(D12-Pad2)*%
X163335394Y-82314570D03*
%TD*%
D20*
%TO.P,D47,1,K*%
%TO.N,ROW8*%
X217874495Y-118014699D03*
D19*
%TO.P,D47,2,A*%
%TO.N,Net-(D47-Pad2)*%
X211704371Y-119515391D03*
%TD*%
D18*
%TO.P,D23,1,K*%
%TO.N,ROW2*%
X160978242Y-118337944D03*
D19*
%TO.P,D23,2,A*%
%TO.N,Net-(D18-Pad2)*%
X154808118Y-116837252D03*
%TD*%
D20*
%TO.P,D39,1,K*%
%TO.N,ROW6*%
X283512104Y-65453706D03*
D19*
%TO.P,D39,2,A*%
%TO.N,Net-(D39-Pad2)*%
X277341980Y-66954398D03*
%TD*%
D20*
%TO.P,D55,1,K*%
%TO.N,ROW9*%
X232048604Y-136525290D03*
D19*
%TO.P,D55,2,A*%
%TO.N,Net-(D55-Pad2)*%
X225878480Y-138025982D03*
%TD*%
D20*
%TO.P,D50,1,K*%
%TO.N,ROW8*%
X272805331Y-102040420D03*
D19*
%TO.P,D50,2,A*%
%TO.N,Net-(D50-Pad2)*%
X266635207Y-103541112D03*
%TD*%
D18*
%TO.P,D16,1,K*%
%TO.N,ROW3*%
X85612803Y-105235728D03*
D19*
%TO.P,D16,2,A*%
%TO.N,Net-(D20-Pad2)*%
X79442679Y-103735036D03*
%TD*%
D20*
%TO.P,D30,1,K*%
%TO.N,ROW5*%
X226240189Y-71802587D03*
D19*
%TO.P,D30,2,A*%
%TO.N,Net-(D30-Pad2)*%
X220070065Y-73303279D03*
%TD*%
D20*
%TO.P,D31,1,K*%
%TO.N,ROW5*%
X244210313Y-65079266D03*
D19*
%TO.P,D31,2,A*%
%TO.N,Net-(D31-Pad2)*%
X238040189Y-66579958D03*
%TD*%
D18*
%TO.P,D27,1,K*%
%TO.N,ROW4*%
X155992821Y-147971162D03*
D19*
%TO.P,D27,2,A*%
%TO.N,Net-(D27-Pad2)*%
X149822697Y-146470470D03*
%TD*%
D18*
%TO.P,D26,1,K*%
%TO.N,ROW4*%
X146080456Y-139286571D03*
D19*
%TO.P,D26,2,A*%
%TO.N,Net-(D26-Pad2)*%
X139910332Y-137785879D03*
%TD*%
D20*
%TO.P,D44,1,K*%
%TO.N,ROW7*%
X272265082Y-99819179D03*
D19*
%TO.P,D44,2,A*%
%TO.N,Net-(D44-Pad2)*%
X266094958Y-101319871D03*
%TD*%
D20*
%TO.P,D41,1,K*%
%TO.N,ROW7*%
X217274218Y-115546648D03*
D19*
%TO.P,D41,2,A*%
%TO.N,Net-(D41-Pad2)*%
X211104094Y-117047340D03*
%TD*%
D18*
%TO.P,D25,1,K*%
%TO.N,ROW4*%
X128110334Y-132563251D03*
D19*
%TO.P,D25,2,A*%
%TO.N,Net-(D25-Pad2)*%
X121940210Y-131062559D03*
%TD*%
D20*
%TO.P,D42,1,K*%
%TO.N,ROW7*%
X235244342Y-108823330D03*
D19*
%TO.P,D42,2,A*%
%TO.N,Net-(D42-Pad2)*%
X229074218Y-110324022D03*
%TD*%
D20*
%TO.P,D33,1,K*%
%TO.N,ROW5*%
X282911828Y-62985654D03*
D19*
%TO.P,D33,2,A*%
%TO.N,Net-(D33-Pad2)*%
X276741704Y-64486346D03*
%TD*%
D18*
%TO.P,D10,1,K*%
%TO.N,ROW1*%
X133441873Y-70338610D03*
D19*
%TO.P,D10,2,A*%
%TO.N,Net-(D10-Pad2)*%
X127271749Y-68837918D03*
%TD*%
D20*
%TO.P,D56,1,K*%
%TO.N,ROW9*%
X250018724Y-129801967D03*
D19*
%TO.P,D56,2,A*%
%TO.N,Net-(D56-Pad2)*%
X243848600Y-131302659D03*
%TD*%
D20*
%TO.P,D38,1,K*%
%TO.N,ROW6*%
X263861209Y-65266487D03*
D19*
%TO.P,D38,2,A*%
%TO.N,Net-(D38-Pad2)*%
X257691085Y-66767179D03*
%TD*%
D18*
%TO.P,D6,1,K*%
%TO.N,ROW0*%
X170105795Y-81347217D03*
D19*
%TO.P,D6,2,A*%
%TO.N,Net-(D6-Pad2)*%
X163935671Y-79846525D03*
%TD*%
D18*
%TO.P,D17,1,K*%
%TO.N,ROW2*%
X105863975Y-102580460D03*
D19*
%TO.P,D17,2,A*%
%TO.N,Net-(D15-Pad2)*%
X99693851Y-101079768D03*
%TD*%
D20*
%TO.P,D48,1,K*%
%TO.N,ROW8*%
X235844616Y-111291377D03*
D19*
%TO.P,D48,2,A*%
%TO.N,Net-(D48-Pad2)*%
X229674492Y-112792069D03*
%TD*%
D18*
%TO.P,D2,1,K*%
%TO.N,ROW0*%
X95464036Y-65806965D03*
D19*
%TO.P,D2,2,A*%
%TO.N,Net-(D2-Pad2)*%
X89293912Y-64306273D03*
%TD*%
D20*
%TO.P,D51,1,K*%
%TO.N,ROW8*%
X292516254Y-102474447D03*
D19*
%TO.P,D51,2,A*%
%TO.N,Net-(D51-Pad2)*%
X286346130Y-103975139D03*
%TD*%
D18*
%TO.P,D22,1,K*%
%TO.N,ROW3*%
X142284442Y-114052660D03*
D19*
%TO.P,D22,2,A*%
%TO.N,Net-(D23-Pad2)*%
X136114318Y-112551968D03*
%TD*%
D18*
%TO.P,D9,1,K*%
%TO.N,ROW1*%
X114514656Y-68087794D03*
D19*
%TO.P,D9,2,A*%
%TO.N,Net-(D9-Pad2)*%
X108344532Y-66587102D03*
%TD*%
D20*
%TO.P,D36,1,K*%
%TO.N,ROW6*%
X226840467Y-74270638D03*
D19*
%TO.P,D36,2,A*%
%TO.N,Net-(D36-Pad2)*%
X220670343Y-75771330D03*
%TD*%
D20*
%TO.P,D46,1,K*%
%TO.N,ROW7*%
X310426351Y-95504322D03*
D19*
%TO.P,D46,2,A*%
%TO.N,Net-(D46-Pad2)*%
X304256227Y-97005014D03*
%TD*%
D18*
%TO.P,D1,1,K*%
%TO.N,ROW0*%
X76953665Y-61304892D03*
D19*
%TO.P,D1,2,A*%
%TO.N,Net-(D1-Pad2)*%
X70783541Y-59804200D03*
%TD*%
D20*
%TO.P,D34,1,K*%
%TO.N,ROW5*%
X301422198Y-58483581D03*
D19*
%TO.P,D34,2,A*%
%TO.N,Net-(D34-Pad2)*%
X295252074Y-59984273D03*
%TD*%
D18*
%TO.P,D21,1,K*%
%TO.N,ROW2*%
X142884718Y-111584610D03*
D19*
%TO.P,D21,2,A*%
%TO.N,Net-(D17-Pad2)*%
X136714594Y-110083918D03*
%TD*%
D18*
%TO.P,D20,1,K*%
%TO.N,ROW3*%
X124314318Y-107329339D03*
D19*
%TO.P,D20,2,A*%
%TO.N,Net-(D22-Pad2)*%
X118144194Y-105828647D03*
%TD*%
D20*
%TO.P,D45,1,K*%
%TO.N,ROW7*%
X291915979Y-100006398D03*
D19*
%TO.P,D45,2,A*%
%TO.N,Net-(D45-Pad2)*%
X285745855Y-101507090D03*
%TD*%
D18*
%TO.P,D3,1,K*%
%TO.N,ROW0*%
X115114933Y-65619746D03*
D19*
%TO.P,D3,2,A*%
%TO.N,Net-(D3-Pad2)*%
X108944809Y-64119054D03*
%TD*%
D18*
%TO.P,D14,1,K*%
%TO.N,ROW3*%
X67102432Y-100733650D03*
D19*
%TO.P,D14,2,A*%
%TO.N,Net-(D19-Pad2)*%
X60932308Y-99232958D03*
%TD*%
D20*
%TO.P,D32,1,K*%
%TO.N,ROW5*%
X263260931Y-62798438D03*
D19*
%TO.P,D32,2,A*%
%TO.N,Net-(D32-Pad2)*%
X257090807Y-64299130D03*
%TD*%
D20*
%TO.P,D52,1,K*%
%TO.N,ROW8*%
X311026624Y-97972372D03*
D19*
%TO.P,D52,2,A*%
%TO.N,Net-(D52-Pad2)*%
X304856500Y-99473064D03*
%TD*%
D18*
%TO.P,D19,1,K*%
%TO.N,ROW2*%
X124914597Y-104861291D03*
D19*
%TO.P,D19,2,A*%
%TO.N,Net-(D16-Pad2)*%
X118744473Y-103360599D03*
%TD*%
D18*
%TO.P,D13,1,K*%
%TO.N,ROW2*%
X67702710Y-98265603D03*
D19*
%TO.P,D13,2,A*%
%TO.N,Net-(D13-Pad2)*%
X61532586Y-96764911D03*
%TD*%
D20*
%TO.P,D53,1,K*%
%TO.N,ROW9*%
X212304209Y-141327504D03*
D19*
%TO.P,D53,2,A*%
%TO.N,Net-(D53-Pad2)*%
X206134085Y-142828196D03*
%TD*%
D18*
%TO.P,D5,1,K*%
%TO.N,ROW0*%
X152135674Y-74623897D03*
D19*
%TO.P,D5,2,A*%
%TO.N,Net-(D5-Pad2)*%
X145965550Y-73123205D03*
%TD*%
D18*
%TO.P,D18,1,K*%
%TO.N,ROW3*%
X105263701Y-105048508D03*
D19*
%TO.P,D18,2,A*%
%TO.N,Net-(D21-Pad2)*%
X99093577Y-103547816D03*
%TD*%
D18*
%TO.P,D15,1,K*%
%TO.N,ROW2*%
X86213081Y-102767678D03*
D19*
%TO.P,D15,2,A*%
%TO.N,Net-(D14-Pad2)*%
X80042957Y-101266986D03*
%TD*%
D18*
%TO.P,D4,1,K*%
%TO.N,ROW0*%
X134042150Y-67870563D03*
D19*
%TO.P,D4,2,A*%
%TO.N,Net-(D4-Pad2)*%
X127872026Y-66369871D03*
%TD*%
D18*
%TO.P,D7,1,K*%
%TO.N,ROW1*%
X76353388Y-63772938D03*
D19*
%TO.P,D7,2,A*%
%TO.N,Net-(D7-Pad2)*%
X70183264Y-62272246D03*
%TD*%
D20*
%TO.P,D35,1,K*%
%TO.N,ROW6*%
X208870345Y-80993958D03*
D19*
%TO.P,D35,2,A*%
%TO.N,Net-(D35-Pad2)*%
X202700221Y-82494650D03*
%TD*%
D21*
%TO.N,COL0*%
X183388015Y-61778517D03*
%TO.N,COL1*%
X183388017Y-63048517D03*
%TO.N,COL2*%
X183388016Y-64318517D03*
%TO.N,COL3*%
X183388015Y-65588517D03*
%TO.N,COL4*%
X183388017Y-66858517D03*
%TO.N,COL5*%
X183388016Y-68128517D03*
%TD*%
D22*
%TO.N,Net-(D1-Pad2)*%
X76943405Y-50061987D02*
X79704897Y-48380987D01*
X71653945Y-56225526D02*
X75796182Y-53704032D01*
X75796182Y-53704032D02*
X76103016Y-53517256D01*
X70783542Y-59804198D02*
X71653945Y-56225526D01*
X76103016Y-53517256D02*
X76943405Y-50061987D01*
%TO.N,Net-(D2-Pad2)*%
X89293913Y-64306273D02*
X93436154Y-61784780D01*
X93436154Y-61784780D02*
X95026886Y-55244449D01*
X95026886Y-55244449D02*
X95086912Y-54997644D01*
X95086912Y-54997644D02*
X98462073Y-52943094D01*
%TO.N,Net-(D3-Pad2)*%
X108944807Y-64119055D02*
X113087049Y-61597561D01*
X113087049Y-61597561D02*
X114617754Y-55304031D01*
X114617754Y-55304031D02*
X114737814Y-54810425D01*
X114737814Y-54810425D02*
X118112968Y-52755876D01*
%TO.N,Net-(D4-Pad2)*%
X127872026Y-66369872D02*
X132167682Y-63754988D01*
X133788428Y-57091256D02*
X137163591Y-55036705D01*
X133728402Y-57338061D02*
X133788428Y-57091256D01*
X132167682Y-63754988D02*
X133728402Y-57338061D01*
%TO.N,Net-(D5-Pad2)*%
X145965550Y-73123205D02*
X150107791Y-70601712D01*
X151758552Y-63814576D02*
X155133710Y-61760023D01*
X150107791Y-70601712D02*
X151218302Y-66035821D01*
X151218302Y-66035821D02*
X151758552Y-63814576D01*
%TO.N,Net-(D6-Pad2)*%
X163935672Y-79846521D02*
X168077911Y-77325032D01*
X169728673Y-70537893D02*
X173103832Y-68483346D01*
X169608616Y-71031502D02*
X169728673Y-70537893D01*
X168077911Y-77325032D02*
X169608616Y-71031502D01*
%TO.N,Net-(D7-Pad2)*%
X70183266Y-62272247D02*
X73021522Y-62962565D01*
X73021522Y-62962565D02*
X75449625Y-66951389D01*
%TO.N,Net-(D8-Pad2)*%
X91531893Y-67464641D02*
X93959998Y-71453465D01*
X88693634Y-66774321D02*
X91531893Y-67464641D01*
%TO.N,Net-(D9-Pad2)*%
X111182790Y-67277422D02*
X113610894Y-71266246D01*
X108344532Y-66587104D02*
X111182790Y-67277422D01*
%TO.N,Net-(D10-Pad2)*%
X127271750Y-68837921D02*
X130233407Y-69558252D01*
X130233407Y-69558252D02*
X132661514Y-73547075D01*
%TO.N,Net-(D11-Pad2)*%
X148203530Y-76281573D02*
X150631635Y-80270397D01*
X145365273Y-75591256D02*
X148203530Y-76281573D01*
%TO.N,Net-(D12-Pad2)*%
X163335393Y-82314574D02*
X166173652Y-83004893D01*
X166173652Y-83004893D02*
X168601756Y-86993716D01*
%TO.N,Net-(D13-Pad2)*%
X61532586Y-96764910D02*
X66719608Y-93607432D01*
X66719608Y-93607432D02*
X68352009Y-86895776D01*
X68352009Y-86895776D02*
X70872532Y-85361469D01*
%TO.N,Net-(D14-Pad2)*%
X80042957Y-101266987D02*
X85229979Y-98109507D01*
X86862381Y-91397854D02*
X89382903Y-89863544D01*
X85229979Y-98109507D02*
X86862381Y-91397854D01*
%TO.N,Net-(D15-Pad2)*%
X99693854Y-101079768D02*
X104880877Y-97922288D01*
X106513276Y-91210630D02*
X109033798Y-89676321D01*
X104880877Y-97922288D02*
X106513276Y-91210630D01*
%TO.N,Net-(D16-Pad2)*%
X123931495Y-100203119D02*
X125563896Y-93491463D01*
X118744473Y-103360599D02*
X123931495Y-100203119D01*
X125563896Y-93491463D02*
X128084420Y-91957157D01*
%TO.N,Net-(D17-Pad2)*%
X136714593Y-110083917D02*
X141901616Y-106926439D01*
X143534018Y-100214786D02*
X146054540Y-98680476D01*
X141901616Y-106926439D02*
X143534018Y-100214786D01*
%TO.N,Net-(D18-Pad2)*%
X161504140Y-106938106D02*
X164024663Y-105403796D01*
X159841723Y-113773159D02*
X161504140Y-106938106D01*
X154808119Y-116837252D02*
X159841723Y-113773159D01*
%TO.N,Net-(D19-Pad2)*%
X64000976Y-99979319D02*
X66370457Y-103871838D01*
X60932308Y-99232960D02*
X64000976Y-99979319D01*
%TO.N,Net-(D20-Pad2)*%
X79442681Y-103735036D02*
X82511346Y-104481393D01*
X82511346Y-104481393D02*
X84880827Y-108373916D01*
%TO.N,Net-(D21-Pad2)*%
X99093576Y-103547815D02*
X102162242Y-104294175D01*
X102162242Y-104294175D02*
X104531724Y-108186696D01*
%TO.N,Net-(D22-Pad2)*%
X118144197Y-105828648D02*
X121212861Y-106575006D01*
X121212861Y-106575006D02*
X123582344Y-110467527D01*
%TO.N,Net-(D23-Pad2)*%
X136114316Y-112551967D02*
X139182983Y-113298326D01*
X139182983Y-113298326D02*
X141552465Y-117190843D01*
%TO.N,Net-(D24-Pad2)*%
X154207842Y-119305303D02*
X157153105Y-120021646D01*
X157153105Y-120021646D02*
X159522587Y-123914161D01*
%TO.N,Net-(D25-Pad2)*%
X121940211Y-131062559D02*
X124926335Y-131788838D01*
X124926335Y-131788838D02*
X127326880Y-135732392D01*
%TO.N,Net-(D26-Pad2)*%
X142896457Y-138512161D02*
X145297000Y-142455709D01*
X139910332Y-137785879D02*
X142896457Y-138512161D01*
%TO.N,Net-(D27-Pad2)*%
X149822696Y-146470470D02*
X152042803Y-150117600D01*
X152042803Y-150117600D02*
X157646729Y-151480584D01*
%TO.N,Net-(D28-Pad2)*%
X163897724Y-136010238D02*
X170783979Y-137685109D01*
X154658600Y-141634344D02*
X163897724Y-136010238D01*
%TO.N,Net-(D29-Pad2)*%
X203474666Y-68142304D02*
X205008977Y-65621782D01*
X202099945Y-80026600D02*
X205147495Y-75020166D01*
X205147495Y-75020166D02*
X203474666Y-68142304D01*
%TO.N,Net-(D30-Pad2)*%
X220070067Y-73303280D02*
X223117617Y-68296850D01*
X223117617Y-68296850D02*
X221444788Y-61418984D01*
X221444788Y-61418984D02*
X222979096Y-58898460D01*
%TO.N,Net-(D31-Pad2)*%
X241067885Y-61606145D02*
X239388676Y-54702045D01*
X239388676Y-54702045D02*
X240922988Y-52181521D01*
X238040189Y-66579959D02*
X241067885Y-61606145D01*
%TO.N,Net-(D32-Pad2)*%
X258465530Y-52414833D02*
X259999837Y-49894309D01*
X257090808Y-64299130D02*
X260138356Y-59292698D01*
X260138356Y-59292698D02*
X258465530Y-52414833D01*
%TO.N,Net-(D33-Pad2)*%
X278116427Y-52602048D02*
X279650737Y-50081529D01*
X276741704Y-64486348D02*
X279789256Y-59479915D01*
X279789256Y-59479915D02*
X278116427Y-52602048D01*
%TO.N,Net-(D34-Pad2)*%
X295252075Y-59984273D02*
X298299624Y-54977840D01*
X296626795Y-48099977D02*
X298161105Y-45579452D01*
X298299624Y-54977840D02*
X296626795Y-48099977D01*
%TO.N,Net-(D35-Pad2)*%
X205644579Y-81778526D02*
X209511050Y-84132152D01*
X202700221Y-82494646D02*
X205644579Y-81778526D01*
%TO.N,Net-(D36-Pad2)*%
X223614700Y-75055206D02*
X227481174Y-77408833D01*
X220670343Y-75771330D02*
X223614700Y-75055206D01*
%TO.N,Net-(D37-Pad2)*%
X238640466Y-69048010D02*
X241558585Y-68338264D01*
X241558585Y-68338264D02*
X245425060Y-70691894D01*
%TO.N,Net-(D38-Pad2)*%
X260635441Y-66051053D02*
X264501917Y-68404681D01*
X257691083Y-66767177D02*
X260635441Y-66051053D01*
%TO.N,Net-(D39-Pad2)*%
X277341982Y-66954398D02*
X280286337Y-66238274D01*
X280286337Y-66238274D02*
X284152809Y-68591898D01*
%TO.N,Net-(D40-Pad2)*%
X295852350Y-62452321D02*
X298796709Y-61736195D01*
X298796709Y-61736195D02*
X302663181Y-64089822D01*
%TO.N,Net-(D41-Pad2)*%
X214151645Y-112040907D02*
X212478817Y-105163042D01*
X212478817Y-105163042D02*
X214013127Y-102642522D01*
X211104098Y-117047341D02*
X214151645Y-112040907D01*
%TO.N,Net-(D42-Pad2)*%
X232121766Y-105317592D02*
X230448938Y-98439725D01*
X229074216Y-110324020D02*
X232121766Y-105317592D01*
X230448938Y-98439725D02*
X231983248Y-95919199D01*
%TO.N,Net-(D43-Pad2)*%
X248392823Y-91722785D02*
X249927133Y-89202264D01*
X246797535Y-103660729D02*
X250012007Y-98380083D01*
X250012007Y-98380083D02*
X248392823Y-91722785D01*
%TO.N,Net-(D44-Pad2)*%
X269142506Y-96313439D02*
X267469678Y-89435573D01*
X266094958Y-101319871D02*
X269142506Y-96313439D01*
X267469678Y-89435573D02*
X269003990Y-86915052D01*
%TO.N,Net-(D45-Pad2)*%
X287120576Y-89622793D02*
X288654885Y-87102267D01*
X285745854Y-101507088D02*
X288793405Y-96500659D01*
X288793405Y-96500659D02*
X287120576Y-89622793D01*
%TO.N,Net-(D46-Pad2)*%
X305630947Y-85120718D02*
X307165257Y-82600195D01*
X304256225Y-97005012D02*
X307303775Y-91998581D01*
X307303775Y-91998581D02*
X305630947Y-85120718D01*
%TO.N,Net-(D47-Pad2)*%
X211704373Y-119515390D02*
X214648730Y-118799267D01*
X214648730Y-118799267D02*
X218515204Y-121152889D01*
%TO.N,Net-(D48-Pad2)*%
X229674494Y-112792071D02*
X232618851Y-112075947D01*
X232618851Y-112075947D02*
X236485324Y-114429574D01*
%TO.N,Net-(D49-Pad2)*%
X247397810Y-106128780D02*
X250562737Y-105359005D01*
X250562737Y-105359005D02*
X254429211Y-107712635D01*
%TO.N,Net-(D50-Pad2)*%
X269332757Y-102885018D02*
X273506064Y-105425423D01*
X266635208Y-103541115D02*
X269332757Y-102885018D01*
%TO.N,Net-(D51-Pad2)*%
X286346131Y-103975139D02*
X289290488Y-103259015D01*
X289290488Y-103259015D02*
X293156963Y-105612642D01*
%TO.N,Net-(D52-Pad2)*%
X304856502Y-99473060D02*
X307800858Y-98756940D01*
X307800858Y-98756940D02*
X311667331Y-101110568D01*
%TO.N,Net-(D53-Pad2)*%
X205951035Y-142872713D02*
X206134084Y-142828192D01*
X203958295Y-146146331D02*
X205951035Y-142872713D01*
%TO.N,Net-(D54-Pad2)*%
X210596435Y-148277987D02*
X215169358Y-151061648D01*
X217262482Y-159667573D02*
X217095549Y-159941809D01*
X215169358Y-151061648D02*
X217262482Y-159667573D01*
%TO.N,Net-(D55-Pad2)*%
X225878478Y-138025982D02*
X228823285Y-137309750D01*
X228823285Y-137309750D02*
X232740789Y-139694439D01*
%TO.N,Net-(D56-Pad2)*%
X246793410Y-130586429D02*
X250710908Y-132971115D01*
X243848600Y-131302662D02*
X246793410Y-130586429D01*
%TO.N,COL0*%
X91802753Y-40604998D02*
X139529195Y-52212979D01*
X235942741Y-50538392D02*
X235696514Y-50942888D01*
X235696514Y-50942888D02*
X185602705Y-63126658D01*
X286200564Y-51102533D02*
X281230185Y-48076929D01*
X295160374Y-87940962D02*
X295134703Y-87983135D01*
X62213517Y-66264116D02*
X62213512Y-66264117D01*
X81582377Y-46826416D02*
X91802753Y-40604998D01*
X62213512Y-66264117D02*
X57711439Y-84774484D01*
X140085563Y-53126966D02*
X181180797Y-63122110D01*
X281230185Y-48076929D02*
X277180165Y-49061973D01*
X139529195Y-52212979D02*
X140085563Y-53126966D01*
X57711439Y-84774484D02*
X53209364Y-103284853D01*
X290702640Y-69612902D02*
X295160374Y-87940962D01*
X66715591Y-47753743D02*
X62213517Y-66264116D01*
X277180165Y-49061973D02*
X267140434Y-42950518D01*
X295204715Y-88123275D02*
X299722477Y-106698139D01*
X185602705Y-63126658D02*
X183388015Y-61778517D01*
X267140434Y-42950518D02*
X235942741Y-50538392D01*
X72048343Y-44507556D02*
X81582377Y-46826416D01*
X66715591Y-47753746D02*
X72048343Y-44507556D01*
X181180797Y-63122110D02*
X183388015Y-61778517D01*
X286200565Y-51102534D02*
X290778353Y-69924204D01*
%TO.N,COL1*%
X235940669Y-51406315D02*
X236229899Y-50931175D01*
X85225960Y-52255818D02*
X80781521Y-70529224D01*
X76221809Y-89276563D02*
X71717341Y-107796772D01*
X100236068Y-43118765D02*
X139242039Y-52605762D01*
X139242039Y-52605762D02*
X139841410Y-53590393D01*
X85225960Y-52255820D02*
X100236068Y-43118765D01*
X266691247Y-51497407D02*
X267690196Y-55604608D01*
X80723883Y-70766191D02*
X76219417Y-89286401D01*
X182057837Y-63858233D02*
X183388017Y-63048517D01*
X257330308Y-45799153D02*
X266691247Y-51497407D01*
X236229899Y-50931175D02*
X257330308Y-45799153D01*
X139841410Y-53590393D02*
X182057837Y-63858233D01*
X183388017Y-63048517D02*
X184725667Y-63862782D01*
X276694344Y-92625348D02*
X281196422Y-111135718D01*
X80781521Y-70529224D02*
X80832697Y-70613298D01*
X71717341Y-107796772D02*
X71768518Y-107880844D01*
X272192270Y-74114980D02*
X276770058Y-92936649D01*
X184725667Y-63862782D02*
X235940669Y-51406315D01*
X267690197Y-55604607D02*
X272147930Y-73932666D01*
X272147930Y-73932666D02*
X272122259Y-73974840D01*
%TO.N,COL2*%
X95870313Y-89099183D02*
X95921490Y-89183255D01*
X241557971Y-50097911D02*
X236517057Y-51323957D01*
X238750368Y-133743655D02*
X238750368Y-138494198D01*
X236517057Y-51323957D02*
X236184824Y-51869741D01*
X261517684Y-110834033D02*
X261782345Y-110995136D01*
X257033466Y-92544796D02*
X257059137Y-92502625D01*
X183848627Y-64598903D02*
X183388016Y-64318517D01*
X236184824Y-51869741D02*
X183848627Y-64598903D01*
X138954880Y-52998544D02*
X139597254Y-54053819D01*
X252541376Y-73927760D02*
X257059137Y-92502625D01*
X104876858Y-52068603D02*
X100372389Y-70588809D01*
X139597254Y-54053819D02*
X182934877Y-64594355D01*
X248039297Y-55417391D02*
X252557058Y-73992255D01*
X257043449Y-92438132D02*
X261517684Y-110834033D01*
X113514123Y-46810868D02*
X138954880Y-52998544D01*
X247647003Y-53804468D02*
X241557971Y-50097911D01*
X261545523Y-110948502D02*
X238750368Y-133743655D01*
X182934877Y-64594355D02*
X183388016Y-64318517D01*
X100372389Y-70588809D02*
X100423564Y-70672880D01*
X91370630Y-107599711D02*
X91370630Y-112350250D01*
X100374781Y-70578970D02*
X95870313Y-89099183D01*
X104876858Y-52068603D02*
X113514123Y-46810868D01*
X91370630Y-112350250D02*
X114165789Y-135145407D01*
X91455398Y-107251193D02*
X91232638Y-107386793D01*
X248039297Y-55417390D02*
X247647003Y-53804468D01*
X95872704Y-89089342D02*
X91455398Y-107251193D01*
%TO.N,COL3*%
X233464518Y-76214974D02*
X238048690Y-95062879D01*
X132135907Y-134769539D02*
X122682016Y-125315648D01*
X119425401Y-72859805D02*
X114920931Y-91380013D01*
X183388015Y-65588517D02*
X183476175Y-65567075D01*
X139353101Y-54517246D02*
X183041821Y-65143176D01*
X138667722Y-53391325D02*
X139353101Y-54517246D01*
X242468670Y-113235714D02*
X242468670Y-119986913D01*
X183041821Y-65143176D02*
X183299859Y-65567074D01*
X129260232Y-51103245D02*
X138667722Y-53391325D01*
X238048690Y-95062879D02*
X238042874Y-95072431D01*
X183729667Y-65150646D02*
X224789140Y-55164198D01*
X228962443Y-57704601D02*
X233546613Y-76552505D01*
X224789140Y-55164198D02*
X228962444Y-57704600D01*
X123927474Y-54349433D02*
X119423008Y-72869643D01*
X242468670Y-119986913D02*
X220780249Y-141675336D01*
X237966593Y-94725342D02*
X242490738Y-113326444D01*
X110421251Y-113347666D02*
X110421251Y-109880546D01*
X122352101Y-125278516D02*
X110421251Y-113347666D01*
X220780249Y-141675336D02*
X220780247Y-145217517D01*
X183299859Y-65567074D02*
X183388015Y-65588517D01*
X132135908Y-141868730D02*
X132135907Y-134769539D01*
X183476175Y-65567075D02*
X183729667Y-65150646D01*
X242490738Y-113326444D02*
X242484921Y-113335998D01*
X122682016Y-125278517D02*
X122352101Y-125278516D01*
X123927478Y-54349435D02*
X129260232Y-51103245D01*
X110538912Y-109396775D02*
X110590089Y-109480846D01*
X114920931Y-91380013D02*
X114972109Y-91464086D01*
X122682016Y-125315648D02*
X122682016Y-125278517D01*
X114923327Y-91370175D02*
X110538912Y-109396775D01*
%TO.N,COL4*%
X206341439Y-151084103D02*
X206341439Y-152332073D01*
X128391371Y-120070985D02*
X135630902Y-127310516D01*
X128391372Y-116603865D02*
X128391371Y-120070985D01*
X211018557Y-64421541D02*
X215536320Y-82996403D01*
X135636016Y-127310517D02*
X135636016Y-137978516D01*
X220022707Y-101442280D02*
X224540470Y-120017147D01*
X210172067Y-147253476D02*
X206341439Y-151084103D01*
X142031511Y-144374010D02*
X142031511Y-154053687D01*
X137393128Y-79592963D02*
X137444305Y-79677035D01*
X135630902Y-127310516D02*
X135636016Y-127310517D01*
X141897598Y-61072753D02*
X147230350Y-57826563D01*
X128388979Y-116613704D02*
X128440154Y-116697774D01*
X137395520Y-79583123D02*
X132891053Y-98103329D01*
X142031511Y-154053687D02*
X150571411Y-162593589D01*
X215520633Y-82931913D02*
X219978365Y-101259970D01*
X211695056Y-147253476D02*
X210172067Y-147253476D01*
X147230350Y-57826563D02*
X183218163Y-66579486D01*
X219978365Y-101259970D02*
X219952695Y-101302140D01*
X224524783Y-119952653D02*
X224524783Y-134423749D01*
X132893447Y-98093495D02*
X128388979Y-116613704D01*
X135636016Y-137978516D02*
X142031511Y-144374010D01*
X224524783Y-134423749D02*
X211695056Y-147253476D01*
X183432828Y-66784900D02*
X183388017Y-66858517D01*
X141897598Y-61072750D02*
X137393128Y-79592963D01*
X211018557Y-64421541D02*
X205917275Y-61316252D01*
X183218163Y-66579486D02*
X183388017Y-66858517D01*
X205917275Y-61316252D02*
X183432828Y-66784900D01*
%TO.N,COL5*%
X182396257Y-68732227D02*
X183388016Y-68128517D01*
X193048436Y-71144862D02*
X189686472Y-71962556D01*
X206570349Y-126740467D02*
X206544678Y-126782634D01*
X156826353Y-142658853D02*
X154234232Y-142658854D01*
X193048435Y-71144862D02*
X197566196Y-89719724D01*
X159867720Y-67796074D02*
X155423279Y-86069478D01*
X194694036Y-138536598D02*
X193204188Y-138536598D01*
X150921202Y-104579846D02*
X150972380Y-104663920D01*
X159867720Y-67796074D02*
X165200471Y-64549884D01*
X162965613Y-148798115D02*
X156826353Y-142658853D01*
X155423279Y-86069478D02*
X155474455Y-86153550D01*
X146361494Y-134786113D02*
X146361494Y-123327183D01*
X150863569Y-104816815D02*
X146361493Y-123327181D01*
X202052585Y-108165602D02*
X206570349Y-126740467D01*
X189686472Y-71962556D02*
X183388016Y-68128517D01*
X155365644Y-86306443D02*
X150921202Y-104579846D01*
X163708666Y-148798114D02*
X162965613Y-148798115D01*
X202068273Y-108230097D02*
X202042602Y-108272267D01*
X165200471Y-64549884D02*
X182396257Y-68732227D01*
X197550510Y-89655228D02*
X202068273Y-108230097D01*
X206554663Y-126675971D02*
X194694036Y-138536598D01*
X154234232Y-142658854D02*
X146361494Y-134786113D01*
%TD*%
M02*
