%TF.GenerationSoftware,KiCad,Pcbnew,(6.0.0-0)*%
%TF.CreationDate,2022-01-06T19:14:07+00:00*%
%TF.ProjectId,atreis,61747265-6973-42e6-9b69-6361645f7063,rev?*%
%TF.SameCoordinates,Original*%
%TF.FileFunction,Soldermask,Bot*%
%TF.FilePolarity,Negative*%
%FSLAX46Y46*%
G04 Gerber Fmt 4.6, Leading zero omitted, Abs format (unit mm)*
G04 Created by KiCad (PCBNEW (6.0.0-0)) date 2022-01-06 19:14:07*
%MOMM*%
%LPD*%
G01*
G04 APERTURE LIST*
G04 Aperture macros list*
%AMRotRect*
0 Rectangle, with rotation*
0 The origin of the aperture is its center*
0 $1 length*
0 $2 width*
0 $3 Rotation angle, in degrees counterclockwise*
0 Add horizontal line*
21,1,$1,$2,0,0,$3*%
G04 Aperture macros list end*
%ADD10C,3.000000*%
%ADD11C,1.900000*%
%ADD12C,4.100000*%
%ADD13RotRect,2.550000X2.500000X193.670000*%
%ADD14RotRect,2.550000X2.500000X193.669000*%
%ADD15C,2.000000*%
%ADD16RotRect,2.550000X2.500000X166.330000*%
%ADD17RotRect,2.550000X2.500000X133.600000*%
%ADD18RotRect,2.550000X2.500000X226.400000*%
%ADD19R,1.752600X1.752600*%
%ADD20C,1.752600*%
%ADD21RotRect,1.400000X1.400000X166.330000*%
%ADD22C,1.400000*%
%ADD23RotRect,1.400000X1.400000X193.670000*%
G04 APERTURE END LIST*
D10*
%TO.C,MX29*%
X201800513Y-66402141D03*
X196230666Y-70370883D03*
D11*
X205469116Y-70737964D03*
X195596918Y-73139070D03*
D12*
X200533017Y-71938517D03*
D13*
X193048437Y-71144861D03*
D14*
X205008977Y-65621782D03*
%TD*%
D10*
%TO.C,MX55*%
X229532324Y-140474797D03*
D12*
X228264828Y-146011173D03*
D11*
X223328729Y-147211726D03*
D10*
X223962477Y-144443539D03*
D11*
X233200927Y-144810620D03*
D14*
X220780248Y-145217517D03*
X232740788Y-139694438D03*
%TD*%
D12*
%TO.C,MX36*%
X223005215Y-83725568D03*
D11*
X227941314Y-82525015D03*
X218069116Y-84926121D03*
D10*
X218702864Y-82157934D03*
X224272711Y-78189192D03*
D13*
X215520635Y-82931912D03*
D14*
X227481175Y-77408833D03*
%TD*%
D15*
%TO.C,SW1*%
X201599792Y-53000442D03*
X195148242Y-53792592D03*
%TD*%
D10*
%TO.C,MX18*%
X154045801Y-105590794D03*
D11*
X162083697Y-110159811D03*
X152211499Y-107758705D03*
D12*
X157147598Y-108959258D03*
D10*
X160816201Y-104623436D03*
D16*
X150863572Y-104816815D03*
X164024665Y-105403796D03*
%TD*%
D10*
%TO.C,MX14*%
X79404039Y-90050538D03*
X86174439Y-89083180D03*
D12*
X82505836Y-93419002D03*
D11*
X87441935Y-94619555D03*
X77569737Y-92218449D03*
D16*
X76221810Y-89276559D03*
X89382903Y-89863540D03*
%TD*%
D10*
%TO.C,MX2*%
X88408189Y-53029801D03*
D11*
X96446085Y-57598818D03*
D12*
X91509986Y-56398265D03*
D10*
X95178589Y-52062443D03*
D11*
X86573887Y-55197712D03*
D16*
X85225960Y-52255822D03*
X98387053Y-52842803D03*
%TD*%
D12*
%TO.C,MX44*%
X264528030Y-93231787D03*
D11*
X259591931Y-94432340D03*
X269464129Y-92031234D03*
D10*
X260225679Y-91664153D03*
X265795526Y-87695411D03*
D13*
X257043450Y-92438131D03*
D14*
X269003990Y-86915052D03*
%TD*%
D11*
%TO.C,MX3*%
X116096983Y-57411599D03*
D10*
X114829487Y-51875224D03*
D12*
X111160884Y-56211046D03*
D11*
X106224785Y-55010493D03*
D10*
X108059087Y-52842582D03*
D16*
X104876858Y-52068603D03*
X118037951Y-52655584D03*
%TD*%
D12*
%TO.C,MX54*%
X209387998Y-159214464D03*
D10*
X214818425Y-157550593D03*
D11*
X212891265Y-162893257D03*
D10*
X208599944Y-154703736D03*
D11*
X205884731Y-155535671D03*
D17*
X206341440Y-152332073D03*
X217095548Y-159941809D03*
%TD*%
D10*
%TO.C,MX8*%
X90676514Y-70572811D03*
X83906114Y-71540169D03*
D11*
X91944010Y-76109186D03*
X82071812Y-73708080D03*
D12*
X87007911Y-74908633D03*
D16*
X80723885Y-70766190D03*
X93884978Y-71353171D03*
%TD*%
D11*
%TO.C,MX25*%
X115513714Y-138087297D03*
D12*
X120449813Y-139287850D03*
D11*
X125385912Y-140488403D03*
D10*
X117348016Y-135919386D03*
X124118416Y-134952028D03*
D16*
X114165788Y-135145407D03*
X127326880Y-135732388D03*
%TD*%
D11*
%TO.C,MX1*%
X68063516Y-50695636D03*
D10*
X76668218Y-47560367D03*
D11*
X77935714Y-53096742D03*
D12*
X72999615Y-51896189D03*
D10*
X69897818Y-48527725D03*
D16*
X66715590Y-47753746D03*
X79876682Y-48340727D03*
%TD*%
D12*
%TO.C,MX22*%
X116705276Y-114022989D03*
D10*
X120373879Y-109687167D03*
D11*
X111769177Y-112822436D03*
D10*
X113603479Y-110654525D03*
D11*
X121641375Y-115223542D03*
D16*
X110421250Y-109880546D03*
X123582343Y-110467527D03*
%TD*%
D10*
%TO.C,MX21*%
X94552860Y-108373690D03*
D12*
X97654657Y-111742154D03*
D10*
X101323260Y-107406332D03*
D11*
X102590756Y-112942707D03*
X92718558Y-110541601D03*
D16*
X91370631Y-107599711D03*
X104531724Y-108186692D03*
%TD*%
D11*
%TO.C,MX49*%
X254889349Y-112828817D03*
D12*
X249953250Y-114029370D03*
D10*
X245650899Y-112461736D03*
D11*
X245017151Y-115229923D03*
D10*
X251220746Y-108492994D03*
D13*
X242468670Y-113235714D03*
D14*
X254429210Y-107712635D03*
%TD*%
D11*
%TO.C,MX24*%
X147709421Y-126269074D03*
X157581619Y-128670180D03*
D12*
X152645520Y-127469627D03*
D10*
X156314123Y-123133805D03*
X149543723Y-124101163D03*
D16*
X146361494Y-123327184D03*
X159522587Y-123914165D03*
%TD*%
D11*
%TO.C,MX31*%
X241383122Y-57297703D03*
D10*
X232144672Y-56930622D03*
D11*
X231510924Y-59698809D03*
D10*
X237714519Y-52961880D03*
D12*
X236447023Y-58498256D03*
D13*
X228962443Y-57704600D03*
D14*
X240922983Y-52181521D03*
%TD*%
D12*
%TO.C,MX53*%
X196250746Y-145418990D03*
D10*
X201681173Y-143755119D03*
D11*
X199754013Y-149097783D03*
D10*
X195462692Y-140908262D03*
D11*
X192747479Y-141740197D03*
D17*
X193204188Y-138536599D03*
X203958296Y-146146335D03*
%TD*%
D10*
%TO.C,MX38*%
X261293450Y-69185037D03*
X255723603Y-73153779D03*
D11*
X264962053Y-73520860D03*
D12*
X260025954Y-74721413D03*
D11*
X255089855Y-75921966D03*
D13*
X252541374Y-73927757D03*
D14*
X264501914Y-68404678D03*
%TD*%
D12*
%TO.C,MX17*%
X139177475Y-102235935D03*
D11*
X144113574Y-103436488D03*
D10*
X136075678Y-98867471D03*
X142846078Y-97900113D03*
D11*
X134241376Y-101035382D03*
D16*
X132893449Y-98093492D03*
X146054542Y-98680473D03*
%TD*%
D12*
%TO.C,MX6*%
X166151745Y-71938517D03*
D11*
X161215646Y-70737964D03*
X171087844Y-73139070D03*
D10*
X169820348Y-67602695D03*
X163049948Y-68570053D03*
D16*
X159867719Y-67796074D03*
X173028812Y-68383055D03*
%TD*%
D10*
%TO.C,MX12*%
X158547873Y-87080423D03*
X165318273Y-86113065D03*
D11*
X156713571Y-89248334D03*
X166585769Y-91649440D03*
D12*
X161649670Y-90448887D03*
D16*
X155365644Y-86306444D03*
X168526737Y-86893425D03*
%TD*%
D10*
%TO.C,MX42*%
X223204938Y-100668304D03*
D11*
X232443388Y-101035385D03*
D12*
X227507289Y-102235938D03*
D11*
X222571190Y-103436491D03*
D10*
X228774785Y-96699562D03*
D13*
X220022709Y-101442282D03*
D14*
X231983249Y-95919203D03*
%TD*%
D10*
%TO.C,MX35*%
X200732740Y-88881253D03*
D11*
X200098992Y-91649440D03*
D12*
X205035091Y-90448887D03*
D10*
X206302587Y-84912511D03*
D11*
X209971190Y-89248334D03*
D13*
X197550511Y-89655231D03*
D14*
X209511051Y-84132152D03*
%TD*%
D11*
%TO.C,MX32*%
X250587778Y-57411597D03*
D10*
X256791373Y-50674668D03*
D11*
X260459976Y-55010491D03*
D10*
X251221526Y-54643410D03*
D12*
X255523877Y-56211044D03*
D13*
X248039297Y-55417388D03*
D14*
X259999837Y-49894309D03*
%TD*%
D11*
%TO.C,MX5*%
X143245524Y-64014643D03*
X153117722Y-66415749D03*
D12*
X148181623Y-65215196D03*
D10*
X151850226Y-60879374D03*
X145079826Y-61846732D03*
D16*
X141897597Y-61072753D03*
X155058690Y-61659734D03*
%TD*%
D11*
%TO.C,MX46*%
X297753197Y-90117480D03*
D12*
X302689296Y-88916927D03*
D10*
X298386945Y-87349293D03*
X303956792Y-83380551D03*
D11*
X307625395Y-87716374D03*
D13*
X295204716Y-88123271D03*
D14*
X307165256Y-82600192D03*
%TD*%
D11*
%TO.C,MX11*%
X148615648Y-84926121D03*
D10*
X140577752Y-80357104D03*
D12*
X143679549Y-83725568D03*
D11*
X138743450Y-82525015D03*
D10*
X147348152Y-79389746D03*
D16*
X137395523Y-79583125D03*
X150556616Y-80170106D03*
%TD*%
D10*
%TO.C,MX51*%
X284378652Y-110361741D03*
D11*
X293617102Y-110728822D03*
D12*
X288681003Y-111929375D03*
D10*
X289948499Y-106392999D03*
D11*
X283744904Y-113129928D03*
D13*
X281196423Y-111135719D03*
D14*
X293156963Y-105612640D03*
%TD*%
D10*
%TO.C,MX10*%
X122607628Y-73633784D03*
D11*
X130645524Y-78202801D03*
D12*
X125709425Y-77002248D03*
D11*
X120773326Y-75801695D03*
D10*
X129378028Y-72666426D03*
D16*
X119425399Y-72859805D03*
X132586492Y-73446786D03*
%TD*%
D10*
%TO.C,MX52*%
X308458865Y-101890923D03*
D11*
X302255270Y-108627852D03*
D12*
X307191369Y-107427299D03*
D11*
X312127468Y-106226746D03*
D10*
X302889018Y-105859665D03*
D13*
X299706789Y-106633643D03*
D14*
X311667329Y-101110564D03*
%TD*%
D10*
%TO.C,MX45*%
X285446422Y-87882630D03*
D11*
X279242827Y-94619559D03*
D12*
X284178926Y-93419006D03*
D11*
X289115025Y-92218453D03*
D10*
X279876575Y-91851372D03*
D13*
X276694346Y-92625350D03*
D14*
X288654886Y-87102271D03*
%TD*%
D11*
%TO.C,MX28*%
X166930749Y-149097783D03*
X173937283Y-141740197D03*
D12*
X170434016Y-145418990D03*
D10*
X165967169Y-146426451D03*
X168506857Y-140076326D03*
D18*
X163708665Y-148798114D03*
X170783980Y-137685111D03*
%TD*%
D10*
%TO.C,MX20*%
X74901962Y-108560911D03*
D11*
X73067660Y-110728822D03*
X82939858Y-113129928D03*
D12*
X78003759Y-111929375D03*
D10*
X81672362Y-107593553D03*
D16*
X71719733Y-107786932D03*
X84880826Y-108373913D03*
%TD*%
D10*
%TO.C,MX37*%
X242216596Y-71472253D03*
D11*
X236013001Y-78209182D03*
D10*
X236646749Y-75440995D03*
D11*
X245885199Y-75808076D03*
D12*
X240949100Y-77008629D03*
D13*
X233464520Y-76214973D03*
D14*
X245425060Y-70691894D03*
%TD*%
D12*
%TO.C,MX34*%
X293685143Y-51896189D03*
D11*
X298621242Y-50695636D03*
D10*
X289382792Y-50328555D03*
D11*
X288749044Y-53096742D03*
D10*
X294952639Y-46359813D03*
D13*
X286200563Y-51102533D03*
D14*
X298161103Y-45579454D03*
%TD*%
D10*
%TO.C,MX50*%
X264727751Y-110174524D03*
D11*
X273966201Y-110541605D03*
D10*
X270297598Y-106205782D03*
D11*
X264094003Y-112942711D03*
D12*
X269030102Y-111742158D03*
D13*
X261545522Y-110948502D03*
D14*
X273506062Y-105425423D03*
%TD*%
D12*
%TO.C,MX40*%
X298187222Y-70406560D03*
D11*
X293251123Y-71607113D03*
D10*
X299454718Y-64870184D03*
D11*
X303123321Y-69206007D03*
D10*
X293884871Y-68838926D03*
D13*
X290702642Y-69612904D03*
D14*
X302663182Y-64089825D03*
%TD*%
D11*
%TO.C,MX23*%
X139611497Y-121946862D03*
D10*
X138344001Y-116410487D03*
D11*
X129739299Y-119545756D03*
D12*
X134675398Y-120746309D03*
D10*
X131573601Y-117377845D03*
D16*
X128391372Y-116603866D03*
X141552465Y-117190847D03*
%TD*%
D19*
%TO.C,U1*%
X175768016Y-91959267D03*
D20*
X175768016Y-94499267D03*
X175768016Y-97039267D03*
X175768016Y-99579267D03*
X175768016Y-102119267D03*
X175768016Y-104659267D03*
X175768016Y-107199267D03*
X175768016Y-109739267D03*
X175768016Y-112279267D03*
X175768016Y-114819267D03*
X175768016Y-117359267D03*
X175996616Y-119899267D03*
X191008016Y-119899267D03*
X191008016Y-117359267D03*
X191008016Y-114819267D03*
X191008016Y-112279267D03*
X191008016Y-109739267D03*
X191008016Y-107199267D03*
X191008016Y-104659267D03*
X191008016Y-102119267D03*
X191008016Y-99579267D03*
X191008016Y-97039267D03*
X191008016Y-94499267D03*
X191008016Y-91959267D03*
X178308016Y-119899267D03*
X180848016Y-119899267D03*
X183388016Y-119899267D03*
X185928016Y-119899267D03*
X188468016Y-119899267D03*
%TD*%
D10*
%TO.C,MX48*%
X227707013Y-119178675D03*
D12*
X232009364Y-120746309D03*
D11*
X227073265Y-121946862D03*
D10*
X233276860Y-115209933D03*
D11*
X236945463Y-119545756D03*
D13*
X224524784Y-119952653D03*
D14*
X236485324Y-114429574D03*
%TD*%
D10*
%TO.C,MX9*%
X103557011Y-71352954D03*
X110327411Y-70385596D03*
D12*
X106658808Y-74721418D03*
D11*
X111594907Y-75921971D03*
X101722709Y-73520865D03*
D16*
X100374782Y-70578975D03*
X113535875Y-71165956D03*
%TD*%
D12*
%TO.C,MX7*%
X68497540Y-70406562D03*
D10*
X72166143Y-66070740D03*
X65395743Y-67038098D03*
D11*
X63561441Y-69206009D03*
X73433639Y-71607115D03*
D16*
X62213514Y-66264119D03*
X75374607Y-66851100D03*
%TD*%
D10*
%TO.C,MX56*%
X247502444Y-133751478D03*
D12*
X246234948Y-139287854D03*
D11*
X251171047Y-138087301D03*
D10*
X241932597Y-137720220D03*
D11*
X241298849Y-140488407D03*
D14*
X238750368Y-138494198D03*
X250710908Y-132971119D03*
%TD*%
D10*
%TO.C,MX33*%
X270872425Y-54830627D03*
D12*
X275174776Y-56398261D03*
D11*
X270238677Y-57598814D03*
D10*
X276442272Y-50861885D03*
D11*
X280110875Y-55197708D03*
D13*
X267690196Y-55604605D03*
D14*
X279650736Y-50081526D03*
%TD*%
D12*
%TO.C,MX39*%
X279676851Y-74908634D03*
D10*
X275374500Y-73341000D03*
X280944347Y-69372258D03*
D11*
X274740752Y-76109187D03*
X284612950Y-73708081D03*
D13*
X272192271Y-74114978D03*
D14*
X284152811Y-68591899D03*
%TD*%
D11*
%TO.C,MX47*%
X218975342Y-126269075D03*
D12*
X214039243Y-127469628D03*
D10*
X209736892Y-125901994D03*
X215306739Y-121933252D03*
D11*
X209103144Y-128670181D03*
D13*
X206554663Y-126675972D03*
D14*
X218515203Y-121152893D03*
%TD*%
D11*
%TO.C,MX19*%
X54557291Y-106226748D03*
D10*
X63161993Y-103091479D03*
D11*
X64429489Y-108627854D03*
D10*
X56391593Y-104058837D03*
D12*
X59493390Y-107427301D03*
D16*
X53209364Y-103284858D03*
X66370457Y-103871839D03*
%TD*%
D11*
%TO.C,MX13*%
X68931564Y-90117484D03*
X59059366Y-87716378D03*
D12*
X63995465Y-88916931D03*
D10*
X67664068Y-84581109D03*
X60893668Y-85548467D03*
D16*
X57711439Y-84774488D03*
X70872532Y-85361469D03*
%TD*%
D12*
%TO.C,MX16*%
X121207353Y-95512614D03*
D10*
X118105556Y-92144150D03*
D11*
X116271254Y-94312061D03*
D10*
X124875956Y-91176792D03*
D11*
X126143452Y-96713167D03*
D16*
X114923327Y-91370171D03*
X128084420Y-91957152D03*
%TD*%
D10*
%TO.C,MX4*%
X127109709Y-55123413D03*
D11*
X135147605Y-59692430D03*
D10*
X133880109Y-54156055D03*
D12*
X130211506Y-58491877D03*
D11*
X125275407Y-57291324D03*
D16*
X123927480Y-54349434D03*
X137088573Y-54936415D03*
%TD*%
D12*
%TO.C,MX15*%
X102156732Y-93231787D03*
D11*
X107092831Y-94432340D03*
D10*
X105825335Y-88895965D03*
X99054935Y-89863323D03*
D11*
X97220633Y-92031234D03*
D16*
X95872706Y-89089344D03*
X109033799Y-89676325D03*
%TD*%
D11*
%TO.C,MX30*%
X213567039Y-66415750D03*
D10*
X214200787Y-63647563D03*
D11*
X223439237Y-64014644D03*
D10*
X219770634Y-59678821D03*
D12*
X218503138Y-65215197D03*
D13*
X211018558Y-64421541D03*
D14*
X222979098Y-58898462D03*
%TD*%
D11*
%TO.C,MX26*%
X143356031Y-147211724D03*
D10*
X135318135Y-142642707D03*
X142088535Y-141675349D03*
D12*
X138419932Y-146011171D03*
D11*
X133483833Y-144810618D03*
D16*
X132135907Y-141868728D03*
X145296999Y-142455709D03*
%TD*%
D10*
%TO.C,MX41*%
X205234816Y-107391620D03*
D11*
X204601068Y-110159807D03*
D12*
X209537167Y-108959254D03*
D11*
X214473266Y-107758701D03*
D10*
X210804663Y-103422878D03*
D13*
X202052587Y-108165598D03*
D14*
X214013127Y-102642519D03*
%TD*%
D10*
%TO.C,MX43*%
X246718670Y-89982623D03*
D11*
X240515075Y-96719552D03*
D12*
X245451174Y-95518999D03*
D11*
X250387273Y-94318446D03*
D10*
X241148823Y-93951365D03*
D13*
X237966594Y-94725343D03*
D14*
X249927134Y-89202264D03*
%TD*%
D12*
%TO.C,MX27*%
X157296762Y-159214464D03*
D11*
X153793495Y-162893257D03*
D10*
X152829915Y-160221925D03*
X155369603Y-153871800D03*
D11*
X160800029Y-155535671D03*
D18*
X150571411Y-162593588D03*
X157646726Y-151480585D03*
%TD*%
D21*
%TO.C,D28*%
X160828723Y-143135034D03*
D22*
X154658599Y-141634342D03*
%TD*%
D21*
%TO.C,D11*%
X151535396Y-77091944D03*
D22*
X145365272Y-75591252D03*
%TD*%
D23*
%TO.C,D54*%
X216766558Y-146777295D03*
D22*
X210596434Y-148277987D03*
%TD*%
D23*
%TO.C,D40*%
X302022476Y-60951631D03*
D22*
X295852352Y-62452323D03*
%TD*%
D21*
%TO.C,D24*%
X160377966Y-120805993D03*
D22*
X154207842Y-119305301D03*
%TD*%
D23*
%TO.C,D29*%
X208270069Y-78525906D03*
D22*
X202099945Y-80026598D03*
%TD*%
D21*
%TO.C,D8*%
X94863758Y-68275012D03*
D22*
X88693634Y-66774320D03*
%TD*%
D23*
%TO.C,D37*%
X244810588Y-67547318D03*
D22*
X238640464Y-69048010D03*
%TD*%
D23*
%TO.C,D43*%
X252967657Y-102160036D03*
D22*
X246797533Y-103660728D03*
%TD*%
D23*
%TO.C,D49*%
X253567934Y-104628087D03*
D22*
X247397810Y-106128779D03*
%TD*%
D21*
%TO.C,D12*%
X169505518Y-83815262D03*
D22*
X163335394Y-82314570D03*
%TD*%
D23*
%TO.C,D47*%
X217874495Y-118014699D03*
D22*
X211704371Y-119515391D03*
%TD*%
D21*
%TO.C,D23*%
X160978242Y-118337944D03*
D22*
X154808118Y-116837252D03*
%TD*%
D23*
%TO.C,D39*%
X283512104Y-65453706D03*
D22*
X277341980Y-66954398D03*
%TD*%
D23*
%TO.C,D55*%
X232048604Y-136525290D03*
D22*
X225878480Y-138025982D03*
%TD*%
D23*
%TO.C,D50*%
X272805331Y-102040420D03*
D22*
X266635207Y-103541112D03*
%TD*%
D21*
%TO.C,D16*%
X85612803Y-105235728D03*
D22*
X79442679Y-103735036D03*
%TD*%
D23*
%TO.C,D30*%
X226240189Y-71802587D03*
D22*
X220070065Y-73303279D03*
%TD*%
D23*
%TO.C,D31*%
X244210313Y-65079266D03*
D22*
X238040189Y-66579958D03*
%TD*%
D21*
%TO.C,D27*%
X155992821Y-147971162D03*
D22*
X149822697Y-146470470D03*
%TD*%
D21*
%TO.C,D26*%
X146080456Y-139286571D03*
D22*
X139910332Y-137785879D03*
%TD*%
D23*
%TO.C,D44*%
X272265082Y-99819179D03*
D22*
X266094958Y-101319871D03*
%TD*%
D23*
%TO.C,D41*%
X217274218Y-115546648D03*
D22*
X211104094Y-117047340D03*
%TD*%
D21*
%TO.C,D25*%
X128110334Y-132563251D03*
D22*
X121940210Y-131062559D03*
%TD*%
D23*
%TO.C,D42*%
X235244342Y-108823330D03*
D22*
X229074218Y-110324022D03*
%TD*%
D23*
%TO.C,D33*%
X282911828Y-62985654D03*
D22*
X276741704Y-64486346D03*
%TD*%
D21*
%TO.C,D10*%
X133441873Y-70338610D03*
D22*
X127271749Y-68837918D03*
%TD*%
D23*
%TO.C,D56*%
X250018724Y-129801967D03*
D22*
X243848600Y-131302659D03*
%TD*%
D23*
%TO.C,D38*%
X263861209Y-65266487D03*
D22*
X257691085Y-66767179D03*
%TD*%
D21*
%TO.C,D6*%
X170105795Y-81347217D03*
D22*
X163935671Y-79846525D03*
%TD*%
D21*
%TO.C,D17*%
X105863975Y-102580460D03*
D22*
X99693851Y-101079768D03*
%TD*%
D23*
%TO.C,D48*%
X235844616Y-111291377D03*
D22*
X229674492Y-112792069D03*
%TD*%
D21*
%TO.C,D2*%
X95464036Y-65806965D03*
D22*
X89293912Y-64306273D03*
%TD*%
D23*
%TO.C,D51*%
X292516254Y-102474447D03*
D22*
X286346130Y-103975139D03*
%TD*%
D21*
%TO.C,D22*%
X142284442Y-114052660D03*
D22*
X136114318Y-112551968D03*
%TD*%
D21*
%TO.C,D9*%
X114514656Y-68087794D03*
D22*
X108344532Y-66587102D03*
%TD*%
D23*
%TO.C,D36*%
X226840467Y-74270638D03*
D22*
X220670343Y-75771330D03*
%TD*%
D23*
%TO.C,D46*%
X310426351Y-95504322D03*
D22*
X304256227Y-97005014D03*
%TD*%
D21*
%TO.C,D1*%
X76953665Y-61304892D03*
D22*
X70783541Y-59804200D03*
%TD*%
D23*
%TO.C,D34*%
X301422198Y-58483581D03*
D22*
X295252074Y-59984273D03*
%TD*%
D21*
%TO.C,D21*%
X142884718Y-111584610D03*
D22*
X136714594Y-110083918D03*
%TD*%
D21*
%TO.C,D20*%
X124314318Y-107329339D03*
D22*
X118144194Y-105828647D03*
%TD*%
D23*
%TO.C,D45*%
X291915979Y-100006398D03*
D22*
X285745855Y-101507090D03*
%TD*%
D21*
%TO.C,D3*%
X115114933Y-65619746D03*
D22*
X108944809Y-64119054D03*
%TD*%
D21*
%TO.C,D14*%
X67102432Y-100733650D03*
D22*
X60932308Y-99232958D03*
%TD*%
D23*
%TO.C,D32*%
X263260931Y-62798438D03*
D22*
X257090807Y-64299130D03*
%TD*%
D23*
%TO.C,D52*%
X311026624Y-97972372D03*
D22*
X304856500Y-99473064D03*
%TD*%
D21*
%TO.C,D19*%
X124914597Y-104861291D03*
D22*
X118744473Y-103360599D03*
%TD*%
D21*
%TO.C,D13*%
X67702710Y-98265603D03*
D22*
X61532586Y-96764911D03*
%TD*%
D23*
%TO.C,D53*%
X212304209Y-141327504D03*
D22*
X206134085Y-142828196D03*
%TD*%
D21*
%TO.C,D5*%
X152135674Y-74623897D03*
D22*
X145965550Y-73123205D03*
%TD*%
D21*
%TO.C,D18*%
X105263701Y-105048508D03*
D22*
X99093577Y-103547816D03*
%TD*%
D21*
%TO.C,D15*%
X86213081Y-102767678D03*
D22*
X80042957Y-101266986D03*
%TD*%
D21*
%TO.C,D4*%
X134042150Y-67870563D03*
D22*
X127872026Y-66369871D03*
%TD*%
D21*
%TO.C,D7*%
X76353388Y-63772938D03*
D22*
X70183264Y-62272246D03*
%TD*%
D23*
%TO.C,D35*%
X208870345Y-80993958D03*
D22*
X202700221Y-82494650D03*
%TD*%
M02*
