%TF.GenerationSoftware,KiCad,Pcbnew,(6.0.0-0)*%
%TF.CreationDate,2022-01-06T19:14:07+00:00*%
%TF.ProjectId,atreis,61747265-6973-42e6-9b69-6361645f7063,rev?*%
%TF.SameCoordinates,Original*%
%TF.FileFunction,Legend,Bot*%
%TF.FilePolarity,Positive*%
%FSLAX46Y46*%
G04 Gerber Fmt 4.6, Leading zero omitted, Abs format (unit mm)*
G04 Created by KiCad (PCBNEW (6.0.0-0)) date 2022-01-06 19:14:07*
%MOMM*%
%LPD*%
G01*
G04 APERTURE LIST*
G04 Aperture macros list*
%AMRotRect*
0 Rectangle, with rotation*
0 The origin of the aperture is its center*
0 $1 length*
0 $2 width*
0 $3 Rotation angle, in degrees counterclockwise*
0 Add horizontal line*
21,1,$1,$2,0,0,$3*%
G04 Aperture macros list end*
%ADD10C,0.150000*%
%ADD11C,0.200000*%
%ADD12C,1.000000*%
%ADD13C,0.500000*%
%ADD14C,3.500000*%
%ADD15C,3.000000*%
%ADD16C,0.400000*%
%ADD17C,0.800000*%
%ADD18C,0.300000*%
%ADD19C,0.381000*%
%ADD20R,1.752600X1.752600*%
%ADD21C,1.752600*%
%ADD22RotRect,1.400000X1.400000X166.330000*%
%ADD23C,1.400000*%
%ADD24RotRect,1.400000X1.400000X193.670000*%
%ADD25C,3.000000*%
%ADD26C,1.900000*%
%ADD27C,4.100000*%
%ADD28RotRect,2.550000X2.500000X193.670000*%
%ADD29RotRect,2.550000X2.500000X193.669000*%
%ADD30C,2.000000*%
%ADD31RotRect,2.550000X2.500000X166.330000*%
%ADD32RotRect,2.550000X2.500000X133.600000*%
%ADD33RotRect,2.550000X2.500000X226.400000*%
G04 APERTURE END LIST*
D10*
%TO.C,U1*%
X178250825Y-117302124D02*
X178136539Y-117340219D01*
X178098444Y-117378314D01*
X178060349Y-117454505D01*
X178060349Y-117568790D01*
X178098444Y-117644981D01*
X178136539Y-117683076D01*
X178212730Y-117721171D01*
X178517492Y-117721171D01*
X178517492Y-116921171D01*
X178250825Y-116921171D01*
X178174635Y-116959267D01*
X178136539Y-116997362D01*
X178098444Y-117073552D01*
X178098444Y-117149743D01*
X178136539Y-117225933D01*
X178174635Y-117264028D01*
X178250825Y-117302124D01*
X178517492Y-117302124D01*
X177374635Y-117187838D02*
X177374635Y-117721171D01*
X177565111Y-116883076D02*
X177755587Y-117454505D01*
X177260349Y-117454505D01*
X189115682Y-107142124D02*
X189382349Y-107142124D01*
X189382349Y-107561171D02*
X189382349Y-106761171D01*
X189001396Y-106761171D01*
X188353777Y-106761171D02*
X188506158Y-106761171D01*
X188582349Y-106799267D01*
X188620444Y-106837362D01*
X188696635Y-106951647D01*
X188734730Y-107104028D01*
X188734730Y-107408790D01*
X188696635Y-107484981D01*
X188658539Y-107523076D01*
X188582349Y-107561171D01*
X188429968Y-107561171D01*
X188353777Y-107523076D01*
X188315682Y-107484981D01*
X188277587Y-107408790D01*
X188277587Y-107218314D01*
X188315682Y-107142124D01*
X188353777Y-107104028D01*
X188429968Y-107065933D01*
X188582349Y-107065933D01*
X188658539Y-107104028D01*
X188696635Y-107142124D01*
X188734730Y-107218314D01*
X183521349Y-118614981D02*
X183559444Y-118653076D01*
X183673730Y-118691171D01*
X183749920Y-118691171D01*
X183864206Y-118653076D01*
X183940396Y-118576886D01*
X183978492Y-118500695D01*
X184016587Y-118348314D01*
X184016587Y-118234028D01*
X183978492Y-118081647D01*
X183940396Y-118005457D01*
X183864206Y-117929267D01*
X183749920Y-117891171D01*
X183673730Y-117891171D01*
X183559444Y-117929267D01*
X183521349Y-117967362D01*
X183254682Y-117891171D02*
X182721349Y-117891171D01*
X183064206Y-118691171D01*
X178517492Y-105021171D02*
X178517492Y-104221171D01*
X178327016Y-104221171D01*
X178212730Y-104259267D01*
X178136539Y-104335457D01*
X178098444Y-104411647D01*
X178060349Y-104564028D01*
X178060349Y-104678314D01*
X178098444Y-104830695D01*
X178136539Y-104906886D01*
X178212730Y-104983076D01*
X178327016Y-105021171D01*
X178517492Y-105021171D01*
X177565111Y-104221171D02*
X177488920Y-104221171D01*
X177412730Y-104259267D01*
X177374635Y-104297362D01*
X177336539Y-104373552D01*
X177298444Y-104525933D01*
X177298444Y-104716409D01*
X177336539Y-104868790D01*
X177374635Y-104944981D01*
X177412730Y-104983076D01*
X177488920Y-105021171D01*
X177565111Y-105021171D01*
X177641301Y-104983076D01*
X177679396Y-104944981D01*
X177717492Y-104868790D01*
X177755587Y-104716409D01*
X177755587Y-104525933D01*
X177717492Y-104373552D01*
X177679396Y-104297362D01*
X177641301Y-104259267D01*
X177565111Y-104221171D01*
X189953007Y-118393564D02*
X189905867Y-118487845D01*
X189905867Y-118534986D01*
X189929437Y-118605696D01*
X190000148Y-118676407D01*
X190070858Y-118699977D01*
X190117999Y-118699977D01*
X190188709Y-118676407D01*
X190377271Y-118487845D01*
X189882296Y-117992870D01*
X189717305Y-118157862D01*
X189693735Y-118228573D01*
X189693735Y-118275713D01*
X189717305Y-118346424D01*
X189764445Y-118393564D01*
X189835156Y-118417134D01*
X189882296Y-118417134D01*
X189953007Y-118393564D01*
X190117999Y-118228573D01*
X189175190Y-118699977D02*
X189269471Y-118605696D01*
X189340181Y-118582126D01*
X189387322Y-118582126D01*
X189505173Y-118605696D01*
X189623024Y-118676407D01*
X189811586Y-118864969D01*
X189835156Y-118935679D01*
X189835156Y-118982820D01*
X189811586Y-119053531D01*
X189717305Y-119147811D01*
X189646594Y-119171382D01*
X189599454Y-119171382D01*
X189528743Y-119147811D01*
X189410892Y-119029960D01*
X189387322Y-118959250D01*
X189387322Y-118912109D01*
X189410892Y-118841399D01*
X189505173Y-118747118D01*
X189575883Y-118723547D01*
X189623024Y-118723547D01*
X189693735Y-118747118D01*
X178536539Y-99179267D02*
X178612730Y-99141171D01*
X178727016Y-99141171D01*
X178841301Y-99179267D01*
X178917492Y-99255457D01*
X178955587Y-99331647D01*
X178993682Y-99484028D01*
X178993682Y-99598314D01*
X178955587Y-99750695D01*
X178917492Y-99826886D01*
X178841301Y-99903076D01*
X178727016Y-99941171D01*
X178650825Y-99941171D01*
X178536539Y-99903076D01*
X178498444Y-99864981D01*
X178498444Y-99598314D01*
X178650825Y-99598314D01*
X178155587Y-99941171D02*
X178155587Y-99141171D01*
X177698444Y-99941171D01*
X177698444Y-99141171D01*
X177317492Y-99941171D02*
X177317492Y-99141171D01*
X177127016Y-99141171D01*
X177012730Y-99179267D01*
X176936539Y-99255457D01*
X176898444Y-99331647D01*
X176860349Y-99484028D01*
X176860349Y-99598314D01*
X176898444Y-99750695D01*
X176936539Y-99826886D01*
X177012730Y-99903076D01*
X177127016Y-99941171D01*
X177317492Y-99941171D01*
X179171349Y-118479267D02*
X179071349Y-118512600D01*
X179038016Y-118545933D01*
X179004682Y-118612600D01*
X179004682Y-118712600D01*
X179038016Y-118779267D01*
X179071349Y-118812600D01*
X179138016Y-118845933D01*
X179404682Y-118845933D01*
X179404682Y-118145933D01*
X179171349Y-118145933D01*
X179104682Y-118179267D01*
X179071349Y-118212600D01*
X179038016Y-118279267D01*
X179038016Y-118345933D01*
X179071349Y-118412600D01*
X179104682Y-118445933D01*
X179171349Y-118479267D01*
X179404682Y-118479267D01*
X178771349Y-118145933D02*
X178304682Y-118145933D01*
X178604682Y-118845933D01*
X178517492Y-112641171D02*
X178517492Y-111841171D01*
X178327016Y-111841171D01*
X178212730Y-111879267D01*
X178136539Y-111955457D01*
X178098444Y-112031647D01*
X178060349Y-112184028D01*
X178060349Y-112298314D01*
X178098444Y-112450695D01*
X178136539Y-112526886D01*
X178212730Y-112603076D01*
X178327016Y-112641171D01*
X178517492Y-112641171D01*
X177793682Y-111841171D02*
X177260349Y-111841171D01*
X177603206Y-112641171D01*
X189115682Y-102062124D02*
X189382349Y-102062124D01*
X189382349Y-102481171D02*
X189382349Y-101681171D01*
X189001396Y-101681171D01*
X188353777Y-101947838D02*
X188353777Y-102481171D01*
X188544254Y-101643076D02*
X188734730Y-102214505D01*
X188239492Y-102214505D01*
X178479396Y-114762124D02*
X178212730Y-114762124D01*
X178098444Y-115181171D02*
X178479396Y-115181171D01*
X178479396Y-114381171D01*
X178098444Y-114381171D01*
X177412730Y-114381171D02*
X177565111Y-114381171D01*
X177641301Y-114419267D01*
X177679396Y-114457362D01*
X177755587Y-114571647D01*
X177793682Y-114724028D01*
X177793682Y-115028790D01*
X177755587Y-115104981D01*
X177717492Y-115143076D01*
X177641301Y-115181171D01*
X177488920Y-115181171D01*
X177412730Y-115143076D01*
X177374635Y-115104981D01*
X177336539Y-115028790D01*
X177336539Y-114838314D01*
X177374635Y-114762124D01*
X177412730Y-114724028D01*
X177488920Y-114685933D01*
X177641301Y-114685933D01*
X177717492Y-114724028D01*
X177755587Y-114762124D01*
X177793682Y-114838314D01*
X178536539Y-96639267D02*
X178612730Y-96601171D01*
X178727016Y-96601171D01*
X178841301Y-96639267D01*
X178917492Y-96715457D01*
X178955587Y-96791647D01*
X178993682Y-96944028D01*
X178993682Y-97058314D01*
X178955587Y-97210695D01*
X178917492Y-97286886D01*
X178841301Y-97363076D01*
X178727016Y-97401171D01*
X178650825Y-97401171D01*
X178536539Y-97363076D01*
X178498444Y-97324981D01*
X178498444Y-97058314D01*
X178650825Y-97058314D01*
X178155587Y-97401171D02*
X178155587Y-96601171D01*
X177698444Y-97401171D01*
X177698444Y-96601171D01*
X177317492Y-97401171D02*
X177317492Y-96601171D01*
X177127016Y-96601171D01*
X177012730Y-96639267D01*
X176936539Y-96715457D01*
X176898444Y-96791647D01*
X176860349Y-96944028D01*
X176860349Y-97058314D01*
X176898444Y-97210695D01*
X176936539Y-97286886D01*
X177012730Y-97363076D01*
X177127016Y-97401171D01*
X177317492Y-97401171D01*
X189115682Y-109682124D02*
X189382349Y-109682124D01*
X189382349Y-110101171D02*
X189382349Y-109301171D01*
X189001396Y-109301171D01*
X188772825Y-109301171D02*
X188239492Y-109301171D01*
X188582349Y-110101171D01*
X178517492Y-94861171D02*
X178517492Y-94061171D01*
X178327016Y-94061171D01*
X178212730Y-94099267D01*
X178136539Y-94175457D01*
X178098444Y-94251647D01*
X178060349Y-94404028D01*
X178060349Y-94518314D01*
X178098444Y-94670695D01*
X178136539Y-94746886D01*
X178212730Y-94823076D01*
X178327016Y-94861171D01*
X178517492Y-94861171D01*
X177755587Y-94137362D02*
X177717492Y-94099267D01*
X177641301Y-94061171D01*
X177450825Y-94061171D01*
X177374635Y-94099267D01*
X177336539Y-94137362D01*
X177298444Y-94213552D01*
X177298444Y-94289743D01*
X177336539Y-94404028D01*
X177793682Y-94861171D01*
X177298444Y-94861171D01*
X178060349Y-110024981D02*
X178098444Y-110063076D01*
X178212730Y-110101171D01*
X178288920Y-110101171D01*
X178403206Y-110063076D01*
X178479396Y-109986886D01*
X178517492Y-109910695D01*
X178555587Y-109758314D01*
X178555587Y-109644028D01*
X178517492Y-109491647D01*
X178479396Y-109415457D01*
X178403206Y-109339267D01*
X178288920Y-109301171D01*
X178212730Y-109301171D01*
X178098444Y-109339267D01*
X178060349Y-109377362D01*
X177374635Y-109301171D02*
X177527016Y-109301171D01*
X177603206Y-109339267D01*
X177641301Y-109377362D01*
X177717492Y-109491647D01*
X177755587Y-109644028D01*
X177755587Y-109948790D01*
X177717492Y-110024981D01*
X177679396Y-110063076D01*
X177603206Y-110101171D01*
X177450825Y-110101171D01*
X177374635Y-110063076D01*
X177336539Y-110024981D01*
X177298444Y-109948790D01*
X177298444Y-109758314D01*
X177336539Y-109682124D01*
X177374635Y-109644028D01*
X177450825Y-109605933D01*
X177603206Y-109605933D01*
X177679396Y-109644028D01*
X177717492Y-109682124D01*
X177755587Y-109758314D01*
X186194682Y-118272124D02*
X186461349Y-118272124D01*
X186461349Y-118691171D02*
X186461349Y-117891171D01*
X186080396Y-117891171D01*
X185356587Y-118691171D02*
X185813730Y-118691171D01*
X185585158Y-118691171D02*
X185585158Y-117891171D01*
X185661349Y-118005457D01*
X185737539Y-118081647D01*
X185813730Y-118119743D01*
X188961349Y-97343076D02*
X188847063Y-97381171D01*
X188656587Y-97381171D01*
X188580396Y-97343076D01*
X188542301Y-97304981D01*
X188504206Y-97228790D01*
X188504206Y-97152600D01*
X188542301Y-97076409D01*
X188580396Y-97038314D01*
X188656587Y-97000219D01*
X188808968Y-96962124D01*
X188885158Y-96924028D01*
X188923254Y-96885933D01*
X188961349Y-96809743D01*
X188961349Y-96733552D01*
X188923254Y-96657362D01*
X188885158Y-96619267D01*
X188808968Y-96581171D01*
X188618492Y-96581171D01*
X188504206Y-96619267D01*
X188275635Y-96581171D02*
X187818492Y-96581171D01*
X188047063Y-97381171D02*
X188047063Y-96581171D01*
X189172825Y-114762124D02*
X189058539Y-114800219D01*
X189020444Y-114838314D01*
X188982349Y-114914505D01*
X188982349Y-115028790D01*
X189020444Y-115104981D01*
X189058539Y-115143076D01*
X189134730Y-115181171D01*
X189439492Y-115181171D01*
X189439492Y-114381171D01*
X189172825Y-114381171D01*
X189096635Y-114419267D01*
X189058539Y-114457362D01*
X189020444Y-114533552D01*
X189020444Y-114609743D01*
X189058539Y-114685933D01*
X189096635Y-114724028D01*
X189172825Y-114762124D01*
X189439492Y-114762124D01*
X188715682Y-114381171D02*
X188220444Y-114381171D01*
X188487111Y-114685933D01*
X188372825Y-114685933D01*
X188296635Y-114724028D01*
X188258539Y-114762124D01*
X188220444Y-114838314D01*
X188220444Y-115028790D01*
X188258539Y-115104981D01*
X188296635Y-115143076D01*
X188372825Y-115181171D01*
X188601396Y-115181171D01*
X188677587Y-115143076D01*
X188715682Y-115104981D01*
X189172825Y-91902124D02*
X189058539Y-91940219D01*
X189020444Y-91978314D01*
X188982349Y-92054505D01*
X188982349Y-92168790D01*
X189020444Y-92244981D01*
X189058539Y-92283076D01*
X189134730Y-92321171D01*
X189439492Y-92321171D01*
X189439492Y-91521171D01*
X189172825Y-91521171D01*
X189096635Y-91559267D01*
X189058539Y-91597362D01*
X189020444Y-91673552D01*
X189020444Y-91749743D01*
X189058539Y-91825933D01*
X189096635Y-91864028D01*
X189172825Y-91902124D01*
X189439492Y-91902124D01*
X188487111Y-91521171D02*
X188410920Y-91521171D01*
X188334730Y-91559267D01*
X188296635Y-91597362D01*
X188258539Y-91673552D01*
X188220444Y-91825933D01*
X188220444Y-92016409D01*
X188258539Y-92168790D01*
X188296635Y-92244981D01*
X188334730Y-92283076D01*
X188410920Y-92321171D01*
X188487111Y-92321171D01*
X188563301Y-92283076D01*
X188601396Y-92244981D01*
X188639492Y-92168790D01*
X188677587Y-92016409D01*
X188677587Y-91825933D01*
X188639492Y-91673552D01*
X188601396Y-91597362D01*
X188563301Y-91559267D01*
X188487111Y-91521171D01*
X181438492Y-118691171D02*
X181438492Y-117891171D01*
X181248016Y-117891171D01*
X181133730Y-117929267D01*
X181057539Y-118005457D01*
X181019444Y-118081647D01*
X180981349Y-118234028D01*
X180981349Y-118348314D01*
X181019444Y-118500695D01*
X181057539Y-118576886D01*
X181133730Y-118653076D01*
X181248016Y-118691171D01*
X181438492Y-118691171D01*
X180257539Y-117891171D02*
X180638492Y-117891171D01*
X180676587Y-118272124D01*
X180638492Y-118234028D01*
X180562301Y-118195933D01*
X180371825Y-118195933D01*
X180295635Y-118234028D01*
X180257539Y-118272124D01*
X180219444Y-118348314D01*
X180219444Y-118538790D01*
X180257539Y-118614981D01*
X180295635Y-118653076D01*
X180371825Y-118691171D01*
X180562301Y-118691171D01*
X180638492Y-118653076D01*
X180676587Y-118614981D01*
X176752313Y-118464275D02*
X176846594Y-118511415D01*
X176893735Y-118511415D01*
X176964445Y-118487845D01*
X177035156Y-118417134D01*
X177058726Y-118346424D01*
X177058726Y-118299283D01*
X177035156Y-118228573D01*
X176846594Y-118040011D01*
X176351619Y-118534986D01*
X176516611Y-118699977D01*
X176587322Y-118723547D01*
X176634462Y-118723547D01*
X176705173Y-118699977D01*
X176752313Y-118652837D01*
X176775883Y-118582126D01*
X176775883Y-118534986D01*
X176752313Y-118464275D01*
X176587322Y-118299283D01*
X177082296Y-119265663D02*
X176846594Y-119029960D01*
X177058726Y-118770688D01*
X177058726Y-118817828D01*
X177082296Y-118888539D01*
X177200148Y-119006390D01*
X177270858Y-119029960D01*
X177317999Y-119029960D01*
X177388709Y-119006390D01*
X177506560Y-118888539D01*
X177530131Y-118817828D01*
X177530131Y-118770688D01*
X177506560Y-118699977D01*
X177388709Y-118582126D01*
X177317999Y-118558556D01*
X177270858Y-118558556D01*
X188121349Y-118479267D02*
X188354682Y-118479267D01*
X188354682Y-118845933D02*
X188354682Y-118145933D01*
X188021349Y-118145933D01*
X187621349Y-118145933D02*
X187554682Y-118145933D01*
X187488016Y-118179267D01*
X187454682Y-118212600D01*
X187421349Y-118279267D01*
X187388016Y-118412600D01*
X187388016Y-118579267D01*
X187421349Y-118712600D01*
X187454682Y-118779267D01*
X187488016Y-118812600D01*
X187554682Y-118845933D01*
X187621349Y-118845933D01*
X187688016Y-118812600D01*
X187721349Y-118779267D01*
X187754682Y-118712600D01*
X187788016Y-118579267D01*
X187788016Y-118412600D01*
X187754682Y-118279267D01*
X187721349Y-118212600D01*
X187688016Y-118179267D01*
X187621349Y-118145933D01*
X189458539Y-94099267D02*
X189534730Y-94061171D01*
X189649016Y-94061171D01*
X189763301Y-94099267D01*
X189839492Y-94175457D01*
X189877587Y-94251647D01*
X189915682Y-94404028D01*
X189915682Y-94518314D01*
X189877587Y-94670695D01*
X189839492Y-94746886D01*
X189763301Y-94823076D01*
X189649016Y-94861171D01*
X189572825Y-94861171D01*
X189458539Y-94823076D01*
X189420444Y-94784981D01*
X189420444Y-94518314D01*
X189572825Y-94518314D01*
X189077587Y-94861171D02*
X189077587Y-94061171D01*
X188620444Y-94861171D01*
X188620444Y-94061171D01*
X188239492Y-94861171D02*
X188239492Y-94061171D01*
X188049016Y-94061171D01*
X187934730Y-94099267D01*
X187858539Y-94175457D01*
X187820444Y-94251647D01*
X187782349Y-94404028D01*
X187782349Y-94518314D01*
X187820444Y-94670695D01*
X187858539Y-94746886D01*
X187934730Y-94823076D01*
X188049016Y-94861171D01*
X188239492Y-94861171D01*
X178517492Y-102481171D02*
X178517492Y-101681171D01*
X178327016Y-101681171D01*
X178212730Y-101719267D01*
X178136539Y-101795457D01*
X178098444Y-101871647D01*
X178060349Y-102024028D01*
X178060349Y-102138314D01*
X178098444Y-102290695D01*
X178136539Y-102366886D01*
X178212730Y-102443076D01*
X178327016Y-102481171D01*
X178517492Y-102481171D01*
X177298444Y-102481171D02*
X177755587Y-102481171D01*
X177527016Y-102481171D02*
X177527016Y-101681171D01*
X177603206Y-101795457D01*
X177679396Y-101871647D01*
X177755587Y-101909743D01*
X182006620Y-91521171D02*
X181549477Y-91521171D01*
X181778048Y-92321171D02*
X181778048Y-91521171D01*
X181359001Y-91521171D02*
X180825667Y-92321171D01*
X180825667Y-91521171D02*
X181359001Y-92321171D01*
X180368524Y-91521171D02*
X180292334Y-91521171D01*
X180216144Y-91559267D01*
X180178048Y-91597362D01*
X180139953Y-91673552D01*
X180101858Y-91825933D01*
X180101858Y-92016409D01*
X180139953Y-92168790D01*
X180178048Y-92244981D01*
X180216144Y-92283076D01*
X180292334Y-92321171D01*
X180368524Y-92321171D01*
X180444715Y-92283076D01*
X180482810Y-92244981D01*
X180520905Y-92168790D01*
X180559001Y-92016409D01*
X180559001Y-91825933D01*
X180520905Y-91673552D01*
X180482810Y-91597362D01*
X180444715Y-91559267D01*
X180368524Y-91521171D01*
X179187572Y-91483076D02*
X179873286Y-92511647D01*
X178920905Y-92321171D02*
X178920905Y-91521171D01*
X178730429Y-91521171D01*
X178616144Y-91559267D01*
X178539953Y-91635457D01*
X178501858Y-91711647D01*
X178463763Y-91864028D01*
X178463763Y-91978314D01*
X178501858Y-92130695D01*
X178539953Y-92206886D01*
X178616144Y-92283076D01*
X178730429Y-92321171D01*
X178920905Y-92321171D01*
X178197096Y-91521171D02*
X177701858Y-91521171D01*
X177968524Y-91825933D01*
X177854239Y-91825933D01*
X177778048Y-91864028D01*
X177739953Y-91902124D01*
X177701858Y-91978314D01*
X177701858Y-92168790D01*
X177739953Y-92244981D01*
X177778048Y-92283076D01*
X177854239Y-92321171D01*
X178082810Y-92321171D01*
X178159001Y-92283076D01*
X178197096Y-92244981D01*
X189115682Y-104602124D02*
X189382349Y-104602124D01*
X189382349Y-105021171D02*
X189382349Y-104221171D01*
X189001396Y-104221171D01*
X188315682Y-104221171D02*
X188696635Y-104221171D01*
X188734730Y-104602124D01*
X188696635Y-104564028D01*
X188620444Y-104525933D01*
X188429968Y-104525933D01*
X188353777Y-104564028D01*
X188315682Y-104602124D01*
X188277587Y-104678314D01*
X188277587Y-104868790D01*
X188315682Y-104944981D01*
X188353777Y-104983076D01*
X188429968Y-105021171D01*
X188620444Y-105021171D01*
X188696635Y-104983076D01*
X188734730Y-104944981D01*
X189172825Y-112222124D02*
X189058539Y-112260219D01*
X189020444Y-112298314D01*
X188982349Y-112374505D01*
X188982349Y-112488790D01*
X189020444Y-112564981D01*
X189058539Y-112603076D01*
X189134730Y-112641171D01*
X189439492Y-112641171D01*
X189439492Y-111841171D01*
X189172825Y-111841171D01*
X189096635Y-111879267D01*
X189058539Y-111917362D01*
X189020444Y-111993552D01*
X189020444Y-112069743D01*
X189058539Y-112145933D01*
X189096635Y-112184028D01*
X189172825Y-112222124D01*
X189439492Y-112222124D01*
X188220444Y-112641171D02*
X188677587Y-112641171D01*
X188449016Y-112641171D02*
X188449016Y-111841171D01*
X188525206Y-111955457D01*
X188601396Y-112031647D01*
X188677587Y-112069743D01*
X189915682Y-99141171D02*
X189649016Y-99941171D01*
X189382349Y-99141171D01*
X188658539Y-99864981D02*
X188696635Y-99903076D01*
X188810920Y-99941171D01*
X188887111Y-99941171D01*
X189001396Y-99903076D01*
X189077587Y-99826886D01*
X189115682Y-99750695D01*
X189153777Y-99598314D01*
X189153777Y-99484028D01*
X189115682Y-99331647D01*
X189077587Y-99255457D01*
X189001396Y-99179267D01*
X188887111Y-99141171D01*
X188810920Y-99141171D01*
X188696635Y-99179267D01*
X188658539Y-99217362D01*
X187858539Y-99864981D02*
X187896635Y-99903076D01*
X188010920Y-99941171D01*
X188087111Y-99941171D01*
X188201396Y-99903076D01*
X188277587Y-99826886D01*
X188315682Y-99750695D01*
X188353777Y-99598314D01*
X188353777Y-99484028D01*
X188315682Y-99331647D01*
X188277587Y-99255457D01*
X188201396Y-99179267D01*
X188087111Y-99141171D01*
X188010920Y-99141171D01*
X187896635Y-99179267D01*
X187858539Y-99217362D01*
X189172825Y-117302124D02*
X189058539Y-117340219D01*
X189020444Y-117378314D01*
X188982349Y-117454505D01*
X188982349Y-117568790D01*
X189020444Y-117644981D01*
X189058539Y-117683076D01*
X189134730Y-117721171D01*
X189439492Y-117721171D01*
X189439492Y-116921171D01*
X189172825Y-116921171D01*
X189096635Y-116959267D01*
X189058539Y-116997362D01*
X189020444Y-117073552D01*
X189020444Y-117149743D01*
X189058539Y-117225933D01*
X189096635Y-117264028D01*
X189172825Y-117302124D01*
X189439492Y-117302124D01*
X188677587Y-116997362D02*
X188639492Y-116959267D01*
X188563301Y-116921171D01*
X188372825Y-116921171D01*
X188296635Y-116959267D01*
X188258539Y-116997362D01*
X188220444Y-117073552D01*
X188220444Y-117149743D01*
X188258539Y-117264028D01*
X188715682Y-117721171D01*
X188220444Y-117721171D01*
X178517492Y-107561171D02*
X178517492Y-106761171D01*
X178327016Y-106761171D01*
X178212730Y-106799267D01*
X178136539Y-106875457D01*
X178098444Y-106951647D01*
X178060349Y-107104028D01*
X178060349Y-107218314D01*
X178098444Y-107370695D01*
X178136539Y-107446886D01*
X178212730Y-107523076D01*
X178327016Y-107561171D01*
X178517492Y-107561171D01*
X177374635Y-107027838D02*
X177374635Y-107561171D01*
X177565111Y-106723076D02*
X177755587Y-107294505D01*
X177260349Y-107294505D01*
D11*
%TO.C,D28*%
X156547281Y-141628136D02*
X156310951Y-142599809D01*
X156542302Y-142656078D01*
X156692366Y-142643569D01*
X156807414Y-142573536D01*
X156876192Y-142492250D01*
X156967477Y-142318423D01*
X157001238Y-142179612D01*
X156999983Y-141983278D01*
X156976221Y-141879484D01*
X156906188Y-141764436D01*
X156778632Y-141684405D01*
X156547281Y-141628136D01*
X157258862Y-142732344D02*
X157293878Y-142789868D01*
X157375165Y-142858646D01*
X157606515Y-142914915D01*
X157710309Y-142891152D01*
X157767833Y-142856136D01*
X157836611Y-142774849D01*
X157859119Y-142682309D01*
X157846610Y-142532245D01*
X157426413Y-141841958D01*
X158027925Y-141988257D01*
X158448122Y-142678544D02*
X158344328Y-142702306D01*
X158286804Y-142737323D01*
X158218026Y-142818609D01*
X158206772Y-142864879D01*
X158230535Y-142968673D01*
X158265551Y-143026197D01*
X158346838Y-143094975D01*
X158531918Y-143139990D01*
X158635712Y-143116228D01*
X158693236Y-143081211D01*
X158762014Y-142999925D01*
X158773268Y-142953655D01*
X158749505Y-142849861D01*
X158714489Y-142792337D01*
X158633202Y-142723559D01*
X158448122Y-142678544D01*
X158366835Y-142609766D01*
X158331819Y-142552242D01*
X158308056Y-142448448D01*
X158353071Y-142263368D01*
X158421849Y-142182081D01*
X158479373Y-142147065D01*
X158583167Y-142123302D01*
X158768248Y-142168317D01*
X158849534Y-142237095D01*
X158884550Y-142294619D01*
X158908313Y-142398413D01*
X158863298Y-142583493D01*
X158794520Y-142664780D01*
X158736996Y-142699796D01*
X158633202Y-142723559D01*
%TO.C,D11*%
X147253954Y-75585046D02*
X147017624Y-76556719D01*
X147248975Y-76612988D01*
X147399039Y-76600479D01*
X147514087Y-76530446D01*
X147582865Y-76449160D01*
X147674150Y-76275333D01*
X147707911Y-76136522D01*
X147706656Y-75940188D01*
X147682894Y-75836394D01*
X147612861Y-75721346D01*
X147485305Y-75641315D01*
X147253954Y-75585046D01*
X148734598Y-75945167D02*
X148179357Y-75810121D01*
X148456977Y-75877644D02*
X148220648Y-76849317D01*
X148161869Y-76687999D01*
X148091836Y-76572951D01*
X148010550Y-76504173D01*
X149660001Y-76170242D02*
X149104759Y-76035197D01*
X149382380Y-76102720D02*
X149146051Y-77074393D01*
X149087272Y-76913075D01*
X149017239Y-76798027D01*
X148935953Y-76729249D01*
%TO.C,D54*%
X214844893Y-147710249D02*
X214608564Y-146738576D01*
X214377213Y-146794845D01*
X214249656Y-146874877D01*
X214179624Y-146989925D01*
X214155861Y-147093719D01*
X214154606Y-147290053D01*
X214188367Y-147428864D01*
X214279653Y-147602690D01*
X214348430Y-147683977D01*
X214463478Y-147754010D01*
X214613542Y-147766518D01*
X214844893Y-147710249D01*
X213174189Y-147087444D02*
X213636891Y-146974906D01*
X213795699Y-147426353D01*
X213738175Y-147391337D01*
X213634381Y-147367575D01*
X213403030Y-147423843D01*
X213321743Y-147492621D01*
X213286727Y-147550145D01*
X213262964Y-147653939D01*
X213319233Y-147885290D01*
X213388011Y-147966576D01*
X213445535Y-148001593D01*
X213549329Y-148025355D01*
X213780680Y-147969086D01*
X213861966Y-147900309D01*
X213896983Y-147842785D01*
X212373833Y-147625157D02*
X212531386Y-148272939D01*
X212515153Y-147198726D02*
X212915311Y-147836510D01*
X212313799Y-147982809D01*
%TO.C,D40*%
X300100811Y-61884585D02*
X299864482Y-60912912D01*
X299633131Y-60969181D01*
X299505574Y-61049213D01*
X299435542Y-61164261D01*
X299411779Y-61268055D01*
X299410524Y-61464389D01*
X299444285Y-61603200D01*
X299535571Y-61777026D01*
X299604348Y-61858313D01*
X299719396Y-61928346D01*
X299869460Y-61940854D01*
X300100811Y-61884585D01*
X298555154Y-61574417D02*
X298712707Y-62222199D01*
X298696474Y-61147987D02*
X299096632Y-61785770D01*
X298495120Y-61932069D01*
X297782325Y-61419333D02*
X297689785Y-61441840D01*
X297608498Y-61510618D01*
X297573482Y-61568142D01*
X297549720Y-61671936D01*
X297548464Y-61868270D01*
X297604733Y-62099621D01*
X297696019Y-62273448D01*
X297764796Y-62354734D01*
X297822320Y-62389751D01*
X297926114Y-62413513D01*
X298018655Y-62391006D01*
X298099941Y-62322228D01*
X298134958Y-62264704D01*
X298158720Y-62160910D01*
X298159975Y-61964576D01*
X298103706Y-61733225D01*
X298012421Y-61559398D01*
X297943643Y-61478112D01*
X297886119Y-61443095D01*
X297782325Y-61419333D01*
%TO.C,D24*%
X156096524Y-119299095D02*
X155860194Y-120270768D01*
X156091545Y-120327037D01*
X156241609Y-120314528D01*
X156356657Y-120244495D01*
X156425435Y-120163209D01*
X156516720Y-119989382D01*
X156550481Y-119850571D01*
X156549226Y-119654237D01*
X156525464Y-119550443D01*
X156455431Y-119435395D01*
X156327875Y-119355364D01*
X156096524Y-119299095D01*
X156808105Y-120403303D02*
X156843121Y-120460827D01*
X156924408Y-120529605D01*
X157155758Y-120585874D01*
X157259552Y-120562111D01*
X157317076Y-120527095D01*
X157385854Y-120445808D01*
X157408362Y-120353268D01*
X157395853Y-120203204D01*
X156975656Y-119512917D01*
X157577168Y-119659216D01*
X158252478Y-120509566D02*
X158410031Y-119861784D01*
X157931097Y-120823458D02*
X157868553Y-120073137D01*
X158470065Y-120219436D01*
%TO.C,D29*%
X206348404Y-79458860D02*
X206112075Y-78487187D01*
X205880724Y-78543456D01*
X205753167Y-78623488D01*
X205683135Y-78738536D01*
X205659372Y-78842330D01*
X205658117Y-79038664D01*
X205691878Y-79177475D01*
X205783164Y-79351301D01*
X205851941Y-79432588D01*
X205966989Y-79502621D01*
X206117053Y-79515129D01*
X206348404Y-79458860D01*
X205209179Y-78804803D02*
X205151655Y-78769787D01*
X205047861Y-78746024D01*
X204816511Y-78802293D01*
X204735224Y-78871071D01*
X204700208Y-78928595D01*
X204676445Y-79032389D01*
X204698953Y-79124929D01*
X204778984Y-79252486D01*
X205469271Y-79672682D01*
X204867759Y-79818981D01*
X204405058Y-79931519D02*
X204219978Y-79976534D01*
X204116183Y-79952772D01*
X204058660Y-79917755D01*
X203932358Y-79801453D01*
X203841073Y-79627626D01*
X203751042Y-79257465D01*
X203774805Y-79153671D01*
X203809821Y-79096147D01*
X203891108Y-79027369D01*
X204076188Y-78982354D01*
X204179982Y-79006116D01*
X204237506Y-79041133D01*
X204306284Y-79122419D01*
X204362553Y-79353770D01*
X204338790Y-79457564D01*
X204303774Y-79515088D01*
X204222488Y-79583866D01*
X204037407Y-79628881D01*
X203933613Y-79605118D01*
X203876089Y-79570102D01*
X203807311Y-79488815D01*
%TO.C,D8*%
X91045017Y-66880652D02*
X90808688Y-67852325D01*
X91040039Y-67908593D01*
X91190103Y-67896085D01*
X91305151Y-67826052D01*
X91373928Y-67744765D01*
X91465214Y-67570939D01*
X91498975Y-67432128D01*
X91497720Y-67235794D01*
X91473957Y-67132000D01*
X91403925Y-67016952D01*
X91276368Y-66936920D01*
X91045017Y-66880652D01*
X92020455Y-67705984D02*
X91916661Y-67729747D01*
X91859137Y-67764763D01*
X91790360Y-67846049D01*
X91779106Y-67892320D01*
X91802868Y-67996114D01*
X91837885Y-68053638D01*
X91919171Y-68122415D01*
X92104252Y-68167430D01*
X92208046Y-68143668D01*
X92265570Y-68108651D01*
X92334347Y-68027365D01*
X92345601Y-67981095D01*
X92321839Y-67877301D01*
X92286822Y-67819777D01*
X92205536Y-67750999D01*
X92020455Y-67705984D01*
X91939169Y-67637206D01*
X91904152Y-67579682D01*
X91880390Y-67475888D01*
X91925405Y-67290808D01*
X91994183Y-67209521D01*
X92051707Y-67174505D01*
X92155501Y-67150742D01*
X92340581Y-67195757D01*
X92421868Y-67264535D01*
X92456884Y-67322059D01*
X92480647Y-67425853D01*
X92435632Y-67610934D01*
X92366854Y-67692220D01*
X92309330Y-67727237D01*
X92205536Y-67750999D01*
%TO.C,D37*%
X242888923Y-68480272D02*
X242652594Y-67508599D01*
X242421243Y-67564868D01*
X242293686Y-67644900D01*
X242223654Y-67759948D01*
X242199891Y-67863742D01*
X242198636Y-68060076D01*
X242232397Y-68198887D01*
X242323683Y-68372713D01*
X242392460Y-68454000D01*
X242507508Y-68524033D01*
X242657572Y-68536541D01*
X242888923Y-68480272D01*
X241773461Y-67722421D02*
X241171949Y-67868720D01*
X241585870Y-68160105D01*
X241447060Y-68193866D01*
X241365773Y-68262644D01*
X241330757Y-68320168D01*
X241306994Y-68423962D01*
X241363263Y-68655313D01*
X241432041Y-68736599D01*
X241489565Y-68771616D01*
X241593359Y-68795378D01*
X241870980Y-68727856D01*
X241952266Y-68659078D01*
X241987283Y-68601554D01*
X240848058Y-67947497D02*
X240200276Y-68105050D01*
X240853037Y-68975439D01*
%TO.C,D43*%
X251045992Y-103092990D02*
X250809663Y-102121317D01*
X250578312Y-102177586D01*
X250450755Y-102257618D01*
X250380723Y-102372666D01*
X250356960Y-102476460D01*
X250355705Y-102672794D01*
X250389466Y-102811605D01*
X250480752Y-102985431D01*
X250549529Y-103066718D01*
X250664577Y-103136751D01*
X250814641Y-103149259D01*
X251045992Y-103092990D01*
X249500335Y-102782822D02*
X249657888Y-103430604D01*
X249641655Y-102356392D02*
X250041813Y-102994175D01*
X249440301Y-103140474D01*
X249005127Y-102560215D02*
X248403615Y-102706514D01*
X248817536Y-102997899D01*
X248678726Y-103031660D01*
X248597440Y-103100438D01*
X248562423Y-103157962D01*
X248538661Y-103261756D01*
X248594930Y-103493106D01*
X248663707Y-103574393D01*
X248721231Y-103609409D01*
X248825025Y-103633172D01*
X249102646Y-103565649D01*
X249183933Y-103496872D01*
X249218949Y-103439348D01*
%TO.C,D49*%
X251646269Y-105561041D02*
X251409940Y-104589368D01*
X251178589Y-104645637D01*
X251051032Y-104725669D01*
X250981000Y-104840717D01*
X250957237Y-104944511D01*
X250955982Y-105140845D01*
X250989743Y-105279656D01*
X251081029Y-105453482D01*
X251149806Y-105534769D01*
X251264854Y-105604802D01*
X251414918Y-105617310D01*
X251646269Y-105561041D01*
X250100612Y-105250873D02*
X250258165Y-105898655D01*
X250241932Y-104824443D02*
X250642090Y-105462226D01*
X250040578Y-105608525D01*
X249702923Y-106033700D02*
X249517843Y-106078715D01*
X249414048Y-106054953D01*
X249356525Y-106019936D01*
X249230223Y-105903634D01*
X249138938Y-105729807D01*
X249048907Y-105359646D01*
X249072670Y-105255852D01*
X249107686Y-105198328D01*
X249188973Y-105129550D01*
X249374053Y-105084535D01*
X249477847Y-105108297D01*
X249535371Y-105143314D01*
X249604149Y-105224600D01*
X249660418Y-105455951D01*
X249636655Y-105559745D01*
X249601639Y-105617269D01*
X249520353Y-105686047D01*
X249335272Y-105731062D01*
X249231478Y-105707299D01*
X249173954Y-105672283D01*
X249105176Y-105590996D01*
%TO.C,D12*%
X165224076Y-82308364D02*
X164987746Y-83280037D01*
X165219097Y-83336306D01*
X165369161Y-83323797D01*
X165484209Y-83253764D01*
X165552987Y-83172478D01*
X165644272Y-82998651D01*
X165678033Y-82859840D01*
X165676778Y-82663506D01*
X165653016Y-82559712D01*
X165582983Y-82444664D01*
X165455427Y-82364633D01*
X165224076Y-82308364D01*
X166704720Y-82668485D02*
X166149479Y-82533439D01*
X166427099Y-82600962D02*
X166190770Y-83572635D01*
X166131991Y-83411317D01*
X166061958Y-83296269D01*
X165980672Y-83227491D01*
X166861060Y-83637648D02*
X166896076Y-83695172D01*
X166977363Y-83763949D01*
X167208713Y-83820218D01*
X167312507Y-83796456D01*
X167370031Y-83761439D01*
X167438809Y-83680153D01*
X167461316Y-83587612D01*
X167448808Y-83437548D01*
X167028611Y-82747261D01*
X167630123Y-82893560D01*
%TO.C,D47*%
X215952830Y-118947653D02*
X215716501Y-117975980D01*
X215485150Y-118032249D01*
X215357593Y-118112281D01*
X215287561Y-118227329D01*
X215263798Y-118331123D01*
X215262543Y-118527457D01*
X215296304Y-118666268D01*
X215387590Y-118840094D01*
X215456367Y-118921381D01*
X215571415Y-118991414D01*
X215721479Y-119003922D01*
X215952830Y-118947653D01*
X214407173Y-118637485D02*
X214564726Y-119285267D01*
X214548493Y-118211055D02*
X214948651Y-118848838D01*
X214347139Y-118995137D01*
X213911965Y-118414878D02*
X213264183Y-118572431D01*
X213916944Y-119442820D01*
%TO.C,D23*%
X156696800Y-116831046D02*
X156460470Y-117802719D01*
X156691821Y-117858988D01*
X156841885Y-117846479D01*
X156956933Y-117776446D01*
X157025711Y-117695160D01*
X157116996Y-117521333D01*
X157150757Y-117382522D01*
X157149502Y-117186188D01*
X157125740Y-117082394D01*
X157055707Y-116967346D01*
X156928151Y-116887315D01*
X156696800Y-116831046D01*
X157408381Y-117935254D02*
X157443397Y-117992778D01*
X157524684Y-118061556D01*
X157756034Y-118117825D01*
X157859828Y-118094062D01*
X157917352Y-118059046D01*
X157986130Y-117977759D01*
X158008638Y-117885219D01*
X157996129Y-117735155D01*
X157575932Y-117044868D01*
X158177444Y-117191167D01*
X158265006Y-118241616D02*
X158866518Y-118387915D01*
X158632657Y-117938978D01*
X158771467Y-117972739D01*
X158875262Y-117948977D01*
X158932785Y-117913960D01*
X159001563Y-117832674D01*
X159057832Y-117601323D01*
X159034069Y-117497529D01*
X158999053Y-117440005D01*
X158917767Y-117371227D01*
X158640146Y-117303705D01*
X158536352Y-117327467D01*
X158478828Y-117362483D01*
%TO.C,D39*%
X281590439Y-66386660D02*
X281354110Y-65414987D01*
X281122759Y-65471256D01*
X280995202Y-65551288D01*
X280925170Y-65666336D01*
X280901407Y-65770130D01*
X280900152Y-65966464D01*
X280933913Y-66105275D01*
X281025199Y-66279101D01*
X281093976Y-66360388D01*
X281209024Y-66430421D01*
X281359088Y-66442929D01*
X281590439Y-66386660D01*
X280474977Y-65628809D02*
X279873465Y-65775108D01*
X280287386Y-66066493D01*
X280148576Y-66100254D01*
X280067289Y-66169032D01*
X280032273Y-66226556D01*
X280008510Y-66330350D01*
X280064779Y-66561701D01*
X280133557Y-66642987D01*
X280191081Y-66678004D01*
X280294875Y-66701766D01*
X280572496Y-66634244D01*
X280653782Y-66565466D01*
X280688799Y-66507942D01*
X279647093Y-66859319D02*
X279462013Y-66904334D01*
X279358218Y-66880572D01*
X279300695Y-66845555D01*
X279174393Y-66729253D01*
X279083108Y-66555426D01*
X278993077Y-66185265D01*
X279016840Y-66081471D01*
X279051856Y-66023947D01*
X279133143Y-65955169D01*
X279318223Y-65910154D01*
X279422017Y-65933916D01*
X279479541Y-65968933D01*
X279548319Y-66050219D01*
X279604588Y-66281570D01*
X279580825Y-66385364D01*
X279545809Y-66442888D01*
X279464523Y-66511666D01*
X279279442Y-66556681D01*
X279175648Y-66532918D01*
X279118124Y-66497902D01*
X279049346Y-66416615D01*
%TO.C,D55*%
X230126939Y-137458244D02*
X229890610Y-136486571D01*
X229659259Y-136542840D01*
X229531702Y-136622872D01*
X229461670Y-136737920D01*
X229437907Y-136841714D01*
X229436652Y-137038048D01*
X229470413Y-137176859D01*
X229561699Y-137350685D01*
X229630476Y-137431972D01*
X229745524Y-137502005D01*
X229895588Y-137514513D01*
X230126939Y-137458244D01*
X228456235Y-136835439D02*
X228918937Y-136722901D01*
X229077745Y-137174348D01*
X229020221Y-137139332D01*
X228916427Y-137115570D01*
X228685076Y-137171838D01*
X228603789Y-137240616D01*
X228568773Y-137298140D01*
X228545010Y-137401934D01*
X228601279Y-137633285D01*
X228670057Y-137714571D01*
X228727581Y-137749588D01*
X228831375Y-137773350D01*
X229062726Y-137717081D01*
X229144012Y-137648304D01*
X229179029Y-137590780D01*
X227530832Y-137060514D02*
X227993534Y-136947976D01*
X228152342Y-137399424D01*
X228094818Y-137364408D01*
X227991024Y-137340645D01*
X227759673Y-137396914D01*
X227678387Y-137465692D01*
X227643370Y-137523216D01*
X227619608Y-137627010D01*
X227675877Y-137858360D01*
X227744654Y-137939647D01*
X227802178Y-137974663D01*
X227905972Y-137998426D01*
X228137323Y-137942157D01*
X228218609Y-137873379D01*
X228253626Y-137815855D01*
%TO.C,D50*%
X270883666Y-102973374D02*
X270647337Y-102001701D01*
X270415986Y-102057970D01*
X270288429Y-102138002D01*
X270218397Y-102253050D01*
X270194634Y-102356844D01*
X270193379Y-102553178D01*
X270227140Y-102691989D01*
X270318426Y-102865815D01*
X270387203Y-102947102D01*
X270502251Y-103017135D01*
X270652315Y-103029643D01*
X270883666Y-102973374D01*
X269212962Y-102350569D02*
X269675664Y-102238031D01*
X269834472Y-102689478D01*
X269776948Y-102654462D01*
X269673154Y-102630700D01*
X269441803Y-102686968D01*
X269360516Y-102755746D01*
X269325500Y-102813270D01*
X269301737Y-102917064D01*
X269358006Y-103148415D01*
X269426784Y-103229701D01*
X269484308Y-103264718D01*
X269588102Y-103288480D01*
X269819453Y-103232211D01*
X269900739Y-103163434D01*
X269935756Y-103105910D01*
X268565180Y-102508122D02*
X268472640Y-102530629D01*
X268391353Y-102599407D01*
X268356337Y-102656931D01*
X268332575Y-102760725D01*
X268331319Y-102957059D01*
X268387588Y-103188410D01*
X268478874Y-103362237D01*
X268547651Y-103443523D01*
X268605175Y-103478540D01*
X268708969Y-103502302D01*
X268801510Y-103479795D01*
X268882796Y-103411017D01*
X268917813Y-103353493D01*
X268941575Y-103249699D01*
X268942830Y-103053365D01*
X268886561Y-102822014D01*
X268795276Y-102648187D01*
X268726498Y-102566901D01*
X268668974Y-102531884D01*
X268565180Y-102508122D01*
%TO.C,D16*%
X81331361Y-103728830D02*
X81095031Y-104700503D01*
X81326382Y-104756772D01*
X81476446Y-104744263D01*
X81591494Y-104674230D01*
X81660272Y-104592944D01*
X81751557Y-104419117D01*
X81785318Y-104280306D01*
X81784063Y-104083972D01*
X81760301Y-103980178D01*
X81690268Y-103865130D01*
X81562712Y-103785099D01*
X81331361Y-103728830D01*
X82812005Y-104088951D02*
X82256764Y-103953905D01*
X82534384Y-104021428D02*
X82298055Y-104993101D01*
X82239276Y-104831783D01*
X82169243Y-104716735D01*
X82087957Y-104647957D01*
X83408539Y-105263192D02*
X83223458Y-105218177D01*
X83142171Y-105149399D01*
X83107155Y-105091875D01*
X83048376Y-104930557D01*
X83047121Y-104734223D01*
X83137151Y-104364062D01*
X83205929Y-104282775D01*
X83263453Y-104247759D01*
X83367247Y-104223996D01*
X83552328Y-104269011D01*
X83633614Y-104337789D01*
X83668630Y-104395313D01*
X83692393Y-104499107D01*
X83636124Y-104730458D01*
X83567346Y-104811744D01*
X83509823Y-104846761D01*
X83406028Y-104870523D01*
X83220948Y-104825508D01*
X83139661Y-104756730D01*
X83104645Y-104699206D01*
X83080882Y-104595412D01*
%TO.C,D30*%
X224318524Y-72735541D02*
X224082195Y-71763868D01*
X223850844Y-71820137D01*
X223723287Y-71900169D01*
X223653255Y-72015217D01*
X223629492Y-72119011D01*
X223628237Y-72315345D01*
X223661998Y-72454156D01*
X223753284Y-72627982D01*
X223822061Y-72709269D01*
X223937109Y-72779302D01*
X224087173Y-72791810D01*
X224318524Y-72735541D01*
X223203062Y-71977690D02*
X222601550Y-72123989D01*
X223015471Y-72415374D01*
X222876661Y-72449135D01*
X222795374Y-72517913D01*
X222760358Y-72575437D01*
X222736595Y-72679231D01*
X222792864Y-72910582D01*
X222861642Y-72991868D01*
X222919166Y-73026885D01*
X223022960Y-73050647D01*
X223300581Y-72983125D01*
X223381867Y-72914347D01*
X223416884Y-72856823D01*
X222000038Y-72270289D02*
X221907498Y-72292796D01*
X221826211Y-72361574D01*
X221791195Y-72419098D01*
X221767433Y-72522892D01*
X221766177Y-72719226D01*
X221822446Y-72950577D01*
X221913732Y-73124404D01*
X221982509Y-73205690D01*
X222040033Y-73240707D01*
X222143827Y-73264469D01*
X222236368Y-73241962D01*
X222317654Y-73173184D01*
X222352671Y-73115660D01*
X222376433Y-73011866D01*
X222377688Y-72815532D01*
X222321419Y-72584181D01*
X222230134Y-72410354D01*
X222161356Y-72329068D01*
X222103832Y-72294051D01*
X222000038Y-72270289D01*
%TO.C,D31*%
X242288648Y-66012220D02*
X242052319Y-65040547D01*
X241820968Y-65096816D01*
X241693411Y-65176848D01*
X241623379Y-65291896D01*
X241599616Y-65395690D01*
X241598361Y-65592024D01*
X241632122Y-65730835D01*
X241723408Y-65904661D01*
X241792185Y-65985948D01*
X241907233Y-66055981D01*
X242057297Y-66068489D01*
X242288648Y-66012220D01*
X241173186Y-65254369D02*
X240571674Y-65400668D01*
X240985595Y-65692053D01*
X240846785Y-65725814D01*
X240765498Y-65794592D01*
X240730482Y-65852116D01*
X240706719Y-65955910D01*
X240762988Y-66187261D01*
X240831766Y-66268547D01*
X240889290Y-66303564D01*
X240993084Y-66327326D01*
X241270705Y-66259804D01*
X241351991Y-66191026D01*
X241387008Y-66133502D01*
X239882601Y-66597417D02*
X240437842Y-66462372D01*
X240160222Y-66529894D02*
X239923892Y-65558221D01*
X240050194Y-65674524D01*
X240165242Y-65744557D01*
X240269036Y-65768320D01*
%TO.C,D27*%
X151711379Y-146464264D02*
X151475049Y-147435937D01*
X151706400Y-147492206D01*
X151856464Y-147479697D01*
X151971512Y-147409664D01*
X152040290Y-147328378D01*
X152131575Y-147154551D01*
X152165336Y-147015740D01*
X152164081Y-146819406D01*
X152140319Y-146715612D01*
X152070286Y-146600564D01*
X151942730Y-146520533D01*
X151711379Y-146464264D01*
X152422960Y-147568472D02*
X152457976Y-147625996D01*
X152539263Y-147694774D01*
X152770613Y-147751043D01*
X152874407Y-147727280D01*
X152931931Y-147692264D01*
X153000709Y-147610977D01*
X153023217Y-147518437D01*
X153010708Y-147368373D01*
X152590511Y-146678086D01*
X153192023Y-146824385D01*
X153279585Y-147874834D02*
X153927367Y-148032387D01*
X153747265Y-146959430D01*
%TO.C,D26*%
X141799014Y-137779673D02*
X141562684Y-138751346D01*
X141794035Y-138807615D01*
X141944099Y-138795106D01*
X142059147Y-138725073D01*
X142127925Y-138643787D01*
X142219210Y-138469960D01*
X142252971Y-138331149D01*
X142251716Y-138134815D01*
X142227954Y-138031021D01*
X142157921Y-137915973D01*
X142030365Y-137835942D01*
X141799014Y-137779673D01*
X142510595Y-138883881D02*
X142545611Y-138941405D01*
X142626898Y-139010183D01*
X142858248Y-139066452D01*
X142962042Y-139042689D01*
X143019566Y-139007673D01*
X143088344Y-138926386D01*
X143110852Y-138833846D01*
X143098343Y-138683782D01*
X142678146Y-137993495D01*
X143279658Y-138139794D01*
X143876192Y-139314035D02*
X143691111Y-139269020D01*
X143609824Y-139200242D01*
X143574808Y-139142718D01*
X143516029Y-138981400D01*
X143514774Y-138785066D01*
X143604804Y-138414905D01*
X143673582Y-138333618D01*
X143731106Y-138298602D01*
X143834900Y-138274839D01*
X144019981Y-138319854D01*
X144101267Y-138388632D01*
X144136283Y-138446156D01*
X144160046Y-138549950D01*
X144103777Y-138781301D01*
X144034999Y-138862587D01*
X143977476Y-138897604D01*
X143873681Y-138921366D01*
X143688601Y-138876351D01*
X143607314Y-138807573D01*
X143572298Y-138750049D01*
X143548535Y-138646255D01*
%TO.C,D44*%
X270343417Y-100752133D02*
X270107088Y-99780460D01*
X269875737Y-99836729D01*
X269748180Y-99916761D01*
X269678148Y-100031809D01*
X269654385Y-100135603D01*
X269653130Y-100331937D01*
X269686891Y-100470748D01*
X269778177Y-100644574D01*
X269846954Y-100725861D01*
X269962002Y-100795894D01*
X270112066Y-100808402D01*
X270343417Y-100752133D01*
X268797760Y-100441965D02*
X268955313Y-101089747D01*
X268939080Y-100015535D02*
X269339238Y-100653318D01*
X268737726Y-100799617D01*
X267872357Y-100667041D02*
X268029910Y-101314823D01*
X268013677Y-100240610D02*
X268413835Y-100878394D01*
X267812323Y-101024693D01*
%TO.C,D41*%
X215352553Y-116479602D02*
X215116224Y-115507929D01*
X214884873Y-115564198D01*
X214757316Y-115644230D01*
X214687284Y-115759278D01*
X214663521Y-115863072D01*
X214662266Y-116059406D01*
X214696027Y-116198217D01*
X214787313Y-116372043D01*
X214856090Y-116453330D01*
X214971138Y-116523363D01*
X215121202Y-116535871D01*
X215352553Y-116479602D01*
X213806896Y-116169434D02*
X213964449Y-116817216D01*
X213948216Y-115743004D02*
X214348374Y-116380787D01*
X213746862Y-116527086D01*
X212946506Y-117064799D02*
X213501747Y-116929754D01*
X213224127Y-116997276D02*
X212987797Y-116025603D01*
X213114099Y-116141906D01*
X213229147Y-116211939D01*
X213332941Y-116235702D01*
%TO.C,D25*%
X123828892Y-131056353D02*
X123592562Y-132028026D01*
X123823913Y-132084295D01*
X123973977Y-132071786D01*
X124089025Y-132001753D01*
X124157803Y-131920467D01*
X124249088Y-131746640D01*
X124282849Y-131607829D01*
X124281594Y-131411495D01*
X124257832Y-131307701D01*
X124187799Y-131192653D01*
X124060243Y-131112622D01*
X123828892Y-131056353D01*
X124540473Y-132160561D02*
X124575489Y-132218085D01*
X124656776Y-132286863D01*
X124888126Y-132343132D01*
X124991920Y-132319369D01*
X125049444Y-132284353D01*
X125118222Y-132203066D01*
X125140730Y-132110526D01*
X125128221Y-131960462D01*
X124708024Y-131270175D01*
X125309536Y-131416474D01*
X125952340Y-132601969D02*
X125489638Y-132489431D01*
X125555906Y-132015476D01*
X125590922Y-132072999D01*
X125672209Y-132141777D01*
X125903559Y-132198046D01*
X126007354Y-132174284D01*
X126064877Y-132139267D01*
X126133655Y-132057981D01*
X126189924Y-131826630D01*
X126166161Y-131722836D01*
X126131145Y-131665312D01*
X126049859Y-131596534D01*
X125818508Y-131540265D01*
X125714714Y-131564028D01*
X125657190Y-131599044D01*
%TO.C,D42*%
X233322677Y-109756284D02*
X233086348Y-108784611D01*
X232854997Y-108840880D01*
X232727440Y-108920912D01*
X232657408Y-109035960D01*
X232633645Y-109139754D01*
X232632390Y-109336088D01*
X232666151Y-109474899D01*
X232757437Y-109648725D01*
X232826214Y-109730012D01*
X232941262Y-109800045D01*
X233091326Y-109812553D01*
X233322677Y-109756284D01*
X231777020Y-109446116D02*
X231934573Y-110093898D01*
X231918340Y-109019686D02*
X232318498Y-109657469D01*
X231716986Y-109803768D01*
X231258050Y-109327303D02*
X231200526Y-109292287D01*
X231096732Y-109268524D01*
X230865381Y-109324793D01*
X230784094Y-109393571D01*
X230749078Y-109451095D01*
X230725315Y-109554889D01*
X230747823Y-109647429D01*
X230827854Y-109774986D01*
X231518141Y-110195182D01*
X230916630Y-110341481D01*
%TO.C,D33*%
X280990163Y-63918608D02*
X280753834Y-62946935D01*
X280522483Y-63003204D01*
X280394926Y-63083236D01*
X280324894Y-63198284D01*
X280301131Y-63302078D01*
X280299876Y-63498412D01*
X280333637Y-63637223D01*
X280424923Y-63811049D01*
X280493700Y-63892336D01*
X280608748Y-63962369D01*
X280758812Y-63974877D01*
X280990163Y-63918608D01*
X279874701Y-63160757D02*
X279273189Y-63307056D01*
X279687110Y-63598441D01*
X279548300Y-63632202D01*
X279467013Y-63700980D01*
X279431997Y-63758504D01*
X279408234Y-63862298D01*
X279464503Y-64093649D01*
X279533281Y-64174935D01*
X279590805Y-64209952D01*
X279694599Y-64233714D01*
X279972220Y-64166192D01*
X280053506Y-64097414D01*
X280088523Y-64039890D01*
X278949298Y-63385833D02*
X278347786Y-63532132D01*
X278761707Y-63823517D01*
X278622897Y-63857278D01*
X278541611Y-63926056D01*
X278506594Y-63983580D01*
X278482832Y-64087374D01*
X278539101Y-64318724D01*
X278607878Y-64400011D01*
X278665402Y-64435027D01*
X278769196Y-64458790D01*
X279046817Y-64391267D01*
X279128104Y-64322490D01*
X279163120Y-64264966D01*
%TO.C,D10*%
X129160431Y-68831712D02*
X128924101Y-69803385D01*
X129155452Y-69859654D01*
X129305516Y-69847145D01*
X129420564Y-69777112D01*
X129489342Y-69695826D01*
X129580627Y-69521999D01*
X129614388Y-69383188D01*
X129613133Y-69186854D01*
X129589371Y-69083060D01*
X129519338Y-68968012D01*
X129391782Y-68887981D01*
X129160431Y-68831712D01*
X130641075Y-69191833D02*
X130085834Y-69056787D01*
X130363454Y-69124310D02*
X130127125Y-70095983D01*
X130068346Y-69934665D01*
X129998313Y-69819617D01*
X129917027Y-69750839D01*
X131006258Y-70309805D02*
X131098798Y-70332312D01*
X131202592Y-70308550D01*
X131260116Y-70273534D01*
X131328894Y-70192247D01*
X131420179Y-70018420D01*
X131476448Y-69787069D01*
X131475193Y-69590735D01*
X131451430Y-69486941D01*
X131416414Y-69429417D01*
X131335127Y-69360639D01*
X131242587Y-69338132D01*
X131138793Y-69361894D01*
X131081269Y-69396911D01*
X131012492Y-69478197D01*
X130921206Y-69652024D01*
X130864937Y-69883375D01*
X130866192Y-70079709D01*
X130889955Y-70183503D01*
X130924971Y-70241027D01*
X131006258Y-70309805D01*
%TO.C,D56*%
X248097059Y-130734921D02*
X247860730Y-129763248D01*
X247629379Y-129819517D01*
X247501822Y-129899549D01*
X247431790Y-130014597D01*
X247408027Y-130118391D01*
X247406772Y-130314725D01*
X247440533Y-130453536D01*
X247531819Y-130627362D01*
X247600596Y-130708649D01*
X247715644Y-130778682D01*
X247865708Y-130791190D01*
X248097059Y-130734921D01*
X246426355Y-130112116D02*
X246889057Y-129999578D01*
X247047865Y-130451025D01*
X246990341Y-130416009D01*
X246886547Y-130392247D01*
X246655196Y-130448515D01*
X246573909Y-130517293D01*
X246538893Y-130574817D01*
X246515130Y-130678611D01*
X246571399Y-130909962D01*
X246640177Y-130991248D01*
X246697701Y-131026265D01*
X246801495Y-131050027D01*
X247032846Y-130993758D01*
X247114132Y-130924981D01*
X247149149Y-130867457D01*
X245547223Y-130325938D02*
X245732303Y-130280922D01*
X245836097Y-130304685D01*
X245893621Y-130339701D01*
X246019923Y-130456004D01*
X246111208Y-130629831D01*
X246201238Y-130999992D01*
X246177476Y-131103786D01*
X246142459Y-131161310D01*
X246061173Y-131230088D01*
X245876092Y-131275103D01*
X245772298Y-131251340D01*
X245714774Y-131216324D01*
X245645997Y-131135037D01*
X245589728Y-130903687D01*
X245613490Y-130799893D01*
X245648507Y-130742369D01*
X245729793Y-130673591D01*
X245914874Y-130628576D01*
X246018668Y-130652339D01*
X246076192Y-130687355D01*
X246144969Y-130768641D01*
%TO.C,D38*%
X261939544Y-66199441D02*
X261703215Y-65227768D01*
X261471864Y-65284037D01*
X261344307Y-65364069D01*
X261274275Y-65479117D01*
X261250512Y-65582911D01*
X261249257Y-65779245D01*
X261283018Y-65918056D01*
X261374304Y-66091882D01*
X261443081Y-66173169D01*
X261558129Y-66243202D01*
X261708193Y-66255710D01*
X261939544Y-66199441D01*
X260824082Y-65441590D02*
X260222570Y-65587889D01*
X260636491Y-65879274D01*
X260497681Y-65913035D01*
X260416394Y-65981813D01*
X260381378Y-66039337D01*
X260357615Y-66143131D01*
X260413884Y-66374482D01*
X260482662Y-66455768D01*
X260540186Y-66490785D01*
X260643980Y-66514547D01*
X260921601Y-66447025D01*
X261002887Y-66378247D01*
X261037904Y-66320723D01*
X259768612Y-66139366D02*
X259849899Y-66070588D01*
X259884915Y-66013064D01*
X259908678Y-65909270D01*
X259897424Y-65863000D01*
X259828646Y-65781714D01*
X259771122Y-65746697D01*
X259667328Y-65722935D01*
X259482248Y-65767950D01*
X259400961Y-65836728D01*
X259365945Y-65894252D01*
X259342182Y-65998046D01*
X259353436Y-66044316D01*
X259422214Y-66125602D01*
X259479738Y-66160619D01*
X259583532Y-66184381D01*
X259768612Y-66139366D01*
X259872406Y-66163129D01*
X259929930Y-66198145D01*
X259998708Y-66279432D01*
X260043723Y-66464512D01*
X260019961Y-66568306D01*
X259984944Y-66625830D01*
X259903658Y-66694608D01*
X259718577Y-66739623D01*
X259614783Y-66715860D01*
X259557259Y-66680844D01*
X259488482Y-66599557D01*
X259443466Y-66414477D01*
X259467229Y-66310683D01*
X259502245Y-66253159D01*
X259583532Y-66184381D01*
%TO.C,D6*%
X166287054Y-79952857D02*
X166050725Y-80924530D01*
X166282076Y-80980798D01*
X166432140Y-80968290D01*
X166547188Y-80898257D01*
X166615965Y-80816970D01*
X166707251Y-80643144D01*
X166741012Y-80504333D01*
X166739757Y-80307999D01*
X166715994Y-80204205D01*
X166645962Y-80089157D01*
X166518405Y-80009125D01*
X166287054Y-79952857D01*
X167438829Y-81262143D02*
X167253749Y-81217128D01*
X167172462Y-81148350D01*
X167137446Y-81090826D01*
X167078667Y-80929508D01*
X167077412Y-80733174D01*
X167167442Y-80363013D01*
X167236220Y-80281726D01*
X167293744Y-80246710D01*
X167397538Y-80222947D01*
X167582618Y-80267962D01*
X167663905Y-80336740D01*
X167698921Y-80394264D01*
X167722684Y-80498058D01*
X167666415Y-80729409D01*
X167597637Y-80810695D01*
X167540113Y-80845712D01*
X167436319Y-80869474D01*
X167251238Y-80824459D01*
X167169952Y-80755681D01*
X167134936Y-80698158D01*
X167111173Y-80594363D01*
%TO.C,D17*%
X101582533Y-101073562D02*
X101346203Y-102045235D01*
X101577554Y-102101504D01*
X101727618Y-102088995D01*
X101842666Y-102018962D01*
X101911444Y-101937676D01*
X102002729Y-101763849D01*
X102036490Y-101625038D01*
X102035235Y-101428704D01*
X102011473Y-101324910D01*
X101941440Y-101209862D01*
X101813884Y-101129831D01*
X101582533Y-101073562D01*
X103063177Y-101433683D02*
X102507936Y-101298637D01*
X102785556Y-101366160D02*
X102549227Y-102337833D01*
X102490448Y-102176515D01*
X102420415Y-102061467D01*
X102339129Y-101992689D01*
X103150739Y-102484132D02*
X103798521Y-102641685D01*
X103618419Y-101568728D01*
%TO.C,D48*%
X233922951Y-112224331D02*
X233686622Y-111252658D01*
X233455271Y-111308927D01*
X233327714Y-111388959D01*
X233257682Y-111504007D01*
X233233919Y-111607801D01*
X233232664Y-111804135D01*
X233266425Y-111942946D01*
X233357711Y-112116772D01*
X233426488Y-112198059D01*
X233541536Y-112268092D01*
X233691600Y-112280600D01*
X233922951Y-112224331D01*
X232377294Y-111914163D02*
X232534847Y-112561945D01*
X232518614Y-111487733D02*
X232918772Y-112125516D01*
X232317260Y-112271815D01*
X231752019Y-112164256D02*
X231833306Y-112095478D01*
X231868322Y-112037954D01*
X231892085Y-111934160D01*
X231880831Y-111887890D01*
X231812053Y-111806604D01*
X231754529Y-111771587D01*
X231650735Y-111747825D01*
X231465655Y-111792840D01*
X231384368Y-111861618D01*
X231349352Y-111919142D01*
X231325589Y-112022936D01*
X231336843Y-112069206D01*
X231405621Y-112150492D01*
X231463145Y-112185509D01*
X231566939Y-112209271D01*
X231752019Y-112164256D01*
X231855813Y-112188019D01*
X231913337Y-112223035D01*
X231982115Y-112304322D01*
X232027130Y-112489402D01*
X232003368Y-112593196D01*
X231968351Y-112650720D01*
X231887065Y-112719498D01*
X231701984Y-112764513D01*
X231598190Y-112740750D01*
X231540666Y-112705734D01*
X231471889Y-112624447D01*
X231426873Y-112439367D01*
X231450636Y-112335573D01*
X231485652Y-112278049D01*
X231566939Y-112209271D01*
%TO.C,D2*%
X91645295Y-64412605D02*
X91408966Y-65384278D01*
X91640317Y-65440546D01*
X91790381Y-65428038D01*
X91905429Y-65358005D01*
X91974206Y-65276718D01*
X92065492Y-65102892D01*
X92099253Y-64964081D01*
X92097998Y-64767747D01*
X92074235Y-64663953D01*
X92004203Y-64548905D01*
X91876646Y-64468873D01*
X91645295Y-64412605D01*
X92356876Y-65516813D02*
X92391893Y-65574337D01*
X92473179Y-65643115D01*
X92704530Y-65699383D01*
X92808324Y-65675621D01*
X92865848Y-65640604D01*
X92934625Y-65559318D01*
X92957133Y-65466778D01*
X92944624Y-65316713D01*
X92524428Y-64626426D01*
X93125940Y-64772726D01*
%TO.C,D51*%
X290594589Y-103407401D02*
X290358260Y-102435728D01*
X290126909Y-102491997D01*
X289999352Y-102572029D01*
X289929320Y-102687077D01*
X289905557Y-102790871D01*
X289904302Y-102987205D01*
X289938063Y-103126016D01*
X290029349Y-103299842D01*
X290098126Y-103381129D01*
X290213174Y-103451162D01*
X290363238Y-103463670D01*
X290594589Y-103407401D01*
X288923885Y-102784596D02*
X289386587Y-102672058D01*
X289545395Y-103123505D01*
X289487871Y-103088489D01*
X289384077Y-103064727D01*
X289152726Y-103120995D01*
X289071439Y-103189773D01*
X289036423Y-103247297D01*
X289012660Y-103351091D01*
X289068929Y-103582442D01*
X289137707Y-103663728D01*
X289195231Y-103698745D01*
X289299025Y-103722507D01*
X289530376Y-103666238D01*
X289611662Y-103597461D01*
X289646679Y-103539937D01*
X288188542Y-103992598D02*
X288743783Y-103857553D01*
X288466163Y-103925075D02*
X288229833Y-102953402D01*
X288356135Y-103069705D01*
X288471183Y-103139738D01*
X288574977Y-103163501D01*
%TO.C,D22*%
X138003000Y-112545762D02*
X137766670Y-113517435D01*
X137998021Y-113573704D01*
X138148085Y-113561195D01*
X138263133Y-113491162D01*
X138331911Y-113409876D01*
X138423196Y-113236049D01*
X138456957Y-113097238D01*
X138455702Y-112900904D01*
X138431940Y-112797110D01*
X138361907Y-112682062D01*
X138234351Y-112602031D01*
X138003000Y-112545762D01*
X138714581Y-113649970D02*
X138749597Y-113707494D01*
X138830884Y-113776272D01*
X139062234Y-113832541D01*
X139166028Y-113808778D01*
X139223552Y-113773762D01*
X139292330Y-113692475D01*
X139314838Y-113599935D01*
X139302329Y-113449871D01*
X138882132Y-112759584D01*
X139483644Y-112905883D01*
X139639984Y-113875046D02*
X139675000Y-113932570D01*
X139756287Y-114001347D01*
X139987637Y-114057616D01*
X140091431Y-114033854D01*
X140148955Y-113998837D01*
X140217733Y-113917551D01*
X140240240Y-113825010D01*
X140227732Y-113674946D01*
X139807535Y-112984659D01*
X140409047Y-113130958D01*
%TO.C,D9*%
X110695915Y-66693434D02*
X110459586Y-67665107D01*
X110690937Y-67721375D01*
X110841001Y-67708867D01*
X110956049Y-67638834D01*
X111024826Y-67557547D01*
X111116112Y-67383721D01*
X111149873Y-67244910D01*
X111148618Y-67048576D01*
X111124855Y-66944782D01*
X111054823Y-66829734D01*
X110927266Y-66749702D01*
X110695915Y-66693434D01*
X111713858Y-66941017D02*
X111898939Y-66986032D01*
X111980225Y-67054810D01*
X112015242Y-67112333D01*
X112074021Y-67273651D01*
X112075276Y-67469986D01*
X111985245Y-67840147D01*
X111916468Y-67921433D01*
X111858944Y-67956450D01*
X111755150Y-67980212D01*
X111570069Y-67935197D01*
X111488783Y-67866420D01*
X111453766Y-67808896D01*
X111430004Y-67705102D01*
X111486273Y-67473751D01*
X111555050Y-67392464D01*
X111612574Y-67357448D01*
X111716368Y-67333685D01*
X111901449Y-67378701D01*
X111982735Y-67447478D01*
X112017752Y-67505002D01*
X112041514Y-67608796D01*
%TO.C,D36*%
X224918802Y-75203592D02*
X224682473Y-74231919D01*
X224451122Y-74288188D01*
X224323565Y-74368220D01*
X224253533Y-74483268D01*
X224229770Y-74587062D01*
X224228515Y-74783396D01*
X224262276Y-74922207D01*
X224353562Y-75096033D01*
X224422339Y-75177320D01*
X224537387Y-75247353D01*
X224687451Y-75259861D01*
X224918802Y-75203592D01*
X223803340Y-74445741D02*
X223201828Y-74592040D01*
X223615749Y-74883425D01*
X223476939Y-74917186D01*
X223395652Y-74985964D01*
X223360636Y-75043488D01*
X223336873Y-75147282D01*
X223393142Y-75378633D01*
X223461920Y-75459919D01*
X223519444Y-75494936D01*
X223623238Y-75518698D01*
X223900859Y-75451176D01*
X223982145Y-75382398D01*
X224017162Y-75324874D01*
X222368966Y-74794609D02*
X222554046Y-74749593D01*
X222657840Y-74773356D01*
X222715364Y-74808372D01*
X222841666Y-74924675D01*
X222932951Y-75098502D01*
X223022981Y-75468663D01*
X222999219Y-75572457D01*
X222964202Y-75629981D01*
X222882916Y-75698759D01*
X222697835Y-75743774D01*
X222594041Y-75720011D01*
X222536517Y-75684995D01*
X222467740Y-75603708D01*
X222411471Y-75372358D01*
X222435233Y-75268564D01*
X222470250Y-75211040D01*
X222551536Y-75142262D01*
X222736617Y-75097247D01*
X222840411Y-75121010D01*
X222897935Y-75156026D01*
X222966712Y-75237312D01*
%TO.C,D46*%
X308504686Y-96437276D02*
X308268357Y-95465603D01*
X308037006Y-95521872D01*
X307909449Y-95601904D01*
X307839417Y-95716952D01*
X307815654Y-95820746D01*
X307814399Y-96017080D01*
X307848160Y-96155891D01*
X307939446Y-96329717D01*
X308008223Y-96411004D01*
X308123271Y-96481037D01*
X308273335Y-96493545D01*
X308504686Y-96437276D01*
X306959029Y-96127108D02*
X307116582Y-96774890D01*
X307100349Y-95700678D02*
X307500507Y-96338461D01*
X306898995Y-96484760D01*
X305954850Y-96028293D02*
X306139930Y-95983277D01*
X306243724Y-96007040D01*
X306301248Y-96042056D01*
X306427550Y-96158359D01*
X306518835Y-96332186D01*
X306608865Y-96702347D01*
X306585103Y-96806141D01*
X306550086Y-96863665D01*
X306468800Y-96932443D01*
X306283719Y-96977458D01*
X306179925Y-96953695D01*
X306122401Y-96918679D01*
X306053624Y-96837392D01*
X305997355Y-96606042D01*
X306021117Y-96502248D01*
X306056134Y-96444724D01*
X306137420Y-96375946D01*
X306322501Y-96330931D01*
X306426295Y-96354694D01*
X306483819Y-96389710D01*
X306552596Y-96470996D01*
%TO.C,D1*%
X73134924Y-59910532D02*
X72898595Y-60882205D01*
X73129946Y-60938473D01*
X73280010Y-60925965D01*
X73395058Y-60855932D01*
X73463835Y-60774645D01*
X73555121Y-60600819D01*
X73588882Y-60462008D01*
X73587627Y-60265674D01*
X73563864Y-60161880D01*
X73493832Y-60046832D01*
X73366275Y-59966800D01*
X73134924Y-59910532D01*
X74615569Y-60270653D02*
X74060327Y-60135607D01*
X74337948Y-60203130D02*
X74101619Y-61174803D01*
X74042840Y-61013485D01*
X73972807Y-60898437D01*
X73891520Y-60829659D01*
%TO.C,D34*%
X299500533Y-59416535D02*
X299264204Y-58444862D01*
X299032853Y-58501131D01*
X298905296Y-58581163D01*
X298835264Y-58696211D01*
X298811501Y-58800005D01*
X298810246Y-58996339D01*
X298844007Y-59135150D01*
X298935293Y-59308976D01*
X299004070Y-59390263D01*
X299119118Y-59460296D01*
X299269182Y-59472804D01*
X299500533Y-59416535D01*
X298385071Y-58658684D02*
X297783559Y-58804983D01*
X298197480Y-59096368D01*
X298058670Y-59130129D01*
X297977383Y-59198907D01*
X297942367Y-59256431D01*
X297918604Y-59360225D01*
X297974873Y-59591576D01*
X298043651Y-59672862D01*
X298101175Y-59707879D01*
X298204969Y-59731641D01*
X298482590Y-59664119D01*
X298563876Y-59595341D01*
X298598893Y-59537817D01*
X297029473Y-59331443D02*
X297187026Y-59979225D01*
X297170793Y-58905012D02*
X297570951Y-59542796D01*
X296969439Y-59689095D01*
%TO.C,D21*%
X138603276Y-110077712D02*
X138366946Y-111049385D01*
X138598297Y-111105654D01*
X138748361Y-111093145D01*
X138863409Y-111023112D01*
X138932187Y-110941826D01*
X139023472Y-110767999D01*
X139057233Y-110629188D01*
X139055978Y-110432854D01*
X139032216Y-110329060D01*
X138962183Y-110214012D01*
X138834627Y-110133981D01*
X138603276Y-110077712D01*
X139314857Y-111181920D02*
X139349873Y-111239444D01*
X139431160Y-111308222D01*
X139662510Y-111364491D01*
X139766304Y-111340728D01*
X139823828Y-111305712D01*
X139892606Y-111224425D01*
X139915114Y-111131885D01*
X139902605Y-110981821D01*
X139482408Y-110291534D01*
X140083920Y-110437833D01*
X141009323Y-110662908D02*
X140454081Y-110527863D01*
X140731702Y-110595386D02*
X140495373Y-111567059D01*
X140436594Y-111405741D01*
X140366561Y-111290693D01*
X140285275Y-111221915D01*
%TO.C,D20*%
X120032876Y-105822441D02*
X119796546Y-106794114D01*
X120027897Y-106850383D01*
X120177961Y-106837874D01*
X120293009Y-106767841D01*
X120361787Y-106686555D01*
X120453072Y-106512728D01*
X120486833Y-106373917D01*
X120485578Y-106177583D01*
X120461816Y-106073789D01*
X120391783Y-105958741D01*
X120264227Y-105878710D01*
X120032876Y-105822441D01*
X120744457Y-106926649D02*
X120779473Y-106984173D01*
X120860760Y-107052951D01*
X121092110Y-107109220D01*
X121195904Y-107085457D01*
X121253428Y-107050441D01*
X121322206Y-106969154D01*
X121344714Y-106876614D01*
X121332205Y-106726550D01*
X120912008Y-106036263D01*
X121513520Y-106182562D01*
X121878703Y-107300534D02*
X121971243Y-107323041D01*
X122075037Y-107299279D01*
X122132561Y-107264263D01*
X122201339Y-107182976D01*
X122292624Y-107009149D01*
X122348893Y-106777798D01*
X122347638Y-106581464D01*
X122323875Y-106477670D01*
X122288859Y-106420146D01*
X122207572Y-106351368D01*
X122115032Y-106328861D01*
X122011238Y-106352623D01*
X121953714Y-106387640D01*
X121884937Y-106468926D01*
X121793651Y-106642753D01*
X121737382Y-106874104D01*
X121738637Y-107070438D01*
X121762400Y-107174232D01*
X121797416Y-107231756D01*
X121878703Y-107300534D01*
%TO.C,D45*%
X289994314Y-100939352D02*
X289757985Y-99967679D01*
X289526634Y-100023948D01*
X289399077Y-100103980D01*
X289329045Y-100219028D01*
X289305282Y-100322822D01*
X289304027Y-100519156D01*
X289337788Y-100657967D01*
X289429074Y-100831793D01*
X289497851Y-100913080D01*
X289612899Y-100983113D01*
X289762963Y-100995621D01*
X289994314Y-100939352D01*
X288448657Y-100629184D02*
X288606210Y-101276966D01*
X288589977Y-100202754D02*
X288990135Y-100840537D01*
X288388623Y-100986836D01*
X287398207Y-100541622D02*
X287860909Y-100429084D01*
X288019717Y-100880532D01*
X287962193Y-100845516D01*
X287858399Y-100821753D01*
X287627048Y-100878022D01*
X287545762Y-100946800D01*
X287510745Y-101004324D01*
X287486983Y-101108118D01*
X287543252Y-101339468D01*
X287612029Y-101420755D01*
X287669553Y-101455771D01*
X287773347Y-101479534D01*
X288004698Y-101423265D01*
X288085984Y-101354487D01*
X288121001Y-101296963D01*
%TO.C,D3*%
X111296192Y-64225386D02*
X111059863Y-65197059D01*
X111291214Y-65253327D01*
X111441278Y-65240819D01*
X111556326Y-65170786D01*
X111625103Y-65089499D01*
X111716389Y-64915673D01*
X111750150Y-64776862D01*
X111748895Y-64580528D01*
X111725132Y-64476734D01*
X111655100Y-64361686D01*
X111527543Y-64281654D01*
X111296192Y-64225386D01*
X111938996Y-65410880D02*
X112540507Y-65557180D01*
X112306647Y-65108242D01*
X112445457Y-65142003D01*
X112549251Y-65118241D01*
X112606775Y-65083224D01*
X112675553Y-65001938D01*
X112731822Y-64770587D01*
X112708059Y-64666793D01*
X112673043Y-64609269D01*
X112591756Y-64540491D01*
X112314135Y-64472969D01*
X112210341Y-64496731D01*
X112152817Y-64531748D01*
%TO.C,D14*%
X62820990Y-99226752D02*
X62584660Y-100198425D01*
X62816011Y-100254694D01*
X62966075Y-100242185D01*
X63081123Y-100172152D01*
X63149901Y-100090866D01*
X63241186Y-99917039D01*
X63274947Y-99778228D01*
X63273692Y-99581894D01*
X63249930Y-99478100D01*
X63179897Y-99363052D01*
X63052341Y-99283021D01*
X62820990Y-99226752D01*
X64301634Y-99586873D02*
X63746393Y-99451827D01*
X64024013Y-99519350D02*
X63787684Y-100491023D01*
X63728905Y-100329705D01*
X63658872Y-100214657D01*
X63577586Y-100145879D01*
X64976944Y-100437223D02*
X65134497Y-99789441D01*
X64655563Y-100751115D02*
X64593019Y-100000794D01*
X65194531Y-100147093D01*
%TO.C,D32*%
X261339266Y-63731392D02*
X261102937Y-62759719D01*
X260871586Y-62815988D01*
X260744029Y-62896020D01*
X260673997Y-63011068D01*
X260650234Y-63114862D01*
X260648979Y-63311196D01*
X260682740Y-63450007D01*
X260774026Y-63623833D01*
X260842803Y-63705120D01*
X260957851Y-63775153D01*
X261107915Y-63787661D01*
X261339266Y-63731392D01*
X260223804Y-62973541D02*
X259622292Y-63119840D01*
X260036213Y-63411225D01*
X259897403Y-63444986D01*
X259816116Y-63513764D01*
X259781100Y-63571288D01*
X259757337Y-63675082D01*
X259813606Y-63906433D01*
X259882384Y-63987719D01*
X259939908Y-64022736D01*
X260043702Y-64046498D01*
X260321323Y-63978976D01*
X260402609Y-63910198D01*
X260437626Y-63852674D01*
X259274639Y-63302411D02*
X259217115Y-63267395D01*
X259113321Y-63243632D01*
X258881970Y-63299901D01*
X258800683Y-63368679D01*
X258765667Y-63426203D01*
X258741904Y-63529997D01*
X258764412Y-63622537D01*
X258844443Y-63750094D01*
X259534730Y-64170290D01*
X258933219Y-64316589D01*
%TO.C,D52*%
X309104959Y-98905326D02*
X308868630Y-97933653D01*
X308637279Y-97989922D01*
X308509722Y-98069954D01*
X308439690Y-98185002D01*
X308415927Y-98288796D01*
X308414672Y-98485130D01*
X308448433Y-98623941D01*
X308539719Y-98797767D01*
X308608496Y-98879054D01*
X308723544Y-98949087D01*
X308873608Y-98961595D01*
X309104959Y-98905326D01*
X307434255Y-98282521D02*
X307896957Y-98169983D01*
X308055765Y-98621430D01*
X307998241Y-98586414D01*
X307894447Y-98562652D01*
X307663096Y-98618920D01*
X307581809Y-98687698D01*
X307546793Y-98745222D01*
X307523030Y-98849016D01*
X307579299Y-99080367D01*
X307648077Y-99161653D01*
X307705601Y-99196670D01*
X307809395Y-99220432D01*
X308040746Y-99164163D01*
X308122032Y-99095386D01*
X308157049Y-99037862D01*
X307040332Y-98476345D02*
X306982808Y-98441329D01*
X306879014Y-98417566D01*
X306647663Y-98473835D01*
X306566376Y-98542613D01*
X306531360Y-98600137D01*
X306507597Y-98703931D01*
X306530105Y-98796471D01*
X306610136Y-98924028D01*
X307300423Y-99344224D01*
X306698912Y-99490523D01*
%TO.C,D19*%
X120633155Y-103354393D02*
X120396825Y-104326066D01*
X120628176Y-104382335D01*
X120778240Y-104369826D01*
X120893288Y-104299793D01*
X120962066Y-104218507D01*
X121053351Y-104044680D01*
X121087112Y-103905869D01*
X121085857Y-103709535D01*
X121062095Y-103605741D01*
X120992062Y-103490693D01*
X120864506Y-103410662D01*
X120633155Y-103354393D01*
X122113799Y-103714514D02*
X121558558Y-103579468D01*
X121836178Y-103646991D02*
X121599849Y-104618664D01*
X121541070Y-104457346D01*
X121471037Y-104342298D01*
X121389751Y-104273520D01*
X122576501Y-103827052D02*
X122761581Y-103872067D01*
X122842868Y-103940844D01*
X122877884Y-103998368D01*
X122936663Y-104159686D01*
X122937918Y-104356021D01*
X122847888Y-104726182D01*
X122779110Y-104807468D01*
X122721586Y-104842485D01*
X122617792Y-104866247D01*
X122432712Y-104821232D01*
X122351425Y-104752454D01*
X122316409Y-104694930D01*
X122292646Y-104591136D01*
X122348915Y-104359786D01*
X122417693Y-104278499D01*
X122475217Y-104243483D01*
X122579011Y-104219720D01*
X122764091Y-104264735D01*
X122845378Y-104333513D01*
X122880394Y-104391037D01*
X122904157Y-104494831D01*
%TO.C,D13*%
X63421268Y-96758705D02*
X63184938Y-97730378D01*
X63416289Y-97786647D01*
X63566353Y-97774138D01*
X63681401Y-97704105D01*
X63750179Y-97622819D01*
X63841464Y-97448992D01*
X63875225Y-97310181D01*
X63873970Y-97113847D01*
X63850208Y-97010053D01*
X63780175Y-96895005D01*
X63652619Y-96814974D01*
X63421268Y-96758705D01*
X64901912Y-97118826D02*
X64346671Y-96983780D01*
X64624291Y-97051303D02*
X64387962Y-98022976D01*
X64329183Y-97861658D01*
X64259150Y-97746610D01*
X64177864Y-97677832D01*
X64989474Y-98169275D02*
X65590986Y-98315574D01*
X65357125Y-97866637D01*
X65495935Y-97900398D01*
X65599730Y-97876636D01*
X65657253Y-97841619D01*
X65726031Y-97760333D01*
X65782300Y-97528982D01*
X65758537Y-97425188D01*
X65723521Y-97367664D01*
X65642235Y-97298886D01*
X65364614Y-97231364D01*
X65260820Y-97255126D01*
X65203296Y-97290142D01*
%TO.C,D53*%
X210382544Y-142260458D02*
X210146215Y-141288785D01*
X209914864Y-141345054D01*
X209787307Y-141425086D01*
X209717275Y-141540134D01*
X209693512Y-141643928D01*
X209692257Y-141840262D01*
X209726018Y-141979073D01*
X209817304Y-142152899D01*
X209886081Y-142234186D01*
X210001129Y-142304219D01*
X210151193Y-142316727D01*
X210382544Y-142260458D01*
X208711840Y-141637653D02*
X209174542Y-141525115D01*
X209333350Y-141976562D01*
X209275826Y-141941546D01*
X209172032Y-141917784D01*
X208940681Y-141974052D01*
X208859394Y-142042830D01*
X208824378Y-142100354D01*
X208800615Y-142204148D01*
X208856884Y-142435499D01*
X208925662Y-142516785D01*
X208983186Y-142551802D01*
X209086980Y-142575564D01*
X209318331Y-142519295D01*
X209399617Y-142450518D01*
X209434634Y-142392994D01*
X208341679Y-141727683D02*
X207740167Y-141873982D01*
X208154088Y-142165367D01*
X208015278Y-142199128D01*
X207933992Y-142267906D01*
X207898975Y-142325430D01*
X207875213Y-142429224D01*
X207931482Y-142660574D01*
X208000259Y-142741861D01*
X208057783Y-142776877D01*
X208161577Y-142800640D01*
X208439198Y-142733117D01*
X208520485Y-142664340D01*
X208555501Y-142606816D01*
%TO.C,D5*%
X148316933Y-73229537D02*
X148080604Y-74201210D01*
X148311955Y-74257478D01*
X148462019Y-74244970D01*
X148577067Y-74174937D01*
X148645844Y-74093650D01*
X148737130Y-73919824D01*
X148770891Y-73781013D01*
X148769636Y-73584679D01*
X148745873Y-73480885D01*
X148675841Y-73365837D01*
X148548284Y-73285805D01*
X148316933Y-73229537D01*
X149514978Y-74550077D02*
X149052277Y-74437539D01*
X149118544Y-73963584D01*
X149153561Y-74021108D01*
X149234847Y-74089885D01*
X149466198Y-74146154D01*
X149569992Y-74122392D01*
X149627516Y-74087375D01*
X149696294Y-74006089D01*
X149752563Y-73774738D01*
X149728800Y-73670944D01*
X149693784Y-73613420D01*
X149612497Y-73544642D01*
X149381146Y-73488374D01*
X149277352Y-73512136D01*
X149219829Y-73547152D01*
%TO.C,D18*%
X100982259Y-103541610D02*
X100745929Y-104513283D01*
X100977280Y-104569552D01*
X101127344Y-104557043D01*
X101242392Y-104487010D01*
X101311170Y-104405724D01*
X101402455Y-104231897D01*
X101436216Y-104093086D01*
X101434961Y-103896752D01*
X101411199Y-103792958D01*
X101341166Y-103677910D01*
X101213610Y-103597879D01*
X100982259Y-103541610D01*
X102462903Y-103901731D02*
X101907662Y-103766685D01*
X102185282Y-103834208D02*
X101948953Y-104805881D01*
X101890174Y-104644563D01*
X101820141Y-104529515D01*
X101738855Y-104460737D01*
X102883100Y-104592018D02*
X102779306Y-104615780D01*
X102721782Y-104650797D01*
X102653004Y-104732083D01*
X102641750Y-104778353D01*
X102665513Y-104882147D01*
X102700529Y-104939671D01*
X102781816Y-105008449D01*
X102966896Y-105053464D01*
X103070690Y-105029702D01*
X103128214Y-104994685D01*
X103196992Y-104913399D01*
X103208246Y-104867129D01*
X103184483Y-104763335D01*
X103149467Y-104705811D01*
X103068180Y-104637033D01*
X102883100Y-104592018D01*
X102801813Y-104523240D01*
X102766797Y-104465716D01*
X102743034Y-104361922D01*
X102788049Y-104176842D01*
X102856827Y-104095555D01*
X102914351Y-104060539D01*
X103018145Y-104036776D01*
X103203226Y-104081791D01*
X103284512Y-104150569D01*
X103319528Y-104208093D01*
X103343291Y-104311887D01*
X103298276Y-104496967D01*
X103229498Y-104578254D01*
X103171974Y-104613270D01*
X103068180Y-104637033D01*
%TO.C,D15*%
X81931639Y-101260780D02*
X81695309Y-102232453D01*
X81926660Y-102288722D01*
X82076724Y-102276213D01*
X82191772Y-102206180D01*
X82260550Y-102124894D01*
X82351835Y-101951067D01*
X82385596Y-101812256D01*
X82384341Y-101615922D01*
X82360579Y-101512128D01*
X82290546Y-101397080D01*
X82162990Y-101317049D01*
X81931639Y-101260780D01*
X83412283Y-101620901D02*
X82857042Y-101485855D01*
X83134662Y-101553378D02*
X82898333Y-102525051D01*
X82839554Y-102363733D01*
X82769521Y-102248685D01*
X82688235Y-102179907D01*
X84055087Y-102806396D02*
X83592385Y-102693858D01*
X83658653Y-102219903D01*
X83693669Y-102277426D01*
X83774956Y-102346204D01*
X84006306Y-102402473D01*
X84110101Y-102378711D01*
X84167624Y-102343694D01*
X84236402Y-102262408D01*
X84292671Y-102031057D01*
X84268908Y-101927263D01*
X84233892Y-101869739D01*
X84152606Y-101800961D01*
X83921255Y-101744692D01*
X83817461Y-101768455D01*
X83759937Y-101803471D01*
%TO.C,D4*%
X130223409Y-66476203D02*
X129987080Y-67447876D01*
X130218431Y-67504144D01*
X130368495Y-67491636D01*
X130483543Y-67421603D01*
X130552320Y-67340316D01*
X130643606Y-67166490D01*
X130677367Y-67027679D01*
X130676112Y-66831345D01*
X130652349Y-66727551D01*
X130582317Y-66612503D01*
X130454760Y-66532471D01*
X130223409Y-66476203D01*
X131453961Y-67461598D02*
X131611513Y-66813816D01*
X131132580Y-67775490D02*
X131070036Y-67025169D01*
X131671547Y-67171468D01*
%TO.C,D7*%
X72534647Y-62378578D02*
X72298318Y-63350251D01*
X72529669Y-63406519D01*
X72679733Y-63394011D01*
X72794781Y-63323978D01*
X72863558Y-63242691D01*
X72954844Y-63068865D01*
X72988605Y-62930054D01*
X72987350Y-62733720D01*
X72963587Y-62629926D01*
X72893555Y-62514878D01*
X72765998Y-62434846D01*
X72534647Y-62378578D01*
X73177451Y-63564072D02*
X73825233Y-63721625D01*
X73645131Y-62648668D01*
%TO.C,D35*%
X206948680Y-81926912D02*
X206712351Y-80955239D01*
X206481000Y-81011508D01*
X206353443Y-81091540D01*
X206283411Y-81206588D01*
X206259648Y-81310382D01*
X206258393Y-81506716D01*
X206292154Y-81645527D01*
X206383440Y-81819353D01*
X206452217Y-81900640D01*
X206567265Y-81970673D01*
X206717329Y-81983181D01*
X206948680Y-81926912D01*
X205833218Y-81169061D02*
X205231706Y-81315360D01*
X205645627Y-81606745D01*
X205506817Y-81640506D01*
X205425530Y-81709284D01*
X205390514Y-81766808D01*
X205366751Y-81870602D01*
X205423020Y-82101953D01*
X205491798Y-82183239D01*
X205549322Y-82218256D01*
X205653116Y-82242018D01*
X205930737Y-82174496D01*
X206012023Y-82105718D01*
X206047040Y-82048194D01*
X204352573Y-81529182D02*
X204815275Y-81416644D01*
X204974083Y-81868092D01*
X204916559Y-81833076D01*
X204812765Y-81809313D01*
X204581414Y-81865582D01*
X204500128Y-81934360D01*
X204465111Y-81991884D01*
X204441349Y-82095678D01*
X204497618Y-82327028D01*
X204566395Y-82408315D01*
X204623919Y-82443331D01*
X204727713Y-82467094D01*
X204959064Y-82410825D01*
X205040350Y-82342047D01*
X205075367Y-82284523D01*
D12*
%TO.C,MX29*%
X202904565Y-65186794D02*
X203495389Y-67615977D01*
D13*
X203845973Y-67787996D02*
X202570982Y-68046641D01*
D14*
X201924986Y-66660030D02*
X195414777Y-68243437D01*
D10*
X193689398Y-68765997D02*
X193866645Y-69494752D01*
D15*
X195275861Y-67968478D02*
X195805238Y-70145026D01*
D13*
X194930171Y-71963337D02*
X197310770Y-71384330D01*
D10*
X204099390Y-67983649D02*
X203248604Y-64485626D01*
X193866645Y-69494752D02*
X194060980Y-69447486D01*
X194783102Y-72204938D02*
X197727271Y-71488860D01*
X203248604Y-64485626D02*
X195280885Y-66423527D01*
X193731436Y-67880993D02*
X194783102Y-72204938D01*
X203843627Y-67016702D02*
X203311886Y-64830438D01*
D16*
X203150119Y-64715410D02*
X201935528Y-65010822D01*
D10*
X199435360Y-69118030D02*
X204099390Y-67983649D01*
D17*
X195005023Y-71636386D02*
X194579630Y-69887376D01*
D18*
X193940180Y-69373952D02*
X193786565Y-68742365D01*
D10*
X195280885Y-66423525D02*
G75*
G03*
X193689398Y-68765998I375491J-1966979D01*
G01*
X199435360Y-69118031D02*
G75*
G03*
X197725775Y-71467127I449674J-2123890D01*
G01*
D12*
X198952159Y-68823893D02*
G75*
G03*
X197242574Y-71172989I449674J-2123890D01*
G01*
D16*
%TO.C,MX55*%
X230881930Y-138788066D02*
X229667339Y-139083478D01*
D18*
X221671991Y-143446608D02*
X221518376Y-142815021D01*
D10*
X230980415Y-138558282D02*
X223012696Y-140496183D01*
X231831201Y-142056305D02*
X230980415Y-138558282D01*
D13*
X222661982Y-146035993D02*
X225042581Y-145456986D01*
D10*
X231575438Y-141089358D02*
X231043697Y-138903094D01*
X221598456Y-143567408D02*
X221792791Y-143520142D01*
X221463247Y-141953649D02*
X222514913Y-146277594D01*
D17*
X222736834Y-145709042D02*
X222311441Y-143960032D01*
D15*
X223007672Y-142041134D02*
X223537049Y-144217682D01*
D10*
X221421209Y-142838653D02*
X221598456Y-143567408D01*
D12*
X230636376Y-139259450D02*
X231227200Y-141688633D01*
D10*
X222514913Y-146277594D02*
X225459082Y-145561516D01*
D14*
X229656797Y-140732686D02*
X223146588Y-142316093D01*
D10*
X227167171Y-143190686D02*
X231831201Y-142056305D01*
D13*
X231577784Y-141860652D02*
X230302793Y-142119297D01*
D10*
X223012696Y-140496181D02*
G75*
G03*
X221421209Y-142838654I375491J-1966979D01*
G01*
D12*
X226683970Y-142896549D02*
G75*
G03*
X224974385Y-145245645I449674J-2123890D01*
G01*
D10*
X227167171Y-143190687D02*
G75*
G03*
X225457586Y-145539783I449674J-2123890D01*
G01*
%TO.C,MX36*%
X226571588Y-79770700D02*
X225720802Y-76272677D01*
X225720802Y-76272677D02*
X217753083Y-78210578D01*
D18*
X216412378Y-81161003D02*
X216258763Y-80529416D01*
D12*
X225376763Y-76973845D02*
X225967587Y-79403028D01*
D10*
X216203634Y-79668044D02*
X217255300Y-83991989D01*
D13*
X217402369Y-83750388D02*
X219782968Y-83171381D01*
D14*
X224397184Y-78447081D02*
X217886975Y-80030488D01*
D10*
X226315825Y-78803753D02*
X225784084Y-76617489D01*
D15*
X217748059Y-79755529D02*
X218277436Y-81932077D01*
D16*
X225622317Y-76502461D02*
X224407726Y-76797873D01*
D10*
X217255300Y-83991989D02*
X220199469Y-83275911D01*
D17*
X217477221Y-83423437D02*
X217051828Y-81674427D01*
D13*
X226318171Y-79575047D02*
X225043180Y-79833692D01*
D10*
X216161596Y-80553048D02*
X216338843Y-81281803D01*
X221907558Y-80905081D02*
X226571588Y-79770700D01*
X216338843Y-81281803D02*
X216533178Y-81234537D01*
X221907558Y-80905082D02*
G75*
G03*
X220197973Y-83254178I449674J-2123890D01*
G01*
D12*
X221424357Y-80610944D02*
G75*
G03*
X219714772Y-82960040I449674J-2123890D01*
G01*
D10*
X217753083Y-78210576D02*
G75*
G03*
X216161596Y-80553049I375491J-1966979D01*
G01*
D13*
%TO.C,MX18*%
X152159208Y-106408088D02*
X154539807Y-106987095D01*
D10*
X152525476Y-102998051D02*
X152348229Y-103726806D01*
X152348229Y-103726806D02*
X152542563Y-103774072D01*
D17*
X152375858Y-106152035D02*
X152801251Y-104403025D01*
D10*
X151917608Y-106555157D02*
X154861777Y-107271235D01*
D18*
X152469029Y-103653272D02*
X152622643Y-103021684D01*
D12*
X162355099Y-104050905D02*
X161764276Y-106480087D01*
D16*
X162789716Y-103744951D02*
X161575125Y-103449539D01*
D13*
X161996695Y-106793904D02*
X160745337Y-106438092D01*
D10*
X162131947Y-107084088D02*
X162982733Y-103586066D01*
D15*
X154301002Y-103018232D02*
X153771624Y-105194780D01*
D10*
X162348843Y-106107689D02*
X162880585Y-103921425D01*
X162982733Y-103586066D02*
X155015014Y-101648164D01*
X157467917Y-105949707D02*
X162131947Y-107084088D01*
X152969274Y-102231212D02*
X151917608Y-106555157D01*
D14*
X160808329Y-104909684D02*
X154298120Y-103326277D01*
D10*
X155015014Y-101648164D02*
G75*
G03*
X152525475Y-102998052I-569825J-1919714D01*
G01*
X157467917Y-105949707D02*
G75*
G03*
X154870429Y-107251242I-575994J-2093168D01*
G01*
D12*
X157173780Y-105466508D02*
G75*
G03*
X154576292Y-106768041I-575995J-2093166D01*
G01*
D15*
%TO.C,MX14*%
X79659240Y-87477976D02*
X79129862Y-89654524D01*
D10*
X88340971Y-88045810D02*
X80373252Y-86107908D01*
D16*
X88147954Y-88204695D02*
X86933363Y-87909283D01*
D10*
X78327512Y-86690956D02*
X77275846Y-91014901D01*
D13*
X87354933Y-91253648D02*
X86103575Y-90897836D01*
D10*
X87490185Y-91543832D02*
X88340971Y-88045810D01*
X77706467Y-88186550D02*
X77900801Y-88233816D01*
X77275846Y-91014901D02*
X80220015Y-91730979D01*
X82826155Y-90409451D02*
X87490185Y-91543832D01*
D12*
X87713337Y-88510649D02*
X87122514Y-90939831D01*
D18*
X77827267Y-88113016D02*
X77980881Y-87481428D01*
D13*
X77517446Y-90867832D02*
X79898045Y-91446839D01*
D10*
X87707081Y-90567433D02*
X88238823Y-88381169D01*
D17*
X77734096Y-90611779D02*
X78159489Y-88862769D01*
D10*
X77883714Y-87457795D02*
X77706467Y-88186550D01*
D14*
X86166567Y-89369428D02*
X79656358Y-87786021D01*
D10*
X82826155Y-90409451D02*
G75*
G03*
X80228667Y-91710986I-575994J-2093168D01*
G01*
X80373252Y-86107908D02*
G75*
G03*
X77883713Y-87457796I-569825J-1919714D01*
G01*
D12*
X82532018Y-89926252D02*
G75*
G03*
X79934530Y-91227785I-575995J-2093166D01*
G01*
D10*
%TO.C,MX2*%
X97345121Y-51025073D02*
X89377402Y-49087171D01*
D13*
X86521596Y-53847095D02*
X88902195Y-54426102D01*
D10*
X86887864Y-50437058D02*
X86710617Y-51165813D01*
X96494335Y-54523095D02*
X97345121Y-51025073D01*
D12*
X96717487Y-51489912D02*
X96126664Y-53919094D01*
D10*
X91830305Y-53388714D02*
X96494335Y-54523095D01*
D14*
X95170717Y-52348691D02*
X88660508Y-50765284D01*
D10*
X87331662Y-49670219D02*
X86279996Y-53994164D01*
X96711231Y-53546696D02*
X97242973Y-51360432D01*
D18*
X86831417Y-51092279D02*
X86985031Y-50460691D01*
D13*
X96359083Y-54232911D02*
X95107725Y-53877099D01*
D15*
X88663390Y-50457239D02*
X88134012Y-52633787D01*
D10*
X86710617Y-51165813D02*
X86904951Y-51213079D01*
D16*
X97152104Y-51183958D02*
X95937513Y-50888546D01*
D10*
X86279996Y-53994164D02*
X89224165Y-54710242D01*
D17*
X86738246Y-53591042D02*
X87163639Y-51842032D01*
D10*
X89377402Y-49087171D02*
G75*
G03*
X86887863Y-50437059I-569825J-1919714D01*
G01*
D12*
X91536168Y-52905515D02*
G75*
G03*
X88938680Y-54207048I-575995J-2093166D01*
G01*
D10*
X91830305Y-53388714D02*
G75*
G03*
X89232817Y-54690249I-575994J-2093168D01*
G01*
D18*
%TO.C,MX44*%
X257935193Y-90667222D02*
X257781578Y-90035635D01*
D10*
X268094403Y-89276919D02*
X267243617Y-85778896D01*
D16*
X267145132Y-86008680D02*
X265930541Y-86304092D01*
D10*
X257726449Y-89174263D02*
X258778115Y-93498208D01*
X257861658Y-90788022D02*
X258055993Y-90740756D01*
D14*
X265919999Y-87953300D02*
X259409790Y-89536707D01*
D10*
X263430373Y-90411300D02*
X268094403Y-89276919D01*
X257684411Y-90059267D02*
X257861658Y-90788022D01*
X267838640Y-88309972D02*
X267306899Y-86123708D01*
X258778115Y-93498208D02*
X261722284Y-92782130D01*
X267243617Y-85778896D02*
X259275898Y-87716797D01*
D17*
X259000036Y-92929656D02*
X258574643Y-91180646D01*
D15*
X259270874Y-89261748D02*
X259800251Y-91438296D01*
D13*
X267840986Y-89081266D02*
X266565995Y-89339911D01*
D12*
X266899578Y-86480064D02*
X267490402Y-88909247D01*
D13*
X258925184Y-93256607D02*
X261305783Y-92677600D01*
D10*
X259275898Y-87716795D02*
G75*
G03*
X257684411Y-90059268I375491J-1966979D01*
G01*
D12*
X262947172Y-90117163D02*
G75*
G03*
X261237587Y-92466259I449674J-2123890D01*
G01*
D10*
X263430373Y-90411301D02*
G75*
G03*
X261720788Y-92760397I449674J-2123890D01*
G01*
%TO.C,MX3*%
X106982560Y-49483000D02*
X105930894Y-53806945D01*
X106538762Y-50249839D02*
X106361515Y-50978594D01*
X106361515Y-50978594D02*
X106555849Y-51025860D01*
X105930894Y-53806945D02*
X108875063Y-54523023D01*
X116145233Y-54335876D02*
X116996019Y-50837854D01*
D17*
X106389144Y-53403823D02*
X106814537Y-51654813D01*
D13*
X106172494Y-53659876D02*
X108553093Y-54238883D01*
D10*
X116362129Y-53359477D02*
X116893871Y-51173213D01*
D13*
X116009981Y-54045692D02*
X114758623Y-53689880D01*
D14*
X114821615Y-52161472D02*
X108311406Y-50578065D01*
D18*
X106482315Y-50905060D02*
X106635929Y-50273472D01*
D16*
X116803002Y-50996739D02*
X115588411Y-50701327D01*
D15*
X108314288Y-50270020D02*
X107784910Y-52446568D01*
D10*
X111481203Y-53201495D02*
X116145233Y-54335876D01*
D12*
X116368385Y-51302693D02*
X115777562Y-53731875D01*
D10*
X116996019Y-50837854D02*
X109028300Y-48899952D01*
X111481203Y-53201495D02*
G75*
G03*
X108883715Y-54503030I-575994J-2093168D01*
G01*
D12*
X111187066Y-52718296D02*
G75*
G03*
X108589578Y-54019829I-575995J-2093166D01*
G01*
D10*
X109028300Y-48899952D02*
G75*
G03*
X106538761Y-50249840I-569825J-1919714D01*
G01*
D18*
%TO.C,MX54*%
X208321101Y-152221308D02*
X208791812Y-151773055D01*
D10*
X211284666Y-156855937D02*
X214594840Y-160331962D01*
X209510801Y-151295505D02*
X206288237Y-154364311D01*
D14*
X214657034Y-157787137D02*
X210036583Y-152935186D01*
D12*
X216422545Y-157901017D02*
X214612116Y-159625066D01*
D17*
X206891689Y-154272962D02*
X208195198Y-153031647D01*
D15*
X210205561Y-152677608D02*
X208583416Y-154222355D01*
D16*
X216953581Y-157878629D02*
X216091557Y-156973415D01*
D10*
X206288237Y-154364311D02*
X208377784Y-156558552D01*
X208179722Y-152217853D02*
X208317645Y-152362687D01*
X214594840Y-160331962D02*
X217201858Y-157849331D01*
X215305219Y-159627859D02*
X216934606Y-158076215D01*
X217201858Y-157849331D02*
X211546977Y-151911121D01*
D13*
X214637959Y-160014722D02*
X213777662Y-159038818D01*
X206570995Y-154371222D02*
X208260563Y-156145443D01*
D10*
X208722850Y-151700638D02*
X208179722Y-152217853D01*
X211546977Y-151911121D02*
G75*
G03*
X208722850Y-151700639I-1517305J-1306823D01*
G01*
X211284666Y-156855937D02*
G75*
G03*
X208395872Y-156546412I-1616278J-1449401D01*
G01*
D12*
X211298487Y-156290420D02*
G75*
G03*
X208409693Y-155980895I-1616278J-1449402D01*
G01*
D10*
%TO.C,MX8*%
X91992260Y-73033463D02*
X92843046Y-69535441D01*
D15*
X84161315Y-68967607D02*
X83631937Y-71144155D01*
D10*
X92209156Y-72057064D02*
X92740898Y-69870800D01*
X81777921Y-72504532D02*
X84722090Y-73220610D01*
X82385789Y-68947426D02*
X82208542Y-69676181D01*
X82829587Y-68180587D02*
X81777921Y-72504532D01*
D13*
X82019521Y-72357463D02*
X84400120Y-72936470D01*
D18*
X82329342Y-69602647D02*
X82482956Y-68971059D01*
D10*
X87328230Y-71899082D02*
X91992260Y-73033463D01*
D16*
X92650029Y-69694326D02*
X91435438Y-69398914D01*
D14*
X90668642Y-70859059D02*
X84158433Y-69275652D01*
D13*
X91857008Y-72743279D02*
X90605650Y-72387467D01*
D12*
X92215412Y-70000280D02*
X91624589Y-72429462D01*
D10*
X82208542Y-69676181D02*
X82402876Y-69723447D01*
D17*
X82236171Y-72101410D02*
X82661564Y-70352400D01*
D10*
X92843046Y-69535441D02*
X84875327Y-67597539D01*
D12*
X87034093Y-71415883D02*
G75*
G03*
X84436605Y-72717416I-575995J-2093166D01*
G01*
D10*
X87328230Y-71899082D02*
G75*
G03*
X84730742Y-73200617I-575994J-2093168D01*
G01*
X84875327Y-67597539D02*
G75*
G03*
X82385788Y-68947427I-569825J-1919714D01*
G01*
D17*
%TO.C,MX25*%
X115678073Y-136480627D02*
X116103466Y-134731617D01*
D10*
X126284948Y-133914658D02*
X118317229Y-131976756D01*
D15*
X117603217Y-133346824D02*
X117073839Y-135523372D01*
D14*
X124110544Y-135238276D02*
X117600335Y-133654869D01*
D10*
X115650444Y-134055398D02*
X115844778Y-134102664D01*
X115219823Y-136883749D02*
X118163992Y-137599827D01*
X125434162Y-137412680D02*
X126284948Y-133914658D01*
X125651058Y-136436281D02*
X126182800Y-134250017D01*
X120770132Y-136278299D02*
X125434162Y-137412680D01*
X116271489Y-132559804D02*
X115219823Y-136883749D01*
D13*
X115461423Y-136736680D02*
X117842022Y-137315687D01*
D12*
X125657314Y-134379497D02*
X125066491Y-136808679D01*
D18*
X115771244Y-133981864D02*
X115924858Y-133350276D01*
D16*
X126091931Y-134073543D02*
X124877340Y-133778131D01*
D10*
X115827691Y-133326643D02*
X115650444Y-134055398D01*
D13*
X125298910Y-137122496D02*
X124047552Y-136766684D01*
D12*
X120475995Y-135795100D02*
G75*
G03*
X117878507Y-137096633I-575995J-2093166D01*
G01*
D10*
X118317229Y-131976756D02*
G75*
G03*
X115827690Y-133326644I-569825J-1919714D01*
G01*
X120770132Y-136278299D02*
G75*
G03*
X118172644Y-137579834I-575994J-2093168D01*
G01*
%TO.C,MX1*%
X78834750Y-46522997D02*
X70867031Y-44585095D01*
X78200860Y-49044620D02*
X78732602Y-46858356D01*
X77983964Y-50021019D02*
X78834750Y-46522997D01*
D15*
X70153019Y-45955163D02*
X69623641Y-48131711D01*
D16*
X78641733Y-46681882D02*
X77427142Y-46386470D01*
D10*
X68821291Y-45168143D02*
X67769625Y-49492088D01*
X67769625Y-49492088D02*
X70713794Y-50208166D01*
X73319934Y-48886638D02*
X77983964Y-50021019D01*
D17*
X68227875Y-49088966D02*
X68653268Y-47339956D01*
D13*
X68011225Y-49345019D02*
X70391824Y-49924026D01*
D10*
X68200246Y-46663737D02*
X68394580Y-46711003D01*
D12*
X78207116Y-46987836D02*
X77616293Y-49417018D01*
D14*
X76660346Y-47846615D02*
X70150137Y-46263208D01*
D18*
X68321046Y-46590203D02*
X68474660Y-45958615D01*
D13*
X77848712Y-49730835D02*
X76597354Y-49375023D01*
D10*
X68377493Y-45934982D02*
X68200246Y-46663737D01*
X73319934Y-48886638D02*
G75*
G03*
X70722446Y-50188173I-575994J-2093168D01*
G01*
X70867031Y-44585095D02*
G75*
G03*
X68377492Y-45934983I-569825J-1919714D01*
G01*
D12*
X73025797Y-48403439D02*
G75*
G03*
X70428309Y-49704972I-575995J-2093166D01*
G01*
D18*
%TO.C,MX22*%
X112026707Y-108717003D02*
X112180321Y-108085415D01*
D12*
X121912777Y-109114636D02*
X121321954Y-111543818D01*
D16*
X122347394Y-108808682D02*
X121132803Y-108513270D01*
D10*
X112526952Y-107294943D02*
X111475286Y-111618888D01*
X121906521Y-111171420D02*
X122438263Y-108985156D01*
X121689625Y-112147819D02*
X122540411Y-108649797D01*
X111475286Y-111618888D02*
X114419455Y-112334966D01*
X112083154Y-108061782D02*
X111905907Y-108790537D01*
D17*
X111933536Y-111215766D02*
X112358929Y-109466756D01*
D10*
X117025595Y-111013438D02*
X121689625Y-112147819D01*
D15*
X113858680Y-108081963D02*
X113329302Y-110258511D01*
D13*
X111716886Y-111471819D02*
X114097485Y-112050826D01*
D10*
X111905907Y-108790537D02*
X112100241Y-108837803D01*
D13*
X121554373Y-111857635D02*
X120303015Y-111501823D01*
D10*
X122540411Y-108649797D02*
X114572692Y-106711895D01*
D14*
X120366007Y-109973415D02*
X113855798Y-108390008D01*
D10*
X117025595Y-111013438D02*
G75*
G03*
X114428107Y-112314973I-575994J-2093168D01*
G01*
X114572692Y-106711895D02*
G75*
G03*
X112083153Y-108061783I-569825J-1919714D01*
G01*
D12*
X116731458Y-110530239D02*
G75*
G03*
X114133970Y-111831772I-575995J-2093166D01*
G01*
D16*
%TO.C,MX21*%
X103296775Y-106527847D02*
X102082184Y-106232435D01*
D10*
X103489792Y-106368962D02*
X95522073Y-104431060D01*
X97974976Y-108732603D02*
X102639006Y-109866984D01*
D17*
X92882917Y-108934931D02*
X93308310Y-107185921D01*
D12*
X102862158Y-106833801D02*
X102271335Y-109262983D01*
D15*
X94808061Y-105801128D02*
X94278683Y-107977676D01*
D13*
X102503754Y-109576800D02*
X101252396Y-109220988D01*
D14*
X101315388Y-107692580D02*
X94805179Y-106109173D01*
D10*
X92424667Y-109338053D02*
X95368836Y-110054131D01*
X102639006Y-109866984D02*
X103489792Y-106368962D01*
D18*
X92976088Y-106436168D02*
X93129702Y-105804580D01*
D10*
X93476333Y-105014108D02*
X92424667Y-109338053D01*
D13*
X92666267Y-109190984D02*
X95046866Y-109769991D01*
D10*
X92855288Y-106509702D02*
X93049622Y-106556968D01*
X93032535Y-105780947D02*
X92855288Y-106509702D01*
X102855902Y-108890585D02*
X103387644Y-106704321D01*
X97974976Y-108732603D02*
G75*
G03*
X95377488Y-110034138I-575994J-2093168D01*
G01*
X95522073Y-104431060D02*
G75*
G03*
X93032534Y-105780948I-569825J-1919714D01*
G01*
D12*
X97680839Y-108249404D02*
G75*
G03*
X95083351Y-109550937I-575995J-2093166D01*
G01*
D10*
%TO.C,MX49*%
X243286878Y-111585605D02*
X243481213Y-111538339D01*
X253519623Y-110074502D02*
X252668837Y-106576479D01*
X243109631Y-110856850D02*
X243286878Y-111585605D01*
D15*
X244696094Y-110059331D02*
X245225471Y-112235879D01*
D10*
X244203335Y-114295791D02*
X247147504Y-113579713D01*
D13*
X244350404Y-114054190D02*
X246731003Y-113475183D01*
D17*
X244425256Y-113727239D02*
X243999863Y-111978229D01*
D12*
X252324798Y-107277647D02*
X252915622Y-109706830D01*
D14*
X251345219Y-108750883D02*
X244835010Y-110334290D01*
D10*
X243151669Y-109971846D02*
X244203335Y-114295791D01*
D16*
X252570352Y-106806263D02*
X251355761Y-107101675D01*
D10*
X248855593Y-111208883D02*
X253519623Y-110074502D01*
D18*
X243360413Y-111464805D02*
X243206798Y-110833218D01*
D10*
X252668837Y-106576479D02*
X244701118Y-108514380D01*
X253263860Y-109107555D02*
X252732119Y-106921291D01*
D13*
X253266206Y-109878849D02*
X251991215Y-110137494D01*
D12*
X248372392Y-110914746D02*
G75*
G03*
X246662807Y-113263842I449674J-2123890D01*
G01*
D10*
X248855593Y-111208884D02*
G75*
G03*
X247146008Y-113557980I449674J-2123890D01*
G01*
X244701118Y-108514378D02*
G75*
G03*
X243109631Y-110856851I375491J-1966979D01*
G01*
D18*
%TO.C,MX24*%
X147966951Y-122163641D02*
X148120565Y-121532053D01*
D10*
X148467196Y-120741581D02*
X147415530Y-125065526D01*
X148023398Y-121508420D02*
X147846151Y-122237175D01*
X152965839Y-124460076D02*
X157629869Y-125594457D01*
D13*
X157494617Y-125304273D02*
X156243259Y-124948461D01*
X147657130Y-124918457D02*
X150037729Y-125497464D01*
D15*
X149798924Y-121528601D02*
X149269546Y-123705149D01*
D14*
X156306251Y-123420053D02*
X149796042Y-121836646D01*
D12*
X157853021Y-122561274D02*
X157262198Y-124990456D01*
D10*
X147415530Y-125065526D02*
X150359699Y-125781604D01*
D16*
X158287638Y-122255320D02*
X157073047Y-121959908D01*
D10*
X157629869Y-125594457D02*
X158480655Y-122096435D01*
X158480655Y-122096435D02*
X150512936Y-120158533D01*
X147846151Y-122237175D02*
X148040485Y-122284441D01*
X157846765Y-124618058D02*
X158378507Y-122431794D01*
D17*
X147873780Y-124662404D02*
X148299173Y-122913394D01*
D10*
X152965839Y-124460076D02*
G75*
G03*
X150368351Y-125761611I-575994J-2093168D01*
G01*
D12*
X152671702Y-123976877D02*
G75*
G03*
X150074214Y-125278410I-575995J-2093166D01*
G01*
D10*
X150512936Y-120158533D02*
G75*
G03*
X148023397Y-121508421I-569825J-1919714D01*
G01*
D15*
%TO.C,MX31*%
X231189867Y-54528217D02*
X231719244Y-56704765D01*
D10*
X240013396Y-54543388D02*
X239162610Y-51045365D01*
D18*
X229854186Y-55933691D02*
X229700571Y-55302104D01*
D16*
X239064125Y-51275149D02*
X237849534Y-51570561D01*
D17*
X230919029Y-58196125D02*
X230493636Y-56447115D01*
D10*
X239757633Y-53576441D02*
X239225892Y-51390177D01*
X229603404Y-55325736D02*
X229780651Y-56054491D01*
X229645442Y-54440732D02*
X230697108Y-58764677D01*
X230697108Y-58764677D02*
X233641277Y-58048599D01*
D13*
X239759979Y-54347735D02*
X238484988Y-54606380D01*
D10*
X239162610Y-51045365D02*
X231194891Y-52983266D01*
D14*
X237838992Y-53219769D02*
X231328783Y-54803176D01*
D10*
X229780651Y-56054491D02*
X229974986Y-56007225D01*
D12*
X238818571Y-51746533D02*
X239409395Y-54175716D01*
D13*
X230844177Y-58523076D02*
X233224776Y-57944069D01*
D10*
X235349366Y-55677769D02*
X240013396Y-54543388D01*
X235349366Y-55677770D02*
G75*
G03*
X233639781Y-58026866I449674J-2123890D01*
G01*
X231194891Y-52983264D02*
G75*
G03*
X229603404Y-55325737I375491J-1966979D01*
G01*
D12*
X234866165Y-55383632D02*
G75*
G03*
X233156580Y-57732728I449674J-2123890D01*
G01*
D13*
%TO.C,MX53*%
X201500707Y-146219248D02*
X200640410Y-145243344D01*
D10*
X195042470Y-138422379D02*
X195180393Y-138567213D01*
D18*
X195183849Y-138425834D02*
X195654560Y-137977581D01*
D14*
X201519782Y-143991663D02*
X196899331Y-139139712D01*
D10*
X198147414Y-143060463D02*
X201457588Y-146536488D01*
X204064606Y-144053857D02*
X198409725Y-138115647D01*
X196373549Y-137500031D02*
X193150985Y-140568837D01*
X193150985Y-140568837D02*
X195240532Y-142763078D01*
X201457588Y-146536488D02*
X204064606Y-144053857D01*
D16*
X203816329Y-144083155D02*
X202954305Y-143177941D01*
D15*
X197068309Y-138882134D02*
X195446164Y-140426881D01*
D13*
X193433743Y-140575748D02*
X195123311Y-142349969D01*
D17*
X193754437Y-140477488D02*
X195057946Y-139236173D01*
D10*
X195585598Y-137905164D02*
X195042470Y-138422379D01*
D12*
X203285293Y-144105543D02*
X201474864Y-145829592D01*
D10*
X202167967Y-145832385D02*
X203797354Y-144280741D01*
X198409725Y-138115647D02*
G75*
G03*
X195585598Y-137905165I-1517305J-1306823D01*
G01*
X198147414Y-143060463D02*
G75*
G03*
X195258620Y-142750938I-1616278J-1449401D01*
G01*
D12*
X198161235Y-142494946D02*
G75*
G03*
X195272441Y-142185421I-1616278J-1449402D01*
G01*
D10*
%TO.C,MX38*%
X253359582Y-72277648D02*
X253553917Y-72230382D01*
X253224373Y-70663889D02*
X254276039Y-74987834D01*
X253182335Y-71548893D02*
X253359582Y-72277648D01*
D17*
X254497960Y-74419282D02*
X254072567Y-72670272D01*
D14*
X261417923Y-69442926D02*
X254907714Y-71026333D01*
D13*
X254423108Y-74746233D02*
X256803707Y-74167226D01*
D12*
X262397502Y-67969690D02*
X262988326Y-70398873D01*
D18*
X253433117Y-72156848D02*
X253279502Y-71525261D01*
D15*
X254768798Y-70751374D02*
X255298175Y-72927922D01*
D13*
X263338910Y-70570892D02*
X262063919Y-70829537D01*
D10*
X258928297Y-71900926D02*
X263592327Y-70766545D01*
X263336564Y-69799598D02*
X262804823Y-67613334D01*
X254276039Y-74987834D02*
X257220208Y-74271756D01*
D16*
X262643056Y-67498306D02*
X261428465Y-67793718D01*
D10*
X263592327Y-70766545D02*
X262741541Y-67268522D01*
X262741541Y-67268522D02*
X254773822Y-69206423D01*
D12*
X258445096Y-71606789D02*
G75*
G03*
X256735511Y-73955885I449674J-2123890D01*
G01*
D10*
X258928297Y-71900927D02*
G75*
G03*
X257218712Y-74250023I449674J-2123890D01*
G01*
X254773822Y-69206421D02*
G75*
G03*
X253182335Y-71548894I375491J-1966979D01*
G01*
D15*
%TO.C,MX17*%
X136330879Y-96294909D02*
X135801501Y-98471457D01*
D10*
X145012610Y-96862743D02*
X137044891Y-94924841D01*
D17*
X134405735Y-99428712D02*
X134831128Y-97679702D01*
D10*
X134378106Y-97003483D02*
X134572440Y-97050749D01*
D12*
X144384976Y-97327582D02*
X143794153Y-99756764D01*
D18*
X134498906Y-96929949D02*
X134652520Y-96298361D01*
D10*
X144378720Y-99384366D02*
X144910462Y-97198102D01*
D14*
X142838206Y-98186361D02*
X136327997Y-96602954D01*
D10*
X144161824Y-100360765D02*
X145012610Y-96862743D01*
D13*
X144026572Y-100070581D02*
X142775214Y-99714769D01*
D10*
X139497794Y-99226384D02*
X144161824Y-100360765D01*
D13*
X134189085Y-99684765D02*
X136569684Y-100263772D01*
D10*
X134999151Y-95507889D02*
X133947485Y-99831834D01*
D16*
X144819593Y-97021628D02*
X143605002Y-96726216D01*
D10*
X133947485Y-99831834D02*
X136891654Y-100547912D01*
X134555353Y-96274728D02*
X134378106Y-97003483D01*
X139497794Y-99226384D02*
G75*
G03*
X136900306Y-100527919I-575994J-2093168D01*
G01*
D12*
X139203657Y-98743185D02*
G75*
G03*
X136606169Y-100044718I-575995J-2093166D01*
G01*
D10*
X137044891Y-94924841D02*
G75*
G03*
X134555352Y-96274729I-569825J-1919714D01*
G01*
D15*
%TO.C,MX6*%
X163305149Y-65997491D02*
X162775771Y-68174039D01*
D18*
X161473176Y-66632531D02*
X161626790Y-66000943D01*
D10*
X171136094Y-70063347D02*
X171986880Y-66565325D01*
X171986880Y-66565325D02*
X164019161Y-64627423D01*
X160921755Y-69534416D02*
X163865924Y-70250494D01*
D12*
X171359246Y-67030164D02*
X170768423Y-69459346D01*
D13*
X171000842Y-69773163D02*
X169749484Y-69417351D01*
D10*
X171352990Y-69086948D02*
X171884732Y-66900684D01*
D14*
X169812476Y-67888943D02*
X163302267Y-66305536D01*
D13*
X161163355Y-69387347D02*
X163543954Y-69966354D01*
D17*
X161380005Y-69131294D02*
X161805398Y-67382284D01*
D10*
X166472064Y-68928966D02*
X171136094Y-70063347D01*
X161973421Y-65210471D02*
X160921755Y-69534416D01*
X161352376Y-66706065D02*
X161546710Y-66753331D01*
X161529623Y-65977310D02*
X161352376Y-66706065D01*
D16*
X171793863Y-66724210D02*
X170579272Y-66428798D01*
D10*
X166472064Y-68928966D02*
G75*
G03*
X163874576Y-70230501I-575994J-2093168D01*
G01*
X164019161Y-64627423D02*
G75*
G03*
X161529622Y-65977311I-569825J-1919714D01*
G01*
D12*
X166177927Y-68445767D02*
G75*
G03*
X163580439Y-69747300I-575995J-2093166D01*
G01*
D10*
%TO.C,MX12*%
X161969989Y-87439336D02*
X166634019Y-88573717D01*
D18*
X156971101Y-85142901D02*
X157124715Y-84511313D01*
D14*
X165310401Y-86399313D02*
X158800192Y-84815906D01*
D10*
X167484805Y-85075695D02*
X159517086Y-83137793D01*
D12*
X166857171Y-85540534D02*
X166266348Y-87969716D01*
D13*
X166498767Y-88283533D02*
X165247409Y-87927721D01*
D10*
X166850915Y-87597318D02*
X167382657Y-85411054D01*
X156419680Y-88044786D02*
X159363849Y-88760864D01*
X157027548Y-84487680D02*
X156850301Y-85216435D01*
D13*
X156661280Y-87897717D02*
X159041879Y-88476724D01*
D16*
X167291788Y-85234580D02*
X166077197Y-84939168D01*
D10*
X166634019Y-88573717D02*
X167484805Y-85075695D01*
X157471346Y-83720841D02*
X156419680Y-88044786D01*
X156850301Y-85216435D02*
X157044635Y-85263701D01*
D17*
X156877930Y-87641664D02*
X157303323Y-85892654D01*
D15*
X158803074Y-84507861D02*
X158273696Y-86684409D01*
D10*
X161969989Y-87439336D02*
G75*
G03*
X159372501Y-88740871I-575994J-2093168D01*
G01*
X159517086Y-83137793D02*
G75*
G03*
X157027547Y-84487681I-569825J-1919714D01*
G01*
D12*
X161675852Y-86956137D02*
G75*
G03*
X159078364Y-88257670I-575995J-2093166D01*
G01*
D10*
%TO.C,MX42*%
X220663670Y-99063418D02*
X220840917Y-99792173D01*
X230222876Y-94783047D02*
X222255157Y-96720948D01*
D13*
X230820245Y-98085417D02*
X229545254Y-98344062D01*
D14*
X228899258Y-96957451D02*
X222389049Y-98540858D01*
D10*
X230817899Y-97314123D02*
X230286158Y-95127859D01*
D13*
X221904443Y-102260758D02*
X224285042Y-101681751D01*
D15*
X222250133Y-98265899D02*
X222779510Y-100442447D01*
D10*
X220705708Y-98178414D02*
X221757374Y-102502359D01*
D12*
X229878837Y-95484215D02*
X230469661Y-97913398D01*
D18*
X220914452Y-99671373D02*
X220760837Y-99039786D01*
D10*
X220840917Y-99792173D02*
X221035252Y-99744907D01*
D17*
X221979295Y-101933807D02*
X221553902Y-100184797D01*
D10*
X226409632Y-99415451D02*
X231073662Y-98281070D01*
X231073662Y-98281070D02*
X230222876Y-94783047D01*
D16*
X230124391Y-95012831D02*
X228909800Y-95308243D01*
D10*
X221757374Y-102502359D02*
X224701543Y-101786281D01*
X222255157Y-96720946D02*
G75*
G03*
X220663670Y-99063419I375491J-1966979D01*
G01*
D12*
X225926431Y-99121314D02*
G75*
G03*
X224216846Y-101470410I449674J-2123890D01*
G01*
D10*
X226409632Y-99415452D02*
G75*
G03*
X224700047Y-101764548I449674J-2123890D01*
G01*
%TO.C,MX35*%
X199285176Y-90715308D02*
X202229345Y-89999230D01*
D12*
X207406639Y-83697164D02*
X207997463Y-86126347D01*
D10*
X207750678Y-82995996D02*
X199782959Y-84933897D01*
D13*
X208348047Y-86298366D02*
X207073056Y-86557011D01*
D10*
X203937434Y-87628400D02*
X208601464Y-86494019D01*
D15*
X199777935Y-86478848D02*
X200307312Y-88655396D01*
D18*
X198442254Y-87884322D02*
X198288639Y-87252735D01*
D17*
X199507097Y-90146756D02*
X199081704Y-88397746D01*
D10*
X208601464Y-86494019D02*
X207750678Y-82995996D01*
X198191472Y-87276367D02*
X198368719Y-88005122D01*
X208345701Y-85527072D02*
X207813960Y-83340808D01*
D16*
X207652193Y-83225780D02*
X206437602Y-83521192D01*
D10*
X198368719Y-88005122D02*
X198563054Y-87957856D01*
D14*
X206427060Y-85170400D02*
X199916851Y-86753807D01*
D13*
X199432245Y-90473707D02*
X201812844Y-89894700D01*
D10*
X198233510Y-86391363D02*
X199285176Y-90715308D01*
X203937434Y-87628401D02*
G75*
G03*
X202227849Y-89977497I449674J-2123890D01*
G01*
X199782959Y-84933895D02*
G75*
G03*
X198191472Y-87276368I375491J-1966979D01*
G01*
D12*
X203454233Y-87334263D02*
G75*
G03*
X201744648Y-89683359I449674J-2123890D01*
G01*
D10*
%TO.C,MX32*%
X249773962Y-56477465D02*
X252718131Y-55761387D01*
X258834487Y-51289229D02*
X258302746Y-49102965D01*
X259090250Y-52256176D02*
X258239464Y-48758153D01*
D15*
X250266721Y-52241005D02*
X250796098Y-54417553D01*
D13*
X249921031Y-56235864D02*
X252301630Y-55656857D01*
D18*
X248931040Y-53646479D02*
X248777425Y-53014892D01*
D10*
X248680258Y-53038524D02*
X248857505Y-53767279D01*
X258239464Y-48758153D02*
X250271745Y-50696054D01*
X248857505Y-53767279D02*
X249051840Y-53720013D01*
D13*
X258836833Y-52060523D02*
X257561842Y-52319168D01*
D10*
X248722296Y-52153520D02*
X249773962Y-56477465D01*
D12*
X257895425Y-49459321D02*
X258486249Y-51888504D01*
D16*
X258140979Y-48987937D02*
X256926388Y-49283349D01*
D17*
X249995883Y-55908913D02*
X249570490Y-54159903D01*
D10*
X254426220Y-53390557D02*
X259090250Y-52256176D01*
D14*
X256915846Y-50932557D02*
X250405637Y-52515964D01*
D10*
X254426220Y-53390558D02*
G75*
G03*
X252716635Y-55739654I449674J-2123890D01*
G01*
X250271745Y-50696052D02*
G75*
G03*
X248680258Y-53038525I375491J-1966979D01*
G01*
D12*
X253943019Y-53096420D02*
G75*
G03*
X252233434Y-55445516I449674J-2123890D01*
G01*
D10*
%TO.C,MX5*%
X148501942Y-62205645D02*
X153165972Y-63340026D01*
X144003299Y-58487150D02*
X142951633Y-62811095D01*
D17*
X143409883Y-62407973D02*
X143835276Y-60658963D01*
D10*
X142951633Y-62811095D02*
X145895802Y-63527173D01*
X153165972Y-63340026D02*
X154016758Y-59842004D01*
D14*
X151842354Y-61165622D02*
X145332145Y-59582215D01*
D13*
X143193233Y-62664026D02*
X145573832Y-63243033D01*
D16*
X153823741Y-60000889D02*
X152609150Y-59705477D01*
D13*
X153030720Y-63049842D02*
X151779362Y-62694030D01*
D10*
X154016758Y-59842004D02*
X146049039Y-57904102D01*
D15*
X145335027Y-59274170D02*
X144805649Y-61450718D01*
D10*
X153382868Y-62363627D02*
X153914610Y-60177363D01*
D12*
X153389124Y-60306843D02*
X152798301Y-62736025D01*
D10*
X143382254Y-59982744D02*
X143576588Y-60030010D01*
D18*
X143503054Y-59909210D02*
X143656668Y-59277622D01*
D10*
X143559501Y-59253989D02*
X143382254Y-59982744D01*
X148501942Y-62205645D02*
G75*
G03*
X145904454Y-63507180I-575994J-2093168D01*
G01*
X146049039Y-57904102D02*
G75*
G03*
X143559500Y-59253990I-569825J-1919714D01*
G01*
D12*
X148207805Y-61722446D02*
G75*
G03*
X145610317Y-63023979I-575995J-2093166D01*
G01*
D18*
%TO.C,MX46*%
X296096459Y-86352362D02*
X295942844Y-85720775D01*
D10*
X296939381Y-89183348D02*
X299883550Y-88467270D01*
X296022924Y-86473162D02*
X296217259Y-86425896D01*
X295887715Y-84859403D02*
X296939381Y-89183348D01*
X305999906Y-83995112D02*
X305468165Y-81808848D01*
D14*
X304081265Y-83638440D02*
X297571056Y-85221847D01*
D10*
X306255669Y-84962059D02*
X305404883Y-81464036D01*
D13*
X297086450Y-88941747D02*
X299467049Y-88362740D01*
D16*
X305306398Y-81693820D02*
X304091807Y-81989232D01*
D10*
X301591639Y-86096440D02*
X306255669Y-84962059D01*
D13*
X306002252Y-84766406D02*
X304727261Y-85025051D01*
D10*
X305404883Y-81464036D02*
X297437164Y-83401937D01*
X295845677Y-85744407D02*
X296022924Y-86473162D01*
D17*
X297161302Y-88614796D02*
X296735909Y-86865786D01*
D15*
X297432140Y-84946888D02*
X297961517Y-87123436D01*
D12*
X305060844Y-82165204D02*
X305651668Y-84594387D01*
X301108438Y-85802303D02*
G75*
G03*
X299398853Y-88151399I449674J-2123890D01*
G01*
D10*
X301591639Y-86096441D02*
G75*
G03*
X299882054Y-88445537I449674J-2123890D01*
G01*
X297437164Y-83401935D02*
G75*
G03*
X295845677Y-85744408I375491J-1966979D01*
G01*
%TO.C,MX11*%
X139501225Y-76997522D02*
X138449559Y-81321467D01*
X148880794Y-80873999D02*
X149412536Y-78687735D01*
D17*
X138907809Y-80918345D02*
X139333202Y-79169335D01*
D15*
X140832953Y-77784542D02*
X140303575Y-79961090D01*
D18*
X139000980Y-78419582D02*
X139154594Y-77787994D01*
D10*
X138880180Y-78493116D02*
X139074514Y-78540382D01*
D14*
X147340280Y-79675994D02*
X140830071Y-78092587D01*
D12*
X148887050Y-78817215D02*
X148296227Y-81246397D01*
D10*
X148663898Y-81850398D02*
X149514684Y-78352376D01*
X143999868Y-80716017D02*
X148663898Y-81850398D01*
D16*
X149321667Y-78511261D02*
X148107076Y-78215849D01*
D10*
X149514684Y-78352376D02*
X141546965Y-76414474D01*
X138449559Y-81321467D02*
X141393728Y-82037545D01*
X139057427Y-77764361D02*
X138880180Y-78493116D01*
D13*
X148528646Y-81560214D02*
X147277288Y-81204402D01*
X138691159Y-81174398D02*
X141071758Y-81753405D01*
D10*
X141546965Y-76414474D02*
G75*
G03*
X139057426Y-77764362I-569825J-1919714D01*
G01*
D12*
X143705731Y-80232818D02*
G75*
G03*
X141108243Y-81534351I-575995J-2093166D01*
G01*
D10*
X143999868Y-80716017D02*
G75*
G03*
X141402380Y-82017552I-575994J-2093168D01*
G01*
%TO.C,MX51*%
X291991613Y-107007560D02*
X291459872Y-104821296D01*
D14*
X290072972Y-106650888D02*
X283562763Y-108234295D01*
D10*
X282931088Y-112195796D02*
X285875257Y-111479718D01*
D18*
X282088166Y-109364810D02*
X281934551Y-108733223D01*
D13*
X291993959Y-107778854D02*
X290718968Y-108037499D01*
D10*
X292247376Y-107974507D02*
X291396590Y-104476484D01*
D13*
X283078157Y-111954195D02*
X285458756Y-111375188D01*
D10*
X282014631Y-109485610D02*
X282208966Y-109438344D01*
X291396590Y-104476484D02*
X283428871Y-106414385D01*
D16*
X291298105Y-104706268D02*
X290083514Y-105001680D01*
D15*
X283423847Y-107959336D02*
X283953224Y-110135884D01*
D12*
X291052551Y-105177652D02*
X291643375Y-107606835D01*
D10*
X281879422Y-107871851D02*
X282931088Y-112195796D01*
X287583346Y-109108888D02*
X292247376Y-107974507D01*
X281837384Y-108756855D02*
X282014631Y-109485610D01*
D17*
X283153009Y-111627244D02*
X282727616Y-109878234D01*
D10*
X287583346Y-109108889D02*
G75*
G03*
X285873761Y-111457985I449674J-2123890D01*
G01*
D12*
X287100145Y-108814751D02*
G75*
G03*
X285390560Y-111163847I449674J-2123890D01*
G01*
D10*
X283428871Y-106414383D02*
G75*
G03*
X281837384Y-108756856I375491J-1966979D01*
G01*
D17*
%TO.C,MX10*%
X120937685Y-74195025D02*
X121363078Y-72446015D01*
D10*
X130910670Y-74150679D02*
X131442412Y-71964415D01*
X121087303Y-71041041D02*
X120910056Y-71769796D01*
D12*
X130916926Y-72093895D02*
X130326103Y-74523077D01*
D10*
X120910056Y-71769796D02*
X121104390Y-71817062D01*
D13*
X120721035Y-74451078D02*
X123101634Y-75030085D01*
D14*
X129370156Y-72952674D02*
X122859947Y-71369267D01*
D13*
X130558522Y-74836894D02*
X129307164Y-74481082D01*
D16*
X131351543Y-71787941D02*
X130136952Y-71492529D01*
D10*
X126029744Y-73992697D02*
X130693774Y-75127078D01*
D15*
X122862829Y-71061222D02*
X122333451Y-73237770D01*
D18*
X121030856Y-71696262D02*
X121184470Y-71064674D01*
D10*
X120479435Y-74598147D02*
X123423604Y-75314225D01*
X131544560Y-71629056D02*
X123576841Y-69691154D01*
X121531101Y-70274202D02*
X120479435Y-74598147D01*
X130693774Y-75127078D02*
X131544560Y-71629056D01*
X123576841Y-69691154D02*
G75*
G03*
X121087302Y-71041042I-569825J-1919714D01*
G01*
X126029744Y-73992697D02*
G75*
G03*
X123432256Y-75294232I-575994J-2093168D01*
G01*
D12*
X125735607Y-73509498D02*
G75*
G03*
X123138119Y-74811031I-575995J-2093166D01*
G01*
D15*
%TO.C,MX52*%
X301934213Y-103457260D02*
X302463590Y-105633808D01*
D10*
X300347750Y-104254779D02*
X300524997Y-104983534D01*
D18*
X300598532Y-104862734D02*
X300444917Y-104231147D01*
D10*
X300389788Y-103369775D02*
X301441454Y-107693720D01*
X301441454Y-107693720D02*
X304385623Y-106977642D01*
D16*
X309808471Y-100204192D02*
X308593880Y-100499604D01*
D10*
X310501979Y-102505484D02*
X309970238Y-100319220D01*
X310757742Y-103472431D02*
X309906956Y-99974408D01*
D12*
X309562917Y-100675576D02*
X310153741Y-103104759D01*
D14*
X308583338Y-102148812D02*
X302073129Y-103732219D01*
D13*
X310504325Y-103276778D02*
X309229334Y-103535423D01*
D17*
X301663375Y-107125168D02*
X301237982Y-105376158D01*
D10*
X300524997Y-104983534D02*
X300719332Y-104936268D01*
X309906956Y-99974408D02*
X301939237Y-101912309D01*
X306093712Y-104606812D02*
X310757742Y-103472431D01*
D13*
X301588523Y-107452119D02*
X303969122Y-106873112D01*
D10*
X306093712Y-104606813D02*
G75*
G03*
X304384127Y-106955909I449674J-2123890D01*
G01*
X301939237Y-101912307D02*
G75*
G03*
X300347750Y-104254780I375491J-1966979D01*
G01*
D12*
X305610511Y-104312675D02*
G75*
G03*
X303900926Y-106661771I449674J-2123890D01*
G01*
D10*
%TO.C,MX45*%
X278429011Y-93685427D02*
X281373180Y-92969349D01*
D17*
X278650932Y-93116875D02*
X278225539Y-91367865D01*
D18*
X277586089Y-90854441D02*
X277432474Y-90222854D01*
D10*
X286894513Y-85966115D02*
X278926794Y-87904016D01*
X277512554Y-90975241D02*
X277706889Y-90927975D01*
X287489536Y-88497191D02*
X286957795Y-86310927D01*
D12*
X286550474Y-86667283D02*
X287141298Y-89096466D01*
D13*
X287491882Y-89268485D02*
X286216891Y-89527130D01*
D10*
X277335307Y-90246486D02*
X277512554Y-90975241D01*
D13*
X278576080Y-93443826D02*
X280956679Y-92864819D01*
D10*
X277377345Y-89361482D02*
X278429011Y-93685427D01*
X283081269Y-90598519D02*
X287745299Y-89464138D01*
D16*
X286796028Y-86195899D02*
X285581437Y-86491311D01*
D14*
X285570895Y-88140519D02*
X279060686Y-89723926D01*
D15*
X278921770Y-89448967D02*
X279451147Y-91625515D01*
D10*
X287745299Y-89464138D02*
X286894513Y-85966115D01*
D12*
X282598068Y-90304382D02*
G75*
G03*
X280888483Y-92653478I449674J-2123890D01*
G01*
D10*
X283081269Y-90598520D02*
G75*
G03*
X281371684Y-92947616I449674J-2123890D01*
G01*
X278926794Y-87904014D02*
G75*
G03*
X277335307Y-90246487I375491J-1966979D01*
G01*
%TO.C,MX28*%
X162961653Y-146450392D02*
X163504782Y-146967607D01*
D18*
X163501327Y-146826228D02*
X163030615Y-146377975D01*
D10*
X162518512Y-145683173D02*
X165741077Y-148751980D01*
X168688808Y-137681145D02*
X163033927Y-143619355D01*
D16*
X168730199Y-137927695D02*
X167868175Y-138832909D01*
D14*
X168751002Y-140225969D02*
X164130551Y-145077921D01*
D10*
X167985653Y-143639800D02*
X171295826Y-140163775D01*
X170557862Y-139488639D02*
X168928475Y-137936995D01*
D13*
X170976860Y-140136205D02*
X170044146Y-141043147D01*
D10*
X171295826Y-140163775D02*
X168688808Y-137681145D01*
D12*
X168778501Y-138457002D02*
X170588931Y-140181051D01*
D17*
X165620357Y-148153710D02*
X164316849Y-146912395D01*
D10*
X163504782Y-146967607D02*
X163642706Y-146822772D01*
D15*
X163865026Y-144921727D02*
X165487171Y-146466475D01*
D10*
X165741077Y-148751980D02*
X167830624Y-146557739D01*
D13*
X165734166Y-148469221D02*
X167423734Y-146695000D01*
D10*
X167985653Y-143639800D02*
G75*
G03*
X167817614Y-146540266I1526626J-1543546D01*
G01*
X163033927Y-143619355D02*
G75*
G03*
X162961654Y-146450393I1379382J-1451655D01*
G01*
D12*
X167420137Y-143653622D02*
G75*
G03*
X167252098Y-146554086I1526625J-1543545D01*
G01*
D18*
%TO.C,MX20*%
X73325190Y-106623389D02*
X73478804Y-105991801D01*
D10*
X73825435Y-105201329D02*
X72773769Y-109525274D01*
D17*
X73232019Y-109122152D02*
X73657412Y-107373142D01*
D10*
X72773769Y-109525274D02*
X75717938Y-110241352D01*
D15*
X75157163Y-105988349D02*
X74627785Y-108164897D01*
D13*
X73015369Y-109378205D02*
X75395968Y-109957212D01*
D10*
X83205004Y-109077806D02*
X83736746Y-106891542D01*
X83838894Y-106556183D02*
X75871175Y-104618281D01*
D16*
X83645877Y-106715068D02*
X82431286Y-106419656D01*
D10*
X82988108Y-110054205D02*
X83838894Y-106556183D01*
X78324078Y-108919824D02*
X82988108Y-110054205D01*
X73381637Y-105968168D02*
X73204390Y-106696923D01*
D12*
X83211260Y-107021022D02*
X82620437Y-109450204D01*
D13*
X82852856Y-109764021D02*
X81601498Y-109408209D01*
D10*
X73204390Y-106696923D02*
X73398724Y-106744189D01*
D14*
X81664490Y-107879801D02*
X75154281Y-106296394D01*
D12*
X78029941Y-108436625D02*
G75*
G03*
X75432453Y-109738158I-575995J-2093166D01*
G01*
D10*
X75871175Y-104618281D02*
G75*
G03*
X73381636Y-105968169I-569825J-1919714D01*
G01*
X78324078Y-108919824D02*
G75*
G03*
X75726590Y-110221359I-575994J-2093168D01*
G01*
%TO.C,MX37*%
X239851443Y-74188142D02*
X244515473Y-73053761D01*
X243664687Y-69555738D02*
X235696968Y-71493639D01*
X235199185Y-77275050D02*
X238143354Y-76558972D01*
X244259710Y-72086814D02*
X243727969Y-69900550D01*
D13*
X235346254Y-77033449D02*
X237726853Y-76454442D01*
D10*
X234147519Y-72951105D02*
X235199185Y-77275050D01*
D14*
X242341069Y-71730142D02*
X235830860Y-73313549D01*
D12*
X243320648Y-70256906D02*
X243911472Y-72686089D01*
D16*
X243566202Y-69785522D02*
X242351611Y-70080934D01*
D17*
X235421106Y-76706498D02*
X234995713Y-74957488D01*
D13*
X244262056Y-72858108D02*
X242987065Y-73116753D01*
D10*
X244515473Y-73053761D02*
X243664687Y-69555738D01*
X234282728Y-74564864D02*
X234477063Y-74517598D01*
D18*
X234356263Y-74444064D02*
X234202648Y-73812477D01*
D10*
X234105481Y-73836109D02*
X234282728Y-74564864D01*
D15*
X235691944Y-73038590D02*
X236221321Y-75215138D01*
D10*
X239851443Y-74188143D02*
G75*
G03*
X238141858Y-76537239I449674J-2123890D01*
G01*
X235696968Y-71493637D02*
G75*
G03*
X234105481Y-73836110I375491J-1966979D01*
G01*
D12*
X239368242Y-73894005D02*
G75*
G03*
X237658657Y-76243101I449674J-2123890D01*
G01*
D10*
%TO.C,MX34*%
X296995753Y-46974374D02*
X296464012Y-44788110D01*
D16*
X296302245Y-44673082D02*
X295087654Y-44968494D01*
D10*
X287018771Y-49452424D02*
X287213106Y-49405158D01*
X286883562Y-47838665D02*
X287935228Y-52162610D01*
X296400730Y-44443298D02*
X288433011Y-46381199D01*
X292587486Y-49075702D02*
X297251516Y-47941321D01*
X287935228Y-52162610D02*
X290879397Y-51446532D01*
D14*
X295077112Y-46617702D02*
X288566903Y-48201109D01*
D10*
X286841524Y-48723669D02*
X287018771Y-49452424D01*
D17*
X288157149Y-51594058D02*
X287731756Y-49845048D01*
D13*
X296998099Y-47745668D02*
X295723108Y-48004313D01*
D12*
X296056691Y-45144466D02*
X296647515Y-47573649D01*
D15*
X288427987Y-47926150D02*
X288957364Y-50102698D01*
D13*
X288082297Y-51921009D02*
X290462896Y-51342002D01*
D18*
X287092306Y-49331624D02*
X286938691Y-48700037D01*
D10*
X297251516Y-47941321D02*
X296400730Y-44443298D01*
X288433011Y-46381197D02*
G75*
G03*
X286841524Y-48723670I375491J-1966979D01*
G01*
D12*
X292104285Y-48781565D02*
G75*
G03*
X290394700Y-51130661I449674J-2123890D01*
G01*
D10*
X292587486Y-49075703D02*
G75*
G03*
X290877901Y-51424799I449674J-2123890D01*
G01*
D16*
%TO.C,MX50*%
X271647204Y-104519051D02*
X270432613Y-104814463D01*
D18*
X262437265Y-109177593D02*
X262283650Y-108546006D01*
D15*
X263772946Y-107772119D02*
X264302323Y-109948667D01*
D10*
X262186483Y-108569638D02*
X262363730Y-109298393D01*
X271745689Y-104289267D02*
X263777970Y-106227168D01*
D17*
X263502108Y-111440027D02*
X263076715Y-109691017D01*
D10*
X263280187Y-112008579D02*
X266224356Y-111292501D01*
D13*
X263427256Y-111766978D02*
X265807855Y-111187971D01*
D10*
X262363730Y-109298393D02*
X262558065Y-109251127D01*
D14*
X270422071Y-106463671D02*
X263911862Y-108047078D01*
D10*
X267932445Y-108921671D02*
X272596475Y-107787290D01*
X272340712Y-106820343D02*
X271808971Y-104634079D01*
X262228521Y-107684634D02*
X263280187Y-112008579D01*
D13*
X272343058Y-107591637D02*
X271068067Y-107850282D01*
D12*
X271401650Y-104990435D02*
X271992474Y-107419618D01*
D10*
X272596475Y-107787290D02*
X271745689Y-104289267D01*
D12*
X267449244Y-108627534D02*
G75*
G03*
X265739659Y-110976630I449674J-2123890D01*
G01*
D10*
X263777970Y-106227166D02*
G75*
G03*
X262186483Y-108569639I375491J-1966979D01*
G01*
X267932445Y-108921672D02*
G75*
G03*
X266222860Y-111270768I449674J-2123890D01*
G01*
%TO.C,MX40*%
X292437307Y-70672981D02*
X295381476Y-69956903D01*
D17*
X292659228Y-70104429D02*
X292233835Y-68355419D01*
D14*
X299579191Y-65128073D02*
X293068982Y-66711480D01*
D13*
X292584376Y-70431380D02*
X294964975Y-69852373D01*
D10*
X291343603Y-67234040D02*
X291520850Y-67962795D01*
X291385641Y-66349036D02*
X292437307Y-70672981D01*
X297089565Y-67586073D02*
X301753595Y-66451692D01*
D16*
X300804324Y-63183453D02*
X299589733Y-63478865D01*
D12*
X300558770Y-63654837D02*
X301149594Y-66084020D01*
D15*
X292930066Y-66436521D02*
X293459443Y-68613069D01*
D10*
X301497832Y-65484745D02*
X300966091Y-63298481D01*
X301753595Y-66451692D02*
X300902809Y-62953669D01*
D18*
X291594385Y-67841995D02*
X291440770Y-67210408D01*
D13*
X301500178Y-66256039D02*
X300225187Y-66514684D01*
D10*
X291520850Y-67962795D02*
X291715185Y-67915529D01*
X300902809Y-62953669D02*
X292935090Y-64891570D01*
D12*
X296606364Y-67291936D02*
G75*
G03*
X294896779Y-69641032I449674J-2123890D01*
G01*
D10*
X292935090Y-64891568D02*
G75*
G03*
X291343603Y-67234041I375491J-1966979D01*
G01*
X297089565Y-67586074D02*
G75*
G03*
X295379980Y-69935170I449674J-2123890D01*
G01*
%TO.C,MX23*%
X130497074Y-114018263D02*
X129445408Y-118342208D01*
D16*
X140317516Y-115532002D02*
X139102925Y-115236590D01*
D14*
X138336129Y-116696735D02*
X131825920Y-115113328D01*
D13*
X129687008Y-118195139D02*
X132067607Y-118774146D01*
D10*
X130053276Y-114785102D02*
X129876029Y-115513857D01*
D12*
X139882899Y-115837956D02*
X139292076Y-118267138D01*
D13*
X139524495Y-118580955D02*
X138273137Y-118225143D01*
D10*
X139659747Y-118871139D02*
X140510533Y-115373117D01*
X129876029Y-115513857D02*
X130070363Y-115561123D01*
X140510533Y-115373117D02*
X132542814Y-113435215D01*
X134995717Y-117736758D02*
X139659747Y-118871139D01*
X129445408Y-118342208D02*
X132389577Y-119058286D01*
X139876643Y-117894740D02*
X140408385Y-115708476D01*
D15*
X131828802Y-114805283D02*
X131299424Y-116981831D01*
D17*
X129903658Y-117939086D02*
X130329051Y-116190076D01*
D18*
X129996829Y-115440323D02*
X130150443Y-114808735D01*
D10*
X132542814Y-113435215D02*
G75*
G03*
X130053275Y-114785103I-569825J-1919714D01*
G01*
X134995717Y-117736758D02*
G75*
G03*
X132398229Y-119038293I-575994J-2093168D01*
G01*
D12*
X134701580Y-117253559D02*
G75*
G03*
X132104092Y-118555092I-575995J-2093166D01*
G01*
D19*
%TO.C,U1*%
X177038016Y-90689267D02*
X174498016Y-90689267D01*
X174498016Y-121169267D02*
X192278016Y-121169267D01*
X177038016Y-93229267D02*
X174498016Y-93229267D01*
X174498016Y-88149267D02*
X174498016Y-121169267D01*
X177038016Y-90689267D02*
X177038016Y-93229267D01*
X192278016Y-121169267D02*
X192278016Y-88149267D01*
X192278016Y-88149267D02*
X174498016Y-88149267D01*
D10*
X189632651Y-96578297D02*
X189632651Y-97378297D01*
X189632651Y-97378297D02*
X189732651Y-97378297D01*
X189732651Y-97378297D02*
X189732651Y-96578297D01*
X189732651Y-96578297D02*
X189632651Y-96578297D01*
G36*
X189732651Y-97378297D02*
G01*
X189632651Y-97378297D01*
X189632651Y-96578297D01*
X189732651Y-96578297D01*
X189732651Y-97378297D01*
G37*
X189732651Y-97378297D02*
X189632651Y-97378297D01*
X189632651Y-96578297D01*
X189732651Y-96578297D01*
X189732651Y-97378297D01*
X189432651Y-96978297D02*
X189432651Y-97078297D01*
X189432651Y-97078297D02*
X189532651Y-97078297D01*
X189532651Y-97078297D02*
X189532651Y-96978297D01*
X189532651Y-96978297D02*
X189432651Y-96978297D01*
G36*
X189532651Y-97078297D02*
G01*
X189432651Y-97078297D01*
X189432651Y-96978297D01*
X189532651Y-96978297D01*
X189532651Y-97078297D01*
G37*
X189532651Y-97078297D02*
X189432651Y-97078297D01*
X189432651Y-96978297D01*
X189532651Y-96978297D01*
X189532651Y-97078297D01*
X189232651Y-96578297D02*
X189232651Y-96878297D01*
X189232651Y-96878297D02*
X189332651Y-96878297D01*
X189332651Y-96878297D02*
X189332651Y-96578297D01*
X189332651Y-96578297D02*
X189232651Y-96578297D01*
G36*
X189332651Y-96878297D02*
G01*
X189232651Y-96878297D01*
X189232651Y-96578297D01*
X189332651Y-96578297D01*
X189332651Y-96878297D01*
G37*
X189332651Y-96878297D02*
X189232651Y-96878297D01*
X189232651Y-96578297D01*
X189332651Y-96578297D01*
X189332651Y-96878297D01*
X189232651Y-97178297D02*
X189232651Y-97378297D01*
X189232651Y-97378297D02*
X189332651Y-97378297D01*
X189332651Y-97378297D02*
X189332651Y-97178297D01*
X189332651Y-97178297D02*
X189232651Y-97178297D01*
G36*
X189332651Y-97378297D02*
G01*
X189232651Y-97378297D01*
X189232651Y-97178297D01*
X189332651Y-97178297D01*
X189332651Y-97378297D01*
G37*
X189332651Y-97378297D02*
X189232651Y-97378297D01*
X189232651Y-97178297D01*
X189332651Y-97178297D01*
X189332651Y-97378297D01*
X189232651Y-96578297D02*
X189232651Y-96678297D01*
X189232651Y-96678297D02*
X189732651Y-96678297D01*
X189732651Y-96678297D02*
X189732651Y-96578297D01*
X189732651Y-96578297D02*
X189232651Y-96578297D01*
G36*
X189732651Y-96678297D02*
G01*
X189232651Y-96678297D01*
X189232651Y-96578297D01*
X189732651Y-96578297D01*
X189732651Y-96678297D01*
G37*
X189732651Y-96678297D02*
X189232651Y-96678297D01*
X189232651Y-96578297D01*
X189732651Y-96578297D01*
X189732651Y-96678297D01*
D18*
%TO.C,MX48*%
X225416527Y-118181744D02*
X225262912Y-117550157D01*
D12*
X234380912Y-113994586D02*
X234971736Y-116423769D01*
D10*
X225342992Y-118302544D02*
X225537327Y-118255278D01*
X225207783Y-116688785D02*
X226259449Y-121012730D01*
D13*
X235322320Y-116595788D02*
X234047329Y-116854433D01*
X226406518Y-120771129D02*
X228787117Y-120192122D01*
D10*
X225165745Y-117573789D02*
X225342992Y-118302544D01*
D16*
X234626466Y-113523202D02*
X233411875Y-113818614D01*
D10*
X235575737Y-116791441D02*
X234724951Y-113293418D01*
X230911707Y-117925822D02*
X235575737Y-116791441D01*
X235319974Y-115824494D02*
X234788233Y-113638230D01*
D17*
X226481370Y-120444178D02*
X226055977Y-118695168D01*
D14*
X233401333Y-115467822D02*
X226891124Y-117051229D01*
D15*
X226752208Y-116776270D02*
X227281585Y-118952818D01*
D10*
X234724951Y-113293418D02*
X226757232Y-115231319D01*
X226259449Y-121012730D02*
X229203618Y-120296652D01*
D12*
X230428506Y-117631685D02*
G75*
G03*
X228718921Y-119980781I449674J-2123890D01*
G01*
D10*
X226757232Y-115231317D02*
G75*
G03*
X225165745Y-117573790I375491J-1966979D01*
G01*
X230911707Y-117925823D02*
G75*
G03*
X229202122Y-120274919I449674J-2123890D01*
G01*
%TO.C,MX9*%
X101428818Y-72317317D02*
X104372987Y-73033395D01*
D15*
X103812212Y-68780392D02*
X103282834Y-70956940D01*
D10*
X106979127Y-71711867D02*
X111643157Y-72846248D01*
D17*
X101887068Y-71914195D02*
X102312461Y-70165185D01*
D16*
X112300926Y-69507111D02*
X111086335Y-69211699D01*
D10*
X111860053Y-71869849D02*
X112391795Y-69683585D01*
D12*
X111866309Y-69813065D02*
X111275486Y-72242247D01*
D13*
X101670418Y-72170248D02*
X104051017Y-72749255D01*
D10*
X111643157Y-72846248D02*
X112493943Y-69348226D01*
D14*
X110319539Y-70671844D02*
X103809330Y-69088437D01*
D10*
X112493943Y-69348226D02*
X104526224Y-67410324D01*
X102480484Y-67993372D02*
X101428818Y-72317317D01*
X101859439Y-69488966D02*
X102053773Y-69536232D01*
D13*
X111507905Y-72556064D02*
X110256547Y-72200252D01*
D18*
X101980239Y-69415432D02*
X102133853Y-68783844D01*
D10*
X102036686Y-68760211D02*
X101859439Y-69488966D01*
D12*
X106684990Y-71228668D02*
G75*
G03*
X104087502Y-72530201I-575995J-2093166D01*
G01*
D10*
X106979127Y-71711867D02*
G75*
G03*
X104381639Y-73013402I-575994J-2093168D01*
G01*
X104526224Y-67410324D02*
G75*
G03*
X102036685Y-68760212I-569825J-1919714D01*
G01*
%TO.C,MX7*%
X73481889Y-68531392D02*
X74332675Y-65033370D01*
X73698785Y-67554993D02*
X74230527Y-65368729D01*
D17*
X63725800Y-67599339D02*
X64151193Y-65850329D01*
D14*
X72158271Y-66356988D02*
X65648062Y-64773581D01*
D15*
X65650944Y-64465536D02*
X65121566Y-66642084D01*
D10*
X64319216Y-63678516D02*
X63267550Y-68002461D01*
X68817859Y-67397011D02*
X73481889Y-68531392D01*
D12*
X73705041Y-65498209D02*
X73114218Y-67927391D01*
D10*
X63267550Y-68002461D02*
X66211719Y-68718539D01*
D13*
X63509150Y-67855392D02*
X65889749Y-68434399D01*
D10*
X63698171Y-65174110D02*
X63892505Y-65221376D01*
D18*
X63818971Y-65100576D02*
X63972585Y-64468988D01*
D10*
X63875418Y-64445355D02*
X63698171Y-65174110D01*
D13*
X73346637Y-68241208D02*
X72095279Y-67885396D01*
D16*
X74139658Y-65192255D02*
X72925067Y-64896843D01*
D10*
X74332675Y-65033370D02*
X66364956Y-63095468D01*
X68817859Y-67397011D02*
G75*
G03*
X66220371Y-68698546I-575994J-2093168D01*
G01*
X66364956Y-63095468D02*
G75*
G03*
X63875417Y-64445356I-569825J-1919714D01*
G01*
D12*
X68523722Y-66913812D02*
G75*
G03*
X65926234Y-68215345I-575995J-2093166D01*
G01*
D17*
%TO.C,MX56*%
X240706954Y-138985723D02*
X240281561Y-137236713D01*
D18*
X239642111Y-136723289D02*
X239488496Y-136091702D01*
D10*
X239391329Y-136115334D02*
X239568576Y-136844089D01*
X240485033Y-139554275D02*
X243429202Y-138838197D01*
D16*
X248852050Y-132064747D02*
X247637459Y-132360159D01*
D15*
X240977792Y-135317815D02*
X241507169Y-137494363D01*
D14*
X247626917Y-134009367D02*
X241116708Y-135592774D01*
D10*
X239568576Y-136844089D02*
X239762911Y-136796823D01*
X249545558Y-134366039D02*
X249013817Y-132179775D01*
X245137291Y-136467367D02*
X249801321Y-135332986D01*
X249801321Y-135332986D02*
X248950535Y-131834963D01*
X239433367Y-135230330D02*
X240485033Y-139554275D01*
X248950535Y-131834963D02*
X240982816Y-133772864D01*
D13*
X249547904Y-135137333D02*
X248272913Y-135395978D01*
D12*
X248606496Y-132536131D02*
X249197320Y-134965314D01*
D13*
X240632102Y-139312674D02*
X243012701Y-138733667D01*
D10*
X240982816Y-133772862D02*
G75*
G03*
X239391329Y-136115335I375491J-1966979D01*
G01*
X245137291Y-136467368D02*
G75*
G03*
X243427706Y-138816464I449674J-2123890D01*
G01*
D12*
X244654090Y-136173230D02*
G75*
G03*
X242944505Y-138522326I449674J-2123890D01*
G01*
D10*
%TO.C,MX33*%
X278485386Y-51476446D02*
X277953645Y-49290182D01*
X269424861Y-56664682D02*
X272369030Y-55948604D01*
X278741149Y-52443393D02*
X277890363Y-48945370D01*
X268508404Y-53954496D02*
X268702739Y-53907230D01*
D13*
X278487732Y-52247740D02*
X277212741Y-52506385D01*
D16*
X277791878Y-49175154D02*
X276577287Y-49470566D01*
D13*
X269571930Y-56423081D02*
X271952529Y-55844074D01*
D17*
X269646782Y-56096130D02*
X269221389Y-54347120D01*
D10*
X268331157Y-53225741D02*
X268508404Y-53954496D01*
D12*
X277546324Y-49646538D02*
X278137148Y-52075721D01*
D15*
X269917620Y-52428222D02*
X270446997Y-54604770D01*
D14*
X276566745Y-51119774D02*
X270056536Y-52703181D01*
D18*
X268581939Y-53833696D02*
X268428324Y-53202109D01*
D10*
X274077119Y-53577774D02*
X278741149Y-52443393D01*
X268373195Y-52340737D02*
X269424861Y-56664682D01*
X277890363Y-48945370D02*
X269922644Y-50883271D01*
D12*
X273593918Y-53283637D02*
G75*
G03*
X271884333Y-55632733I449674J-2123890D01*
G01*
D10*
X269922644Y-50883269D02*
G75*
G03*
X268331157Y-53225742I375491J-1966979D01*
G01*
X274077119Y-53577775D02*
G75*
G03*
X272367534Y-55926871I449674J-2123890D01*
G01*
%TO.C,MX39*%
X282987461Y-69986819D02*
X282455720Y-67800555D01*
X273926936Y-75175055D02*
X276871105Y-74458977D01*
X278579194Y-72088147D02*
X283243224Y-70953766D01*
D14*
X281068820Y-69630147D02*
X274558611Y-71213554D01*
D13*
X274074005Y-74933454D02*
X276454604Y-74354447D01*
D10*
X282392438Y-67455743D02*
X274424719Y-69393644D01*
D15*
X274419695Y-70938595D02*
X274949072Y-73115143D01*
D13*
X282989807Y-70758113D02*
X281714816Y-71016758D01*
D10*
X272833232Y-71736114D02*
X273010479Y-72464869D01*
D16*
X282293953Y-67685527D02*
X281079362Y-67980939D01*
D17*
X274148857Y-74606503D02*
X273723464Y-72857493D01*
D10*
X273010479Y-72464869D02*
X273204814Y-72417603D01*
D18*
X273084014Y-72344069D02*
X272930399Y-71712482D01*
D10*
X283243224Y-70953766D02*
X282392438Y-67455743D01*
D12*
X282048399Y-68156911D02*
X282639223Y-70586094D01*
D10*
X272875270Y-70851110D02*
X273926936Y-75175055D01*
X278579194Y-72088148D02*
G75*
G03*
X276869609Y-74437244I449674J-2123890D01*
G01*
D12*
X278095993Y-71794010D02*
G75*
G03*
X276386408Y-74143106I449674J-2123890D01*
G01*
D10*
X274424719Y-69393642D02*
G75*
G03*
X272833232Y-71736115I375491J-1966979D01*
G01*
D13*
%TO.C,MX47*%
X208436397Y-127494448D02*
X210816996Y-126915441D01*
D10*
X216754830Y-120016737D02*
X208787111Y-121954638D01*
D17*
X208511249Y-127167497D02*
X208085856Y-125418487D01*
D15*
X208782087Y-123499589D02*
X209311464Y-125676137D01*
D10*
X212941586Y-124649141D02*
X217605616Y-123514760D01*
X217605616Y-123514760D02*
X216754830Y-120016737D01*
X207195624Y-124297108D02*
X207372871Y-125025863D01*
X217349853Y-122547813D02*
X216818112Y-120361549D01*
X207237662Y-123412104D02*
X208289328Y-127736049D01*
D14*
X215431212Y-122191141D02*
X208921003Y-123774548D01*
D16*
X216656345Y-120246521D02*
X215441754Y-120541933D01*
D13*
X217352199Y-123319107D02*
X216077208Y-123577752D01*
D12*
X216410791Y-120717905D02*
X217001615Y-123147088D01*
D10*
X208289328Y-127736049D02*
X211233497Y-127019971D01*
X207372871Y-125025863D02*
X207567206Y-124978597D01*
D18*
X207446406Y-124905063D02*
X207292791Y-124273476D01*
D12*
X212458385Y-124355004D02*
G75*
G03*
X210748800Y-126704100I449674J-2123890D01*
G01*
D10*
X208787111Y-121954636D02*
G75*
G03*
X207195624Y-124297109I375491J-1966979D01*
G01*
X212941586Y-124649142D02*
G75*
G03*
X211232001Y-126998238I449674J-2123890D01*
G01*
%TO.C,MX19*%
X64694635Y-104575732D02*
X65226377Y-102389468D01*
D14*
X63154121Y-103377727D02*
X56643912Y-101794320D01*
D10*
X55315066Y-100699255D02*
X54263400Y-105023200D01*
D13*
X64342487Y-105261947D02*
X63091129Y-104906135D01*
D12*
X64700891Y-102518948D02*
X64110068Y-104948130D01*
D10*
X54263400Y-105023200D02*
X57207569Y-105739278D01*
D15*
X56646794Y-101486275D02*
X56117416Y-103662823D01*
D10*
X54871268Y-101466094D02*
X54694021Y-102194849D01*
D17*
X54721650Y-104620078D02*
X55147043Y-102871068D01*
D16*
X65135508Y-102212994D02*
X63920917Y-101917582D01*
D10*
X59813709Y-104417750D02*
X64477739Y-105552131D01*
X65328525Y-102054109D02*
X57360806Y-100116207D01*
D13*
X54505000Y-104876131D02*
X56885599Y-105455138D01*
D10*
X64477739Y-105552131D02*
X65328525Y-102054109D01*
D18*
X54814821Y-102121315D02*
X54968435Y-101489727D01*
D10*
X54694021Y-102194849D02*
X54888355Y-102242115D01*
X57360806Y-100116207D02*
G75*
G03*
X54871267Y-101466095I-569825J-1919714D01*
G01*
D12*
X59519572Y-103934551D02*
G75*
G03*
X56922084Y-105236084I-575995J-2093166D01*
G01*
D10*
X59813709Y-104417750D02*
G75*
G03*
X57216221Y-105719285I-575994J-2093168D01*
G01*
%TO.C,MX13*%
X59817141Y-82188885D02*
X58765475Y-86512830D01*
D14*
X67656196Y-84867357D02*
X61145987Y-83283950D01*
D10*
X68979814Y-87041761D02*
X69830600Y-83543739D01*
X69830600Y-83543739D02*
X61862881Y-81605837D01*
D13*
X68844562Y-86751577D02*
X67593204Y-86395765D01*
D15*
X61148869Y-82975905D02*
X60619491Y-85152453D01*
D10*
X58765475Y-86512830D02*
X61709644Y-87228908D01*
D13*
X59007075Y-86365761D02*
X61387674Y-86944768D01*
D10*
X69196710Y-86065362D02*
X69728452Y-83879098D01*
D16*
X69637583Y-83702624D02*
X68422992Y-83407212D01*
D10*
X59196096Y-83684479D02*
X59390430Y-83731745D01*
X64315784Y-85907380D02*
X68979814Y-87041761D01*
D17*
X59223725Y-86109708D02*
X59649118Y-84360698D01*
D18*
X59316896Y-83610945D02*
X59470510Y-82979357D01*
D12*
X69202966Y-84008578D02*
X68612143Y-86437760D01*
D10*
X59373343Y-82955724D02*
X59196096Y-83684479D01*
D12*
X64021647Y-85424181D02*
G75*
G03*
X61424159Y-86725714I-575995J-2093166D01*
G01*
D10*
X64315784Y-85907380D02*
G75*
G03*
X61718296Y-87208915I-575994J-2093168D01*
G01*
X61862881Y-81605837D02*
G75*
G03*
X59373342Y-82955725I-569825J-1919714D01*
G01*
D15*
%TO.C,MX16*%
X118360757Y-89571588D02*
X117831379Y-91748136D01*
D10*
X116585231Y-89551407D02*
X116407984Y-90280162D01*
X126191702Y-93637444D02*
X127042488Y-90139422D01*
X126408598Y-92661045D02*
X126940340Y-90474781D01*
X117029029Y-88784568D02*
X115977363Y-93108513D01*
X127042488Y-90139422D02*
X119074769Y-88201520D01*
D18*
X116528784Y-90206628D02*
X116682398Y-89575040D01*
D10*
X116407984Y-90280162D02*
X116602318Y-90327428D01*
X115977363Y-93108513D02*
X118921532Y-93824591D01*
D13*
X116218963Y-92961444D02*
X118599562Y-93540451D01*
D10*
X121527672Y-92503063D02*
X126191702Y-93637444D01*
D13*
X126056450Y-93347260D02*
X124805092Y-92991448D01*
D12*
X126414854Y-90604261D02*
X125824031Y-93033443D01*
D16*
X126849471Y-90298307D02*
X125634880Y-90002895D01*
D14*
X124868084Y-91463040D02*
X118357875Y-89879633D01*
D17*
X116435613Y-92705391D02*
X116861006Y-90956381D01*
D10*
X119074769Y-88201520D02*
G75*
G03*
X116585230Y-89551408I-569825J-1919714D01*
G01*
X121527672Y-92503063D02*
G75*
G03*
X118930184Y-93804598I-575994J-2093168D01*
G01*
D12*
X121233535Y-92019864D02*
G75*
G03*
X118636047Y-93321397I-575995J-2093166D01*
G01*
D10*
%TO.C,MX4*%
X135412751Y-55640308D02*
X135944493Y-53454044D01*
D16*
X135853624Y-53277570D02*
X134639033Y-52982158D01*
D10*
X136046641Y-53118685D02*
X128078922Y-51180783D01*
D17*
X125439766Y-55684654D02*
X125865159Y-53935644D01*
D14*
X133872237Y-54442303D02*
X127362028Y-52858896D01*
D13*
X125223116Y-55940707D02*
X127603715Y-56519714D01*
D10*
X130531825Y-55482326D02*
X135195855Y-56616707D01*
D12*
X135419007Y-53583524D02*
X134828184Y-56012706D01*
D15*
X127364910Y-52550851D02*
X126835532Y-54727399D01*
D10*
X125589384Y-52530670D02*
X125412137Y-53259425D01*
X125412137Y-53259425D02*
X125606471Y-53306691D01*
X124981516Y-56087776D02*
X127925685Y-56803854D01*
X135195855Y-56616707D02*
X136046641Y-53118685D01*
D18*
X125532937Y-53185891D02*
X125686551Y-52554303D01*
D10*
X126033182Y-51763831D02*
X124981516Y-56087776D01*
D13*
X135060603Y-56326523D02*
X133809245Y-55970711D01*
D10*
X130531825Y-55482326D02*
G75*
G03*
X127934337Y-56783861I-575994J-2093168D01*
G01*
X128078922Y-51180783D02*
G75*
G03*
X125589383Y-52530671I-569825J-1919714D01*
G01*
D12*
X130237688Y-54999127D02*
G75*
G03*
X127640200Y-56300660I-575995J-2093166D01*
G01*
D14*
%TO.C,MX15*%
X105817463Y-89182213D02*
X99307254Y-87598806D01*
D13*
X97168342Y-90680617D02*
X99548941Y-91259624D01*
D10*
X97357363Y-87999335D02*
X97551697Y-88046601D01*
X107991867Y-87858595D02*
X100024148Y-85920693D01*
X96926742Y-90827686D02*
X99870911Y-91543764D01*
D17*
X97384992Y-90424564D02*
X97810385Y-88675554D01*
D16*
X107798850Y-88017480D02*
X106584259Y-87722068D01*
D10*
X107357977Y-90380218D02*
X107889719Y-88193954D01*
X102477051Y-90222236D02*
X107141081Y-91356617D01*
X97534610Y-87270580D02*
X97357363Y-87999335D01*
D12*
X107364233Y-88323434D02*
X106773410Y-90752616D01*
D10*
X97978408Y-86503741D02*
X96926742Y-90827686D01*
D18*
X97478163Y-87925801D02*
X97631777Y-87294213D01*
D13*
X107005829Y-91066433D02*
X105754471Y-90710621D01*
D10*
X107141081Y-91356617D02*
X107991867Y-87858595D01*
D15*
X99310136Y-87290761D02*
X98780758Y-89467309D01*
D10*
X102477051Y-90222236D02*
G75*
G03*
X99879563Y-91523771I-575994J-2093168D01*
G01*
X100024148Y-85920693D02*
G75*
G03*
X97534609Y-87270581I-569825J-1919714D01*
G01*
D12*
X102182914Y-89739037D02*
G75*
G03*
X99585426Y-91040570I-575995J-2093166D01*
G01*
D15*
%TO.C,MX30*%
X213245982Y-61245158D02*
X213775359Y-63421706D01*
D10*
X222069511Y-61260329D02*
X221218725Y-57762306D01*
X211836766Y-62771432D02*
X212031101Y-62724166D01*
X221813748Y-60293382D02*
X221282007Y-58107118D01*
D16*
X221120240Y-57992090D02*
X219905649Y-58287502D01*
D13*
X221816094Y-61064676D02*
X220541103Y-61323321D01*
D10*
X211659519Y-62042677D02*
X211836766Y-62771432D01*
D18*
X211910301Y-62650632D02*
X211756686Y-62019045D01*
D10*
X217405481Y-62394710D02*
X222069511Y-61260329D01*
X212753223Y-65481618D02*
X215697392Y-64765540D01*
X211701557Y-61157673D02*
X212753223Y-65481618D01*
D17*
X212975144Y-64913066D02*
X212549751Y-63164056D01*
D13*
X212900292Y-65240017D02*
X215280891Y-64661010D01*
D12*
X220874686Y-58463474D02*
X221465510Y-60892657D01*
D10*
X221218725Y-57762306D02*
X213251006Y-59700207D01*
D14*
X219895107Y-59936710D02*
X213384898Y-61520117D01*
D12*
X216922280Y-62100573D02*
G75*
G03*
X215212695Y-64449669I449674J-2123890D01*
G01*
D10*
X217405481Y-62394711D02*
G75*
G03*
X215695896Y-64743807I449674J-2123890D01*
G01*
X213251006Y-59700205D02*
G75*
G03*
X211659519Y-62042678I375491J-1966979D01*
G01*
D15*
%TO.C,MX26*%
X135573336Y-140070145D02*
X135043958Y-142246693D01*
D10*
X134241608Y-139283125D02*
X133189942Y-143607070D01*
D14*
X142080663Y-141961597D02*
X135570454Y-140378190D01*
D17*
X133648192Y-143203948D02*
X134073585Y-141454938D01*
D10*
X143621177Y-143159602D02*
X144152919Y-140973338D01*
X133620563Y-140778719D02*
X133814897Y-140825985D01*
X144255067Y-140637979D02*
X136287348Y-138700077D01*
X138740251Y-143001620D02*
X143404281Y-144136001D01*
D12*
X143627433Y-141102818D02*
X143036610Y-143532000D01*
D13*
X133431542Y-143460001D02*
X135812141Y-144039008D01*
D10*
X133797810Y-140049964D02*
X133620563Y-140778719D01*
D13*
X143269029Y-143845817D02*
X142017671Y-143490005D01*
D10*
X143404281Y-144136001D02*
X144255067Y-140637979D01*
D16*
X144062050Y-140796864D02*
X142847459Y-140501452D01*
D10*
X133189942Y-143607070D02*
X136134111Y-144323148D01*
D18*
X133741363Y-140705185D02*
X133894977Y-140073597D01*
D12*
X138446114Y-142518421D02*
G75*
G03*
X135848626Y-143819954I-575995J-2093166D01*
G01*
D10*
X136287348Y-138700077D02*
G75*
G03*
X133797809Y-140049965I-569825J-1919714D01*
G01*
X138740251Y-143001620D02*
G75*
G03*
X136142763Y-144303155I-575994J-2093168D01*
G01*
%TO.C,MX41*%
X202870795Y-106515489D02*
X203065130Y-106468223D01*
X212252754Y-101506363D02*
X204285035Y-103444264D01*
X212847777Y-104037439D02*
X212316036Y-101851175D01*
X203787252Y-109225675D02*
X206731421Y-108509597D01*
D12*
X211908715Y-102207531D02*
X212499539Y-104636714D01*
D17*
X204009173Y-108657123D02*
X203583780Y-106908113D01*
D10*
X202693548Y-105786734D02*
X202870795Y-106515489D01*
X202735586Y-104901730D02*
X203787252Y-109225675D01*
D15*
X204280011Y-104989215D02*
X204809388Y-107165763D01*
D18*
X202944330Y-106394689D02*
X202790715Y-105763102D01*
D10*
X208439510Y-106138767D02*
X213103540Y-105004386D01*
D13*
X203934321Y-108984074D02*
X206314920Y-108405067D01*
D14*
X210929136Y-103680767D02*
X204418927Y-105264174D01*
D16*
X212154269Y-101736147D02*
X210939678Y-102031559D01*
D13*
X212850123Y-104808733D02*
X211575132Y-105067378D01*
D10*
X213103540Y-105004386D02*
X212252754Y-101506363D01*
D12*
X207956309Y-105844630D02*
G75*
G03*
X206246724Y-108193726I449674J-2123890D01*
G01*
D10*
X204285035Y-103444262D02*
G75*
G03*
X202693548Y-105786735I375491J-1966979D01*
G01*
X208439510Y-106138768D02*
G75*
G03*
X206729925Y-108487864I449674J-2123890D01*
G01*
D13*
%TO.C,MX43*%
X239848328Y-95543819D02*
X242228927Y-94964812D01*
D18*
X238858337Y-92954434D02*
X238704722Y-92322847D01*
D10*
X249017547Y-91564131D02*
X248166761Y-88066108D01*
D15*
X240194018Y-91548960D02*
X240723395Y-93725508D01*
D10*
X238649593Y-91461475D02*
X239701259Y-95785420D01*
X248761784Y-90597184D02*
X248230043Y-88410920D01*
D17*
X239923180Y-95216868D02*
X239497787Y-93467858D01*
D10*
X238607555Y-92346479D02*
X238784802Y-93075234D01*
X239701259Y-95785420D02*
X242645428Y-95069342D01*
X244353517Y-92698512D02*
X249017547Y-91564131D01*
D16*
X248068276Y-88295892D02*
X246853685Y-88591304D01*
D14*
X246843143Y-90240512D02*
X240332934Y-91823919D01*
D10*
X238784802Y-93075234D02*
X238979137Y-93027968D01*
D13*
X248764130Y-91368478D02*
X247489139Y-91627123D01*
D10*
X248166761Y-88066108D02*
X240199042Y-90004009D01*
D12*
X247822722Y-88767276D02*
X248413546Y-91196459D01*
D10*
X240199042Y-90004007D02*
G75*
G03*
X238607555Y-92346480I375491J-1966979D01*
G01*
D12*
X243870316Y-92404375D02*
G75*
G03*
X242160731Y-94753471I449674J-2123890D01*
G01*
D10*
X244353517Y-92698513D02*
G75*
G03*
X242643932Y-95047609I449674J-2123890D01*
G01*
D13*
%TO.C,MX27*%
X152596912Y-162264695D02*
X154286480Y-160490474D01*
D10*
X155551554Y-151476619D02*
X149896673Y-157414829D01*
D17*
X152483103Y-161949184D02*
X151179595Y-160707869D01*
D13*
X157839606Y-153931679D02*
X156906892Y-154838621D01*
D10*
X157420608Y-153284113D02*
X155791221Y-151732469D01*
X149381258Y-159478647D02*
X152603823Y-162547454D01*
D12*
X155641247Y-152252476D02*
X157451677Y-153976525D01*
D10*
X149824399Y-160245866D02*
X150367528Y-160763081D01*
D16*
X155592945Y-151723169D02*
X154730921Y-152628383D01*
D10*
X152603823Y-162547454D02*
X154693370Y-160353213D01*
D18*
X150364073Y-160621702D02*
X149893361Y-160173449D01*
D15*
X150727772Y-158717201D02*
X152349917Y-160261949D01*
D10*
X150367528Y-160763081D02*
X150505452Y-160618246D01*
D14*
X155613748Y-154021443D02*
X150993297Y-158873395D01*
D10*
X158158572Y-153959249D02*
X155551554Y-151476619D01*
X154848399Y-157435274D02*
X158158572Y-153959249D01*
D12*
X154282883Y-157449096D02*
G75*
G03*
X154114844Y-160349560I1526625J-1543545D01*
G01*
D10*
X149896673Y-157414829D02*
G75*
G03*
X149824400Y-160245867I1379382J-1451655D01*
G01*
X154848399Y-157435274D02*
G75*
G03*
X154680360Y-160335740I1526626J-1543546D01*
G01*
D11*
%TO.C,D28*%
X159468381Y-142804173D02*
X159857050Y-142898705D01*
X156256589Y-141199681D02*
X155878462Y-142754358D01*
X159657444Y-142026834D02*
X156256589Y-141199681D01*
X155878462Y-142754358D02*
X159279317Y-143581511D01*
X159279317Y-143581511D02*
X159657444Y-142026834D01*
X159171608Y-141908670D02*
X158793481Y-143463347D01*
X156067525Y-141977020D02*
X155678856Y-141882488D01*
%TO.C,D11*%
X146774198Y-75933930D02*
X146385529Y-75839398D01*
X150364117Y-75983744D02*
X146963262Y-75156591D01*
X146585135Y-76711268D02*
X149985990Y-77538421D01*
X149985990Y-77538421D02*
X150364117Y-75983744D01*
X149878281Y-75865580D02*
X149500154Y-77420257D01*
X146963262Y-75156591D02*
X146585135Y-76711268D01*
X150175054Y-76761083D02*
X150563723Y-76855615D01*
%TO.C,D54*%
X212005360Y-147935309D02*
X211616691Y-148029841D01*
X215595279Y-147885495D02*
X215217152Y-146330818D01*
X212194424Y-148712648D02*
X215595279Y-147885495D01*
X214731316Y-146448982D02*
X215109443Y-148003659D01*
X211816297Y-147157971D02*
X212194424Y-148712648D01*
X215217152Y-146330818D02*
X211816297Y-147157971D01*
X215406216Y-147108156D02*
X215794885Y-147013624D01*
%TO.C,D40*%
X299987234Y-60623318D02*
X300365361Y-62177995D01*
X297072215Y-61332307D02*
X297450342Y-62886984D01*
X297450342Y-62886984D02*
X300851197Y-62059831D01*
X300851197Y-62059831D02*
X300473070Y-60505154D01*
X300662134Y-61282492D02*
X301050803Y-61187960D01*
X300473070Y-60505154D02*
X297072215Y-61332307D01*
X297261278Y-62109645D02*
X296872609Y-62204177D01*
%TO.C,D24*%
X158720851Y-119579629D02*
X158342724Y-121134306D01*
X155616768Y-119647979D02*
X155228099Y-119553447D01*
X155427705Y-120425317D02*
X158828560Y-121252470D01*
X159017624Y-120475132D02*
X159406293Y-120569664D01*
X159206687Y-119697793D02*
X155805832Y-118870640D01*
X155805832Y-118870640D02*
X155427705Y-120425317D01*
X158828560Y-121252470D02*
X159206687Y-119697793D01*
%TO.C,D29*%
X203508871Y-79683920D02*
X203120202Y-79778452D01*
X206720663Y-78079429D02*
X203319808Y-78906582D01*
X203319808Y-78906582D02*
X203697935Y-80461259D01*
X207098790Y-79634106D02*
X206720663Y-78079429D01*
X206234827Y-78197593D02*
X206612954Y-79752270D01*
X206909727Y-78856767D02*
X207298396Y-78762235D01*
X203697935Y-80461259D02*
X207098790Y-79634106D01*
%TO.C,D8*%
X89913497Y-67894336D02*
X93314352Y-68721489D01*
X90291624Y-66339659D02*
X89913497Y-67894336D01*
X93314352Y-68721489D02*
X93692479Y-67166812D01*
X90102560Y-67116998D02*
X89713891Y-67022466D01*
X93503416Y-67944151D02*
X93892085Y-68038683D01*
X93206643Y-67048648D02*
X92828516Y-68603325D01*
X93692479Y-67166812D02*
X90291624Y-66339659D01*
%TO.C,D37*%
X243261182Y-67100841D02*
X239860327Y-67927994D01*
X240049390Y-68705332D02*
X239660721Y-68799864D01*
X240238454Y-69482671D02*
X243639309Y-68655518D01*
X242775346Y-67219005D02*
X243153473Y-68773682D01*
X243639309Y-68655518D02*
X243261182Y-67100841D01*
X243450246Y-67878179D02*
X243838915Y-67783647D01*
X239860327Y-67927994D02*
X240238454Y-69482671D01*
%TO.C,D43*%
X248206459Y-103318050D02*
X247817790Y-103412582D01*
X251796378Y-103268236D02*
X251418251Y-101713559D01*
X248395523Y-104095389D02*
X251796378Y-103268236D01*
X248017396Y-102540712D02*
X248395523Y-104095389D01*
X251607315Y-102490897D02*
X251995984Y-102396365D01*
X250932415Y-101831723D02*
X251310542Y-103386400D01*
X251418251Y-101713559D02*
X248017396Y-102540712D01*
%TO.C,D49*%
X248995800Y-106563440D02*
X252396655Y-105736287D01*
X248617673Y-105008763D02*
X248995800Y-106563440D01*
X252018528Y-104181610D02*
X248617673Y-105008763D01*
X252207592Y-104958948D02*
X252596261Y-104864416D01*
X252396655Y-105736287D02*
X252018528Y-104181610D01*
X248806736Y-105786101D02*
X248418067Y-105880633D01*
X251532692Y-104299774D02*
X251910819Y-105854451D01*
%TO.C,D12*%
X168334239Y-82707062D02*
X164933384Y-81879909D01*
X168145176Y-83484401D02*
X168533845Y-83578933D01*
X167956112Y-84261739D02*
X168334239Y-82707062D01*
X167848403Y-82588898D02*
X167470276Y-84143575D01*
X164744320Y-82657248D02*
X164355651Y-82562716D01*
X164933384Y-81879909D02*
X164555257Y-83434586D01*
X164555257Y-83434586D02*
X167956112Y-84261739D01*
%TO.C,D47*%
X216703216Y-119122899D02*
X216325089Y-117568222D01*
X216325089Y-117568222D02*
X212924234Y-118395375D01*
X216514153Y-118345560D02*
X216902822Y-118251028D01*
X213302361Y-119950052D02*
X216703216Y-119122899D01*
X215839253Y-117686386D02*
X216217380Y-119241063D01*
X212924234Y-118395375D02*
X213302361Y-119950052D01*
X213113297Y-119172713D02*
X212724628Y-119267245D01*
%TO.C,D23*%
X156217044Y-117179930D02*
X155828375Y-117085398D01*
X159428836Y-118784421D02*
X159806963Y-117229744D01*
X156406108Y-116402591D02*
X156027981Y-117957268D01*
X159806963Y-117229744D02*
X156406108Y-116402591D01*
X159321127Y-117111580D02*
X158943000Y-118666257D01*
X159617900Y-118007083D02*
X160006569Y-118101615D01*
X156027981Y-117957268D02*
X159428836Y-118784421D01*
%TO.C,D39*%
X281476862Y-65125393D02*
X281854989Y-66680070D01*
X282340825Y-66561906D02*
X281962698Y-65007229D01*
X282151762Y-65784567D02*
X282540431Y-65690035D01*
X278561843Y-65834382D02*
X278939970Y-67389059D01*
X278939970Y-67389059D02*
X282340825Y-66561906D01*
X278750906Y-66611720D02*
X278362237Y-66706252D01*
X281962698Y-65007229D02*
X278561843Y-65834382D01*
%TO.C,D55*%
X230688262Y-136856151D02*
X231076931Y-136761619D01*
X230877325Y-137633490D02*
X230499198Y-136078813D01*
X227476470Y-138460643D02*
X230877325Y-137633490D01*
X227098343Y-136905966D02*
X227476470Y-138460643D01*
X227287406Y-137683304D02*
X226898737Y-137777836D01*
X230499198Y-136078813D02*
X227098343Y-136905966D01*
X230013362Y-136196977D02*
X230391489Y-137751654D01*
%TO.C,D50*%
X268233197Y-103975773D02*
X271634052Y-103148620D01*
X267855070Y-102421096D02*
X268233197Y-103975773D01*
X268044133Y-103198434D02*
X267655464Y-103292966D01*
X270770089Y-101712107D02*
X271148216Y-103266784D01*
X271444989Y-102371281D02*
X271833658Y-102276749D01*
X271634052Y-103148620D02*
X271255925Y-101593943D01*
X271255925Y-101593943D02*
X267855070Y-102421096D01*
%TO.C,D16*%
X80662542Y-104855052D02*
X84063397Y-105682205D01*
X80851605Y-104077714D02*
X80462936Y-103983182D01*
X81040669Y-103300375D02*
X80662542Y-104855052D01*
X83955688Y-104009364D02*
X83577561Y-105564041D01*
X84441524Y-104127528D02*
X81040669Y-103300375D01*
X84063397Y-105682205D02*
X84441524Y-104127528D01*
X84252461Y-104904867D02*
X84641130Y-104999399D01*
%TO.C,D30*%
X225068910Y-72910787D02*
X224690783Y-71356110D01*
X224204947Y-71474274D02*
X224583074Y-73028951D01*
X224879847Y-72133448D02*
X225268516Y-72038916D01*
X221289928Y-72183263D02*
X221668055Y-73737940D01*
X224690783Y-71356110D02*
X221289928Y-72183263D01*
X221478991Y-72960601D02*
X221090322Y-73055133D01*
X221668055Y-73737940D02*
X225068910Y-72910787D01*
%TO.C,D31*%
X242849971Y-65410127D02*
X243238640Y-65315595D01*
X239260052Y-65459942D02*
X239638179Y-67014619D01*
X239449115Y-66237280D02*
X239060446Y-66331812D01*
X242660907Y-64632789D02*
X239260052Y-65459942D01*
X242175071Y-64750953D02*
X242553198Y-66305630D01*
X239638179Y-67014619D02*
X243039034Y-66187466D01*
X243039034Y-66187466D02*
X242660907Y-64632789D01*
%TO.C,D27*%
X151420687Y-146035809D02*
X151042560Y-147590486D01*
X151231623Y-146813148D02*
X150842954Y-146718616D01*
X154821542Y-146862962D02*
X151420687Y-146035809D01*
X154335706Y-146744798D02*
X153957579Y-148299475D01*
X151042560Y-147590486D02*
X154443415Y-148417639D01*
X154632479Y-147640301D02*
X155021148Y-147734833D01*
X154443415Y-148417639D02*
X154821542Y-146862962D01*
%TO.C,D26*%
X141130195Y-138905895D02*
X144531050Y-139733048D01*
X144423341Y-138060207D02*
X144045214Y-139614884D01*
X141508322Y-137351218D02*
X141130195Y-138905895D01*
X141319258Y-138128557D02*
X140930589Y-138034025D01*
X144909177Y-138178371D02*
X141508322Y-137351218D01*
X144720114Y-138955710D02*
X145108783Y-139050242D01*
X144531050Y-139733048D02*
X144909177Y-138178371D01*
%TO.C,D44*%
X267503884Y-100977193D02*
X267115215Y-101071725D01*
X270715676Y-99372702D02*
X267314821Y-100199855D01*
X267314821Y-100199855D02*
X267692948Y-101754532D01*
X267692948Y-101754532D02*
X271093803Y-100927379D01*
X271093803Y-100927379D02*
X270715676Y-99372702D01*
X270904740Y-100150040D02*
X271293409Y-100055508D01*
X270229840Y-99490866D02*
X270607967Y-101045543D01*
%TO.C,D41*%
X215724812Y-115100171D02*
X212323957Y-115927324D01*
X212702084Y-117482001D02*
X216102939Y-116654848D01*
X215238976Y-115218335D02*
X215617103Y-116773012D01*
X212513020Y-116704662D02*
X212124351Y-116799194D01*
X212323957Y-115927324D02*
X212702084Y-117482001D01*
X216102939Y-116654848D02*
X215724812Y-115100171D01*
X215913876Y-115877509D02*
X216302545Y-115782977D01*
%TO.C,D25*%
X126453219Y-131336887D02*
X126075092Y-132891564D01*
X126939055Y-131455051D02*
X123538200Y-130627898D01*
X123538200Y-130627898D02*
X123160073Y-132182575D01*
X123160073Y-132182575D02*
X126560928Y-133009728D01*
X126560928Y-133009728D02*
X126939055Y-131455051D01*
X123349136Y-131405237D02*
X122960467Y-131310705D01*
X126749992Y-132232390D02*
X127138661Y-132326922D01*
%TO.C,D42*%
X230483144Y-109981344D02*
X230094475Y-110075876D01*
X233209100Y-108495017D02*
X233587227Y-110049694D01*
X230672208Y-110758683D02*
X234073063Y-109931530D01*
X233884000Y-109154191D02*
X234272669Y-109059659D01*
X234073063Y-109931530D02*
X233694936Y-108376853D01*
X230294081Y-109204006D02*
X230672208Y-110758683D01*
X233694936Y-108376853D02*
X230294081Y-109204006D01*
%TO.C,D33*%
X281362422Y-62539177D02*
X277961567Y-63366330D01*
X280876586Y-62657341D02*
X281254713Y-64212018D01*
X277961567Y-63366330D02*
X278339694Y-64921007D01*
X281551486Y-63316515D02*
X281940155Y-63221983D01*
X281740549Y-64093854D02*
X281362422Y-62539177D01*
X278150630Y-64143668D02*
X277761961Y-64238200D01*
X278339694Y-64921007D02*
X281740549Y-64093854D01*
%TO.C,D10*%
X128869739Y-68403257D02*
X128491612Y-69957934D01*
X132081531Y-70007749D02*
X132470200Y-70102281D01*
X128680675Y-69180596D02*
X128292006Y-69086064D01*
X132270594Y-69230410D02*
X128869739Y-68403257D01*
X128491612Y-69957934D02*
X131892467Y-70785087D01*
X131892467Y-70785087D02*
X132270594Y-69230410D01*
X131784758Y-69112246D02*
X131406631Y-70666923D01*
%TO.C,D56*%
X248658382Y-130132828D02*
X249047051Y-130038296D01*
X247983482Y-129473654D02*
X248361609Y-131028331D01*
X248847445Y-130910167D02*
X248469318Y-129355490D01*
X245257526Y-130959981D02*
X244868857Y-131054513D01*
X248469318Y-129355490D02*
X245068463Y-130182643D01*
X245446590Y-131737320D02*
X248847445Y-130910167D01*
X245068463Y-130182643D02*
X245446590Y-131737320D01*
%TO.C,D38*%
X262311803Y-64820010D02*
X258910948Y-65647163D01*
X262689930Y-66374687D02*
X262311803Y-64820010D01*
X259289075Y-67201840D02*
X262689930Y-66374687D01*
X261825967Y-64938174D02*
X262204094Y-66492851D01*
X258910948Y-65647163D02*
X259289075Y-67201840D01*
X262500867Y-65597348D02*
X262889536Y-65502816D01*
X259100011Y-66424501D02*
X258711342Y-66519033D01*
%TO.C,D6*%
X165344597Y-80189203D02*
X164955928Y-80094671D01*
X165533661Y-79411864D02*
X165155534Y-80966541D01*
X168448680Y-80120853D02*
X168070553Y-81675530D01*
X168934516Y-80239017D02*
X165533661Y-79411864D01*
X165155534Y-80966541D02*
X168556389Y-81793694D01*
X168556389Y-81793694D02*
X168934516Y-80239017D01*
X168745453Y-81016356D02*
X169134122Y-81110888D01*
%TO.C,D17*%
X104314569Y-103026937D02*
X104692696Y-101472260D01*
X104503633Y-102249599D02*
X104892302Y-102344131D01*
X100913714Y-102199784D02*
X104314569Y-103026937D01*
X101291841Y-100645107D02*
X100913714Y-102199784D01*
X101102777Y-101422446D02*
X100714108Y-101327914D01*
X104692696Y-101472260D02*
X101291841Y-100645107D01*
X104206860Y-101354096D02*
X103828733Y-102908773D01*
%TO.C,D48*%
X233809374Y-110963064D02*
X234187501Y-112517741D01*
X231083418Y-112449391D02*
X230694749Y-112543923D01*
X231272482Y-113226730D02*
X234673337Y-112399577D01*
X234673337Y-112399577D02*
X234295210Y-110844900D01*
X230894355Y-111672053D02*
X231272482Y-113226730D01*
X234484274Y-111622238D02*
X234872943Y-111527706D01*
X234295210Y-110844900D02*
X230894355Y-111672053D01*
%TO.C,D2*%
X93806921Y-64580601D02*
X93428794Y-66135278D01*
X93914630Y-66253442D02*
X94292757Y-64698765D01*
X90891902Y-63871612D02*
X90513775Y-65426289D01*
X90513775Y-65426289D02*
X93914630Y-66253442D01*
X94103694Y-65476104D02*
X94492363Y-65570636D01*
X94292757Y-64698765D02*
X90891902Y-63871612D01*
X90702838Y-64648951D02*
X90314169Y-64554419D01*
%TO.C,D51*%
X287944120Y-104409800D02*
X291344975Y-103582647D01*
X287565993Y-102855123D02*
X287944120Y-104409800D01*
X290966848Y-102027970D02*
X287565993Y-102855123D01*
X290481012Y-102146134D02*
X290859139Y-103700811D01*
X287755056Y-103632461D02*
X287366387Y-103726993D01*
X291344975Y-103582647D02*
X290966848Y-102027970D01*
X291155912Y-102805308D02*
X291544581Y-102710776D01*
%TO.C,D22*%
X137712308Y-112117307D02*
X137334181Y-113671984D01*
X140924100Y-113721799D02*
X141312769Y-113816331D01*
X137334181Y-113671984D02*
X140735036Y-114499137D01*
X140627327Y-112826296D02*
X140249200Y-114380973D01*
X140735036Y-114499137D02*
X141113163Y-112944460D01*
X137523244Y-112894646D02*
X137134575Y-112800114D01*
X141113163Y-112944460D02*
X137712308Y-112117307D01*
%TO.C,D9*%
X109942522Y-66152441D02*
X109564395Y-67707118D01*
X109753458Y-66929780D02*
X109364789Y-66835248D01*
X113154314Y-67756933D02*
X113542983Y-67851465D01*
X109564395Y-67707118D02*
X112965250Y-68534271D01*
X112965250Y-68534271D02*
X113343377Y-66979594D01*
X113343377Y-66979594D02*
X109942522Y-66152441D01*
X112857541Y-66861430D02*
X112479414Y-68416107D01*
%TO.C,D36*%
X224805225Y-73942325D02*
X225183352Y-75497002D01*
X225480125Y-74601499D02*
X225868794Y-74506967D01*
X225291061Y-73824161D02*
X221890206Y-74651314D01*
X221890206Y-74651314D02*
X222268333Y-76205991D01*
X225669188Y-75378838D02*
X225291061Y-73824161D01*
X222268333Y-76205991D02*
X225669188Y-75378838D01*
X222079269Y-75428652D02*
X221690600Y-75523184D01*
%TO.C,D46*%
X309066009Y-95835183D02*
X309454678Y-95740651D01*
X308876945Y-95057845D02*
X305476090Y-95884998D01*
X309255072Y-96612522D02*
X308876945Y-95057845D01*
X305476090Y-95884998D02*
X305854217Y-97439675D01*
X308391109Y-95176009D02*
X308769236Y-96730686D01*
X305854217Y-97439675D02*
X309255072Y-96612522D01*
X305665153Y-96662336D02*
X305276484Y-96756868D01*
%TO.C,D1*%
X75782386Y-60196692D02*
X72381531Y-59369539D01*
X72003404Y-60924216D02*
X75404259Y-61751369D01*
X72381531Y-59369539D02*
X72003404Y-60924216D01*
X75593323Y-60974031D02*
X75981992Y-61068563D01*
X75404259Y-61751369D02*
X75782386Y-60196692D01*
X75296550Y-60078528D02*
X74918423Y-61633205D01*
X72192467Y-60146878D02*
X71803798Y-60052346D01*
%TO.C,D34*%
X299386956Y-58155268D02*
X299765083Y-59709945D01*
X300250919Y-59591781D02*
X299872792Y-58037104D01*
X299872792Y-58037104D02*
X296471937Y-58864257D01*
X296661000Y-59641595D02*
X296272331Y-59736127D01*
X300061856Y-58814442D02*
X300450525Y-58719910D01*
X296850064Y-60418934D02*
X300250919Y-59591781D01*
X296471937Y-58864257D02*
X296850064Y-60418934D01*
%TO.C,D21*%
X138312584Y-109649257D02*
X137934457Y-111203934D01*
X141335312Y-112031087D02*
X141713439Y-110476410D01*
X141227603Y-110358246D02*
X140849476Y-111912923D01*
X138123520Y-110426596D02*
X137734851Y-110332064D01*
X141713439Y-110476410D02*
X138312584Y-109649257D01*
X141524376Y-111253749D02*
X141913045Y-111348281D01*
X137934457Y-111203934D02*
X141335312Y-112031087D01*
%TO.C,D20*%
X122764912Y-107775816D02*
X123143039Y-106221139D01*
X123143039Y-106221139D02*
X119742184Y-105393986D01*
X119364057Y-106948663D02*
X122764912Y-107775816D01*
X122657203Y-106102975D02*
X122279076Y-107657652D01*
X119742184Y-105393986D02*
X119364057Y-106948663D01*
X119553120Y-106171325D02*
X119164451Y-106076793D01*
X122953976Y-106998478D02*
X123342645Y-107093010D01*
%TO.C,D45*%
X287343845Y-101941751D02*
X290744700Y-101114598D01*
X289880737Y-99678085D02*
X290258864Y-101232762D01*
X290366573Y-99559921D02*
X286965718Y-100387074D01*
X287154781Y-101164412D02*
X286766112Y-101258944D01*
X290744700Y-101114598D02*
X290366573Y-99559921D01*
X290555637Y-100337259D02*
X290944306Y-100242727D01*
X286965718Y-100387074D02*
X287343845Y-101941751D01*
%TO.C,D3*%
X113943654Y-64511546D02*
X110542799Y-63684393D01*
X113565527Y-66066223D02*
X113943654Y-64511546D01*
X113754591Y-65288885D02*
X114143260Y-65383417D01*
X113457818Y-64393382D02*
X113079691Y-65948059D01*
X110164672Y-65239070D02*
X113565527Y-66066223D01*
X110542799Y-63684393D02*
X110164672Y-65239070D01*
X110353735Y-64461732D02*
X109965066Y-64367200D01*
%TO.C,D14*%
X65553026Y-101180127D02*
X65931153Y-99625450D01*
X65742090Y-100402789D02*
X66130759Y-100497321D01*
X65445317Y-99507286D02*
X65067190Y-101061963D01*
X62530298Y-98798297D02*
X62152171Y-100352974D01*
X62341234Y-99575636D02*
X61952565Y-99481104D01*
X62152171Y-100352974D02*
X65553026Y-101180127D01*
X65931153Y-99625450D02*
X62530298Y-98798297D01*
%TO.C,D32*%
X261225689Y-62470125D02*
X261603816Y-64024802D01*
X258499733Y-63956452D02*
X258111064Y-64050984D01*
X262089652Y-63906638D02*
X261711525Y-62351961D01*
X258688797Y-64733791D02*
X262089652Y-63906638D01*
X258310670Y-63179114D02*
X258688797Y-64733791D01*
X261900589Y-63129299D02*
X262289258Y-63034767D01*
X261711525Y-62351961D02*
X258310670Y-63179114D01*
%TO.C,D52*%
X306454490Y-99907725D02*
X309855345Y-99080572D01*
X306265426Y-99130386D02*
X305876757Y-99224918D01*
X309477218Y-97525895D02*
X306076363Y-98353048D01*
X309855345Y-99080572D02*
X309477218Y-97525895D01*
X309666282Y-98303233D02*
X310054951Y-98208701D01*
X308991382Y-97644059D02*
X309369509Y-99198736D01*
X306076363Y-98353048D02*
X306454490Y-99907725D01*
%TO.C,D19*%
X123365191Y-105307768D02*
X123743318Y-103753091D01*
X123743318Y-103753091D02*
X120342463Y-102925938D01*
X120342463Y-102925938D02*
X119964336Y-104480615D01*
X123257482Y-103634927D02*
X122879355Y-105189604D01*
X119964336Y-104480615D02*
X123365191Y-105307768D01*
X120153399Y-103703277D02*
X119764730Y-103608745D01*
X123554255Y-104530430D02*
X123942924Y-104624962D01*
%TO.C,D13*%
X66153304Y-98712080D02*
X66531431Y-97157403D01*
X62752449Y-97884927D02*
X66153304Y-98712080D01*
X66342368Y-97934742D02*
X66731037Y-98029274D01*
X66045595Y-97039239D02*
X65667468Y-98593916D01*
X62941512Y-97107589D02*
X62552843Y-97013057D01*
X66531431Y-97157403D02*
X63130576Y-96330250D01*
X63130576Y-96330250D02*
X62752449Y-97884927D01*
%TO.C,D53*%
X211132930Y-142435704D02*
X210754803Y-140881027D01*
X210754803Y-140881027D02*
X207353948Y-141708180D01*
X207543011Y-142485518D02*
X207154342Y-142580050D01*
X207353948Y-141708180D02*
X207732075Y-143262857D01*
X207732075Y-143262857D02*
X211132930Y-142435704D01*
X210268967Y-140999191D02*
X210647094Y-142553868D01*
X210943867Y-141658365D02*
X211332536Y-141563833D01*
%TO.C,D5*%
X147563540Y-72688544D02*
X147185413Y-74243221D01*
X150775332Y-74293036D02*
X151164001Y-74387568D01*
X147374476Y-73465883D02*
X146985807Y-73371351D01*
X150586268Y-75070374D02*
X150964395Y-73515697D01*
X150964395Y-73515697D02*
X147563540Y-72688544D01*
X150478559Y-73397533D02*
X150100432Y-74952210D01*
X147185413Y-74243221D02*
X150586268Y-75070374D01*
%TO.C,D18*%
X103714295Y-105494985D02*
X104092422Y-103940308D01*
X103606586Y-103822144D02*
X103228459Y-105376821D01*
X100313440Y-104667832D02*
X103714295Y-105494985D01*
X100691567Y-103113155D02*
X100313440Y-104667832D01*
X100502503Y-103890494D02*
X100113834Y-103795962D01*
X103903359Y-104717647D02*
X104292028Y-104812179D01*
X104092422Y-103940308D02*
X100691567Y-103113155D01*
%TO.C,D15*%
X84663675Y-103214155D02*
X85041802Y-101659478D01*
X81640947Y-100832325D02*
X81262820Y-102387002D01*
X84852739Y-102436817D02*
X85241408Y-102531349D01*
X85041802Y-101659478D02*
X81640947Y-100832325D01*
X81451883Y-101609664D02*
X81063214Y-101515132D01*
X81262820Y-102387002D02*
X84663675Y-103214155D01*
X84555966Y-101541314D02*
X84177839Y-103095991D01*
%TO.C,D4*%
X129470016Y-65935210D02*
X129091889Y-67489887D01*
X132492744Y-68317040D02*
X132870871Y-66762363D01*
X132870871Y-66762363D02*
X129470016Y-65935210D01*
X132681808Y-67539702D02*
X133070477Y-67634234D01*
X129091889Y-67489887D02*
X132492744Y-68317040D01*
X132385035Y-66644199D02*
X132006908Y-68198876D01*
X129280952Y-66712549D02*
X128892283Y-66618017D01*
%TO.C,D7*%
X71781254Y-61837585D02*
X71403127Y-63392262D01*
X74696273Y-62546574D02*
X74318146Y-64101251D01*
X74803982Y-64219415D02*
X75182109Y-62664738D01*
X74993046Y-63442077D02*
X75381715Y-63536609D01*
X71592190Y-62614924D02*
X71203521Y-62520392D01*
X71403127Y-63392262D02*
X74803982Y-64219415D01*
X75182109Y-62664738D02*
X71781254Y-61837585D01*
%TO.C,D35*%
X207699066Y-82102158D02*
X207320939Y-80547481D01*
X206835103Y-80665645D02*
X207213230Y-82220322D01*
X207320939Y-80547481D02*
X203920084Y-81374634D01*
X204298211Y-82929311D02*
X207699066Y-82102158D01*
X203920084Y-81374634D02*
X204298211Y-82929311D01*
X204109147Y-82151972D02*
X203720478Y-82246504D01*
X207510003Y-81324819D02*
X207898672Y-81230287D01*
%TD*%
D20*
%TO.C,U1*%
X175768016Y-91959267D03*
D21*
X175768016Y-94499267D03*
X175768016Y-97039267D03*
X175768016Y-99579267D03*
X175768016Y-102119267D03*
X175768016Y-104659267D03*
X175768016Y-107199267D03*
X175768016Y-109739267D03*
X175768016Y-112279267D03*
X175768016Y-114819267D03*
X175768016Y-117359267D03*
X175996616Y-119899267D03*
X191008016Y-119899267D03*
X191008016Y-117359267D03*
X191008016Y-114819267D03*
X191008016Y-112279267D03*
X191008016Y-109739267D03*
X191008016Y-107199267D03*
X191008016Y-104659267D03*
X191008016Y-102119267D03*
X191008016Y-99579267D03*
X191008016Y-97039267D03*
X191008016Y-94499267D03*
X191008016Y-91959267D03*
X178308016Y-119899267D03*
X180848016Y-119899267D03*
X183388016Y-119899267D03*
X185928016Y-119899267D03*
X188468016Y-119899267D03*
%TD*%
D22*
%TO.C,D28*%
X160828723Y-143135034D03*
D23*
X154658599Y-141634342D03*
%TD*%
D22*
%TO.C,D11*%
X151535396Y-77091944D03*
D23*
X145365272Y-75591252D03*
%TD*%
D24*
%TO.C,D54*%
X216766558Y-146777295D03*
D23*
X210596434Y-148277987D03*
%TD*%
D24*
%TO.C,D40*%
X302022476Y-60951631D03*
D23*
X295852352Y-62452323D03*
%TD*%
D22*
%TO.C,D24*%
X160377966Y-120805993D03*
D23*
X154207842Y-119305301D03*
%TD*%
D24*
%TO.C,D29*%
X208270069Y-78525906D03*
D23*
X202099945Y-80026598D03*
%TD*%
D22*
%TO.C,D8*%
X94863758Y-68275012D03*
D23*
X88693634Y-66774320D03*
%TD*%
D24*
%TO.C,D37*%
X244810588Y-67547318D03*
D23*
X238640464Y-69048010D03*
%TD*%
D24*
%TO.C,D43*%
X252967657Y-102160036D03*
D23*
X246797533Y-103660728D03*
%TD*%
D24*
%TO.C,D49*%
X253567934Y-104628087D03*
D23*
X247397810Y-106128779D03*
%TD*%
D22*
%TO.C,D12*%
X169505518Y-83815262D03*
D23*
X163335394Y-82314570D03*
%TD*%
D24*
%TO.C,D47*%
X217874495Y-118014699D03*
D23*
X211704371Y-119515391D03*
%TD*%
D22*
%TO.C,D23*%
X160978242Y-118337944D03*
D23*
X154808118Y-116837252D03*
%TD*%
D24*
%TO.C,D39*%
X283512104Y-65453706D03*
D23*
X277341980Y-66954398D03*
%TD*%
D24*
%TO.C,D55*%
X232048604Y-136525290D03*
D23*
X225878480Y-138025982D03*
%TD*%
D24*
%TO.C,D50*%
X272805331Y-102040420D03*
D23*
X266635207Y-103541112D03*
%TD*%
D22*
%TO.C,D16*%
X85612803Y-105235728D03*
D23*
X79442679Y-103735036D03*
%TD*%
D24*
%TO.C,D30*%
X226240189Y-71802587D03*
D23*
X220070065Y-73303279D03*
%TD*%
D24*
%TO.C,D31*%
X244210313Y-65079266D03*
D23*
X238040189Y-66579958D03*
%TD*%
D22*
%TO.C,D27*%
X155992821Y-147971162D03*
D23*
X149822697Y-146470470D03*
%TD*%
D22*
%TO.C,D26*%
X146080456Y-139286571D03*
D23*
X139910332Y-137785879D03*
%TD*%
D24*
%TO.C,D44*%
X272265082Y-99819179D03*
D23*
X266094958Y-101319871D03*
%TD*%
D24*
%TO.C,D41*%
X217274218Y-115546648D03*
D23*
X211104094Y-117047340D03*
%TD*%
D22*
%TO.C,D25*%
X128110334Y-132563251D03*
D23*
X121940210Y-131062559D03*
%TD*%
D24*
%TO.C,D42*%
X235244342Y-108823330D03*
D23*
X229074218Y-110324022D03*
%TD*%
D24*
%TO.C,D33*%
X282911828Y-62985654D03*
D23*
X276741704Y-64486346D03*
%TD*%
D22*
%TO.C,D10*%
X133441873Y-70338610D03*
D23*
X127271749Y-68837918D03*
%TD*%
D24*
%TO.C,D56*%
X250018724Y-129801967D03*
D23*
X243848600Y-131302659D03*
%TD*%
D24*
%TO.C,D38*%
X263861209Y-65266487D03*
D23*
X257691085Y-66767179D03*
%TD*%
D22*
%TO.C,D6*%
X170105795Y-81347217D03*
D23*
X163935671Y-79846525D03*
%TD*%
D22*
%TO.C,D17*%
X105863975Y-102580460D03*
D23*
X99693851Y-101079768D03*
%TD*%
D24*
%TO.C,D48*%
X235844616Y-111291377D03*
D23*
X229674492Y-112792069D03*
%TD*%
D22*
%TO.C,D2*%
X95464036Y-65806965D03*
D23*
X89293912Y-64306273D03*
%TD*%
D24*
%TO.C,D51*%
X292516254Y-102474447D03*
D23*
X286346130Y-103975139D03*
%TD*%
D22*
%TO.C,D22*%
X142284442Y-114052660D03*
D23*
X136114318Y-112551968D03*
%TD*%
D22*
%TO.C,D9*%
X114514656Y-68087794D03*
D23*
X108344532Y-66587102D03*
%TD*%
D24*
%TO.C,D36*%
X226840467Y-74270638D03*
D23*
X220670343Y-75771330D03*
%TD*%
D24*
%TO.C,D46*%
X310426351Y-95504322D03*
D23*
X304256227Y-97005014D03*
%TD*%
D22*
%TO.C,D1*%
X76953665Y-61304892D03*
D23*
X70783541Y-59804200D03*
%TD*%
D24*
%TO.C,D34*%
X301422198Y-58483581D03*
D23*
X295252074Y-59984273D03*
%TD*%
D22*
%TO.C,D21*%
X142884718Y-111584610D03*
D23*
X136714594Y-110083918D03*
%TD*%
D22*
%TO.C,D20*%
X124314318Y-107329339D03*
D23*
X118144194Y-105828647D03*
%TD*%
D24*
%TO.C,D45*%
X291915979Y-100006398D03*
D23*
X285745855Y-101507090D03*
%TD*%
D22*
%TO.C,D3*%
X115114933Y-65619746D03*
D23*
X108944809Y-64119054D03*
%TD*%
D22*
%TO.C,D14*%
X67102432Y-100733650D03*
D23*
X60932308Y-99232958D03*
%TD*%
D24*
%TO.C,D32*%
X263260931Y-62798438D03*
D23*
X257090807Y-64299130D03*
%TD*%
D24*
%TO.C,D52*%
X311026624Y-97972372D03*
D23*
X304856500Y-99473064D03*
%TD*%
D22*
%TO.C,D19*%
X124914597Y-104861291D03*
D23*
X118744473Y-103360599D03*
%TD*%
D22*
%TO.C,D13*%
X67702710Y-98265603D03*
D23*
X61532586Y-96764911D03*
%TD*%
D24*
%TO.C,D53*%
X212304209Y-141327504D03*
D23*
X206134085Y-142828196D03*
%TD*%
D22*
%TO.C,D5*%
X152135674Y-74623897D03*
D23*
X145965550Y-73123205D03*
%TD*%
D22*
%TO.C,D18*%
X105263701Y-105048508D03*
D23*
X99093577Y-103547816D03*
%TD*%
D22*
%TO.C,D15*%
X86213081Y-102767678D03*
D23*
X80042957Y-101266986D03*
%TD*%
D22*
%TO.C,D4*%
X134042150Y-67870563D03*
D23*
X127872026Y-66369871D03*
%TD*%
D22*
%TO.C,D7*%
X76353388Y-63772938D03*
D23*
X70183264Y-62272246D03*
%TD*%
D24*
%TO.C,D35*%
X208870345Y-80993958D03*
D23*
X202700221Y-82494650D03*
%TD*%
%LPC*%
D25*
%TO.C,MX29*%
X201800513Y-66402141D03*
X196230666Y-70370883D03*
D26*
X205469116Y-70737964D03*
X195596918Y-73139070D03*
D27*
X200533017Y-71938517D03*
D28*
X193048437Y-71144861D03*
D29*
X205008977Y-65621782D03*
%TD*%
D25*
%TO.C,MX55*%
X229532324Y-140474797D03*
D27*
X228264828Y-146011173D03*
D26*
X223328729Y-147211726D03*
D25*
X223962477Y-144443539D03*
D26*
X233200927Y-144810620D03*
D29*
X220780248Y-145217517D03*
X232740788Y-139694438D03*
%TD*%
D27*
%TO.C,MX36*%
X223005215Y-83725568D03*
D26*
X227941314Y-82525015D03*
X218069116Y-84926121D03*
D25*
X218702864Y-82157934D03*
X224272711Y-78189192D03*
D28*
X215520635Y-82931912D03*
D29*
X227481175Y-77408833D03*
%TD*%
D30*
%TO.C,SW1*%
X201599792Y-53000442D03*
X195148242Y-53792592D03*
%TD*%
D25*
%TO.C,MX18*%
X154045801Y-105590794D03*
D26*
X162083697Y-110159811D03*
X152211499Y-107758705D03*
D27*
X157147598Y-108959258D03*
D25*
X160816201Y-104623436D03*
D31*
X150863572Y-104816815D03*
X164024665Y-105403796D03*
%TD*%
D25*
%TO.C,MX14*%
X79404039Y-90050538D03*
X86174439Y-89083180D03*
D27*
X82505836Y-93419002D03*
D26*
X87441935Y-94619555D03*
X77569737Y-92218449D03*
D31*
X76221810Y-89276559D03*
X89382903Y-89863540D03*
%TD*%
D25*
%TO.C,MX2*%
X88408189Y-53029801D03*
D26*
X96446085Y-57598818D03*
D27*
X91509986Y-56398265D03*
D25*
X95178589Y-52062443D03*
D26*
X86573887Y-55197712D03*
D31*
X85225960Y-52255822D03*
X98387053Y-52842803D03*
%TD*%
D27*
%TO.C,MX44*%
X264528030Y-93231787D03*
D26*
X259591931Y-94432340D03*
X269464129Y-92031234D03*
D25*
X260225679Y-91664153D03*
X265795526Y-87695411D03*
D28*
X257043450Y-92438131D03*
D29*
X269003990Y-86915052D03*
%TD*%
D26*
%TO.C,MX3*%
X116096983Y-57411599D03*
D25*
X114829487Y-51875224D03*
D27*
X111160884Y-56211046D03*
D26*
X106224785Y-55010493D03*
D25*
X108059087Y-52842582D03*
D31*
X104876858Y-52068603D03*
X118037951Y-52655584D03*
%TD*%
D27*
%TO.C,MX54*%
X209387998Y-159214464D03*
D25*
X214818425Y-157550593D03*
D26*
X212891265Y-162893257D03*
D25*
X208599944Y-154703736D03*
D26*
X205884731Y-155535671D03*
D32*
X206341440Y-152332073D03*
X217095548Y-159941809D03*
%TD*%
D25*
%TO.C,MX8*%
X90676514Y-70572811D03*
X83906114Y-71540169D03*
D26*
X91944010Y-76109186D03*
X82071812Y-73708080D03*
D27*
X87007911Y-74908633D03*
D31*
X80723885Y-70766190D03*
X93884978Y-71353171D03*
%TD*%
D26*
%TO.C,MX25*%
X115513714Y-138087297D03*
D27*
X120449813Y-139287850D03*
D26*
X125385912Y-140488403D03*
D25*
X117348016Y-135919386D03*
X124118416Y-134952028D03*
D31*
X114165788Y-135145407D03*
X127326880Y-135732388D03*
%TD*%
D26*
%TO.C,MX1*%
X68063516Y-50695636D03*
D25*
X76668218Y-47560367D03*
D26*
X77935714Y-53096742D03*
D27*
X72999615Y-51896189D03*
D25*
X69897818Y-48527725D03*
D31*
X66715590Y-47753746D03*
X79876682Y-48340727D03*
%TD*%
D27*
%TO.C,MX22*%
X116705276Y-114022989D03*
D25*
X120373879Y-109687167D03*
D26*
X111769177Y-112822436D03*
D25*
X113603479Y-110654525D03*
D26*
X121641375Y-115223542D03*
D31*
X110421250Y-109880546D03*
X123582343Y-110467527D03*
%TD*%
D25*
%TO.C,MX21*%
X94552860Y-108373690D03*
D27*
X97654657Y-111742154D03*
D25*
X101323260Y-107406332D03*
D26*
X102590756Y-112942707D03*
X92718558Y-110541601D03*
D31*
X91370631Y-107599711D03*
X104531724Y-108186692D03*
%TD*%
D26*
%TO.C,MX49*%
X254889349Y-112828817D03*
D27*
X249953250Y-114029370D03*
D25*
X245650899Y-112461736D03*
D26*
X245017151Y-115229923D03*
D25*
X251220746Y-108492994D03*
D28*
X242468670Y-113235714D03*
D29*
X254429210Y-107712635D03*
%TD*%
D26*
%TO.C,MX24*%
X147709421Y-126269074D03*
X157581619Y-128670180D03*
D27*
X152645520Y-127469627D03*
D25*
X156314123Y-123133805D03*
X149543723Y-124101163D03*
D31*
X146361494Y-123327184D03*
X159522587Y-123914165D03*
%TD*%
D26*
%TO.C,MX31*%
X241383122Y-57297703D03*
D25*
X232144672Y-56930622D03*
D26*
X231510924Y-59698809D03*
D25*
X237714519Y-52961880D03*
D27*
X236447023Y-58498256D03*
D28*
X228962443Y-57704600D03*
D29*
X240922983Y-52181521D03*
%TD*%
D27*
%TO.C,MX53*%
X196250746Y-145418990D03*
D25*
X201681173Y-143755119D03*
D26*
X199754013Y-149097783D03*
D25*
X195462692Y-140908262D03*
D26*
X192747479Y-141740197D03*
D32*
X193204188Y-138536599D03*
X203958296Y-146146335D03*
%TD*%
D25*
%TO.C,MX38*%
X261293450Y-69185037D03*
X255723603Y-73153779D03*
D26*
X264962053Y-73520860D03*
D27*
X260025954Y-74721413D03*
D26*
X255089855Y-75921966D03*
D28*
X252541374Y-73927757D03*
D29*
X264501914Y-68404678D03*
%TD*%
D27*
%TO.C,MX17*%
X139177475Y-102235935D03*
D26*
X144113574Y-103436488D03*
D25*
X136075678Y-98867471D03*
X142846078Y-97900113D03*
D26*
X134241376Y-101035382D03*
D31*
X132893449Y-98093492D03*
X146054542Y-98680473D03*
%TD*%
D27*
%TO.C,MX6*%
X166151745Y-71938517D03*
D26*
X161215646Y-70737964D03*
X171087844Y-73139070D03*
D25*
X169820348Y-67602695D03*
X163049948Y-68570053D03*
D31*
X159867719Y-67796074D03*
X173028812Y-68383055D03*
%TD*%
D25*
%TO.C,MX12*%
X158547873Y-87080423D03*
X165318273Y-86113065D03*
D26*
X156713571Y-89248334D03*
X166585769Y-91649440D03*
D27*
X161649670Y-90448887D03*
D31*
X155365644Y-86306444D03*
X168526737Y-86893425D03*
%TD*%
D25*
%TO.C,MX42*%
X223204938Y-100668304D03*
D26*
X232443388Y-101035385D03*
D27*
X227507289Y-102235938D03*
D26*
X222571190Y-103436491D03*
D25*
X228774785Y-96699562D03*
D28*
X220022709Y-101442282D03*
D29*
X231983249Y-95919203D03*
%TD*%
D25*
%TO.C,MX35*%
X200732740Y-88881253D03*
D26*
X200098992Y-91649440D03*
D27*
X205035091Y-90448887D03*
D25*
X206302587Y-84912511D03*
D26*
X209971190Y-89248334D03*
D28*
X197550511Y-89655231D03*
D29*
X209511051Y-84132152D03*
%TD*%
D26*
%TO.C,MX32*%
X250587778Y-57411597D03*
D25*
X256791373Y-50674668D03*
D26*
X260459976Y-55010491D03*
D25*
X251221526Y-54643410D03*
D27*
X255523877Y-56211044D03*
D28*
X248039297Y-55417388D03*
D29*
X259999837Y-49894309D03*
%TD*%
D26*
%TO.C,MX5*%
X143245524Y-64014643D03*
X153117722Y-66415749D03*
D27*
X148181623Y-65215196D03*
D25*
X151850226Y-60879374D03*
X145079826Y-61846732D03*
D31*
X141897597Y-61072753D03*
X155058690Y-61659734D03*
%TD*%
D26*
%TO.C,MX46*%
X297753197Y-90117480D03*
D27*
X302689296Y-88916927D03*
D25*
X298386945Y-87349293D03*
X303956792Y-83380551D03*
D26*
X307625395Y-87716374D03*
D28*
X295204716Y-88123271D03*
D29*
X307165256Y-82600192D03*
%TD*%
D26*
%TO.C,MX11*%
X148615648Y-84926121D03*
D25*
X140577752Y-80357104D03*
D27*
X143679549Y-83725568D03*
D26*
X138743450Y-82525015D03*
D25*
X147348152Y-79389746D03*
D31*
X137395523Y-79583125D03*
X150556616Y-80170106D03*
%TD*%
D25*
%TO.C,MX51*%
X284378652Y-110361741D03*
D26*
X293617102Y-110728822D03*
D27*
X288681003Y-111929375D03*
D25*
X289948499Y-106392999D03*
D26*
X283744904Y-113129928D03*
D28*
X281196423Y-111135719D03*
D29*
X293156963Y-105612640D03*
%TD*%
D25*
%TO.C,MX10*%
X122607628Y-73633784D03*
D26*
X130645524Y-78202801D03*
D27*
X125709425Y-77002248D03*
D26*
X120773326Y-75801695D03*
D25*
X129378028Y-72666426D03*
D31*
X119425399Y-72859805D03*
X132586492Y-73446786D03*
%TD*%
D25*
%TO.C,MX52*%
X308458865Y-101890923D03*
D26*
X302255270Y-108627852D03*
D27*
X307191369Y-107427299D03*
D26*
X312127468Y-106226746D03*
D25*
X302889018Y-105859665D03*
D28*
X299706789Y-106633643D03*
D29*
X311667329Y-101110564D03*
%TD*%
D25*
%TO.C,MX45*%
X285446422Y-87882630D03*
D26*
X279242827Y-94619559D03*
D27*
X284178926Y-93419006D03*
D26*
X289115025Y-92218453D03*
D25*
X279876575Y-91851372D03*
D28*
X276694346Y-92625350D03*
D29*
X288654886Y-87102271D03*
%TD*%
D26*
%TO.C,MX28*%
X166930749Y-149097783D03*
X173937283Y-141740197D03*
D27*
X170434016Y-145418990D03*
D25*
X165967169Y-146426451D03*
X168506857Y-140076326D03*
D33*
X163708665Y-148798114D03*
X170783980Y-137685111D03*
%TD*%
D25*
%TO.C,MX20*%
X74901962Y-108560911D03*
D26*
X73067660Y-110728822D03*
X82939858Y-113129928D03*
D27*
X78003759Y-111929375D03*
D25*
X81672362Y-107593553D03*
D31*
X71719733Y-107786932D03*
X84880826Y-108373913D03*
%TD*%
D25*
%TO.C,MX37*%
X242216596Y-71472253D03*
D26*
X236013001Y-78209182D03*
D25*
X236646749Y-75440995D03*
D26*
X245885199Y-75808076D03*
D27*
X240949100Y-77008629D03*
D28*
X233464520Y-76214973D03*
D29*
X245425060Y-70691894D03*
%TD*%
D27*
%TO.C,MX34*%
X293685143Y-51896189D03*
D26*
X298621242Y-50695636D03*
D25*
X289382792Y-50328555D03*
D26*
X288749044Y-53096742D03*
D25*
X294952639Y-46359813D03*
D28*
X286200563Y-51102533D03*
D29*
X298161103Y-45579454D03*
%TD*%
D25*
%TO.C,MX50*%
X264727751Y-110174524D03*
D26*
X273966201Y-110541605D03*
D25*
X270297598Y-106205782D03*
D26*
X264094003Y-112942711D03*
D27*
X269030102Y-111742158D03*
D28*
X261545522Y-110948502D03*
D29*
X273506062Y-105425423D03*
%TD*%
D27*
%TO.C,MX40*%
X298187222Y-70406560D03*
D26*
X293251123Y-71607113D03*
D25*
X299454718Y-64870184D03*
D26*
X303123321Y-69206007D03*
D25*
X293884871Y-68838926D03*
D28*
X290702642Y-69612904D03*
D29*
X302663182Y-64089825D03*
%TD*%
D26*
%TO.C,MX23*%
X139611497Y-121946862D03*
D25*
X138344001Y-116410487D03*
D26*
X129739299Y-119545756D03*
D27*
X134675398Y-120746309D03*
D25*
X131573601Y-117377845D03*
D31*
X128391372Y-116603866D03*
X141552465Y-117190847D03*
%TD*%
D20*
%TO.C,U1*%
X175768016Y-91959267D03*
D21*
X175768016Y-94499267D03*
X175768016Y-97039267D03*
X175768016Y-99579267D03*
X175768016Y-102119267D03*
X175768016Y-104659267D03*
X175768016Y-107199267D03*
X175768016Y-109739267D03*
X175768016Y-112279267D03*
X175768016Y-114819267D03*
X175768016Y-117359267D03*
X175996616Y-119899267D03*
X191008016Y-119899267D03*
X191008016Y-117359267D03*
X191008016Y-114819267D03*
X191008016Y-112279267D03*
X191008016Y-109739267D03*
X191008016Y-107199267D03*
X191008016Y-104659267D03*
X191008016Y-102119267D03*
X191008016Y-99579267D03*
X191008016Y-97039267D03*
X191008016Y-94499267D03*
X191008016Y-91959267D03*
X178308016Y-119899267D03*
X180848016Y-119899267D03*
X183388016Y-119899267D03*
X185928016Y-119899267D03*
X188468016Y-119899267D03*
%TD*%
D25*
%TO.C,MX48*%
X227707013Y-119178675D03*
D27*
X232009364Y-120746309D03*
D26*
X227073265Y-121946862D03*
D25*
X233276860Y-115209933D03*
D26*
X236945463Y-119545756D03*
D28*
X224524784Y-119952653D03*
D29*
X236485324Y-114429574D03*
%TD*%
D25*
%TO.C,MX9*%
X103557011Y-71352954D03*
X110327411Y-70385596D03*
D27*
X106658808Y-74721418D03*
D26*
X111594907Y-75921971D03*
X101722709Y-73520865D03*
D31*
X100374782Y-70578975D03*
X113535875Y-71165956D03*
%TD*%
D27*
%TO.C,MX7*%
X68497540Y-70406562D03*
D25*
X72166143Y-66070740D03*
X65395743Y-67038098D03*
D26*
X63561441Y-69206009D03*
X73433639Y-71607115D03*
D31*
X62213514Y-66264119D03*
X75374607Y-66851100D03*
%TD*%
D25*
%TO.C,MX56*%
X247502444Y-133751478D03*
D27*
X246234948Y-139287854D03*
D26*
X251171047Y-138087301D03*
D25*
X241932597Y-137720220D03*
D26*
X241298849Y-140488407D03*
D29*
X238750368Y-138494198D03*
X250710908Y-132971119D03*
%TD*%
D25*
%TO.C,MX33*%
X270872425Y-54830627D03*
D27*
X275174776Y-56398261D03*
D26*
X270238677Y-57598814D03*
D25*
X276442272Y-50861885D03*
D26*
X280110875Y-55197708D03*
D28*
X267690196Y-55604605D03*
D29*
X279650736Y-50081526D03*
%TD*%
D27*
%TO.C,MX39*%
X279676851Y-74908634D03*
D25*
X275374500Y-73341000D03*
X280944347Y-69372258D03*
D26*
X274740752Y-76109187D03*
X284612950Y-73708081D03*
D28*
X272192271Y-74114978D03*
D29*
X284152811Y-68591899D03*
%TD*%
D26*
%TO.C,MX47*%
X218975342Y-126269075D03*
D27*
X214039243Y-127469628D03*
D25*
X209736892Y-125901994D03*
X215306739Y-121933252D03*
D26*
X209103144Y-128670181D03*
D28*
X206554663Y-126675972D03*
D29*
X218515203Y-121152893D03*
%TD*%
D26*
%TO.C,MX19*%
X54557291Y-106226748D03*
D25*
X63161993Y-103091479D03*
D26*
X64429489Y-108627854D03*
D25*
X56391593Y-104058837D03*
D27*
X59493390Y-107427301D03*
D31*
X53209364Y-103284858D03*
X66370457Y-103871839D03*
%TD*%
D26*
%TO.C,MX13*%
X68931564Y-90117484D03*
X59059366Y-87716378D03*
D27*
X63995465Y-88916931D03*
D25*
X67664068Y-84581109D03*
X60893668Y-85548467D03*
D31*
X57711439Y-84774488D03*
X70872532Y-85361469D03*
%TD*%
D27*
%TO.C,MX16*%
X121207353Y-95512614D03*
D25*
X118105556Y-92144150D03*
D26*
X116271254Y-94312061D03*
D25*
X124875956Y-91176792D03*
D26*
X126143452Y-96713167D03*
D31*
X114923327Y-91370171D03*
X128084420Y-91957152D03*
%TD*%
D25*
%TO.C,MX4*%
X127109709Y-55123413D03*
D26*
X135147605Y-59692430D03*
D25*
X133880109Y-54156055D03*
D27*
X130211506Y-58491877D03*
D26*
X125275407Y-57291324D03*
D31*
X123927480Y-54349434D03*
X137088573Y-54936415D03*
%TD*%
D27*
%TO.C,MX15*%
X102156732Y-93231787D03*
D26*
X107092831Y-94432340D03*
D25*
X105825335Y-88895965D03*
X99054935Y-89863323D03*
D26*
X97220633Y-92031234D03*
D31*
X95872706Y-89089344D03*
X109033799Y-89676325D03*
%TD*%
D26*
%TO.C,MX30*%
X213567039Y-66415750D03*
D25*
X214200787Y-63647563D03*
D26*
X223439237Y-64014644D03*
D25*
X219770634Y-59678821D03*
D27*
X218503138Y-65215197D03*
D28*
X211018558Y-64421541D03*
D29*
X222979098Y-58898462D03*
%TD*%
D26*
%TO.C,MX26*%
X143356031Y-147211724D03*
D25*
X135318135Y-142642707D03*
X142088535Y-141675349D03*
D27*
X138419932Y-146011171D03*
D26*
X133483833Y-144810618D03*
D31*
X132135907Y-141868728D03*
X145296999Y-142455709D03*
%TD*%
D25*
%TO.C,MX41*%
X205234816Y-107391620D03*
D26*
X204601068Y-110159807D03*
D27*
X209537167Y-108959254D03*
D26*
X214473266Y-107758701D03*
D25*
X210804663Y-103422878D03*
D28*
X202052587Y-108165598D03*
D29*
X214013127Y-102642519D03*
%TD*%
D25*
%TO.C,MX43*%
X246718670Y-89982623D03*
D26*
X240515075Y-96719552D03*
D27*
X245451174Y-95518999D03*
D26*
X250387273Y-94318446D03*
D25*
X241148823Y-93951365D03*
D28*
X237966594Y-94725343D03*
D29*
X249927134Y-89202264D03*
%TD*%
D27*
%TO.C,MX27*%
X157296762Y-159214464D03*
D26*
X153793495Y-162893257D03*
D25*
X152829915Y-160221925D03*
X155369603Y-153871800D03*
D26*
X160800029Y-155535671D03*
D33*
X150571411Y-162593588D03*
X157646726Y-151480585D03*
%TD*%
D22*
%TO.C,D28*%
X160828723Y-143135034D03*
D23*
X154658599Y-141634342D03*
%TD*%
D22*
%TO.C,D11*%
X151535396Y-77091944D03*
D23*
X145365272Y-75591252D03*
%TD*%
D24*
%TO.C,D54*%
X216766558Y-146777295D03*
D23*
X210596434Y-148277987D03*
%TD*%
D24*
%TO.C,D40*%
X302022476Y-60951631D03*
D23*
X295852352Y-62452323D03*
%TD*%
D22*
%TO.C,D24*%
X160377966Y-120805993D03*
D23*
X154207842Y-119305301D03*
%TD*%
D24*
%TO.C,D29*%
X208270069Y-78525906D03*
D23*
X202099945Y-80026598D03*
%TD*%
D22*
%TO.C,D8*%
X94863758Y-68275012D03*
D23*
X88693634Y-66774320D03*
%TD*%
D24*
%TO.C,D37*%
X244810588Y-67547318D03*
D23*
X238640464Y-69048010D03*
%TD*%
D24*
%TO.C,D43*%
X252967657Y-102160036D03*
D23*
X246797533Y-103660728D03*
%TD*%
D24*
%TO.C,D49*%
X253567934Y-104628087D03*
D23*
X247397810Y-106128779D03*
%TD*%
D22*
%TO.C,D12*%
X169505518Y-83815262D03*
D23*
X163335394Y-82314570D03*
%TD*%
D24*
%TO.C,D47*%
X217874495Y-118014699D03*
D23*
X211704371Y-119515391D03*
%TD*%
D22*
%TO.C,D23*%
X160978242Y-118337944D03*
D23*
X154808118Y-116837252D03*
%TD*%
D24*
%TO.C,D39*%
X283512104Y-65453706D03*
D23*
X277341980Y-66954398D03*
%TD*%
D24*
%TO.C,D55*%
X232048604Y-136525290D03*
D23*
X225878480Y-138025982D03*
%TD*%
D24*
%TO.C,D50*%
X272805331Y-102040420D03*
D23*
X266635207Y-103541112D03*
%TD*%
D22*
%TO.C,D16*%
X85612803Y-105235728D03*
D23*
X79442679Y-103735036D03*
%TD*%
D24*
%TO.C,D30*%
X226240189Y-71802587D03*
D23*
X220070065Y-73303279D03*
%TD*%
D24*
%TO.C,D31*%
X244210313Y-65079266D03*
D23*
X238040189Y-66579958D03*
%TD*%
D22*
%TO.C,D27*%
X155992821Y-147971162D03*
D23*
X149822697Y-146470470D03*
%TD*%
D22*
%TO.C,D26*%
X146080456Y-139286571D03*
D23*
X139910332Y-137785879D03*
%TD*%
D24*
%TO.C,D44*%
X272265082Y-99819179D03*
D23*
X266094958Y-101319871D03*
%TD*%
D24*
%TO.C,D41*%
X217274218Y-115546648D03*
D23*
X211104094Y-117047340D03*
%TD*%
D22*
%TO.C,D25*%
X128110334Y-132563251D03*
D23*
X121940210Y-131062559D03*
%TD*%
D24*
%TO.C,D42*%
X235244342Y-108823330D03*
D23*
X229074218Y-110324022D03*
%TD*%
D24*
%TO.C,D33*%
X282911828Y-62985654D03*
D23*
X276741704Y-64486346D03*
%TD*%
D22*
%TO.C,D10*%
X133441873Y-70338610D03*
D23*
X127271749Y-68837918D03*
%TD*%
D24*
%TO.C,D56*%
X250018724Y-129801967D03*
D23*
X243848600Y-131302659D03*
%TD*%
D24*
%TO.C,D38*%
X263861209Y-65266487D03*
D23*
X257691085Y-66767179D03*
%TD*%
D22*
%TO.C,D6*%
X170105795Y-81347217D03*
D23*
X163935671Y-79846525D03*
%TD*%
D22*
%TO.C,D17*%
X105863975Y-102580460D03*
D23*
X99693851Y-101079768D03*
%TD*%
D24*
%TO.C,D48*%
X235844616Y-111291377D03*
D23*
X229674492Y-112792069D03*
%TD*%
D22*
%TO.C,D2*%
X95464036Y-65806965D03*
D23*
X89293912Y-64306273D03*
%TD*%
D24*
%TO.C,D51*%
X292516254Y-102474447D03*
D23*
X286346130Y-103975139D03*
%TD*%
D22*
%TO.C,D22*%
X142284442Y-114052660D03*
D23*
X136114318Y-112551968D03*
%TD*%
D22*
%TO.C,D9*%
X114514656Y-68087794D03*
D23*
X108344532Y-66587102D03*
%TD*%
D24*
%TO.C,D36*%
X226840467Y-74270638D03*
D23*
X220670343Y-75771330D03*
%TD*%
D24*
%TO.C,D46*%
X310426351Y-95504322D03*
D23*
X304256227Y-97005014D03*
%TD*%
D22*
%TO.C,D1*%
X76953665Y-61304892D03*
D23*
X70783541Y-59804200D03*
%TD*%
D24*
%TO.C,D34*%
X301422198Y-58483581D03*
D23*
X295252074Y-59984273D03*
%TD*%
D22*
%TO.C,D21*%
X142884718Y-111584610D03*
D23*
X136714594Y-110083918D03*
%TD*%
D22*
%TO.C,D20*%
X124314318Y-107329339D03*
D23*
X118144194Y-105828647D03*
%TD*%
D24*
%TO.C,D45*%
X291915979Y-100006398D03*
D23*
X285745855Y-101507090D03*
%TD*%
D22*
%TO.C,D3*%
X115114933Y-65619746D03*
D23*
X108944809Y-64119054D03*
%TD*%
D22*
%TO.C,D14*%
X67102432Y-100733650D03*
D23*
X60932308Y-99232958D03*
%TD*%
D24*
%TO.C,D32*%
X263260931Y-62798438D03*
D23*
X257090807Y-64299130D03*
%TD*%
D24*
%TO.C,D52*%
X311026624Y-97972372D03*
D23*
X304856500Y-99473064D03*
%TD*%
D22*
%TO.C,D19*%
X124914597Y-104861291D03*
D23*
X118744473Y-103360599D03*
%TD*%
D22*
%TO.C,D13*%
X67702710Y-98265603D03*
D23*
X61532586Y-96764911D03*
%TD*%
D24*
%TO.C,D53*%
X212304209Y-141327504D03*
D23*
X206134085Y-142828196D03*
%TD*%
D22*
%TO.C,D5*%
X152135674Y-74623897D03*
D23*
X145965550Y-73123205D03*
%TD*%
D22*
%TO.C,D18*%
X105263701Y-105048508D03*
D23*
X99093577Y-103547816D03*
%TD*%
D22*
%TO.C,D15*%
X86213081Y-102767678D03*
D23*
X80042957Y-101266986D03*
%TD*%
D22*
%TO.C,D4*%
X134042150Y-67870563D03*
D23*
X127872026Y-66369871D03*
%TD*%
D22*
%TO.C,D7*%
X76353388Y-63772938D03*
D23*
X70183264Y-62272246D03*
%TD*%
D24*
%TO.C,D35*%
X208870345Y-80993958D03*
D23*
X202700221Y-82494650D03*
%TD*%
M02*
