%TF.GenerationSoftware,KiCad,Pcbnew,(6.0.0-0)*%
%TF.CreationDate,2022-01-06T19:14:06+00:00*%
%TF.ProjectId,atreis,61747265-6973-42e6-9b69-6361645f7063,rev?*%
%TF.SameCoordinates,Original*%
%TF.FileFunction,Paste,Bot*%
%TF.FilePolarity,Positive*%
%FSLAX46Y46*%
G04 Gerber Fmt 4.6, Leading zero omitted, Abs format (unit mm)*
G04 Created by KiCad (PCBNEW (6.0.0-0)) date 2022-01-06 19:14:06*
%MOMM*%
%LPD*%
G01*
G04 APERTURE LIST*
G04 Aperture macros list*
%AMRotRect*
0 Rectangle, with rotation*
0 The origin of the aperture is its center*
0 $1 length*
0 $2 width*
0 $3 Rotation angle, in degrees counterclockwise*
0 Add horizontal line*
21,1,$1,$2,0,0,$3*%
G04 Aperture macros list end*
%ADD10RotRect,2.550000X2.500000X193.670000*%
%ADD11RotRect,2.550000X2.500000X193.669000*%
%ADD12RotRect,2.550000X2.500000X166.330000*%
%ADD13RotRect,2.550000X2.500000X133.600000*%
%ADD14RotRect,2.550000X2.500000X226.400000*%
G04 APERTURE END LIST*
D10*
%TO.C,MX29*%
X193048437Y-71144861D03*
D11*
X205008977Y-65621782D03*
%TD*%
%TO.C,MX55*%
X220780248Y-145217517D03*
X232740788Y-139694438D03*
%TD*%
D10*
%TO.C,MX36*%
X215520635Y-82931912D03*
D11*
X227481175Y-77408833D03*
%TD*%
D12*
%TO.C,MX18*%
X150863572Y-104816815D03*
X164024665Y-105403796D03*
%TD*%
%TO.C,MX14*%
X76221810Y-89276559D03*
X89382903Y-89863540D03*
%TD*%
%TO.C,MX2*%
X85225960Y-52255822D03*
X98387053Y-52842803D03*
%TD*%
D10*
%TO.C,MX44*%
X257043450Y-92438131D03*
D11*
X269003990Y-86915052D03*
%TD*%
D12*
%TO.C,MX3*%
X104876858Y-52068603D03*
X118037951Y-52655584D03*
%TD*%
D13*
%TO.C,MX54*%
X206341440Y-152332073D03*
X217095548Y-159941809D03*
%TD*%
D12*
%TO.C,MX8*%
X80723885Y-70766190D03*
X93884978Y-71353171D03*
%TD*%
%TO.C,MX25*%
X114165788Y-135145407D03*
X127326880Y-135732388D03*
%TD*%
%TO.C,MX1*%
X66715590Y-47753746D03*
X79876682Y-48340727D03*
%TD*%
%TO.C,MX22*%
X110421250Y-109880546D03*
X123582343Y-110467527D03*
%TD*%
%TO.C,MX21*%
X91370631Y-107599711D03*
X104531724Y-108186692D03*
%TD*%
D10*
%TO.C,MX49*%
X242468670Y-113235714D03*
D11*
X254429210Y-107712635D03*
%TD*%
D12*
%TO.C,MX24*%
X146361494Y-123327184D03*
X159522587Y-123914165D03*
%TD*%
D10*
%TO.C,MX31*%
X228962443Y-57704600D03*
D11*
X240922983Y-52181521D03*
%TD*%
D13*
%TO.C,MX53*%
X193204188Y-138536599D03*
X203958296Y-146146335D03*
%TD*%
D10*
%TO.C,MX38*%
X252541374Y-73927757D03*
D11*
X264501914Y-68404678D03*
%TD*%
D12*
%TO.C,MX17*%
X132893449Y-98093492D03*
X146054542Y-98680473D03*
%TD*%
%TO.C,MX6*%
X159867719Y-67796074D03*
X173028812Y-68383055D03*
%TD*%
%TO.C,MX12*%
X155365644Y-86306444D03*
X168526737Y-86893425D03*
%TD*%
D10*
%TO.C,MX42*%
X220022709Y-101442282D03*
D11*
X231983249Y-95919203D03*
%TD*%
D10*
%TO.C,MX35*%
X197550511Y-89655231D03*
D11*
X209511051Y-84132152D03*
%TD*%
D10*
%TO.C,MX32*%
X248039297Y-55417388D03*
D11*
X259999837Y-49894309D03*
%TD*%
D12*
%TO.C,MX5*%
X141897597Y-61072753D03*
X155058690Y-61659734D03*
%TD*%
D10*
%TO.C,MX46*%
X295204716Y-88123271D03*
D11*
X307165256Y-82600192D03*
%TD*%
D12*
%TO.C,MX11*%
X137395523Y-79583125D03*
X150556616Y-80170106D03*
%TD*%
D10*
%TO.C,MX51*%
X281196423Y-111135719D03*
D11*
X293156963Y-105612640D03*
%TD*%
D12*
%TO.C,MX10*%
X119425399Y-72859805D03*
X132586492Y-73446786D03*
%TD*%
D10*
%TO.C,MX52*%
X299706789Y-106633643D03*
D11*
X311667329Y-101110564D03*
%TD*%
D10*
%TO.C,MX45*%
X276694346Y-92625350D03*
D11*
X288654886Y-87102271D03*
%TD*%
D14*
%TO.C,MX28*%
X163708665Y-148798114D03*
X170783980Y-137685111D03*
%TD*%
D12*
%TO.C,MX20*%
X71719733Y-107786932D03*
X84880826Y-108373913D03*
%TD*%
D10*
%TO.C,MX37*%
X233464520Y-76214973D03*
D11*
X245425060Y-70691894D03*
%TD*%
D10*
%TO.C,MX34*%
X286200563Y-51102533D03*
D11*
X298161103Y-45579454D03*
%TD*%
D10*
%TO.C,MX50*%
X261545522Y-110948502D03*
D11*
X273506062Y-105425423D03*
%TD*%
D10*
%TO.C,MX40*%
X290702642Y-69612904D03*
D11*
X302663182Y-64089825D03*
%TD*%
D12*
%TO.C,MX23*%
X128391372Y-116603866D03*
X141552465Y-117190847D03*
%TD*%
D10*
%TO.C,MX48*%
X224524784Y-119952653D03*
D11*
X236485324Y-114429574D03*
%TD*%
D12*
%TO.C,MX9*%
X100374782Y-70578975D03*
X113535875Y-71165956D03*
%TD*%
%TO.C,MX7*%
X62213514Y-66264119D03*
X75374607Y-66851100D03*
%TD*%
D11*
%TO.C,MX56*%
X238750368Y-138494198D03*
X250710908Y-132971119D03*
%TD*%
D10*
%TO.C,MX33*%
X267690196Y-55604605D03*
D11*
X279650736Y-50081526D03*
%TD*%
D10*
%TO.C,MX39*%
X272192271Y-74114978D03*
D11*
X284152811Y-68591899D03*
%TD*%
D10*
%TO.C,MX47*%
X206554663Y-126675972D03*
D11*
X218515203Y-121152893D03*
%TD*%
D12*
%TO.C,MX19*%
X53209364Y-103284858D03*
X66370457Y-103871839D03*
%TD*%
%TO.C,MX13*%
X57711439Y-84774488D03*
X70872532Y-85361469D03*
%TD*%
%TO.C,MX16*%
X114923327Y-91370171D03*
X128084420Y-91957152D03*
%TD*%
%TO.C,MX4*%
X123927480Y-54349434D03*
X137088573Y-54936415D03*
%TD*%
%TO.C,MX15*%
X95872706Y-89089344D03*
X109033799Y-89676325D03*
%TD*%
D10*
%TO.C,MX30*%
X211018558Y-64421541D03*
D11*
X222979098Y-58898462D03*
%TD*%
D12*
%TO.C,MX26*%
X132135907Y-141868728D03*
X145296999Y-142455709D03*
%TD*%
D10*
%TO.C,MX41*%
X202052587Y-108165598D03*
D11*
X214013127Y-102642519D03*
%TD*%
D10*
%TO.C,MX43*%
X237966594Y-94725343D03*
D11*
X249927134Y-89202264D03*
%TD*%
D14*
%TO.C,MX27*%
X150571411Y-162593588D03*
X157646726Y-151480585D03*
%TD*%
M02*
