M48
; DRILL file {KiCad (6.0.0-0)} date Saturday, January 08, 2022 at 02:54:40 PM
; FORMAT={-:-/ absolute / metric / decimal}
; #@! TF.CreationDate,2022-01-08T14:54:40+00:00
; #@! TF.GenerationSoftware,Kicad,Pcbnew,(6.0.0-0)
; #@! TF.FileFunction,NonPlated,1,2,NPTH
FMAT,2
METRIC
; #@! TA.AperFunction,NonPlated,NPTH,ComponentDrill
T1C1.900
; #@! TA.AperFunction,NonPlated,NPTH,ComponentDrill
T2C3.000
; #@! TA.AperFunction,NonPlated,NPTH,ComponentDrill
T3C4.000
; #@! TA.AperFunction,NonPlated,NPTH,ComponentDrill
T4C4.100
%
G90
G05
T1
X54.557Y-106.217
X59.059Y-87.706
X63.561Y-69.196
X64.429Y-108.618
X68.064Y-50.686
X68.932Y-90.107
X73.068Y-110.719
X73.434Y-71.597
X77.57Y-92.208
X77.936Y-53.087
X82.072Y-73.698
X82.94Y-113.12
X86.574Y-55.188
X87.442Y-94.61
X91.944Y-76.099
X92.719Y-110.532
X96.446Y-57.589
X97.221Y-92.021
X101.723Y-73.511
X102.591Y-112.933
X106.225Y-55.0
X107.093Y-94.422
X111.595Y-75.912
X111.769Y-112.812
X115.514Y-138.077
X116.097Y-57.402
X116.271Y-94.302
X120.773Y-75.792
X121.641Y-115.214
X125.275Y-57.281
X125.386Y-140.478
X126.143Y-96.703
X129.739Y-119.536
X130.646Y-78.193
X133.484Y-144.801
X134.241Y-101.025
X135.148Y-59.682
X138.743Y-82.515
X139.611Y-121.937
X143.246Y-64.005
X143.356Y-147.202
X144.114Y-103.426
X147.709Y-126.259
X148.616Y-84.916
X152.212Y-107.749
X153.118Y-66.406
X153.793Y-162.883
X156.714Y-89.238
X157.582Y-128.66
X160.8Y-155.526
X161.216Y-70.728
X162.084Y-110.15
X166.586Y-91.639
X166.931Y-149.088
X171.088Y-73.129
X173.937Y-141.73
X192.747Y-141.73
X195.597Y-73.129
X199.754Y-149.088
X200.099Y-91.639
X204.601Y-110.15
X205.469Y-70.728
X205.885Y-155.526
X209.103Y-128.66
X209.971Y-89.238
X212.891Y-162.883
X213.567Y-66.406
X214.473Y-107.749
X218.069Y-84.916
X218.975Y-126.259
X222.571Y-103.426
X223.329Y-147.202
X223.439Y-64.005
X227.073Y-121.937
X227.941Y-82.515
X231.511Y-59.689
X232.443Y-101.025
X233.201Y-144.801
X236.013Y-78.199
X236.945Y-119.536
X240.515Y-96.71
X241.299Y-140.478
X241.383Y-57.288
X245.017Y-115.22
X245.885Y-75.798
X250.387Y-94.308
X250.588Y-57.402
X251.171Y-138.077
X254.889Y-112.819
X255.09Y-75.912
X259.592Y-94.422
X260.46Y-55.0
X264.094Y-112.933
X264.962Y-73.511
X269.464Y-92.021
X270.239Y-57.589
X273.966Y-110.532
X274.741Y-76.099
X279.243Y-94.61
X280.111Y-55.188
X283.745Y-113.12
X284.613Y-73.698
X288.749Y-53.087
X289.115Y-92.208
X293.251Y-71.597
X293.617Y-110.719
X297.753Y-90.107
X298.621Y-50.686
X302.255Y-108.618
X303.123Y-69.196
X307.625Y-87.706
X312.127Y-106.217
T2
X56.392Y-104.049
X60.894Y-85.538
X63.162Y-103.081
X65.396Y-67.028
X67.664Y-84.571
X69.898Y-48.518
X72.166Y-66.061
X74.902Y-108.551
X76.668Y-47.55
X79.404Y-90.041
X81.672Y-107.584
X83.906Y-71.53
X86.174Y-89.073
X88.408Y-53.02
X90.677Y-70.563
X94.553Y-108.364
X95.179Y-52.052
X99.055Y-89.853
X101.323Y-107.396
X103.557Y-71.343
X105.825Y-88.886
X108.059Y-52.833
X110.327Y-70.376
X113.603Y-110.645
X114.829Y-51.865
X117.348Y-135.909
X118.106Y-92.134
X120.374Y-109.677
X122.608Y-73.624
X124.118Y-134.942
X124.876Y-91.167
X127.11Y-55.113
X129.378Y-72.656
X131.574Y-117.368
X133.88Y-54.146
X135.318Y-142.633
X136.076Y-98.857
X138.344Y-116.4
X140.578Y-80.347
X142.089Y-141.665
X142.846Y-97.89
X145.08Y-61.837
X147.348Y-79.38
X149.544Y-124.091
X151.85Y-60.869
X152.83Y-160.212
X154.046Y-105.581
X155.37Y-153.862
X156.314Y-123.124
X158.548Y-87.07
X160.816Y-104.613
X163.05Y-68.56
X165.318Y-86.103
X165.967Y-146.416
X168.507Y-140.066
X169.82Y-67.593
X195.463Y-140.898
X196.231Y-70.361
X200.733Y-88.871
X201.681Y-143.745
X201.801Y-66.392
X205.235Y-107.382
X206.303Y-84.903
X208.6Y-154.694
X209.737Y-125.892
X210.805Y-103.413
X214.201Y-63.638
X214.818Y-157.541
X215.307Y-121.923
X218.703Y-82.148
X219.771Y-59.669
X223.205Y-100.658
X223.962Y-144.434
X224.273Y-78.179
X227.707Y-119.169
X228.775Y-96.69
X229.532Y-140.465
X232.145Y-56.921
X233.277Y-115.2
X236.647Y-75.431
X237.715Y-52.952
X241.149Y-93.941
X241.933Y-137.71
X242.217Y-71.462
X245.651Y-112.452
X246.719Y-89.973
X247.502Y-133.741
X251.221Y-108.483
X251.222Y-54.633
X255.724Y-73.144
X256.791Y-50.665
X260.226Y-91.654
X261.293Y-69.175
X264.728Y-110.165
X265.796Y-87.685
X270.298Y-106.196
X270.872Y-54.821
X275.375Y-73.331
X276.442Y-50.852
X279.877Y-91.841
X280.944Y-69.362
X284.379Y-110.352
X285.446Y-87.873
X289.383Y-50.319
X289.948Y-106.383
X293.885Y-68.829
X294.953Y-46.35
X298.387Y-87.339
X299.455Y-64.86
X302.889Y-105.85
X303.957Y-83.371
X308.459Y-101.881
T3
X45.517Y-116.099
X64.211Y-38.045
X71.044Y-100.504
X80.035Y-63.47
X104.978Y-149.932
X120.447Y-41.144
X145.948Y-114.982
X154.915Y-77.898
X155.804Y-144.903
X160.962Y-56.169
X165.557Y-167.509
X201.244Y-167.509
X205.842Y-56.206
X210.947Y-144.903
X211.887Y-77.948
X220.828Y-114.956
X246.329Y-41.144
X261.798Y-149.932
X286.791Y-63.47
X295.732Y-100.504
X302.565Y-38.045
X321.259Y-116.099
T4
X59.493Y-107.417
X63.995Y-88.907
X68.498Y-70.397
X73.0Y-51.886
X78.004Y-111.919
X82.506Y-93.409
X87.008Y-74.899
X91.51Y-56.388
X97.655Y-111.732
X102.157Y-93.222
X106.659Y-74.711
X111.161Y-56.201
X116.705Y-114.013
X120.45Y-139.278
X121.207Y-95.503
X125.709Y-76.992
X130.212Y-58.482
X134.675Y-120.736
X138.42Y-146.001
X139.177Y-102.226
X143.68Y-83.716
X148.182Y-65.205
X152.646Y-127.46
X157.148Y-108.949
X157.297Y-159.204
X161.65Y-90.439
X166.152Y-71.929
X170.434Y-145.409
X196.251Y-145.409
X200.533Y-71.929
X205.035Y-90.439
X209.388Y-159.204
X209.537Y-108.949
X214.039Y-127.46
X218.503Y-65.205
X223.005Y-83.716
X227.507Y-102.226
X228.265Y-146.001
X232.009Y-120.736
X236.447Y-58.488
X240.949Y-76.999
X245.451Y-95.509
X246.235Y-139.278
X249.953Y-114.019
X255.524Y-56.201
X260.026Y-74.711
X264.528Y-93.222
X269.03Y-111.732
X275.175Y-56.388
X279.677Y-74.899
X284.179Y-93.409
X288.681Y-111.919
X293.685Y-51.886
X298.187Y-70.397
X302.689Y-88.907
X307.191Y-107.417
T0
M30
