%TF.GenerationSoftware,KiCad,Pcbnew,(6.0.0-0)*%
%TF.CreationDate,2022-01-08T14:54:33+00:00*%
%TF.ProjectId,atreis,61747265-6973-42e6-9b69-6361645f7063,rev?*%
%TF.SameCoordinates,Original*%
%TF.FileFunction,Paste,Bot*%
%TF.FilePolarity,Positive*%
%FSLAX46Y46*%
G04 Gerber Fmt 4.6, Leading zero omitted, Abs format (unit mm)*
G04 Created by KiCad (PCBNEW (6.0.0-0)) date 2022-01-08 14:54:33*
%MOMM*%
%LPD*%
G01*
G04 APERTURE LIST*
G04 Aperture macros list*
%AMRotRect*
0 Rectangle, with rotation*
0 The origin of the aperture is its center*
0 $1 length*
0 $2 width*
0 $3 Rotation angle, in degrees counterclockwise*
0 Add horizontal line*
21,1,$1,$2,0,0,$3*%
G04 Aperture macros list end*
%ADD10RotRect,2.550000X2.500000X193.669000*%
%ADD11RotRect,2.550000X2.500000X193.670000*%
%ADD12RotRect,2.550000X2.500000X166.330000*%
%ADD13RotRect,2.550000X2.500000X133.600000*%
%ADD14RotRect,2.550000X2.500000X226.400000*%
G04 APERTURE END LIST*
D10*
%TO.C,MX29*%
X205008978Y-65611782D03*
D11*
X193048438Y-71134861D03*
%TD*%
D10*
%TO.C,MX55*%
X232740788Y-139684439D03*
X220780248Y-145207518D03*
%TD*%
%TO.C,MX36*%
X227481174Y-77398834D03*
D11*
X215520634Y-82921913D03*
%TD*%
D12*
%TO.C,MX18*%
X164024667Y-105393795D03*
X150863574Y-104806814D03*
%TD*%
%TO.C,MX14*%
X89382905Y-89853541D03*
X76221812Y-89266560D03*
%TD*%
%TO.C,MX2*%
X98387051Y-52832805D03*
X85225958Y-52245824D03*
%TD*%
D10*
%TO.C,MX44*%
X269003991Y-86905052D03*
D11*
X257043451Y-92428131D03*
%TD*%
D12*
%TO.C,MX3*%
X118037951Y-52645584D03*
X104876858Y-52058603D03*
%TD*%
D13*
%TO.C,MX54*%
X217095546Y-159931811D03*
X206341438Y-152322075D03*
%TD*%
D12*
%TO.C,MX8*%
X93884977Y-71343172D03*
X80723884Y-70756191D03*
%TD*%
%TO.C,MX25*%
X127326879Y-135722387D03*
X114165787Y-135135406D03*
%TD*%
%TO.C,MX1*%
X79876681Y-48330727D03*
X66715589Y-47743746D03*
%TD*%
%TO.C,MX22*%
X123582343Y-110457527D03*
X110421250Y-109870546D03*
%TD*%
%TO.C,MX21*%
X104531725Y-108176691D03*
X91370632Y-107589710D03*
%TD*%
D10*
%TO.C,MX49*%
X254429209Y-107702635D03*
D11*
X242468669Y-113225714D03*
%TD*%
D12*
%TO.C,MX24*%
X159522588Y-123904165D03*
X146361495Y-123317184D03*
%TD*%
D10*
%TO.C,MX31*%
X240922983Y-52171521D03*
D11*
X228962443Y-57694600D03*
%TD*%
D13*
%TO.C,MX53*%
X203958295Y-146136336D03*
X193204187Y-138526600D03*
%TD*%
D10*
%TO.C,MX38*%
X264501914Y-68394679D03*
D11*
X252541374Y-73917758D03*
%TD*%
D12*
%TO.C,MX17*%
X146054541Y-98670473D03*
X132893448Y-98083492D03*
%TD*%
%TO.C,MX6*%
X173028811Y-68373057D03*
X159867718Y-67786076D03*
%TD*%
%TO.C,MX12*%
X168526736Y-86883425D03*
X155365643Y-86296444D03*
%TD*%
D10*
%TO.C,MX42*%
X231983249Y-95909203D03*
D11*
X220022709Y-101432282D03*
%TD*%
D10*
%TO.C,MX35*%
X209511050Y-84122151D03*
D11*
X197550510Y-89645230D03*
%TD*%
D10*
%TO.C,MX32*%
X259999836Y-49884309D03*
D11*
X248039296Y-55407388D03*
%TD*%
D12*
%TO.C,MX5*%
X155058688Y-61649734D03*
X141897595Y-61062753D03*
%TD*%
D10*
%TO.C,MX46*%
X307165254Y-82590192D03*
D11*
X295204714Y-88113271D03*
%TD*%
D12*
%TO.C,MX11*%
X150556615Y-80160106D03*
X137395522Y-79573125D03*
%TD*%
D10*
%TO.C,MX51*%
X293156961Y-105602639D03*
D11*
X281196421Y-111125718D03*
%TD*%
D12*
%TO.C,MX10*%
X132586491Y-73436786D03*
X119425398Y-72849805D03*
%TD*%
D10*
%TO.C,MX52*%
X311667327Y-101100564D03*
D11*
X299706787Y-106623643D03*
%TD*%
D10*
%TO.C,MX45*%
X288654886Y-87092270D03*
D11*
X276694346Y-92615349D03*
%TD*%
D14*
%TO.C,MX28*%
X170783978Y-137675110D03*
X163708663Y-148788113D03*
%TD*%
D12*
%TO.C,MX20*%
X84880826Y-108363913D03*
X71719733Y-107776932D03*
%TD*%
D10*
%TO.C,MX37*%
X245425059Y-70681897D03*
D11*
X233464519Y-76204976D03*
%TD*%
D10*
%TO.C,MX34*%
X298161102Y-45569454D03*
D11*
X286200562Y-51092533D03*
%TD*%
D10*
%TO.C,MX50*%
X273506061Y-105415422D03*
D11*
X261545521Y-110938501D03*
%TD*%
D10*
%TO.C,MX40*%
X302663181Y-64079825D03*
D11*
X290702641Y-69602904D03*
%TD*%
D12*
%TO.C,MX23*%
X141552465Y-117180848D03*
X128391372Y-116593867D03*
%TD*%
D10*
%TO.C,MX48*%
X236485323Y-114419576D03*
D11*
X224524783Y-119942655D03*
%TD*%
D12*
%TO.C,MX9*%
X113535873Y-71155955D03*
X100374780Y-70568974D03*
%TD*%
%TO.C,MX7*%
X75374606Y-66841099D03*
X62213513Y-66254118D03*
%TD*%
D10*
%TO.C,MX56*%
X250710908Y-132961119D03*
X238750368Y-138484198D03*
%TD*%
%TO.C,MX33*%
X279650738Y-50071526D03*
D11*
X267690198Y-55594605D03*
%TD*%
D10*
%TO.C,MX39*%
X284152811Y-68581898D03*
D11*
X272192271Y-74104977D03*
%TD*%
D10*
%TO.C,MX47*%
X218515202Y-121142892D03*
D11*
X206554662Y-126665971D03*
%TD*%
D12*
%TO.C,MX19*%
X66370456Y-103861839D03*
X53209363Y-103274858D03*
%TD*%
%TO.C,MX13*%
X70872530Y-85351468D03*
X57711437Y-84764487D03*
%TD*%
%TO.C,MX16*%
X128084422Y-91947152D03*
X114923329Y-91360171D03*
%TD*%
%TO.C,MX4*%
X123927479Y-54339433D03*
X137088572Y-54926414D03*
%TD*%
%TO.C,MX15*%
X109033798Y-89666326D03*
X95872705Y-89079345D03*
%TD*%
D10*
%TO.C,MX30*%
X222979098Y-58888461D03*
D11*
X211018558Y-64411540D03*
%TD*%
D12*
%TO.C,MX26*%
X145296998Y-142445708D03*
X132135906Y-141858727D03*
%TD*%
D10*
%TO.C,MX41*%
X214013127Y-102632521D03*
D11*
X202052587Y-108155600D03*
%TD*%
D10*
%TO.C,MX43*%
X249927132Y-89192265D03*
D11*
X237966592Y-94715344D03*
%TD*%
D14*
%TO.C,MX27*%
X157646727Y-151470585D03*
X150571412Y-162583588D03*
%TD*%
M02*
