%TF.GenerationSoftware,KiCad,Pcbnew,(6.0.0-0)*%
%TF.CreationDate,2022-01-06T19:14:06+00:00*%
%TF.ProjectId,atreis,61747265-6973-42e6-9b69-6361645f7063,rev?*%
%TF.SameCoordinates,Original*%
%TF.FileFunction,Legend,Top*%
%TF.FilePolarity,Positive*%
%FSLAX46Y46*%
G04 Gerber Fmt 4.6, Leading zero omitted, Abs format (unit mm)*
G04 Created by KiCad (PCBNEW (6.0.0-0)) date 2022-01-06 19:14:06*
%MOMM*%
%LPD*%
G01*
G04 APERTURE LIST*
G04 Aperture macros list*
%AMRotRect*
0 Rectangle, with rotation*
0 The origin of the aperture is its center*
0 $1 length*
0 $2 width*
0 $3 Rotation angle, in degrees counterclockwise*
0 Add horizontal line*
21,1,$1,$2,0,0,$3*%
G04 Aperture macros list end*
%ADD10C,0.150000*%
%ADD11C,0.381000*%
%ADD12C,0.200000*%
%ADD13R,1.752600X1.752600*%
%ADD14C,1.752600*%
%ADD15C,3.000000*%
%ADD16C,1.900000*%
%ADD17C,4.100000*%
%ADD18RotRect,1.400000X1.400000X166.330000*%
%ADD19RotRect,1.600000X1.200000X166.330000*%
%ADD20C,1.400000*%
%ADD21RotRect,1.400000X1.400000X193.670000*%
%ADD22RotRect,1.600000X1.200000X193.670000*%
G04 APERTURE END LIST*
D10*
%TO.C,SW1*%
X196987593Y-54022526D02*
X196598711Y-53590508D01*
X196420424Y-54092166D02*
X196298554Y-53099620D01*
X196676667Y-53053193D01*
X196776998Y-53088851D01*
X196830066Y-53130312D01*
X196888937Y-53219036D01*
X196906347Y-53360829D01*
X196870689Y-53461160D01*
X196829228Y-53514228D01*
X196740503Y-53573098D01*
X196362390Y-53619525D01*
X197349133Y-53450391D02*
X197679982Y-53409768D01*
X197885611Y-53912263D02*
X197412970Y-53970296D01*
X197291100Y-52977750D01*
X197763741Y-52919717D01*
X198257920Y-53818573D02*
X198405516Y-53848427D01*
X198641836Y-53819411D01*
X198730561Y-53760540D01*
X198772022Y-53707473D01*
X198807680Y-53607141D01*
X198796073Y-53512613D01*
X198737202Y-53423888D01*
X198684135Y-53382427D01*
X198583803Y-53346770D01*
X198388944Y-53322719D01*
X198288612Y-53287061D01*
X198235545Y-53245600D01*
X198176674Y-53156875D01*
X198165067Y-53062347D01*
X198200725Y-52962016D01*
X198242186Y-52908948D01*
X198330911Y-52850078D01*
X198567231Y-52821061D01*
X198714827Y-52850915D01*
X199192433Y-53224063D02*
X199523282Y-53183439D01*
X199728911Y-53685935D02*
X199256270Y-53743968D01*
X199134400Y-52751422D01*
X199607041Y-52693389D01*
X199890626Y-52658569D02*
X200457795Y-52588929D01*
X200296080Y-53616295D02*
X200174211Y-52623749D01*
%TO.C,U1*%
X188582349Y-102062124D02*
X188315682Y-102062124D01*
X188315682Y-102481171D02*
X188315682Y-101681171D01*
X188696635Y-101681171D01*
X189344254Y-101947838D02*
X189344254Y-102481171D01*
X189153777Y-101643076D02*
X188963301Y-102214505D01*
X189458539Y-102214505D01*
X177317492Y-96639267D02*
X177241301Y-96601171D01*
X177127016Y-96601171D01*
X177012730Y-96639267D01*
X176936539Y-96715457D01*
X176898444Y-96791647D01*
X176860349Y-96944028D01*
X176860349Y-97058314D01*
X176898444Y-97210695D01*
X176936539Y-97286886D01*
X177012730Y-97363076D01*
X177127016Y-97401171D01*
X177203206Y-97401171D01*
X177317492Y-97363076D01*
X177355587Y-97324981D01*
X177355587Y-97058314D01*
X177203206Y-97058314D01*
X177698444Y-97401171D02*
X177698444Y-96601171D01*
X178155587Y-97401171D01*
X178155587Y-96601171D01*
X178536539Y-97401171D02*
X178536539Y-96601171D01*
X178727016Y-96601171D01*
X178841301Y-96639267D01*
X178917492Y-96715457D01*
X178955587Y-96791647D01*
X178993682Y-96944028D01*
X178993682Y-97058314D01*
X178955587Y-97210695D01*
X178917492Y-97286886D01*
X178841301Y-97363076D01*
X178727016Y-97401171D01*
X178536539Y-97401171D01*
X177625667Y-91521171D02*
X178082810Y-91521171D01*
X177854239Y-92321171D02*
X177854239Y-91521171D01*
X178273286Y-91521171D02*
X178806620Y-92321171D01*
X178806620Y-91521171D02*
X178273286Y-92321171D01*
X179263763Y-91521171D02*
X179339953Y-91521171D01*
X179416144Y-91559267D01*
X179454239Y-91597362D01*
X179492334Y-91673552D01*
X179530429Y-91825933D01*
X179530429Y-92016409D01*
X179492334Y-92168790D01*
X179454239Y-92244981D01*
X179416144Y-92283076D01*
X179339953Y-92321171D01*
X179263763Y-92321171D01*
X179187572Y-92283076D01*
X179149477Y-92244981D01*
X179111382Y-92168790D01*
X179073286Y-92016409D01*
X179073286Y-91825933D01*
X179111382Y-91673552D01*
X179149477Y-91597362D01*
X179187572Y-91559267D01*
X179263763Y-91521171D01*
X180444715Y-91483076D02*
X179759001Y-92511647D01*
X180711382Y-92321171D02*
X180711382Y-91521171D01*
X180901858Y-91521171D01*
X181016144Y-91559267D01*
X181092334Y-91635457D01*
X181130429Y-91711647D01*
X181168524Y-91864028D01*
X181168524Y-91978314D01*
X181130429Y-92130695D01*
X181092334Y-92206886D01*
X181016144Y-92283076D01*
X180901858Y-92321171D01*
X180711382Y-92321171D01*
X181435191Y-91521171D02*
X181930429Y-91521171D01*
X181663763Y-91825933D01*
X181778048Y-91825933D01*
X181854239Y-91864028D01*
X181892334Y-91902124D01*
X181930429Y-91978314D01*
X181930429Y-92168790D01*
X181892334Y-92244981D01*
X181854239Y-92283076D01*
X181778048Y-92321171D01*
X181549477Y-92321171D01*
X181473286Y-92283076D01*
X181435191Y-92244981D01*
X188582349Y-109682124D02*
X188315682Y-109682124D01*
X188315682Y-110101171D02*
X188315682Y-109301171D01*
X188696635Y-109301171D01*
X188925206Y-109301171D02*
X189458539Y-109301171D01*
X189115682Y-110101171D01*
X188525206Y-117302124D02*
X188639492Y-117340219D01*
X188677587Y-117378314D01*
X188715682Y-117454505D01*
X188715682Y-117568790D01*
X188677587Y-117644981D01*
X188639492Y-117683076D01*
X188563301Y-117721171D01*
X188258539Y-117721171D01*
X188258539Y-116921171D01*
X188525206Y-116921171D01*
X188601396Y-116959267D01*
X188639492Y-116997362D01*
X188677587Y-117073552D01*
X188677587Y-117149743D01*
X188639492Y-117225933D01*
X188601396Y-117264028D01*
X188525206Y-117302124D01*
X188258539Y-117302124D01*
X189020444Y-116997362D02*
X189058539Y-116959267D01*
X189134730Y-116921171D01*
X189325206Y-116921171D01*
X189401396Y-116959267D01*
X189439492Y-116997362D01*
X189477587Y-117073552D01*
X189477587Y-117149743D01*
X189439492Y-117264028D01*
X188982349Y-117721171D01*
X189477587Y-117721171D01*
X177374635Y-114762124D02*
X177641301Y-114762124D01*
X177755587Y-115181171D02*
X177374635Y-115181171D01*
X177374635Y-114381171D01*
X177755587Y-114381171D01*
X178441301Y-114381171D02*
X178288920Y-114381171D01*
X178212730Y-114419267D01*
X178174635Y-114457362D01*
X178098444Y-114571647D01*
X178060349Y-114724028D01*
X178060349Y-115028790D01*
X178098444Y-115104981D01*
X178136539Y-115143076D01*
X178212730Y-115181171D01*
X178365111Y-115181171D01*
X178441301Y-115143076D01*
X178479396Y-115104981D01*
X178517492Y-115028790D01*
X178517492Y-114838314D01*
X178479396Y-114762124D01*
X178441301Y-114724028D01*
X178365111Y-114685933D01*
X178212730Y-114685933D01*
X178136539Y-114724028D01*
X178098444Y-114762124D01*
X178060349Y-114838314D01*
X177336539Y-112641171D02*
X177336539Y-111841171D01*
X177527016Y-111841171D01*
X177641301Y-111879267D01*
X177717492Y-111955457D01*
X177755587Y-112031647D01*
X177793682Y-112184028D01*
X177793682Y-112298314D01*
X177755587Y-112450695D01*
X177717492Y-112526886D01*
X177641301Y-112603076D01*
X177527016Y-112641171D01*
X177336539Y-112641171D01*
X178060349Y-111841171D02*
X178593682Y-111841171D01*
X178250825Y-112641171D01*
X189552313Y-118794258D02*
X189646594Y-118747118D01*
X189693735Y-118747118D01*
X189764445Y-118770688D01*
X189835156Y-118841399D01*
X189858726Y-118912109D01*
X189858726Y-118959250D01*
X189835156Y-119029960D01*
X189646594Y-119218522D01*
X189151619Y-118723547D01*
X189316611Y-118558556D01*
X189387322Y-118534986D01*
X189434462Y-118534986D01*
X189505173Y-118558556D01*
X189552313Y-118605696D01*
X189575883Y-118676407D01*
X189575883Y-118723547D01*
X189552313Y-118794258D01*
X189387322Y-118959250D01*
X189858726Y-118016441D02*
X189764445Y-118110722D01*
X189740875Y-118181432D01*
X189740875Y-118228573D01*
X189764445Y-118346424D01*
X189835156Y-118464275D01*
X190023718Y-118652837D01*
X190094428Y-118676407D01*
X190141569Y-118676407D01*
X190212280Y-118652837D01*
X190306560Y-118558556D01*
X190330131Y-118487845D01*
X190330131Y-118440705D01*
X190306560Y-118369994D01*
X190188709Y-118252143D01*
X190117999Y-118228573D01*
X190070858Y-118228573D01*
X190000148Y-118252143D01*
X189905867Y-118346424D01*
X189882296Y-118417134D01*
X189882296Y-118464275D01*
X189905867Y-118534986D01*
X185661349Y-118272124D02*
X185394682Y-118272124D01*
X185394682Y-118691171D02*
X185394682Y-117891171D01*
X185775635Y-117891171D01*
X186499444Y-118691171D02*
X186042301Y-118691171D01*
X186270873Y-118691171D02*
X186270873Y-117891171D01*
X186194682Y-118005457D01*
X186118492Y-118081647D01*
X186042301Y-118119743D01*
X187782349Y-99141171D02*
X188049016Y-99941171D01*
X188315682Y-99141171D01*
X189039492Y-99864981D02*
X189001396Y-99903076D01*
X188887111Y-99941171D01*
X188810920Y-99941171D01*
X188696635Y-99903076D01*
X188620444Y-99826886D01*
X188582349Y-99750695D01*
X188544254Y-99598314D01*
X188544254Y-99484028D01*
X188582349Y-99331647D01*
X188620444Y-99255457D01*
X188696635Y-99179267D01*
X188810920Y-99141171D01*
X188887111Y-99141171D01*
X189001396Y-99179267D01*
X189039492Y-99217362D01*
X189839492Y-99864981D02*
X189801396Y-99903076D01*
X189687111Y-99941171D01*
X189610920Y-99941171D01*
X189496635Y-99903076D01*
X189420444Y-99826886D01*
X189382349Y-99750695D01*
X189344254Y-99598314D01*
X189344254Y-99484028D01*
X189382349Y-99331647D01*
X189420444Y-99255457D01*
X189496635Y-99179267D01*
X189610920Y-99141171D01*
X189687111Y-99141171D01*
X189801396Y-99179267D01*
X189839492Y-99217362D01*
X177336539Y-102481171D02*
X177336539Y-101681171D01*
X177527016Y-101681171D01*
X177641301Y-101719267D01*
X177717492Y-101795457D01*
X177755587Y-101871647D01*
X177793682Y-102024028D01*
X177793682Y-102138314D01*
X177755587Y-102290695D01*
X177717492Y-102366886D01*
X177641301Y-102443076D01*
X177527016Y-102481171D01*
X177336539Y-102481171D01*
X178555587Y-102481171D02*
X178098444Y-102481171D01*
X178327016Y-102481171D02*
X178327016Y-101681171D01*
X178250825Y-101795457D01*
X178174635Y-101871647D01*
X178098444Y-101909743D01*
X178604682Y-118479267D02*
X178704682Y-118512600D01*
X178738016Y-118545933D01*
X178771349Y-118612600D01*
X178771349Y-118712600D01*
X178738016Y-118779267D01*
X178704682Y-118812600D01*
X178638016Y-118845933D01*
X178371349Y-118845933D01*
X178371349Y-118145933D01*
X178604682Y-118145933D01*
X178671349Y-118179267D01*
X178704682Y-118212600D01*
X178738016Y-118279267D01*
X178738016Y-118345933D01*
X178704682Y-118412600D01*
X178671349Y-118445933D01*
X178604682Y-118479267D01*
X178371349Y-118479267D01*
X179004682Y-118145933D02*
X179471349Y-118145933D01*
X179171349Y-118845933D01*
X177603206Y-117302124D02*
X177717492Y-117340219D01*
X177755587Y-117378314D01*
X177793682Y-117454505D01*
X177793682Y-117568790D01*
X177755587Y-117644981D01*
X177717492Y-117683076D01*
X177641301Y-117721171D01*
X177336539Y-117721171D01*
X177336539Y-116921171D01*
X177603206Y-116921171D01*
X177679396Y-116959267D01*
X177717492Y-116997362D01*
X177755587Y-117073552D01*
X177755587Y-117149743D01*
X177717492Y-117225933D01*
X177679396Y-117264028D01*
X177603206Y-117302124D01*
X177336539Y-117302124D01*
X178479396Y-117187838D02*
X178479396Y-117721171D01*
X178288920Y-116883076D02*
X178098444Y-117454505D01*
X178593682Y-117454505D01*
X177336539Y-105021171D02*
X177336539Y-104221171D01*
X177527016Y-104221171D01*
X177641301Y-104259267D01*
X177717492Y-104335457D01*
X177755587Y-104411647D01*
X177793682Y-104564028D01*
X177793682Y-104678314D01*
X177755587Y-104830695D01*
X177717492Y-104906886D01*
X177641301Y-104983076D01*
X177527016Y-105021171D01*
X177336539Y-105021171D01*
X178288920Y-104221171D02*
X178365111Y-104221171D01*
X178441301Y-104259267D01*
X178479396Y-104297362D01*
X178517492Y-104373552D01*
X178555587Y-104525933D01*
X178555587Y-104716409D01*
X178517492Y-104868790D01*
X178479396Y-104944981D01*
X178441301Y-104983076D01*
X178365111Y-105021171D01*
X178288920Y-105021171D01*
X178212730Y-104983076D01*
X178174635Y-104944981D01*
X178136539Y-104868790D01*
X178098444Y-104716409D01*
X178098444Y-104525933D01*
X178136539Y-104373552D01*
X178174635Y-104297362D01*
X178212730Y-104259267D01*
X178288920Y-104221171D01*
X188582349Y-104602124D02*
X188315682Y-104602124D01*
X188315682Y-105021171D02*
X188315682Y-104221171D01*
X188696635Y-104221171D01*
X189382349Y-104221171D02*
X189001396Y-104221171D01*
X188963301Y-104602124D01*
X189001396Y-104564028D01*
X189077587Y-104525933D01*
X189268063Y-104525933D01*
X189344254Y-104564028D01*
X189382349Y-104602124D01*
X189420444Y-104678314D01*
X189420444Y-104868790D01*
X189382349Y-104944981D01*
X189344254Y-104983076D01*
X189268063Y-105021171D01*
X189077587Y-105021171D01*
X189001396Y-104983076D01*
X188963301Y-104944981D01*
X188525206Y-112222124D02*
X188639492Y-112260219D01*
X188677587Y-112298314D01*
X188715682Y-112374505D01*
X188715682Y-112488790D01*
X188677587Y-112564981D01*
X188639492Y-112603076D01*
X188563301Y-112641171D01*
X188258539Y-112641171D01*
X188258539Y-111841171D01*
X188525206Y-111841171D01*
X188601396Y-111879267D01*
X188639492Y-111917362D01*
X188677587Y-111993552D01*
X188677587Y-112069743D01*
X188639492Y-112145933D01*
X188601396Y-112184028D01*
X188525206Y-112222124D01*
X188258539Y-112222124D01*
X189477587Y-112641171D02*
X189020444Y-112641171D01*
X189249016Y-112641171D02*
X189249016Y-111841171D01*
X189172825Y-111955457D01*
X189096635Y-112031647D01*
X189020444Y-112069743D01*
X177336539Y-94861171D02*
X177336539Y-94061171D01*
X177527016Y-94061171D01*
X177641301Y-94099267D01*
X177717492Y-94175457D01*
X177755587Y-94251647D01*
X177793682Y-94404028D01*
X177793682Y-94518314D01*
X177755587Y-94670695D01*
X177717492Y-94746886D01*
X177641301Y-94823076D01*
X177527016Y-94861171D01*
X177336539Y-94861171D01*
X178098444Y-94137362D02*
X178136539Y-94099267D01*
X178212730Y-94061171D01*
X178403206Y-94061171D01*
X178479396Y-94099267D01*
X178517492Y-94137362D01*
X178555587Y-94213552D01*
X178555587Y-94289743D01*
X178517492Y-94404028D01*
X178060349Y-94861171D01*
X178555587Y-94861171D01*
X188525206Y-114762124D02*
X188639492Y-114800219D01*
X188677587Y-114838314D01*
X188715682Y-114914505D01*
X188715682Y-115028790D01*
X188677587Y-115104981D01*
X188639492Y-115143076D01*
X188563301Y-115181171D01*
X188258539Y-115181171D01*
X188258539Y-114381171D01*
X188525206Y-114381171D01*
X188601396Y-114419267D01*
X188639492Y-114457362D01*
X188677587Y-114533552D01*
X188677587Y-114609743D01*
X188639492Y-114685933D01*
X188601396Y-114724028D01*
X188525206Y-114762124D01*
X188258539Y-114762124D01*
X188982349Y-114381171D02*
X189477587Y-114381171D01*
X189210920Y-114685933D01*
X189325206Y-114685933D01*
X189401396Y-114724028D01*
X189439492Y-114762124D01*
X189477587Y-114838314D01*
X189477587Y-115028790D01*
X189439492Y-115104981D01*
X189401396Y-115143076D01*
X189325206Y-115181171D01*
X189096635Y-115181171D01*
X189020444Y-115143076D01*
X188982349Y-115104981D01*
X177336539Y-107561171D02*
X177336539Y-106761171D01*
X177527016Y-106761171D01*
X177641301Y-106799267D01*
X177717492Y-106875457D01*
X177755587Y-106951647D01*
X177793682Y-107104028D01*
X177793682Y-107218314D01*
X177755587Y-107370695D01*
X177717492Y-107446886D01*
X177641301Y-107523076D01*
X177527016Y-107561171D01*
X177336539Y-107561171D01*
X178479396Y-107027838D02*
X178479396Y-107561171D01*
X178288920Y-106723076D02*
X178098444Y-107294505D01*
X178593682Y-107294505D01*
X187654682Y-118479267D02*
X187421349Y-118479267D01*
X187421349Y-118845933D02*
X187421349Y-118145933D01*
X187754682Y-118145933D01*
X188154682Y-118145933D02*
X188221349Y-118145933D01*
X188288016Y-118179267D01*
X188321349Y-118212600D01*
X188354682Y-118279267D01*
X188388016Y-118412600D01*
X188388016Y-118579267D01*
X188354682Y-118712600D01*
X188321349Y-118779267D01*
X188288016Y-118812600D01*
X188221349Y-118845933D01*
X188154682Y-118845933D01*
X188088016Y-118812600D01*
X188054682Y-118779267D01*
X188021349Y-118712600D01*
X187988016Y-118579267D01*
X187988016Y-118412600D01*
X188021349Y-118279267D01*
X188054682Y-118212600D01*
X188088016Y-118179267D01*
X188154682Y-118145933D01*
X183254682Y-118614981D02*
X183216587Y-118653076D01*
X183102301Y-118691171D01*
X183026111Y-118691171D01*
X182911825Y-118653076D01*
X182835635Y-118576886D01*
X182797539Y-118500695D01*
X182759444Y-118348314D01*
X182759444Y-118234028D01*
X182797539Y-118081647D01*
X182835635Y-118005457D01*
X182911825Y-117929267D01*
X183026111Y-117891171D01*
X183102301Y-117891171D01*
X183216587Y-117929267D01*
X183254682Y-117967362D01*
X183521349Y-117891171D02*
X184054682Y-117891171D01*
X183711825Y-118691171D01*
X188239492Y-94099267D02*
X188163301Y-94061171D01*
X188049016Y-94061171D01*
X187934730Y-94099267D01*
X187858539Y-94175457D01*
X187820444Y-94251647D01*
X187782349Y-94404028D01*
X187782349Y-94518314D01*
X187820444Y-94670695D01*
X187858539Y-94746886D01*
X187934730Y-94823076D01*
X188049016Y-94861171D01*
X188125206Y-94861171D01*
X188239492Y-94823076D01*
X188277587Y-94784981D01*
X188277587Y-94518314D01*
X188125206Y-94518314D01*
X188620444Y-94861171D02*
X188620444Y-94061171D01*
X189077587Y-94861171D01*
X189077587Y-94061171D01*
X189458539Y-94861171D02*
X189458539Y-94061171D01*
X189649016Y-94061171D01*
X189763301Y-94099267D01*
X189839492Y-94175457D01*
X189877587Y-94251647D01*
X189915682Y-94404028D01*
X189915682Y-94518314D01*
X189877587Y-94670695D01*
X189839492Y-94746886D01*
X189763301Y-94823076D01*
X189649016Y-94861171D01*
X189458539Y-94861171D01*
X188525206Y-91902124D02*
X188639492Y-91940219D01*
X188677587Y-91978314D01*
X188715682Y-92054505D01*
X188715682Y-92168790D01*
X188677587Y-92244981D01*
X188639492Y-92283076D01*
X188563301Y-92321171D01*
X188258539Y-92321171D01*
X188258539Y-91521171D01*
X188525206Y-91521171D01*
X188601396Y-91559267D01*
X188639492Y-91597362D01*
X188677587Y-91673552D01*
X188677587Y-91749743D01*
X188639492Y-91825933D01*
X188601396Y-91864028D01*
X188525206Y-91902124D01*
X188258539Y-91902124D01*
X189210920Y-91521171D02*
X189287111Y-91521171D01*
X189363301Y-91559267D01*
X189401396Y-91597362D01*
X189439492Y-91673552D01*
X189477587Y-91825933D01*
X189477587Y-92016409D01*
X189439492Y-92168790D01*
X189401396Y-92244981D01*
X189363301Y-92283076D01*
X189287111Y-92321171D01*
X189210920Y-92321171D01*
X189134730Y-92283076D01*
X189096635Y-92244981D01*
X189058539Y-92168790D01*
X189020444Y-92016409D01*
X189020444Y-91825933D01*
X189058539Y-91673552D01*
X189096635Y-91597362D01*
X189134730Y-91559267D01*
X189210920Y-91521171D01*
X177153007Y-118864969D02*
X177105867Y-118770688D01*
X177105867Y-118723547D01*
X177129437Y-118652837D01*
X177200148Y-118582126D01*
X177270858Y-118558556D01*
X177317999Y-118558556D01*
X177388709Y-118582126D01*
X177577271Y-118770688D01*
X177082296Y-119265663D01*
X176917305Y-119100671D01*
X176893735Y-119029960D01*
X176893735Y-118982820D01*
X176917305Y-118912109D01*
X176964445Y-118864969D01*
X177035156Y-118841399D01*
X177082296Y-118841399D01*
X177153007Y-118864969D01*
X177317999Y-119029960D01*
X176351619Y-118534986D02*
X176587322Y-118770688D01*
X176846594Y-118558556D01*
X176799454Y-118558556D01*
X176728743Y-118534986D01*
X176610892Y-118417134D01*
X176587322Y-118346424D01*
X176587322Y-118299283D01*
X176610892Y-118228573D01*
X176728743Y-118110722D01*
X176799454Y-118087151D01*
X176846594Y-118087151D01*
X176917305Y-118110722D01*
X177035156Y-118228573D01*
X177058726Y-118299283D01*
X177058726Y-118346424D01*
X177317492Y-99179267D02*
X177241301Y-99141171D01*
X177127016Y-99141171D01*
X177012730Y-99179267D01*
X176936539Y-99255457D01*
X176898444Y-99331647D01*
X176860349Y-99484028D01*
X176860349Y-99598314D01*
X176898444Y-99750695D01*
X176936539Y-99826886D01*
X177012730Y-99903076D01*
X177127016Y-99941171D01*
X177203206Y-99941171D01*
X177317492Y-99903076D01*
X177355587Y-99864981D01*
X177355587Y-99598314D01*
X177203206Y-99598314D01*
X177698444Y-99941171D02*
X177698444Y-99141171D01*
X178155587Y-99941171D01*
X178155587Y-99141171D01*
X178536539Y-99941171D02*
X178536539Y-99141171D01*
X178727016Y-99141171D01*
X178841301Y-99179267D01*
X178917492Y-99255457D01*
X178955587Y-99331647D01*
X178993682Y-99484028D01*
X178993682Y-99598314D01*
X178955587Y-99750695D01*
X178917492Y-99826886D01*
X178841301Y-99903076D01*
X178727016Y-99941171D01*
X178536539Y-99941171D01*
X180257539Y-118691171D02*
X180257539Y-117891171D01*
X180448016Y-117891171D01*
X180562301Y-117929267D01*
X180638492Y-118005457D01*
X180676587Y-118081647D01*
X180714682Y-118234028D01*
X180714682Y-118348314D01*
X180676587Y-118500695D01*
X180638492Y-118576886D01*
X180562301Y-118653076D01*
X180448016Y-118691171D01*
X180257539Y-118691171D01*
X181438492Y-117891171D02*
X181057539Y-117891171D01*
X181019444Y-118272124D01*
X181057539Y-118234028D01*
X181133730Y-118195933D01*
X181324206Y-118195933D01*
X181400396Y-118234028D01*
X181438492Y-118272124D01*
X181476587Y-118348314D01*
X181476587Y-118538790D01*
X181438492Y-118614981D01*
X181400396Y-118653076D01*
X181324206Y-118691171D01*
X181133730Y-118691171D01*
X181057539Y-118653076D01*
X181019444Y-118614981D01*
X188587802Y-97333076D02*
X188702088Y-97371171D01*
X188892564Y-97371171D01*
X188968755Y-97333076D01*
X189006850Y-97294981D01*
X189044945Y-97218790D01*
X189044945Y-97142600D01*
X189006850Y-97066409D01*
X188968755Y-97028314D01*
X188892564Y-96990219D01*
X188740183Y-96952124D01*
X188663993Y-96914028D01*
X188625897Y-96875933D01*
X188587802Y-96799743D01*
X188587802Y-96723552D01*
X188625897Y-96647362D01*
X188663993Y-96609267D01*
X188740183Y-96571171D01*
X188930659Y-96571171D01*
X189044945Y-96609267D01*
X189273516Y-96571171D02*
X189730659Y-96571171D01*
X189502088Y-97371171D02*
X189502088Y-96571171D01*
X188582349Y-107142124D02*
X188315682Y-107142124D01*
X188315682Y-107561171D02*
X188315682Y-106761171D01*
X188696635Y-106761171D01*
X189344254Y-106761171D02*
X189191873Y-106761171D01*
X189115682Y-106799267D01*
X189077587Y-106837362D01*
X189001396Y-106951647D01*
X188963301Y-107104028D01*
X188963301Y-107408790D01*
X189001396Y-107484981D01*
X189039492Y-107523076D01*
X189115682Y-107561171D01*
X189268063Y-107561171D01*
X189344254Y-107523076D01*
X189382349Y-107484981D01*
X189420444Y-107408790D01*
X189420444Y-107218314D01*
X189382349Y-107142124D01*
X189344254Y-107104028D01*
X189268063Y-107065933D01*
X189115682Y-107065933D01*
X189039492Y-107104028D01*
X189001396Y-107142124D01*
X188963301Y-107218314D01*
X177793682Y-110024981D02*
X177755587Y-110063076D01*
X177641301Y-110101171D01*
X177565111Y-110101171D01*
X177450825Y-110063076D01*
X177374635Y-109986886D01*
X177336539Y-109910695D01*
X177298444Y-109758314D01*
X177298444Y-109644028D01*
X177336539Y-109491647D01*
X177374635Y-109415457D01*
X177450825Y-109339267D01*
X177565111Y-109301171D01*
X177641301Y-109301171D01*
X177755587Y-109339267D01*
X177793682Y-109377362D01*
X178479396Y-109301171D02*
X178327016Y-109301171D01*
X178250825Y-109339267D01*
X178212730Y-109377362D01*
X178136539Y-109491647D01*
X178098444Y-109644028D01*
X178098444Y-109948790D01*
X178136539Y-110024981D01*
X178174635Y-110063076D01*
X178250825Y-110101171D01*
X178403206Y-110101171D01*
X178479396Y-110063076D01*
X178517492Y-110024981D01*
X178555587Y-109948790D01*
X178555587Y-109758314D01*
X178517492Y-109682124D01*
X178479396Y-109644028D01*
X178403206Y-109605933D01*
X178250825Y-109605933D01*
X178174635Y-109644028D01*
X178136539Y-109682124D01*
X178098444Y-109758314D01*
%TO.C,SW1*%
X201397764Y-54637263D02*
X201367297Y-54389127D01*
X195740251Y-55331918D02*
X195709784Y-55083782D01*
X195350270Y-52155771D02*
X195380737Y-52403907D01*
X195350270Y-52155771D02*
X201007783Y-51461116D01*
X195740251Y-55331918D02*
X201397764Y-54637263D01*
X201007783Y-51461116D02*
X201038250Y-51709252D01*
D11*
%TO.C,U1*%
X174498016Y-88149267D02*
X174498016Y-90689267D01*
X177038016Y-90689267D02*
X177038016Y-93229267D01*
X192278016Y-88149267D02*
X174498016Y-88149267D01*
X177038016Y-90689267D02*
X174498016Y-90689267D01*
X174498016Y-121169267D02*
X192278016Y-121169267D01*
X177038016Y-93229267D02*
X174498016Y-93229267D01*
X192278016Y-121169267D02*
X192278016Y-90689267D01*
X174498016Y-90689267D02*
X174498016Y-121169267D01*
X192278016Y-90689267D02*
X192278016Y-88149267D01*
D10*
X188319584Y-96568627D02*
X188319584Y-96668627D01*
X188319584Y-96668627D02*
X187819584Y-96668627D01*
X187819584Y-96668627D02*
X187819584Y-96568627D01*
X187819584Y-96568627D02*
X188319584Y-96568627D01*
G36*
X188319584Y-96668627D02*
G01*
X187819584Y-96668627D01*
X187819584Y-96568627D01*
X188319584Y-96568627D01*
X188319584Y-96668627D01*
G37*
X188319584Y-96668627D02*
X187819584Y-96668627D01*
X187819584Y-96568627D01*
X188319584Y-96568627D01*
X188319584Y-96668627D01*
X188319584Y-96568627D02*
X188319584Y-96868627D01*
X188319584Y-96868627D02*
X188219584Y-96868627D01*
X188219584Y-96868627D02*
X188219584Y-96568627D01*
X188219584Y-96568627D02*
X188319584Y-96568627D01*
G36*
X188319584Y-96868627D02*
G01*
X188219584Y-96868627D01*
X188219584Y-96568627D01*
X188319584Y-96568627D01*
X188319584Y-96868627D01*
G37*
X188319584Y-96868627D02*
X188219584Y-96868627D01*
X188219584Y-96568627D01*
X188319584Y-96568627D01*
X188319584Y-96868627D01*
X188119584Y-96968627D02*
X188119584Y-97068627D01*
X188119584Y-97068627D02*
X188019584Y-97068627D01*
X188019584Y-97068627D02*
X188019584Y-96968627D01*
X188019584Y-96968627D02*
X188119584Y-96968627D01*
G36*
X188119584Y-97068627D02*
G01*
X188019584Y-97068627D01*
X188019584Y-96968627D01*
X188119584Y-96968627D01*
X188119584Y-97068627D01*
G37*
X188119584Y-97068627D02*
X188019584Y-97068627D01*
X188019584Y-96968627D01*
X188119584Y-96968627D01*
X188119584Y-97068627D01*
X187919584Y-96568627D02*
X187919584Y-97368627D01*
X187919584Y-97368627D02*
X187819584Y-97368627D01*
X187819584Y-97368627D02*
X187819584Y-96568627D01*
X187819584Y-96568627D02*
X187919584Y-96568627D01*
G36*
X187919584Y-97368627D02*
G01*
X187819584Y-97368627D01*
X187819584Y-96568627D01*
X187919584Y-96568627D01*
X187919584Y-97368627D01*
G37*
X187919584Y-97368627D02*
X187819584Y-97368627D01*
X187819584Y-96568627D01*
X187919584Y-96568627D01*
X187919584Y-97368627D01*
X188319584Y-97168627D02*
X188319584Y-97368627D01*
X188319584Y-97368627D02*
X188219584Y-97368627D01*
X188219584Y-97368627D02*
X188219584Y-97168627D01*
X188219584Y-97168627D02*
X188319584Y-97168627D01*
G36*
X188319584Y-97368627D02*
G01*
X188219584Y-97368627D01*
X188219584Y-97168627D01*
X188319584Y-97168627D01*
X188319584Y-97368627D01*
G37*
X188319584Y-97368627D02*
X188219584Y-97368627D01*
X188219584Y-97168627D01*
X188319584Y-97168627D01*
X188319584Y-97368627D01*
D12*
%TO.C,D28*%
X159468381Y-142804173D02*
X158454670Y-141682839D01*
X159469158Y-142804362D02*
X159857827Y-142898894D01*
X158454670Y-141682839D02*
X158052910Y-143334683D01*
X159468381Y-142804173D02*
X158052910Y-143334683D01*
X159658222Y-142027023D02*
X159280095Y-143581700D01*
%TO.C,D11*%
X150175831Y-76761272D02*
X150564500Y-76855804D01*
X149161343Y-75639749D02*
X148759583Y-77291593D01*
X150364895Y-75983933D02*
X149986768Y-77538610D01*
X150175054Y-76761083D02*
X149161343Y-75639749D01*
X150175054Y-76761083D02*
X148759583Y-77291593D01*
%TO.C,D54*%
X215406993Y-147107967D02*
X215795662Y-147013435D01*
X213990745Y-146577646D02*
X214392505Y-148229490D01*
X215406216Y-147108156D02*
X213990745Y-146577646D01*
X215406216Y-147108156D02*
X214392505Y-148229490D01*
X215217930Y-146330629D02*
X215596057Y-147885306D01*
%TO.C,D40*%
X299246663Y-60751982D02*
X299648423Y-62403826D01*
X300473848Y-60504965D02*
X300851975Y-62059642D01*
X300662911Y-61282303D02*
X301051580Y-61187771D01*
X300662134Y-61282492D02*
X299648423Y-62403826D01*
X300662134Y-61282492D02*
X299246663Y-60751982D01*
%TO.C,D24*%
X158003913Y-119353798D02*
X157602153Y-121005642D01*
X159207465Y-119697982D02*
X158829338Y-121252659D01*
X159018401Y-120475321D02*
X159407070Y-120569853D01*
X159017624Y-120475132D02*
X157602153Y-121005642D01*
X159017624Y-120475132D02*
X158003913Y-119353798D01*
%TO.C,D29*%
X206910504Y-78856578D02*
X207299173Y-78762046D01*
X206909727Y-78856767D02*
X205896016Y-79978101D01*
X205494256Y-78326257D02*
X205896016Y-79978101D01*
X206721441Y-78079240D02*
X207099568Y-79633917D01*
X206909727Y-78856767D02*
X205494256Y-78326257D01*
%TO.C,D8*%
X93503416Y-67944151D02*
X92489705Y-66822817D01*
X93503416Y-67944151D02*
X92087945Y-68474661D01*
X92489705Y-66822817D02*
X92087945Y-68474661D01*
X93693257Y-67167001D02*
X93315130Y-68721678D01*
X93504193Y-67944340D02*
X93892862Y-68038872D01*
%TO.C,D37*%
X243451023Y-67877990D02*
X243839692Y-67783458D01*
X243450246Y-67878179D02*
X242436535Y-68999513D01*
X242034775Y-67347669D02*
X242436535Y-68999513D01*
X243450246Y-67878179D02*
X242034775Y-67347669D01*
X243261960Y-67100652D02*
X243640087Y-68655329D01*
%TO.C,D43*%
X251607315Y-102490897D02*
X250191844Y-101960387D01*
X251608092Y-102490708D02*
X251996761Y-102396176D01*
X251419029Y-101713370D02*
X251797156Y-103268047D01*
X251607315Y-102490897D02*
X250593604Y-103612231D01*
X250191844Y-101960387D02*
X250593604Y-103612231D01*
%TO.C,D49*%
X252207592Y-104958948D02*
X251193881Y-106080282D01*
X252207592Y-104958948D02*
X250792121Y-104428438D01*
X252019306Y-104181421D02*
X252397433Y-105736098D01*
X250792121Y-104428438D02*
X251193881Y-106080282D01*
X252208369Y-104958759D02*
X252597038Y-104864227D01*
%TO.C,D12*%
X168145176Y-83484401D02*
X167131465Y-82363067D01*
X168335017Y-82707251D02*
X167956890Y-84261928D01*
X168145176Y-83484401D02*
X166729705Y-84014911D01*
X168145953Y-83484590D02*
X168534622Y-83579122D01*
X167131465Y-82363067D02*
X166729705Y-84014911D01*
%TO.C,D47*%
X215098682Y-117815050D02*
X215500442Y-119466894D01*
X216325867Y-117568033D02*
X216703994Y-119122710D01*
X216514153Y-118345560D02*
X215098682Y-117815050D01*
X216514153Y-118345560D02*
X215500442Y-119466894D01*
X216514930Y-118345371D02*
X216903599Y-118250839D01*
%TO.C,D23*%
X159617900Y-118007083D02*
X158202429Y-118537593D01*
X158604189Y-116885749D02*
X158202429Y-118537593D01*
X159618677Y-118007272D02*
X160007346Y-118101804D01*
X159807741Y-117229933D02*
X159429614Y-118784610D01*
X159617900Y-118007083D02*
X158604189Y-116885749D01*
%TO.C,D39*%
X282152539Y-65784378D02*
X282541208Y-65689846D01*
X282151762Y-65784567D02*
X281138051Y-66905901D01*
X280736291Y-65254057D02*
X281138051Y-66905901D01*
X282151762Y-65784567D02*
X280736291Y-65254057D01*
X281963476Y-65007040D02*
X282341603Y-66561717D01*
%TO.C,D55*%
X230688262Y-136856151D02*
X229674551Y-137977485D01*
X230689039Y-136855962D02*
X231077708Y-136761430D01*
X230688262Y-136856151D02*
X229272791Y-136325641D01*
X229272791Y-136325641D02*
X229674551Y-137977485D01*
X230499976Y-136078624D02*
X230878103Y-137633301D01*
%TO.C,D50*%
X271445766Y-102371092D02*
X271834435Y-102276560D01*
X271256703Y-101593754D02*
X271634830Y-103148431D01*
X271444989Y-102371281D02*
X270431278Y-103492615D01*
X270029518Y-101840771D02*
X270431278Y-103492615D01*
X271444989Y-102371281D02*
X270029518Y-101840771D01*
%TO.C,D16*%
X84253238Y-104905056D02*
X84641907Y-104999588D01*
X84442302Y-104127717D02*
X84064175Y-105682394D01*
X84252461Y-104904867D02*
X83238750Y-103783533D01*
X83238750Y-103783533D02*
X82836990Y-105435377D01*
X84252461Y-104904867D02*
X82836990Y-105435377D01*
%TO.C,D30*%
X224880624Y-72133259D02*
X225269293Y-72038727D01*
X223464376Y-71602938D02*
X223866136Y-73254782D01*
X224879847Y-72133448D02*
X223464376Y-71602938D01*
X224879847Y-72133448D02*
X223866136Y-73254782D01*
X224691561Y-71355921D02*
X225069688Y-72910598D01*
%TO.C,D31*%
X242850748Y-65409938D02*
X243239417Y-65315406D01*
X241434500Y-64879617D02*
X241836260Y-66531461D01*
X242849971Y-65410127D02*
X241434500Y-64879617D01*
X242661685Y-64632600D02*
X243039812Y-66187277D01*
X242849971Y-65410127D02*
X241836260Y-66531461D01*
%TO.C,D27*%
X154632479Y-147640301D02*
X153618768Y-146518967D01*
X154633256Y-147640490D02*
X155021925Y-147735022D01*
X154822320Y-146863151D02*
X154444193Y-148417828D01*
X154632479Y-147640301D02*
X153217008Y-148170811D01*
X153618768Y-146518967D02*
X153217008Y-148170811D01*
%TO.C,D26*%
X143706403Y-137834376D02*
X143304643Y-139486220D01*
X144720891Y-138955899D02*
X145109560Y-139050431D01*
X144909955Y-138178560D02*
X144531828Y-139733237D01*
X144720114Y-138955710D02*
X143706403Y-137834376D01*
X144720114Y-138955710D02*
X143304643Y-139486220D01*
%TO.C,D44*%
X270904740Y-100150040D02*
X269489269Y-99619530D01*
X270716454Y-99372513D02*
X271094581Y-100927190D01*
X270905517Y-100149851D02*
X271294186Y-100055319D01*
X270904740Y-100150040D02*
X269891029Y-101271374D01*
X269489269Y-99619530D02*
X269891029Y-101271374D01*
%TO.C,D41*%
X215913876Y-115877509D02*
X214498405Y-115346999D01*
X215913876Y-115877509D02*
X214900165Y-116998843D01*
X215914653Y-115877320D02*
X216303322Y-115782788D01*
X215725590Y-115099982D02*
X216103717Y-116654659D01*
X214498405Y-115346999D02*
X214900165Y-116998843D01*
%TO.C,D25*%
X126749992Y-132232390D02*
X125736281Y-131111056D01*
X126749992Y-132232390D02*
X125334521Y-132762900D01*
X126750769Y-132232579D02*
X127139438Y-132327111D01*
X126939833Y-131455240D02*
X126561706Y-133009917D01*
X125736281Y-131111056D02*
X125334521Y-132762900D01*
%TO.C,D42*%
X233884000Y-109154191D02*
X232870289Y-110275525D01*
X233695714Y-108376664D02*
X234073841Y-109931341D01*
X233884777Y-109154002D02*
X234273446Y-109059470D01*
X232468529Y-108623681D02*
X232870289Y-110275525D01*
X233884000Y-109154191D02*
X232468529Y-108623681D01*
%TO.C,D33*%
X280136015Y-62786005D02*
X280537775Y-64437849D01*
X281363200Y-62538988D02*
X281741327Y-64093665D01*
X281551486Y-63316515D02*
X280136015Y-62786005D01*
X281552263Y-63316326D02*
X281940932Y-63221794D01*
X281551486Y-63316515D02*
X280537775Y-64437849D01*
%TO.C,D10*%
X132271372Y-69230599D02*
X131893245Y-70785276D01*
X132082308Y-70007938D02*
X132470977Y-70102470D01*
X132081531Y-70007749D02*
X131067820Y-68886415D01*
X131067820Y-68886415D02*
X130666060Y-70538259D01*
X132081531Y-70007749D02*
X130666060Y-70538259D01*
%TO.C,D56*%
X248470096Y-129355301D02*
X248848223Y-130909978D01*
X248659159Y-130132639D02*
X249047828Y-130038107D01*
X248658382Y-130132828D02*
X247242911Y-129602318D01*
X247242911Y-129602318D02*
X247644671Y-131254162D01*
X248658382Y-130132828D02*
X247644671Y-131254162D01*
%TO.C,D38*%
X261085396Y-65066838D02*
X261487156Y-66718682D01*
X262312581Y-64819821D02*
X262690708Y-66374498D01*
X262500867Y-65597348D02*
X261487156Y-66718682D01*
X262501644Y-65597159D02*
X262890313Y-65502627D01*
X262500867Y-65597348D02*
X261085396Y-65066838D01*
%TO.C,D6*%
X168935294Y-80239206D02*
X168557167Y-81793883D01*
X168746230Y-81016545D02*
X169134899Y-81111077D01*
X168745453Y-81016356D02*
X167731742Y-79895022D01*
X168745453Y-81016356D02*
X167329982Y-81546866D01*
X167731742Y-79895022D02*
X167329982Y-81546866D01*
%TO.C,D17*%
X104504410Y-102249788D02*
X104893079Y-102344320D01*
X104693474Y-101472449D02*
X104315347Y-103027126D01*
X103489922Y-101128265D02*
X103088162Y-102780109D01*
X104503633Y-102249599D02*
X103088162Y-102780109D01*
X104503633Y-102249599D02*
X103489922Y-101128265D01*
%TO.C,D48*%
X234484274Y-111622238D02*
X233470563Y-112743572D01*
X234485051Y-111622049D02*
X234873720Y-111527517D01*
X234295988Y-110844711D02*
X234674115Y-112399388D01*
X234484274Y-111622238D02*
X233068803Y-111091728D01*
X233068803Y-111091728D02*
X233470563Y-112743572D01*
%TO.C,D2*%
X94104471Y-65476293D02*
X94493140Y-65570825D01*
X94103694Y-65476104D02*
X92688223Y-66006614D01*
X93089983Y-64354770D02*
X92688223Y-66006614D01*
X94103694Y-65476104D02*
X93089983Y-64354770D01*
X94293535Y-64698954D02*
X93915408Y-66253631D01*
%TO.C,D51*%
X291156689Y-102805119D02*
X291545358Y-102710587D01*
X290967626Y-102027781D02*
X291345753Y-103582458D01*
X291155912Y-102805308D02*
X290142201Y-103926642D01*
X291155912Y-102805308D02*
X289740441Y-102274798D01*
X289740441Y-102274798D02*
X290142201Y-103926642D01*
%TO.C,D22*%
X140924100Y-113721799D02*
X139910389Y-112600465D01*
X140924877Y-113721988D02*
X141313546Y-113816520D01*
X140924100Y-113721799D02*
X139508629Y-114252309D01*
X139910389Y-112600465D02*
X139508629Y-114252309D01*
X141113941Y-112944649D02*
X140735814Y-114499326D01*
%TO.C,D9*%
X112140603Y-66635599D02*
X111738843Y-68287443D01*
X113155091Y-67757122D02*
X113543760Y-67851654D01*
X113154314Y-67756933D02*
X111738843Y-68287443D01*
X113344155Y-66979783D02*
X112966028Y-68534460D01*
X113154314Y-67756933D02*
X112140603Y-66635599D01*
%TO.C,D36*%
X224064654Y-74070989D02*
X224466414Y-75722833D01*
X225480125Y-74601499D02*
X224064654Y-74070989D01*
X225480902Y-74601310D02*
X225869571Y-74506778D01*
X225480125Y-74601499D02*
X224466414Y-75722833D01*
X225291839Y-73823972D02*
X225669966Y-75378649D01*
%TO.C,D46*%
X308877723Y-95057656D02*
X309255850Y-96612333D01*
X309066009Y-95835183D02*
X307650538Y-95304673D01*
X307650538Y-95304673D02*
X308052298Y-96956517D01*
X309066786Y-95834994D02*
X309455455Y-95740462D01*
X309066009Y-95835183D02*
X308052298Y-96956517D01*
%TO.C,D1*%
X75783164Y-60196881D02*
X75405037Y-61751558D01*
X75593323Y-60974031D02*
X74177852Y-61504541D01*
X74579612Y-59852697D02*
X74177852Y-61504541D01*
X75593323Y-60974031D02*
X74579612Y-59852697D01*
X75594100Y-60974220D02*
X75982769Y-61068752D01*
%TO.C,D34*%
X298646385Y-58283932D02*
X299048145Y-59935776D01*
X300061856Y-58814442D02*
X298646385Y-58283932D01*
X299873570Y-58036915D02*
X300251697Y-59591592D01*
X300061856Y-58814442D02*
X299048145Y-59935776D01*
X300062633Y-58814253D02*
X300451302Y-58719721D01*
%TO.C,D21*%
X141525153Y-111253938D02*
X141913822Y-111348470D01*
X141524376Y-111253749D02*
X140108905Y-111784259D01*
X141524376Y-111253749D02*
X140510665Y-110132415D01*
X141714217Y-110476599D02*
X141336090Y-112031276D01*
X140510665Y-110132415D02*
X140108905Y-111784259D01*
%TO.C,D20*%
X121940265Y-105877144D02*
X121538505Y-107528988D01*
X122954753Y-106998667D02*
X123343422Y-107093199D01*
X122953976Y-106998478D02*
X121940265Y-105877144D01*
X122953976Y-106998478D02*
X121538505Y-107528988D01*
X123143817Y-106221328D02*
X122765690Y-107776005D01*
%TO.C,D45*%
X290555637Y-100337259D02*
X289140166Y-99806749D01*
X289140166Y-99806749D02*
X289541926Y-101458593D01*
X290555637Y-100337259D02*
X289541926Y-101458593D01*
X290367351Y-99559732D02*
X290745478Y-101114409D01*
X290556414Y-100337070D02*
X290945083Y-100242538D01*
%TO.C,D3*%
X113754591Y-65288885D02*
X112339120Y-65819395D01*
X112740880Y-64167551D02*
X112339120Y-65819395D01*
X113755368Y-65289074D02*
X114144037Y-65383606D01*
X113944432Y-64511735D02*
X113566305Y-66066412D01*
X113754591Y-65288885D02*
X112740880Y-64167551D01*
%TO.C,D14*%
X64728379Y-99281455D02*
X64326619Y-100933299D01*
X65931931Y-99625639D02*
X65553804Y-101180316D01*
X65742867Y-100402978D02*
X66131536Y-100497510D01*
X65742090Y-100402789D02*
X64326619Y-100933299D01*
X65742090Y-100402789D02*
X64728379Y-99281455D01*
%TO.C,D32*%
X260485118Y-62598789D02*
X260886878Y-64250633D01*
X261712303Y-62351772D02*
X262090430Y-63906449D01*
X261900589Y-63129299D02*
X260886878Y-64250633D01*
X261900589Y-63129299D02*
X260485118Y-62598789D01*
X261901366Y-63129110D02*
X262290035Y-63034578D01*
%TO.C,D52*%
X309667059Y-98303044D02*
X310055728Y-98208512D01*
X308250811Y-97772723D02*
X308652571Y-99424567D01*
X309477996Y-97525706D02*
X309856123Y-99080383D01*
X309666282Y-98303233D02*
X308250811Y-97772723D01*
X309666282Y-98303233D02*
X308652571Y-99424567D01*
%TO.C,D19*%
X123555032Y-104530619D02*
X123943701Y-104625151D01*
X122540544Y-103409096D02*
X122138784Y-105060940D01*
X123554255Y-104530430D02*
X122540544Y-103409096D01*
X123554255Y-104530430D02*
X122138784Y-105060940D01*
X123744096Y-103753280D02*
X123365969Y-105307957D01*
%TO.C,D13*%
X66532209Y-97157592D02*
X66154082Y-98712269D01*
X66343145Y-97934931D02*
X66731814Y-98029463D01*
X66342368Y-97934742D02*
X64926897Y-98465252D01*
X65328657Y-96813408D02*
X64926897Y-98465252D01*
X66342368Y-97934742D02*
X65328657Y-96813408D01*
%TO.C,D53*%
X210943867Y-141658365D02*
X209528396Y-141127855D01*
X210755581Y-140880838D02*
X211133708Y-142435515D01*
X210943867Y-141658365D02*
X209930156Y-142779699D01*
X210944644Y-141658176D02*
X211333313Y-141563644D01*
X209528396Y-141127855D02*
X209930156Y-142779699D01*
%TO.C,D5*%
X149761621Y-73171702D02*
X149359861Y-74823546D01*
X150776109Y-74293225D02*
X151164778Y-74387757D01*
X150775332Y-74293036D02*
X149761621Y-73171702D01*
X150775332Y-74293036D02*
X149359861Y-74823546D01*
X150965173Y-73515886D02*
X150587046Y-75070563D01*
%TO.C,D18*%
X103904136Y-104717836D02*
X104292805Y-104812368D01*
X104093200Y-103940497D02*
X103715073Y-105495174D01*
X103903359Y-104717647D02*
X102889648Y-103596313D01*
X103903359Y-104717647D02*
X102487888Y-105248157D01*
X102889648Y-103596313D02*
X102487888Y-105248157D01*
%TO.C,D15*%
X84852739Y-102436817D02*
X83839028Y-101315483D01*
X85042580Y-101659667D02*
X84664453Y-103214344D01*
X84852739Y-102436817D02*
X83437268Y-102967327D01*
X84853516Y-102437006D02*
X85242185Y-102531538D01*
X83839028Y-101315483D02*
X83437268Y-102967327D01*
%TO.C,D4*%
X132681808Y-67539702D02*
X131668097Y-66418368D01*
X132871649Y-66762552D02*
X132493522Y-68317229D01*
X131668097Y-66418368D02*
X131266337Y-68070212D01*
X132681808Y-67539702D02*
X131266337Y-68070212D01*
X132682585Y-67539891D02*
X133071254Y-67634423D01*
%TO.C,D7*%
X74993046Y-63442077D02*
X73979335Y-62320743D01*
X73979335Y-62320743D02*
X73577575Y-63972587D01*
X74993046Y-63442077D02*
X73577575Y-63972587D01*
X74993823Y-63442266D02*
X75382492Y-63536798D01*
X75182887Y-62664927D02*
X74804760Y-64219604D01*
%TO.C,D35*%
X207510780Y-81324630D02*
X207899449Y-81230098D01*
X206094532Y-80794309D02*
X206496292Y-82446153D01*
X207510003Y-81324819D02*
X206496292Y-82446153D01*
X207321717Y-80547292D02*
X207699844Y-82101969D01*
X207510003Y-81324819D02*
X206094532Y-80794309D01*
%TD*%
D13*
%TO.C,U1*%
X175768016Y-91959267D03*
D14*
X175768016Y-94499267D03*
X175768016Y-97039267D03*
X175768016Y-99579267D03*
X175768016Y-102119267D03*
X175768016Y-104659267D03*
X175768016Y-107199267D03*
X175768016Y-109739267D03*
X175768016Y-112279267D03*
X175768016Y-114819267D03*
X175768016Y-117359267D03*
X175996616Y-119899267D03*
X191008016Y-119899267D03*
X191008016Y-117359267D03*
X191008016Y-114819267D03*
X191008016Y-112279267D03*
X191008016Y-109739267D03*
X191008016Y-107199267D03*
X191008016Y-104659267D03*
X191008016Y-102119267D03*
X191008016Y-99579267D03*
X191008016Y-97039267D03*
X191008016Y-94499267D03*
X191008016Y-91959267D03*
X178308016Y-119899267D03*
X180848016Y-119899267D03*
X183388016Y-119899267D03*
X185928016Y-119899267D03*
X188468016Y-119899267D03*
%TD*%
%LPC*%
D15*
%TO.C,MX29*%
X201800513Y-66402141D03*
X196230666Y-70370883D03*
D16*
X205469116Y-70737964D03*
X195596918Y-73139070D03*
D17*
X200533017Y-71938517D03*
%TD*%
D15*
%TO.C,MX55*%
X229532324Y-140474797D03*
D17*
X228264828Y-146011173D03*
D16*
X223328729Y-147211726D03*
D15*
X223962477Y-144443539D03*
D16*
X233200927Y-144810620D03*
%TD*%
D17*
%TO.C,MX36*%
X223005215Y-83725568D03*
D16*
X227941314Y-82525015D03*
X218069116Y-84926121D03*
D15*
X218702864Y-82157934D03*
X224272711Y-78189192D03*
%TD*%
%TO.C,MX18*%
X154045801Y-105590794D03*
D16*
X162083697Y-110159811D03*
X152211499Y-107758705D03*
D17*
X157147598Y-108959258D03*
D15*
X160816201Y-104623436D03*
%TD*%
%TO.C,MX14*%
X79404039Y-90050538D03*
X86174439Y-89083180D03*
D17*
X82505836Y-93419002D03*
D16*
X87441935Y-94619555D03*
X77569737Y-92218449D03*
%TD*%
D15*
%TO.C,MX2*%
X88408189Y-53029801D03*
D16*
X96446085Y-57598818D03*
D17*
X91509986Y-56398265D03*
D15*
X95178589Y-52062443D03*
D16*
X86573887Y-55197712D03*
%TD*%
D17*
%TO.C,MX44*%
X264528030Y-93231787D03*
D16*
X259591931Y-94432340D03*
X269464129Y-92031234D03*
D15*
X260225679Y-91664153D03*
X265795526Y-87695411D03*
%TD*%
D16*
%TO.C,MX3*%
X116096983Y-57411599D03*
D15*
X114829487Y-51875224D03*
D17*
X111160884Y-56211046D03*
D16*
X106224785Y-55010493D03*
D15*
X108059087Y-52842582D03*
%TD*%
D17*
%TO.C,MX54*%
X209387998Y-159214464D03*
D15*
X214818425Y-157550593D03*
D16*
X212891265Y-162893257D03*
D15*
X208599944Y-154703736D03*
D16*
X205884731Y-155535671D03*
%TD*%
D15*
%TO.C,MX8*%
X90676514Y-70572811D03*
X83906114Y-71540169D03*
D16*
X91944010Y-76109186D03*
X82071812Y-73708080D03*
D17*
X87007911Y-74908633D03*
%TD*%
D16*
%TO.C,MX25*%
X115513714Y-138087297D03*
D17*
X120449813Y-139287850D03*
D16*
X125385912Y-140488403D03*
D15*
X117348016Y-135919386D03*
X124118416Y-134952028D03*
%TD*%
D16*
%TO.C,MX1*%
X68063516Y-50695636D03*
D15*
X76668218Y-47560367D03*
D16*
X77935714Y-53096742D03*
D17*
X72999615Y-51896189D03*
D15*
X69897818Y-48527725D03*
%TD*%
D17*
%TO.C,MX22*%
X116705276Y-114022989D03*
D15*
X120373879Y-109687167D03*
D16*
X111769177Y-112822436D03*
D15*
X113603479Y-110654525D03*
D16*
X121641375Y-115223542D03*
%TD*%
D15*
%TO.C,MX21*%
X94552860Y-108373690D03*
D17*
X97654657Y-111742154D03*
D15*
X101323260Y-107406332D03*
D16*
X102590756Y-112942707D03*
X92718558Y-110541601D03*
%TD*%
%TO.C,MX49*%
X254889349Y-112828817D03*
D17*
X249953250Y-114029370D03*
D15*
X245650899Y-112461736D03*
D16*
X245017151Y-115229923D03*
D15*
X251220746Y-108492994D03*
%TD*%
D16*
%TO.C,MX24*%
X147709421Y-126269074D03*
X157581619Y-128670180D03*
D17*
X152645520Y-127469627D03*
D15*
X156314123Y-123133805D03*
X149543723Y-124101163D03*
%TD*%
D16*
%TO.C,MX31*%
X241383122Y-57297703D03*
D15*
X232144672Y-56930622D03*
D16*
X231510924Y-59698809D03*
D15*
X237714519Y-52961880D03*
D17*
X236447023Y-58498256D03*
%TD*%
%TO.C,MX53*%
X196250746Y-145418990D03*
D15*
X201681173Y-143755119D03*
D16*
X199754013Y-149097783D03*
D15*
X195462692Y-140908262D03*
D16*
X192747479Y-141740197D03*
%TD*%
D15*
%TO.C,MX38*%
X261293450Y-69185037D03*
X255723603Y-73153779D03*
D16*
X264962053Y-73520860D03*
D17*
X260025954Y-74721413D03*
D16*
X255089855Y-75921966D03*
%TD*%
D17*
%TO.C,MX17*%
X139177475Y-102235935D03*
D16*
X144113574Y-103436488D03*
D15*
X136075678Y-98867471D03*
X142846078Y-97900113D03*
D16*
X134241376Y-101035382D03*
%TD*%
D17*
%TO.C,MX6*%
X166151745Y-71938517D03*
D16*
X161215646Y-70737964D03*
X171087844Y-73139070D03*
D15*
X169820348Y-67602695D03*
X163049948Y-68570053D03*
%TD*%
%TO.C,MX12*%
X158547873Y-87080423D03*
X165318273Y-86113065D03*
D16*
X156713571Y-89248334D03*
X166585769Y-91649440D03*
D17*
X161649670Y-90448887D03*
%TD*%
D15*
%TO.C,MX42*%
X223204938Y-100668304D03*
D16*
X232443388Y-101035385D03*
D17*
X227507289Y-102235938D03*
D16*
X222571190Y-103436491D03*
D15*
X228774785Y-96699562D03*
%TD*%
%TO.C,MX35*%
X200732740Y-88881253D03*
D16*
X200098992Y-91649440D03*
D17*
X205035091Y-90448887D03*
D15*
X206302587Y-84912511D03*
D16*
X209971190Y-89248334D03*
%TD*%
%TO.C,MX32*%
X250587778Y-57411597D03*
D15*
X256791373Y-50674668D03*
D16*
X260459976Y-55010491D03*
D15*
X251221526Y-54643410D03*
D17*
X255523877Y-56211044D03*
%TD*%
D16*
%TO.C,MX5*%
X143245524Y-64014643D03*
X153117722Y-66415749D03*
D17*
X148181623Y-65215196D03*
D15*
X151850226Y-60879374D03*
X145079826Y-61846732D03*
%TD*%
D16*
%TO.C,MX46*%
X297753197Y-90117480D03*
D17*
X302689296Y-88916927D03*
D15*
X298386945Y-87349293D03*
X303956792Y-83380551D03*
D16*
X307625395Y-87716374D03*
%TD*%
%TO.C,MX11*%
X148615648Y-84926121D03*
D15*
X140577752Y-80357104D03*
D17*
X143679549Y-83725568D03*
D16*
X138743450Y-82525015D03*
D15*
X147348152Y-79389746D03*
%TD*%
%TO.C,MX51*%
X284378652Y-110361741D03*
D16*
X293617102Y-110728822D03*
D17*
X288681003Y-111929375D03*
D15*
X289948499Y-106392999D03*
D16*
X283744904Y-113129928D03*
%TD*%
D15*
%TO.C,MX10*%
X122607628Y-73633784D03*
D16*
X130645524Y-78202801D03*
D17*
X125709425Y-77002248D03*
D16*
X120773326Y-75801695D03*
D15*
X129378028Y-72666426D03*
%TD*%
%TO.C,MX52*%
X308458865Y-101890923D03*
D16*
X302255270Y-108627852D03*
D17*
X307191369Y-107427299D03*
D16*
X312127468Y-106226746D03*
D15*
X302889018Y-105859665D03*
%TD*%
%TO.C,MX45*%
X285446422Y-87882630D03*
D16*
X279242827Y-94619559D03*
D17*
X284178926Y-93419006D03*
D16*
X289115025Y-92218453D03*
D15*
X279876575Y-91851372D03*
%TD*%
D16*
%TO.C,MX28*%
X166930749Y-149097783D03*
X173937283Y-141740197D03*
D17*
X170434016Y-145418990D03*
D15*
X165967169Y-146426451D03*
X168506857Y-140076326D03*
%TD*%
%TO.C,MX20*%
X74901962Y-108560911D03*
D16*
X73067660Y-110728822D03*
X82939858Y-113129928D03*
D17*
X78003759Y-111929375D03*
D15*
X81672362Y-107593553D03*
%TD*%
%TO.C,MX37*%
X242216596Y-71472253D03*
D16*
X236013001Y-78209182D03*
D15*
X236646749Y-75440995D03*
D16*
X245885199Y-75808076D03*
D17*
X240949100Y-77008629D03*
%TD*%
%TO.C,MX34*%
X293685143Y-51896189D03*
D16*
X298621242Y-50695636D03*
D15*
X289382792Y-50328555D03*
D16*
X288749044Y-53096742D03*
D15*
X294952639Y-46359813D03*
%TD*%
%TO.C,MX50*%
X264727751Y-110174524D03*
D16*
X273966201Y-110541605D03*
D15*
X270297598Y-106205782D03*
D16*
X264094003Y-112942711D03*
D17*
X269030102Y-111742158D03*
%TD*%
%TO.C,MX40*%
X298187222Y-70406560D03*
D16*
X293251123Y-71607113D03*
D15*
X299454718Y-64870184D03*
D16*
X303123321Y-69206007D03*
D15*
X293884871Y-68838926D03*
%TD*%
D16*
%TO.C,MX23*%
X139611497Y-121946862D03*
D15*
X138344001Y-116410487D03*
D16*
X129739299Y-119545756D03*
D17*
X134675398Y-120746309D03*
D15*
X131573601Y-117377845D03*
%TD*%
D13*
%TO.C,U1*%
X175768016Y-91959267D03*
D14*
X175768016Y-94499267D03*
X175768016Y-97039267D03*
X175768016Y-99579267D03*
X175768016Y-102119267D03*
X175768016Y-104659267D03*
X175768016Y-107199267D03*
X175768016Y-109739267D03*
X175768016Y-112279267D03*
X175768016Y-114819267D03*
X175768016Y-117359267D03*
X175996616Y-119899267D03*
X191008016Y-119899267D03*
X191008016Y-117359267D03*
X191008016Y-114819267D03*
X191008016Y-112279267D03*
X191008016Y-109739267D03*
X191008016Y-107199267D03*
X191008016Y-104659267D03*
X191008016Y-102119267D03*
X191008016Y-99579267D03*
X191008016Y-97039267D03*
X191008016Y-94499267D03*
X191008016Y-91959267D03*
X178308016Y-119899267D03*
X180848016Y-119899267D03*
X183388016Y-119899267D03*
X185928016Y-119899267D03*
X188468016Y-119899267D03*
%TD*%
D15*
%TO.C,MX48*%
X227707013Y-119178675D03*
D17*
X232009364Y-120746309D03*
D16*
X227073265Y-121946862D03*
D15*
X233276860Y-115209933D03*
D16*
X236945463Y-119545756D03*
%TD*%
D15*
%TO.C,MX9*%
X103557011Y-71352954D03*
X110327411Y-70385596D03*
D17*
X106658808Y-74721418D03*
D16*
X111594907Y-75921971D03*
X101722709Y-73520865D03*
%TD*%
D17*
%TO.C,MX7*%
X68497540Y-70406562D03*
D15*
X72166143Y-66070740D03*
X65395743Y-67038098D03*
D16*
X63561441Y-69206009D03*
X73433639Y-71607115D03*
%TD*%
D15*
%TO.C,MX56*%
X247502444Y-133751478D03*
D17*
X246234948Y-139287854D03*
D16*
X251171047Y-138087301D03*
D15*
X241932597Y-137720220D03*
D16*
X241298849Y-140488407D03*
%TD*%
D15*
%TO.C,MX33*%
X270872425Y-54830627D03*
D17*
X275174776Y-56398261D03*
D16*
X270238677Y-57598814D03*
D15*
X276442272Y-50861885D03*
D16*
X280110875Y-55197708D03*
%TD*%
D17*
%TO.C,MX39*%
X279676851Y-74908634D03*
D15*
X275374500Y-73341000D03*
X280944347Y-69372258D03*
D16*
X274740752Y-76109187D03*
X284612950Y-73708081D03*
%TD*%
%TO.C,MX47*%
X218975342Y-126269075D03*
D17*
X214039243Y-127469628D03*
D15*
X209736892Y-125901994D03*
X215306739Y-121933252D03*
D16*
X209103144Y-128670181D03*
%TD*%
%TO.C,MX19*%
X54557291Y-106226748D03*
D15*
X63161993Y-103091479D03*
D16*
X64429489Y-108627854D03*
D15*
X56391593Y-104058837D03*
D17*
X59493390Y-107427301D03*
%TD*%
D16*
%TO.C,MX13*%
X68931564Y-90117484D03*
X59059366Y-87716378D03*
D17*
X63995465Y-88916931D03*
D15*
X67664068Y-84581109D03*
X60893668Y-85548467D03*
%TD*%
D17*
%TO.C,MX16*%
X121207353Y-95512614D03*
D15*
X118105556Y-92144150D03*
D16*
X116271254Y-94312061D03*
D15*
X124875956Y-91176792D03*
D16*
X126143452Y-96713167D03*
%TD*%
D15*
%TO.C,MX4*%
X127109709Y-55123413D03*
D16*
X135147605Y-59692430D03*
D15*
X133880109Y-54156055D03*
D17*
X130211506Y-58491877D03*
D16*
X125275407Y-57291324D03*
%TD*%
D17*
%TO.C,MX15*%
X102156732Y-93231787D03*
D16*
X107092831Y-94432340D03*
D15*
X105825335Y-88895965D03*
X99054935Y-89863323D03*
D16*
X97220633Y-92031234D03*
%TD*%
%TO.C,MX30*%
X213567039Y-66415750D03*
D15*
X214200787Y-63647563D03*
D16*
X223439237Y-64014644D03*
D15*
X219770634Y-59678821D03*
D17*
X218503138Y-65215197D03*
%TD*%
D16*
%TO.C,MX26*%
X143356031Y-147211724D03*
D15*
X135318135Y-142642707D03*
X142088535Y-141675349D03*
D17*
X138419932Y-146011171D03*
D16*
X133483833Y-144810618D03*
%TD*%
D15*
%TO.C,MX41*%
X205234816Y-107391620D03*
D16*
X204601068Y-110159807D03*
D17*
X209537167Y-108959254D03*
D16*
X214473266Y-107758701D03*
D15*
X210804663Y-103422878D03*
%TD*%
%TO.C,MX43*%
X246718670Y-89982623D03*
D16*
X240515075Y-96719552D03*
D17*
X245451174Y-95518999D03*
D16*
X250387273Y-94318446D03*
D15*
X241148823Y-93951365D03*
%TD*%
D17*
%TO.C,MX27*%
X157296762Y-159214464D03*
D16*
X153793495Y-162893257D03*
D15*
X152829915Y-160221925D03*
X155369603Y-153871800D03*
D16*
X160800029Y-155535671D03*
%TD*%
D18*
%TO.C,D28*%
X160828723Y-143135034D03*
D19*
X157233533Y-142260615D03*
D20*
X154658599Y-141634342D03*
%TD*%
D18*
%TO.C,D11*%
X151535396Y-77091944D03*
D20*
X145365272Y-75591252D03*
D19*
X147940206Y-76217525D03*
%TD*%
D21*
%TO.C,D54*%
X216766558Y-146777295D03*
D22*
X213171368Y-147651714D03*
D20*
X210596434Y-148277987D03*
%TD*%
D21*
%TO.C,D40*%
X302022476Y-60951631D03*
D20*
X295852352Y-62452323D03*
D22*
X298427286Y-61826050D03*
%TD*%
D18*
%TO.C,D24*%
X160377966Y-120805993D03*
D20*
X154207842Y-119305301D03*
D19*
X156782776Y-119931574D03*
%TD*%
D21*
%TO.C,D29*%
X208270069Y-78525906D03*
D22*
X204674879Y-79400325D03*
D20*
X202099945Y-80026598D03*
%TD*%
D18*
%TO.C,D8*%
X94863758Y-68275012D03*
D19*
X91268568Y-67400593D03*
D20*
X88693634Y-66774320D03*
%TD*%
D21*
%TO.C,D37*%
X244810588Y-67547318D03*
D22*
X241215398Y-68421737D03*
D20*
X238640464Y-69048010D03*
%TD*%
D21*
%TO.C,D43*%
X252967657Y-102160036D03*
D22*
X249372467Y-103034455D03*
D20*
X246797533Y-103660728D03*
%TD*%
D21*
%TO.C,D49*%
X253567934Y-104628087D03*
D22*
X249972744Y-105502506D03*
D20*
X247397810Y-106128779D03*
%TD*%
D18*
%TO.C,D12*%
X169505518Y-83815262D03*
D19*
X165910328Y-82940843D03*
D20*
X163335394Y-82314570D03*
%TD*%
D21*
%TO.C,D47*%
X217874495Y-118014699D03*
D22*
X214279305Y-118889118D03*
D20*
X211704371Y-119515391D03*
%TD*%
D18*
%TO.C,D23*%
X160978242Y-118337944D03*
D20*
X154808118Y-116837252D03*
D19*
X157383052Y-117463525D03*
%TD*%
D21*
%TO.C,D39*%
X283512104Y-65453706D03*
D20*
X277341980Y-66954398D03*
D22*
X279916914Y-66328125D03*
%TD*%
D21*
%TO.C,D55*%
X232048604Y-136525290D03*
D22*
X228453414Y-137399709D03*
D20*
X225878480Y-138025982D03*
%TD*%
D21*
%TO.C,D50*%
X272805331Y-102040420D03*
D22*
X269210141Y-102914839D03*
D20*
X266635207Y-103541112D03*
%TD*%
D18*
%TO.C,D16*%
X85612803Y-105235728D03*
D20*
X79442679Y-103735036D03*
D19*
X82017613Y-104361309D03*
%TD*%
D21*
%TO.C,D30*%
X226240189Y-71802587D03*
D22*
X222644999Y-72677006D03*
D20*
X220070065Y-73303279D03*
%TD*%
D21*
%TO.C,D31*%
X244210313Y-65079266D03*
D22*
X240615123Y-65953685D03*
D20*
X238040189Y-66579958D03*
%TD*%
D18*
%TO.C,D27*%
X155992821Y-147971162D03*
D20*
X149822697Y-146470470D03*
D19*
X152397631Y-147096743D03*
%TD*%
D18*
%TO.C,D26*%
X146080456Y-139286571D03*
D19*
X142485266Y-138412152D03*
D20*
X139910332Y-137785879D03*
%TD*%
D21*
%TO.C,D44*%
X272265082Y-99819179D03*
D22*
X268669892Y-100693598D03*
D20*
X266094958Y-101319871D03*
%TD*%
D21*
%TO.C,D41*%
X217274218Y-115546648D03*
D22*
X213679028Y-116421067D03*
D20*
X211104094Y-117047340D03*
%TD*%
D18*
%TO.C,D25*%
X128110334Y-132563251D03*
D19*
X124515144Y-131688832D03*
D20*
X121940210Y-131062559D03*
%TD*%
D21*
%TO.C,D42*%
X235244342Y-108823330D03*
D20*
X229074218Y-110324022D03*
D22*
X231649152Y-109697749D03*
%TD*%
D21*
%TO.C,D33*%
X282911828Y-62985654D03*
D20*
X276741704Y-64486346D03*
D22*
X279316638Y-63860073D03*
%TD*%
D18*
%TO.C,D10*%
X133441873Y-70338610D03*
D19*
X129846683Y-69464191D03*
D20*
X127271749Y-68837918D03*
%TD*%
D21*
%TO.C,D56*%
X250018724Y-129801967D03*
D22*
X246423534Y-130676386D03*
D20*
X243848600Y-131302659D03*
%TD*%
D21*
%TO.C,D38*%
X263861209Y-65266487D03*
D20*
X257691085Y-66767179D03*
D22*
X260266019Y-66140906D03*
%TD*%
D18*
%TO.C,D6*%
X170105795Y-81347217D03*
D20*
X163935671Y-79846525D03*
D19*
X166510605Y-80472798D03*
%TD*%
D18*
%TO.C,D17*%
X105863975Y-102580460D03*
D19*
X102268785Y-101706041D03*
D20*
X99693851Y-101079768D03*
%TD*%
D21*
%TO.C,D48*%
X235844616Y-111291377D03*
D20*
X229674492Y-112792069D03*
D22*
X232249426Y-112165796D03*
%TD*%
D18*
%TO.C,D2*%
X95464036Y-65806965D03*
D20*
X89293912Y-64306273D03*
D19*
X91868846Y-64932546D03*
%TD*%
D21*
%TO.C,D51*%
X292516254Y-102474447D03*
D20*
X286346130Y-103975139D03*
D22*
X288921064Y-103348866D03*
%TD*%
D18*
%TO.C,D22*%
X142284442Y-114052660D03*
D20*
X136114318Y-112551968D03*
D19*
X138689252Y-113178241D03*
%TD*%
D18*
%TO.C,D9*%
X114514656Y-68087794D03*
D20*
X108344532Y-66587102D03*
D19*
X110919466Y-67213375D03*
%TD*%
D21*
%TO.C,D36*%
X226840467Y-74270638D03*
D22*
X223245277Y-75145057D03*
D20*
X220670343Y-75771330D03*
%TD*%
D21*
%TO.C,D46*%
X310426351Y-95504322D03*
D22*
X306831161Y-96378741D03*
D20*
X304256227Y-97005014D03*
%TD*%
D18*
%TO.C,D1*%
X76953665Y-61304892D03*
D19*
X73358475Y-60430473D03*
D20*
X70783541Y-59804200D03*
%TD*%
D21*
%TO.C,D34*%
X301422198Y-58483581D03*
D22*
X297827008Y-59358000D03*
D20*
X295252074Y-59984273D03*
%TD*%
D18*
%TO.C,D21*%
X142884718Y-111584610D03*
D20*
X136714594Y-110083918D03*
D19*
X139289528Y-110710191D03*
%TD*%
D18*
%TO.C,D20*%
X124314318Y-107329339D03*
D20*
X118144194Y-105828647D03*
D19*
X120719128Y-106454920D03*
%TD*%
D21*
%TO.C,D45*%
X291915979Y-100006398D03*
D22*
X288320789Y-100880817D03*
D20*
X285745855Y-101507090D03*
%TD*%
D18*
%TO.C,D3*%
X115114933Y-65619746D03*
D20*
X108944809Y-64119054D03*
D19*
X111519743Y-64745327D03*
%TD*%
D18*
%TO.C,D14*%
X67102432Y-100733650D03*
D19*
X63507242Y-99859231D03*
D20*
X60932308Y-99232958D03*
%TD*%
D21*
%TO.C,D32*%
X263260931Y-62798438D03*
D20*
X257090807Y-64299130D03*
D22*
X259665741Y-63672857D03*
%TD*%
D21*
%TO.C,D52*%
X311026624Y-97972372D03*
D22*
X307431434Y-98846791D03*
D20*
X304856500Y-99473064D03*
%TD*%
D18*
%TO.C,D19*%
X124914597Y-104861291D03*
D19*
X121319407Y-103986872D03*
D20*
X118744473Y-103360599D03*
%TD*%
D18*
%TO.C,D13*%
X67702710Y-98265603D03*
D20*
X61532586Y-96764911D03*
D19*
X64107520Y-97391184D03*
%TD*%
D21*
%TO.C,D53*%
X212304209Y-141327504D03*
D22*
X208709019Y-142201923D03*
D20*
X206134085Y-142828196D03*
%TD*%
D18*
%TO.C,D5*%
X152135674Y-74623897D03*
D19*
X148540484Y-73749478D03*
D20*
X145965550Y-73123205D03*
%TD*%
D18*
%TO.C,D18*%
X105263701Y-105048508D03*
D20*
X99093577Y-103547816D03*
D19*
X101668511Y-104174089D03*
%TD*%
D18*
%TO.C,D15*%
X86213081Y-102767678D03*
D20*
X80042957Y-101266986D03*
D19*
X82617891Y-101893259D03*
%TD*%
D18*
%TO.C,D4*%
X134042150Y-67870563D03*
D19*
X130446960Y-66996144D03*
D20*
X127872026Y-66369871D03*
%TD*%
D18*
%TO.C,D7*%
X76353388Y-63772938D03*
D19*
X72758198Y-62898519D03*
D20*
X70183264Y-62272246D03*
%TD*%
D21*
%TO.C,D35*%
X208870345Y-80993958D03*
D20*
X202700221Y-82494650D03*
D22*
X205275155Y-81868377D03*
%TD*%
M02*
